/* XPM */
static char *abcardWindows[]={
"32 32 9 1",
"b c #000000",
"g c #000080",
". c #0000ff",
"# c #008080",
"a c #808080",
"f c #c0c0c0",
"d c #ff0000",
"e c #ffff00",
"c c #ffffff",
".#.#.#.#.#.#.#.#.#.#.#.#.#.#.#.a",
"#.#.#.#.#.#.#.#.#.#.#.#.#.#.#.ab",
".#.#.#.#.#.#.#.#.#.#.#.#.#.#.abc",
"#.#.#.#.#.#.#.#.#.#.#.#.#.#.abcc",
".#.#.#.#.#.#.#.#.#.#.#.#.#.abccc",
"#.#.#.#.#.#.#.bbbbbbbbbbbbbbbbbc",
".#.#.#.#.#.#.#bcccccdcc.ccdcc.bc",
"#.#.#.#.#.#.#baecccdce.ecdce.eba",
".#.#.#.#.#.#bccaccccccccccccccba",
"#.#.#.#.#.#bceceaccececec##ecdba",
".#.#.#.#.#bccccccaccccecc##cdcba",
"#.#.#.#.#bcecacfceaccececcceceba",
".#.#.#.#bcccacccfccaccaccaccc.ba",
"#.#.#.#bcecaceaecaceacaecace.eba",
".#.#.#bcccaccaffaffcfafccaccccba",
"#.#.#bcecaceaefafefeceafcacecdba",
".#.#...............ccccafaccdcba",
"#.#.fffffffffffffaabcfceaffeceba",
".#..cccccccccccccfabccfccbffc.ba",
"#.#.ccecccccccccccabfcfefcbffcba",
".#..cec#c#c#c##cccabcfcfcbfcfcba",
"#.#.ceccccccccccccabfecebfcfcfba",
".#..cec##c##c##cccabcffbfcfcfaba",
"#.#.ceccccccccccccabfebfcfcfefba",
".#..cec##c##c##cccabfbfefcfff.ba",
"#.#.ceccccccccccccabbfefefef.eba",
".#..cfececececccccabfeedee.eedba",
"#.#..ffffffffffffcabfedff.fedcba",
".#.a............afabbbbbbbbbbbba",
"#.abbbbbbbbbbbbbbaabaaaaaaaaaaaa",
".abcccaaaaaaaaaabbabcccccccccccc",
"#bcccccccccccccccabgcccccccccccc"};
