/* XPM */
static char *adreebookWindow[]={
"32 32 12 1",
"b c #000000",
"j c #000080",
". c #0000ff",
"i c #008000",
"# c #008080",
"g c #800000",
"f c #808000",
"a c #808080",
"h c #c0c0c0",
"d c #ff0000",
"e c #ffff00",
"c c #ffffff",
".#.#.#.#.#.#.#.#.#.#.#.#.#.#.#.a",
"#.#.#.#.#.#.#.#.#.#.#.#.#.#.#.ab",
".#.#.#.#.#.#.#.#.#.#.#.#.#.#.abc",
"#.#.#.#.#.#.#.#.#.#.#.#.#.#.abcc",
".#.#.#.#.#.#.#.#.#.#.ddddb.abccc",
"#.#.#.#.#.#.#.#cececeddddbecebbb",
".#.#.#.#.#.#.#.ececccddddbccccab",
"#.#.#.#.#.#.dddddaeceeeeeeeceefb",
".#.#.#.#.cccdddddgheiiiiibaaaefb",
"#.#.#.#.#cecdddddghciiiiibaaabfb",
".#.#.#.#aaadccchhhhiiiiiibeeebfb",
"#.#.#ceeececececececececeabfebfb",
".#.#.ccccccccccc..acccefbebfebfb",
"#.#.#cecececece....aecefbebfebfb",
".#.#.ceeccccccc....acccfbebfebfb",
"#.#.#cjjjjjceee....aecefbebfebfb",
".#.#.cccccccceec..aeecefbebfebbb",
"#.#.#cececece..hcch..ecfbebfhbjb",
".#.#.cjjjjje....aa...jefbfbfbjjb",
"#.#.#cecccejj.....jjjjjfbfbbjjjb",
".#.#.ccccccjjjjjjjjjjjjfbfbjjjjb",
"#.bbbbbbbbbjjbbbbbbbbbbbbbjjjjjb",
".#b.h.h.h.h.h.h.h.h.h.h.hbjjjjjb",
"#.bhchchchch.c.c.c.h.h.h.bjjjjbc",
".#b.ccccccccccccc.c.h.h.hbjjjbcc",
"#.bh.h.h.h.h.c.c.c.c.c.h.bjjbccc",
".#b.h.h.h.h.h.h.h.h.h.h.hbjbcccc",
"#.bh.h.h.h.h.h.h.h.h.h.h.bbccccc",
".#bjjjjjjjjjbbbbbbbbbbbbbbcccccc",
"#.abcccccccccccccccccccccccccccc",
".abccccccccccccccccccccccccccccc",
"#bcccccccccccccccccccccccccccccc"};
