/* XPM */
static char *bmPropsWindow[]={
"32 32 8 1",
"b c #000000",
". c #0000ff",
"# c #008080",
"d c #00ff00",
"a c #808080",
"e c #c0c0c0",
"f c #ffff00",
"c c #ffffff",
".#.#.#.#.#.#.#.#.#.#.#.#.#.#.#.a",
"#.#.#.#.#.#.#.#.#.#.#.#.#.#.#.ab",
".#.#.#.#.#.#.#.#.#.#.#.#.#.#.abc",
"#.#.#.#.#.#.#.#.#.#.#.#.#.#.abcc",
".#.#.#.#.#.#.#.#.#.#.#.#.d..bccc",
"#.#.#.#.#.#.#.#.#.#.#.#.d#dd#bbc",
".#.#.#.#.#.#.#.#.#.#.#.d####dddb",
"#.#.#.#.#.#.#.#.#.#.#.d#######bb",
".#.#.#.#.#.#.#.#.#.#.d#######bbc",
"#.#.#.#.#.#.#.e##.#.d#######bbcc",
".#.#.#.#.#.#.ecccccd#######bbccc",
"#.#.#.#.#.#.eccfccd#######bbcccc",
".#.#.#.#.#.eccfccd#######bbccccc",
"#.#.#.#.#.#ecccfd#######bbcccccc",
".#.#.#.#.#ecfccd#######bbcbbcccc",
"#.#.#.#.#ecccfd#######bbccbccccc",
".#.#.#.##cfccd#######bbccbcccccc",
"#.#.#.#.eccfd#######bbcfbccccccc",
".#.#.#.ecccd#######bbcfebccccccc",
"#.#.#.eccfdbbbbd##bbcfcbcccccccc",
".#.#.#ccccfcfcfd#bbcecebcccccccc",
"#.#.#ecfcfcfcfcdbbcfcebccccccccc",
".#.#ecccfcfcfcfbbcecfbaccccccccc",
"#.#.efcfcfcfcecfcfcfebaaaaaacccc",
".#.bbeecfcecfcefecefbaaaaaaacccc",
"#.#.#bbbefcfcffecfcebaaaaacccccc",
".#.#.ababbbeecececfbaaaaaccccccc",
"#.#.abcccaabbbeeefbaaaaccccccccc",
".#.abccccccaaabbeebaaccccccccccc",
"#.abccccccccccaabbbccccccccccccc",
".abccccccccccccccccccccccccccccc",
"#bcccccccccccccccccccccccccccccc"};
