/* XPM */
static char *calendar[]={
"32 32 6 1",
"b c #000000",
". c #0000ff",
"# c #008080",
"a c #808080",
"d c #c0c0c0",
"c c #ffffff",
".#.#.#.#.#.#.#.#.#.#.#.#.#.#.#.a",
"#.#.#.#.#.#.#.#.#.#.#.#.#.#.#.ab",
".#.#.#.#.#.#.#.#.#.#.#.#.#.#.abc",
"#.#.#.#.#.#..dddddddddddddddddac",
".#.#.#.#.#...ddd.dd.dd.ddd###bac",
"#.#.#.#.#.#..ddddddddddddc#c#bac",
".#.#.#..aaaaaaaaaaaaaaaaa####bac",
"#.#.#.#.dcdcdcdcdcdcdc###baabbac",
".#.#.#..cd.dc.c.c.cdcd#c#baccbac",
"#.#.bbbbbbbbbbbbbbbbbdc##baccbac",
".#.#bddddddddddd####baaabbaccbac",
"#.#.bddd.dd.dd.d#c##bacccbaccbac",
".#.#bddddddddddd#cb#bacccbacdbac",
"#.#.bdaaaaaaaaaabbbbbacccbaccbac",
".#.#bcccccccccccccccbacdcbaccbac",
"#.#.bcccccccccccccccbacccbadcbac",
".#.#bcddddddddccdddcbacdcbaccbac",
"#.#.bcccccccccccccccbacccbaccbac",
".#.#bcddddddddccddccbacccbaccbac",
"#.#.bcccccccccccccccbacdcbaccbac",
".#.#bcdddddddddcccccbacccbaccbac",
"#.#.bcccccccccccccccbacccbaccbac",
".#.#bcddddddcddddddcbacccbaccbac",
"#.#.bccccccccddddddcbacccbaccbcc",
".#.#bcddddddcddddddcbacccbabbbcc",
"#.#.bccccccccddddddcbacccbaccccc",
".#.#bcddddddcddddddcbacccbcccccc",
"#.#.bcccccccccccccccbaabbbcccccc",
".#.abcdddddddddddddcbacccccccccc",
"#.abbcccccccccccccccbccccccccccc",
".abcbbbbbbbbbbbbbbbbbccccccccccc",
"#bcccccccccccccccccccccccccccccc"};
