/* XPM */
static char *chatzilla[]={
"32 32 8 1",
"b c #000000",
"a c #000080",
"# c #0000ff",
". c #008080",
"c c #808080",
"d c #c0c0c0",
"f c #ffff00",
"e c #ffffff",
".#.#.#.#.#.#.#.#.#.#.#.#.#.#.#.#",
"#.#aaabaaaabbbbb#.#.#.#.#.#.#.cb",
".#adcccccccccccbbb.#.#.#.#.#.cbe",
"#.ddddddddddddccbbb.#.#.#.#.cbee",
".#ddfeeeeeeeeddcbb#b.#.#.#.cbeee",
"#adfe.d.e.eeeedcabb##.#.#.cbeeee",
".#dfedeeeeeeeedcab#b.#.#.cbeeeee",
"##dfe..e..e.eedcabb##.#.cbeeeeee",
".#dfeeeeeeeeeedcab#b.#.cbeeeeeee",
"##dfe..e..e..edcabb##.cbeeeeeeee",
".#dfeeeeeeeeeedcab#b.cbeeeeeeeee",
"##ddfefefefeeddcbbbc.beeeeeeeeee",
".##ddddddddddfcabb#cbeeeeeeeeeee",
"###########addabbbcbeeeeeeeeeeee",
".#b#b#b#b#b#bdabacceeeeeeeeeeeee",
"#.#b#b#b#b#b##aaaaceeeeeeeeeeeee",
".#.#b#b#b#b#.aacacbeeeeeeeeeeeee",
"#.#.#.#.#.#.#.acadcbbbbbbbbbdcee",
".#.#.#.#.#.#.c.adfdddddddcccbdce",
"#.#.#.#.#.#.cb#ddfefefeedddccbdc",
".#.#.#.#.#.cbe#dfeeeeeeeeeddcbdc",
"#.#.#.#.#.cbee#df..e.eeddeedcbdc",
".#.#.#.#.cbeee#dfeeeeeeeededcadc",
"#.#.#.#.cbeeee#df..e..e..d.dcadc",
".#.#.#.cbeeeee#dfeeeeeeeeeedcadc",
"#.#.#.cbeeeeee#dfee..e..e.edcadc",
".#.#.cbeeeeeee#dfeeeeeeeeeedcbdc",
"#.#.cbeeeeeeee#ddfefefeeeeddcadc",
".#.cbeeeeeeeeee#############abdc",
"#.cbeeeeeeeeeeecbbbbbbbbabbbbddc",
".cbeeeeeeeeeeeeeccddddddddddddcc",
"#beeeeeeeeeeeeeeecccccccccccccce"};
