/* XPM */
static char *downloadManager[]={
"32 32 9 1",
"# c #000000",
"e c #000080",
"c c #008000",
"f c #008080",
"d c #00ff00",
"b c #808080",
"a c #c0c0c0",
"g c #ffff00",
". c #ffffff",
".###.##a##########a##...........",
"#...bba#a.........#..#..........",
"#.aabaab.aaaaaaaaab.aa#.........",
"#.aabaab.aaaa#bbaab.aab#........",
"#.aabaab.aaaa#bbaab.aaab........",
"#.aabaab.aaaa#bbaab.aac#........",
"#.aabaaabbbbbbbbbbb.ac.d#.......",
"#.aaaaaaaaaaaaaaaaaaacdd#.......",
"#.aa################.a##..ce....",
"#.aa#e###e#ee#e###e#.aab.c.de...",
"#.aa####ece#feef####.ab#.cdfe...",
"#.aa#fe....f#e...eee.ab#..##....",
"#.aaeeff..fefe#.#fee.ab#........",
"#.aaefef.a.fcff.fefe.ab#..ce....",
"#.aafeff.fa.fff.ffef.ab#.c.de...",
"#.aafcef.ffa.ff.ffff.ab#.cdfe...",
"#.aaffff.fffa.f.ffff.ab#..##....",
"#.aaffff.ffffaa.ffff.abb........",
"#.aafff#.#######ffff.abaccc###..",
"#.aaf##...########bf.aba#..cf#..",
"#.aa###############f.aba#ddcf#..",
"#.aa################.aba#ddcf#..",
"#.aa################aabaegdcf#..",
"#ababababababababababbbacgdcf#..",
".######################.#gdcf#..",
"........................e.dcf#..",
".....................##c#.dcc###",
".....................#dgd.ddcfc#",
"......................#dg.dcdc#.",
".......................#d.dcc#..",
"........................#ddc#...",
".........................#c#...."};
