/* XPM */
static char *editorWindow[]={
"32 32 11 1",
"b c #000000",
"f c #000080",
"# c #0000ff",
". c #008080",
"i c #00ffff",
"g c #800000",
"h c #808000",
"d c #808080",
"a c #c0c0c0",
"e c #ffff00",
"c c #ffffff",
".#.#.#.#.#.#.#.#.#.#.#.#.#.#.#.#",
"#.#.#.#.#.#.#.#.#.#.#.#.#.#.#.ab",
".#.#.#.#.#.#.#.#.#.#.#.#.#.#.abc",
"#.#.#.#.#.#.#.#.#c#.#.#.#.#.abcc",
".#.#.#.#.#.#.#.#cccd.#.#.#.abccc",
"#.#.#.#.#.#.#.#cecacdd#.#.abcccc",
".#.#.##f####.#cccccacad#.abccccc",
"#.#.#.adfff#ecccccecaaaddbcccccc",
".#.#.#dcghgffccccccacaaaadbccccc",
"#.#.#.ddchhgfaccececacaaaadbcccc",
".#.#.#.deghhgbcccacacacaaaadbccc",
"#.#.##adeceghgffececacaaaaaaabcc",
".#.#aacheechghbdaccacacaaaaaaadc",
"#.#aecehdhecb#bbdaecacaaaaaacdbb",
".#ccccccccdc#bbbbdaacacaaaacdbba",
"#aeccccccceda.bbbbdaacacaacdbbda",
".#cccccccccb...bbbbdaccaacdbdacc",
"#.#cecccccccedi.bbbbdacacdbdcccc",
".#.#ccccccccccdc.bbbbdacdbdacccc",
"#.#.#cececececeda.bbbbddddaccccc",
".#.#.fccccccccccda.bbbbddacccccc",
"#.#.#.fcecececeeeda.bbbbddcccccc",
".#.#.#.bccccccccccda.bbbbdbccccc",
"#.#.#.#.bcecececeacdababffabcccc",
".#.#.#.adbccccccacbada.#.bbabdcc",
"#.#.#.abcabceceacbaacd#ab.bbabdc",
".#.#.abccaabacacbaadccbdcb.bbabd",
"#.#.abccccaabacbaadccccbdib.bbbd",
".#.abccccccaadbaadccccccbd.b.bbb",
"#.abccccccccaaaadccccccccbd.b.bb",
".abccccccccccaadccccccccccbd.bbb",
"#bccccccccccccdccccccccccccbbbbc"};
