/* XPM */
static char *findBookmarkWindow[]={
"32 32 10 1",
"b c #000000",
"d c #000080",
". c #0000ff",
"# c #008080",
"g c #00ffff",
"f c #808000",
"a c #808080",
"e c #c0c0c0",
"h c #ffff00",
"c c #ffffff",
".#.#.#.#.#.#.#.#.#.#.#.#.#.#.#.a",
"#.#.#.#.#.#.#.#.#.#.#.#.#.#.#.ab",
".#.#.#.#.#.#.#.#.#.#.#.#.#.#.abc",
"#.#.#.#.#.#.#.#.#.#.#.#.#.#.abcc",
".#.#.#.#.#.#.#.b.b.b.d.#.#.abccc",
"#.#.#.#.#.aaaaaaa.b.b.d.#.abcccc",
".#.#.#.#.aaaaaeeaad#.b.d.fbccccc",
"#.#.#.#.eabbbaaeeea.#.b.adcccccc",
".#.#.#.eabddaeaaeeea.#.adccccccc",
"#.#.#.#eaddaeeeaaeeabeedeecccccc",
".#.#.#aabdaecgeeaacabeeeeecccccc",
"#.#.#.cabbecgcgeeacabe#eeecccccc",
".#.#.#ebbaeecccceacab#heeecccccc",
"#.#.#.ebbaeccccceaeabaheeecccccc",
".#.#.#ebbaggcccceaeabageeecccccc",
"#.#.#.ebbaggccceeae.bhceeecccccc",
".#.#.#ebbagccce#eaa.beceeccccccc",
"#.#.#.eabaecce#eea.bbceeeccccccc",
".#.#.#.eeaege##ea.#bbceeeecccccc",
"#.#.#..aceae#eeaadddabceeeeccccc",
".#.#.#.a.cceeaaabbdeeabeeeeecccc",
"#.#.#.#.a..aabbdbddeceabeeeeeccc",
".#.#.#.#.adddddbabbeeceabeeeeecc",
"#.#.#.#.abcaaaacccbbeeceabeeeeec",
".#.#.#.abccccccccccbbaeceabeeeee",
"#.#.#.abccccccccccccbbaeceabeeee",
".#.#.abccccccccccccccbdaecebbeee",
"#.#.abccccccccccccccccbbacabbeee",
".#.abccccccccccccccccccbbeaabeec",
"#.abccccccccccccccccccccbbabbecc",
".abccccccccccccccccccccccbbbcccc",
"#bcccccccccccccccccccccccccccccc"};
