/* XPM */
static char *import[]={
"32 32 12 1",
"b c #000000",
"e c #000080",
". c #0000ff",
"# c #008080",
"g c #00ffff",
"h c #800000",
"f c #808000",
"a c #808080",
"d c #c0c0c0",
"j c #ff0000",
"i c #ffff00",
"c c #ffffff",
".#.#.#.#.#.#.#.#.#.#.#.#.#.#.#.a",
"#.#.#.#.#.#.#.#.#.#.#.#.#.#.#.ab",
".#.#.#.#.#.#.#.#.#.#.#.#.#.#.abc",
"#.#.#.#.#.#.#.#.#.#.#.#.#.#.abcc",
".#.#.#.#.#.#aaaaa#.#.#.#.#.abccc",
"#.#.#.#.#.ddccddda#.#.#.#.abcccc",
".#.#.#.#.dacaaeeeee#.#.#.fbccccc",
"#.#.#.#.dadadab.#.#.#.#.abcccccc",
".#.#.#.dadgdaae#.#.#.#.abcchhhcc",
"#.#.#.dadgdadae.#.#.#.abcchfifhc",
".#.#.dacgcadaeb#.#.#.abcchfiijfb",
"#.#.#ddgcadaeb#.#.#.abcchfiijfhb",
".#.#.dccadaeabe#.#.abcchfiihfhhb",
"#.#dadaadaeaeabe#.abccbfiihfhhba",
".#dadeeeeeeea#abeabaccfichfhhbda",
"#eagcdea#.#.babbbbbcacbbdihhbdac",
".#eadae#.#.#.bb##bbbcbdabihbdacc",
"#.#eeeb.#.#.#b#da#babdabbfbdaccc",
".#.#.#.#.#.#.ab#daabdabdfbdacccc",
"#.#.#.#.#.#.abcb#dbdabadadaccccc",
".#.#.#.#.#.abcccabdababbdacccccc",
"#.#.#.#.#.abccccbdaba#bbbdaccccc",
".#.#.#.#.abccccbdabd#a#bbbdacccc",
"#.#.#.#.abccccbdabdb#da#bbbdaccc",
".#.#.#.abccccbcabdacb#da#bbbdacc",
"#.#.#.abccccbgabdacccb#da#bbbdac",
".#.#.abcccbbgabdacccccb#da#bbbaa",
"#.#.abcccbdcdbdacccccccb#da#bbbb",
".#.abcccbdcdabdaccccccccbbdb#bbb",
"#.abccccdbddbdaccccccccccbb##bbc",
".abcccccccbbdacccccccccccbbdbbcc",
"#bccccccccccacccccccccccccbbbccc"};
