/* XPM */
static char *jsconsoleWindow[]={
"32 32 10 1",
"b c #000000",
"e c #000080",
". c #0000ff",
"f c #008000",
"# c #008080",
"g c #00ffff",
"a c #808080",
"d c #c0c0c0",
"h c #ff0000",
"c c #ffffff",
".#.#.#.#.#.#.#.#.#.#.#.#.#.#.#.a",
"#.#.#.#.#.#.#.#.#.#.#.#.#.#.#.ab",
".#.#.#.#.#.#.#.#.#a#.#.#.b.b.abc",
"#.#.#.#.#.#.#.aadddddab.b.b.abcc",
".#.#.#.#.#aaddddddddddddab.bbccc",
"#.#.#.ccddddaadddddddddddddddacc",
".#.#.#cdccddddaadddddddddddaccaa",
"#.#.b.cdddcccdddaaaddddddcccdada",
".#.b.bcdddddcccddddaadccccddadda",
"#.#.b.caeaddddccccdddadcdadadada",
".#.b.bcaefeaddddcccccdadadadadda",
"#.#.b.cae#f#eaddddcddadaaadaaada",
".#.b.bcaefgf#feaddcdadabadaaaada",
"#.#.b.cae#g###febdcadadbaaaaaada",
".#.b.bcaef#f#f#f#dcdadabaaaaaada",
"#.#.b.cae#f#f#f##dcadadbaaaaaada",
".#.b.bcaef#f#f###dcdadabaaaaaada",
"#.#.b.cae#f#f#f##dcadadbaaaaaada",
".#.b.bcaef#f#f#f#dcdadabaaadadaa",
"#.#.b.caa#f#f#f#fdcadadbaadadaed",
".#.b.bccdaaf#f#f#dcdadabadadaeac",
"#.#.b.cdccdaa#f#fdcadadbaadaeccc",
".#.dcdddddcccaaaadcdadabadaecccc",
"#dccdda#addddccdadcadadbaaecadac",
"dcddcddaaaaaddddddcdadabeeeddada",
"adccdccddaaaaadhddcadadbeeeadaaa",
"b#adccdcccdeeaaaadcdadeeeeaedaac",
"#bbaadccddccaeeaaacaeeeeaaaedaac",
".#.bbaddccdddddbbbeeeeeeaabdaacc",
"#.abcbbbddcddaaabeeeeeeaabdaaccc",
".abccccabbdaabbbeeeeeaeeeaaacccc",
"#bcccccccabbbbaaaacccccccccccccc"};
