/* XPM */
static char *messengerWindow[]={
"32 32 10 1",
"b c #000000",
". c #0000ff",
"h c #008000",
"# c #008080",
"g c #808000",
"e c #808080",
"c c #c0c0c0",
"a c #ff0000",
"f c #ffff00",
"d c #ffffff",
".#.#.#.#.#aa.#b#.#.#.#.#.#.#.#.#",
"#.#.#.#.cdaadc#b#b#b#.#.#.#.#.eb",
".#.#.#c..ddddc...#b#b#b#.#.#.ebd",
"#.#.aacdddcdcdccccc.#b#b#.#.ebdd",
".a...cdcdcdcdcdcdccaa#b#b#.ebddd",
"#cdcddddcdcdceddccdccccb#bebeddd",
".baddddddcdcdceeddccccc#..bccedd",
"#bb..cddddcecddceedddcdcccbbccce",
".ebbdddcdcdceecdcdeeddddcdcaabce",
"#.ebbeaaccaadceeeccceedddcddc.be",
".#.ebbc..cdddd..ceefcfdfddcc.bed",
"#.#.#accdddcddddcaacfdfdfddccbdd",
".a...dddddddddddddc..ddfccaabedd",
"#cdddddcdcdcdedcdcdcdcaadcebeddd",
".badddddddddddeeddcdcdcdcc.beddd",
"#bb..ddcdcdedcdcbedcdcdc..egbeed",
".ebbddddddddeeedddbecdcdcdcaabee",
"#.ebbeaaddddddeeccdceedcdcdccccb",
".#.ebbecdfdfcdddebcfcfdfcdcdd..b",
"#.#.ebbe..fdfcfcfceefdfdfddcdcbd",
".#.#.#ebecdfdfdfcfcfcfdfcdaacbed",
"#.#.#.#ebecaadfdfddcdcdcdceebeed",
".#.#.#.#.beecddfddddcdc..egbeedd",
"#.#.#.#.ebebe...fddcdcdchbbeeddd",
".#.#.#.ebddeb#cdcfcdaachbceedddd",
"#.#.#.ebddddeebaaafcdccbceeddddd",
".#.#.ebddddddecbcccdcbbceedddddd",
"#.#.ebddddddddecb..ebceeeddddddd",
".#.ebddddddddddecbebceeedddddddd",
"#.ebddddddddddddecbceeeddddddddd",
".ebddddddddddddddeeeeedddddddddd",
"#bddddddddddddddddeeeddddddddddd"};
