/* XPM */
static char *msgcomposeWindow[]={
"32 32 13 1",
"b c #000000",
"g c #000080",
". c #0000ff",
"j c #008000",
"# c #008080",
"k c #00ffff",
"h c #800000",
"i c #808000",
"a c #808080",
"d c #c0c0c0",
"e c #ff0000",
"f c #ffff00",
"c c #ffffff",
".#.#.#.#.#.#.#.#.#.#.#.#.#.#.#.a",
"#.#.#.#.#.#.#.#.#.#.#.#.#.#.#.ab",
".#.#.#.#.#.#.#.#.#.#.#.#.#.#.abc",
"#.#.#.#.#.#.#.#.#.#.#.#.#.#.abcc",
".#.#.#.#.#.#.#.#.#.#.bb#.#.abccc",
"#.#.#.#.#.#.#.#.#.#aad..#.abcccc",
".#.#.#.#.#.#.#.#.#ddceedeebccccc",
"#.#.#.faggg.#.#ad..ccccd..bccccc",
".#.#.#afhihhgdeedccjjjcccdee#ccc",
"#.#.#.adcdihgddcccfcccfcfccc...c",
".#.#.#.afhdihbcdcdcacdcfcdcdceeb",
"#.#.#.#afcfhihggfaacccccdcdcdccb",
".#.#.idiffcihibacccdcacdcdcc..bb",
"#.#beeciaifcb.bbddfaacdcdcdccbbc",
".bdccccdcdac.bbbbddcccccceeabbcc",
"bb..dcccdcdad#bbbbdddfcfcdabbdbc",
".bbdcccccccb###bbbbddcf..abbdbcc",
"#.#bdeecccdcdak#bbbbddcdabbdbccc",
".#.bbddccccdcdac#bbbbadabbdbcccc",
"#.bddbba..dcccfad#bbbbdb.dbccccc",
".bdfdfbbddcccdccad#bbbbbdbcccccc",
"#.bcddddbjdeecdffadbbbbbbdcccccc",
".#.bcfdfdbddcdfeeebd#bbbbcbccccc",
"#.#.bccdddbbdcdddbdbdbdbggdbcccc",
".#.#.bcfdfdbba..bdcdbd#.#bbdbccc",
"#.#.#.bccddddbabdcdbda.db#bbdbcc",
".#.#.abbdfdfcdbdcdbdccbacb#bbdbc",
"#.#.abccbccdddcddbdccccbakb#bbbc",
".#.abccccbdfcfddbdccccccba#b#bbb",
"#.abccccccbdccdbdccccccccba#b#bb",
".abccccccccbcdbdccccccccccba#bbb",
"#bccccccccccbbcccccccccccccbbbbc"};
