/* XPM */
static char *netcasterWindow[]={
"32 32 11 1",
"c c #000000",
". c #0000ff",
"# c #008080",
"i c #00ffff",
"g c #800000",
"a c #808000",
"b c #808080",
"h c #c0c0c0",
"f c #ff0000",
"d c #ffff00",
"e c #ffffff",
".#.#.#.#.#.#.#.#.#.#.#.#.#.#.#.#",
"#.#.a.#.#a#.#.a.#.#.#.#.#.#.#.bc",
".#.#.d.#.d.#.d.#.#.#.#.#.#.#.bce",
"#.#.#.d.#d#.d.#.#.#.#.#.#.#.bcee",
".#.#.#.dfffd.#.#.#.#.#.#.#.bceee",
"#.#.#.#fdfff#.#.#.#.#.#.#.bceeee",
".#add#.ffffg.#.ddd.ddh.haaceeeee",
"#.#.#.#fgfgf#.#.#.#.#.#.bceeeeee",
".#.#.#.ifgfi.#.#.#.#.#.#ceeeeeee",
"#.#.#.d.#.#.d.#.#.#.#.bceeeeeeee",
".#.#.d.#.#.#bhbb.#.#.bceeeeeeeee",
"#.#.d.#.#d#.behchhh.bceeeeeeeeee",
".#.a.#.#.d.#hhhbccchhheeeeeeeeee",
"#.a.#.#.#d#.bbchc##bccbhheiiihbc",
".#.#.#.#.#.#hc##hcbeeehccbbhhhhc",
"#.#.#.#.#d#.hc##bhceehhhhbbbhh#c",
".#.#.#.#.d.#hc#bch#chhhhhihehhcc",
"#.#.#.#.#.#.hcbcehhchhhieiiihbcc",
".#.#.#.#.d.#hccehhhhchiheeeihccc",
"#.#.#.#.#.#.hcehhhhhhcheeeihccce",
".#.#.#.#.#.bhchhhhehehceeibcccce",
"#.#.#.#.#.bchchhheheehbebbccccce",
".#.#.#.#.bchhcbbhheeeeebccccccee",
"#.#.#.#.bchhhcbhheeeeeccccccceee",
".#.#.#.bcehhhbbhehehcccccccceeee",
"#.#.#.bcehhhhhhhhecccccccccceeee",
".#.#.bceehhhhhbccccccccccccbceee",
"#.#.bceeeecccccccccccccbccbbccce",
".#.bceeeeeeccccccccccbbecbebecbe",
"#.bceeeeeeeeeeeeecbbbeeccbccccbc",
".bceeeeeeeeeeeeeebccehcecccceecb",
"#ceeeeeeeeeeeeeeeebhccbeccc#cc#c"};
