/* XPM */
static char *package[]={
"32 32 81 2",
".a c #040204",
".v c #0c0204",
".C c #0c0a04",
".x c #140204",
".V c #141a1c",
".w c #1c0604",
".k c #241204",
".S c #242224",
"#e c #2c2a2c",
".z c #340a04",
".L c #3c2204",
"#g c #442a04",
"Qt c #444244",
".Z c #4c3204",
".5 c #4c4244",
".B c #540a04",
"#f c #545254",
"#m c #5c4a1c",
".U c #5c5a64",
".3 c #644204",
".j c #644644",
".Y c #741204",
"#b c #744a04",
".N c #7c4644",
".8 c #7c5204",
"#n c #7c5604",
"#j c #7c6234",
".# c #7c7a7c",
".D c #841604",
"#o c #845a04",
".i c #845e04",
".R c #8c1a04",
".G c #8c5a04",
".4 c #944e44",
".l c #946204",
".b c #948a7c",
".M c #9c6a04",
".y c #a46a04",
".9 c #a46e04",
".A c #ac1a04",
".X c #ac6e04",
".W c #ac7204",
".P c #ac7214",
".6 c #b4220c",
".F c #b47604",
"## c #b47a04",
"#l c #b48e3c",
".7 c #bc1a04",
".o c #bc7a04",
".s c #bc8204",
".u c #c45244",
".E c #cc2204",
".J c #cc2a0c",
".t c #cc8e04",
".n c #d48e04",
".c c #d4b67c",
".O c #dc2204",
".m c #dc9604",
".r c #dca62c",
".h c #dcba7c",
".2 c #e45e44",
".q c #e4960c",
".0 c #e49e04",
".H c #ec2a04",
".p c #ec9e04",
"#c c #eca604",
".d c #ecc27c",
".g c #ecc67c",
".K c #f42a04",
"#. c #f42a0c",
".Q c #f45e44",
".1 c #f4a604",
"#k c #f4ae0c",
".f c #f4ca7c",
".e c #f4ce7c",
".I c #fc2a04",
"#a c #fc3204",
".T c #fc5e44",
"#d c #fc6644",
"#h c #fcae04",
"#i c #fcb604",
"Qt.#.#.#.#.#.#.#.#.#.#.#.#.#.#.#.#.#.#.#.#.#.#.#.#.#.#.#.#.#.#.a",
"QtQt.#.b.c.d.e.f.f.f.f.f.f.g.f.f.d.f.d.d.d.d.d.d.f.d.h.d.c.d.i.a",
"Qt.j.a.a.a.k.l.m.n.o.l.l.l.n.m.p.q.n.n.m.m.n.m.n.r.n.s.t.n.n.l.a",
"Qt.u.v.a.a.a.a.k.w.x.a.x.a.k.l.m.p.n.m.n.n.m.q.n.r.n.n.n.t.s.y.a",
"QtQt.a.z.A.B.a.C.B.B.D.E.A.z.C.y.m.n.n.m.n.n.n.n.r.n.n.F.n.t.G.a",
"QtQt.B.H.I.D.D.J.K.A.B.B.B.z.a.L.m.n.m.m.n.m.n.m.r.n.s.n.n.n.M.a",
"Qt.N.O.I.K.D.B.v.x.x.B.C.a.a.a.a.P.n.n.m.n.n.m.n.r.n.n.n.s.o.l.a",
"Qt.Q.I.I.A.x.a.a.C.D.R.S.C.a.a.a.L.t.m.p.m.p.n.p.r.n.n.n.n.n.y.a",
"Qt.T.I.E.B.A.E.z.z.O.v.U.V.S.a.a.a.L.W.p.m.p.p.q.q.n.p.q.p.p.X.a",
"Qt.T.A.Y.a.v.D.A.x.A.B.a.a.U.B.Y.a.a.a.Z.s.0.1.p.m.p.m.m.q.m.X.a",
"Qt.2.z.a.a.a.D.K.A.A.Y.Y.B.k.a.Y.D.x.a.a.a.3.o.m.p.n.p.p.m.p.X.a",
"Qt.4.a.a.a.z.H.A.A.I.Y.v.z.Y.A.E.I.I.D.z.v.a.a.L.l.t.0.n.p.m.W.a",
"Qt.5.z.z.v.x.E.6.x.Y.H.H.E.7.O.I.I.O.I.I.7.Y.x.a.a.k.8.n.p.p.X.a",
"Qt.Q.K.K.I.H.I.O.A.a.B.E.K.I.I.I.I.I.I.I.I.I.O.R.z.a.a.Z.m.m.W.a",
"Qt.T.I.I.I.I.I.Y.E.Y.a.v.A.K.I.I.I.I.O.I.I.I.I.I.O.z.a.a.o.p.9.a",
"Qt.2.K#..K.O.K.B.A.B.v.a.a.Y.H.I.I.I.I.I.I.I.I.I.O.z.a.a.y.m.W.a",
"Qt.Q.I.O.I.I.K.z.z.z.a.a.a.a.z.E.K.K.I.I.I.I.I.I.D.a.a.a.8.1##.a",
"Qt.Q.I.I#a.I.I.z.a.a.a.a.a.a.a.a.Y.H.K.I.I.I.I.I.6.a.B.a#b#c.W.a",
"Qt.T.I.I.I.I.I.D.a.a.a.a.a.a.a.a.a.z.R.K.I.K.I.I#a.A.E.a#b.1##.a",
"Qt#d.K.I.I.I.I.H.v.a.a.z.a.a.a.C.U.V.a.z.R.E.K.K#..K.A.a.Z#c.F.a",
"Qt.u.I.I.I.I.I#..A.z.a.Y.D.v.a.a.a#e#e.S.a.a.z.B.Y.Y.v.a.8.0##.a",
"Qt.T.B.H.O.I.I.H.J.K.Y.z.A.H.Y.x.a.a.V.V#f.a#e.S.a.a.a.v.o.1##.a",
"Qt.Q.Y.z.A.K.I#..A.I.K.I.K.A.7.O.D.z.a.a.a.a.V#e.S.U.a.L.p.1.F.a",
"Qt.Q.K.B.V.Y.O.H.A.A.Y.z.z.a.a.B.D.K.O.D.B.a.a.a.a.C.a.l.1.p.s.a",
"Qt.u.6.6.Y.x.C.S.V.V.a.V.C.x.C.a.a.v.B.A.A.v.a.k#b.y.W.n.1.1.W.a",
"Qt#d#.#a#a.E.v.S.V.a.a#g.W.m.m.X.Z.L.a.a.a.x.3.m.0.1.1.1.p.1.W.a",
"Qt#d#a#a.J.B.a#e.a.L.o#h#h#h#h#h#h#h.n.l.l.F#c#h#h#h.1.p.1.1.W.a",
"Qt#d#a.A.z.Y.a.S.L#c#h#h#i#h#i#h#i#h#h#h.1#h.1#h#h#h.p#h.m.1.o.a",
"Qt.Q.I.E.K.A.v#j#b#h#h#h#h#h#h.1#h#k.1#h#h.1#h#h#h.1.1.p.1.p##.a",
"Qt.u.Y.J#a.Y.L#l.8#c#h#h#h#i#h#h#h#h#h.1#h#h.1#h#h#h.p.1.p#h.W.a",
"Qt.D.x.x.B.a.Z#m#g#n#o.i#o#o#o#o#o#o#o#n#o#n#o#n#o#o#n.8#n.8#n.a",
".a.a.a.a.a.a.a.a.a.a.a.a.a.a.a.a.a.a.a.a.a.a.a.a.a.a.a.a.a.a.a.a"};
