/* XPM */
static char *profileWindow[]={
"32 32 10 1",
"b c #000000",
"e c #000080",
". c #0000ff",
"f c #008000",
"# c #008080",
"h c #808000",
"a c #808080",
"c c #c0c0c0",
"g c #ff0000",
"d c #ffffff",
".#.#.#.#.#.#.#.#.#.#.#.#.#.#.#.a",
"#.#.#.#.#.#.#.#.#.#.#.#.#.#.#.ab",
".#.#.#.#.#.cccccccccccccccb#.abd",
"#.#.#.#.#.#cccccccccccccccb.abdd",
".#.#.#.#.#.cc###########ccbabddd",
"#.#.#.#.#.#cc##d########ccbbdddd",
".#.#.#.#.#.cc##d########ccbddddd",
"#.#.#.#.#.#cc###########ccbddddd",
".#.#.#.#.#.cc###########ccbddddd",
"#.#.#.#.#.#cc###########ccbddddd",
".#.#.#.#.#.cc###########ccbddddd",
"#.#.#.#.#.#cc###########ccbddddd",
".#.#.#.#.#.cccccccccccccccbddddd",
"#.#.#.#.#.#cccccccccccccccbddddd",
".#.#.#.#.#.bbbbbbbbbbbbbbbbddddd",
"#.#.#.#.#.##..aaaaaaaaaadddddddd",
".#.#.#ccccccccccccccccccccccccad",
"#.#.#.ccccccccccccccccccccccccad",
".#.#.#cccccccccccceecccaaaaaccad",
"#.#.#.ccccccccccceffecccccccccad",
".#.#.#ccccccccccceffecccccccccad",
"#.#.#.cccceecccccceacccccceeccad",
".#.#.#ccceggecceeddddeeccehheaad",
"#.#.#.aadeggedeffeddeffedehheddd",
".#.#.aadddeeddefffeefffeddeedddd",
"#.#.abdeeddddeeffffffffeeddddeed",
".#.abdeggeddeggeffffffehheddehhe",
"#.abddegggeegggeffffffehhheehhhe",
".abdddeggggggggeeeeeeeehhhhhhhhe",
"abddddeggggggggeddddddehhhhhhhhe",
"bdddddeggggggggeddddddehhhhhhhhe",
"ddddddeeeeeeeeeeddddddeeeeeeeeee"};
