/* XPM */
static char *roam_gst[]={
"32 32 10 1",
"b c #000000",
"h c #000080",
". c #0000ff",
"# c #008080",
"g c #00ffff",
"f c #800080",
"a c #808080",
"d c #c0c0c0",
"e c #ff00ff",
"c c #ffffff",
".#.#.#.#.#.#.#.#.#.#.#.#.#.#abcc",
"#dddddddddda#.#.#.#.#ddddddddabc",
".dbbbbbbbbba.#.#.#.#.ccccccccabc",
"#db#######ca#.#.#.#.#dddddddcabc",
".db#c#####cae#.#e#.#edddddddcabc",
"#db#######cafe#efe#efdbbbbbdcabc",
".db#######cabfefbfefbdddddddcabc",
"#db#######ca#bfb#bfb#dbbbbbdcabc",
".db#######ca.#b#.#b#adddddddcabc",
"#dbbbbbbbbb.#.#.#.#abdddddddcabc",
".#.#aaaaab.#.#.#.#abcdddddddcabc",
"ddddddddddddab#.#abccdddddddcabc",
"dddddddaaaddab.#abcccdddddddcabc",
"ddddddddddddab#abccccdddddddcabc",
"aaaaaaaaaaaaababcccccdddddddcabc",
"bbbbbbbbbbbbbbbccccccdddddddcabc",
".#.#.#.#.#.#abcccccccaaaaaaaaabc",
"#.#.#.#.#ddddddddddacbbbbbbbbbbc",
".#.#.#.#.dbbbbbbbbbaccccccghbccc",
"#.#.#.#.#db#######cacccccghbcccc",
".#.#.#.#adb#c#####caccccghbccccc",
"#.#.#.#abdb#######cacccghbcccccc",
".#.#.#abcdb#######caccccghbccccc",
"#.#.#abccdb#######cacccccghbcccc",
".#.#abcccdb#######caccccghbccccc",
"#.#abccccdbbbbbbbbbacccghbcccccc",
".#abccccccccaaaaabccccghbccccccc",
"#abcccccddddddddddddabhbcccccccc",
"abccccccdddddddaaaddabbccccccccc",
"bcccccccddddddddddddabcccccccccc",
"ccccccccaaaaaaaaaaaaabcccccccccc",
"ccccccccbbbbbbbbbbbbbbcccccccccc"};
