/* XPM */
static char *venkman[]={
"32 32 6 1",
"b c #000000",
"# c #0000ff",
". c #008080",
"d c #808080",
"a c #c0c0c0",
"c c #ffffff",
".#.#.#.#.#.#.#.#.#.#.#.#.#.#.#.#",
"#.#.#.#.#.#.#.#.#.#.#.#.#.#.#.ab",
".#.#.#.#.#.#.#.#.#.#.#.#.#.#.abc",
"#.#.#.#.#.#.#.#.#.#.#.#.#.#.abcc",
".#.#.#.#.#.#.#.#.#.#.#.#.#.abccc",
"#.#.#.#.aaaccb#.#.#.#.#.#.abcccc",
".#.#.#.#.aaaccb#.#.#.#.#.abccccc",
"#.#.#.#.#.aaaccb#.#.#.#.abcccccc",
".#.#.#.#.#.aaaccb#.#.#.abccccccc",
"#.#.#.#.#.#.aaaccb#.#.abcccccccc",
".#.#.#.#.#.#.aaaccb#.abccccccccc",
"#.#.#.#.#.#.#.aaaccbabcccccccccc",
".#.#.#.#.#.#.#.aaaccbccccccccccc",
"#.#.#.#.#.#.#.#.aaaccbcccccccccc",
".#.#.#.#.#.#.#.#.aaaccbccccccccc",
"#.#.#.#.#.#.#.#.abaaaccbcccccccc",
".#.#.#.#.#.#.#.abccaaaccbccccccc",
"#.#.#.#.#.#.#.abccaaaccbdccccccc",
".#.#.#.#.#.#.abccaaaccbdcccccccc",
"#.#.#.#.#.#.abccaaaccbdccccccccc",
".#.#.#.#.#.abccaaaccbdcccccccccc",
"#.#.#.#.#.abccaaaccbdccccccccccc",
".#.#.#.#.abccaaaccbdcccccccccccc",
"#.#.#.#.abccaaaccbdccccccccccccc",
".#.#.#.abccaaaccbdcccccccccccccc",
"#.#.#.abccaaaccbdccccccccccccccc",
".#.#.abccaaaccbdcccccccccccccccc",
"#.#.abccaaaccbdccccccccccccccccc",
".#.abcccddddddcccccccccccccccccc",
"#.abcccccccccccccccccccccccccccc",
".abccccccccccccccccccccccccccccc",
"#bcccccccccccccccccccccccccccccc"};
