/* XPM */ 
static char * mainwindow_xpm[] = {
"32 32 153 2",
"  	c None",
"! 	c black",
"# 	c #EFEFEF",
"$ 	c #C67318",
"% 	c #CE9C18",
"& 	c #FFFF29",
"' 	c #FFFF21",
"( 	c #FFFF18",
") 	c #FFE718",
"* 	c #FFDE18",
"+ 	c #FFD618",
", 	c #FFCE18",
"- 	c #FFC618",
". 	c #BD7321",
"0 	c #FFBD18",
"1 	c #FFB518",
"2 	c #F7B518",
"3 	c #AD6B18",
"4 	c #8C4242",
"5 	c #7B3131",
"6 	c #844242",
"7 	c #843939",
"8 	c #733131",
"9 	c #422931",
": 	c #9C5252",
"; 	c #F75A31",
"< 	c #F77B31",
"= 	c #313131",
"> 	c #7B5A18",
"? 	c #D69C00",
"@ 	c #E7AD18",
"A 	c #E73931",
"B 	c #E73131",
"C 	c #9C3131",
"D 	c #B53131",
"E 	c #EF5231",
"F 	c #AD2929",
"G 	c #942921",
"H 	c #6B4218",
"I 	c #181818",
"J 	c #E7A518",
"K 	c #C69418",
"L 	c #9C4242",
"M 	c #A51818",
"N 	c #7B3939",
"O 	c #632110",
"P 	c #212121",
"Q 	c #5A4A4A",
"R 	c #C6A5AD",
"S 	c #DE4218",
"T 	c #F76331",
"U 	c #D62121",
"V 	c #F77331",
"W 	c #DE3129",
"X 	c #AD2121",
"Y 	c #421818",
"Z 	c #5A1000",
"[ 	c #5A1818",
"] 	c #F79431",
"^ 	c #291818",
"_ 	c #BD9CA5",
"` 	c #B52121",
"a 	c #E75231",
"b 	c #AD4239",
"c 	c #E77329",
"d 	c #631818",
"e 	c #4A0800",
"f 	c #9C2929",
"g 	c #FF6342",
"h 	c #292121",
"i 	c #C63939",
"j 	c #E72929",
"k 	c #6B1818",
"l 	c #523118",
"m 	c #FF7331",
"n 	c #FF845A",
"o 	c #FF7352",
"p 	c #8C3131",
"q 	c #E75221",
"r 	c #FF6339",
"s 	c #F7734A",
"t 	c #842929",
"u 	c #FF8C63",
"v 	c #FF6B4A",
"w 	c #C63131",
"x 	c #EF4A31",
"y 	c #DE4221",
"z 	c #6B2929",
"{ 	c #312929",
"| 	c #946363",
"} 	c #FF2121",
"~ 	c #BD3131",
" !	c #6B2921",
"!!	c #521818",
"#!	c #423939",
"$!	c #A53931",
"%!	c #CE4231",
"&!	c #DE2121",
"'!	c #D64231",
"(!	c #731818",
")!	c #292929",
"*!	c #FF7B5A",
"+!	c #EF5A29",
",!	c #AD4A31",
"-!	c #D6CECE",
".!	c #211818",
"0!	c #EF3931",
"1!	c #A52121",
"2!	c #E74A21",
"3!	c #EF3131",
"4!	c #C61818",
"5!	c #EF4239",
"6!	c #CEC6C6",
"7!	c #F71818",
"8!	c #844A4A",
"9!	c #4A1818",
":!	c #392121",
";!	c #5A2121",
"<!	c #8C2121",
"=!	c #635A5A",
">!	c #7B524A",
"?!	c #846B5A",
"@!	c #8C6352",
"A!	c #7B5242",
"B!	c #424242",
"C!	c #C64231",
"D!	c #84634A",
"E!	c #7B5A42",
"F!	c #846352",
"G!	c #946B5A",
"H!	c #946B4A",
"I!	c #9C6B42",
"J!	c #A56B39",
"K!	c #946B39",
"L!	c #B57321",
"M!	c #BD7B29",
"N!	c #C67329",
"O!	c #D68421",
"P!	c #D68418",
"Q!	c #DE8C18",
"R!	c #734A39",
"S!	c #F73131",
"T!	c #FF9418",
"U!	c #F79418",
"V!	c #FF9C21",
"W!	c #FFA518",
"X!	c #845242",
"Y!	c #CE7331",
"Z!	c #B56329",
"[!	c #AD5A21",
"]!	c #9C3931",
"^!	c #734231",
"_!	c #A56363",
"                                                                ",
"    # # # # # # # # # # # # # # # # # # # # # # # # #           ",
"    # $ $ $ $ $ $ $ $ $ $ $ $ $ $ $ $ $ $ $ $ $ $ $ #           ",
"    # $ % & ' ' ' ' ' ' ' ' ' ' ' ( ' ' ' ' ' ' ' $ #           ",
"    # $ % ) ) * ) * * * * + + , + , - , + , * ) ) . #           ",
"    # $ % * + , - 0 - 1 0 2 0 0 3 4 5 6 7 3 - 0 * $ #           ",
"    # $ % * - - 1 0 2 8 9 5 5 : ; ; ; < ; 8 = > ? $ #           ",
"    # $ % , - 2 1 @ 8 9 A B C D E A A A A F G G H I #           ",
"    # $ % - 1 2 J K 9 9 9 9 D ; A ; L L A A M N O P I #         ",
"    # $ % - 2 J K 9 P Q R S 5 T T E E U V E W X Y Z I I #       ",
"    # $ % 2 @ C [ ] ^ _ Q T T A ` A ; a b c A B d d e I I #     ",
"    # $ % C f ] g T P h ; a a E i L A E E g B I j I I P I I #   ",
"  # k l f ] V m n o E a A p a a q i L i r s A t I P I I #       ",
"# k [ ] m m n u v a w D p Q a x y a i 7 r g s U I I P I I #     ",
"# k F B o n v a B D z t { | p a a r s r } g s W d ~ I I P I #   ",
"# k B F < a A i ~  !!! !h #!$!a r g a %!&!A s W I D I P I I I   ",
"# k a '!D ~ D (!I P I !! !)!i g *!+!U ,!F A r U A I P I # # #   ",
"# k a ~ i t I -!.!!!!!f i = +!g a U 0!7 X A T W $!P P P I       ",
"# k f 1!I -!.!P !! !f i p i 2!a W 3!; V 4!5!5!U p I I I .!I     ",
"  # k 6!I !!!!f B A ; i ; E ~ D 0!p < E 7!5!w D z I P # # # #   ",
"  # 8!k f A ; ; B C 5 9!P P :!P p A ; 7 s +!U D P I I I         ",
"    # ;!k f f <!d =!>!?!@!A!B!C!C!4 r A +!W B D z I P I #       ",
"    # D!E!F!G!H!I!I!J!I!K!@!>!P p A E +!g B D N z I I #         ",
"    # E!L!M!N!O!P!Q!O!P!O!L!R!d C!A g r a A S!B D N I I #       ",
"    # E!. T!U!V!W!W!W!W!U!U!X!!!C!~ ; r s 3!p A $!7 P #         ",
"    # E!N!N!N!N!N!N!N!N!Y!Z![!I p C!A A D ]!^!N 7 = #           ",
"    # E!E!E!E!E!E!E!E!E!E!E!E!I C!5!A ]!C!C!]!N B!#             ",
"    # # # # # # # # # # # # # I A A C!]!z 6 | # #               ",
"                            # I I )!8 _!# # #                   ",
"                            # # # # # #                         ",
"                                                                ",
"                                                                "};