<?xml version="1.0" encoding="UTF-8" standalone="no"?>
<!DOCTYPE svg PUBLIC "-//W3C//DTD SVG 20010904//EN"
"http://www.w3.org/TR/2001/REC-SVG-20010904/DTD/svg10.dtd">
<!-- Created with Sodipodi ("http://www.sodipodi.com/") -->
<svg
   width="20pt"
   height="32pt"
   viewBox="0 0 26.072 50.691"
   overflow="visible"
   enable-background="new 0 0 26.072 50.691"
   xml:space="preserve"
   id="svg153"
   sodipodi:version="0.32pre"
   sodipodi:docname="/home/cschalle/gnome-themes-extras/Wasp/icons/scalable/emblems/emblem-distinguished.svg"
   sodipodi:docbase="/home/cschalle/gnome-themes-extras/Wasp/icons/scalable/emblems/"
   xmlns="http://www.w3.org/2000/svg"
   xmlns:sodipodi="http://sodipodi.sourceforge.net/DTD/sodipodi-0.dtd"
   xmlns:xml="http://www.w3.org/XML/1998/namespace"
   xmlns:xlink="http://www.w3.org/1999/xlink">
  <defs
     id="defs471" />
  <sodipodi:namedview
     id="base" />
  <metadata
     id="metadata154">
    <sfw>
      <slices />
      <sliceSourceBounds
         y="394.154"
         x="283.464"
         width="26.072"
         height="50.691"
         bottomLeftOrigin="true" />
    </sfw>
  </metadata>
  <g
     id="Layer_1"
     stroke="#000000">
    <g
       id="Layer_1_2_">
      <g
         id="g157">
        <path
           fill="#B40303"
           stroke="none"
           d="M1.957,40.604c0-4.924,3.991-8.915,8.915-8.915c4.923,0,8.914,3.992,8.914,8.915      s-3.991,8.915-8.914,8.915C5.948,49.519,1.957,45.526,1.957,40.604z"
           id="path158" />
        <path
           fill="#B40404"
           stroke="none"
           d="M19.723,40.589c0,4.898-3.972,8.869-8.871,8.869c-4.898,0-8.87-3.971-8.87-8.869      s3.972-8.87,8.87-8.87C15.751,31.719,19.723,35.69,19.723,40.589z"
           id="path159" />
        <path
           fill="#B50505"
           stroke="none"
           d="M19.658,40.573c0,4.874-3.951,8.824-8.825,8.824c-4.874,0-8.824-3.95-8.824-8.824      s3.951-8.824,8.824-8.824C15.707,31.749,19.658,35.7,19.658,40.573z"
           id="path160" />
        <path
           fill="#B50606"
           stroke="none"
           d="M19.593,40.558c0,4.849-3.931,8.78-8.78,8.78c-4.849,0-8.779-3.932-8.779-8.78      c0-4.848,3.931-8.779,8.779-8.779C15.662,31.778,19.593,35.71,19.593,40.558z"
           id="path161" />
        <path
           fill="#B60707"
           stroke="none"
           d="M19.528,40.543c0,4.824-3.91,8.734-8.734,8.734s-8.734-3.91-8.734-8.734      s3.91-8.734,8.734-8.734S19.528,35.719,19.528,40.543z"
           id="path162" />
        <path
           fill="#B60808"
           stroke="none"
           d="M19.465,40.528c0,4.799-3.891,8.689-8.69,8.689c-4.799,0-8.689-3.891-8.689-8.689      s3.891-8.689,8.689-8.689C15.574,31.839,19.465,35.729,19.465,40.528z"
           id="path163" />
        <path
           fill="#B70909"
           stroke="none"
           d="M19.399,40.513c0,4.774-3.87,8.645-8.644,8.645s-8.645-3.87-8.645-8.645      c0-4.773,3.871-8.645,8.645-8.645C15.529,31.868,19.399,35.738,19.399,40.513z"
           id="path164" />
        <path
           fill="#B70A0A"
           stroke="none"
           d="M19.336,40.498c0,4.749-3.851,8.6-8.601,8.6c-4.749,0-8.6-3.851-8.6-8.6      s3.851-8.6,8.6-8.6C15.485,31.898,19.336,35.749,19.336,40.498z"
           id="path165" />
        <path
           fill="#B80B0B"
           stroke="none"
           d="M19.271,40.482c0,4.725-3.83,8.555-8.555,8.555c-4.725,0-8.555-3.83-8.555-8.555      s3.83-8.555,8.555-8.555C15.441,31.928,19.271,35.758,19.271,40.482z"
           id="path166" />
        <path
           fill="#B80C0C"
           stroke="none"
           d="M19.207,40.468c0,4.699-3.811,8.509-8.51,8.509c-4.7,0-8.509-3.81-8.509-8.509      c0-4.7,3.809-8.51,8.509-8.51C15.396,31.958,19.207,35.768,19.207,40.468z"
           id="path167" />
        <path
           fill="#B80D0D"
           stroke="none"
           d="M19.143,40.452c0,4.675-3.791,8.465-8.465,8.465c-4.675,0-8.464-3.791-8.464-8.465      c0-4.675,3.79-8.465,8.464-8.465C15.353,31.987,19.143,35.777,19.143,40.452z"
           id="path168" />
        <path
           fill="#B90E0E"
           stroke="none"
           d="M19.078,40.437c0,4.649-3.771,8.42-8.42,8.42c-4.649,0-8.419-3.771-8.419-8.42      s3.77-8.419,8.419-8.419C15.308,32.018,19.078,35.787,19.078,40.437z"
           id="path169" />
        <path
           fill="#B90F0F"
           stroke="none"
           d="M19.014,40.421c0,4.625-3.75,8.376-8.375,8.376c-4.625,0-8.375-3.75-8.375-8.376      c0-4.624,3.749-8.373,8.375-8.373C15.264,32.048,19.014,35.798,19.014,40.421z"
           id="path170" />
        <path
           fill="#BA1010"
           stroke="none"
           d="M18.948,40.406c0,4.601-3.729,8.33-8.329,8.33c-4.6,0-8.329-3.729-8.329-8.33      c0-4.6,3.729-8.329,8.329-8.329C15.219,32.077,18.948,35.807,18.948,40.406z"
           id="path171" />
        <path
           fill="#BA1111"
           stroke="none"
           d="M18.885,40.392c0,4.575-3.709,8.284-8.285,8.284c-4.575,0-8.284-3.709-8.284-8.284      s3.709-8.284,8.284-8.284C15.176,32.107,18.885,35.817,18.885,40.392z"
           id="path172" />
        <path
           fill="#BB1212"
           stroke="none"
           d="M18.82,40.377c0,4.55-3.689,8.239-8.24,8.239s-8.24-3.689-8.24-8.239      c0-4.551,3.689-8.24,8.24-8.24S18.82,35.826,18.82,40.377z"
           id="path173" />
        <path
           fill="#BB1313"
           stroke="none"
           d="M18.756,40.361c0,4.524-3.669,8.194-8.194,8.194s-8.194-3.67-8.194-8.194      c0-4.525,3.669-8.194,8.194-8.194S18.756,35.835,18.756,40.361z"
           id="path174" />
        <path
           fill="#BC1414"
           stroke="none"
           d="M18.691,40.346c0,4.501-3.648,8.149-8.149,8.149c-4.5,0-8.15-3.648-8.15-8.149      c0-4.5,3.649-8.148,8.15-8.148S18.691,35.846,18.691,40.346z"
           id="path175" />
        <path
           fill="#BC1515"
           stroke="none"
           d="M18.627,40.331c0,4.476-3.629,8.104-8.104,8.104c-4.477,0-8.104-3.629-8.104-8.104      s3.628-8.104,8.104-8.104C14.998,32.227,18.627,35.855,18.627,40.331z"
           id="path176" />
        <path
           fill="#BD1616"
           stroke="none"
           d="M18.563,40.315c0,4.451-3.609,8.059-8.06,8.059c-4.451,0-8.059-3.607-8.059-8.059      c0-4.45,3.608-8.059,8.059-8.059C14.953,32.257,18.563,35.865,18.563,40.315z"
           id="path177" />
        <path
           fill="#BD1717"
           stroke="none"
           d="M18.498,40.3c0,4.427-3.588,8.015-8.015,8.015c-4.426,0-8.014-3.588-8.014-8.015      c0-4.426,3.588-8.014,8.014-8.014C14.91,32.286,18.498,35.874,18.498,40.3z"
           id="path178" />
        <path
           fill="#BD1818"
           stroke="none"
           d="M18.434,40.285c0,4.401-3.568,7.97-7.97,7.97c-4.401,0-7.969-3.568-7.969-7.97      c0-4.4,3.568-7.969,7.969-7.969C14.865,32.316,18.434,35.885,18.434,40.285z"
           id="path179" />
        <path
           fill="#BE1919"
           stroke="none"
           d="M18.369,40.271c0,4.376-3.548,7.924-7.925,7.924c-4.376,0-7.924-3.548-7.924-7.924      c0-4.377,3.547-7.924,7.924-7.924C14.821,32.347,18.369,35.894,18.369,40.271z"
           id="path180" />
        <path
           fill="#BE1A1A"
           stroke="none"
           d="M18.304,40.255c0,4.352-3.526,7.879-7.878,7.879c-4.351,0-7.879-3.527-7.879-7.879      s3.528-7.879,7.878-7.879C14.776,32.376,18.304,35.903,18.304,40.255z"
           id="path181" />
        <path
           fill="#BF1B1B"
           stroke="none"
           d="M18.24,40.24c0,4.326-3.508,7.833-7.834,7.833c-4.327,0-7.834-3.506-7.834-7.833      s3.507-7.834,7.834-7.834C14.732,32.406,18.24,35.914,18.24,40.24z"
           id="path182" />
        <path
           fill="#BF1C1C"
           stroke="none"
           d="M18.176,40.225c0,4.302-3.487,7.789-7.79,7.789c-4.301,0-7.789-3.487-7.789-7.789      c0-4.301,3.487-7.788,7.789-7.788C14.688,32.437,18.176,35.924,18.176,40.225z"
           id="path183" />
        <path
           fill="#C01D1D"
           stroke="none"
           d="M18.111,40.21c0,4.276-3.468,7.743-7.744,7.743s-7.744-3.467-7.744-7.743      s3.467-7.744,7.744-7.744S18.111,35.934,18.111,40.21z"
           id="path184" />
        <path
           fill="#C01E1E"
           stroke="none"
           d="M18.046,40.194c0,4.252-3.446,7.699-7.698,7.699s-7.699-3.447-7.699-7.699      s3.447-7.698,7.699-7.698S18.046,35.942,18.046,40.194z"
           id="path185" />
        <path
           fill="#C11F1F"
           stroke="none"
           d="M17.982,40.18c0,4.227-3.427,7.653-7.654,7.653s-7.653-3.426-7.653-7.653      c0-4.227,3.426-7.654,7.653-7.654S17.982,35.952,17.982,40.18z"
           id="path186" />
        <path
           fill="#C12020"
           stroke="none"
           d="M17.918,40.165c0,4.202-3.406,7.607-7.608,7.607s-7.609-3.406-7.609-7.607      c0-4.202,3.407-7.609,7.609-7.609S17.918,35.962,17.918,40.165z"
           id="path187" />
        <path
           fill="#C12121"
           stroke="none"
           d="M17.854,40.149c0,4.177-3.387,7.563-7.563,7.563c-4.178,0-7.564-3.387-7.564-7.563      s3.386-7.563,7.564-7.563C14.467,32.585,17.854,35.972,17.854,40.149z"
           id="path188" />
        <path
           fill="#C22222"
           stroke="none"
           d="M17.789,40.134c0,4.152-3.366,7.519-7.52,7.519c-4.152,0-7.519-3.366-7.519-7.519      s3.367-7.519,7.519-7.519C14.423,32.615,17.789,35.981,17.789,40.134z"
           id="path189" />
        <path
           fill="#C22323"
           stroke="none"
           d="M17.725,40.119c0,4.127-3.346,7.474-7.474,7.474s-7.474-3.346-7.474-7.474      s3.346-7.474,7.474-7.474S17.725,35.991,17.725,40.119z"
           id="path190" />
        <path
           fill="#C32424"
           stroke="none"
           d="M17.66,40.104c0,4.103-3.326,7.429-7.429,7.429c-4.103,0-7.429-3.326-7.429-7.429      s3.326-7.429,7.429-7.429C14.334,32.675,17.66,36.001,17.66,40.104z"
           id="path191" />
        <path
           fill="#C32525"
           stroke="none"
           d="M17.596,40.089c0,4.078-3.307,7.383-7.384,7.383c-4.078,0-7.384-3.305-7.384-7.383      s3.306-7.384,7.384-7.384C14.289,32.705,17.596,36.011,17.596,40.089z"
           id="path192" />
        <path
           fill="#C42626"
           stroke="none"
           d="M17.531,40.073c0,4.053-3.286,7.339-7.339,7.339s-7.339-3.286-7.339-7.339      s3.287-7.339,7.339-7.339S17.531,36.021,17.531,40.073z"
           id="path193" />
        <path
           fill="#C42727"
           stroke="none"
           d="M17.467,40.058c0,4.028-3.266,7.293-7.293,7.293S2.88,44.086,2.88,40.058      c0-4.026,3.266-7.293,7.293-7.293S17.467,36.031,17.467,40.058z"
           id="path194" />
        <path
           fill="#C52828"
           stroke="none"
           d="M17.402,40.043c0,4.004-3.245,7.249-7.249,7.249c-4.003,0-7.248-3.245-7.248-7.249      c0-4.003,3.245-7.248,7.248-7.248C14.157,32.795,17.402,36.04,17.402,40.043z"
           id="path195" />
        <path
           fill="#C52929"
           stroke="none"
           d="M17.338,40.028c0,3.979-3.225,7.203-7.204,7.203c-3.978,0-7.204-3.225-7.204-7.203      s3.225-7.204,7.204-7.204C14.112,32.824,17.338,36.05,17.338,40.028z"
           id="path196" />
        <path
           fill="#C62A2A"
           stroke="none"
           d="M17.273,40.013c0,3.953-3.205,7.158-7.159,7.158c-3.953,0-7.158-3.205-7.158-7.158      c0-3.954,3.205-7.158,7.158-7.158C14.068,32.854,17.273,36.059,17.273,40.013z"
           id="path197" />
        <path
           fill="#C62B2B"
           stroke="none"
           d="M17.209,39.998c0,3.928-3.186,7.113-7.114,7.113s-7.113-3.186-7.113-7.113      c0-3.929,3.185-7.113,7.113-7.113S17.209,36.069,17.209,39.998z"
           id="path198" />
        <path
           fill="#C62C2C"
           stroke="none"
           d="M17.145,39.982c0,3.904-3.165,7.069-7.068,7.069c-3.904,0-7.068-3.165-7.068-7.069      c0-3.903,3.165-7.067,7.068-7.067C13.979,32.915,17.145,36.079,17.145,39.982z"
           id="path199" />
        <path
           fill="#C72D2D"
           stroke="none"
           d="M17.08,39.968c0,3.879-3.145,7.022-7.024,7.022c-3.878,0-7.023-3.144-7.023-7.022      c0-3.88,3.145-7.023,7.023-7.023C13.936,32.944,17.08,36.089,17.08,39.968z"
           id="path200" />
        <path
           fill="#C72E2E"
           stroke="none"
           d="M17.016,39.952c0,3.854-3.125,6.978-6.979,6.978s-6.979-3.124-6.979-6.978      c0-3.854,3.125-6.979,6.978-6.979C13.891,32.974,17.016,36.099,17.016,39.952z"
           id="path201" />
        <path
           fill="#C82F2F"
           stroke="none"
           d="M16.951,39.937c0,3.829-3.104,6.934-6.934,6.934c-3.829,0-6.933-3.104-6.933-6.934      c0-3.828,3.104-6.933,6.933-6.933C13.847,33.004,16.951,36.108,16.951,39.937z"
           id="path202" />
        <path
           fill="#C83030"
           stroke="none"
           d="M16.887,39.922c0,3.804-3.084,6.889-6.888,6.889c-3.805,0-6.889-3.085-6.889-6.889      c0-3.805,3.084-6.888,6.889-6.888C13.803,33.034,16.887,36.117,16.887,39.922z"
           id="path203" />
        <path
           fill="#C93131"
           stroke="none"
           d="M16.822,39.907c0,3.779-3.063,6.843-6.843,6.843s-6.844-3.063-6.844-6.843      s3.064-6.844,6.843-6.844C13.758,33.063,16.822,36.128,16.822,39.907z"
           id="path204" />
        <path
           fill="#C93232"
           stroke="none"
           d="M16.758,39.892c0,3.754-3.043,6.798-6.798,6.798c-3.754,0-6.798-3.044-6.798-6.798      c0-3.755,3.044-6.799,6.798-6.799C13.714,33.093,16.758,36.137,16.758,39.892z"
           id="path205" />
        <path
           fill="#CA3333"
           stroke="none"
           d="M16.693,39.877c0,3.729-3.024,6.753-6.753,6.753c-3.73,0-6.754-3.024-6.754-6.753      c0-3.729,3.024-6.753,6.754-6.753C13.67,33.124,16.693,36.147,16.693,39.877z"
           id="path206" />
        <path
           fill="#CA3434"
           stroke="none"
           d="M16.629,39.861c0,3.705-3.004,6.708-6.708,6.708c-3.705,0-6.708-3.003-6.708-6.708      s3.003-6.708,6.708-6.708C13.625,33.153,16.629,36.156,16.629,39.861z"
           id="path207" />
        <path
           fill="#CA3535"
           stroke="none"
           d="M16.564,39.847c0,3.68-2.983,6.662-6.663,6.662s-6.663-2.982-6.663-6.662      s2.983-6.663,6.663-6.663S16.564,36.167,16.564,39.847z"
           id="path208" />
        <path
           fill="#CB3636"
           stroke="none"
           d="M16.5,39.831c0,3.654-2.963,6.618-6.618,6.618c-3.655,0-6.618-2.964-6.618-6.618      c0-3.655,2.963-6.618,6.618-6.618C13.537,33.213,16.5,36.176,16.5,39.831z"
           id="path209" />
        <path
           fill="#CB3737"
           stroke="none"
           d="M16.436,39.816c0,3.63-2.942,6.572-6.573,6.572c-3.63,0-6.572-2.942-6.572-6.572      s2.942-6.573,6.573-6.573S16.436,36.187,16.436,39.816z"
           id="path210" />
        <path
           fill="#CC3838"
           stroke="none"
           d="M16.371,39.801c0,3.604-2.923,6.527-6.528,6.527s-6.527-2.923-6.527-6.527      c0-3.605,2.923-6.528,6.527-6.528C13.448,33.272,16.371,36.196,16.371,39.801z"
           id="path211" />
        <path
           fill="#CC3939"
           stroke="none"
           d="M16.307,39.785c0,3.581-2.903,6.483-6.482,6.483c-3.581,0-6.483-2.902-6.483-6.483      c0-3.579,2.902-6.482,6.483-6.482C13.404,33.303,16.307,36.206,16.307,39.785z"
           id="path212" />
        <path
           fill="#CD3A3A"
           stroke="none"
           d="M16.242,39.771c0,3.555-2.883,6.438-6.438,6.438c-3.555,0-6.438-2.883-6.438-6.438      c0-3.556,2.882-6.438,6.438-6.438C13.359,33.333,16.242,36.216,16.242,39.771z"
           id="path213" />
        <path
           fill="#CD3B3B"
           stroke="none"
           d="M16.178,39.756c0,3.529-2.862,6.392-6.393,6.392s-6.393-2.861-6.393-6.392      s2.862-6.393,6.393-6.393S16.178,36.226,16.178,39.756z"
           id="path214" />
        <path
           fill="#CE3C3C"
           stroke="none"
           d="M16.113,39.74c0,3.506-2.842,6.348-6.348,6.348c-3.505,0-6.348-2.842-6.348-6.348      s2.842-6.348,6.348-6.348C13.271,33.393,16.113,36.234,16.113,39.74z"
           id="path215" />
        <path
           fill="#CE3D3D"
           stroke="none"
           d="M16.049,39.725c0,3.481-2.822,6.303-6.303,6.303s-6.303-2.821-6.303-6.303      c0-3.479,2.822-6.302,6.303-6.302S16.049,36.245,16.049,39.725z"
           id="path216" />
        <path
           fill="#CE3E3E"
           stroke="none"
           d="M15.984,39.71c0,3.455-2.802,6.257-6.257,6.257c-3.457,0-6.258-2.802-6.258-6.257      c0-3.456,2.802-6.258,6.258-6.258C13.183,33.452,15.984,36.254,15.984,39.71z"
           id="path217" />
        <path
           fill="#CF3F3F"
           stroke="none"
           d="M15.92,39.694c0,3.431-2.781,6.213-6.212,6.213c-3.432,0-6.213-2.782-6.213-6.213      c0-3.43,2.781-6.212,6.213-6.212C13.139,33.482,15.92,36.265,15.92,39.694z"
           id="path218" />
        <path
           fill="#CF4040"
           stroke="none"
           d="M15.856,39.681c0,3.405-2.762,6.166-6.168,6.166s-6.168-2.761-6.168-6.166      c0-3.407,2.762-6.168,6.168-6.168C13.094,33.513,15.856,36.273,15.856,39.681z"
           id="path219" />
        <path
           fill="#D04141"
           stroke="none"
           d="M15.791,39.665c0,3.381-2.741,6.121-6.122,6.121c-3.382,0-6.123-2.74-6.123-6.121      c0-3.382,2.741-6.123,6.123-6.123C13.05,33.542,15.791,36.283,15.791,39.665z"
           id="path220" />
        <path
           fill="#D04242"
           stroke="none"
           d="M15.727,39.649c0,3.355-2.722,6.077-6.077,6.077c-3.357,0-6.077-2.722-6.077-6.077      c0-3.357,2.721-6.077,6.077-6.077C13.005,33.572,15.727,36.292,15.727,39.649z"
           id="path221" />
        <path
           fill="#D14343"
           stroke="none"
           d="M15.662,39.634c0,3.331-2.701,6.032-6.032,6.032s-6.033-2.701-6.033-6.032      s2.701-6.032,6.033-6.032S15.662,36.303,15.662,39.634z"
           id="path222" />
        <path
           fill="#D14444"
           stroke="none"
           d="M15.598,39.619c0,3.306-2.681,5.987-5.987,5.987s-5.987-2.682-5.987-5.987      c0-3.307,2.68-5.987,5.987-5.987C12.917,33.632,15.598,36.313,15.598,39.619z"
           id="path223" />
        <path
           fill="#D24545"
           stroke="none"
           d="M15.533,39.604c0,3.282-2.66,5.942-5.942,5.942s-5.942-2.66-5.942-5.942      c0-3.281,2.661-5.942,5.942-5.942C12.873,33.661,15.533,36.322,15.533,39.604z"
           id="path224" />
        <path
           fill="#D24646"
           stroke="none"
           d="M15.469,39.589c0,3.256-2.64,5.896-5.897,5.896s-5.897-2.641-5.897-5.896      c0-3.258,2.64-5.898,5.897-5.898S15.469,36.332,15.469,39.589z"
           id="path225" />
        <path
           fill="#D34747"
           stroke="none"
           d="M15.404,39.573c0,3.231-2.62,5.852-5.853,5.852c-3.232,0-5.852-2.62-5.852-5.852      s2.62-5.852,5.852-5.852C12.784,33.722,15.404,36.342,15.404,39.573z"
           id="path226" />
        <path
           fill="#D34848"
           stroke="none"
           d="M15.341,39.559c0,3.207-2.601,5.807-5.808,5.807c-3.207,0-5.807-2.6-5.807-5.807      c0-3.208,2.6-5.808,5.807-5.808C12.74,33.751,15.341,36.351,15.341,39.559z"
           id="path227" />
        <path
           fill="#D34949"
           stroke="none"
           d="M15.275,39.543c0,3.183-2.58,5.762-5.762,5.762c-3.182,0-5.762-2.579-5.762-5.762      s2.58-5.762,5.762-5.762C12.696,33.781,15.275,36.36,15.275,39.543z"
           id="path228" />
        <path
           fill="#D44A4A"
           stroke="none"
           d="M15.211,39.527c0,3.158-2.56,5.718-5.717,5.718c-3.157,0-5.717-2.56-5.717-5.718      c0-3.157,2.56-5.716,5.717-5.716C12.651,33.812,15.211,36.37,15.211,39.527z"
           id="path229" />
        <path
           fill="#D44B4B"
           stroke="none"
           d="M15.146,39.513c0,3.132-2.54,5.672-5.672,5.672c-3.132,0-5.672-2.54-5.672-5.672      c0-3.133,2.54-5.672,5.672-5.672C12.607,33.841,15.146,36.38,15.146,39.513z"
           id="path230" />
        <path
           fill="#D54C4C"
           stroke="none"
           d="M15.082,39.498c0,3.108-2.519,5.626-5.626,5.626c-3.108,0-5.627-2.519-5.627-5.626      s2.52-5.627,5.627-5.627C12.563,33.87,15.082,36.39,15.082,39.498z"
           id="path231" />
        <path
           fill="#D54D4D"
           stroke="none"
           d="M15.018,39.482c0,3.083-2.499,5.582-5.582,5.582c-3.083,0-5.582-2.499-5.582-5.582      s2.499-5.581,5.582-5.581C12.519,33.901,15.018,36.399,15.018,39.482z"
           id="path232" />
        <path
           fill="#D64E4E"
           stroke="none"
           d="M14.953,39.468c0,3.058-2.479,5.536-5.537,5.536s-5.537-2.479-5.537-5.536      c0-3.059,2.479-5.537,5.537-5.537S14.953,36.409,14.953,39.468z"
           id="path233" />
        <path
           fill="#D64F4F"
           stroke="none"
           d="M14.889,39.452c0,3.033-2.458,5.491-5.491,5.491s-5.492-2.458-5.492-5.491      s2.458-5.492,5.492-5.492C12.43,33.96,14.889,36.419,14.889,39.452z"
           id="path234" />
        <path
           fill="#D75050"
           stroke="none"
           d="M14.825,39.438c0,3.009-2.439,5.446-5.447,5.446c-3.008,0-5.447-2.438-5.447-5.446      s2.438-5.446,5.447-5.446C12.386,33.991,14.825,36.43,14.825,39.438z"
           id="path235" />
        <path
           fill="#D75151"
           stroke="none"
           d="M14.76,39.422c0,2.983-2.419,5.401-5.401,5.401c-2.984,0-5.402-2.418-5.402-5.401      s2.418-5.402,5.402-5.402C12.341,34.02,14.76,36.438,14.76,39.422z"
           id="path236" />
        <path
           fill="#D75252"
           stroke="none"
           d="M14.695,39.406c0,2.959-2.398,5.357-5.356,5.357c-2.959,0-5.357-2.398-5.357-5.357      c0-2.958,2.398-5.356,5.357-5.356C12.297,34.05,14.695,36.449,14.695,39.406z"
           id="path237" />
        <path
           fill="#D85353"
           stroke="none"
           d="M14.631,39.392c0,2.934-2.378,5.312-5.312,5.312s-5.312-2.378-5.312-5.312      s2.378-5.312,5.312-5.312S14.631,36.458,14.631,39.392z"
           id="path238" />
        <path
           fill="#D85454"
           stroke="none"
           d="M14.566,39.377c0,2.908-2.358,5.267-5.267,5.267c-2.908,0-5.267-2.358-5.267-5.267      s2.358-5.268,5.267-5.268C12.208,34.109,14.566,36.468,14.566,39.377z"
           id="path239" />
        <path
           fill="#D95555"
           stroke="none"
           d="M14.502,39.361c0,2.884-2.337,5.222-5.222,5.222c-2.884,0-5.221-2.338-5.221-5.222      S6.396,34.14,9.28,34.14C12.165,34.14,14.502,36.478,14.502,39.361z"
           id="path240" />
        <path
           fill="#D95656"
           stroke="none"
           d="M14.438,39.347c0,2.858-2.318,5.176-5.177,5.176s-5.176-2.317-5.176-5.176      s2.317-5.177,5.176-5.177S14.438,36.487,14.438,39.347z"
           id="path241" />
        <path
           fill="#DA5757"
           stroke="none"
           d="M14.373,39.331c0,2.834-2.297,5.132-5.131,5.132S4.11,42.165,4.11,39.331      S6.408,34.2,9.242,34.2S14.373,36.497,14.373,39.331z"
           id="path242" />
        <path
           fill="#DA5858"
           stroke="none"
           d="M14.309,39.316c0,2.809-2.277,5.087-5.086,5.087c-2.809,0-5.087-2.277-5.087-5.087      c0-2.809,2.278-5.087,5.087-5.087C12.032,34.229,14.309,36.507,14.309,39.316z"
           id="path243" />
        <path
           fill="#DB5959"
           stroke="none"
           d="M14.244,39.301c0,2.784-2.257,5.041-5.042,5.041c-2.784,0-5.041-2.257-5.041-5.041      s2.257-5.042,5.041-5.042C11.987,34.26,14.244,36.517,14.244,39.301z"
           id="path244" />
        <path
           fill="#DB5A5A"
           stroke="none"
           d="M14.18,39.285c0,2.759-2.237,4.996-4.997,4.996c-2.759,0-4.996-2.237-4.996-4.996      s2.237-4.996,4.996-4.996C11.943,34.289,14.18,36.526,14.18,39.285z"
           id="path245" />
        <path
           fill="#DC5B5B"
           stroke="none"
           d="M14.115,39.271c0,2.734-2.217,4.951-4.951,4.951c-2.735,0-4.951-2.217-4.951-4.951      s2.216-4.951,4.951-4.951C11.898,34.319,14.115,36.536,14.115,39.271z"
           id="path246" />
        <path
           fill="#DC5C5C"
           stroke="none"
           d="M14.051,39.255c0,2.71-2.196,4.906-4.906,4.906c-2.71,0-4.907-2.195-4.907-4.906      c0-2.709,2.196-4.905,4.907-4.905C11.854,34.35,14.051,36.546,14.051,39.255z"
           id="path247" />
        <path
           fill="#DC5D5D"
           stroke="none"
           d="M13.986,39.24c0,2.685-2.176,4.86-4.86,4.86c-2.685,0-4.862-2.176-4.862-4.86      s2.176-4.86,4.861-4.86C11.81,34.38,13.986,36.556,13.986,39.24z"
           id="path248" />
        <path
           fill="#DD5E5E"
           stroke="none"
           d="M13.923,39.226c0,2.659-2.157,4.816-4.816,4.816c-2.66,0-4.816-2.157-4.816-4.816      c0-2.66,2.156-4.816,4.816-4.816C11.766,34.409,13.923,36.565,13.923,39.226z"
           id="path249" />
        <path
           fill="#DD5F5F"
           stroke="none"
           d="M13.857,39.21c0,2.635-2.136,4.771-4.771,4.771s-4.771-2.137-4.771-4.771      c0-2.636,2.136-4.771,4.771-4.771S13.857,36.574,13.857,39.21z"
           id="path250" />
        <path
           fill="#DE6060"
           stroke="none"
           d="M13.793,39.194c0,2.61-2.116,4.727-4.726,4.727c-2.61,0-4.727-2.116-4.727-4.727      c0-2.609,2.116-4.726,4.727-4.726C11.677,34.468,13.793,36.585,13.793,39.194z"
           id="path251" />
        <path
           fill="#DE6161"
           stroke="none"
           d="M13.729,39.181c0,2.585-2.096,4.68-4.681,4.68c-2.585,0-4.682-2.095-4.682-4.68      c0-2.587,2.096-4.682,4.682-4.682C11.633,34.499,13.729,36.594,13.729,39.181z"
           id="path252" />
        <path
           fill="#DF6262"
           stroke="none"
           d="M13.664,39.165c0,2.56-2.075,4.636-4.636,4.636s-4.636-2.076-4.636-4.636      c0-2.561,2.076-4.637,4.636-4.637S13.664,36.604,13.664,39.165z"
           id="path253" />
        <path
           fill="#DF6363"
           stroke="none"
           d="M13.6,39.149c0,2.535-2.055,4.591-4.591,4.591c-2.535,0-4.591-2.056-4.591-4.591      s2.056-4.592,4.591-4.592C11.544,34.558,13.6,36.614,13.6,39.149z"
           id="path254" />
        <path
           fill="#E06464"
           stroke="none"
           d="M13.536,39.134c0,2.511-2.036,4.546-4.546,4.546s-4.546-2.035-4.546-4.546      c0-2.51,2.036-4.545,4.546-4.545S13.536,36.624,13.536,39.134z"
           id="path255" />
        <path
           fill="#E06565"
           stroke="none"
           d="M13.472,39.119c0,2.485-2.016,4.501-4.502,4.501c-2.485,0-4.5-2.016-4.5-4.501      c0-2.486,2.015-4.501,4.5-4.501C11.456,34.618,13.472,36.634,13.472,39.119z"
           id="path256" />
        <path
           fill="#E06666"
           stroke="none"
           d="M13.407,39.104c0,2.462-1.995,4.456-4.457,4.456c-2.46,0-4.456-1.994-4.456-4.456      c0-2.46,1.995-4.456,4.456-4.456C11.412,34.648,13.407,36.644,13.407,39.104z"
           id="path257" />
        <path
           fill="#E16767"
           stroke="none"
           d="M13.343,39.089c0,2.437-1.976,4.41-4.412,4.41s-4.411-1.975-4.411-4.41      c0-2.437,1.975-4.411,4.411-4.411S13.343,36.652,13.343,39.089z"
           id="path258" />
        <path
           fill="#E16868"
           stroke="none"
           d="M13.278,39.073c0,2.411-1.955,4.366-4.366,4.366s-4.366-1.955-4.366-4.366      c0-2.41,1.955-4.366,4.366-4.366S13.278,36.663,13.278,39.073z"
           id="path259" />
        <path
           fill="#E26969"
           stroke="none"
           d="M13.213,39.059c0,2.386-1.935,4.321-4.321,4.321s-4.32-1.936-4.32-4.321      c0-2.387,1.935-4.321,4.321-4.321S13.213,36.672,13.213,39.059z"
           id="path260" />
        <path
           fill="#E26A6A"
           stroke="none"
           d="M13.149,39.043c0,2.362-1.915,4.276-4.275,4.276c-2.361,0-4.276-1.914-4.276-4.276      c0-2.36,1.915-4.275,4.276-4.275C11.234,34.768,13.149,36.683,13.149,39.043z"
           id="path261" />
        <path
           fill="#E36B6B"
           stroke="none"
           d="M13.084,39.028c0,2.337-1.894,4.23-4.23,4.23c-2.337,0-4.23-1.894-4.23-4.23      s1.894-4.23,4.23-4.23C11.19,34.798,13.084,36.691,13.084,39.028z"
           id="path262" />
        <path
           fill="#E36C6C"
           stroke="none"
           d="M13.02,39.013c0,2.312-1.874,4.187-4.186,4.187s-4.186-1.875-4.186-4.187      c0-2.311,1.875-4.186,4.186-4.186S13.02,36.702,13.02,39.013z"
           id="path263" />
        <path
           fill="#E46D6D"
           stroke="none"
           d="M12.956,38.998c0,2.287-1.854,4.141-4.141,4.141s-4.141-1.854-4.141-4.141      s1.854-4.141,4.141-4.141S12.956,36.711,12.956,38.998z"
           id="path264" />
        <path
           fill="#E46E6E"
           stroke="none"
           d="M12.892,38.982c0,2.263-1.834,4.096-4.096,4.096S4.7,41.245,4.7,38.982      c0-2.261,1.834-4.095,4.096-4.095S12.892,36.722,12.892,38.982z"
           id="path265" />
        <path
           fill="#E56F6F"
           stroke="none"
           d="M12.827,38.968c0,2.237-1.814,4.051-4.05,4.051c-2.237,0-4.051-1.813-4.051-4.051      s1.813-4.051,4.051-4.051C11.013,34.917,12.827,36.731,12.827,38.968z"
           id="path266" />
        <path
           fill="#E57070"
           stroke="none"
           d="M12.762,38.952c0,2.213-1.793,4.005-4.005,4.005c-2.213,0-4.006-1.792-4.006-4.005      s1.793-4.005,4.006-4.005C10.969,34.947,12.762,36.74,12.762,38.952z"
           id="path267" />
        <path
           fill="#E57171"
           stroke="none"
           d="M12.698,38.938c0,2.187-1.773,3.96-3.96,3.96s-3.96-1.773-3.96-3.96      c0-2.188,1.773-3.961,3.96-3.961C10.925,34.977,12.698,36.75,12.698,38.938z"
           id="path268" />
        <path
           fill="#E67272"
           stroke="none"
           d="M12.633,38.922c0,2.163-1.753,3.915-3.916,3.915s-3.916-1.752-3.916-3.915      c0-2.162,1.753-3.915,3.916-3.915S12.633,36.76,12.633,38.922z"
           id="path269" />
        <path
           fill="#E67373"
           stroke="none"
           d="M12.569,38.907c0,2.138-1.733,3.869-3.871,3.869c-2.137,0-3.87-1.731-3.87-3.869      s1.733-3.87,3.87-3.87C10.836,35.037,12.569,36.77,12.569,38.907z"
           id="path270" />
        <path
           fill="#E77474"
           stroke="none"
           d="M12.505,38.892c0,2.113-1.713,3.826-3.826,3.826c-2.112,0-3.825-1.713-3.825-3.826      c0-2.112,1.713-3.824,3.825-3.824C10.792,35.067,12.505,36.779,12.505,38.892z"
           id="path271" />
        <path
           fill="#E77575"
           stroke="none"
           d="M12.44,38.877c0,2.088-1.693,3.779-3.781,3.779c-2.087,0-3.78-1.691-3.78-3.779      s1.692-3.78,3.78-3.78S12.44,36.789,12.44,38.877z"
           id="path272" />
        <path
           fill="#E87676"
           stroke="none"
           d="M12.375,38.861c0,2.063-1.673,3.735-3.735,3.735c-2.063,0-3.735-1.672-3.735-3.735      c0-2.063,1.672-3.735,3.735-3.735C10.703,35.126,12.375,36.799,12.375,38.861z"
           id="path273" />
        <path
           fill="#E87777"
           stroke="none"
           d="M12.312,38.847c0,2.038-1.653,3.69-3.691,3.69s-3.69-1.652-3.69-3.69      c0-2.039,1.652-3.691,3.69-3.691S12.312,36.808,12.312,38.847z"
           id="path274" />
        <path
           fill="#E97878"
           stroke="none"
           d="M12.247,38.831c0,2.014-1.632,3.645-3.645,3.645s-3.645-1.631-3.645-3.645      c0-2.013,1.632-3.645,3.645-3.645S12.247,36.818,12.247,38.831z"
           id="path275" />
        <path
           fill="#E97979"
           stroke="none"
           d="M12.183,38.816c0,1.988-1.612,3.6-3.601,3.6s-3.601-1.611-3.601-3.6      c0-1.989,1.612-3.601,3.601-3.601S12.183,36.827,12.183,38.816z"
           id="path276" />
        <path
           fill="#E97A7A"
           stroke="none"
           d="M12.118,38.801c0,1.964-1.592,3.555-3.556,3.555c-1.963,0-3.555-1.591-3.555-3.555      s1.591-3.556,3.555-3.556C10.526,35.246,12.118,36.837,12.118,38.801z"
           id="path277" />
        <path
           fill="#EA7B7B"
           stroke="none"
           d="M12.053,38.785c0,1.939-1.572,3.511-3.509,3.511c-1.939,0-3.51-1.572-3.51-3.511      s1.572-3.509,3.51-3.509C10.481,35.276,12.053,36.848,12.053,38.785z"
           id="path278" />
        <path
           fill="#EA7C7C"
           stroke="none"
           d="M11.989,38.771c0,1.914-1.551,3.465-3.465,3.465c-1.914,0-3.465-1.551-3.465-3.465      s1.551-3.465,3.465-3.465C10.438,35.306,11.989,36.856,11.989,38.771z"
           id="path279" />
        <path
           fill="#EB7D7D"
           stroke="none"
           d="M11.925,38.756c0,1.888-1.531,3.419-3.42,3.419c-1.889,0-3.42-1.531-3.42-3.419      c0-1.89,1.531-3.421,3.42-3.421C10.394,35.335,11.925,36.867,11.925,38.756z"
           id="path280" />
        <path
           fill="#EB7E7E"
           stroke="none"
           d="M11.86,38.74c0,1.864-1.512,3.375-3.375,3.375c-1.864,0-3.375-1.511-3.375-3.375      s1.51-3.374,3.375-3.374C10.349,35.366,11.86,36.876,11.86,38.74z"
           id="path281" />
        <path
           fill="#EC7F7F"
           stroke="none"
           d="M11.796,38.726c0,1.839-1.491,3.329-3.33,3.329s-3.33-1.49-3.33-3.329      s1.491-3.331,3.33-3.331S11.796,36.886,11.796,38.726z"
           id="path282" />
        <path
           fill="#EC8080"
           stroke="none"
           d="M11.731,38.71c0,1.814-1.471,3.285-3.285,3.285s-3.285-1.471-3.285-3.285      s1.471-3.285,3.285-3.285S11.731,36.896,11.731,38.71z"
           id="path283" />
        <path
           fill="#ED8181"
           stroke="none"
           d="M11.667,38.694c0,1.79-1.451,3.24-3.24,3.24c-1.79,0-3.24-1.45-3.24-3.24      c0-1.789,1.451-3.239,3.24-3.239C10.216,35.455,11.667,36.905,11.667,38.694z"
           id="path284" />
        <path
           fill="#ED8282"
           stroke="none"
           d="M11.603,38.681c0,1.764-1.43,3.193-3.195,3.193c-1.764,0-3.195-1.43-3.195-3.193      c0-1.766,1.431-3.195,3.195-3.195C10.172,35.485,11.603,36.915,11.603,38.681z"
           id="path285" />
        <path
           fill="#ED8383"
           stroke="none"
           d="M11.538,38.665c0,1.739-1.41,3.149-3.15,3.149s-3.149-1.41-3.149-3.149      c0-1.74,1.41-3.149,3.149-3.149S11.538,36.925,11.538,38.665z"
           id="path286" />
        <path
           fill="#EE8484"
           stroke="none"
           d="M11.474,38.649c0,1.715-1.391,3.105-3.105,3.105c-1.715,0-3.104-1.391-3.104-3.105      s1.39-3.104,3.104-3.104C10.083,35.545,11.474,36.935,11.474,38.649z"
           id="path287" />
        <path
           fill="#EE8585"
           stroke="none"
           d="M11.409,38.634c0,1.689-1.371,3.06-3.06,3.06c-1.69,0-3.059-1.37-3.059-3.06      s1.37-3.06,3.059-3.06C10.039,35.574,11.409,36.944,11.409,38.634z"
           id="path288" />
        <path
           fill="#EF8686"
           stroke="none"
           d="M11.345,38.619c0,1.665-1.35,3.015-3.015,3.015s-3.015-1.35-3.015-3.015      s1.35-3.015,3.015-3.015S11.345,36.954,11.345,38.619z"
           id="path289" />
        <path
           fill="#EF8787"
           stroke="none"
           d="M11.28,38.604c0,1.64-1.33,2.969-2.97,2.969c-1.641,0-2.97-1.329-2.97-2.969      c0-1.641,1.329-2.971,2.97-2.971C9.95,35.634,11.28,36.965,11.28,38.604z"
           id="path290" />
        <path
           fill="#F08888"
           stroke="none"
           d="M11.216,38.589c0,1.615-1.31,2.925-2.925,2.925s-2.925-1.31-2.925-2.925      s1.309-2.925,2.925-2.925C9.906,35.665,11.216,36.974,11.216,38.589z"
           id="path291" />
        <path
           fill="#F08989"
           stroke="none"
           d="M11.151,38.573c0,1.591-1.29,2.88-2.879,2.88c-1.59,0-2.88-1.29-2.88-2.88      c0-1.589,1.29-2.879,2.88-2.879C9.862,35.694,11.151,36.983,11.151,38.573z"
           id="path292" />
        <path
           fill="#F18A8A"
           stroke="none"
           d="M11.087,38.559c0,1.565-1.27,2.835-2.834,2.835c-1.566,0-2.835-1.27-2.835-2.835      s1.269-2.835,2.835-2.835C9.817,35.724,11.087,36.993,11.087,38.559z"
           id="path293" />
        <path
           fill="#F18B8B"
           stroke="none"
           d="M11.022,38.543c0,1.541-1.249,2.79-2.79,2.79s-2.79-1.249-2.79-2.79      c0-1.54,1.249-2.789,2.79-2.789S11.022,37.003,11.022,38.543z"
           id="path294" />
        <path
           fill="#F28C8C"
           stroke="none"
           d="M10.958,38.528c0,1.516-1.229,2.744-2.744,2.744S5.47,40.044,5.47,38.528      s1.229-2.744,2.744-2.744S10.958,37.013,10.958,38.528z"
           id="path295" />
        <path
           fill="#F28D8D"
           stroke="none"
           d="M10.894,38.513c0,1.491-1.209,2.7-2.699,2.7c-1.492,0-2.7-1.209-2.7-2.7      c0-1.49,1.208-2.699,2.7-2.699C9.685,35.813,10.894,37.022,10.894,38.513z"
           id="path296" />
        <path
           fill="#F28E8E"
           stroke="none"
           d="M10.829,38.498c0,1.466-1.189,2.654-2.654,2.654c-1.466,0-2.655-1.188-2.655-2.654      s1.188-2.654,2.655-2.654C9.641,35.844,10.829,37.032,10.829,38.498z"
           id="path297" />
        <path
           fill="#F38F8F"
           stroke="none"
           d="M10.765,38.482c0,1.441-1.168,2.609-2.609,2.609s-2.609-1.168-2.609-2.609      c0-1.44,1.168-2.608,2.609-2.608S10.765,37.042,10.765,38.482z"
           id="path298" />
        <path
           fill="#F39090"
           stroke="none"
           d="M10.7,38.468c0,1.416-1.148,2.564-2.564,2.564s-2.564-1.148-2.564-2.564      c0-1.417,1.148-2.564,2.564-2.564S10.7,37.051,10.7,38.468z"
           id="path299" />
        <path
           fill="#F49191"
           stroke="none"
           d="M10.636,38.452c0,1.392-1.128,2.52-2.52,2.52c-1.391,0-2.519-1.128-2.519-2.52      s1.128-2.52,2.519-2.52C9.508,35.934,10.636,37.062,10.636,38.452z"
           id="path300" />
        <path
           fill="#F49292"
           stroke="none"
           d="M10.571,38.438c0,1.366-1.108,2.474-2.474,2.474c-1.367,0-2.475-1.107-2.475-2.474      c0-1.367,1.108-2.474,2.475-2.474C9.463,35.964,10.571,37.07,10.571,38.438z"
           id="path301" />
        <path
           fill="#F59393"
           stroke="none"
           d="M10.507,38.422c0,1.342-1.088,2.429-2.429,2.429c-1.342,0-2.429-1.087-2.429-2.429      c0-1.341,1.087-2.429,2.429-2.429C9.419,35.993,10.507,37.081,10.507,38.422z"
           id="path302" />
        <path
           fill="#F59494"
           stroke="none"
           d="M10.442,38.407c0,1.316-1.068,2.384-2.384,2.384c-1.317,0-2.384-1.067-2.384-2.384      c0-1.317,1.067-2.385,2.384-2.385S10.442,37.09,10.442,38.407z"
           id="path303" />
        <path
           fill="#F69595"
           stroke="none"
           d="M10.378,38.392c0,1.292-1.047,2.34-2.339,2.34c-1.292,0-2.34-1.047-2.34-2.34      c0-1.292,1.047-2.338,2.34-2.338C9.331,36.054,10.378,37.1,10.378,38.392z"
           id="path304" />
        <path
           fill="#F69696"
           stroke="none"
           d="M10.313,38.377c0,1.267-1.027,2.294-2.294,2.294s-2.294-1.027-2.294-2.294      c0-1.268,1.027-2.294,2.294-2.294S10.313,37.109,10.313,38.377z"
           id="path305" />
        <path
           fill="#F69797"
           stroke="none"
           d="M10.249,38.361c0,1.242-1.007,2.249-2.249,2.249s-2.249-1.007-2.249-2.249      S6.758,36.113,8,36.113S10.249,37.119,10.249,38.361z"
           id="path306" />
        <path
           fill="#F79898"
           stroke="none"
           d="M10.185,38.347c0,1.217-0.987,2.204-2.204,2.204s-2.204-0.987-2.204-2.204      s0.987-2.204,2.204-2.204S10.185,37.13,10.185,38.347z"
           id="path307" />
        <path
           fill="#F79999"
           stroke="none"
           d="M10.12,38.332c0,1.191-0.967,2.158-2.158,2.158c-1.193,0-2.159-0.967-2.159-2.158      c0-1.193,0.966-2.159,2.159-2.159C9.153,36.172,10.12,37.139,10.12,38.332z"
           id="path308" />
        <path
           fill="#F89A9A"
           stroke="none"
           d="M10.056,38.316c0,1.167-0.946,2.114-2.114,2.114c-1.168,0-2.114-0.947-2.114-2.114      s0.946-2.113,2.114-2.113C9.11,36.203,10.056,37.149,10.056,38.316z"
           id="path309" />
        <path
           fill="#F89B9B"
           stroke="none"
           d="M9.992,38.301c0,1.142-0.926,2.069-2.069,2.069s-2.069-0.927-2.069-2.069      s0.927-2.068,2.069-2.068C9.065,36.232,9.992,37.158,9.992,38.301z"
           id="path310" />
        <path
           fill="#F99C9C"
           stroke="none"
           d="M9.927,38.286c0,1.117-0.906,2.023-2.024,2.023c-1.118,0-2.024-0.906-2.024-2.023      c0-1.118,0.906-2.024,2.024-2.024C9.021,36.263,9.927,37.168,9.927,38.286z"
           id="path311" />
        <path
           fill="#F99D9D"
           stroke="none"
           d="M9.862,38.271c0,1.093-0.886,1.979-1.979,1.979c-1.093,0-1.979-0.886-1.979-1.979      s0.886-1.979,1.979-1.979C8.976,36.292,9.862,37.178,9.862,38.271z"
           id="path312" />
        <path
           fill="#FA9E9E"
           stroke="none"
           d="M9.798,38.256c0,1.067-0.866,1.934-1.934,1.934c-1.068,0-1.934-0.866-1.934-1.934      c0-1.068,0.865-1.935,1.934-1.935C8.932,36.321,9.798,37.188,9.798,38.256z"
           id="path313" />
        <path
           fill="#FA9F9F"
           stroke="none"
           d="M9.733,38.24c0,1.043-0.846,1.89-1.889,1.89s-1.889-0.847-1.889-1.89      s0.846-1.889,1.889-1.889S9.733,37.197,9.733,38.24z"
           id="path314" />
        <path
           fill="#FBA0A0"
           stroke="none"
           d="M9.669,38.226c0,1.018-0.825,1.844-1.843,1.844s-1.844-0.826-1.844-1.844      c0-1.019,0.826-1.844,1.844-1.844S9.669,37.207,9.669,38.226z"
           id="path315" />
        <path
           fill="#FBA1A1"
           stroke="none"
           d="M9.605,38.21c0,0.993-0.806,1.799-1.798,1.799c-0.994,0-1.799-0.806-1.799-1.799      s0.805-1.799,1.799-1.799C8.799,36.411,9.605,37.217,9.605,38.21z"
           id="path316" />
        <path
           fill="#FBA2A2"
           stroke="none"
           d="M9.541,38.194c0,0.97-0.786,1.754-1.754,1.754c-0.969,0-1.754-0.784-1.754-1.754      c0-0.968,0.785-1.753,1.754-1.753C8.755,36.441,9.541,37.227,9.541,38.194z"
           id="path317" />
        <path
           fill="#FCA3A3"
           stroke="none"
           d="M9.476,38.181c0,0.942-0.765,1.708-1.708,1.708s-1.708-0.766-1.708-1.708      c0-0.944,0.765-1.709,1.708-1.709S9.476,37.236,9.476,38.181z"
           id="path318" />
        <path
           fill="#FCA4A4"
           stroke="none"
           d="M9.411,38.165c0,0.918-0.745,1.663-1.664,1.663c-0.918,0-1.663-0.745-1.663-1.663      s0.745-1.664,1.663-1.664C8.667,36.501,9.411,37.247,9.411,38.165z"
           id="path319" />
        <path
           fill="#FDA5A5"
           stroke="none"
           d="M9.347,38.149c0,0.894-0.725,1.618-1.618,1.618S6.11,39.043,6.11,38.149      s0.725-1.617,1.619-1.617C8.622,36.532,9.347,37.256,9.347,38.149z"
           id="path320" />
        <path
           fill="#FDA6A6"
           stroke="none"
           d="M9.282,38.135c0,0.868-0.705,1.573-1.573,1.573c-0.869,0-1.574-0.705-1.574-1.573      c0-0.87,0.705-1.574,1.574-1.574C8.578,36.562,9.282,37.266,9.282,38.135z"
           id="path321" />
        <path
           fill="#FEA7A7"
           stroke="none"
           d="M9.218,38.119c0,0.845-0.684,1.528-1.528,1.528c-0.844,0-1.528-0.684-1.528-1.528      c0-0.844,0.684-1.528,1.528-1.528C8.534,36.591,9.218,37.275,9.218,38.119z"
           id="path322" />
        <path
           fill="#FEA8A8"
           stroke="none"
           d="M9.153,38.104c0,0.818-0.664,1.482-1.483,1.482c-0.819,0-1.484-0.664-1.484-1.482      c0-0.82,0.665-1.484,1.484-1.484C8.489,36.62,9.153,37.284,9.153,38.104z"
           id="path323" />
        <path
           fill="#FFA9A9"
           stroke="none"
           d="M9.089,38.089c0,0.794-0.644,1.438-1.438,1.438s-1.438-0.644-1.438-1.438      c0-0.794,0.644-1.438,1.438-1.438S9.089,37.295,9.089,38.089z"
           id="path324" />
        <path
           fill="#FFAAAA"
           stroke="none"
           d="M6.238,38.073c0-0.77,0.624-1.393,1.393-1.393c0.77,0,1.393,0.624,1.393,1.393      c0,0.77-0.624,1.394-1.393,1.394S6.238,38.843,6.238,38.073z"
           id="path325" />
      </g>
      <g
         id="red_exclamation_2_">
        <path
           stroke="none"
           d="M0,8.337c0.075,0.25,8.437,28.149,8.631,28.798c0.49-0.435,8.93-7.911,9.008-7.979      c0.037-0.098,8.279-21.004,8.434-21.395C25.692,7.594,8.698,0.119,8.429,0C8.222,0.205,0.183,8.156,0,8.337z"
           id="path327" />
        <path
           stroke="none"
           d="M0.692,40.46c0,5.643,4.59,10.231,10.231,10.231c5.642,0,10.229-4.589,10.229-10.231      c0-5.639-4.589-10.229-10.229-10.229C5.281,30.231,0.692,34.821,0.692,40.46z M2.229,40.46c0-4.792,3.9-8.692,8.694-8.692      c4.792,0,8.691,3.9,8.691,8.692c0,4.795-3.897,8.694-8.691,8.694C6.128,49.154,2.229,45.255,2.229,40.46z"
           id="path328" />
        <g
           id="g329">
          <path
             fill="#FF8C8C"
             stroke="none"
             d="M5.906,38.255c0-1.358,0.688-2.461,1.54-2.461c0.848,0,1.537,1.103,1.537,2.461       c0,1.36-0.689,2.462-1.537,2.462C6.594,40.717,5.906,39.615,5.906,38.255z"
             id="path330" />
          <path
             fill="#FF8D8D"
             stroke="none"
             d="M7.446,35.802c0.845,0,1.532,1.1,1.532,2.453c0,1.355-0.687,2.454-1.532,2.454       c-0.849,0-1.535-1.099-1.535-2.454C5.911,36.901,6.597,35.802,7.446,35.802z"
             id="path331" />
          <path
             fill="#FF8E8E"
             stroke="none"
             d="M7.446,35.81c0.843,0,1.528,1.096,1.528,2.445c0,1.352-0.685,2.446-1.528,2.446       c-0.846,0-1.53-1.095-1.53-2.446C5.916,36.905,6.6,35.81,7.446,35.81z"
             id="path332" />
          <path
             fill="#FF8F8F"
             stroke="none"
             d="M7.446,35.817c0.84,0,1.522,1.092,1.522,2.438c0,1.347-0.683,2.438-1.522,2.438       c-0.843,0-1.525-1.092-1.525-2.438C5.921,36.909,6.603,35.817,7.446,35.817z"
             id="path333" />
          <path
             fill="#FF9090"
             stroke="none"
             d="M7.446,35.825c0.837,0,1.518,1.089,1.518,2.43c0,1.343-0.681,2.43-1.518,2.43       c-0.841,0-1.521-1.087-1.521-2.43C5.925,36.914,6.605,35.825,7.446,35.825z"
             id="path334" />
          <path
             fill="#FF9191"
             stroke="none"
             d="M7.446,35.833c0.834,0,1.513,1.086,1.513,2.422c0,1.34-0.678,2.423-1.513,2.423       c-0.838,0-1.515-1.083-1.515-2.423C5.931,36.918,6.608,35.833,7.446,35.833z"
             id="path335" />
          <path
             fill="#FF9393"
             stroke="none"
             d="M7.446,35.841c0.832,0,1.508,1.081,1.508,2.414c0,1.334-0.676,2.414-1.508,2.414       c-0.835,0-1.511-1.08-1.511-2.414C5.935,36.922,6.61,35.841,7.446,35.841z"
             id="path336" />
          <path
             fill="#FF9494"
             stroke="none"
             d="M7.445,35.849c0.829,0,1.503,1.077,1.503,2.406c0,1.33-0.674,2.406-1.503,2.406       c-0.833,0-1.505-1.076-1.505-2.406C5.94,36.926,6.613,35.849,7.445,35.849z"
             id="path337" />
          <path
             fill="#FF9595"
             stroke="none"
             d="M7.446,35.856c0.827,0,1.498,1.074,1.498,2.398c0,1.325-0.671,2.399-1.498,2.399       c-0.83,0-1.5-1.074-1.5-2.399C5.945,36.931,6.616,35.856,7.446,35.856z"
             id="path338" />
          <path
             fill="#FF9696"
             stroke="none"
             d="M7.446,35.864c0.824,0,1.493,1.071,1.493,2.391c0,1.321-0.669,2.392-1.493,2.392       c-0.828,0-1.496-1.07-1.496-2.392C5.95,36.936,6.618,35.864,7.446,35.864z"
             id="path339" />
          <path
             fill="#FF9797"
             stroke="none"
             d="M7.446,35.872c0.821,0,1.488,1.067,1.488,2.383c0,1.316-0.667,2.383-1.488,2.383       c-0.825,0-1.491-1.066-1.491-2.383C5.955,36.939,6.622,35.872,7.446,35.872z"
             id="path340" />
          <path
             fill="#FF9898"
             stroke="none"
             d="M7.446,35.88c0.818,0,1.483,1.064,1.483,2.375c0,1.313-0.665,2.376-1.483,2.376       c-0.822,0-1.486-1.063-1.486-2.376C5.96,36.944,6.624,35.88,7.446,35.88z"
             id="path341" />
          <path
             fill="#FF9999"
             stroke="none"
             d="M7.446,35.888c0.815,0,1.479,1.061,1.479,2.367c0,1.309-0.663,2.367-1.479,2.367       c-0.82,0-1.481-1.059-1.481-2.367C5.964,36.949,6.626,35.888,7.446,35.888z"
             id="path342" />
          <path
             fill="#FF9A9A"
             stroke="none"
             d="M7.446,35.896c0.813,0,1.473,1.058,1.473,2.359c0,1.304-0.66,2.359-1.473,2.359       c-0.816,0-1.476-1.056-1.476-2.359C5.97,36.952,6.629,35.896,7.446,35.896z"
             id="path343" />
          <path
             fill="#FF9B9B"
             stroke="none"
             d="M7.446,35.903c0.81,0,1.469,1.053,1.469,2.352s-0.658,2.352-1.469,2.352       c-0.814,0-1.471-1.053-1.471-2.352C5.975,36.956,6.632,35.903,7.446,35.903z"
             id="path344" />
          <path
             fill="#FF9C9C"
             stroke="none"
             d="M7.445,35.911c0.808,0,1.464,1.05,1.464,2.344c0,1.295-0.657,2.344-1.464,2.344       c-0.811,0-1.466-1.049-1.466-2.344C5.979,36.961,6.634,35.911,7.445,35.911z"
             id="path345" />
          <path
             fill="#FF9D9D"
             stroke="none"
             d="M7.446,35.919c0.805,0,1.459,1.046,1.459,2.336c0,1.291-0.655,2.336-1.459,2.336       c-0.809,0-1.461-1.045-1.461-2.336C5.984,36.966,6.637,35.919,7.446,35.919z"
             id="path346" />
          <path
             fill="#FF9E9E"
             stroke="none"
             d="M7.446,35.928c0.802,0,1.454,1.042,1.454,2.327c0,1.287-0.651,2.328-1.454,2.328       c-0.806,0-1.457-1.042-1.457-2.328C5.99,36.97,6.64,35.928,7.446,35.928z"
             id="path347" />
          <path
             fill="#FFA0A0"
             stroke="none"
             d="M7.446,35.936c0.799,0,1.449,1.038,1.449,2.319c0,1.282-0.65,2.32-1.449,2.32       c-0.803,0-1.452-1.038-1.452-2.32C5.994,36.974,6.643,35.936,7.446,35.936z"
             id="path348" />
          <path
             fill="#FFA1A1"
             stroke="none"
             d="M7.445,35.942c0.797,0,1.444,1.036,1.444,2.313c0,1.277-0.647,2.313-1.444,2.313       c-0.8,0-1.446-1.035-1.446-2.313C5.999,36.979,6.646,35.942,7.445,35.942z"
             id="path349" />
          <path
             fill="#FFA2A2"
             stroke="none"
             d="M7.446,35.95c0.794,0,1.439,1.032,1.439,2.305c0,1.273-0.645,2.305-1.439,2.305       c-0.798,0-1.442-1.031-1.442-2.305C6.004,36.982,6.648,35.95,7.446,35.95z"
             id="path350" />
          <path
             fill="#FFA3A3"
             stroke="none"
             d="M7.446,35.959c0.792,0,1.434,1.028,1.434,2.296c0,1.27-0.643,2.297-1.434,2.297       c-0.795,0-1.437-1.027-1.437-2.297C6.009,36.987,6.651,35.959,7.446,35.959z"
             id="path351" />
          <path
             fill="#FFA4A4"
             stroke="none"
             d="M7.446,35.967c0.789,0,1.429,1.024,1.429,2.288c0,1.266-0.641,2.289-1.429,2.289       c-0.792,0-1.432-1.023-1.432-2.289C6.014,36.991,6.653,35.967,7.446,35.967z"
             id="path352" />
          <path
             fill="#FFA5A5"
             stroke="none"
             d="M7.445,35.975c0.786,0,1.425,1.021,1.425,2.28c0,1.26-0.639,2.281-1.425,2.281       c-0.79,0-1.427-1.021-1.427-2.281C6.019,36.996,6.656,35.975,7.445,35.975z"
             id="path353" />
          <path
             fill="#FFA6A6"
             stroke="none"
             d="M7.446,35.982c0.783,0,1.419,1.019,1.419,2.272c0,1.257-0.636,2.274-1.419,2.274       c-0.787,0-1.422-1.018-1.422-2.274C6.024,37,6.659,35.982,7.446,35.982z"
             id="path354" />
          <path
             fill="#FFA7A7"
             stroke="none"
             d="M7.446,35.99c0.78,0,1.415,1.014,1.415,2.265c0,1.252-0.634,2.266-1.415,2.266       c-0.784,0-1.417-1.014-1.417-2.266C6.028,37.004,6.662,35.99,7.446,35.99z"
             id="path355" />
          <path
             fill="#FFA8A8"
             stroke="none"
             d="M7.446,35.998c0.778,0,1.41,1.011,1.41,2.257c0,1.247-0.632,2.258-1.41,2.258       c-0.782,0-1.412-1.01-1.412-2.258C6.034,37.009,6.664,35.998,7.446,35.998z"
             id="path356" />
          <path
             fill="#FFA9A9"
             stroke="none"
             d="M7.445,36.006c0.775,0,1.405,1.007,1.405,2.249c0,1.243-0.63,2.249-1.405,2.249       c-0.778,0-1.407-1.006-1.407-2.249C6.039,37.013,6.667,36.006,7.445,36.006z"
             id="path357" />
          <path
             fill="#FFAAAA"
             stroke="none"
             d="M7.446,36.014c0.772,0,1.4,1.004,1.4,2.241c0,1.239-0.627,2.242-1.4,2.242       c-0.776,0-1.402-1.003-1.402-2.242C6.043,37.018,6.669,36.014,7.446,36.014z"
             id="path358" />
          <path
             fill="#FFABAB"
             stroke="none"
             d="M7.446,36.022c0.77,0,1.395,0.999,1.395,2.232c0,1.234-0.625,2.234-1.395,2.234       c-0.773,0-1.398-1-1.398-2.234C6.048,37.021,6.673,36.022,7.446,36.022z"
             id="path359" />
          <path
             fill="#FFADAD"
             stroke="none"
             d="M7.446,36.029c0.767,0,1.39,0.997,1.39,2.226c0,1.23-0.623,2.226-1.39,2.226       c-0.771,0-1.393-0.995-1.393-2.226C6.053,37.026,6.675,36.029,7.446,36.029z"
             id="path360" />
          <path
             fill="#FFAEAE"
             stroke="none"
             d="M7.445,36.037c0.765,0,1.386,0.993,1.386,2.218c0,1.226-0.621,2.218-1.386,2.218       c-0.768,0-1.388-0.991-1.388-2.218C6.058,37.031,6.677,36.037,7.445,36.037z"
             id="path361" />
          <path
             fill="#FFAFAF"
             stroke="none"
             d="M7.446,36.045c0.761,0,1.38,0.99,1.38,2.21c0,1.221-0.619,2.21-1.38,2.21       c-0.765,0-1.383-0.989-1.383-2.21S6.681,36.045,7.446,36.045z"
             id="path362" />
          <path
             fill="#FFB0B0"
             stroke="none"
             d="M7.446,36.054c0.759,0,1.375,0.985,1.375,2.201c0,1.217-0.616,2.202-1.375,2.202       c-0.763,0-1.378-0.985-1.378-2.202C6.067,37.039,6.683,36.054,7.446,36.054z"
             id="path363" />
          <path
             fill="#FFB1B1"
             stroke="none"
             d="M7.446,36.062c0.756,0,1.371,0.981,1.371,2.193c0,1.213-0.615,2.194-1.371,2.194       c-0.76,0-1.373-0.981-1.373-2.194C6.073,37.043,6.686,36.062,7.446,36.062z"
             id="path364" />
          <path
             fill="#FFB2B2"
             stroke="none"
             d="M7.445,36.068c0.754,0,1.366,0.979,1.366,2.187S8.199,40.44,7.445,40.44       c-0.757,0-1.368-0.978-1.368-2.186S6.688,36.068,7.445,36.068z"
             id="path365" />
          <path
             fill="#FFB3B3"
             stroke="none"
             d="M7.446,36.077c0.75,0,1.361,0.975,1.361,2.178c0,1.204-0.61,2.178-1.361,2.178       c-0.755,0-1.363-0.975-1.363-2.178S6.691,36.077,7.446,36.077z"
             id="path366" />
          <path
             fill="#FFB4B4"
             stroke="none"
             d="M7.446,36.085c0.748,0,1.356,0.972,1.356,2.17c0,1.2-0.608,2.171-1.356,2.171       c-0.751,0-1.359-0.971-1.359-2.171C6.088,37.057,6.694,36.085,7.446,36.085z"
             id="path367" />
          <path
             fill="#FFB5B5"
             stroke="none"
             d="M7.446,36.093c0.745,0,1.351,0.968,1.351,2.162c0,1.195-0.606,2.162-1.351,2.162       c-0.75,0-1.354-0.967-1.354-2.162C6.092,37.061,6.696,36.093,7.446,36.093z"
             id="path368" />
          <path
             fill="#FFB6B6"
             stroke="none"
             d="M7.445,36.101c0.743,0,1.347,0.964,1.347,2.154c0,1.191-0.604,2.154-1.347,2.154       c-0.746,0-1.349-0.963-1.349-2.154C6.097,37.064,6.699,36.101,7.445,36.101z"
             id="path369" />
          <path
             fill="#FFB7B7"
             stroke="none"
             d="M7.446,36.108c0.74,0,1.341,0.961,1.341,2.146c0,1.187-0.602,2.146-1.341,2.146       c-0.744,0-1.344-0.96-1.344-2.146C6.102,37.069,6.702,36.108,7.446,36.108z"
             id="path370" />
          <path
             fill="#FFB8B8"
             stroke="none"
             d="M7.446,36.116c0.737,0,1.336,0.958,1.336,2.139c0,1.184-0.599,2.14-1.336,2.14       c-0.741,0-1.339-0.956-1.339-2.14C6.107,37.073,6.705,36.116,7.446,36.116z"
             id="path371" />
          <path
             fill="#FFBABA"
             stroke="none"
             d="M7.446,36.124c0.734,0,1.332,0.953,1.332,2.131s-0.597,2.131-1.332,2.131       c-0.739,0-1.334-0.953-1.334-2.131S6.708,36.124,7.446,36.124z"
             id="path372" />
          <path
             fill="#FFBBBB"
             stroke="none"
             d="M7.445,36.132c0.732,0,1.327,0.951,1.327,2.123c0,1.174-0.595,2.124-1.327,2.124       c-0.735,0-1.329-0.95-1.329-2.124C6.116,37.083,6.71,36.132,7.445,36.132z"
             id="path373" />
          <path
             fill="#FFBCBC"
             stroke="none"
             d="M7.446,36.14c0.729,0,1.322,0.946,1.322,2.115c0,1.17-0.593,2.115-1.322,2.115       c-0.733,0-1.324-0.945-1.324-2.115C6.122,37.086,6.712,36.14,7.446,36.14z"
             id="path374" />
          <path
             fill="#FFBDBD"
             stroke="none"
             d="M7.446,36.147c0.727,0,1.317,0.943,1.317,2.107c0,1.165-0.59,2.108-1.317,2.108       c-0.73,0-1.319-0.942-1.319-2.108C6.126,37.091,6.716,36.147,7.446,36.147z"
             id="path375" />
          <path
             fill="#FFBEBE"
             stroke="none"
             d="M7.446,36.155c0.724,0,1.312,0.939,1.312,2.1c0,1.161-0.589,2.1-1.312,2.1       c-0.728,0-1.314-0.938-1.314-2.1C6.132,37.095,6.718,36.155,7.446,36.155z"
             id="path376" />
          <path
             fill="#FFBFBF"
             stroke="none"
             d="M7.445,36.163c0.722,0,1.307,0.937,1.307,2.092c0,1.156-0.585,2.092-1.307,2.092       c-0.725,0-1.309-0.936-1.309-2.092C6.136,37.1,6.721,36.163,7.445,36.163z"
             id="path377" />
          <path
             fill="#FFC0C0"
             stroke="none"
             d="M7.446,36.171c0.718,0,1.302,0.933,1.302,2.084c0,1.152-0.583,2.084-1.302,2.084       c-0.722,0-1.304-0.932-1.304-2.084C6.142,37.104,6.724,36.171,7.446,36.171z"
             id="path378" />
          <path
             fill="#FFC1C1"
             stroke="none"
             d="M7.446,36.179c0.715,0,1.297,0.93,1.297,2.076c0,1.147-0.582,2.076-1.297,2.076       c-0.72,0-1.3-0.929-1.3-2.076C6.146,37.108,6.726,36.179,7.446,36.179z"
             id="path379" />
          <path
             fill="#FFC2C2"
             stroke="none"
             d="M7.446,36.187c0.713,0,1.292,0.926,1.292,2.068c0,1.144-0.579,2.068-1.292,2.068       c-0.717,0-1.294-0.924-1.294-2.068C6.151,37.113,6.729,36.187,7.446,36.187z"
             id="path380" />
          <path
             fill="#FFC3C3"
             stroke="none"
             d="M7.445,36.194c0.71,0,1.288,0.923,1.288,2.061c0,1.139-0.577,2.061-1.288,2.061       c-0.714,0-1.29-0.922-1.29-2.061C6.156,37.117,6.731,36.194,7.445,36.194z"
             id="path381" />
          <path
             fill="#FFC4C4"
             stroke="none"
             d="M7.446,36.202c0.708,0,1.283,0.919,1.283,2.053c0,1.135-0.575,2.053-1.283,2.053       c-0.712,0-1.285-0.918-1.285-2.053C6.161,37.121,6.734,36.202,7.446,36.202z"
             id="path382" />
          <path
             fill="#FFC5C5"
             stroke="none"
             d="M7.446,36.21c0.705,0,1.278,0.915,1.278,2.045c0,1.131-0.573,2.045-1.278,2.045       c-0.708,0-1.28-0.914-1.28-2.045C6.166,37.125,6.737,36.21,7.446,36.21z"
             id="path383" />
          <path
             fill="#FFC7C7"
             stroke="none"
             d="M7.446,36.218c0.702,0,1.273,0.912,1.273,2.037c0,1.126-0.571,2.037-1.273,2.037       c-0.707,0-1.275-0.911-1.275-2.037C6.171,37.13,6.74,36.218,7.446,36.218z"
             id="path384" />
          <path
             fill="#FFC8C8"
             stroke="none"
             d="M7.446,36.226c0.699,0,1.268,0.908,1.268,2.029c0,1.122-0.569,2.029-1.268,2.029       c-0.704,0-1.271-0.908-1.271-2.029S6.742,36.226,7.446,36.226z"
             id="path385" />
          <path
             fill="#FFC9C9"
             stroke="none"
             d="M7.446,36.233c0.697,0,1.263,0.905,1.263,2.021c0,1.117-0.566,2.022-1.263,2.022       c-0.701,0-1.265-0.905-1.265-2.022C6.181,37.139,6.745,36.233,7.446,36.233z"
             id="path386" />
          <path
             fill="#FFCACA"
             stroke="none"
             d="M7.446,36.241c0.694,0,1.258,0.901,1.258,2.014c0,1.113-0.564,2.014-1.258,2.014       c-0.698,0-1.26-0.9-1.26-2.014C6.186,37.143,6.748,36.241,7.446,36.241z"
             id="path387" />
          <path
             fill="#FFCBCB"
             stroke="none"
             d="M7.446,36.249c0.691,0,1.253,0.898,1.253,2.006c0,1.109-0.562,2.006-1.253,2.006       c-0.695,0-1.255-0.896-1.255-2.006C6.19,37.147,6.75,36.249,7.446,36.249z"
             id="path388" />
          <path
             fill="#FFCCCC"
             stroke="none"
             d="M7.446,36.257c0.688,0,1.249,0.895,1.249,1.998c0,1.104-0.56,1.998-1.249,1.998       c-0.693,0-1.251-0.894-1.251-1.998C6.195,37.151,6.753,36.257,7.446,36.257z"
             id="path389" />
          <path
             fill="#FFCDCD"
             stroke="none"
             d="M7.446,36.265c0.686,0,1.243,0.892,1.243,1.99c0,1.101-0.558,1.99-1.243,1.99       c-0.69,0-1.246-0.89-1.246-1.99C6.2,37.155,6.756,36.265,7.446,36.265z"
             id="path390" />
          <path
             fill="#FFCECE"
             stroke="none"
             d="M7.446,36.272c0.683,0,1.239,0.888,1.239,1.982c0,1.096-0.556,1.982-1.239,1.982       c-0.687,0-1.241-0.887-1.241-1.982C6.206,37.16,6.759,36.272,7.446,36.272z"
             id="path391" />
          <path
             fill="#FFCFCF"
             stroke="none"
             d="M7.446,36.281c0.68,0,1.233,0.884,1.233,1.974c0,1.092-0.553,1.975-1.233,1.975       c-0.685,0-1.236-0.883-1.236-1.975C6.21,37.165,6.761,36.281,7.446,36.281z"
             id="path392" />
          <path
             fill="#FFD0D0"
             stroke="none"
             d="M7.446,36.288c0.678,0,1.229,0.881,1.229,1.967c0,1.087-0.551,1.967-1.229,1.967       c-0.682,0-1.231-0.88-1.231-1.967C6.215,37.169,6.764,36.288,7.446,36.288z"
             id="path393" />
          <path
             fill="#FFD1D1"
             stroke="none"
             d="M7.446,36.297c0.675,0,1.224,0.876,1.224,1.958c0,1.083-0.549,1.959-1.224,1.959       c-0.679,0-1.226-0.876-1.226-1.959C6.22,37.173,6.767,36.297,7.446,36.297z"
             id="path394" />
          <path
             fill="#FFD3D3"
             stroke="none"
             d="M7.446,36.304c0.672,0,1.219,0.873,1.219,1.951s-0.546,1.951-1.219,1.951       c-0.677,0-1.221-0.873-1.221-1.951S6.769,36.304,7.446,36.304z"
             id="path395" />
          <path
             fill="#FFD4D4"
             stroke="none"
             d="M7.446,36.313c0.669,0,1.214,0.869,1.214,1.942c0,1.074-0.544,1.943-1.214,1.943       c-0.674,0-1.216-0.869-1.216-1.943C6.229,37.182,6.772,36.313,7.446,36.313z"
             id="path396" />
          <path
             fill="#FFD5D5"
             stroke="none"
             d="M7.446,36.319c0.667,0,1.209,0.866,1.209,1.936S8.113,40.19,7.446,40.19       c-0.671,0-1.211-0.866-1.211-1.936S6.775,36.319,7.446,36.319z"
             id="path397" />
          <path
             fill="#FFD6D6"
             stroke="none"
             d="M7.446,36.327c0.664,0,1.204,0.863,1.204,1.928c0,1.065-0.54,1.928-1.204,1.928       c-0.668,0-1.207-0.862-1.207-1.928C6.24,37.19,6.777,36.327,7.446,36.327z"
             id="path398" />
          <path
             fill="#FFD7D7"
             stroke="none"
             d="M7.446,36.335c0.662,0,1.199,0.859,1.199,1.92s-0.538,1.92-1.199,1.92       c-0.666,0-1.202-0.858-1.202-1.92C6.244,37.194,6.78,36.335,7.446,36.335z"
             id="path399" />
          <path
             fill="#FFD8D8"
             stroke="none"
             d="M7.446,36.343c0.658,0,1.194,0.856,1.194,1.912s-0.536,1.912-1.194,1.912       c-0.663,0-1.197-0.856-1.197-1.912S6.783,36.343,7.446,36.343z"
             id="path400" />
          <path
             fill="#FFD9D9"
             stroke="none"
             d="M7.446,36.351c0.656,0,1.189,0.853,1.189,1.904c0,1.053-0.533,1.904-1.189,1.904       c-0.66,0-1.192-0.852-1.192-1.904C6.254,37.203,6.786,36.351,7.446,36.351z"
             id="path401" />
          <path
             fill="#FFDADA"
             stroke="none"
             d="M7.446,36.358c0.653,0,1.184,0.849,1.184,1.896s-0.531,1.896-1.184,1.896       c-0.658,0-1.187-0.849-1.187-1.896S6.789,36.358,7.446,36.358z"
             id="path402" />
          <path
             fill="#FFDBDB"
             stroke="none"
             d="M7.446,36.367c0.651,0,1.18,0.845,1.18,1.888c0,1.044-0.529,1.889-1.18,1.889       c-0.655,0-1.182-0.844-1.182-1.889C6.264,37.212,6.791,36.367,7.446,36.367z"
             id="path403" />
          <path
             fill="#FFDCDC"
             stroke="none"
             d="M7.446,36.374c0.648,0,1.174,0.842,1.174,1.881s-0.526,1.881-1.174,1.881       c-0.652,0-1.177-0.842-1.177-1.881S6.793,36.374,7.446,36.374z"
             id="path404" />
          <path
             fill="#FFDDDD"
             stroke="none"
             d="M7.446,36.383c0.645,0,1.17,0.838,1.17,1.872c0,1.035-0.525,1.873-1.17,1.873       c-0.65,0-1.172-0.838-1.172-1.873C6.274,37.221,6.796,36.383,7.446,36.383z"
             id="path405" />
          <path
             fill="#FFDEDE"
             stroke="none"
             d="M7.446,36.39c0.643,0,1.165,0.835,1.165,1.865S8.088,40.12,7.446,40.12       c-0.647,0-1.167-0.835-1.167-1.865S6.799,36.39,7.446,36.39z"
             id="path406" />
          <path
             fill="#FFE0E0"
             stroke="none"
             d="M7.446,36.398c0.64,0,1.16,0.831,1.16,1.856c0,1.027-0.521,1.857-1.16,1.857       c-0.644,0-1.163-0.83-1.163-1.857C6.283,37.229,6.802,36.398,7.446,36.398z"
             id="path407" />
          <path
             fill="#FFE1E1"
             stroke="none"
             d="M7.446,36.405c0.637,0,1.155,0.828,1.155,1.85s-0.518,1.85-1.155,1.85       c-0.642,0-1.158-0.828-1.158-1.85C6.289,37.233,6.805,36.405,7.446,36.405z"
             id="path408" />
          <path
             fill="#FFE2E2"
             stroke="none"
             d="M7.446,36.414c0.634,0,1.15,0.824,1.15,1.841c0,1.018-0.516,1.842-1.15,1.842       c-0.639,0-1.152-0.824-1.152-1.842C6.293,37.238,6.808,36.414,7.446,36.414z"
             id="path409" />
          <path
             fill="#FFE3E3"
             stroke="none"
             d="M7.446,36.421c0.632,0,1.145,0.821,1.145,1.834c0,1.014-0.513,1.833-1.145,1.833       c-0.636,0-1.148-0.819-1.148-1.833C6.298,37.242,6.81,36.421,7.446,36.421z"
             id="path410" />
          <path
             fill="#FFE4E4"
             stroke="none"
             d="M7.446,36.43c0.629,0,1.141,0.817,1.141,1.825c0,1.009-0.511,1.825-1.141,1.825       c-0.633,0-1.143-0.816-1.143-1.825C6.303,37.247,6.813,36.43,7.446,36.43z"
             id="path411" />
          <path
             fill="#FFE5E5"
             stroke="none"
             d="M7.446,36.437c0.626,0,1.135,0.814,1.135,1.818c0,1.005-0.508,1.817-1.135,1.817       c-0.63,0-1.138-0.813-1.138-1.817C6.309,37.251,6.815,36.437,7.446,36.437z"
             id="path412" />
          <path
             fill="#FFE6E6"
             stroke="none"
             d="M7.446,36.444c0.624,0,1.131,0.811,1.131,1.811c0,1.001-0.508,1.81-1.131,1.81       c-0.628,0-1.133-0.809-1.133-1.81C6.313,37.255,6.818,36.444,7.446,36.444z"
             id="path413" />
          <path
             fill="#FFE7E7"
             stroke="none"
             d="M7.446,36.452c0.621,0,1.125,0.808,1.125,1.803c0,0.996-0.505,1.802-1.125,1.802       c-0.625,0-1.128-0.806-1.128-1.802C6.318,37.26,6.82,36.452,7.446,36.452z"
             id="path414" />
          <path
             fill="#FFE8E8"
             stroke="none"
             d="M7.446,36.46c0.618,0,1.121,0.804,1.121,1.795c0,0.992-0.503,1.794-1.121,1.794       c-0.623,0-1.123-0.802-1.123-1.794C6.323,37.264,6.823,36.46,7.446,36.46z"
             id="path415" />
          <path
             fill="#FFE9E9"
             stroke="none"
             d="M7.446,36.468c0.616,0,1.116,0.801,1.116,1.787c0,0.987-0.5,1.786-1.116,1.786       c-0.62,0-1.118-0.799-1.118-1.786C6.328,37.269,6.826,36.468,7.446,36.468z"
             id="path416" />
          <path
             fill="#FFEAEA"
             stroke="none"
             d="M7.446,36.477c0.613,0,1.111,0.796,1.111,1.778c0,0.983-0.499,1.778-1.111,1.778       c-0.617,0-1.113-0.795-1.113-1.778C6.333,37.272,6.829,36.477,7.446,36.477z"
             id="path417" />
          <path
             fill="#FFEBEB"
             stroke="none"
             d="M7.446,36.484c0.61,0,1.106,0.792,1.106,1.771s-0.496,1.771-1.106,1.771       c-0.615,0-1.109-0.792-1.109-1.771C6.338,37.276,6.831,36.484,7.446,36.484z"
             id="path418" />
          <path
             fill="#FFEDED"
             stroke="none"
             d="M7.446,36.492c0.607,0,1.102,0.79,1.102,1.763c0,0.975-0.494,1.763-1.102,1.763       c-0.612,0-1.103-0.788-1.103-1.763C6.343,37.282,6.834,36.492,7.446,36.492z"
             id="path419" />
          <path
             fill="#FFEEEE"
             stroke="none"
             d="M7.446,36.5c0.604,0,1.096,0.785,1.096,1.755c0,0.971-0.492,1.755-1.096,1.755       c-0.609,0-1.099-0.784-1.099-1.755C6.347,37.285,6.837,36.5,7.446,36.5z"
             id="path420" />
          <path
             fill="#FFEFEF"
             stroke="none"
             d="M7.446,36.508c0.602,0,1.091,0.782,1.091,1.747c0,0.966-0.49,1.747-1.091,1.747       c-0.606,0-1.093-0.781-1.093-1.747C6.353,37.29,6.84,36.508,7.446,36.508z"
             id="path421" />
          <path
             fill="#FFF0F0"
             stroke="none"
             d="M7.446,36.517c0.599,0,1.086,0.777,1.086,1.738c0,0.962-0.487,1.739-1.086,1.739       c-0.604,0-1.089-0.776-1.089-1.739C6.357,37.294,6.842,36.517,7.446,36.517z"
             id="path422" />
          <path
             fill="#FFF1F1"
             stroke="none"
             d="M7.446,36.523c0.597,0,1.082,0.774,1.082,1.731s-0.485,1.731-1.082,1.731       c-0.601,0-1.083-0.774-1.083-1.731S6.845,36.523,7.446,36.523z"
             id="path423" />
          <path
             fill="#FFF2F2"
             stroke="none"
             d="M7.446,36.532c0.594,0,1.077,0.771,1.077,1.723c0,0.953-0.483,1.725-1.077,1.725       c-0.599,0-1.079-0.771-1.079-1.725C6.367,37.303,6.847,36.532,7.446,36.532z"
             id="path424" />
          <path
             fill="#FFF3F3"
             stroke="none"
             d="M7.446,36.539c0.591,0,1.072,0.768,1.072,1.716s-0.48,1.716-1.072,1.716       c-0.596,0-1.074-0.768-1.074-1.716S6.85,36.539,7.446,36.539z"
             id="path425" />
          <path
             fill="#FFF4F4"
             stroke="none"
             d="M7.446,36.548c0.588,0,1.067,0.764,1.067,1.707c0,0.945-0.479,1.709-1.067,1.709       c-0.593,0-1.069-0.764-1.069-1.709C6.376,37.312,6.853,36.548,7.446,36.548z"
             id="path426" />
          <path
             fill="#FFF5F5"
             stroke="none"
             d="M7.446,36.555c0.586,0,1.062,0.761,1.062,1.7s-0.476,1.7-1.062,1.7       c-0.59,0-1.064-0.761-1.064-1.7C6.382,37.316,6.856,36.555,7.446,36.555z"
             id="path427" />
          <path
             fill="#FFF6F6"
             stroke="none"
             d="M7.446,36.563c0.583,0,1.057,0.757,1.057,1.691s-0.474,1.692-1.057,1.692       c-0.587,0-1.06-0.758-1.06-1.692S6.858,36.563,7.446,36.563z"
             id="path428" />
          <path
             fill="#FFF7F7"
             stroke="none"
             d="M7.446,36.57c0.581,0,1.052,0.754,1.052,1.685c0,0.932-0.472,1.685-1.052,1.685       c-0.585,0-1.054-0.753-1.054-1.685C6.392,37.324,6.861,36.57,7.446,36.57z"
             id="path429" />
          <path
             fill="#FFF8F8"
             stroke="none"
             d="M7.446,36.578c0.578,0,1.047,0.75,1.047,1.677s-0.47,1.677-1.047,1.677       c-0.582,0-1.05-0.75-1.05-1.677S6.864,36.578,7.446,36.578z"
             id="path430" />
          <path
             fill="#FFFAFA"
             stroke="none"
             d="M7.446,36.586c0.575,0,1.042,0.747,1.042,1.669c0,0.923-0.468,1.668-1.042,1.668       c-0.58,0-1.044-0.745-1.044-1.668C6.401,37.333,6.866,36.586,7.446,36.586z"
             id="path431" />
          <path
             fill="#FFFBFB"
             stroke="none"
             d="M7.446,36.594c0.572,0,1.038,0.743,1.038,1.661s-0.465,1.66-1.038,1.66       c-0.577,0-1.04-0.742-1.04-1.66S6.869,36.594,7.446,36.594z"
             id="path432" />
          <path
             fill="#FFFCFC"
             stroke="none"
             d="M7.446,36.602c0.569,0,1.033,0.74,1.033,1.653c0,0.914-0.463,1.652-1.033,1.652       c-0.574,0-1.035-0.738-1.035-1.652C6.411,37.342,6.872,36.602,7.446,36.602z"
             id="path433" />
          <path
             fill="#FFFDFD"
             stroke="none"
             d="M7.446,36.609c0.567,0,1.028,0.736,1.028,1.646s-0.461,1.645-1.028,1.645       c-0.572,0-1.03-0.735-1.03-1.645S6.875,36.609,7.446,36.609z"
             id="path434" />
          <path
             fill="#FFFEFE"
             stroke="none"
             d="M7.446,36.617c0.564,0,1.023,0.733,1.023,1.638c0,0.905-0.458,1.637-1.023,1.637       c-0.569,0-1.025-0.731-1.025-1.637C6.421,37.351,6.877,36.617,7.446,36.617z"
             id="path435" />
          <path
             fill="#FFFFFF"
             stroke="none"
             d="M6.426,38.255c0-0.9,0.454-1.63,1.02-1.63c0.562,0,1.018,0.729,1.018,1.63       s-0.457,1.629-1.018,1.629C6.88,39.884,6.426,39.155,6.426,38.255z"
             id="path436" />
        </g>
        <g
           id="g437">
          <g
             id="g438">
            <path
               stroke="none"
               d="M23.809,8.625L8.845,2.192L1.994,8.807l0.015,0.007L9.49,34.769l0.088-0.189l6.559-6.494l7.672-19.458        V8.625z"
               id="path439" />
          </g>
        </g>
        <g
           id="g440">
          <path
             fill="#DD0100"
             stroke="none"
             d="M9.49,34.769L2.007,8.807l7.482,3.606l7.481,3.605L9.49,34.769z"
             id="path441" />
        </g>
        <g
           id="g442">
          <linearGradient
             id="XMLID_1_"
             gradientUnits="userSpaceOnUse"
             x1="-251.4458"
             y1="391.8701"
             x2="-250.4635"
             y2="405.8739"
             gradientTransform="matrix(1 0 0 -1 263.9092 406.8281)">
            <stop
               offset="0"
               style="stop-color:#FF8B8B"
               id="stop444" />
            <stop
               offset="0.1598"
               style="stop-color:#FB7B7B"
               id="stop445" />
            <stop
               offset="0.4707"
               style="stop-color:#F15352"
               id="stop446" />
            <stop
               offset="0.8981"
               style="stop-color:#E11211"
               id="stop447" />
            <stop
               offset="1"
               style="stop-color:#DD0100"
               id="stop448" />
          </linearGradient>
          <path
             fill="url(#XMLID_1_)"
             stroke="none"
             d="M16.959,16.018L1.994,8.807l6.851-6.615l14.963,6.434L16.959,16.018z"
             id="path458" />
        </g>
        <g
           id="g459">
          <linearGradient
             id="XMLID_2_"
             gradientUnits="userSpaceOnUse"
             x1="-248.1426"
             y1="385.8213"
             x2="-246.1975"
             y2="384.5709"
             gradientTransform="matrix(1 0 0 -1 263.9092 406.8281)">
            <stop
               offset="0"
               style="stop-color:#660000"
               id="stop461" />
            <stop
               offset="0.5326"
               style="stop-color:#760000"
               id="stop462" />
            <stop
               offset="1"
               style="stop-color:#870000"
               id="stop463" />
          </linearGradient>
          <path
             fill="url(#XMLID_2_)"
             stroke="none"
             d="M16.137,28.085l-6.559,6.494l7.392-18.57l6.839-7.383L16.137,28.085z"
             id="path469" />
        </g>
      </g>
    </g>
  </g>
</svg>
