<?xml version="1.0" encoding="UTF-8" standalone="no"?>
<!DOCTYPE svg PUBLIC "-//W3C//DTD SVG 20010904//EN"
"http://www.w3.org/TR/2001/REC-SVG-20010904/DTD/svg10.dtd">
<!-- Created with Sodipodi ("http://www.sodipodi.com/") -->
<svg
   width="32pt"
   height="32pt"
   viewBox="0 0 42.964 42.964"
   overflow="visible"
   enable-background="new 0 0 42.964 42.964"
   xml:space="preserve"
   id="svg153"
   sodipodi:version="0.32pre"
   sodipodi:docname="/home/cschalle/gnome-themes-extras/Wasp/icons/scalable/emblems/emblem-web.svg"
   sodipodi:docbase="/home/cschalle/gnome-themes-extras/Wasp/icons/scalable/emblems/"
   xmlns="http://www.w3.org/2000/svg"
   xmlns:sodipodi="http://sodipodi.sourceforge.net/DTD/sodipodi-0.dtd"
   xmlns:xml="http://www.w3.org/XML/1998/namespace"
   xmlns:xlink="http://www.w3.org/1999/xlink">
  <defs
     id="defs324" />
  <sodipodi:namedview
     id="base" />
  <metadata
     id="metadata154">
    <sfw>
      <slices />
      <sliceSourceBounds
         y="398.018"
         x="275.018"
         width="42.964"
         height="42.964"
         bottomLeftOrigin="true" />
    </sfw>
  </metadata>
  <g
     id="Layer_1"
     stroke="#000000">
    <g
       id="Layer_1_2_">
      <g
         id="g157">
        <g
           id="g158">
          <path
             stroke="none"
             d="M0,21.482C0,9.618,9.618,0,21.482,0c11.864,0,21.482,9.618,21.482,21.482       c0,11.864-9.618,21.482-21.482,21.482C9.618,42.964,0,33.346,0,21.482z"
             id="path159" />
        </g>
        <g
           id="g160">
          <g
             id="g161">
            <path
               fill="#44E3E3"
               stroke="none"
               d="M1.688,21.482c0-10.932,8.862-19.794,19.794-19.794        c10.933,0,19.794,8.862,19.794,19.794s-8.861,19.794-19.794,19.794C10.55,41.277,1.688,32.415,1.688,21.482z"
               id="path162" />
          </g>
          <g
             id="g163">
            <path
               fill="#45E3E3"
               stroke="none"
               d="M21.354,1.843c10.783,0,19.524,8.742,19.524,19.524        c0,10.783-8.741,19.524-19.524,19.524S1.829,32.15,1.829,21.368C1.829,10.585,10.571,1.843,21.354,1.843z"
               id="path164" />
          </g>
          <g
             id="g165">
            <path
               fill="#47E4E4"
               stroke="none"
               d="M21.225,2c10.633,0,19.253,8.62,19.253,19.254s-8.62,19.254-19.253,19.254        S1.971,31.887,1.971,21.253S10.591,2,21.225,2z"
               id="path166" />
          </g>
          <g
             id="g167">
            <path
               fill="#48E4E4"
               stroke="none"
               d="M21.096,2.156c10.483,0,18.982,8.5,18.982,18.983c0,10.484-8.499,18.983-18.982,18.983        c-10.485,0-18.984-8.499-18.984-18.983S10.611,2.156,21.096,2.156z"
               id="path168" />
          </g>
          <g
             id="g169">
            <path
               fill="#49E5E5"
               stroke="none"
               d="M20.967,2.311c10.335,0,18.713,8.378,18.713,18.714        c0,10.335-8.378,18.714-18.713,18.714S2.253,31.36,2.253,21.025C2.253,10.689,10.632,2.311,20.967,2.311z"
               id="path170" />
          </g>
          <g
             id="g171">
            <path
               fill="#4BE5E5"
               stroke="none"
               d="M20.839,2.467c10.185,0,18.443,8.257,18.443,18.443        c0,10.186-8.258,18.443-18.443,18.443c-10.186,0-18.443-8.257-18.443-18.443C2.396,10.725,10.653,2.467,20.839,2.467z"
               id="path172" />
          </g>
          <g
             id="g173">
            <path
               fill="#4CE5E5"
               stroke="none"
               d="M20.709,2.623c10.037,0,18.173,8.136,18.173,18.173s-8.136,18.173-18.173,18.173        c-10.036,0-18.173-8.137-18.173-18.173S10.673,2.623,20.709,2.623z"
               id="path174" />
          </g>
          <g
             id="g175">
            <path
               fill="#4EE6E6"
               stroke="none"
               d="M20.581,2.779c9.887,0,17.903,8.016,17.903,17.903s-8.016,17.903-17.903,17.903        S2.678,30.569,2.678,20.682S10.694,2.779,20.581,2.779z"
               id="path176" />
          </g>
          <g
             id="g177">
            <path
               fill="#4FE6E6"
               stroke="none"
               d="M20.453,2.935c9.738,0,17.632,7.895,17.632,17.633c0,9.738-7.894,17.632-17.632,17.632        S2.82,30.305,2.82,20.567C2.82,10.829,10.715,2.935,20.453,2.935z"
               id="path178" />
          </g>
          <g
             id="g179">
            <path
               fill="#50E7E7"
               stroke="none"
               d="M20.324,3.091c9.589,0,17.362,7.773,17.362,17.362c0,9.588-7.773,17.362-17.362,17.362        S2.961,30.042,2.961,20.453S10.735,3.091,20.324,3.091z"
               id="path180" />
          </g>
          <g
             id="g181">
            <path
               fill="#52E7E7"
               stroke="none"
               d="M20.195,3.247c9.439,0,17.092,7.652,17.092,17.092S29.634,37.43,20.195,37.43        c-9.439,0-17.092-7.652-17.092-17.091C3.103,10.899,10.756,3.247,20.195,3.247z"
               id="path182" />
          </g>
          <g
             id="g183">
            <path
               fill="#53E8E8"
               stroke="none"
               d="M20.066,3.402c9.291,0,16.822,7.532,16.822,16.822c0,9.291-7.531,16.821-16.822,16.821        c-9.29,0-16.822-7.531-16.822-16.821C3.245,10.934,10.776,3.402,20.066,3.402z"
               id="path184" />
          </g>
          <g
             id="g185">
            <path
               fill="#54E8E8"
               stroke="none"
               d="M19.938,3.558c9.141,0,16.551,7.411,16.551,16.552c0,9.141-7.41,16.551-16.551,16.551        S3.386,29.25,3.386,20.109S10.797,3.558,19.938,3.558z"
               id="path186" />
          </g>
          <g
             id="g187">
            <path
               fill="#56E8E8"
               stroke="none"
               d="M19.809,3.714c8.992,0,16.282,7.29,16.282,16.281S28.8,36.276,19.809,36.276        S3.527,28.987,3.527,19.995S10.817,3.714,19.809,3.714z"
               id="path188" />
          </g>
          <g
             id="g189">
            <path
               fill="#57E9E9"
               stroke="none"
               d="M19.68,3.87c8.843,0,16.011,7.169,16.011,16.012c0,8.842-7.168,16.011-16.011,16.011        c-8.842,0-16.011-7.169-16.011-16.011C3.669,11.039,10.838,3.87,19.68,3.87z"
               id="path190" />
          </g>
          <g
             id="g191">
            <path
               fill="#58E9E9"
               stroke="none"
               d="M19.551,4.025c8.693,0,15.74,7.048,15.74,15.741c0,8.693-7.047,15.741-15.74,15.741        c-8.693,0-15.741-7.048-15.741-15.741S10.858,4.025,19.551,4.025z"
               id="path192" />
          </g>
          <g
             id="g193">
            <path
               fill="#5AEAEA"
               stroke="none"
               d="M19.423,4.182c8.544,0,15.47,6.926,15.47,15.47c0,8.543-6.926,15.47-15.47,15.47        S3.952,28.196,3.952,19.652C3.952,11.108,10.879,4.182,19.423,4.182z"
               id="path194" />
          </g>
          <g
             id="g195">
            <path
               fill="#5BEAEA"
               stroke="none"
               d="M19.294,4.337c8.395,0,15.2,6.806,15.2,15.201c0,8.394-6.806,15.2-15.2,15.2        c-8.395,0-15.201-6.806-15.201-15.2S10.899,4.337,19.294,4.337z"
               id="path196" />
          </g>
          <g
             id="g197">
            <path
               fill="#5CEAEA"
               stroke="none"
               d="M19.165,4.493c8.246,0,14.93,6.684,14.93,14.93c0,8.245-6.685,14.93-14.93,14.93        c-8.245,0-14.93-6.685-14.93-14.93C4.235,11.178,10.92,4.493,19.165,4.493z"
               id="path198" />
          </g>
          <g
             id="g199">
            <path
               fill="#5EEBEB"
               stroke="none"
               d="M19.037,4.649c8.097,0,14.659,6.564,14.659,14.66c0,8.096-6.563,14.661-14.659,14.661        c-8.096,0-14.66-6.564-14.66-14.66S10.941,4.649,19.037,4.649z"
               id="path200" />
          </g>
          <g
             id="g201">
            <path
               fill="#5FEBEB"
               stroke="none"
               d="M18.908,4.805c7.947,0,14.39,6.442,14.39,14.39s-6.441,14.39-14.39,14.39        c-7.947,0-14.389-6.442-14.389-14.39C4.519,11.248,10.961,4.805,18.908,4.805z"
               id="path202" />
          </g>
          <g
             id="g203">
            <path
               fill="#61ECEC"
               stroke="none"
               d="M18.779,4.96c7.797,0,14.119,6.322,14.119,14.12c0,7.797-6.321,14.12-14.119,14.12        c-7.798,0-14.12-6.322-14.12-14.12S10.981,4.96,18.779,4.96z"
               id="path204" />
          </g>
          <g
             id="g205">
            <path
               fill="#62ECEC"
               stroke="none"
               d="M18.65,5.117c7.648,0,13.849,6.2,13.849,13.849c0,7.648-6.201,13.849-13.849,13.849        c-7.648,0-13.849-6.201-13.849-13.849C4.801,11.317,11.002,5.117,18.65,5.117z"
               id="path206" />
          </g>
          <g
             id="g207">
            <path
               fill="#63ECEC"
               stroke="none"
               d="M18.522,5.273c7.5,0,13.579,6.079,13.579,13.579S26.022,32.43,18.522,32.43        c-7.499,0-13.579-6.079-13.579-13.579S11.023,5.273,18.522,5.273z"
               id="path208" />
          </g>
          <g
             id="g209">
            <path
               fill="#65EDED"
               stroke="none"
               d="M18.393,5.429c7.35,0,13.308,5.958,13.308,13.308s-5.958,13.309-13.308,13.309        S5.084,26.086,5.084,18.737S11.043,5.429,18.393,5.429z"
               id="path210" />
          </g>
          <g
             id="g211">
            <path
               fill="#66EDED"
               stroke="none"
               d="M18.264,5.584c7.201,0,13.038,5.837,13.038,13.038c0,7.201-5.837,13.038-13.038,13.038        c-7.2,0-13.038-5.837-13.038-13.038C5.226,11.422,11.064,5.584,18.264,5.584z"
               id="path212" />
          </g>
          <g
             id="g213">
            <path
               fill="#67EEEE"
               stroke="none"
               d="M18.135,5.74c7.052,0,12.768,5.717,12.768,12.768c0,7.052-5.716,12.768-12.768,12.768        c-7.051,0-12.768-5.716-12.768-12.768S11.084,5.74,18.135,5.74z"
               id="path214" />
          </g>
          <g
             id="g215">
            <path
               fill="#69EEEE"
               stroke="none"
               d="M18.007,5.896c6.901,0,12.497,5.596,12.497,12.498c0,6.903-5.595,12.498-12.497,12.498        S5.509,25.296,5.509,18.394C5.509,11.492,11.105,5.896,18.007,5.896z"
               id="path216" />
          </g>
          <g
             id="g217">
            <path
               fill="#6AEEEE"
               stroke="none"
               d="M17.878,6.052c6.753,0,12.228,5.475,12.228,12.228c0,6.752-5.475,12.227-12.228,12.227        S5.651,25.032,5.651,18.28C5.651,11.527,11.125,6.052,17.878,6.052z"
               id="path218" />
          </g>
          <g
             id="g219">
            <path
               fill="#6BEFEF"
               stroke="none"
               d="M17.75,6.208c6.603,0,11.958,5.354,11.958,11.957c0,6.604-5.354,11.958-11.958,11.958        c-6.604,0-11.958-5.354-11.958-11.958C5.792,11.562,11.146,6.208,17.75,6.208z"
               id="path220" />
          </g>
          <g
             id="g221">
            <path
               fill="#6DEFEF"
               stroke="none"
               d="M17.621,6.364c6.454,0,11.687,5.232,11.687,11.687s-5.232,11.687-11.687,11.687        S5.934,24.505,5.934,18.051S11.167,6.364,17.621,6.364z"
               id="path222" />
          </g>
          <g
             id="g223">
            <path
               fill="#6EF0F0"
               stroke="none"
               d="M17.492,6.52c6.305,0,11.417,5.112,11.417,11.417c0,6.306-5.111,11.417-11.417,11.417        S6.076,24.242,6.076,17.936C6.076,11.631,11.187,6.52,17.492,6.52z"
               id="path224" />
          </g>
          <g
             id="g225">
            <path
               fill="#70F0F0"
               stroke="none"
               d="M17.364,6.675c6.155,0,11.146,4.991,11.146,11.146s-4.99,11.146-11.146,11.146        c-6.156,0-11.146-4.991-11.146-11.146S11.208,6.675,17.364,6.675z"
               id="path226" />
          </g>
          <g
             id="g227">
            <path
               fill="#71F1F1"
               stroke="none"
               d="M17.235,6.832c6.007,0,10.875,4.87,10.875,10.876c0,6.007-4.869,10.876-10.875,10.876        c-6.007,0-10.876-4.869-10.876-10.876S11.228,6.832,17.235,6.832z"
               id="path228" />
          </g>
          <g
             id="g229">
            <path
               fill="#72F1F1"
               stroke="none"
               d="M17.106,6.987c5.857,0,10.605,4.749,10.605,10.606S22.963,28.2,17.106,28.2        C11.249,28.2,6.5,23.451,6.5,17.593C6.5,11.736,11.249,6.987,17.106,6.987z"
               id="path230" />
          </g>
          <g
             id="g231">
            <path
               fill="#74F1F1"
               stroke="none"
               d="M16.977,7.143c5.708,0,10.336,4.627,10.336,10.336c0,5.708-4.628,10.335-10.336,10.335        S6.642,23.187,6.642,17.479C6.642,11.771,11.269,7.143,16.977,7.143z"
               id="path232" />
          </g>
          <g
             id="g233">
            <path
               fill="#75F2F2"
               stroke="none"
               d="M16.849,7.299c5.559,0,10.066,4.507,10.066,10.065S22.408,27.43,16.849,27.43        c-5.558,0-10.065-4.507-10.065-10.065C6.783,11.806,11.29,7.299,16.849,7.299z"
               id="path234" />
          </g>
          <g
             id="g235">
            <path
               fill="#76F2F2"
               stroke="none"
               d="M16.72,7.455c5.41,0,9.795,4.386,9.795,9.795s-4.386,9.795-9.795,9.795        c-5.409,0-9.794-4.386-9.794-9.795C6.925,11.84,11.31,7.455,16.72,7.455z"
               id="path236" />
          </g>
          <g
             id="g237">
            <path
               fill="#78F3F3"
               stroke="none"
               d="M16.591,7.611c5.26,0,9.524,4.265,9.524,9.524s-4.264,9.525-9.524,9.525        s-9.525-4.265-9.525-9.525C7.066,11.875,11.331,7.611,16.591,7.611z"
               id="path238" />
          </g>
          <g
             id="g239">
            <path
               fill="#79F3F3"
               stroke="none"
               d="M16.463,7.767c5.111,0,9.254,4.144,9.254,9.255c0,5.112-4.144,9.254-9.254,9.254        s-9.255-4.143-9.255-9.254C7.208,11.91,11.352,7.767,16.463,7.767z"
               id="path240" />
          </g>
          <g
             id="g241">
            <path
               fill="#7AF3F3"
               stroke="none"
               d="M16.334,7.922c4.961,0,8.984,4.022,8.984,8.984s-4.022,8.984-8.984,8.984        S7.35,21.868,7.35,16.907C7.35,11.945,11.373,7.922,16.334,7.922z"
               id="path242" />
          </g>
          <g
             id="g243">
            <path
               fill="#7CF4F4"
               stroke="none"
               d="M16.205,8.078c4.813,0,8.713,3.902,8.713,8.714s-3.901,8.714-8.713,8.714        s-8.714-3.901-8.714-8.714C7.491,11.98,11.393,8.078,16.205,8.078z"
               id="path244" />
          </g>
          <g
             id="g245">
            <path
               fill="#7DF4F4"
               stroke="none"
               d="M16.076,8.234c4.664,0,8.444,3.781,8.444,8.444c0,4.664-3.78,8.444-8.444,8.444        s-8.444-3.78-8.444-8.443S11.413,8.234,16.076,8.234z"
               id="path246" />
          </g>
          <g
             id="g247">
            <path
               fill="#7FF5F5"
               stroke="none"
               d="M15.948,8.39c4.514,0,8.174,3.659,8.174,8.173s-3.659,8.173-8.174,8.173        c-4.514,0-8.173-3.659-8.173-8.173C7.774,12.05,11.434,8.39,15.948,8.39z"
               id="path248" />
          </g>
          <g
             id="g249">
            <path
               fill="#80F5F5"
               stroke="none"
               d="M15.819,8.546c4.365,0,7.903,3.539,7.903,7.903s-3.538,7.903-7.903,7.903        s-7.903-3.538-7.903-7.903C7.916,12.084,11.455,8.546,15.819,8.546z"
               id="path250" />
          </g>
          <g
             id="g251">
            <path
               fill="#81F5F5"
               stroke="none"
               d="M15.69,8.702c4.215,0,7.632,3.417,7.632,7.633c0,4.216-3.417,7.633-7.632,7.633        c-4.216,0-7.633-3.417-7.633-7.634C8.057,12.119,11.475,8.702,15.69,8.702z"
               id="path252" />
          </g>
          <g
             id="g253">
            <path
               fill="#83F6F6"
               stroke="none"
               d="M15.562,8.857c4.066,0,7.363,3.297,7.363,7.363c0,4.066-3.296,7.362-7.363,7.362        s-7.363-3.296-7.363-7.362C8.199,12.154,11.496,8.857,15.562,8.857z"
               id="path254" />
          </g>
          <g
             id="g255">
            <path
               fill="#84F6F6"
               stroke="none"
               d="M15.433,9.014c3.917,0,7.093,3.175,7.093,7.092s-3.176,7.093-7.093,7.093        s-7.092-3.176-7.092-7.093C8.34,12.189,11.516,9.014,15.433,9.014z"
               id="path256" />
          </g>
          <g
             id="g257">
            <path
               fill="#85F7F7"
               stroke="none"
               d="M15.304,9.169c3.768,0,6.822,3.055,6.822,6.822c0,3.768-3.055,6.822-6.822,6.822        s-6.822-3.055-6.822-6.822C8.482,12.224,11.536,9.169,15.304,9.169z"
               id="path258" />
          </g>
          <g
             id="g259">
            <path
               fill="#87F7F7"
               stroke="none"
               d="M15.175,9.325c3.619,0,6.552,2.934,6.552,6.552c0,3.619-2.933,6.552-6.552,6.552        c-3.619,0-6.552-2.933-6.552-6.552C8.624,12.259,11.557,9.325,15.175,9.325z"
               id="path260" />
          </g>
          <g
             id="g261">
            <path
               fill="#88F7F7"
               stroke="none"
               d="M15.047,9.481c3.469,0,6.281,2.813,6.281,6.282s-2.812,6.282-6.281,6.282        s-6.282-2.813-6.282-6.282C8.765,12.293,11.578,9.481,15.047,9.481z"
               id="path262" />
          </g>
          <g
             id="g263">
            <path
               fill="#89F8F8"
               stroke="none"
               d="M14.918,9.637c3.32,0,6.011,2.691,6.011,6.012c0,3.32-2.691,6.011-6.011,6.011        s-6.012-2.691-6.012-6.011C8.907,12.329,11.598,9.637,14.918,9.637z"
               id="path264" />
          </g>
          <g
             id="g265">
            <path
               fill="#8BF8F8"
               stroke="none"
               d="M14.79,9.792c3.171,0,5.741,2.571,5.741,5.741c0,3.171-2.57,5.741-5.741,5.741        s-5.742-2.57-5.742-5.741C9.048,12.364,11.619,9.792,14.79,9.792z"
               id="path266" />
          </g>
          <g
             id="g267">
            <path
               fill="#8CF9F9"
               stroke="none"
               d="M14.661,9.949c3.021,0,5.471,2.45,5.471,5.471c0,3.021-2.449,5.471-5.471,5.471        c-3.021,0-5.471-2.45-5.471-5.471C9.189,12.398,11.639,9.949,14.661,9.949z"
               id="path268" />
          </g>
          <g
             id="g269">
            <path
               fill="#8DF9F9"
               stroke="none"
               d="M14.532,10.105c2.873,0,5.201,2.328,5.201,5.201c0,2.872-2.329,5.201-5.201,5.201        c-2.872,0-5.201-2.329-5.201-5.201C9.331,12.433,11.66,10.105,14.532,10.105z"
               id="path270" />
          </g>
          <g
             id="g271">
            <path
               fill="#8FFAFA"
               stroke="none"
               d="M14.403,10.26c2.724,0,4.931,2.208,4.931,4.931s-2.208,4.93-4.931,4.93        c-2.723,0-4.93-2.208-4.93-4.93C9.473,12.468,11.68,10.26,14.403,10.26z"
               id="path272" />
          </g>
          <g
             id="g273">
            <path
               fill="#90FAFA"
               stroke="none"
               d="M14.275,10.417c2.574,0,4.66,2.086,4.66,4.66c0,2.574-2.086,4.661-4.66,4.661        c-2.574,0-4.661-2.086-4.661-4.661C9.614,12.502,11.701,10.417,14.275,10.417z"
               id="path274" />
          </g>
          <g
             id="g275">
            <path
               fill="#92FAFA"
               stroke="none"
               d="M14.146,10.572c2.425,0,4.39,1.965,4.39,4.39c0,2.424-1.965,4.39-4.39,4.39        s-4.39-1.965-4.39-4.39S11.722,10.572,14.146,10.572z"
               id="path276" />
          </g>
          <g
             id="g277">
            <path
               fill="#93FBFB"
               stroke="none"
               d="M14.017,10.728c2.275,0,4.12,1.844,4.12,4.12c0,2.275-1.844,4.12-4.12,4.12        s-4.12-1.844-4.12-4.119C9.897,12.573,11.742,10.728,14.017,10.728z"
               id="path278" />
          </g>
          <g
             id="g279">
            <path
               fill="#94FBFB"
               stroke="none"
               d="M13.888,10.884c2.126,0,3.85,1.724,3.85,3.85s-1.724,3.85-3.85,3.85        c-2.125,0-3.85-1.724-3.85-3.85C10.039,12.607,11.763,10.884,13.888,10.884z"
               id="path280" />
          </g>
          <g
             id="g281">
            <path
               fill="#96FCFC"
               stroke="none"
               d="M13.759,11.04c1.977,0,3.58,1.602,3.58,3.579s-1.603,3.579-3.58,3.579        c-1.976,0-3.579-1.602-3.579-3.579S11.783,11.04,13.759,11.04z"
               id="path282" />
          </g>
          <g
             id="g283">
            <path
               fill="#97FCFC"
               stroke="none"
               d="M10.322,14.505c0-1.828,1.481-3.309,3.309-3.309s3.309,1.481,3.309,3.309        s-1.481,3.309-3.309,3.309C11.803,17.813,10.322,16.333,10.322,14.505z"
               id="path284" />
          </g>
        </g>
        <g
           id="g285">
          <g
             id="g286">
            <g
               id="g287">
              <path
                 fill="#009900"
                 stroke="none"
                 d="M27.716,40.066c0.242-1.029,0.788-3.208-0.181-3.39s-2.785-0.303-3.33-0.908         s-1.089-0.605-1.452-0.849c-0.363-0.241-0.909-1.028-0.363-1.755c0.544-0.727,0.424-1.453-0.303-1.876         c-0.727-0.425-1.15,0.121-1.755,0.181c-0.606,0.062-2.059-0.907-3.148-0.907c-1.09,0-2.119,0-2.3-0.605         c-0.666,0.424-4.661-0.304-4.479-1.514c-0.424-0.424-1.997-2.179-2.421-2.784c0.061,0.484,0.424,1.513,0.787,1.816         c-1.029-0.727-1.876-1.998-1.938-2.967c-0.484-0.425-1.694-2.663-1.513-3.329c0.182-0.666,0.363-3.027,0.727-3.088         c0.363-0.06,0.061-0.363-0.121-0.726s-0.303-0.969-0.303-1.271c0-0.302,0.303-1.089,0-1.15         c-0.303-0.061-0.969-0.484-0.545-0.484c0.424,0,0.787,0.242,0.787-0.182c0-0.423-0.242-1.574-0.424-1.755         c-0.182-0.182-0.122-0.122-0.484,0.121c-0.364,0.241-0.727,0.303-0.788,0.122c-0.06-0.182,0.061-0.122,0.363-0.545         c0.303-0.424,1.029-1.635,1.271-2.058c0.242-0.424,0.182,0.121,0.969-0.787c0.787-0.909,1.21-1.756,1.21-0.909         s0.182,1.21,0.666,1.21c0.484,0,0.544-0.181,0.605,0.182c0.06,0.363,0.121,0.788,0.605,0.606         c0.484-0.182,0.908,0.06,1.15-0.182c0.242-0.243-0.182-0.484,0.121-0.545c0.303-0.061,0.424,0.484,0.545,0.06         c0.121-0.423-0.06-1.09,0.363-0.666c0.424,0.424,0.544,0.484,0.847,0.303c0.304-0.182,1.272-0.242,0.425,0.303         c-0.848,0.545-0.909,0.484-1.029,1.029c-0.121,0.545-0.182,0.363-0.484,0.969c-0.303,0.604-0.908,1.21-0.121,1.634         c0.787,0.424,1.816,0.545,1.816,0.545s0.848-0.666,0.726,0.06c-0.121,0.727-0.182,1.151,0.242,1.03         c0.424-0.122,1.15-0.061,0.666-0.606c-0.484-0.544-0.424-0.182-0.242-0.969c0.182-0.787,0.061-0.726-0.182-1.089         c-0.242-0.363-0.847-1.513-0.242-1.574c0.605-0.061,1.089-0.242,1.271,0.061s0.787,0.847,1.029,0.545         c0.242-0.303-0.061-1.15,0.847-0.545c0.909,0.605-0.06,0.908,0.909,0.908c0.968,0,1.876-0.061,1.876,0.181         s-0.666,1.392-1.15,1.574c-0.484,0.181-0.666-0.242-0.848,0.303c-0.182,0.544-0.787,1.694-0.424,1.271         c0.363-0.424,0.969-1.332,1.029-0.788c0.061,0.545,0,0.969,0.606,0.909c0.605-0.061,1.513-0.605,0.726,0.182         c-0.787,0.787-0.848,1.332-0.787,0.787c0.061-0.544,0.061-0.848-0.424-0.121c-0.484,0.726-0.605,1.271-0.363,1.271         c0.242,0,0.242,0.182-0.061,0.364c-0.303,0.181-0.484,1.029-0.666,1.513c-0.182,0.484-0.545,1.029-0.182,1.09         c0.363,0.061,0.242,0.968,0.242,0.968s-1.635,1.816-1.029,2.361s1.332,1.392,1.029,1.574         c-0.303,0.181-1.029-0.969-1.211-1.15c-0.181-0.182-1.997-0.425-2.119-0.121c-0.121,0.303,0.303,0.544,0,0.605         c-0.302,0.06-1.392,0.303-1.816,0.544c-0.423,0.242-0.544,1.029-0.484,1.332s0.363,2.906,1.756,2.603         c1.392-0.303,1.513-0.424,1.271-1.028l1.089-0.424c0,0-0.241,1.756,0.303,1.815c0.545,0.061,1.332-0.121,1.513-0.121         s0.605,1.574,0.969,1.695c0.363,0.12,1.392,0,1.998-0.424s0.909,0.544,0.968,0.061c0.061-0.484,0.727-1.514,1.332-1.756         c0,0.424,0,0.848,0.363,0.727s0.121-0.908,0.121-0.908s2.421,0.121,2.421-0.606c0,0,1.332-0.363,1.635,0.061         c0.182-0.423,0.483-0.061,0.968,0.061s0.787-0.303,1.453-0.605c0.666-0.302,2.119-0.06,2.301,0.424         c0.181,0.485,0.544,0.969,0.787,0.121l1.393-0.362c0,0,0.786-0.787,1.331-0.848c0.544-0.061,1.09-0.424,1.15-0.061         c0.06,0.362-0.182,1.816-0.545,2.118c-0.363,0.303-0.182,0.545-0.061,0.848c0.121,0.304-0.181,1.938-0.424,2.239         c-0.241,0.304,0,0.363-0.484,0.788c-0.484,0.424-0.727,1.028-0.908,1.392c-0.181,0.363-0.483,1.392-0.969,1.816         c-0.484,0.424-0.786,0.908-0.786,0.908C32.741,37.462,30.985,39.582,27.716,40.066z"
                 id="path288" />
            </g>
            <g
               id="g289">
              <path
                 fill="#009900"
                 stroke="none"
                 d="M17.911,26.446c0.363-0.182,0.424-0.242,0.787-0.242c0.363,0,1.513,0.061,1.876,0.061         s0.484,0.363,0.121,0.424c-0.362,0.061-0.968-0.182-1.392-0.182C18.879,26.506,18.153,26.749,17.911,26.446z"
                 id="path290" />
            </g>
            <g
               id="g291">
              <path
                 fill="#009900"
                 stroke="none"
                 d="M22.027,26.264c0.182-0.303,0.968-0.483,1.331-0.303         c0.363,0.182-0.786,0.848-1.089,0.787C21.966,26.688,22.027,26.264,22.027,26.264z"
                 id="path292" />
            </g>
            <g
               id="g293">
              <path
                 fill="#009900"
                 stroke="none"
                 d="M20.695,12.826c0,0,0.182,0.544,0.061,0.787s0.545-0.121,1.029-0.121         s0.181-0.182,0.06-0.544C21.724,12.584,21.058,12.826,20.695,12.826z"
                 id="path294" />
            </g>
            <g
               id="g295">
              <path
                 fill="#009900"
                 stroke="none"
                 d="M14.339,6.349c0.362-0.121,0.423-0.423,1.21,0c0.787,0.424,0.848,0.001,1.514,0.667         c0.666,0.666,1.815,1.815,3.269,1.271c-0.303-0.726-0.788-0.907-0.727-1.573s0.182-1.635,0.182-1.635L19.182,5.32         l-0.061-0.484c0,0-2.119-0.424-2.542-0.363c-0.423,0.06-0.423-0.242-0.726-0.242c-0.302,0-0.363,0.484-0.605,0.484         c-0.242,0-1.029-0.363-0.908,0.122C14.46,5.32,14.642,5.441,14.4,5.745C14.158,6.046,14.339,6.349,14.339,6.349z"
                 id="path296" />
            </g>
            <g
               id="g297">
              <path
                 fill="#009900"
                 stroke="none"
                 d="M13.007,8.165c0.242-0.363,0.484-0.604,0.544-0.363         c0.061,0.242,0.122,0.484,0.788,0.303c0.666-0.182,0.847-0.061,1.089,0.121s0.848,0.242,0.848,0.544         s-0.242,0.485-0.484,0.242c-0.242-0.242-0.606-0.605-0.606-0.303c0,0.303,0.182,0.908,0.788,0.848         c0.605-0.061,0.787,0.303,0.303,0.303s-0.363,0.181-0.666,0.242c-0.303,0.06-0.605-0.363-0.909-0.242         c0,0,0.122-0.848-0.242-0.908c-0.363-0.061-0.484,0.121-0.484,0.121s0.061-0.303-0.242-0.424s-0.424,0.182-0.787,0.182         C12.583,8.831,12.281,7.802,13.007,8.165z"
                 id="path298" />
            </g>
            <g
               id="g299">
              <path
                 fill="#009900"
                 stroke="none"
                 d="M9.436,5.684c0,0,0.061,0.363,0.242,0.302c0.182-0.06,0.908-0.604,1.392-0.968         c0.485-0.364,0.909-0.727,0.848-0.909C11.857,3.928,9.981,5.139,9.436,5.684z"
                 id="path300" />
            </g>
            <g
               id="g301">
              <path
                 fill="#009900"
                 stroke="none"
                 d="M8.709,6.289c0.293-0.098-0.181,0.484-0.545,0.908C7.802,7.621,7.56,7.621,7.196,8.044         c-0.363,0.423-0.968,0.908-1.21,1.15C5.744,9.436,5.259,9.799,5.259,9.799S8.165,6.471,8.709,6.289z"
                 id="path302" />
            </g>
            <g
               id="g303">
              <path
                 fill="#009900"
                 stroke="none"
                 d="M20.453,1.93c-0.06,0.363-0.363,0.544,0.121,0.544s2.421,0.061,2.906,0.545         c0.484,0.484,2.179,0.242,2.603-0.122c0.424-0.363-0.182-0.484-0.786-0.424c-0.606,0.061-1.151,0.061-1.515-0.121         c-0.362-0.181-0.787-0.302-0.787-0.545C22.208,1.749,20.816,1.749,20.453,1.93z"
                 id="path304" />
            </g>
            <g
               id="g305">
              <path
                 fill="#009900"
                 stroke="none"
                 d="M26.627,2.293c0,0,0.968,0.726,0.726,0.787c-0.241,0.06-0.847,0.06-0.847,0.06         s0.605,0.061,0.908,0.302c0.303,0.242,0.181,0.666,0.847,0.848s0.848,1.029,1.15,1.272c0.304,0.241,0.062-0.303,0.545-0.181         c0.484,0.12,1.756,0.907,1.392,1.028c-0.363,0.121-0.484,0.606,0.183,0.969c0.665,0.363,1.392,0.666,1.573,1.089         c0.303-0.484,0.424-1.271-0.121-1.574c-0.545-0.303-1.271-0.606-1.392-1.091c-0.122-0.484-0.182-0.907-0.122-1.271         C30.259,3.504,27.051,2.354,26.627,2.293z"
                 id="path306" />
            </g>
            <g
               id="g307">
              <path
                 fill="#009900"
                 stroke="none"
                 d="M33.77,5.986c0.121,0.485,0.484,2.179,0.121,2.422c-0.363,0.242,0,0.363,0.242,0.605         c0.242,0.242,0.303,0.121,0.665,0.666c0.363,0.545,0.667,0.969,0.667,1.695c0,0.727,0.484,1.393,0.726,1.816         c0.242,0.424,1.756,1.574,1.756,2.18c0,0.605-0.061,1.209,0.605,1.331s0.968,0.182,1.15,0.484         c0.181,0.303,0.726,0.303,1.028,0.364C40.368,14.945,38.794,9.981,33.77,5.986z"
                 id="path308" />
            </g>
            <g
               id="g309">
              <path
                 fill="#009900"
                 stroke="none"
                 d="M21.603,5.018v0.242l0.787,0.122V4.775l-1.029-0.181L21.603,5.018z"
                 id="path310" />
            </g>
            <g
               id="g311">
              <path
                 fill="#009900"
                 stroke="none"
                 d="M25.659,4.23c-0.303,0-0.061,0.302,0.303,0.363c0.363,0.06,0.666,0,1.15,0.06         c0.484,0.061,0.848,0.122,0.968,0.364c0.122,0.242,0.425,0.242,0.425,0s0.061-0.545-0.484-0.605s-1.15-0.121-1.453-0.182         C26.264,4.17,25.659,4.23,25.659,4.23z"
                 id="path312" />
            </g>
            <g
               id="g313">
              <path
                 fill="#009900"
                 stroke="none"
                 d="M26.809,5.199h0.727v0.604L26.809,5.199z"
                 id="path314" />
            </g>
            <g
               id="g315">
              <path
                 fill="#009900"
                 stroke="none"
                 d="M10.889,9.254c0,0-0.182,0.485-0.424,0.485c-0.242,0-0.666-0.544-0.242-0.727         S10.889,9.254,10.889,9.254z"
                 id="path316" />
            </g>
            <g
               id="g317">
              <path
                 fill="#009900"
                 stroke="none"
                 d="M9.981,8.589C9.678,8.831,9.497,9.073,9.315,9.013s0.242-0.544,0.484-0.666         C10.041,8.226,9.981,8.589,9.981,8.589z"
                 id="path318" />
            </g>
            <g
               id="g319">
              <path
                 fill="#009900"
                 stroke="none"
                 d="M10.404,7.862l0.363-0.121l0.484,0.544h0.424l-0.121,0.666h-0.242L10.404,7.862z"
                 id="path320" />
            </g>
            <g
               id="g321">
              <path
                 fill="#009900"
                 stroke="none"
                 d="M12.402,6.652c0.303-0.061,0.666-0.061,0.848-0.848         c0.181-0.786,0.484-0.484,0.363,0.061c-0.121,0.544-0.605,0.606-0.363,0.908c0.242,0.303,0.121,0.181-0.242,0.121         C12.644,6.833,12.402,6.954,12.402,6.652z"
                 id="path322" />
            </g>
          </g>
        </g>
      </g>
    </g>
  </g>
</svg>
