<?xml version="1.0" encoding="UTF-8" standalone="no"?>
<!DOCTYPE svg PUBLIC "-//W3C//DTD SVG 20010904//EN"
"http://www.w3.org/TR/2001/REC-SVG-20010904/DTD/svg10.dtd">
<!-- Created with Sodipodi ("http://www.sodipodi.com/") -->
<svg
   width="32pt"
   height="32pt"
   viewBox="0 0 84.402 64.039"
   overflow="visible"
   enable-background="new 0 0 84.402 64.039"
   xml:space="preserve"
   id="svg153"
   sodipodi:version="0.32pre"
   sodipodi:docname="/home/cschalle/gnome-themes-extras/Wasp/icons/scalable/emblems/emblem-multimedia.svg"
   sodipodi:docbase="/home/cschalle/gnome-themes-extras/Wasp/icons/scalable/emblems/"
   xmlns="http://www.w3.org/2000/svg"
   xmlns:sodipodi="http://sodipodi.sourceforge.net/DTD/sodipodi-0.dtd"
   xmlns:xml="http://www.w3.org/XML/1998/namespace"
   xmlns:xlink="http://www.w3.org/1999/xlink">
  <defs
     id="defs183" />
  <sodipodi:namedview
     id="base" />
  <metadata
     id="metadata154">
    <sfw>
      <slices />
      <sliceSourceBounds
         y="379.611"
         x="275.426"
         width="84.402"
         height="64.039"
         bottomLeftOrigin="true" />
    </sfw>
  </metadata>
  <g
     id="Layer_1"
     stroke="#000000">
    <g
       id="g156">
      <path
         a:adobe-blending-mode="multiply"
         opacity="0.4"
         stroke="none"
         d="M66.259,33.259L55.951,43.899l-11.067,4.691L62.91,29.24     L66.259,33.259z"
         id="path157" />
      <path
         fill="#FFFFFF"
         stroke="none"
         d="M37.604,0.877L1.156,21.658l45.642,41.504l36.448-20.779L37.604,0.877z"
         id="path158" />
      <g
         id="g159">
        <path
           fill="#000001"
           stroke="none"
           d="M37.473,0L0,21.366l46.927,42.673l37.476-21.365L37.473,0z M42.743,8.186l2.033,1.847      l-2.854,1.625l-2.03-1.845L42.743,8.186z M36.804,2.785l2.031,1.845l-2.854,1.625L33.95,4.411L36.804,2.785z M6.029,23.331      L4,21.487l2.853-1.628l2.029,1.847L6.029,23.331z M11.969,28.734l-2.03-1.845l2.853-1.627l2.033,1.846L11.969,28.734z       M17.912,34.138l-2.031-1.846l2.853-1.626l2.033,1.846L17.912,34.138z M23.853,39.54l-2.03-1.845l2.853-1.629l2.033,1.848      L23.853,39.54z M29.793,44.944l-2.026-1.848l2.849-1.627l2.032,1.847L29.793,44.944z M35.735,50.348l-2.029-1.849l2.854-1.625      l2.029,1.846L35.735,50.348z M41.674,55.749L39.647,53.9l2.85-1.623l2.031,1.845L41.674,55.749z M47.617,61.152l-2.028-1.849      l2.853-1.623l2.029,1.844L47.617,61.152z M47.865,17.061l-2.03-1.846l2.852-1.626l2.032,1.846L47.865,17.061z M53.805,22.463      l-2.028-1.845l2.851-1.627l2.031,1.847L53.805,22.463z M59.747,27.867l-2.03-1.847l2.853-1.627l2.032,1.847L59.747,27.867z       M65.688,33.271l-2.03-1.848l2.853-1.625l2.032,1.845L65.688,33.271z M71.629,38.671l-2.027-1.846l2.851-1.627l2.032,1.846      L71.629,38.671z M75.543,42.228l2.853-1.625l2.031,1.847l-2.854,1.627L75.543,42.228z"
           id="path160" />
        <linearGradient
           id="XMLID_1_"
           gradientUnits="userSpaceOnUse"
           x1="-198.4546"
           y1="386.7393"
           x2="-228.8594"
           y2="389.6911"
           gradientTransform="matrix(0.9985 -0.054 -0.054 -0.9985 269.9691 398.134)">
          <stop
             offset="0.0056"
             style="stop-color:#D9D8FF"
             id="stop162" />
          <stop
             offset="0.514"
             style="stop-color:#FDFEED"
             id="stop163" />
          <stop
             offset="1"
             style="stop-color:#6566CB"
             id="stop164" />
        </linearGradient>
        <path
           fill="url(#XMLID_1_)"
           stroke="none"
           d="M31.948,6.385l20.023,18.21L29.72,37.28L9.697,19.07L31.948,6.385z"
           id="path170" />
        <g
           id="g171">
          <linearGradient
             id="XMLID_2_"
             gradientUnits="userSpaceOnUse"
             x1="-181.6709"
             y1="367.2646"
             x2="-204.9896"
             y2="367.2646"
             gradientTransform="matrix(0.9985 -0.054 -0.054 -0.9985 269.9691 398.134)">
            <stop
               offset="0.0056"
               style="stop-color:#D9D8FF"
               id="stop173" />
            <stop
               offset="0.514"
               style="stop-color:#FDFEED"
               id="stop174" />
            <stop
               offset="1"
               style="stop-color:#6566CB"
               id="stop175" />
          </linearGradient>
          <path
             fill="url(#XMLID_2_)"
             stroke="none"
             d="M54.21,26.629L74.234,44.84l-22.25,12.685l-20.025-18.21L54.21,26.629z"
             id="path181" />
        </g>
      </g>
    </g>
  </g>
</svg>
