<?xml version="1.0" encoding="UTF-8" standalone="no"?>
<!DOCTYPE svg PUBLIC "-//W3C//DTD SVG 20010904//EN"
"http://www.w3.org/TR/2001/REC-SVG-20010904/DTD/svg10.dtd"
[
 <!ATTLIST svg
  xmlns:xlink CDATA #FIXED "http://www.w3.org/1999/xlink">
]>
<!-- Created with Sodipodi ("http://www.sodipodi.com/") -->
<svg
   xmlns="http://www.w3.org/2000/svg"
   xmlns:xlink="http://www.w3.org/1999/xlink"
   version="1"
   x="0.00000000"
   y="0.00000000"
   width="40.0000000"
   height="40.0000000"
   viewBox="-0.234 -0.321 117 127"
   id="svg548">
  <defs
     id="defs654" />
  <g
     style="font-size:12;"
     id="Layer_1_2_">
    <path
       d="M 59.319 5.084 L 59.314 5.093 C 59.158 5.377 58.82 5.998 58 9.648 C 50.162 5.617 40.443 0.617 40.443 0.617 L 0.051 38.5 L 0 39.862 L 0.054 97.187 L 19.758 106.916 L 40.069 90.252 L 40.069 117.183 L 57.872 126.971 L 59.477 125.418 L 98.278 88.727 L 98.28 30.383 L 96.653 29.528 C 96.653 29.528 93.428 27.87 91.083 26.663 C 91.19 26.514 91.604 25.938 91.604 25.938 C 92.678 24.087 93.223 22.117 93.223 20.125 C 93.223 19.12 93.084 18.108 92.805 17.104 C 91.871 13.738 89.541 11.178 87.647 10.134 L 70 0.401 C 67.495 -0.974 62.594 -0.855 59.319 5.084 z "
       id="path550" />
    <g
       id="g551">
      <path
         d="M 95.279 32.196 L 76.799 22.692 L 76.664 20.918 L 85.928 26.049 C 85.928 26.049 88.983 24.417 89.01 24.432 C 92.172 18.985 88.391 13.97 86.199 12.762 C 84.011 11.552 69.392 3.494 68.547 3.026 C 67.2 2.287 64.222 2.405 61.946 6.533 C 61.565 7.229 60.558 11.999 60.558 11.999 L 72.242 18.47 L 72.049 20.25 L 40.952 4.253 L 3.052 39.799 L 3.052 39.816 L 3 39.859 L 3.052 95.322 L 19.344 103.366 L 39.661 86.576 L 39.661 113.603 L 57.394 123.292 L 57.394 123.227 L 57.415 123.239 L 95.276 87.435 L 95.278 32.213 L 95.278 32.196 L 95.279 32.196 z "
         id="path552" />
    </g>
    <g
       id="g553">
      <linearGradient
         x1="6.72900009"
         y1="88.0712967"
         x2="55.5247993"
         y2="74.5175018"
         id="XMLID_1_"
         gradientUnits="userSpaceOnUse"
         spreadMethod="pad">
        <stop
           style="stop-color:#cc9966;stop-opacity:1;"
           offset="0.00000000"
           id="stop555" />
        <stop
           style="stop-color:#ffcd99;stop-opacity:1;"
           offset="1.00000000"
           id="stop556" />
        
        
        
      </linearGradient>
      <path
         d="M 57.395 123.293 L 41.094 114.466 L 40.899 85.554 L 19.185 103.498 L 3.052 95.322 L 3.052 39.799 L 57.395 67.768 L 57.395 123.293 z "
         style="fill:url(#XMLID_1_);"
         id="path560" />
    </g>
    <path
       d="M 3.29 72.882 L 16.512 79.496 L 16.489 76.342 L 3.262 69.729 L 3.29 72.882 z "
       style="fill:#9f6e39;"
       id="path561" />
    <path
       d="M 6.154 62.245 L 13.634 65.986 L 13.618 64.203 L 6.14 60.462 L 6.154 62.245 z "
       style="fill:#73410c;"
       id="path562" />
    <path
       d="M 6.479 62.746 L 11.54 65.276 L 11.53 64.515 L 6.469 61.984 L 6.479 62.746 z "
       id="path563" />
    <path
       d="M 25.674 70.379 L 33.154 74.119 L 33.138 72.336 L 25.66 68.595 L 25.674 70.379 z "
       style="fill:#73410c;"
       id="path564" />
    <path
       d="M 26.302 70.72 L 31.05 73.094 L 31.039 72.432 L 26.294 70.058 L 26.302 70.72 z "
       id="path565" />
    <path
       d="M 6.154 85.019 L 13.634 88.76 L 13.618 86.976 L 6.14 83.234 L 6.154 85.019 z "
       style="fill:#73410c;"
       id="path566" />
    <path
       d="M 6.532 85.161 L 11.191 87.491 L 11.181 86.892 L 6.523 84.562 L 6.532 85.161 z "
       id="path567" />
    <path
       d="M 45.735 81.765 L 53.213 85.506 L 53.2 83.723 L 45.721 79.982 L 45.735 81.765 z "
       style="fill:#73410c;"
       id="path568" />
    <path
       d="M 46.322 82.21 L 50.854 84.478 L 50.847 83.796 L 46.312 81.528 L 46.322 82.21 z "
       id="path569" />
    <path
       d="M 45.735 104.538 L 53.213 108.279 L 53.2 106.496 L 45.721 102.755 L 45.735 104.538 z "
       style="fill:#73410c;"
       id="path570" />
    <path
       d="M 46.061 104.97 L 51.118 107.5 L 51.11 106.795 L 46.051 104.265 L 46.061 104.97 z "
       id="path571" />
    <g
       id="g572">
      <linearGradient
         x1="33.2240982"
         y1="98.4766006"
         x2="23.7584000"
         y2="82.6125031"
         id="XMLID_2_"
         gradientUnits="userSpaceOnUse"
         spreadMethod="pad">
        <stop
           style="stop-color:#9a6633;stop-opacity:1;"
           offset="0.00000000"
           id="stop574" />
        <stop
           style="stop-color:#73410c;stop-opacity:1;"
           offset="1.00000000"
           id="stop575" />
        
        
        
      </linearGradient>
      <path
         d="M 19.247 103.675 L 19.185 72.585 L 42.22 84.929 L 19.247 103.675 z "
         style="fill:url(#XMLID_2_);"
         id="path579" />
    </g>
    <g
       id="g580">
      <linearGradient
         x1="57.3945007"
         y1="77.6093979"
         x2="95.2792969"
         y2="77.6093979"
         id="XMLID_3_"
         gradientUnits="userSpaceOnUse"
         spreadMethod="pad">
        <stop
           style="stop-color:#996633;stop-opacity:1;"
           offset="0.00000000"
           id="stop582" />
        <stop
           style="stop-color:#cc9966;stop-opacity:1;"
           offset="1.00000000"
           id="stop583" />
        
        
        
      </linearGradient>
      <path
         d="M 95.277 87.436 L 57.394 123.005 L 57.394 67.479 L 95.279 32.213 L 95.277 87.436 z "
         style="fill:url(#XMLID_3_);"
         id="path587" />
    </g>
    <g
       id="g588">
      <linearGradient
         x1="42.9331017"
         y1="-1.16989994"
         x2="51.3540001"
         y2="48.9981995"
         id="XMLID_4_"
         gradientUnits="userSpaceOnUse"
         spreadMethod="pad">
        <stop
           style="stop-color:#ffffff;stop-opacity:1;"
           offset="0.00000000"
           id="stop590" />
        <stop
           style="stop-color:#ffcd99;stop-opacity:1;"
           offset="1.00000000"
           id="stop591" />
        
        
        
      </linearGradient>
      <path
         d="M 95.277 32.198 L 57.395 67.768 L 3.071 39.824 L 40.952 4.253 L 95.277 32.198 z "
         style="fill:url(#XMLID_4_);"
         id="path595" />
    </g>
    <g
       id="g596">
      <path
         d="M 56.07 33.855 L 36.751 50.833 L 18.406 39.905 L 35.879 25.65 L 56.07 33.855 z "
         style="fill:#d19f6d;"
         id="path597" />
    </g>
    <path
       d="M 58.649 66.672 L 57.388 67.807 L 57.405 69.451 L 3 41.453 L 3 39.859 L 4.328 38.726 L 58.649 66.672 z "
       style="opacity:0.6;fill:#ffffff;"
       id="path598" />
    <path
       d="M 57.405 69.45 L 57.388 67.806 L 58.649 66.671 L 57.229 65.925 L 93.843 31.444 L 95.279 32.196 L 95.269 34.296 L 57.405 69.45 z "
       style="opacity:0.6;fill:#ffffff;"
       id="path599" />
    <path
       d="M 16.433 57.291 L 16.433 102.143 L 19.344 103.649 L 19.344 58.798 L 16.433 57.291 z "
       style="fill:#73410c;"
       id="path600" />
    <path
       d="M 39.661 82.536 L 39.661 116.921 L 42.572 118.578 L 42.572 84.195 L 39.661 82.536 z "
       id="path601" />
    <g
       id="g602">
      <path
         d="M 59.034 35.667 C 59.222 36.55 54.435 38.322 48.346 39.623 C 42.258 40.921 37.165 41.258 36.979 40.375 C 36.788 39.489 41.573 37.719 47.663 36.419 C 53.755 35.119 58.843 34.783 59.034 35.667 z "
         style="fill:#d19f6d;"
         id="path603" />
    </g>
    <path
       d="M 39.661 69.479 L 39.661 83.239 L 42.572 84.898 L 42.572 71.138 L 39.661 69.479 z "
       style="fill:#73410c;"
       id="path604" />
    <path
       d="M 57.194 78.499 L 2.997 50.433 L 3.149 52.533 L 24.225 64.958 L 33.804 69.932 L 57.283 80.345 L 57.194 78.499 z "
       style="opacity:0.5;fill:#73410c;"
       id="path605" />
    <path
       d="M 58.766 121.679 L 57.416 123.24 L 55.749 122.35 L 55.749 68.679 L 57.405 69.45 L 58.862 68.12 L 58.766 121.679 z "
       style="opacity:0.6;fill:#ffffff;"
       id="path606" />
    <g
       id="g607">
      <path
         d="M 54.135 32.074 L 37.164 48.609 L 18.16 38.834 L 35.136 22.297 L 54.135 32.074 z "
         style="fill:#ffffff;"
         id="path608" />
    </g>
    <path
       d="M 59.034 34.212 C 59.222 35.095 54.435 36.868 48.346 38.168 C 42.258 39.466 37.165 39.803 36.979 38.92 C 36.788 38.035 41.573 36.264 47.663 34.964 C 53.755 33.664 58.843 33.329 59.034 34.212 z "
       id="path609" />
    <path
       d="M 46.913 36.702 C 47.102 37.586 46.795 38.486 46.049 38.621 C 44.857 38.839 43.731 39.088 42.693 39.142 C 42.367 39.159 43.13 38.108 43.005 37.522 C 42.879 36.939 41.596 36.475 42.029 36.407 C 43.089 36.237 44.2 35.779 45.425 35.478 C 46.146 35.299 46.724 35.819 46.913 36.702 z "
       style="fill:#b3b3b3;"
       id="path610" />
    <path
       d="M 66.271 36.011 C 66.271 32.333 70.373 29.347 75.433 29.347 C 79.753 29.347 92.419 35.452 92.419 35.452 L 90.544 57.332 C 90.544 57.332 85.927 49.271 85.927 49.272 L 83.458 43.162 L 81.829 42.246 C 80.241 43.204 77.657 42.676 75.433 42.676 C 70.373 42.676 66.271 39.693 66.271 36.011 z "
       style="opacity:0.48;fill:#9f6e39;"
       id="path611" />
    <path
       d="M 64.237 35.426 C 64.237 31.48 68.637 28.276 74.069 28.276 C 79.5 28.276 83.901 31.48 83.901 35.426 C 83.901 39.376 79.5 42.577 74.069 42.577 C 68.638 42.578 64.237 39.376 64.237 35.426 z "
       id="path612" />
    <linearGradient
       x1="65.7412033"
       y1="35.4258003"
       x2="82.3983994"
       y2="35.4258003"
       id="XMLID_5_"
       gradientUnits="userSpaceOnUse"
       spreadMethod="pad">
      <stop
         style="stop-color:#ffffff;stop-opacity:1;"
         offset="0.00000000"
         id="stop614" />
      <stop
         style="stop-color:#595959;stop-opacity:1;"
         offset="1.00000000"
         id="stop615" />
      
      
      
    </linearGradient>
    <path
       d="M 65.741 35.426 C 65.741 32.083 69.469 29.368 74.068 29.368 C 78.67 29.368 82.398 32.083 82.398 35.426 C 82.398 38.772 78.669 41.484 74.068 41.484 C 69.469 41.483 65.741 38.771 65.741 35.426 z "
       style="fill:url(#XMLID_5_);"
       id="path619" />
    <g
       id="g620">
      <path
         d="M 74.068 29.368 C 73.937 29.368 73.808 29.378 73.679 29.382 C 78.097 29.532 81.617 32.178 81.617 35.425 C 81.617 38.675 78.097 41.319 73.679 41.468 C 73.808 41.472 73.937 41.482 74.068 41.482 C 78.67 41.482 82.398 38.77 82.398 35.424 C 82.398 32.083 78.67 29.368 74.068 29.368 z "
         style="fill:#6b6b6b;"
         id="path621" />
    </g>
    <g
       id="g622">
      <path
         d="M 66.619 34.547 C 66.619 33.41 67.058 32.35 67.808 31.441 C 66.525 32.507 65.741 33.899 65.741 35.426 C 65.741 38.772 69.469 41.484 74.068 41.484 C 77.105 41.484 79.754 40.298 81.209 38.533 C 79.684 39.801 77.447 40.605 74.947 40.605 C 70.348 40.605 66.619 37.893 66.619 34.547 z "
         style="fill:#e0e0e0;"
         id="path623" />
    </g>
    <path
       d="M 72.416 15.037 C 72.416 16.301 73.332 17.327 74.457 17.327 C 75.584 17.327 76.498 16.301 76.498 15.037 L 78.18 34.582 C 78.18 36.03 76.35 37.203 74.102 37.203 C 71.848 37.203 70.022 36.03 70.022 34.582 L 72.416 15.037 z "
       id="path624" />
    <g
       id="g625">
      <linearGradient
         x1="70.0781021"
         y1="29.2968998"
         x2="76.1903000"
         y2="24.6660995"
         id="XMLID_6_"
         gradientUnits="userSpaceOnUse"
         spreadMethod="pad">
        <stop
           style="stop-color:#ffffff;stop-opacity:1;"
           offset="0.00000000"
           id="stop627" />
        <stop
           style="stop-color:#595959;stop-opacity:1;"
           offset="1.00000000"
           id="stop628" />
        
        
        
      </linearGradient>
      <path
         d="M 73.014 17.011 C 73.014 17.982 73.635 18.77 74.397 18.77 C 75.163 18.77 75.782 17.982 75.782 17.011 L 76.905 34.183 C 76.905 35.295 75.663 36.196 74.137 36.196 C 72.61 36.196 71.369 35.295 71.369 34.183 L 73.014 17.011 z "
         style="fill:url(#XMLID_6_);"
         id="path632" />
    </g>
    <g
       id="g633">
      <linearGradient
         x1="74.9131012"
         y1="16.4037991"
         x2="78.4191971"
         y2="8.07530022"
         id="XMLID_7_"
         gradientUnits="userSpaceOnUse"
         spreadMethod="pad">
        <stop
           style="stop-color:#00fa00;stop-opacity:1;"
           offset="0.00000000"
           id="stop635" />
        <stop
           style="stop-color:#009200;stop-opacity:1;"
           offset="1.00000000"
           id="stop636" />
        
        
        
      </linearGradient>
      <path
         d="M 89.715 24.461 C 89.686 24.445 86.473 26.161 86.473 26.161 L 59.793 11.385 C 59.793 11.385 60.852 6.368 61.252 5.636 C 63.645 1.295 66.777 1.17 68.193 1.948 C 69.082 2.44 84.457 10.915 86.757 12.187 C 89.062 13.458 93.039 18.731 89.715 24.461 z "
         style="fill:url(#XMLID_7_);"
         id="path640" />
    </g>
    <g
       id="g641">
      <linearGradient
         x1="83.8603973"
         y1="19.1742992"
         x2="88.1834030"
         y2="19.1742992"
         id="XMLID_8_"
         gradientUnits="userSpaceOnUse"
         spreadMethod="pad">
        <stop
           style="stop-color:#00fa00;stop-opacity:1;"
           offset="0.00000000"
           id="stop643" />
        <stop
           style="stop-color:#007701;stop-opacity:1;"
           offset="1.00000000"
           id="stop644" />
        
        
        
      </linearGradient>
      <path
         d="M 89.715 24.461 C 89.686 24.445 86.473 26.161 86.473 26.161 L 82.336 23.916 C 82.336 23.916 84.238 20.949 84.641 20.217 C 87.034 15.878 84.457 10.915 86.758 12.188 C 89.062 13.458 93.039 18.731 89.715 24.461 z "
         style="fill:url(#XMLID_8_);"
         id="path648" />
    </g>
    <path
       d="M 19.219 73.191 L 18.931 106.663 L 39.854 106.891 L 39.662 83.24 L 19.219 73.191 z "
       style="opacity:0.3;"
       id="path649" />
    <path
       d="M 57.885 126.284 L 79.936 126.284 L 113.643 91.356 L 116.505 81.18 L 97.994 71.46 L 98.277 88.728 L 57.885 126.284 z "
       style="opacity:0.3;"
       id="path650" />
    <path
       d="M 42.484 91.402 L 57.354 98.693 L 57.328 95.539 L 42.454 88.25 L 42.484 91.402 z "
       style="fill:#9f6e39;"
       id="path651" />
    <path
       d="M 57.07 75.162 C 55.203 74.197 3.006 47.208 3.006 47.208 L 2.856 50.373 L 57.61 78.715 L 95.233 43.872 L 95.225 39.769 C 95.225 39.771 58.482 73.854 57.07 75.162 z "
       style="opacity:0.6;fill:#73410c;"
       id="path652" />
  </g>
</svg>
