<?xml version="1.0" encoding="UTF-8" standalone="no"?>
<!-- Created with Inkscape (http://www.inkscape.org/) -->

<svg
   xmlns:svg="http://www.w3.org/2000/svg"
   xmlns="http://www.w3.org/2000/svg"
   xmlns:xlink="http://www.w3.org/1999/xlink"
   version="1.1"
   width="99"
   height="116"
   viewBox="0.035 0.175 99 116"
   id="svg2"
   xml:space="preserve"
   style="overflow:visible"><defs
   id="defs121">
		
	
		
		
		
		
		
		
		
		
		<linearGradient
   x1="5.1610999"
   y1="69.715797"
   x2="47.0755"
   y2="79.839996"
   id="XMLID_5_"
   gradientUnits="userSpaceOnUse">
			<stop
   id="stop76"
   style="stop-color:#0000df;stop-opacity:1"
   offset="0.0056" />
			<stop
   id="stop78"
   style="stop-color:#1749ff;stop-opacity:1"
   offset="1" />
			<midPointStop
   offset="0.0056"
   style="stop-color:#0000DF"
   id="midPointStop80" />
			<midPointStop
   offset="0.5"
   style="stop-color:#0000DF"
   id="midPointStop82" />
			<midPointStop
   offset="1"
   style="stop-color:#1749FF"
   id="midPointStop84" />
		</linearGradient>
		
		
		
		
		
		<radialGradient
   cx="27.455601"
   cy="14.7559"
   r="17.763201"
   fx="27.455601"
   fy="14.7559"
   id="XMLID_6_"
   gradientUnits="userSpaceOnUse">
			<stop
   id="stop101"
   style="stop-color:#ffffff;stop-opacity:1"
   offset="0.0335" />
			<stop
   id="stop103"
   style="stop-color:#0000df;stop-opacity:1"
   offset="0.43020001" />
			<stop
   id="stop105"
   style="stop-color:#0000a9;stop-opacity:1"
   offset="1" />
			<midPointStop
   offset="0.0335"
   style="stop-color:#FFFFFF"
   id="midPointStop107" />
			<midPointStop
   offset="0.5"
   style="stop-color:#FFFFFF"
   id="midPointStop109" />
			<midPointStop
   offset="0.4302"
   style="stop-color:#0000DF"
   id="midPointStop111" />
			<midPointStop
   offset="0.5"
   style="stop-color:#0000DF"
   id="midPointStop113" />
			<midPointStop
   offset="1"
   style="stop-color:#0000A9"
   id="midPointStop115" />
		</radialGradient>
		
	<radialGradient
   cx="27.455601"
   cy="14.7559"
   r="17.763201"
   fx="27.455601"
   fy="14.7559"
   id="radialGradient3983"
   xlink:href="#XMLID_6_"
   gradientUnits="userSpaceOnUse"
   gradientTransform="translate(17.203391,32.440678)" /><linearGradient
   x1="5.1610999"
   y1="69.715797"
   x2="47.0755"
   y2="79.839996"
   id="linearGradient3992"
   xlink:href="#XMLID_5_"
   gradientUnits="userSpaceOnUse" />
			
		
				
			
					
					
					
					
					
					
					
					
				</defs>
	<path
   d="m 29.104391,52.869678 c 0,11.265 9.165,20.429 20.429,20.429 11.265,0 20.429,-9.164 20.429,-20.429 0,-11.265 -9.164,-20.429 -20.429,-20.429 -11.264,0 -20.429,9.164 -20.429,20.429 z"
   id="path94" /><g
   transform="translate(17.203391,32.440678)"
   id="g96">
			<path
   d="m 14.275,20.429 c 0,-9.972 8.083,-18.056 18.055,-18.056 9.973,0 18.056,8.084 18.056,18.056 0,9.972 -8.083,18.055 -18.056,18.055 -9.972,0 -18.055,-8.084 -18.055,-18.055 z"
   id="path98" />
		</g><path
   d="m 31.478391,52.869678 c 0,-9.972 8.083,-18.056 18.055,-18.056 9.973,0 18.056,8.084 18.056,18.056 0,9.972 -8.083,18.055 -18.056,18.055 -9.972,0 -18.055,-8.084 -18.055,-18.055 z"
   id="path117"
   style="fill:url(#radialGradient3983)" />
<path
   d="M 5.7963995,25.644159 C 3.4647537,29.363044 2.8690397,34.099388 4.0725177,39.341825 6.8846515,51.601041 18.944291,65.680537 35.545971,76.086334 60.25268,91.571895 85.890994,93.675347 93.913932,80.875396 101.93612,68.075443 88.868811,45.918031 64.162856,30.432468 39.457653,14.947659 13.81934,12.844207 5.7963995,25.644159 z M 37.546246,72.895384 C 21.998928,63.151574 10.300784,49.650472 7.7424501,38.501348 6.7543625,34.191268 7.1723417,30.537151 8.9873502,27.643681 15.658448,16.999145 40.01044,19.738227 62.163335,33.623419 c 11.098664,6.955775 20.161656,15.629408 25.520072,24.423538 5.115914,8.395733 6.195882,15.793586 3.040328,20.82967 -6.672603,10.642275 -31.023088,7.9047 -53.177489,-5.981244 z"
   id="path3431"
   style="stroke:none" /><path
   d="M 64.162856,30.433221 C 42.407607,16.796557 19.935391,13.543099 9.3985513,21.69934 c 0.2553061,1.979941 -0.2635905,4.20841 -0.612283,6.309602 0.069287,-0.120498 0.1265234,-0.247775 0.2010819,-0.365261 6.6710978,-10.644536 31.0230898,-7.905454 53.1759848,5.979738 11.098664,6.955775 20.161656,15.629408 25.520072,24.423538 5.115914,8.395733 6.195882,15.793586 3.040328,20.82967 -0.03991,0.06176 -0.08661,0.117487 -0.126524,0.177735 0,1.842121 0,3.687255 0,5.530881 1.302137,-1.057374 2.424279,-2.285706 3.316721,-3.709847 8.022938,-12.7992 -5.045121,-34.956613 -29.751076,-50.442175 z"
   id="path3433"
   style="fill:#4f4f4f;stroke:none" /><path
   d="M 8.1205141,77.439683 C 1.8229617,66.569212 15.614014,46.313417 38.2361,33.206193 55.419938,23.251511 73.638556,19.774376 84.170878,23.439037 86.518339,23.264314 88.935838,23.21009 91.366895,23.110678 81.110969,14.60951 58.552899,17.085001 36.348792,29.948215 15.784218,41.862503 2.7929747,58.476233 2.7929747,71.291248 c 0,2.906273 0.66952,5.618995 2.0695615,8.035743 1.2004662,2.071068 2.925854,3.815283 5.0752458,5.208547 C 9.5777928,82.439617 9.1673448,80.378339 8.6529669,78.247022 8.4677004,77.983433 8.282434,77.719089 8.1205141,77.439683 z"
   id="path3435"
   style="stroke:none" /><path
   d="m 45.366598,25.297726 c -3.005684,1.364645 -6.024171,2.91531 -9.018559,4.650489 C 11.120173,44.566189 -2.7115473,66.25667 4.8625362,79.326991 c 0.3953857,0.682322 2.1343295,2.882926 2.6359045,3.494456 0,0 -1.0837333,-10.054846 -0.8434894,-12.814261 C 7.630989,58.827938 20.094299,43.719687 38.236853,33.206193 53.992784,24.077679 70.770692,20.172021 81.695387,22.680649 c 4.234769,-1.546146 7.276601,-1.217787 7.276601,-1.217787 -9.697868,-5.580587 -26.453183,-3.942561 -43.60539,3.834864 z"
   id="path3437"
   style="fill:#4f4f4f;stroke:none" /><path
   d="M 37.546246,72.895384 C 21.998928,63.151574 10.300784,49.650472 7.7424501,38.501348 6.7935245,34.366744 7.1557731,30.844422 8.7862683,28.008942 9.1357139,25.90775 9.6538574,23.679281 9.3985513,21.69934 7.9706442,22.805667 6.7543625,24.115335 5.7963995,25.644159 3.4647537,29.363044 2.8690397,34.099388 4.0725177,39.341825 6.8846515,51.60104 18.944291,65.680537 35.545971,76.086334 c 21.957838,13.763186 44.640925,16.945099 55.05124,8.498909 0,-1.842874 0,-3.687254 0,-5.530881 -6.836781,10.426131 -31.0261,7.646382 -53.050965,-6.158978 z"
   id="path3439"
   style="stroke:none" /><path
   d="m 91.366142,23.111432 c -2.43181,0.09941 -4.848556,0.152129 -7.196017,0.328358 3.333288,1.159798 5.904424,3.028278 7.418186,5.640836 1.711832,2.955226 2.003288,6.620639 0.866083,10.893817 C 89.509712,51.02792 77.348404,64.115562 61.470468,73.314115 45.595545,82.511916 28.19481,86.55238 17.140579,83.609206 c -3.868754,-1.02951 -6.710259,-2.838494 -8.4876121,-5.36143 0.5143779,2.131316 0.925579,4.191087 1.2848151,6.288514 1.790909,1.160551 3.871014,2.08387 6.232785,2.713475 12.153779,3.233878 30.236837,-0.855539 47.189468,-10.67993 16.954138,-9.821381 29.496523,-23.474613 32.734167,-35.627639 1.384226,-5.199509 0.953444,-9.953929 -1.24716,-13.751137 -0.908257,-1.566481 -2.083117,-2.922089 -3.4809,-4.079627 z"
   id="path3441"
   style="stroke:none" /><path
   d="m 50.393644,23.16189 -1.194441,-0.518143 -5.137001,2.208135 1.304396,0.445844 5.027046,-2.135836 z"
   id="path3443"
   style="fill:#1c1c1c;stroke:none" /></svg>