<?xml version="1.0" encoding="UTF-8" standalone="no"?>
<!-- Created with Inkscape (http://www.inkscape.org/) -->

<svg
   xmlns:dc="http://purl.org/dc/elements/1.1/"
   xmlns:cc="http://creativecommons.org/ns#"
   xmlns:rdf="http://www.w3.org/1999/02/22-rdf-syntax-ns#"
   xmlns:svg="http://www.w3.org/2000/svg"
   xmlns="http://www.w3.org/2000/svg"
   xmlns:xlink="http://www.w3.org/1999/xlink"
   version="1.1"
   width="126.697"
   height="128.457"
   viewBox="0 0 126.697 128.457"
   id="svg2"
   xml:space="preserve"
   style="overflow:visible"><metadata
   id="metadata350"><rdf:RDF><cc:Work
       rdf:about=""><dc:format>image/svg+xml</dc:format><dc:type
         rdf:resource="http://purl.org/dc/dcmitype/StillImage" /><dc:title></dc:title></cc:Work></rdf:RDF></metadata><defs
   id="defs348">
			
			
			
			
			
			
			
			
		<linearGradient
   x1="104.6978"
   y1="293.56931"
   x2="111.2827"
   y2="285.5722"
   id="linearGradient3503"
   xlink:href="#XMLID_122_"
   gradientUnits="userSpaceOnUse"
   gradientTransform="matrix(1,0,0,-1,-34.0464,363.7285)" /><linearGradient
   x1="120.7065"
   y1="314.7334"
   x2="118.4702"
   y2="317.1293"
   id="linearGradient3505"
   xlink:href="#XMLID_123_"
   gradientUnits="userSpaceOnUse"
   gradientTransform="matrix(1,0,0,-1,-34.0464,363.7285)" /><linearGradient
   x1="125.0337"
   y1="308.4805"
   x2="122.4785"
   y2="311.03561"
   id="linearGradient3507"
   xlink:href="#XMLID_124_"
   gradientUnits="userSpaceOnUse"
   gradientTransform="matrix(1,0,0,-1,-34.0464,363.7285)" /><linearGradient
   x1="139.3726"
   y1="340.01459"
   x2="148.5417"
   y2="329.49661"
   id="linearGradient3509"
   xlink:href="#XMLID_125_"
   gradientUnits="userSpaceOnUse"
   gradientTransform="matrix(1,0,0,-1,-34.0464,363.7285)" /><linearGradient
   x1="145.0327"
   y1="336.39749"
   x2="155.11951"
   y2="335.55688"
   id="linearGradient3511"
   xlink:href="#XMLID_126_"
   gradientUnits="userSpaceOnUse"
   gradientTransform="matrix(1,0,0,-1,-34.0464,363.7285)" /><linearGradient
   x1="67.374496"
   y1="69.283203"
   x2="111.5408"
   y2="-3.1675"
   id="linearGradient3513"
   xlink:href="#XMLID_116_"
   gradientUnits="userSpaceOnUse"
   gradientTransform="matrix(0.8589,-0.1324,-0.1311,0.9536,-7.3547,59.8649)" /><linearGradient
   x1="5.0770998"
   y1="-3.8290999"
   x2="-2.5373001"
   y2="-11.4436"
   id="linearGradient3515"
   xlink:href="#XMLID_117_"
   gradientUnits="userSpaceOnUse"
   gradientTransform="matrix(0.7174,0.4832,-0.6966,0.9247,61.9966,70.9479)" /><linearGradient
   x1="25.0322"
   y1="9.3188"
   x2="17.417801"
   y2="1.7043999"
   id="linearGradient3517"
   xlink:href="#XMLID_118_"
   gradientUnits="userSpaceOnUse"
   gradientTransform="matrix(0.7174,0.4832,-0.6966,0.9247,61.9966,70.9479)" /><linearGradient
   x1="12.8218"
   y1="-0.12890001"
   x2="4.2536998"
   y2="-8.0614004"
   id="linearGradient3519"
   xlink:href="#XMLID_119_"
   gradientUnits="userSpaceOnUse"
   gradientTransform="matrix(0.7174,0.4832,-0.6966,0.9247,61.9966,70.9479)" /><linearGradient
   x1="30.200701"
   y1="15.9375"
   x2="19.826599"
   y2="8.2079"
   id="linearGradient3521"
   xlink:href="#XMLID_120_"
   gradientUnits="userSpaceOnUse"
   gradientTransform="matrix(0.7174,0.4832,-0.6966,0.9247,61.9966,70.9479)" /><linearGradient
   x1="33.870098"
   y1="24.9473"
   x2="28.314899"
   y2="20.3179"
   id="linearGradient3523"
   xlink:href="#XMLID_121_"
   gradientUnits="userSpaceOnUse"
   gradientTransform="matrix(0.7174,0.4832,-0.6966,0.9247,61.9966,70.9479)" /></defs>
		<g
   transform="matrix(0.82463656,0,0,1,-8.7122655,-2.4237169)"
   id="g5"
   style="opacity:0.2;fill:#b3b3b3">
				<path
   d="m 30.357,100.785 c 17.161,-5.564 85.75585,-8.575148 117.18485,-6.085148 2.131,0.169 2.55938,0.794926 4.45038,0.302926 2.976,-0.772 9.00301,17.456782 6.09901,17.249782 -5.818,0.771 -45.80624,2.92044 -52.55024,3.34744 -0.11,0.916 -17.933,12.857 -17.933,12.857 0,0 -24.289,-12.527 -31.408,-13.091 -31.432,-2.488 -43.002,-9.016 -25.843,-14.581 z"
   id="path7"
   style="fill:#b3b3b3" />
			</g><g
   transform="matrix(1.136085,0,0,1.136085,-36.377911,-20.389533)"
   id="g93">
				<g
   id="g95">
					<g
   id="g97">
						<path
   d="M 87.152,34.103 C 100.09,66.71 100.275,95.734 87.61,128.457 70.055,127.623 52.501,126.769 34.948,125.896 46.514,95.65 46.287,68.861 34.219,38.813 51.865,37.265 69.51,35.694 87.152,34.103 z"
   id="path99" />
						
							<linearGradient
   x1="67.374496"
   y1="69.283203"
   x2="111.5408"
   y2="-3.1675"
   id="XMLID_116_"
   gradientUnits="userSpaceOnUse"
   gradientTransform="matrix(0.8589,-0.1324,-0.1311,0.9536,-7.3547,59.8649)">
							<stop
   id="stop102"
   style="stop-color:#fdfeed;stop-opacity:1"
   offset="0" />
							<stop
   id="stop104"
   style="stop-color:#fff24b;stop-opacity:1"
   offset="1" />
							<midPointStop
   offset="0"
   style="stop-color:#FDFEED"
   id="midPointStop106" />
							<midPointStop
   offset="0.5"
   style="stop-color:#FDFEED"
   id="midPointStop108" />
							<midPointStop
   offset="1"
   style="stop-color:#FFF24B"
   id="midPointStop110" />
						</linearGradient>
						<path
   d="M 86.163,123.884 C 96.321,94.417 96.161,68.19 85.739,38.82 70.307,40.1 54.874,41.366 39.438,42.619 c 9.69,27.648 9.888,51.518 0.645,79.318 15.359,0.661 30.718,1.31 46.08,1.947 z"
   id="path112"
   style="fill:url(#linearGradient3513)" />
						
							<linearGradient
   x1="5.0770998"
   y1="-3.8290999"
   x2="-2.5373001"
   y2="-11.4436"
   id="XMLID_117_"
   gradientUnits="userSpaceOnUse"
   gradientTransform="matrix(0.7174,0.4832,-0.6966,0.9247,61.9966,70.9479)">
							<stop
   id="stop115"
   style="stop-color:#d8daa1;stop-opacity:1"
   offset="0" />
							<stop
   id="stop117"
   style="stop-color:#5c5c3a;stop-opacity:1"
   offset="1" />
							<midPointStop
   offset="0"
   style="stop-color:#D8DAA1"
   id="midPointStop119" />
							<midPointStop
   offset="0.5"
   style="stop-color:#D8DAA1"
   id="midPointStop121" />
							<midPointStop
   offset="1"
   style="stop-color:#5C5C3A"
   id="midPointStop123" />
						</linearGradient>
						<path
   d="m 81.045,57.229 c 1.76,-0.088 2.647,4.36 0.888,4.437 -10.327,0.439 -15.49,0.657 -25.817,1.089 -0.88,0.036 -2.061,-0.906 -2.663,-2.095 -0.604,-1.193 27.592,-3.431 27.592,-3.431 z"
   id="path125"
   style="fill:url(#linearGradient3515)" />
						
							<linearGradient
   x1="25.0322"
   y1="9.3188"
   x2="17.417801"
   y2="1.7043999"
   id="XMLID_118_"
   gradientUnits="userSpaceOnUse"
   gradientTransform="matrix(0.7174,0.4832,-0.6966,0.9247,61.9966,70.9479)">
							<stop
   id="stop128"
   style="stop-color:#d8daa1;stop-opacity:1"
   offset="0" />
							<stop
   id="stop130"
   style="stop-color:#5c5c3a;stop-opacity:1"
   offset="1" />
							<midPointStop
   offset="0"
   style="stop-color:#D8DAA1"
   id="midPointStop132" />
							<midPointStop
   offset="0.5"
   style="stop-color:#D8DAA1"
   id="midPointStop134" />
							<midPointStop
   offset="1"
   style="stop-color:#5C5C3A"
   id="midPointStop136" />
						</linearGradient>
						<path
   d="m 86.202,79.029 c 1.76,-0.088 2.647,4.361 0.889,4.438 -10.327,0.439 -15.49,0.657 -25.818,1.09 -0.88,0.035 -2.061,-0.906 -2.662,-2.096 -0.606,-1.193 27.591,-3.432 27.591,-3.432 z"
   id="path138"
   style="fill:url(#linearGradient3517)" />
						
							<linearGradient
   x1="12.8218"
   y1="-0.12890001"
   x2="4.2536998"
   y2="-8.0614004"
   id="XMLID_119_"
   gradientUnits="userSpaceOnUse"
   gradientTransform="matrix(0.7174,0.4832,-0.6966,0.9247,61.9966,70.9479)">
							<stop
   id="stop141"
   style="stop-color:#d8daa1;stop-opacity:1"
   offset="0" />
							<stop
   id="stop143"
   style="stop-color:#5c5c3a;stop-opacity:1"
   offset="1" />
							<midPointStop
   offset="0"
   style="stop-color:#D8DAA1"
   id="midPointStop145" />
							<midPointStop
   offset="0.5"
   style="stop-color:#D8DAA1"
   id="midPointStop147" />
							<midPointStop
   offset="1"
   style="stop-color:#5C5C3A"
   id="midPointStop149" />
						</linearGradient>
						<path
   d="m 82.909,68.591 c 0.883,-0.026 1.469,4.188 0.592,4.212 -9.217,0.223 -13.822,0.332 -23.038,0.547 -0.882,0.022 -1.961,-0.949 -2.439,-2.166 -0.481,-1.22 24.885,-2.593 24.885,-2.593 z"
   id="path151"
   style="fill:url(#linearGradient3519)" />
						
							<linearGradient
   x1="30.200701"
   y1="15.9375"
   x2="19.826599"
   y2="8.2079"
   id="XMLID_120_"
   gradientUnits="userSpaceOnUse"
   gradientTransform="matrix(0.7174,0.4832,-0.6966,0.9247,61.9966,70.9479)">
							<stop
   id="stop154"
   style="stop-color:#d8daa1;stop-opacity:1"
   offset="0" />
							<stop
   id="stop156"
   style="stop-color:#5c5c3a;stop-opacity:1"
   offset="1" />
							<midPointStop
   offset="0"
   style="stop-color:#D8DAA1"
   id="midPointStop158" />
							<midPointStop
   offset="0.5"
   style="stop-color:#D8DAA1"
   id="midPointStop160" />
							<midPointStop
   offset="1"
   style="stop-color:#5C5C3A"
   id="midPointStop162" />
						</linearGradient>
						<path
   d="m 82.396,90.594 c 0.879,0 0.491,4.541 -0.388,4.537 -8.232,-0.178 -12.35,-0.264 -20.58,-0.439 -0.879,-0.008 -1.752,-1.016 -1.981,-2.248 -0.23,-1.232 22.949,-1.85 22.949,-1.85 z"
   id="path164"
   style="fill:url(#linearGradient3521)" />
						
							<linearGradient
   x1="33.870098"
   y1="24.9473"
   x2="28.314899"
   y2="20.3179"
   id="XMLID_121_"
   gradientUnits="userSpaceOnUse"
   gradientTransform="matrix(0.7174,0.4832,-0.6966,0.9247,61.9966,70.9479)">
							<stop
   id="stop167"
   style="stop-color:#d8daa1;stop-opacity:1"
   offset="0" />
							<stop
   id="stop169"
   style="stop-color:#5c5c3a;stop-opacity:1"
   offset="1" />
							<midPointStop
   offset="0"
   style="stop-color:#D8DAA1"
   id="midPointStop171" />
							<midPointStop
   offset="0.5"
   style="stop-color:#D8DAA1"
   id="midPointStop173" />
							<midPointStop
   offset="1"
   style="stop-color:#5C5C3A"
   id="midPointStop175" />
						</linearGradient>
						<path
   d="m 55.294,101.29 c 10.653,0.272 15.979,0.407 26.635,0.679 0.876,0.016 0.247,4.354 -0.628,4.331 0,0 -27.29,-1.614 -27.389,-2.827 -0.098,-1.219 0.507,-2.2 1.382,-2.183 z"
   id="path177"
   style="fill:url(#linearGradient3523)" />
					</g>
				</g>
			</g><polygon
   points="59.779,83.965 94.831,95.598 95.225,85.771 67.202,83.391 "
   transform="matrix(1.136085,0,0,1.136085,-36.377911,-20.389533)"
   id="polygon179"
   style="opacity:0.2" /><g
   transform="matrix(1.136085,0,0,1.136085,-36.377911,-20.389533)"
   id="g181">
				<g
   id="g183">
					<path
   d="m 108.514,19.899 c -0.164,0.144 -1.131,1.079 -8.436,8.362 0,0 0.086,-0.056 0.135,-0.087 -0.268,0.217 -2.553,2.55 -31.6,32.208 l -0.373,0.383 -8.462,23.199 5.239,1.122 19.686,-8.523 31.66,-32.329 c 0,0 -0.021,0.002 -0.023,0.002 0.113,-0.093 0.24,-0.218 0.404,-0.383 0.047,-0.049 0.547,-0.472 0.547,-0.472 l 0.041,-0.033 0.047,-0.063 c 0.248,-0.321 4.795,-5.219 7.791,-8.433 0.836,-1.254 1.238,-2.71 1.238,-4.246 0,-2.898 -1.432,-6.081 -4.092,-8.725 -0.011,-0.011 -0.238,-0.225 -0.238,-0.225 -1.601,-1.641 -3.567,-2.737 -5.832,-3.245 -2.874,-0.83 -5.77,-0.275 -7.732,1.488 z m 0.011,-0.01 c 0.013,-0.009 0.024,-0.02 0.024,-0.02 -0.004,0.004 -0.011,0.01 -0.024,0.02 z"
   id="path185" />
					<path
   d="m 121.963,22.236 -0.229,-0.214 c -1.688,-1.73 -3.619,-2.679 -5.6,-3.122 -2.831,-0.818 -5.54,-0.22 -7.313,1.388 -0.115,0.075 -8.394,8.328 -8.394,8.328 C 100.42,28.619 68.97,60.732 68.97,60.732 l -0.3,0.306 -8.228,22.56 4.521,0.967 19.449,-8.422 31.592,-32.257 c -0.006,0.009 0.414,-0.414 0.459,-0.46 0.228,-0.193 0.504,-0.426 0.504,-0.426 0,-0.083 7.836,-8.487 7.836,-8.487 2.194,-3.302 1.05,-8.411 -2.84,-12.277 z"
   id="path187" />
				</g>
				<g
   id="g189">
					<path
   d="m 121.963,22.236 -0.229,-0.214 c -1.688,-1.73 -3.619,-2.679 -5.6,-3.122 -2.831,-0.818 -5.54,-0.22 -7.313,1.388 -0.115,0.075 -8.394,8.328 -8.394,8.328 C 100.42,28.619 68.97,60.732 68.97,60.732 l -0.3,0.306 -8.228,22.56 4.521,0.967 19.449,-8.422 31.592,-32.257 c -0.006,0.009 0.414,-0.414 0.459,-0.46 0.228,-0.193 0.504,-0.426 0.504,-0.426 0,-0.083 7.836,-8.487 7.836,-8.487 2.194,-3.302 1.05,-8.411 -2.84,-12.277 z"
   id="path191" />
				</g>
				
					<linearGradient
   x1="104.6978"
   y1="293.56931"
   x2="111.2827"
   y2="285.5722"
   id="XMLID_122_"
   gradientUnits="userSpaceOnUse"
   gradientTransform="matrix(1,0,0,-1,-34.0464,363.7285)">
					<stop
   id="stop194"
   style="stop-color:#fffffa;stop-opacity:1"
   offset="0" />
					<stop
   id="stop196"
   style="stop-color:#f49333;stop-opacity:1"
   offset="1" />
					<midPointStop
   offset="0"
   style="stop-color:#FFFFFA"
   id="midPointStop198" />
					<midPointStop
   offset="0.5"
   style="stop-color:#FFFFFA"
   id="midPointStop200" />
					<midPointStop
   offset="1"
   style="stop-color:#F49333"
   id="midPointStop202" />
				</linearGradient>
				<polygon
   points="83.59,73.273 80.152,64.259 71.579,61.789 64.274,79.441 65.57,81.428 "
   id="polygon204"
   style="fill:url(#linearGradient3503)" />
				<polygon
   points="69.847,80.2 67.027,77.314 66.062,74.146 63.551,79.441 65.389,82.514 "
   id="polygon206" />
				<g
   id="g208">
					<polygon
   points="71.579,61.788 101.592,31.141 102.469,36.621 107.752,41.462 113.604,42.625 83.59,73.273 77.739,72.109 72.465,67.268 "
   id="polygon210"
   style="fill:#f49300" />
				</g>
				<g
   id="g212">
					
						<linearGradient
   x1="120.7065"
   y1="314.7334"
   x2="118.4702"
   y2="317.1293"
   id="XMLID_123_"
   gradientUnits="userSpaceOnUse"
   gradientTransform="matrix(1,0,0,-1,-34.0464,363.7285)">
						<stop
   id="stop215"
   style="stop-color:#eceb23;stop-opacity:1"
   offset="0" />
						<stop
   id="stop217"
   style="stop-color:#f49333;stop-opacity:1"
   offset="1" />
						<midPointStop
   offset="0"
   style="stop-color:#ECEB23"
   id="midPointStop219" />
						<midPointStop
   offset="0.5"
   style="stop-color:#ECEB23"
   id="midPointStop221" />
						<midPointStop
   offset="1"
   style="stop-color:#F49333"
   id="midPointStop223" />
					</linearGradient>
					<polygon
   points="72.286,67.447 71.579,61.789 101.592,31.142 102.469,36.622 "
   id="polygon225"
   style="fill:url(#linearGradient3505)" />
				</g>
				<g
   id="g227">
					
						<linearGradient
   x1="125.0337"
   y1="308.4805"
   x2="122.4785"
   y2="311.03561"
   id="XMLID_124_"
   gradientUnits="userSpaceOnUse"
   gradientTransform="matrix(1,0,0,-1,-34.0464,363.7285)">
						<stop
   id="stop230"
   style="stop-color:#eceb23;stop-opacity:1"
   offset="0" />
						<stop
   id="stop232"
   style="stop-color:#fffcf7;stop-opacity:1"
   offset="1" />
						<midPointStop
   offset="0"
   style="stop-color:#ECEB23"
   id="midPointStop234" />
						<midPointStop
   offset="0.5"
   style="stop-color:#ECEB23"
   id="midPointStop236" />
						<midPointStop
   offset="1"
   style="stop-color:#FFFCF7"
   id="midPointStop238" />
					</linearGradient>
					<polygon
   points="77.739,72.109 72.454,67.27 102.469,36.622 107.752,41.463 "
   id="polygon240"
   style="fill:url(#linearGradient3507)" />
				</g>
				<path
   d="m 101.87,36.034 -29.705,30.555 6.344,6.048 30.453,-31.207 -6.524,-5.977 -0.568,0.581 z m 0.63,1.756 c 0.813,0.745 3.182,2.916 4.043,3.706 -1.145,1.169 -27.606,28.406 -28.68,29.501 C 77.05,70.253 74.68,68.082 73.818,67.293 74.963,66.124 101.429,38.886 102.5,37.79 z"
   id="path242" />
				<g
   id="g244">
					
						<linearGradient
   x1="139.3726"
   y1="340.01459"
   x2="148.5417"
   y2="329.49661"
   id="XMLID_125_"
   gradientUnits="userSpaceOnUse"
   gradientTransform="matrix(1,0,0,-1,-34.0464,363.7285)">
						<stop
   id="stop247"
   style="stop-color:#ff9999;stop-opacity:1"
   offset="0.0279" />
						<stop
   id="stop249"
   style="stop-color:#ff9f9f;stop-opacity:1"
   offset="0.1116" />
						<stop
   id="stop251"
   style="stop-color:#ffb0b0;stop-opacity:1"
   offset="0.2238" />
						<stop
   id="stop253"
   style="stop-color:#ffcccc;stop-opacity:1"
   offset="0.35229999" />
						<stop
   id="stop255"
   style="stop-color:#fff3f3;stop-opacity:1"
   offset="0.49180001" />
						<stop
   id="stop257"
   style="stop-color:#ffffff;stop-opacity:1"
   offset="0.53070003" />
						<stop
   id="stop259"
   style="stop-color:#ffe6e6;stop-opacity:1"
   offset="0.60159999" />
						<stop
   id="stop261"
   style="stop-color:#ffc5c5;stop-opacity:1"
   offset="0.71289998" />
						<stop
   id="stop263"
   style="stop-color:#ffacac;stop-opacity:1"
   offset="0.81919998" />
						<stop
   id="stop265"
   style="stop-color:#ff9e9e;stop-opacity:1"
   offset="0.91750002" />
						<stop
   id="stop267"
   style="stop-color:#ff9999;stop-opacity:1"
   offset="1" />
						<midPointStop
   offset="0.0279"
   style="stop-color:#FF9999"
   id="midPointStop269" />
						<midPointStop
   offset="0.5"
   style="stop-color:#FF9999"
   id="midPointStop271" />
						<midPointStop
   offset="0.1116"
   style="stop-color:#FF9F9F"
   id="midPointStop273" />
						<midPointStop
   offset="0.5"
   style="stop-color:#FF9F9F"
   id="midPointStop275" />
						<midPointStop
   offset="0.2238"
   style="stop-color:#FFB0B0"
   id="midPointStop277" />
						<midPointStop
   offset="0.5"
   style="stop-color:#FFB0B0"
   id="midPointStop279" />
						<midPointStop
   offset="0.3523"
   style="stop-color:#FFCCCC"
   id="midPointStop281" />
						<midPointStop
   offset="0.5"
   style="stop-color:#FFCCCC"
   id="midPointStop283" />
						<midPointStop
   offset="0.4918"
   style="stop-color:#FFF3F3"
   id="midPointStop285" />
						<midPointStop
   offset="0.5"
   style="stop-color:#FFF3F3"
   id="midPointStop287" />
						<midPointStop
   offset="0.5307"
   style="stop-color:#FFFFFF"
   id="midPointStop289" />
						<midPointStop
   offset="0.5"
   style="stop-color:#FFFFFF"
   id="midPointStop291" />
						<midPointStop
   offset="0.6016"
   style="stop-color:#FFE6E6"
   id="midPointStop293" />
						<midPointStop
   offset="0.5"
   style="stop-color:#FFE6E6"
   id="midPointStop295" />
						<midPointStop
   offset="0.7129"
   style="stop-color:#FFC5C5"
   id="midPointStop297" />
						<midPointStop
   offset="0.5"
   style="stop-color:#FFC5C5"
   id="midPointStop299" />
						<midPointStop
   offset="0.8192"
   style="stop-color:#FFACAC"
   id="midPointStop301" />
						<midPointStop
   offset="0.5"
   style="stop-color:#FFACAC"
   id="midPointStop303" />
						<midPointStop
   offset="0.9175"
   style="stop-color:#FF9E9E"
   id="midPointStop305" />
						<midPointStop
   offset="0.5"
   style="stop-color:#FF9E9E"
   id="midPointStop307" />
						<midPointStop
   offset="1"
   style="stop-color:#FF9999"
   id="midPointStop309" />
					</linearGradient>
					<path
   d="m 120.053,24.241 c -0.078,-0.078 -0.159,-0.146 -0.239,-0.222 -1.481,-1.523 -2.951,-2.277 -4.282,-2.566 -2.007,-0.602 -3.906,-0.367 -5.095,0.831 -0.013,0.012 -0.021,0.025 -0.033,0.037 -0.146,0.09 -0.225,0.146 -0.225,0.146 l -8.726,8.819 0.156,4.58 6.006,5.742 5.85,1.161 8.727,-8.817 c 0,0 0.094,-0.181 0.212,-0.501 1.65,-2.216 0.675,-6.204 -2.351,-9.21 z"
   id="path311"
   style="fill:url(#linearGradient3509)" />
				</g>
				<path
   d="m 101.678,28.802 c -2.609,2.626 -0.797,8.476 2.503,11.755 2.308,2.293 5.532,3.77 8.214,3.76 1.415,-0.005 2.588,-0.435 3.393,-1.242 0.325,-0.33 0.324,-0.863 -0.006,-1.19 -0.328,-0.326 -0.861,-0.325 -1.188,0.005 -0.608,0.613 -1.534,0.745 -2.203,0.747 -2.225,0.007 -5.047,-1.308 -7.023,-3.271 -2.943,-2.926 -4.287,-7.651 -2.578,-9.371 0.326,-0.33 0.407,-0.869 0.078,-1.195 -0.328,-0.326 -0.864,-0.326 -1.19,0.002 z"
   id="path313" />
				<g
   id="g315">
					
						<linearGradient
   x1="145.0327"
   y1="336.39749"
   x2="155.11951"
   y2="335.55688"
   id="XMLID_126_"
   gradientUnits="userSpaceOnUse"
   gradientTransform="matrix(1,0,0,-1,-34.0464,363.7285)">
						<stop
   id="stop318"
   style="stop-color:#ffffff;stop-opacity:1"
   offset="0" />
						<stop
   id="stop320"
   style="stop-color:#ffefef;stop-opacity:1"
   offset="0.2071" />
						<stop
   id="stop322"
   style="stop-color:#ffc7c7;stop-opacity:1"
   offset="0.60769999" />
						<stop
   id="stop324"
   style="stop-color:#ff9999;stop-opacity:1"
   offset="1" />
						<midPointStop
   offset="0"
   style="stop-color:#FFFFFF"
   id="midPointStop326" />
						<midPointStop
   offset="0.5"
   style="stop-color:#FFFFFF"
   id="midPointStop328" />
						<midPointStop
   offset="0.2071"
   style="stop-color:#FFEFEF"
   id="midPointStop330" />
						<midPointStop
   offset="0.5"
   style="stop-color:#FFEFEF"
   id="midPointStop332" />
						<midPointStop
   offset="0.6077"
   style="stop-color:#FFC7C7"
   id="midPointStop334" />
						<midPointStop
   offset="0.5"
   style="stop-color:#FFC7C7"
   id="midPointStop336" />
						<midPointStop
   offset="1"
   style="stop-color:#FF9999"
   id="midPointStop338" />
					</linearGradient>
					<path
   d="m 112.987,31.326 c -3.168,-3.158 -4.156,-7.302 -2.211,-9.255 1.947,-1.951 6.094,-0.975 9.26,2.185 3.17,3.159 4.158,7.301 2.211,9.253 -1.946,1.953 -6.09,0.975 -9.26,-2.183 z"
   id="path340"
   style="fill:url(#linearGradient3511)" />
				</g>
				<path
   d="m 109.329,21.154 c -0.813,0.818 -1.24,1.987 -1.234,3.379 0.008,2.562 1.486,5.683 3.769,7.948 2.318,2.305 5.517,3.788 8.147,3.78 1.389,-0.004 2.545,-0.432 3.344,-1.236 0.327,-0.329 0.325,-0.86 -0.004,-1.188 -0.329,-0.328 -0.859,-0.326 -1.188,0.004 -0.604,0.608 -1.506,0.739 -2.156,0.741 -2.174,0.006 -4.971,-1.316 -6.959,-3.292 -1.949,-1.938 -3.266,-4.656 -3.271,-6.763 -0.002,-0.652 0.003,-1.693 0.624,-2.317 0.327,-0.329 0.447,-0.731 0.118,-1.059 -0.329,-0.328 -0.862,-0.324 -1.19,0.003 z"
   id="path342" />
			</g><path
   d="m 43.947844,46.713328 c -0.589628,0.131786 -0.962264,0.715734 -0.829342,1.305362 l 1.810919,8.134369 7.336837,6.73812 8.586531,1.901806 c 0.5919,0.128378 1.173576,-0.244258 1.303089,-0.83275 0.01931,-0.07953 0.02499,-0.159052 0.02499,-0.238578 0,-0.501014 -0.347642,-0.954311 -0.856608,-1.065648 0,0 -7.477711,-1.655276 -8.012808,-1.775701 -0.391949,-0.35673 -5.941724,-5.456616 -6.397294,-5.873559 -0.13633,-0.614622 -1.660957,-7.461807 -1.660957,-7.461807 -0.130649,-0.590764 -0.714597,-0.961128 -1.305361,-0.831614 z"
   id="path344" />
	</svg>