<?xml version="1.0" encoding="UTF-8" standalone="no"?>
<!-- Created with Inkscape (http://www.inkscape.org/) -->

<svg
   xmlns:dc="http://purl.org/dc/elements/1.1/"
   xmlns:cc="http://creativecommons.org/ns#"
   xmlns:rdf="http://www.w3.org/1999/02/22-rdf-syntax-ns#"
   xmlns:svg="http://www.w3.org/2000/svg"
   xmlns="http://www.w3.org/2000/svg"
   xmlns:xlink="http://www.w3.org/1999/xlink"
   xmlns:sodipodi="http://sodipodi.sourceforge.net/DTD/sodipodi-0.dtd"
   xmlns:inkscape="http://www.inkscape.org/namespaces/inkscape"
   version="1.1"
   width="128"
   height="74.8274"
   viewBox="0 0 128 74.827402"
   id="svg2"
   xml:space="preserve"
   style="overflow:visible"
   inkscape:version="0.48.1 r9760"
   sodipodi:docname="alltray.svg"><sodipodi:namedview
   pagecolor="#ffffff"
   bordercolor="#666666"
   borderopacity="1"
   objecttolerance="10"
   gridtolerance="10"
   guidetolerance="10"
   inkscape:pageopacity="0"
   inkscape:pageshadow="2"
   inkscape:window-width="1280"
   inkscape:window-height="752"
   id="namedview92"
   showgrid="false"
   inkscape:zoom="3.1512689"
   inkscape:cx="81.395782"
   inkscape:cy="62.800299"
   inkscape:window-x="-4"
   inkscape:window-y="-3"
   inkscape:window-maximized="1"
   inkscape:current-layer="svg2" /><metadata
   id="metadata106"><rdf:RDF><cc:Work
       rdf:about=""><dc:format>image/svg+xml</dc:format><dc:type
         rdf:resource="http://purl.org/dc/dcmitype/StillImage" /><dc:title /></cc:Work></rdf:RDF></metadata><defs
   id="defs153"><linearGradient
   x1="58.167"
   y1="76.804703"
   x2="58.167"
   y2="2.8750999"
   id="linearGradient4276"
   gradientUnits="userSpaceOnUse">
						<stop
   id="stop4278"
   style="stop-color:#999999;stop-opacity:1"
   offset="0.05" />
						
						<stop
   id="stop4280"
   style="stop-color:#666666;stop-opacity:0"
   offset="0.66284686" />
						<midPointStop
   offset="0.05"
   style="stop-color:#999999"
   id="midPointStop4282" />
						<midPointStop
   offset="0.5063"
   style="stop-color:#999999"
   id="midPointStop4284" />
						<midPointStop
   offset="0.5778"
   style="stop-color:#7F7F7F"
   id="midPointStop4286" />
						<midPointStop
   offset="0.5"
   style="stop-color:#7F7F7F"
   id="midPointStop4288" />
						<midPointStop
   offset="0.8944"
   style="stop-color:#666666"
   id="midPointStop4290" />
					</linearGradient><linearGradient
   id="linearGradient4268"><stop
     id="stop4270"
     style="stop-color:#e6e6e6;stop-opacity:1"
     offset="0" /><stop
     id="stop4272"
     style="stop-color:#e6e6e6;stop-opacity:0"
     offset="1" /></linearGradient><linearGradient
   id="linearGradient4252"><stop
     id="stop4254"
     style="stop-color:#cccccc;stop-opacity:1"
     offset="0" /><stop
     id="stop4256"
     style="stop-color:#cccccc;stop-opacity:0"
     offset="1" /></linearGradient>
			
		<linearGradient
   x1="58.065399"
   y1="123.8135"
   x2="58.065399"
   y2="-0.44999999"
   id="linearGradient3039"
   xlink:href="#XMLID_19_"
   gradientUnits="userSpaceOnUse" /><linearGradient
   x1="57.348598"
   y1="121.5049"
   x2="58.271099"
   y2="35.722401"
   id="linearGradient3041"
   xlink:href="#XMLID_20_"
   gradientUnits="userSpaceOnUse" /><linearGradient
   x1="58.167"
   y1="76.804703"
   x2="58.167"
   y2="2.8750999"
   id="linearGradient3043"
   xlink:href="#XMLID_21_"
   gradientUnits="userSpaceOnUse" /><linearGradient
   x1="58.2607"
   y1="5.0254002"
   x2="58.2607"
   y2="38.509701"
   id="linearGradient3045"
   xlink:href="#XMLID_22_"
   gradientUnits="userSpaceOnUse" /><linearGradient
   x1="57.276402"
   y1="81.820297"
   x2="63.403801"
   y2="25.316799"
   id="linearGradient3047"
   xlink:href="#XMLID_23_"
   gradientUnits="userSpaceOnUse" /><linearGradient
   x1="44.637699"
   y1="74.465797"
   x2="46.225899"
   y2="114.6298"
   id="linearGradient3049"
   xlink:href="#XMLID_24_"
   gradientUnits="userSpaceOnUse" />
				
				
			<linearGradient
   x1="-284.46542"
   y1="159.68958"
   x2="129.03865"
   y2="159.68958"
   id="linearGradient4250"
   xlink:href="#linearGradient4276"
   gradientUnits="userSpaceOnUse" /><linearGradient
   x1="-283.99802"
   y1="159.36166"
   x2="53.808922"
   y2="159.36166"
   id="linearGradient4258"
   xlink:href="#linearGradient4252"
   gradientUnits="userSpaceOnUse" /><linearGradient
   x1="-283.99802"
   y1="159.36166"
   x2="53.808922"
   y2="159.36166"
   id="linearGradient4274"
   xlink:href="#linearGradient4268"
   gradientUnits="userSpaceOnUse" /></defs>
			
	<g
   transform="matrix(0.46662435,0,0,0.48062643,133.46643,-46.318641)"
   id="g4246"><rect
     width="271.50507"
     height="122.63634"
     x="-283.96542"
     y="98.371399"
     id="rect3462"
     style="fill:none;stroke:url(#linearGradient4250);stroke-width:4;stroke-miterlimit:4;stroke-opacity:1;stroke-dasharray:none" /><rect
     width="264.94696"
     height="115.42244"
     x="-281.99802"
     y="101.65044"
     id="rect4244"
     style="fill:url(#linearGradient4258);fill-opacity:1;stroke:url(#linearGradient4274);stroke-width:4;stroke-miterlimit:4;stroke-opacity:1;stroke-dasharray:none" /></g><g
   transform="matrix(0.47133847,0,0,0.45754994,71.24568,19.604395)"
   id="Layer_1_2_">
		<path
   d="m 99.316,93.12 -50.238,-26.055 1.189,49.093 30.949,-7.615 18.1,-15.423 z"
   id="path5"
   style="opacity:0.2"
   inkscape:connector-curvature="0" />
		<path
   d="M 23.955,21.731 6.541,36.755 v 8.797 c 0,0 4.966,2.573 6.634,3.438 0,2.298 0,14.198 0,15.965 C 11.728,66.202 0,76.32 0,76.32 v 13.753 l 50.268,26.085 18.631,-16.073 V 86.332 c 0,0 -8.731,-4.531 -10.717,-5.562 0,-2.694 0,-42.985 0,-42.985 l -33.01,-17.104 -1.217,1.05 z"
   id="path7"
   inkscape:connector-curvature="0" />
		<path
   d="M 55.808,82.213 V 39.229 L 25.506,23.529 8.914,37.842 v 6.267 l 6.635,3.438 V 66.042 L 2.373,77.407 V 88.631 L 49.934,113.312 66.526,98.999 V 87.774 L 55.808,82.213 z"
   id="path9"
   inkscape:connector-curvature="0" />
		<g
   id="g11">
			<linearGradient
   x1="28.7749"
   y1="47.0522"
   x2="33.374298"
   y2="36.128502"
   id="XMLID_1_"
   gradientUnits="userSpaceOnUse">
				<stop
   id="stop14-9"
   style="stop-color:#3399ff;stop-opacity:1"
   offset="0" />
				<stop
   id="stop16-3"
   style="stop-color:#012df1;stop-opacity:1"
   offset="1" />
				<midPointStop
   id="midPointStop18"
   style="stop-color:#3399FF"
   offset="0" />
				<midPointStop
   id="midPointStop20-7"
   style="stop-color:#3399FF"
   offset="0.5" />
				<midPointStop
   id="midPointStop22-4"
   style="stop-color:#012DF1"
   offset="1" />
			</linearGradient>
			<path
   d="M 55.808,39.229 25.506,23.529 8.914,37.842 39.217,53.543 55.808,39.229 z"
   id="path24"
   style="fill:url(#XMLID_1_)"
   inkscape:connector-curvature="0" />
		</g>
		<g
   id="g26">
			<linearGradient
   x1="46.664101"
   y1="101.9033"
   x2="50.6894"
   y2="95.577904"
   id="XMLID_2_"
   gradientUnits="userSpaceOnUse">
				<stop
   id="stop29"
   style="stop-color:#3399ff;stop-opacity:1"
   offset="0" />
				<stop
   id="stop31"
   style="stop-color:#0d53f1;stop-opacity:1"
   offset="1" />
				<midPointStop
   id="midPointStop33"
   style="stop-color:#3399FF"
   offset="0" />
				<midPointStop
   id="midPointStop35"
   style="stop-color:#3399FF"
   offset="0.5" />
				<midPointStop
   id="midPointStop37"
   style="stop-color:#0D53F1"
   offset="1" />
			</linearGradient>
			<path
   d="M 66.525,87.774 55.807,82.212 39.217,96.526 49.934,102.088 66.525,87.774 z"
   id="path39"
   style="fill:url(#XMLID_2_)"
   inkscape:connector-curvature="0" />
		</g>
		<g
   id="g41">
			<path
   d="M 66.525,98.998 V 87.774 l -16.592,14.313 v 11.224 L 66.525,98.998 z"
   id="path43"
   style="fill:#000088"
   inkscape:connector-curvature="0" />
		</g>
		<g
   id="g45">
			<linearGradient
   x1="59.6572"
   y1="72.2314"
   x2="49.2556"
   y2="68.503197"
   id="XMLID_3_"
   gradientUnits="userSpaceOnUse">
				<stop
   id="stop48"
   style="stop-color:#0100de;stop-opacity:1"
   offset="0" />
				<stop
   id="stop50"
   style="stop-color:#000088;stop-opacity:1"
   offset="1" />
				<midPointStop
   id="midPointStop52"
   style="stop-color:#0100DE"
   offset="0" />
				<midPointStop
   id="midPointStop54"
   style="stop-color:#0100DE"
   offset="0.5" />
				<midPointStop
   id="midPointStop56"
   style="stop-color:#000088"
   offset="1" />
			</linearGradient>
			<path
   d="M 55.808,82.213 V 39.229 L 39.217,53.543 V 96.526 L 55.808,82.213 z"
   id="path58"
   style="fill:url(#XMLID_3_)"
   inkscape:connector-curvature="0" />
		</g>
		<g
   id="g60">
			<linearGradient
   x1="2.9590001"
   y1="89.756798"
   x2="20.2915"
   y2="70.254402"
   id="XMLID_4_"
   gradientUnits="userSpaceOnUse">
				<stop
   id="stop63"
   style="stop-color:#3399ff;stop-opacity:1"
   offset="0" />
				<stop
   id="stop65"
   style="stop-color:#012df1;stop-opacity:1"
   offset="1" />
				<midPointStop
   id="midPointStop67"
   style="stop-color:#3399FF"
   offset="0" />
				<midPointStop
   id="midPointStop69"
   style="stop-color:#3399FF"
   offset="0.5" />
				<midPointStop
   id="midPointStop71"
   style="stop-color:#012DF1"
   offset="1" />
			</linearGradient>
			<path
   d="M 32.141,69.93 18.965,63.094 2.373,77.407 15.549,84.244 32.141,69.93 z"
   id="path73"
   style="fill:url(#XMLID_4_)"
   inkscape:connector-curvature="0" />
		</g>
		<linearGradient
   x1="5.1610999"
   y1="69.715797"
   x2="47.0755"
   y2="79.839996"
   id="XMLID_5_"
   gradientUnits="userSpaceOnUse">
			<stop
   id="stop76"
   style="stop-color:#0000df;stop-opacity:1"
   offset="0.0056" />
			<stop
   id="stop78"
   style="stop-color:#1749ff;stop-opacity:1"
   offset="1" />
			<midPointStop
   id="midPointStop80"
   style="stop-color:#0000DF"
   offset="0.0056" />
			<midPointStop
   id="midPointStop82"
   style="stop-color:#0000DF"
   offset="0.5" />
			<midPointStop
   id="midPointStop84"
   style="stop-color:#1749FF"
   offset="1" />
		</linearGradient>
		<path
   d="M 39.217,96.526 V 59.81 53.543 L 8.914,37.842 v 6.267 l 6.635,3.438 V 84.245 L 2.373,77.407 v 11.224 l 47.561,24.681 V 102.088 L 39.217,96.526 z"
   id="path86"
   style="fill:url(#XMLID_5_)"
   inkscape:connector-curvature="0" />
		<path
   d="m 13.175,47.546 v 35.43 l 2.374,1.269 V 47.546 h -2.374 z"
   id="path88"
   inkscape:connector-curvature="0" />
		<g
   id="g90"
   style="opacity:0.7">
			<path
   d="m 20.439,35.291 c 0,-4.128 4.414,-7.637 10.566,-8.921 -0.072,0.038 22.174,11.524 22.164,11.44 -1.446,4.32 -9.354,6.925 -16.984,6.925 -8.696,0 -15.746,-4.228 -15.746,-9.444 z"
   id="path92"
   style="fill:#000088"
   inkscape:connector-curvature="0" />
		</g>
		<path
   d="m 11.901,20.429 c 0,11.265 9.165,20.429 20.429,20.429 11.265,0 20.429,-9.164 20.429,-20.429 C 52.759,9.164 43.595,0 32.33,0 21.066,0 11.901,9.164 11.901,20.429 z"
   id="path94"
   inkscape:connector-curvature="0" />
		<g
   id="g96">
			<path
   d="m 14.275,20.429 c 0,-9.972 8.083,-18.056 18.055,-18.056 9.973,0 18.056,8.084 18.056,18.056 0,9.972 -8.083,18.055 -18.056,18.055 -9.972,0 -18.055,-8.084 -18.055,-18.055 z"
   id="path98"
   inkscape:connector-curvature="0" />
		</g>
		<radialGradient
   cx="27.455601"
   cy="14.7559"
   r="17.763201"
   fx="27.455601"
   fy="14.7559"
   id="XMLID_6_"
   gradientUnits="userSpaceOnUse">
			<stop
   id="stop101"
   style="stop-color:#ffffff;stop-opacity:1"
   offset="0.0335" />
			<stop
   id="stop103"
   style="stop-color:#0000df;stop-opacity:1"
   offset="0.43020001" />
			<stop
   id="stop105"
   style="stop-color:#0000a9;stop-opacity:1"
   offset="1" />
			<midPointStop
   id="midPointStop107"
   style="stop-color:#FFFFFF"
   offset="0.0335" />
			<midPointStop
   id="midPointStop109"
   style="stop-color:#FFFFFF"
   offset="0.5" />
			<midPointStop
   id="midPointStop111"
   style="stop-color:#0000DF"
   offset="0.4302" />
			<midPointStop
   id="midPointStop113"
   style="stop-color:#0000DF"
   offset="0.5" />
			<midPointStop
   id="midPointStop115"
   style="stop-color:#0000A9"
   offset="1" />
		</radialGradient>
		<path
   d="m 14.275,20.429 c 0,-9.972 8.083,-18.056 18.055,-18.056 9.973,0 18.056,8.084 18.056,18.056 0,9.972 -8.083,18.055 -18.056,18.055 -9.972,0 -18.055,-8.084 -18.055,-18.055 z"
   id="path117"
   style="fill:url(#XMLID_6_)"
   inkscape:connector-curvature="0" />
	</g></svg>