<?xml version="1.0" encoding="UTF-8" standalone="no"?>
<!-- (c)2005 by yellowTAB GmbH. All rights reserved. It is prohibited to redistribute or publish thisor derivitive works of this data without prior express written permission from yellowTAB GmbH.  -->
<svg
   xmlns:dc="http://purl.org/dc/elements/1.1/"
   xmlns:cc="http://creativecommons.org/ns#"
   xmlns:rdf="http://www.w3.org/1999/02/22-rdf-syntax-ns#"
   xmlns:svg="http://www.w3.org/2000/svg"
   xmlns="http://www.w3.org/2000/svg"
   xmlns:sodipodi="http://sodipodi.sourceforge.net/DTD/sodipodi-0.dtd"
   xmlns:inkscape="http://www.inkscape.org/namespaces/inkscape"
   width="126"
   height="127"
   viewBox="0.348 -0.184 126 127"
   overflow="visible"
   enable-background="new 0.348 -0.184 126 127"
   xml:space="preserve"
   id="svg2"
   sodipodi:version="0.32"
   inkscape:version="0.46"
   sodipodi:docname="CD_player.svg"
   inkscape:output_extension="org.inkscape.output.svg.inkscape"><metadata
   id="metadata153"><rdf:RDF><cc:Work
       rdf:about=""><dc:format>image/svg+xml</dc:format><dc:type
         rdf:resource="http://purl.org/dc/dcmitype/StillImage" /></cc:Work></rdf:RDF></metadata><defs
   id="defs151"><inkscape:perspective
     sodipodi:type="inkscape:persp3d"
     inkscape:vp_x="0 : 63.5 : 1"
     inkscape:vp_y="0 : 1000 : 0"
     inkscape:vp_z="126 : 63.5 : 1"
     inkscape:persp3d-origin="63 : 42.333333 : 1"
     id="perspective155" /><inkscape:perspective
     id="perspective3104"
     inkscape:persp3d-origin="64 : 42 : 1"
     inkscape:vp_z="128 : 63 : 1"
     inkscape:vp_y="0 : 1000 : 0"
     inkscape:vp_x="0 : 63 : 1"
     sodipodi:type="inkscape:persp3d" /><linearGradient
     id="gradient0"
     gradientUnits="userSpaceOnUse"
     x1="20.120001"
     y1="56.060001"
     x2="105.48"
     y2="105.33"><stop
       offset="0"
       stop-color="#e6e6fa"
       id="stop2539" /><stop
       offset="0.4246"
       stop-color="#ffffff"
       id="stop2541" /><stop
       offset="0.4972"
       stop-color="#adadd2"
       id="stop2543" /><stop
       offset="0.8492"
       stop-color="#ebebff"
       id="stop2545" /></linearGradient><linearGradient
     id="gradient1"
     gradientUnits="userSpaceOnUse"
     x1="51.77"
     y1="83.010002"
     x2="80.980003"
     y2="70.5"><stop
       offset="0"
       stop-color="#ffffff"
       id="stop2550" /><stop
       offset="1"
       stop-color="#ccccf5"
       id="stop2552" /></linearGradient><linearGradient
     id="gradient2"
     gradientUnits="userSpaceOnUse"
     x1="91"
     y1="76.480003"
     x2="23.18"
     y2="82.75"><stop
       offset="0"
       stop-color="#ffffff"
       id="stop2559" /><stop
       offset="1"
       stop-color="#6a77b8"
       id="stop2561" /></linearGradient></defs><sodipodi:namedview
   inkscape:window-height="772"
   inkscape:window-width="1270"
   inkscape:pageshadow="2"
   inkscape:pageopacity="0.0"
   guidetolerance="10.0"
   gridtolerance="10.0"
   objecttolerance="10.0"
   borderopacity="1.0"
   bordercolor="#666666"
   pagecolor="#ffffff"
   id="base"
   showgrid="false"
   inkscape:zoom="3.6535433"
   inkscape:cx="14.418464"
   inkscape:cy="63.5"
   inkscape:window-x="0"
   inkscape:window-y="0"
   inkscape:current-layer="svg2" />
	<g
   id="Layer_1_2_"
   transform="matrix(0.9115167,0,0,0.9115167,11.49569,10.948276)">
		<path
   d="M 64.344,127.164 L 82.248,126.318 L 126.826,83.283 L 126.276,70.231 L 115.862,67.717 L 114.556,77.287 L 64.344,127.164 z"
   id="path5"
   style="opacity:0.2" />
		<path
   d="M 32.359,1.855 L 47.794,29.386 L 0,76.012 L 0,94.48 L 64.344,127.164 L 116.001,76.52 L 116.001,59.217 L 105.61,35.934 L 34.945,0 L 32.359,1.855 z"
   id="path7" />
		<path
   d="M 63.801,123.634 L 2.9,92.703 L 2.9,77.234 L 63.8,108.167 L 63.8,123.634 L 63.801,123.634 z"
   id="path9"
   style="fill:#ffcc00" />
		<path
   d="M 76.517,95.791 L 15.617,64.858 L 51.412,29.91 L 112.312,60.844 L 76.517,95.791 z"
   id="path11"
   style="fill:#ff6600" />
		<linearGradient
   id="XMLID_1_"
   gradientUnits="userSpaceOnUse"
   x1="79.304199"
   y1="19.7402"
   x2="73.457901"
   y2="37.070099">
			<stop
   offset="0"
   style="stop-color:#FDAC11"
   id="stop14" />
			<stop
   offset="1"
   style="stop-color:#D9590F"
   id="stop16" />
			<midPointStop
   offset="0"
   style="stop-color:#FDAC11"
   id="midPointStop18" />
			<midPointStop
   offset="0.5"
   style="stop-color:#FDAC11"
   id="midPointStop20" />
			<midPointStop
   offset="1"
   style="stop-color:#D9590F"
   id="midPointStop22" />
		</linearGradient>
		<path
   d="M 113.06,60.26 L 111.648,61.471 L 51.432,29.913 L 37.074,4.336 L 103.381,38.053 L 113.06,60.26 z"
   id="path24"
   style="fill:url(#XMLID_1_)" />
		<path
   d="M 100.151,39.606 L 40.998,10.153 L 37.074,4.336 L 98.73,35.728 L 100.151,39.606 z"
   id="path26"
   style="fill:#ffcc00" />
		<path
   d="M 18.707,66.438 L 15.494,64.679 L 51.411,29.909 L 54.513,31.514 L 18.707,66.438 z"
   id="path28"
   style="fill:#ffcc00" />
		<path
   d="M 113.101,75.302 L 63.801,123.635 L 63.801,108.168 L 113.101,59.835 L 113.101,75.302 z"
   id="path30"
   style="fill:#ff9900" />
		<path
   d="M 77.349,102.208 L 77.257,105.005 L 113.778,69.203 L 113.218,67.029 L 77.349,102.208 z"
   id="path32" />
		<path
   d="M 52.982,43.079 L 55.262,37.758 L 105.813,63.605 L 95.931,75.007 L 52.982,43.079 z"
   id="path34"
   style="opacity:0.3" />
		<g
   id="g36">
			<path
   d="M 29.991,64.461 C 29.991,77.414 45.424,87.953 64.395,87.953 C 83.366,87.953 98.799,77.414 98.799,64.461 C 98.799,51.508 83.366,40.97 64.396,40.97 C 45.424,40.97 29.991,51.508 29.991,64.461 z M 33.772,64.461 C 33.772,53.564 47.508,44.698 64.395,44.698 C 81.281,44.698 95.017,53.563 95.017,64.461 C 95.017,75.359 81.281,84.222 64.396,84.222 C 47.509,84.222 33.772,75.358 33.772,64.461 z"
   id="path38" />
			<path
   d="M 33.466,64.461 C 33.466,52.94 47.315,43.602 64.396,43.602 C 81.477,43.602 95.324,52.94 95.324,64.461 C 95.324,75.981 81.477,85.32 64.396,85.32 C 47.315,85.32 33.466,75.98 33.466,64.461 z M 64.396,69.175 C 68.028,69.175 70.973,67.064 70.973,64.461 C 70.973,61.857 68.028,59.746 64.396,59.746 C 60.762,59.746 57.818,61.856 57.818,64.461 C 57.817,67.063 60.762,69.175 64.396,69.175 z"
   id="path40"
   style="fill:#d9d9d9" />
			<linearGradient
   id="XMLID_2_"
   gradientUnits="userSpaceOnUse"
   x1="56.462399"
   y1="45.330601"
   x2="72.8955"
   y2="84.963402">
				<stop
   offset="0"
   style="stop-color:#E6E6FA"
   id="stop43" />
				<stop
   offset="0.4246"
   style="stop-color:#FFFFFF"
   id="stop45" />
				<stop
   offset="0.4972"
   style="stop-color:#ADADD2"
   id="stop47" />
				<stop
   offset="0.8492"
   style="stop-color:#EBEBFF"
   id="stop49" />
				<midPointStop
   offset="0"
   style="stop-color:#E6E6FA"
   id="midPointStop51" />
				<midPointStop
   offset="0.5"
   style="stop-color:#E6E6FA"
   id="midPointStop53" />
				<midPointStop
   offset="0.4246"
   style="stop-color:#FFFFFF"
   id="midPointStop55" />
				<midPointStop
   offset="0.5"
   style="stop-color:#FFFFFF"
   id="midPointStop57" />
				<midPointStop
   offset="0.4972"
   style="stop-color:#ADADD2"
   id="midPointStop59" />
				<midPointStop
   offset="0.5"
   style="stop-color:#ADADD2"
   id="midPointStop61" />
				<midPointStop
   offset="0.8492"
   style="stop-color:#EBEBFF"
   id="midPointStop63" />
			</linearGradient>
			<path
   d="M 33.466,64.461 C 33.466,52.94 47.315,43.602 64.396,43.602 C 81.477,43.602 95.324,52.94 95.324,64.461 C 95.324,75.981 81.477,85.32 64.396,85.32 C 47.315,85.32 33.466,75.98 33.466,64.461 z M 64.396,69.175 C 68.028,69.175 70.973,67.064 70.973,64.461 C 70.973,61.857 68.028,59.746 64.396,59.746 C 60.762,59.746 57.818,61.856 57.818,64.461 C 57.817,67.063 60.762,69.175 64.396,69.175 z"
   id="path65"
   style="fill:url(#XMLID_2_)" />
			<linearGradient
   id="XMLID_3_"
   gradientUnits="userSpaceOnUse"
   x1="59.2915"
   y1="66.647003"
   x2="76.526703"
   y2="59.260399">
				<stop
   offset="0"
   style="stop-color:#FFFFFF"
   id="stop68" />
				<stop
   offset="1"
   style="stop-color:#CCCCF5"
   id="stop70" />
				<midPointStop
   offset="0"
   style="stop-color:#FFFFFF"
   id="midPointStop72" />
				<midPointStop
   offset="0.5"
   style="stop-color:#FFFFFF"
   id="midPointStop74" />
				<midPointStop
   offset="1"
   style="stop-color:#CCCCF5"
   id="midPointStop76" />
			</linearGradient>
			<path
   d="M 51.383,64.461 C 51.383,59.612 57.207,55.685 64.396,55.685 C 71.582,55.685 77.408,59.613 77.408,64.461 C 77.408,69.307 71.582,73.236 64.396,73.236 C 57.207,73.236 51.383,69.307 51.383,64.461 z M 64.396,69.226 C 68.169,69.226 71.228,67.052 71.228,64.371 C 71.228,61.69 68.169,59.517 64.396,59.517 C 60.623,59.517 57.563,61.69 57.563,64.371 C 57.563,67.052 60.622,69.226 64.396,69.226 z"
   id="path78"
   style="fill:url(#XMLID_3_)" />
			<path
   d="M 56.865,64.461 C 56.865,67.621 60.243,70.192 64.395,70.192 C 68.546,70.192 71.924,67.621 71.924,64.461 C 71.924,61.3 68.546,58.729 64.395,58.729 C 60.243,58.729 56.865,61.3 56.865,64.461 z M 58.798,64.461 C 58.798,62.401 61.361,60.662 64.396,60.662 C 67.429,60.662 69.992,62.401 69.992,64.461 C 69.992,66.52 67.43,68.259 64.396,68.259 C 61.361,68.259 58.798,66.52 58.798,64.461 z"
   id="path80" />
			<linearGradient
   id="XMLID_4_"
   gradientUnits="userSpaceOnUse"
   x1="82.439003"
   y1="62.795898"
   x2="42.425598"
   y2="66.489403">
				<stop
   offset="0"
   style="stop-color:#FFFFFF"
   id="stop83" />
				<stop
   offset="1"
   style="stop-color:#6A77B8"
   id="stop85" />
				<midPointStop
   offset="0"
   style="stop-color:#FFFFFF"
   id="midPointStop87" />
				<midPointStop
   offset="0.5"
   style="stop-color:#FFFFFF"
   id="midPointStop89" />
				<midPointStop
   offset="1"
   style="stop-color:#6A77B8"
   id="midPointStop91" />
			</linearGradient>
			<path
   d="M 50.787,64.461 C 50.787,69.623 56.892,73.825 64.395,73.825 C 71.899,73.825 78.003,69.623 78.003,64.461 C 78.003,59.296 71.899,55.097 64.395,55.097 C 56.893,55.097 50.787,59.296 50.787,64.461 z M 52.02,64.461 C 52.02,59.976 57.572,56.328 64.396,56.328 C 71.22,56.328 76.774,59.975 76.774,64.461 C 76.774,68.945 71.22,72.594 64.396,72.594 C 57.572,72.594 52.02,68.945 52.02,64.461 z"
   id="path93"
   style="fill:url(#XMLID_4_)" />
			<path
   d="M 70.113,62.135 C 77.453,65.98 84.684,70.052 91.956,73.922 C 94.103,71.081 95.323,67.867 95.323,64.461 C 95.323,52.94 81.476,43.602 64.395,43.602 C 55.759,43.602 45.836,45.812 40.09,51.198 C 48.111,53.883 58.074,56.012 65.639,59.833 C 67.558,60.097 69.178,60.957 70.113,62.135 z"
   id="path95"
   style="opacity:0.3" />
		</g>
		<path
   d="M 112.188,60.72 L 109.071,59.17 L 73.334,94.06 L 15.467,64.668 L 2.9,77.234 L 63.8,108.167 L 112.188,60.72 z"
   id="path97"
   style="fill:#ffff00" />
		<path
   d="M 50.206,30.87 L 113.393,63.11 L 113.185,59.769 L 50.128,28.032 L 50.206,30.87 z"
   id="path99" />
		<path
   d="M 13.537,66.332 L 74.788,97.171 L 74.921,108.989 L 77.67,106.378 L 77.396,94.972 L 15.553,64.051 L 13.537,66.332 z"
   id="path101" />
		<path
   d="M 2.96,77.523 L 63.725,108.224 L 66.205,106.199 L 7.845,76.742 L 16.384,68.113 L 13.644,66.835 L 2.96,77.523 z"
   id="path103"
   style="fill:#ffffff" />
		<linearGradient
   id="XMLID_5_"
   gradientUnits="userSpaceOnUse"
   x1="63.774399"
   y1="59.871601"
   x2="63.774399"
   y2="65.5299">
			<stop
   offset="0"
   style="stop-color:#FFFFFF"
   id="stop106" />
			<stop
   offset="0.2948"
   style="stop-color:#FDFDFD"
   id="stop108" />
			<stop
   offset="0.4684"
   style="stop-color:#F4F4F6"
   id="stop110" />
			<stop
   offset="0.6105"
   style="stop-color:#E6E6E9"
   id="stop112" />
			<stop
   offset="0.7357"
   style="stop-color:#D2D2D8"
   id="stop114" />
			<stop
   offset="0.8497"
   style="stop-color:#B9B8C1"
   id="stop116" />
			<stop
   offset="0.954"
   style="stop-color:#9998A6"
   id="stop118" />
			<stop
   offset="1"
   style="stop-color:#898898"
   id="stop120" />
			<midPointStop
   offset="0"
   style="stop-color:#FFFFFF"
   id="midPointStop122" />
			<midPointStop
   offset="0.8034"
   style="stop-color:#FFFFFF"
   id="midPointStop124" />
			<midPointStop
   offset="1"
   style="stop-color:#898898"
   id="midPointStop126" />
		</linearGradient>
		<path
   d="M 58.116,63.913 C 58.116,61.904 60.649,60.275 63.774,60.275 C 66.899,60.275 69.432,61.904 69.432,63.913 C 69.432,65.922 66.899,67.551 63.774,67.551 C 60.649,67.551 58.116,65.922 58.116,63.913 z"
   id="path128"
   style="fill:url(#XMLID_5_)" />
		<path
   d="M 30.108,80.149 L 16.171,73.053 L 12.501,76.723 L 26.409,83.786 L 30.108,80.149 z"
   id="path130"
   style="fill:#33cc33" />
		<path
   d="M 28.792,81.444 L 30.109,80.149 L 16.172,73.053 L 12.502,76.723 L 14.59,77.529 L 16.611,75.508 L 28.792,81.444 z"
   id="path132"
   style="fill:#007900" />
		<path
   d="M 13.926,91.176 L 9.817,89.068 L 9.82,86.079 L 13.929,88.187 L 13.926,91.176 z"
   id="path134" />
		<path
   d="M 21.478,95.54 L 17.369,93.432 L 17.372,90.444 L 21.481,92.552 L 21.478,95.54 z"
   id="path136" />
		<path
   d="M 13.925,92.755 L 9.816,90.647 L 9.818,88.88 L 13.927,90.988 L 13.925,92.755 z"
   id="path138"
   style="fill:#a6a6a6" />
		<path
   d="M 21.476,97.119 L 17.367,95.012 L 17.369,93.245 L 21.478,95.352 L 21.476,97.119 z"
   id="path140"
   style="fill:#a6a6a6" />
		<path
   d="M 35.539,102.477 C 35.911,101.37 37.558,100.924 39.219,101.482 C 40.88,102.039 41.925,103.388 41.553,104.496 C 41.181,105.604 39.534,106.048 37.873,105.491 C 36.212,104.933 35.167,103.584 35.539,102.477 z"
   id="path142" />
		<path
   d="M 49.459,109.299 C 49.831,108.192 51.478,107.746 53.139,108.304 C 54.8,108.861 55.845,110.21 55.473,111.318 C 55.101,112.426 53.454,112.87 51.793,112.313 C 50.132,111.755 49.087,110.407 49.459,109.299 z"
   id="path144" />
		<path
   d="M 36.596,104.592 C 36.968,103.485 38.615,103.039 40.276,103.597 C 41.937,104.154 42.982,105.503 42.61,106.611 C 42.238,107.719 40.591,108.163 38.93,107.606 C 37.269,107.048 36.224,105.7 36.596,104.592 z"
   id="path146"
   style="fill:#a6a6a6" />
		<path
   d="M 50.516,111.415 C 50.888,110.308 52.535,109.862 54.196,110.42 C 55.857,110.977 56.902,112.326 56.53,113.434 C 56.158,114.542 54.511,114.986 52.85,114.429 C 51.189,113.871 50.145,112.522 50.516,111.415 z"
   id="path148"
   style="fill:#a6a6a6" />
	</g>
<path
   style="fill:#000000"
   d="M 39.471275,7.8663494 L 25.578484,4.7478963 L 25.578484,50.37796 L 29.15893,50.37796 L 29.15893,11.009552 L 39.471275,13.327767 L 39.471275,7.8828492 L 39.471275,7.8828492 L 39.471275,7.8663494 z"
   id="path2565" /><path
   style="fill:#d90f0f"
   d="M 16.313873,40.255362 C 22.847775,40.255362 28.003947,44.339051 28.003947,49.569472 C 28.003947,54.775144 22.880774,58.891832 16.313873,58.891832 C 9.7717207,58.891832 4.6155485,54.791644 4.6155485,49.569472 C 4.6155485,44.3638 9.7634707,40.255362 16.313873,40.255362 L 16.313873,40.255362 z"
   id="path2567" /><path
   style="fill:#da1414"
   d="M 16.173625,40.370861 C 22.550779,40.370861 27.566704,44.3638 27.566704,49.445724 C 27.566704,54.519398 22.567279,58.520588 16.173625,58.520588 C 9.7964707,58.520588 4.780546,54.535898 4.780546,49.445724 C 4.780546,44.37205 9.7799707,40.370861 16.173625,40.370861 L 16.173625,40.370861 z"
   id="path2569" /><path
   style="fill:#db1818"
   d="M 16.008628,40.494609 C 22.204285,40.494609 27.088211,44.355551 27.088211,49.305476 C 27.088211,54.255402 22.220784,58.132844 16.008628,58.132844 C 9.8129707,58.132844 4.9372937,54.255402 4.9372937,49.305476 C 4.9372937,44.355551 9.8129707,40.494609 16.008628,40.494609 L 16.008628,40.494609 z"
   id="path2571" /><path
   style="fill:#dc1d1d"
   d="M 15.86013,40.610107 C 21.86604,40.610107 26.609718,44.3638 26.609718,49.173478 C 26.609718,53.958406 21.899039,57.736849 15.86013,57.736849 C 9.8377197,57.736849 5.0857914,53.974906 5.0857914,49.173478 C 5.0857914,44.3803 9.8129707,40.610107 15.86013,40.610107 z"
   id="path2573" /><path
   style="fill:#dd2121"
   d="M 15.695132,40.725605 C 21.544294,40.725605 26.147725,44.3968 26.147725,49.06623 C 26.147725,53.71091 21.569044,57.406854 15.695132,57.406854 C 9.8542197,57.406854 5.2425391,53.73566 5.2425391,49.06623 C 5.2425391,44.40505 9.8294697,40.725605 15.695132,40.725605 z"
   id="path2575" /><path
   style="fill:#de2626"
   d="M 15.554885,40.841103 C 21.239049,40.841103 25.702232,44.3968 25.702232,48.934232 C 25.702232,53.446914 21.255549,57.01086 15.554885,57.01086 C 9.8707197,57.01086 5.4075366,53.471664 5.4075366,48.934232 C 5.4075366,44.42155 9.8624697,40.841103 15.554885,40.841103 z"
   id="path2577" /><path
   style="fill:#df2a2a"
   d="M 15.389887,40.964852 C 20.900804,40.964852 25.223739,44.4133 25.223739,48.802234 C 25.223739,53.166418 20.917304,56.639616 15.389887,56.639616 C 9.8872197,56.639616 5.5560344,53.199418 5.5560344,48.802234 C 5.5560344,44.42155 9.8624697,40.964852 15.389887,40.964852 z"
   id="path2579" /><path
   style="fill:#e02f2f"
   d="M 15.249639,41.08035 C 20.562559,41.08035 24.753496,44.4133 24.753496,48.670236 C 24.753496,52.902422 20.587309,56.243622 15.249639,56.243622 C 9.9202187,56.243622 5.7210317,52.927172 5.7210317,48.670236 C 5.7210317,44.42155 9.8872197,41.08035 15.249639,41.08035 L 15.249639,41.08035 z"
   id="path2581" /><path
   style="fill:#e03334"
   d="M 15.076392,41.195848 C 20.224314,41.195848 24.283253,44.4133 24.283253,48.538238 C 24.283253,52.638426 20.257314,55.864128 15.076392,55.864128 C 9.9284687,55.864128 5.8612797,52.646676 5.8612797,48.538238 C 5.8612797,44.42155 9.8954687,41.195848 15.076392,41.195848 z"
   id="path2583" /><path
   style="fill:#e13838"
   d="M 14.944394,41.319596 C 19.902569,41.319596 23.82126,44.4133 23.82126,48.39799 C 23.82126,52.36618 19.902569,55.501133 14.944394,55.501133 C 9.9697177,55.501133 6.0345267,52.39093 6.0345267,48.39799 C 6.0345267,44.438049 9.9532187,41.319596 14.944394,41.319596 z"
   id="path2585" /><path
   style="fill:#e23c3d"
   d="M 14.771146,41.435095 C 19.572574,41.435095 23.367517,44.42155 23.367517,48.265992 C 23.367517,52.093934 19.605574,55.121639 14.771146,55.121639 C 9.9779677,55.121639 6.1747747,52.110434 6.1747747,48.265992 C 6.1747747,44.454549 9.9367187,41.435095 14.771146,41.435095 L 14.771146,41.435095 z"
   id="path2587" /><path
   style="fill:#e34141"
   d="M 14.630898,41.550593 C 19.259079,41.550593 22.897274,44.454549 22.897274,48.150494 C 22.897274,51.838188 19.267329,54.750394 14.630898,54.750394 C 10.002718,54.750394 6.3562727,51.846438 6.3562727,48.150494 C 6.3562727,44.462799 9.9944677,41.550593 14.630898,41.550593 z"
   id="path2589" /><path
   style="fill:#e44646"
   d="M 14.482401,41.666091 C 18.920834,41.666091 22.460031,44.454549 22.460031,48.018496 C 22.460031,51.557692 18.953833,54.3709 14.482401,54.3709 C 10.035717,54.3709 6.5047697,51.582442 6.5047697,48.018496 C 6.5047697,44.479299 10.010968,41.666091 14.482401,41.666091 L 14.482401,41.666091 z"
   id="path2591" /><path
   style="fill:#e54a4b"
   d="M 14.325653,41.789839 C 18.590839,41.789839 21.965038,44.471049 21.965038,47.878248 C 21.965038,51.277197 18.623838,53.974906 14.325653,53.974906 C 10.035717,53.974906 6.6615177,51.293696 6.6615177,47.878248 C 6.6615177,44.471049 10.027467,41.789839 14.325653,41.789839 z"
   id="path2593" /><path
   style="fill:#e64f4f"
   d="M 14.177155,41.905337 C 18.293843,41.905337 21.527795,44.471049 21.527795,47.770999 C 21.527795,51.0297 18.293843,53.620161 14.177155,53.620161 C 10.068717,53.620161 6.8430147,51.05445 6.8430147,47.770999 C 6.8430147,44.487549 10.060467,41.905337 14.177155,41.905337 L 14.177155,41.905337 z"
   id="path2595" /><path
   style="fill:#e75354"
   d="M 14.012158,42.020836 C 17.947349,42.020836 21.041052,44.471049 21.041052,47.639001 C 21.041052,50.757454 17.947349,53.232417 14.012158,53.232417 C 10.076967,53.232417 6.9832627,50.790454 6.9832627,47.639001 C 6.9832627,44.495799 10.076967,42.020836 14.012158,42.020836 z"
   id="path2597" /><path
   style="fill:#e85858"
   d="M 13.87191,42.144584 C 17.617354,42.144584 20.579059,44.479299 20.579059,47.507003 C 20.579059,50.485208 17.617354,52.869423 13.87191,52.869423 C 10.101716,52.869423 7.1565107,50.509958 7.1565107,47.507003 C 7.1565107,44.504048 10.093466,42.144584 13.87191,42.144584 L 13.87191,42.144584 z"
   id="path2599" /><path
   style="fill:#e95c5d"
   d="M 13.706912,42.260082 C 17.279109,42.260082 20.108816,44.487549 20.108816,47.358505 C 20.108816,50.212963 17.287358,52.465179 13.706912,52.465179 C 10.126466,52.465179 7.2967587,50.229462 7.2967587,47.358505 C 7.2967587,44.512298 10.118216,42.260082 13.706912,42.260082 z"
   id="path2601" /><path
   style="fill:#ea6161"
   d="M 13.558415,42.37558 C 16.973863,42.37558 19.663323,44.512298 19.663323,47.226507 C 19.663323,49.932467 16.973863,52.085684 13.558415,52.085684 C 10.142966,52.085684 7.4535057,49.948967 7.4535057,47.226507 C 7.4535057,44.512298 10.126466,42.37558 13.558415,42.37558 z"
   id="path2603" /><path
   style="fill:#eb6566"
   d="M 13.393417,42.491079 C 16.627368,42.491079 19.17658,44.512298 19.17658,47.102759 C 19.17658,49.68497 16.643868,51.71444 13.393417,51.71444 C 10.175965,51.71444 7.6102537,49.70972 7.6102537,47.102759 C 7.6102537,44.537048 10.159465,42.491079 13.393417,42.491079 L 13.393417,42.491079 z"
   id="path2605" /><path
   style="fill:#ec6a6b"
   d="M 13.253169,42.614827 C 16.313873,42.614827 18.714587,44.512298 18.714587,46.962511 C 18.714587,49.396225 16.313873,51.326696 13.253169,51.326696 C 10.184215,51.326696 7.7670007,49.420974 7.7670007,46.962511 C 7.7670007,44.528798 10.167715,42.614827 13.253169,42.614827 z"
   id="path2607" /><path
   style="fill:#ed6f6f"
   d="M 13.088172,42.730325 C 15.975628,42.730325 18.252594,44.545298 18.252594,46.855263 C 18.252594,49.156978 15.975628,50.980201 13.088172,50.980201 C 10.200715,50.980201 7.9319987,49.165228 7.9319987,46.855263 C 7.9319987,44.553548 10.200715,42.730325 13.088172,42.730325 z"
   id="path2609" /><path
   style="fill:#ee7374"
   d="M 12.947924,42.845823 C 15.645633,42.845823 17.815351,44.545298 17.815351,46.723265 C 17.815351,48.876483 15.678633,50.600707 12.947924,50.600707 C 10.225464,50.600707 8.0804967,48.892982 8.0804967,46.723265 C 8.0804967,44.553548 10.217215,42.845823 12.947924,42.845823 z"
   id="path2611" /><path
   style="fill:#ef7878"
   d="M 12.774676,42.969571 C 15.323888,42.969571 17.320358,44.537048 17.320358,46.574767 C 17.320358,48.587737 15.323888,50.188213 12.774676,50.188213 C 10.241964,50.188213 8.2372437,48.595987 8.2372437,46.574767 C 8.2372437,44.553548 10.233714,42.969571 12.774676,42.969571 L 12.774676,42.969571 z"
   id="path2613" /><path
   style="fill:#ef7c7d"
   d="M 12.642678,43.08507 C 14.993893,43.08507 16.858365,44.545298 16.858365,46.459269 C 16.858365,48.331991 15.010393,49.833468 12.642678,49.833468 C 10.266714,49.833468 8.4022417,48.35674 8.4022417,46.459269 C 8.4022417,44.570047 10.266714,43.08507 12.642678,43.08507 z"
   id="path2615" /><path
   style="fill:#f08182"
   d="M 12.469431,43.200568 C 14.218405,43.200568 15.596134,44.553548 15.596134,46.327271 C 15.596134,48.067995 14.218405,49.437474 12.469431,49.437474 C 10.712207,49.437474 9.3509777,48.076245 9.3509777,46.327271 C 9.3509777,44.570047 10.712207,43.200568 12.469431,43.200568 L 12.469431,43.200568 z"
   id="path2617" /><path
   style="fill:#f18586"
   d="M 12.329183,43.316066 C 13.946159,43.316066 15.21664,44.586547 15.21664,46.203523 C 15.21664,47.812249 13.954409,49.090979 12.329183,49.090979 C 10.712207,49.090979 9.4417257,47.836998 9.4417257,46.203523 C 9.4417257,44.594797 10.712207,43.316066 12.329183,43.316066 z"
   id="path2619" /><path
   style="fill:#f28a8b"
   d="M 12.180685,43.439814 C 13.632663,43.439814 14.804146,44.578297 14.804146,46.063275 C 14.804146,47.531753 13.657413,48.694985 12.180685,48.694985 C 10.720457,48.694985 9.5489747,47.548253 9.5489747,46.063275 C 9.5489747,44.603047 10.703957,43.439814 12.180685,43.439814 z"
   id="path2621" /><path
   style="fill:#f38e8f"
   d="M 12.023938,43.555313 C 13.335668,43.555313 14.391652,44.603047 14.391652,45.923027 C 14.391652,47.251257 13.360418,48.315491 12.023938,48.315491 C 10.687458,48.315491 9.6314727,47.267757 9.6314727,45.923027 C 9.6314727,44.603047 10.679208,43.555313 12.023938,43.555313 z"
   id="path2623" /><path
   style="fill:#f49394"
   d="M 11.87544,43.670811 C 13.055172,43.670811 14.012158,44.603047 14.012158,45.807529 C 14.012158,47.003761 13.079922,47.944247 11.87544,47.944247 C 10.687458,47.944247 9.7304717,47.02851 9.7304717,45.807529 C 9.7304717,44.627797 10.670958,43.670811 11.87544,43.670811 L 11.87544,43.670811 z"
   id="path2625" /><path
   style="fill:#f59798"
   d="M 11.710442,43.794559 C 12.749927,43.794559 13.591414,44.619547 13.591414,45.667281 C 13.591414,46.715015 12.766426,47.556502 11.710442,47.556502 C 10.654458,47.556502 9.8212207,46.731515 9.8212207,45.667281 C 9.8212207,44.619547 10.646208,43.794559 11.710442,43.794559 L 11.710442,43.794559 z"
   id="path2627" /><path
   style="fill:#f69c9d"
   d="M 11.570194,43.481064 C 12.708677,43.481064 13.632663,44.3803 13.632663,45.543533 C 13.632663,46.682016 12.733427,47.606002 11.570194,47.606002 C 10.415212,47.606002 9.4994747,46.706765 9.4994747,45.543533 C 9.4994747,44.40505 10.406962,43.481064 11.570194,43.481064 z"
   id="path2629" /><path
   style="fill:#000000"
   d="M 3.3450676,49.503473 C 3.3450676,55.311386 9.1942297,60.030315 16.388122,60.030315 C 23.582014,60.030315 29.431176,55.319636 29.431176,49.503473 C 29.431176,43.695561 23.582014,38.968382 16.388122,38.968382 C 9.2024797,38.968382 3.3450676,43.687311 3.3450676,49.503473 M 5.1765401,49.503473 C 5.1765401,44.520548 10.200715,40.453359 16.355122,40.453359 C 22.52603,40.453359 27.550204,44.495799 27.550204,49.503473 C 27.550204,54.486398 22.550779,58.561837 16.355122,58.561837 C 10.200715,58.561837 5.1765401,54.502898 5.1765401,49.503473 L 5.1765401,49.503473 z"
   id="path2631" /><path
   style="fill:#f58b8c"
   d="M 12.593179,45.452784 C 13.393417,45.452784 14.036907,46.088025 14.036907,46.896512 C 14.036907,47.69675 13.401667,48.340241 12.593179,48.340241 C 11.784691,48.340241 11.149451,47.7215 11.149451,46.896512 C 11.149451,46.096274 11.776441,45.452784 12.593179,45.452784 z"
   id="path2635" /><path
   style="fill:#f58c8d"
   d="M 12.593179,45.04029 C 13.632663,45.04029 14.449401,45.857028 14.449401,46.896512 C 14.449401,47.927747 13.640913,48.752735 12.593179,48.752735 C 11.553695,48.752735 10.736957,47.952497 10.736957,46.896512 C 10.736957,45.865278 11.537195,45.04029 12.593179,45.04029 z"
   id="path2637" /><path
   style="fill:#f68d8e"
   d="M 12.593179,45.05679 C 13.624414,45.05679 14.424652,45.857028 14.424652,46.888263 C 14.424652,47.919497 13.632663,48.727985 12.593179,48.727985 C 11.561945,48.727985 10.753457,47.927747 10.753457,46.888263 C 10.753457,45.857028 11.553695,45.05679 12.593179,45.05679 z"
   id="path2639" /><path
   style="fill:#f68f90"
   d="M 12.593179,45.07329 C 13.599664,45.07329 14.424652,45.857028 14.424652,46.888263 C 14.424652,47.902997 13.616164,48.711485 12.593179,48.711485 C 11.578444,48.711485 10.753457,47.919497 10.753457,46.888263 C 10.753457,45.881778 11.561945,45.07329 12.593179,45.07329 z"
   id="path2641" /><path
   style="fill:#f69091"
   d="M 12.593179,45.07329 C 13.599664,45.07329 14.416402,45.857028 14.416402,46.888263 C 14.416402,47.894747 13.616164,48.694985 12.593179,48.694985 C 11.578444,48.694985 10.769956,47.902997 10.769956,46.888263 C 10.769956,45.873528 11.570194,45.07329 12.593179,45.07329 L 12.593179,45.07329 z"
   id="path2643" /><path
   style="fill:#f79191"
   d="M 12.593179,45.08979 C 13.599664,45.08979 14.391652,45.865278 14.391652,46.888263 C 14.391652,47.886498 13.599664,48.694985 12.593179,48.694985 C 11.578444,48.694985 10.794706,47.919497 10.794706,46.888263 C 10.794706,45.881778 11.570194,45.08979 12.593179,45.08979 z"
   id="path2645" /><path
   style="fill:#f79293"
   d="M 12.593179,45.08979 C 13.599664,45.08979 14.391652,45.857028 14.391652,46.888263 C 14.391652,47.878248 13.599664,48.678486 12.593179,48.678486 C 11.586694,48.678486 10.794706,47.902997 10.794706,46.888263 C 10.794706,45.890028 11.570194,45.08979 12.593179,45.08979 z"
   id="path2647" /><path
   style="fill:#f79394"
   d="M 12.593179,45.08979 C 13.599664,45.08979 14.391652,45.865278 14.391652,46.888263 C 14.391652,47.886498 13.599664,48.678486 12.593179,48.678486 C 11.586694,48.678486 10.794706,47.902997 10.794706,46.888263 C 10.794706,45.898277 11.586694,45.08979 12.593179,45.08979 z"
   id="path2649" /><path
   style="fill:#f79495"
   d="M 12.593179,45.114539 C 13.591414,45.114539 14.358653,45.898277 14.358653,46.888263 C 14.358653,47.869998 13.591414,48.645486 12.593179,48.645486 C 11.594944,48.645486 10.827705,47.878248 10.827705,46.888263 C 10.827705,45.898277 11.594944,45.114539 12.593179,45.114539 z"
   id="path2651" /><path
   style="fill:#f79696"
   d="M 12.593179,45.131039 C 13.566664,45.131039 14.358653,45.898277 14.358653,46.888263 C 14.358653,47.869998 13.591414,48.653736 12.593179,48.653736 C 11.619694,48.653736 10.827705,47.886498 10.827705,46.888263 C 10.827705,45.914777 11.594944,45.131039 12.593179,45.131039 z"
   id="path2653" /><path
   style="fill:#f79798"
   d="M 12.593179,45.131039 C 13.566664,45.131039 14.358653,45.898277 14.358653,46.888263 C 14.358653,47.861748 13.583164,48.637236 12.593179,48.637236 C 11.619694,48.637236 10.827705,47.869998 10.827705,46.888263 C 10.827705,45.906527 11.603194,45.131039 12.593179,45.131039 z"
   id="path2655" /><path
   style="fill:#f79899"
   d="M 12.593179,45.147539 C 13.566664,45.147539 14.350403,45.914777 14.350403,46.888263 C 14.350403,47.853498 13.583164,48.637236 12.593179,48.637236 C 11.619694,48.637236 10.835955,47.869998 10.835955,46.888263 C 10.835955,45.914777 11.603194,45.147539 12.593179,45.147539 L 12.593179,45.147539 z"
   id="path2657" /><path
   style="fill:#f7999a"
   d="M 12.593179,45.147539 C 13.566664,45.147539 14.325653,45.914777 14.325653,46.888263 C 14.325653,47.845248 13.566664,48.612487 12.593179,48.612487 C 11.619694,48.612487 10.860705,47.845248 10.860705,46.888263 C 10.860705,45.914777 11.619694,45.147539 12.593179,45.147539 z"
   id="path2659" /><path
   style="fill:#f79a9b"
   d="M 12.593179,45.172288 C 13.566664,45.172288 14.325653,45.914777 14.325653,46.896512 C 14.325653,47.869998 13.566664,48.620736 12.593179,48.620736 C 11.619694,48.620736 10.860705,47.878248 10.860705,46.896512 C 10.860705,45.923027 11.619694,45.172288 12.593179,45.172288 z"
   id="path2661" /><path
   style="fill:#f69c9d"
   d="M 12.593179,45.172288 C 13.558415,45.172288 14.317403,45.914777 14.317403,46.896512 C 14.317403,47.845248 13.558415,48.620736 12.593179,48.620736 C 11.627944,48.620736 10.868955,47.878248 10.868955,46.896512 C 10.868955,45.947777 11.627944,45.172288 12.593179,45.172288 z"
   id="path2663" /><path
   style="fill:#f69d9e"
   d="M 12.593179,45.188788 C 13.533665,45.188788 14.292654,45.914777 14.292654,46.888263 C 14.292654,47.828748 13.558415,48.587737 12.593179,48.587737 C 11.652693,48.587737 10.893704,47.853498 10.893704,46.888263 C 10.893704,45.939527 11.627944,45.188788 12.593179,45.188788 z"
   id="path2665" /><path
   style="fill:#f69e9f"
   d="M 12.593179,45.188788 C 13.533665,45.188788 14.292654,45.914777 14.292654,46.888263 C 14.292654,47.820499 13.541915,48.571237 12.593179,48.571237 C 11.652693,48.571237 10.893704,47.845248 10.893704,46.888263 C 10.893704,45.939527 11.644443,45.188788 12.593179,45.188788 z"
   id="path2667" /><path
   style="fill:#f69fa0"
   d="M 12.593179,45.205288 C 13.533665,45.205288 14.284404,45.931277 14.284404,46.888263 C 14.284404,47.820499 13.541915,48.562987 12.593179,48.562987 C 11.652693,48.562987 10.901954,47.828748 10.901954,46.888263 C 10.901954,45.947777 11.644443,45.205288 12.593179,45.205288 L 12.593179,45.205288 z"
   id="path2669" /><path
   style="fill:#f6a1a1"
   d="M 12.593179,45.221788 C 13.533665,45.221788 14.251404,45.939527 14.251404,46.888263 C 14.251404,47.812249 13.533665,48.562987 12.593179,48.562987 C 11.652693,48.562987 10.926704,47.845248 10.926704,46.888263 C 10.926704,45.956027 11.652693,45.221788 12.593179,45.221788 z"
   id="path2671" /><path
   style="fill:#f6a3a3"
   d="M 12.593179,45.221788 C 13.154171,45.221788 13.599664,45.947777 13.599664,46.888263 C 13.599664,47.795749 13.16242,48.546488 12.593179,48.546488 C 12.032187,48.546488 11.578444,47.812249 11.578444,46.888263 C 11.578444,45.972526 12.032187,45.221788 12.593179,45.221788 z"
   id="path2673" /><path
   style="fill:#f6a4a5"
   d="M 12.593179,45.238287 C 13.525415,45.238287 14.251404,45.939527 14.251404,46.888263 C 14.251404,47.812249 13.541915,48.546488 12.593179,48.546488 C 11.660943,48.546488 10.926704,47.845248 10.926704,46.888263 C 10.926704,45.972526 11.652693,45.238287 12.593179,45.238287 z"
   id="path2675" /><path
   style="fill:#f6a5a6"
   d="M 12.593179,45.246537 C 13.500665,45.246537 14.251404,45.972526 14.251404,46.896512 C 14.251404,47.812249 13.525415,48.546488 12.593179,48.546488 C 11.685693,48.546488 10.934954,47.836998 10.934954,46.896512 C 10.934954,45.980776 11.660943,45.246537 12.593179,45.246537 z"
   id="path2677" /><path
   style="fill:#f6a6a6"
   d="M 12.593179,45.263037 C 13.500665,45.263037 14.218405,45.972526 14.218405,46.888263 C 14.218405,47.795749 13.517165,48.521738 12.593179,48.521738 C 11.685693,48.521738 10.959703,47.812249 10.959703,46.888263 C 10.959703,45.989026 11.669193,45.263037 12.593179,45.263037 z"
   id="path2679" /><path
   style="fill:#f5a7a7"
   d="M 12.593179,45.263037 C 13.500665,45.263037 14.218405,45.972526 14.218405,46.888263 C 14.218405,47.787499 13.508915,48.505238 12.593179,48.505238 C 11.685693,48.505238 10.959703,47.795749 10.959703,46.888263 C 10.959703,45.980776 11.677443,45.263037 12.593179,45.263037 z"
   id="path2681" /><path
   style="fill:#f4a7a8"
   d="M 12.593179,45.279537 C 13.500665,45.279537 14.218405,45.989026 14.218405,46.888263 C 14.218405,47.779249 13.508915,48.505238 12.593179,48.505238 C 11.685693,48.505238 10.967953,47.795749 10.967953,46.888263 C 10.967953,45.989026 11.677443,45.279537 12.593179,45.279537 z"
   id="path2683" /><path
   style="fill:#f4a9a9"
   d="M 12.593179,45.296036 C 13.492416,45.296036 14.185405,45.989026 14.185405,46.888263 C 14.185405,47.779249 13.492416,48.488738 12.593179,48.488738 C 11.693943,48.488738 11.000953,47.779249 11.000953,46.888263 C 11.000953,45.989026 11.693943,45.296036 12.593179,45.296036 z"
   id="path2685" /><path
   style="fill:#f4aaab"
   d="M 12.593179,45.296036 C 13.492416,45.296036 14.185405,45.989026 14.185405,46.888263 C 14.185405,47.770999 13.492416,48.472239 12.593179,48.472239 C 11.693943,48.472239 11.000953,47.779249 11.000953,46.888263 C 11.000953,45.989026 11.693943,45.296036 12.593179,45.296036 z"
   id="path2687" /><path
   style="fill:#f4abac"
   d="M 12.593179,45.296036 C 13.467666,45.296036 14.185405,45.989026 14.185405,46.888263 C 14.185405,47.762749 13.484166,48.472239 12.593179,48.472239 C 11.718692,48.472239 11.000953,47.779249 11.000953,46.888263 C 11.000953,46.013776 11.702192,45.296036 12.593179,45.296036 z"
   id="path2689" /><path
   style="fill:#f3abac"
   d="M 12.593179,45.320786 C 13.467666,45.320786 14.177155,46.013776 14.177155,46.888263 C 14.177155,47.7545 13.484166,48.455739 12.593179,48.455739 C 11.718692,48.455739 11.009203,47.762749 11.009203,46.888263 C 11.009203,46.013776 11.702192,45.320786 12.593179,45.320786 z"
   id="path2691" /><path
   style="fill:#f3acad"
   d="M 12.593179,45.337286 C 13.467666,45.337286 14.152406,46.030275 14.152406,46.888263 C 14.152406,47.7545 13.475916,48.447489 12.593179,48.447489 C 11.718692,48.447489 11.033952,47.7545 11.033952,46.888263 C 11.033952,46.030275 11.710442,45.337286 12.593179,45.337286 z"
   id="path2693" /><path
   style="fill:#f4afaf"
   d="M 12.593179,45.337286 C 13.467666,45.337286 14.152406,46.005526 14.152406,46.888263 C 14.152406,47.74625 13.475916,48.430989 12.593179,48.430989 C 11.718692,48.430989 11.033952,47.7545 11.033952,46.888263 C 11.033952,46.022026 11.710442,45.337286 12.593179,45.337286 z"
   id="path2695" /><path
   style="fill:#f4b0b1"
   d="M 12.593179,45.353786 C 13.459416,45.353786 14.144156,46.005526 14.144156,46.888263 C 14.144156,47.738 13.475916,48.430989 12.593179,48.430989 C 11.726942,48.430989 11.042202,47.770999 11.042202,46.888263 C 11.042202,46.030275 11.710442,45.353786 12.593179,45.353786 z"
   id="path2697" /><path
   style="fill:#f4b1b2"
   d="M 12.593179,45.353786 C 13.426417,45.353786 14.119406,46.005526 14.119406,46.888263 C 14.119406,47.72975 13.459416,48.41449 12.593179,48.41449 C 11.751692,48.41449 11.066952,47.7545 11.066952,46.888263 C 11.066952,46.038525 11.726942,45.353786 12.593179,45.353786 z"
   id="path2699" /><path
   style="fill:#f4b2b2"
   d="M 12.593179,45.370285 C 13.426417,45.370285 14.119406,46.013776 14.119406,46.888263 C 14.119406,47.738 13.451166,48.41449 12.593179,48.41449 C 11.751692,48.41449 11.066952,47.770999 11.066952,46.888263 C 11.066952,46.046775 11.735192,45.370285 12.593179,45.370285 z"
   id="path2701" /><path
   style="fill:#f4b3b4"
   d="M 12.593179,45.378535 C 12.980923,45.378535 13.286169,46.046775 13.286169,46.896512 C 13.286169,47.738 12.989173,48.41449 12.593179,48.41449 C 12.205435,48.41449 11.900189,47.762749 11.900189,46.896512 C 11.900189,46.055025 12.188935,45.378535 12.593179,45.378535 z"
   id="path2703" /><path
   style="fill:#f4b4b5"
   d="M 12.593179,45.395035 C 12.947924,45.395035 13.261419,46.046775 13.261419,46.888263 C 13.261419,47.7215 12.964423,48.38149 12.593179,48.38149 C 12.238434,48.38149 11.924939,47.738 11.924939,46.888263 C 11.924939,46.063275 12.221935,45.395035 12.593179,45.395035 z"
   id="path2705" /><path
   style="fill:#f5b6b7"
   d="M 12.593179,45.395035 C 12.947924,45.395035 13.22017,46.046775 13.22017,46.888263 C 13.22017,47.71325 12.947924,48.36499 12.593179,48.36499 C 12.238434,48.36499 11.957939,47.71325 11.957939,46.888263 C 11.957939,46.055025 12.238434,45.395035 12.593179,45.395035 z"
   id="path2707" /><path
   style="fill:#f5b7b8"
   d="M 12.593179,45.411535 C 12.947924,45.411535 13.22017,46.063275 13.22017,46.888263 C 13.22017,47.71325 12.956174,48.37324 12.593179,48.37324 C 12.238434,48.37324 11.966188,47.7215 11.966188,46.888263 C 11.966188,46.063275 12.230185,45.411535 12.593179,45.411535 z"
   id="path2709" /><path
   style="fill:#f5b8b9"
   d="M 12.593179,45.428034 C 12.914924,45.428034 13.18717,46.063275 13.18717,46.888263 C 13.18717,47.71325 12.939674,48.35674 12.593179,48.35674 C 12.271434,48.35674 11.990938,47.71325 11.990938,46.888263 C 11.990938,46.063275 12.246684,45.428034 12.593179,45.428034 z"
   id="path2711" /><path
   style="fill:#f6b9ba"
   d="M 12.593179,45.428034 C 12.914924,45.428034 13.17892,46.063275 13.17892,46.888263 C 13.17892,47.71325 12.923174,48.340241 12.593179,48.340241 C 12.271434,48.340241 12.007438,47.71325 12.007438,46.888263 C 12.007438,46.063275 12.263184,45.428034 12.593179,45.428034 z"
   id="path2713" /><path
   style="fill:#f6babb"
   d="M 12.593179,45.444534 C 12.906674,45.444534 13.154171,46.063275 13.154171,46.888263 C 13.154171,47.69675 12.906674,48.340241 12.593179,48.340241 C 12.279684,48.340241 12.032187,47.71325 12.032187,46.888263 C 12.032187,46.088025 12.279684,45.444534 12.593179,45.444534 z"
   id="path2715" /><path
   style="fill:#f7bcbd"
   d="M 12.593179,45.452784 C 12.881925,45.452784 13.121171,46.088025 13.121171,46.896512 C 13.121171,47.69675 12.898424,48.340241 12.593179,48.340241 C 12.304433,48.340241 12.065187,47.7215 12.065187,46.896512 C 12.065187,46.096274 12.287934,45.452784 12.593179,45.452784 z"
   id="path2717" /><path
   style="fill:#f7bdbe"
   d="M 12.593179,45.452784 C 12.881925,45.452784 13.112921,46.088025 13.112921,46.896512 C 13.112921,47.69675 12.890175,48.340241 12.593179,48.340241 C 12.304433,48.340241 12.073437,47.7215 12.073437,46.896512 C 12.073437,46.096274 12.296184,45.452784 12.593179,45.452784 z"
   id="path2719" /><path
   style="fill:#f7bebf"
   d="M 12.593179,45.469284 C 12.848925,45.469284 13.088172,46.088025 13.088172,46.888263 C 13.088172,47.672001 12.873675,48.298991 12.593179,48.298991 C 12.337433,48.298991 12.098186,47.680251 12.098186,46.888263 C 12.098186,46.096274 12.312683,45.469284 12.593179,45.469284 z"
   id="path2721" /><path
   style="fill:#f8c0c0"
   d="M 12.593179,45.485784 C 12.848925,45.485784 13.055172,46.104524 13.055172,46.888263 C 13.055172,47.663751 12.848925,48.298991 12.593179,48.298991 C 12.337433,48.298991 12.131186,47.680251 12.131186,46.888263 C 12.131186,46.104524 12.337433,45.485784 12.593179,45.485784 z"
   id="path2723" /><path
   style="fill:#f8c1c1"
   d="M 12.593179,45.485784 C 12.848925,45.485784 13.046922,46.104524 13.046922,46.888263 C 13.046922,47.655501 12.857175,48.282492 12.593179,48.282492 C 12.337433,48.282492 12.139436,47.663751 12.139436,46.888263 C 12.139436,46.112774 12.329183,45.485784 12.593179,45.485784 z"
   id="path2725" /><path
   style="fill:#f9c3c3"
   d="M 12.593179,45.502283 C 12.807676,45.502283 13.013923,46.088025 13.013923,46.888263 C 13.013923,47.663751 12.832425,48.282492 12.593179,48.282492 C 12.370432,48.282492 12.164185,47.69675 12.164185,46.888263 C 12.164185,46.121024 12.353933,45.502283 12.593179,45.502283 z"
   id="path2727" /><path
   style="fill:#f9c4c4"
   d="M 12.593179,45.502283 C 12.807676,45.502283 13.005673,46.104524 13.005673,46.888263 C 13.005673,47.647251 12.824176,48.265992 12.593179,48.265992 C 12.370432,48.265992 12.180685,47.680251 12.180685,46.888263 C 12.180685,46.121024 12.362183,45.502283 12.593179,45.502283 z"
   id="path2729" /><path
   style="fill:#f9c5c5"
   d="M 12.593179,45.527033 C 12.807676,45.527033 12.980923,46.121024 12.980923,46.888263 C 12.980923,47.647251 12.815926,48.249492 12.593179,48.249492 C 12.378682,48.249492 12.205435,47.663751 12.205435,46.888263 C 12.205435,46.121024 12.362183,45.527033 12.593179,45.527033 z"
   id="path2731" /><path
   style="fill:#f9c6c6"
   d="M 12.593179,45.527033 C 12.799426,45.527033 12.947924,46.121024 12.947924,46.888263 C 12.947924,47.639001 12.799426,48.232992 12.593179,48.232992 C 12.386932,48.232992 12.238434,47.639001 12.238434,46.888263 C 12.238434,46.121024 12.386932,45.527033 12.593179,45.527033 z"
   id="path2733" /><path
   style="fill:#f9c7c7"
   d="M 12.593179,45.543533 C 12.774676,45.543533 12.939674,46.121024 12.939674,46.888263 C 12.939674,47.630751 12.791176,48.241242 12.593179,48.241242 C 12.403432,48.241242 12.246684,47.647251 12.246684,46.888263 C 12.246684,46.145774 12.395182,45.543533 12.593179,45.543533 z"
   id="path2735" /><path
   style="fill:#f9c8c8"
   d="M 12.593179,45.560033 C 12.774676,45.560033 12.914924,46.129274 12.914924,46.888263 C 12.914924,47.622501 12.774676,48.224742 12.593179,48.224742 C 12.411682,48.224742 12.271434,47.639001 12.271434,46.888263 C 12.271434,46.145774 12.411682,45.560033 12.593179,45.560033 z"
   id="path2737" /><path
   style="fill:#f8c9ca"
   d="M 12.593179,45.560033 C 12.741677,45.560033 12.881925,46.121024 12.881925,46.888263 C 12.881925,47.614252 12.758177,48.208243 12.593179,48.208243 C 12.444681,48.208243 12.304433,47.639001 12.304433,46.888263 C 12.304433,46.145774 12.428182,45.560033 12.593179,45.560033 z"
   id="path2739" /><path
   style="fill:#f8cacb"
   d="M 12.593179,45.576532 C 12.741677,45.576532 12.873675,46.137524 12.873675,46.888263 C 12.873675,47.622501 12.749927,48.208243 12.593179,48.208243 C 12.444681,48.208243 12.312683,47.639001 12.312683,46.888263 C 12.312683,46.162273 12.436431,45.576532 12.593179,45.576532 z"
   id="path2741" /><path
   style="fill:#f8cccc"
   d="M 12.593179,45.584782 C 12.733427,45.584782 12.848925,46.162273 12.848925,46.896512 C 12.848925,47.622501 12.741677,48.208243 12.593179,48.208243 C 12.452931,48.208243 12.337433,47.647251 12.337433,46.896512 C 12.337433,46.170523 12.444681,45.584782 12.593179,45.584782 z"
   id="path2743" /><path
   style="fill:#f8cdcd"
   d="M 12.593179,45.601282 C 12.708677,45.601282 12.807676,46.162273 12.807676,46.913012 C 12.807676,47.639001 12.725177,48.224742 12.593179,48.224742 C 12.477681,48.224742 12.370432,47.655501 12.370432,46.913012 C 12.370432,46.187023 12.461181,45.601282 12.593179,45.601282 z"
   id="path2745" /><path
   style="fill:#f7cece"
   d="M 12.593179,45.601282 C 12.708677,45.601282 12.807676,46.162273 12.807676,46.888263 C 12.807676,47.597752 12.716927,48.158743 12.593179,48.158743 C 12.477681,48.158743 12.378682,47.597752 12.378682,46.888263 C 12.378682,46.170523 12.469431,45.601282 12.593179,45.601282 z"
   id="path2747" /><path
   style="fill:#f7d0d0"
   d="M 12.593179,45.617782 C 12.700427,45.617782 12.774676,46.178773 12.774676,46.888263 C 12.774676,47.589502 12.700427,48.166993 12.593179,48.166993 C 12.485931,48.166993 12.403432,47.606002 12.403432,46.888263 C 12.403432,46.178773 12.485931,45.617782 12.593179,45.617782 z"
   id="path2749" /><path
   style="fill:#f6d0d1"
   d="M 12.593179,45.617782 C 12.675678,45.617782 12.741677,46.178773 12.741677,46.888263 C 12.741677,47.581252 12.683928,48.150494 12.593179,48.150494 C 12.51068,48.150494 12.444681,47.589502 12.444681,46.888263 C 12.444681,46.187023 12.50243,45.617782 12.593179,45.617782 z"
   id="path2751" /><path
   style="fill:#f6d2d2"
   d="M 12.593179,45.634281 C 12.675678,45.634281 12.741677,46.162273 12.741677,46.888263 C 12.741677,47.589502 12.683928,48.150494 12.593179,48.150494 C 12.51068,48.150494 12.444681,47.622501 12.444681,46.888263 C 12.444681,46.195273 12.50243,45.634281 12.593179,45.634281 z"
   id="path2753" /><path
   style="fill:#f6d3d4"
   d="M 12.593179,45.650781 C 12.642678,45.650781 12.708677,46.178773 12.708677,46.888263 C 12.708677,47.573002 12.667428,48.133994 12.593179,48.133994 C 12.54368,48.133994 12.477681,47.606002 12.477681,46.888263 C 12.477681,46.195273 12.51893,45.650781 12.593179,45.650781 z"
   id="path2755" /><path
   style="fill:#f6d4d4"
   d="M 12.593179,45.659031 C 12.642678,45.659031 12.675678,46.195273 12.675678,46.896512 C 12.675678,47.589502 12.650928,48.133994 12.593179,48.133994 C 12.54368,48.133994 12.51068,47.614252 12.51068,46.896512 C 12.51068,46.203523 12.53543,45.659031 12.593179,45.659031 z"
   id="path2757" /><path
   style="fill:#f5d6d6"
   d="M 12.593179,45.659031 C 12.634428,45.659031 12.675678,46.195273 12.675678,46.896512 C 12.675678,47.589502 12.650928,48.133994 12.593179,48.133994 C 12.55193,48.133994 12.51068,47.597752 12.51068,46.896512 C 12.51068,46.203523 12.53543,45.659031 12.593179,45.659031 z"
   id="path2759" /><path
   style="fill:#f5d7d7"
   d="M 12.593179,45.675531 C 12.601429,45.675531 12.642678,46.195273 12.642678,46.888263 C 12.642678,47.556502 12.626179,48.109244 12.593179,48.109244 C 12.576679,48.109244 12.54368,47.573002 12.54368,46.888263 C 12.54368,46.220023 12.56018,45.675531 12.593179,45.675531 z"
   id="path2761" /><path
   style="fill:#f5d8d9"
   d="M 12.593179,45.692031 C 12.601429,45.692031 12.601429,46.203523 12.601429,46.888263 C 12.601429,47.548253 12.601429,48.092744 12.593179,48.092744 C 12.576679,48.092744 12.576679,47.564752 12.576679,46.888263 C 12.576679,46.220023 12.576679,45.692031 12.593179,45.692031 z"
   id="path2763" /><path
   style="fill:#f5d9d9"
   d="M 12.593179,45.692031 C 12.601429,45.692031 12.601429,46.195273 12.601429,46.888263 C 12.601429,47.540003 12.601429,48.076245 12.593179,48.076245 C 12.584929,48.076245 12.576679,47.564752 12.576679,46.888263 C 12.576679,46.220023 12.576679,45.692031 12.593179,45.692031 z"
   id="path2765" /><path
   style="fill:#f5dada"
   d="M 12.593179,45.70853 C 12.593179,45.70853 12.593179,46.211773 12.593179,46.888263 C 12.593179,47.548253 12.593179,48.076245 12.593179,48.076245 C 12.593179,48.076245 12.593179,47.564752 12.593179,46.888263 C 12.593179,46.236522 12.593179,45.70853 12.593179,45.70853 z"
   id="path2767" /><path
   style="fill:#f5dbdb"
   d="M 12.593179,45.70853 C 12.601429,45.70853 12.601429,46.211773 12.601429,46.888263 C 12.601429,47.531753 12.601429,48.059745 12.593179,48.059745 C 12.584929,48.059745 12.576679,47.548253 12.576679,46.888263 C 12.576679,46.236522 12.576679,45.70853 12.593179,45.70853 z"
   id="path2769" /><path
   style="fill:#f5dcdd"
   d="M 12.593179,45.73328 C 12.601429,45.73328 12.634428,46.236522 12.634428,46.913012 C 12.634428,47.564752 12.617929,48.092744 12.593179,48.092744 C 12.576679,48.092744 12.55193,47.581252 12.55193,46.913012 C 12.55193,46.261272 12.568429,45.73328 12.593179,45.73328 z"
   id="path2771" /><path
   style="fill:#f5ddde"
   d="M 12.593179,45.73328 C 12.601429,45.73328 12.642678,46.236522 12.642678,46.888263 C 12.642678,47.523503 12.634428,48.026745 12.593179,48.026745 C 12.576679,48.026745 12.54368,47.523503 12.54368,46.888263 C 12.54368,46.244772 12.55193,45.73328 12.593179,45.73328 z"
   id="path2773" /><path
   style="fill:#f5dedf"
   d="M 12.593179,45.74978 C 12.642678,45.74978 12.675678,46.253022 12.675678,46.888263 C 12.675678,47.515253 12.650928,48.034995 12.593179,48.034995 C 12.54368,48.034995 12.51068,47.531753 12.51068,46.888263 C 12.51068,46.253022 12.53543,45.74978 12.593179,45.74978 z"
   id="path2775" /><path
   style="fill:#f5dfe0"
   d="M 12.593179,45.74978 C 12.642678,45.74978 12.700427,46.253022 12.700427,46.888263 C 12.700427,47.515253 12.650928,48.018496 12.593179,48.018496 C 12.54368,48.018496 12.485931,47.515253 12.485931,46.888263 C 12.485931,46.253022 12.53543,45.74978 12.593179,45.74978 z"
   id="path2777" /><path
   style="fill:#f5e0e1"
   d="M 12.593179,45.766279 C 12.667428,45.766279 12.708677,46.253022 12.708677,46.888263 C 12.708677,47.515253 12.667428,48.018496 12.593179,48.018496 C 12.51893,48.018496 12.477681,47.531753 12.477681,46.888263 C 12.477681,46.269522 12.51893,45.766279 12.593179,45.766279 z"
   id="path2779" /><path
   style="fill:#f5e3e3"
   d="M 12.593179,45.782779 C 12.675678,45.782779 12.741677,46.269522 12.741677,46.888263 C 12.741677,47.507003 12.683928,48.001996 12.593179,48.001996 C 12.51068,48.001996 12.444681,47.515253 12.444681,46.888263 C 12.444681,46.269522 12.50243,45.782779 12.593179,45.782779 z"
   id="path2781" /><path
   style="fill:#f5e4e4"
   d="M 12.593179,45.791029 C 12.675678,45.791029 12.766426,46.277772 12.766426,46.896512 C 12.766426,47.515253 12.692178,48.001996 12.593179,48.001996 C 12.51068,48.001996 12.419932,47.515253 12.419932,46.896512 C 12.419932,46.277772 12.494181,45.791029 12.593179,45.791029 z"
   id="path2783" /><path
   style="fill:#f5e6e5"
   d="M 12.593179,45.791029 C 12.485931,45.791029 12.403432,46.277772 12.403432,46.896512 C 12.403432,47.507003 12.477681,48.001996 12.593179,48.001996 C 12.700427,48.001996 12.774676,47.515253 12.774676,46.896512 C 12.774676,46.302521 12.716927,45.791029 12.593179,45.791029 z"
   id="path2785" /><path
   style="fill:#f5e7e6"
   d="M 12.593179,45.807529 C 12.708677,45.807529 12.807676,46.269522 12.807676,46.888263 C 12.807676,47.490503 12.725177,47.968996 12.593179,47.968996 C 12.477681,47.968996 12.370432,47.507003 12.370432,46.888263 C 12.370432,46.294271 12.461181,45.807529 12.593179,45.807529 z"
   id="path2787" /><path
   style="fill:#f5e8e7"
   d="M 12.593179,45.824029 C 12.708677,45.824029 12.807676,46.277772 12.807676,46.888263 C 12.807676,47.474004 12.708677,47.960746 12.593179,47.960746 C 12.477681,47.960746 12.370432,47.507003 12.370432,46.888263 C 12.370432,46.294271 12.477681,45.824029 12.593179,45.824029 z"
   id="path2789" /><path
   style="fill:#f5e9e8"
   d="M 12.593179,45.824029 C 13.18717,45.824029 13.665663,46.269522 13.665663,46.888263 C 13.665663,47.474004 13.19542,47.944247 12.593179,47.944247 C 11.990938,47.944247 11.520695,47.490503 11.520695,46.888263 C 11.520695,46.294271 11.982688,45.824029 12.593179,45.824029 z"
   id="path2791" /><path
   style="fill:#f5ebea"
   d="M 12.593179,45.840528 C 13.18717,45.840528 13.632663,46.277772 13.632663,46.888263 C 13.632663,47.474004 13.18717,47.944247 12.593179,47.944247 C 11.999188,47.944247 11.545445,47.507003 11.545445,46.888263 C 11.545445,46.310771 11.982688,45.840528 12.593179,45.840528 z"
   id="path2793" /><path
   style="fill:#f6eceb"
   d="M 12.593179,45.840528 C 13.17892,45.840528 13.632663,46.286022 13.632663,46.888263 C 13.632663,47.457504 13.19542,47.927747 12.593179,47.927747 C 12.007438,47.927747 11.545445,47.474004 11.545445,46.888263 C 11.545445,46.310771 11.999188,45.840528 12.593179,45.840528 z"
   id="path2795" /><path
   style="fill:#f6edec"
   d="M 12.593179,45.865278 C 13.17892,45.865278 13.632663,46.310771 13.632663,46.913012 C 13.632663,47.490503 13.19542,47.960746 12.593179,47.960746 C 12.007438,47.960746 11.545445,47.515253 11.545445,46.913012 C 11.545445,46.335521 11.999188,45.865278 12.593179,45.865278 z"
   id="path2797" /><path
   style="fill:#f6eeed"
   d="M 12.593179,45.865278 C 13.154171,45.865278 13.624414,46.310771 13.624414,46.896512 C 13.624414,47.474004 13.17067,47.927747 12.593179,47.927747 C 12.032187,47.927747 11.561945,47.482254 11.561945,46.896512 C 11.561945,46.335521 12.015688,45.865278 12.593179,45.865278 z"
   id="path2799" /><path
   style="fill:#f7efee"
   d="M 12.593179,45.881778 C 13.154171,45.881778 13.599664,46.327271 13.599664,46.888263 C 13.599664,47.441004 13.17067,47.902997 12.593179,47.902997 C 12.032187,47.902997 11.578444,47.457504 11.578444,46.888263 C 11.578444,46.327271 12.015688,45.881778 12.593179,45.881778 z"
   id="path2801" /><path
   style="fill:#f8f2f0"
   d="M 12.593179,45.881778 C 13.154171,45.881778 13.599664,46.327271 13.599664,46.888263 C 13.599664,47.441004 13.16242,47.886498 12.593179,47.886498 C 12.032187,47.886498 11.578444,47.441004 11.578444,46.888263 C 11.578444,46.327271 12.023938,45.881778 12.593179,45.881778 z"
   id="path2803" /><path
   style="fill:#f8f3f1"
   d="M 12.593179,45.898277 C 13.154171,45.898277 13.599664,46.327271 13.599664,46.888263 C 13.599664,47.441004 13.16242,47.886498 12.593179,47.886498 C 12.032187,47.886498 11.586694,47.457504 11.586694,46.888263 C 11.586694,46.327271 12.023938,45.898277 12.593179,45.898277 z"
   id="path2805" /><path
   style="fill:#f8f4f2"
   d="M 12.593179,45.914777 C 13.145921,45.914777 13.566664,46.327271 13.566664,46.888263 C 13.566664,47.424504 13.145921,47.869998 12.593179,47.869998 C 12.040437,47.869998 11.619694,47.441004 11.619694,46.888263 C 11.619694,46.352021 12.040437,45.914777 12.593179,45.914777 z"
   id="path2807" /><path
   style="fill:#f9f5f3"
   d="M 12.593179,45.914777 C 13.145921,45.914777 13.566664,46.327271 13.566664,46.888263 C 13.566664,47.424504 13.145921,47.853498 12.593179,47.853498 C 12.040437,47.853498 11.619694,47.432754 11.619694,46.888263 C 11.619694,46.343771 12.040437,45.914777 12.593179,45.914777 z"
   id="path2809" /><path
   style="fill:#f9f6f4"
   d="M 12.593179,45.914777 C 13.121171,45.914777 13.566664,46.335521 13.566664,46.888263 C 13.566664,47.416255 13.137671,47.853498 12.593179,47.853498 C 12.065187,47.853498 11.619694,47.432754 11.619694,46.888263 C 11.619694,46.352021 12.048687,45.914777 12.593179,45.914777 z"
   id="path2811" /><path
   style="fill:#faf7f6"
   d="M 12.593179,45.939527 C 13.121171,45.939527 13.558415,46.352021 13.558415,46.888263 C 13.558415,47.416255 13.137671,47.836998 12.593179,47.836998 C 12.065187,47.836998 11.627944,47.424504 11.627944,46.888263 C 11.627944,46.36852 12.048687,45.939527 12.593179,45.939527 z"
   id="path2813" /><path
   style="fill:#faf8f6"
   d="M 12.593179,45.956027 C 13.121171,45.956027 13.533665,46.36852 13.533665,46.888263 C 13.533665,47.399755 13.121171,47.828748 12.593179,47.828748 C 12.065187,47.828748 11.652693,47.416255 11.652693,46.888263 C 11.652693,46.36852 12.065187,45.956027 12.593179,45.956027 z"
   id="path2815" /><path
   style="fill:#fbfaf8"
   d="M 12.593179,45.956027 C 13.121171,45.956027 13.533665,46.36852 13.533665,46.888263 C 13.533665,47.399755 13.121171,47.812249 12.593179,47.812249 C 12.065187,47.812249 11.652693,47.399755 11.652693,46.888263 C 11.652693,46.36852 12.065187,45.956027 12.593179,45.956027 z"
   id="path2817" /><path
   style="fill:#fbfbf9"
   d="M 12.593179,45.972526 C 13.112921,45.972526 13.525415,46.352021 13.525415,46.888263 C 13.525415,47.399755 13.129421,47.812249 12.593179,47.812249 C 12.073437,47.812249 11.660943,47.432754 11.660943,46.888263 C 11.660943,46.38502 12.056937,45.972526 12.593179,45.972526 z"
   id="path2819" /><path
   style="fill:#fcfbfa"
   d="M 12.593179,45.972526 C 13.088172,45.972526 13.500665,46.36027 13.500665,46.888263 C 13.500665,47.383255 13.112921,47.795749 12.593179,47.795749 C 12.098186,47.795749 11.685693,47.399755 11.685693,46.888263 C 11.685693,46.38502 12.073437,45.972526 12.593179,45.972526 z"
   id="path2821" /><path
   style="fill:#fcfcfb"
   d="M 12.593179,45.989026 C 13.088172,45.989026 13.500665,46.36027 13.500665,46.888263 C 13.500665,47.383255 13.104671,47.795749 12.593179,47.795749 C 12.098186,47.795749 11.685693,47.416255 11.685693,46.888263 C 11.685693,46.38502 12.081687,45.989026 12.593179,45.989026 z"
   id="path2823" /><path
   style="fill:#fefefd"
   d="M 12.593179,45.997276 C 13.088172,45.997276 13.492416,46.38502 13.492416,46.896512 C 13.492416,47.399755 13.096421,47.795749 12.593179,47.795749 C 12.098186,47.795749 11.693943,47.408005 11.693943,46.896512 C 11.693943,46.40977 12.089937,45.997276 12.593179,45.997276 z"
   id="path2825" /><path
   style="fill:#fefefd"
   d="M 12.593179,46.013776 C 12.238434,46.013776 11.933189,46.40152 11.933189,46.888263 C 11.933189,47.366755 12.230185,47.762749 12.593179,47.762749 C 12.947924,47.762749 13.253169,47.383255 13.253169,46.888263 C 13.253169,46.40152 12.956174,46.013776 12.593179,46.013776 z"
   id="path2827" /><path
   style="fill:#ffffff"
   d="M 12.568429,46.220023 C 12.947924,46.220023 13.236669,46.517018 13.236669,46.888263 C 13.236669,47.251257 12.947924,47.548253 12.568429,47.548253 C 12.188935,47.548253 11.908439,47.267757 11.908439,46.888263 C 11.908439,46.517018 12.188935,46.220023 12.568429,46.220023 z"
   id="path2829" /></svg>