<?xml version="1.0" encoding="UTF-8" standalone="no"?>
<!-- Created with Inkscape (http://www.inkscape.org/) -->

<svg
   xmlns:svg="http://www.w3.org/2000/svg"
   xmlns="http://www.w3.org/2000/svg"
   version="1.1"
   width="114"
   height="123"
   viewBox="-0.209 -0.489 114 123"
   id="svg2"
   xml:space="preserve"
   style="overflow:visible"><defs
   id="defs95" />
	<g
   id="Layer_1_2_">
		<path
   d="M 73.645,121.788 91.489,120.19 113.95,95.424 91.199,83.62 v 16.701 l -17.554,21.467 z"
   id="path5"
   style="opacity:0.2" />
		<path
   d="M 43.57,0.618 C 40.728,1.108 37.181,2.46 34.084,4.235 L 33.877,4.356 12.689,20.353 C 3.846,28.024 0.939,39.831 0.023,48.411 L 0,48.612 v 39.553 l 65.922,34.588 7.723,-0.965 19.068,-22.48 V 38.562 L 92.688,38.47 91.452,31.868 C 85.9,10.304 65.316,-3.132 43.57,0.618 z"
   id="path7" />
		<path
   d="m 66.633,118.831 5.07,-0.635 17.205,-20.285 V 38.915 C 88.672,36.894 88.293,34.854 87.767,32.815 82.283,11.501 62.602,1.196 44.217,4.366 41.496,4.835 38.291,6.208 35.977,7.536 L 14.982,23.39 C 8.195,29.286 4.859,38.948 3.805,48.815 v 37.051 l 62.828,32.965 z"
   id="path9" />
		<path
   d="m 66.633,118.831 5.07,-0.635 17.205,-20.285 V 38.915 C 88.672,36.894 88.293,34.854 87.767,32.815 82.283,11.501 62.602,1.196 44.217,4.366 41.496,4.835 38.291,6.208 35.977,7.536 L 14.982,23.39 C 8.195,29.286 4.859,38.948 3.805,48.815 v 37.051 l 62.828,32.965 z"
   id="path11"
   style="fill:#2f9899" />
		<g
   id="g13">
			<path
   d="M 11.293,64.3 C 6.617,47.814 14.395,31.171 28.658,27.126 42.922,23.079 58.277,33.161 62.955,49.649 67.631,66.137 59.859,82.782 45.588,86.829 31.326,90.872 15.971,80.788 11.293,64.3 z"
   id="path15"
   style="fill:#9b97c8" />
			<path
   d="M 12.361,63.081 C 8.066,47.927 14.882,32.526 27.998,28.808 41.107,25.087 55.227,34.357 59.523,49.513 63.822,64.671 56.677,79.972 43.558,83.693 30.449,87.407 16.66,78.239 12.361,63.081 z"
   id="path17"
   style="fill:#a7a4ce" />
			<path
   d="M 13.328,64.048 C 9.195,49.239 15.4,34.079 28.018,30.446 40.637,26.809 54.219,35.866 58.354,50.675 62.491,65.486 55.616,80.437 42.995,84.073 30.377,87.702 17.469,78.858 13.328,64.048 z"
   id="path19"
   style="fill:#b2b2d5" />
			<path
   d="M 14.387,63.487 C 10.481,49.714 15.967,35.497 27.883,32.118 39.801,28.735 52.631,37.159 56.539,50.934 60.443,64.711 53.951,78.62 42.033,81.998 30.111,85.376 18.295,77.265 14.387,63.487 z"
   id="path21"
   style="fill:#c2bedc" />
			<path
   d="M 15.365,63.794 C 11.644,50.663 16.467,36.985 27.828,33.767 39.189,30.54 51.42,38.572 55.142,51.703 58.867,64.836 52.677,78.094 41.314,81.316 29.953,84.534 19.092,76.927 15.365,63.794 z"
   id="path23"
   style="fill:#cfcbe3" />
		</g>
		<path
   d="M 18.783,67.728 C 17.562,65.765 16.584,63.576 15.908,61.201 12.533,49.287 18.154,37.263 28.463,34.34 31.69,33.422 35,33.51 38.123,34.43 23.578,39.935 20.371,45.942 18.783,67.728 z"
   id="path25"
   style="fill:#ffffff" />
		<g
   id="g27">
			<linearGradient
   x1="27.4146"
   y1="19.502001"
   x2="62.334801"
   y2="54.422199"
   id="XMLID_1_"
   gradientUnits="userSpaceOnUse">
				<stop
   id="stop30"
   style="stop-color:#65c1c7;stop-opacity:1"
   offset="0.0503" />
				<stop
   id="stop32"
   style="stop-color:#97d6bc;stop-opacity:1"
   offset="0.20110001" />
				<stop
   id="stop34"
   style="stop-color:#ffffff;stop-opacity:1"
   offset="0.3073" />
				<stop
   id="stop36"
   style="stop-color:#97d6bc;stop-opacity:1"
   offset="0.4637" />
				<stop
   id="stop38"
   style="stop-color:#65c1c7;stop-opacity:1"
   offset="0.67040002" />
				<stop
   id="stop40"
   style="stop-color:#146666;stop-opacity:1"
   offset="1" />
				<midPointStop
   id="midPointStop42"
   style="stop-color:#65C1C7"
   offset="0.0503" />
				<midPointStop
   id="midPointStop44"
   style="stop-color:#65C1C7"
   offset="0.5" />
				<midPointStop
   id="midPointStop46"
   style="stop-color:#97D6BC"
   offset="0.2011" />
				<midPointStop
   id="midPointStop48"
   style="stop-color:#97D6BC"
   offset="0.5" />
				<midPointStop
   id="midPointStop50"
   style="stop-color:#FFFFFF"
   offset="0.3073" />
				<midPointStop
   id="midPointStop52"
   style="stop-color:#FFFFFF"
   offset="0.5" />
				<midPointStop
   id="midPointStop54"
   style="stop-color:#97D6BC"
   offset="0.4637" />
				<midPointStop
   id="midPointStop56"
   style="stop-color:#97D6BC"
   offset="0.5" />
				<midPointStop
   id="midPointStop58"
   style="stop-color:#65C1C7"
   offset="0.6704" />
				<midPointStop
   id="midPointStop60"
   style="stop-color:#65C1C7"
   offset="0.5" />
				<midPointStop
   id="midPointStop62"
   style="stop-color:#146666"
   offset="1" />
			</linearGradient>
			<path
   d="M 71.703,118.196 72.426,53.495 C 72.19,51.474 71.811,49.436 71.285,47.395 65.801,26.081 46.119,15.776 27.734,18.946 c -3.803,0.951 -8.439,2.18 -12.717,4.438 0,0 20.918,-15.809 20.9,-15.826 0.295,-0.26 3.109,-2.002 8.299,-3.191 18.543,-3.131 38.066,7.135 43.551,28.449 0.525,2.039 0.904,4.078 1.141,6.1 v 58.996"
   id="path64"
   style="fill:url(#XMLID_1_)" />
		</g>
		<linearGradient
   x1="45.352501"
   y1="36.8647"
   x2="62.886799"
   y2="56.904701"
   id="XMLID_2_"
   gradientUnits="userSpaceOnUse">
			<stop
   id="stop67"
   style="stop-color:#ffffff;stop-opacity:1"
   offset="0" />
			<stop
   id="stop69"
   style="stop-color:#000000;stop-opacity:1"
   offset="1" />
			<midPointStop
   id="midPointStop71"
   style="stop-color:#FFFFFF"
   offset="0" />
			<midPointStop
   id="midPointStop73"
   style="stop-color:#FFFFFF"
   offset="0.5" />
			<midPointStop
   id="midPointStop75"
   style="stop-color:#000000"
   offset="1" />
		</linearGradient>
		<path
   d="m 27.926,16.958 c -4.23,1.057 -8.566,3.09 -12.717,6.346 l -3.006,2.973 c 8.242,-4.754 12.453,-5.887 16.336,-6.859 17.418,-4.355 37.162,9.172 42.25,28.945 L 72.93,47.81 C 67.506,26.735 46.645,12.278 27.926,16.958 z"
   id="path77"
   style="opacity:0.65;fill:url(#XMLID_2_)" />
		<path
   d="m 34.52,40.249 -0.816,20.467 25.961,9.635 0.354,-0.855 c 0,0 -20.664,-9.523 -22.441,-10.279 -0.047,-1.896 -1.172,-19.014 -1.172,-19.014 l -1.886,0.046 z"
   id="path79" />
		<path
   d="m 33.586,30.845 0.127,5.113 3.291,-0.082 -0.125,-5.113 -3.293,0.082 z"
   id="path81" />
		<path
   d="m 14.83,50.724 4.438,1.268 0.906,-3.525 -4.941,-0.379 -0.403,2.636 z"
   id="path83" />
		<path
   d="m 61.738,60.897 -4.512,-0.967 -0.668,3.578 4.955,0.047 0.225,-2.658 z"
   id="path85" />
		<path
   d="m 33.561,76.124 v 5.273 h 3.295 v -5.273 h -3.295 z"
   id="path87" />
		<path
   d="m 45.73,46.386 c 0.898,-1.898 2.654,-2.951 3.92,-2.35 1.268,0.602 1.562,2.625 0.66,4.523 -0.898,1.898 -2.654,2.949 -3.92,2.348 -1.267,-0.599 -1.562,-2.625 -0.66,-4.521 z"
   id="path89"
   style="fill:#ffffff" />
		<path
   d="M 28.312,25.907 C 21.779,27.759 16.24,32.257 12.716,38.571 8.484,46.151 7.523,55.655 10.071,64.645 14.93,81.776 31.018,92.276 45.934,88.05 52.469,86.196 58.008,81.7 61.532,75.388 65.761,67.806 66.727,58.298 64.175,49.304 61.624,40.31 55.812,32.724 48.232,28.495 41.916,24.972 34.842,24.054 28.312,25.907 M 12.514,63.952 c -2.371,-8.348 -1.488,-17.148 2.418,-24.145 3.193,-5.723 8.191,-9.793 14.074,-11.461 5.879,-1.668 12.268,-0.83 17.986,2.363 7.002,3.904 12.373,10.934 14.742,19.285 2.369,8.354 1.488,17.158 -2.42,24.156 -3.191,5.721 -8.191,9.791 -14.072,11.457 -13.57,3.847 -28.25,-5.866 -32.728,-21.655 z"
   id="path91" />
	</g>
</svg>