<?xml version="1.0" encoding="UTF-8" standalone="no"?>
<!-- Created with Inkscape (http://www.inkscape.org/) -->

<svg
   xmlns:svg="http://www.w3.org/2000/svg"
   xmlns="http://www.w3.org/2000/svg"
   version="1.1"
   width="128"
   height="94"
   id="svg2">
  <defs
     id="defs56" />
  <g
     id="g4">
    <linearGradient
       x1="75.099998"
       y1="28.620001"
       x2="46.529999"
       y2="86.150002"
       id="gradient0"
       gradientUnits="userSpaceOnUse">
      <stop
         id="stop7"
         style="stop-color:#fdfeed;stop-opacity:1"
         offset="0" />
      <stop
         id="stop9"
         style="stop-color:#fff24b;stop-opacity:1"
         offset="1" />
    </linearGradient>
    <path
       d="M 43.08,85.66 9.76,45.91 66,20.84 115.42,61.73 43.08,85.67 z"
       id="path11"
       style="fill:url(#gradient0)" />
    <path
       d="M 3.25,44.41 42.15,90.5 121.93,63.21 66.93,15.98 3.25,44.4 z"
       id="path13"
       style="fill:#000000" />
    <linearGradient
       x1="75.099998"
       y1="28.620001"
       x2="46.529999"
       y2="86.150002"
       id="gradient1"
       gradientUnits="userSpaceOnUse">
      <stop
         id="stop16"
         style="stop-color:#d9d8ff;stop-opacity:1"
         offset="0.0055" />
      <stop
         id="stop18"
         style="stop-color:#fdfeed;stop-opacity:1"
         offset="0.51389998" />
      <stop
         id="stop20"
         style="stop-color:#9a99cd;stop-opacity:1"
         offset="1" />
    </linearGradient>
    <path
       d="M 43.08,85.66 9.76,45.91 66,20.84 115.42,61.73 43.08,85.67 z"
       id="path22"
       style="fill:url(#gradient1)" />
    <linearGradient
       x1="63.700001"
       y1="9.2700005"
       x2="56.150002"
       y2="78.669998"
       id="gradient2"
       gradientUnits="userSpaceOnUse">
      <stop
         id="stop25"
         style="stop-color:#fdfeed;stop-opacity:1"
         offset="0" />
      <stop
         id="stop27"
         style="stop-color:#fff24b;stop-opacity:1"
         offset="1" />
    </linearGradient>
    <path
       d="M 73.1,80.56 6.58,45.25 47.06,4.52 113.58,39.83 73.1,80.56 z"
       id="path29"
       style="fill:url(#gradient2)" />
    <path
       d="M 0,46.29 73.76,85.45 120.16,38.76 46.41,-0.39 0,46.29 z"
       id="path31"
       style="fill:#000000" />
    <linearGradient
       x1="62.110001"
       y1="-4.1599998"
       x2="59.110001"
       y2="64.839996"
       id="gradient3"
       gradientUnits="userSpaceOnUse">
      <stop
         id="stop34"
         style="stop-color:#d9d8ff;stop-opacity:1"
         offset="0.0055" />
      <stop
         id="stop36"
         style="stop-color:#fdfeed;stop-opacity:1"
         offset="0.51389998" />
      <stop
         id="stop38"
         style="stop-color:#9a99cd;stop-opacity:1"
         offset="1" />
    </linearGradient>
    <path
       d="M 73.1,80.56 6.58,45.25 47.06,4.52 113.58,39.83 73.1,80.56 z"
       id="path40"
       style="fill:url(#gradient3)" />
    <path
       d="m 3.75,47.57 53.29,34.81 -14.89,8.12 22.37,-1.98 12.15,4.09 13.09,-15.36 37.4,-12.28 -12.15,-13.31 10.28,-7.16 -10.62,-3.13 -9.01,10.3 10.28,7.17 L 83.22,72.15 73.09,80.55 3.75,47.57 z"
       id="path42"
       style="fill:#000000;fill-opacity:0.2" />
    <path
       d="m 108.77,55.22 -10.3,10.64 -11.06,4.69 18.02,-19.35 3.34,4.01 z"
       id="path44"
       style="fill:#000000;fill-opacity:0.2" />
    <path
       d="m 60.42,60.77 0.24,-48.22 c -0.46,-0.09 0,-0.03 -0.49,-0.03 -0.49,0 -1.31,0 -2.26,0 -4.94,0 -6.69,0.64 -8.89,2.75 -2.19,2.1 -3.1,5.14 -3.82,10.52 L 40.35,25.77 V 5.14 c 3.31,0 7.26,0.06 10.93,0.06 3.67,0 7.04,0 12.03,0 7.08,0 14.4,0.05 19.48,0 5.57,-0.06 8.17,0 12.75,0 v 20.76 h -4.41 c -0.69,-5.26 -1.24,-8.15 -3.55,-10.15 -2.32,-2 -2.61,-2.71 -7.31,-3.16 -0.8,-0.07 -3.11,-0.06 -5.02,-0.06 v 0.16 l 0.06,48.04 c 0.81,1.47 0.48,1.8 1.58,2.89 1.14,1.13 2.53,1.61 7.22,1.42 l -0.05,6.46 c -2.44,0 -3.93,0 -6.4,0 -2.45,0 -4.74,0 -7.39,0 -2.42,0 -5.54,0 -8.44,0 -2.89,0 -5.9,0.06 -8.99,0.06 l 0.05,-6.33 c 3.67,0 4.57,-0.48 5.68,-1.12 1.29,-0.75 1.43,-0.41 1.87,-3.39 l 0,0 z"
       id="path46"
       style="fill:#000001" />
    <path
       d="M 61.53,58.88 V 11.57 c -0.42,-0.06 -0.87,-0.09 -1.33,-0.09 -0.46,0 -1.13,0 -2.01,0 -4.56,0 -7.86,0.96 -9.9,2.89 -2.03,1.92 -3.38,5.35 -4.04,10.27 H 41.3 V 6.29 c 3.06,0 6.28,0 9.68,0 3.39,0 7.39,0 11.99,0 6.54,0 12.39,0 17.54,0 5.14,0 9.88,0 14.22,0 v 18.35 h -2.72 c -0.64,-4.82 -1.99,-8.23 -4.05,-10.21 -2.05,-1.97 -5.23,-2.96 -9.53,-2.96 -0.74,0 -1.99,0 -3.75,0 H 74.4 v 47.27 c 0,3.01 0.59,5.04 1.79,6.1 1.19,1.05 3.54,1.57 7.03,1.57 v 4.03 c -2.25,0 -4.52,0 -6.8,0 -2.27,0 -4.64,0 -7.09,0 -2.23,0 -4.69,0 -7.37,0 -2.67,0 -5.44,0 -8.3,0 v -4.03 c 3.25,0 5.39,-0.5 6.41,-1.51 1.02,-1 1.52,-3.02 1.52,-6.03 l -0.01,0.01 z"
       id="path48"
       style="fill:#4356e8" />
    <path
       d="m 38.34,75.86 0.24,-48.22 c -0.46,-0.09 0,-0.03 -0.49,-0.03 -0.49,0 -1.31,0 -2.26,0 -4.94,0 -6.69,0.64 -8.89,2.75 -2.19,2.1 -3.1,5.14 -3.82,10.52 L 18.27,40.86 V 20.23 c 3.31,0 7.26,0.06 10.93,0.06 3.67,0 7.04,0 12.03,0 7.08,0 14.4,0.05 19.48,0 5.57,-0.06 8.17,0 12.75,0 V 41.05 H 69.05 C 68.36,35.79 67.81,32.9 65.5,30.9 c -2.32,-2 -2.61,-2.71 -7.31,-3.16 -0.8,-0.07 -3.11,-0.06 -5.02,-0.06 v 0.16 l 0.06,48.04 c 0.81,1.47 0.48,1.8 1.58,2.89 1.14,1.13 2.53,1.61 7.22,1.42 l -0.05,6.46 c -2.44,0 -3.93,0 -6.4,0 -2.45,0 -4.74,0 -7.39,0 -2.42,0 -5.54,0 -8.44,0 -2.89,0 -5.9,0.06 -8.99,0.06 l 0.05,-6.33 c 3.67,0 4.57,-0.48 5.68,-1.12 1.29,-0.75 1.43,-0.41 1.87,-3.39 l 0,0 z"
       id="path50"
       style="fill:#000001" />
    <path
       d="M 39.44,73.89 V 26.58 c -0.42,-0.06 -0.87,-0.09 -1.33,-0.09 -0.46,0 -1.13,0 -2.01,0 -4.56,0 -7.86,0.96 -9.9,2.89 -2.03,1.92 -3.38,5.35 -4.04,10.27 H 19.21 V 21.3 c 3.06,0 6.28,0 9.68,0 3.39,0 7.39,0 11.99,0 6.54,0 12.39,0 17.54,0 5.14,0 9.88,0 14.22,0 v 18.35 h -2.72 c -0.64,-4.82 -1.99,-8.23 -4.05,-10.21 -2.05,-1.97 -5.23,-2.96 -9.53,-2.96 -0.74,0 -1.99,0 -3.75,0 h -0.28 v 47.27 c 0,3.01 0.59,5.04 1.79,6.1 1.19,1.05 3.54,1.57 7.03,1.57 v 4.03 c -2.25,0 -4.52,0 -6.8,0 -2.27,0 -4.64,0 -7.09,0 -2.23,0 -4.69,0 -7.37,0 -2.67,0 -5.44,0 -8.3,0 v -4.03 c 3.25,0 5.39,-0.5 6.41,-1.51 1.02,-1 1.52,-3.02 1.52,-6.03 l -0.01,0.01 z"
       id="path52"
       style="fill:#1a2fcc" />
  </g>
</svg>
