<?xml version="1.0" encoding="UTF-8" standalone="no"?>
<!-- Created with Inkscape (http://www.inkscape.org/) -->

<svg
   xmlns:dc="http://purl.org/dc/elements/1.1/"
   xmlns:cc="http://creativecommons.org/ns#"
   xmlns:rdf="http://www.w3.org/1999/02/22-rdf-syntax-ns#"
   xmlns:svg="http://www.w3.org/2000/svg"
   xmlns="http://www.w3.org/2000/svg"
   version="1.1"
   width="126.23"
   height="119.135"
   viewBox="0 0 126.23 119.135"
   id="svg2"
   xml:space="preserve"
   style="overflow:visible"><metadata
   id="metadata135"><rdf:RDF><cc:Work
       rdf:about=""><dc:format>image/svg+xml</dc:format><dc:type
         rdf:resource="http://purl.org/dc/dcmitype/StillImage" /><dc:title></dc:title></cc:Work></rdf:RDF></metadata><defs
   id="defs133">
			
			
			
			
			
			
			
			
			
			
			
			
		
			
			
			
			
			
			
			
			
			
			
			
			
			
			
			
		</defs>
		<polygon
   points="2.717,90.124 57.513,119.135 103.963,75.521 103.969,33.328 49.187,4.33 43.165,9.984 17.173,0 0,21.843 21.933,30.05 2.75,47.935 "
   id="polygon5" /><path
   d="m 42,25.318 c -0.838,-0.313 -1.266,-1.251 -0.952,-2.088 0.314,-0.84 1.251,-1.266 2.089,-0.954 0.65,0.244 1.055,0.865 1.055,1.522 0,0.188 -0.032,0.379 -0.103,0.564 -0.149,0.402 -0.46,0.733 -0.849,0.911 -0.388,0.18 -0.842,0.194 -1.24,0.045 z"
   id="path7" /><polygon
   points="126.23,74.441 126.152,64.553 103.792,57.849 103.849,75.181 57.513,119.135 78.845,119.135 "
   id="polygon9"
   style="opacity:0.2" /><g
   id="g11">
				
					<linearGradient
   x1="-283.75241"
   y1="288.8779"
   x2="-325.9501"
   y2="265.819"
   id="XMLID_625_"
   gradientUnits="userSpaceOnUse"
   gradientTransform="matrix(1,0,0,-1,337.3848,359.0664)">
					<stop
   id="stop14"
   style="stop-color:#fac08b;stop-opacity:1"
   offset="0" />
					<stop
   id="stop16"
   style="stop-color:#cd9363;stop-opacity:1"
   offset="1" />
					<midPointStop
   offset="0"
   style="stop-color:#FAC08B"
   id="midPointStop18" />
					<midPointStop
   offset="0.5"
   style="stop-color:#FAC08B"
   id="midPointStop20" />
					<midPointStop
   offset="1"
   style="stop-color:#CD9363"
   id="midPointStop22" />
				</linearGradient>
				<polygon
   points="57.022,76.392 57.022,115.48 57.021,115.48 5.717,88.317 5.717,49.229 "
   id="polygon24"
   style="fill:url(#XMLID_625_)" />
			</g><g
   id="g26">
				<polygon
   points="100.969,35.135 100.963,74.223 57.032,115.469 57.032,76.029 "
   id="polygon28"
   style="fill:#9a6633" />
			</g><g
   id="g30">
				
					<linearGradient
   x1="-290.58401"
   y1="355.9473"
   x2="-281.73849"
   y2="303.2493"
   id="XMLID_626_"
   gradientUnits="userSpaceOnUse"
   gradientTransform="matrix(1,0,0,-1,337.3848,359.0664)">
					<stop
   id="stop33"
   style="stop-color:#ffcd99;stop-opacity:1"
   offset="0" />
					<stop
   id="stop35"
   style="stop-color:#eba76e;stop-opacity:1"
   offset="1" />
					<midPointStop
   offset="0"
   style="stop-color:#FFCD99"
   id="midPointStop37" />
					<midPointStop
   offset="0.5"
   style="stop-color:#FFCD99"
   id="midPointStop39" />
					<midPointStop
   offset="1"
   style="stop-color:#EBA76E"
   id="midPointStop41" />
				</linearGradient>
				<polygon
   points="49.678,7.983 100.963,35.119 57.032,76.366 5.75,49.23 "
   id="polygon43"
   style="fill:url(#XMLID_626_)" />
			</g><g
   id="g45">
				
					<linearGradient
   x1="-305.09671"
   y1="290.97659"
   x2="-307.19699"
   y2="258.42249"
   id="XMLID_627_"
   gradientUnits="userSpaceOnUse"
   gradientTransform="matrix(1,0,0,-1,337.3848,359.0664)">
					<stop
   id="stop48"
   style="stop-color:#ff3000;stop-opacity:1"
   offset="0" />
					<stop
   id="stop50"
   style="stop-color:#ff0000;stop-opacity:1"
   offset="1" />
					<midPointStop
   offset="0"
   style="stop-color:#FF3000"
   id="midPointStop52" />
					<midPointStop
   offset="0.5"
   style="stop-color:#FF3000"
   id="midPointStop54" />
					<midPointStop
   offset="1"
   style="stop-color:#FF0000"
   id="midPointStop56" />
				</linearGradient>
				<polygon
   points="26.437,60.148 26.437,99.288 36.303,104.512 36.303,65.373 "
   id="polygon58"
   style="fill:url(#XMLID_627_)" />
			</g><g
   id="g60">
				
					<linearGradient
   x1="-251.9268"
   y1="278.69141"
   x2="-270.77689"
   y2="293.5965"
   id="XMLID_628_"
   gradientUnits="userSpaceOnUse"
   gradientTransform="matrix(1,0,0,-1,337.3848,359.0664)">
					<stop
   id="stop63"
   style="stop-color:#a43500;stop-opacity:1"
   offset="0" />
					<stop
   id="stop65"
   style="stop-color:#a40000;stop-opacity:1"
   offset="1" />
					<midPointStop
   offset="0"
   style="stop-color:#A43500"
   id="midPointStop67" />
					<midPointStop
   offset="0.5"
   style="stop-color:#A43500"
   id="midPointStop69" />
					<midPointStop
   offset="1"
   style="stop-color:#A40000"
   id="midPointStop71" />
				</linearGradient>
				<polygon
   points="74.021,60.174 74.021,99.476 83.887,90.211 83.887,50.991 "
   id="polygon73"
   style="fill:url(#XMLID_628_)" />
			</g><g
   id="g75">
				<polygon
   points="23.223,32.756 74.021,60.171 83.887,50.905 33.089,23.571 "
   id="polygon77"
   style="fill:#ff0000" />
			</g><g
   id="g79"
   style="opacity:0.2">
				<path
   d="m 27.234,60.34 9.171,5.112 c 0,0 11.899,-10.335 23.591,-21.608 C 70.325,33.883 80.455,24.323 80.455,24.323 L 71.121,19.444 27.234,60.34 z"
   id="path81" />
			</g><g
   id="g83">
				
					<linearGradient
   x1="-297.65921"
   y1="320.2373"
   x2="-259.44391"
   y2="311.0939"
   id="XMLID_629_"
   gradientUnits="userSpaceOnUse"
   gradientTransform="matrix(1,0,0,-1,337.3848,359.0664)">
					<stop
   id="stop86"
   style="stop-color:#ff6538;stop-opacity:1"
   offset="0" />
					<stop
   id="stop88"
   style="stop-color:#ff0000;stop-opacity:1"
   offset="1" />
					<midPointStop
   offset="0"
   style="stop-color:#FF6538"
   id="midPointStop90" />
					<midPointStop
   offset="0.5"
   style="stop-color:#FF6538"
   id="midPointStop92" />
					<midPointStop
   offset="1"
   style="stop-color:#FF0000"
   id="midPointStop94" />
				</linearGradient>
				<polygon
   points="70.519,18.842 26.434,60.139 36.299,65.362 80.385,24.065 "
   id="polygon96"
   style="fill:url(#XMLID_629_)" />
			</g><g
   id="g98"
   style="opacity:0.2">
				<g
   id="g100">
					<path
   d="M 44.704,32.462 37.347,33.89 5.508,21.979 l 13.4,-16.88 25.536,9.811 4.617,5.904 -4.357,11.648 z m -1.916,-5.725 c 0.79,0.297 1.67,-0.104 1.966,-0.896 0.296,-0.79 -0.105,-1.67 -0.896,-1.965 -0.79,-0.296 -1.671,0.104 -1.966,0.894 -0.295,0.793 0.106,1.672 0.896,1.967 z"
   id="path102" />
				</g>
			</g><g
   id="g104">
				<g
   id="g106">
					
						<linearGradient
   x1="-317.6167"
   y1="344.89841"
   x2="-296.09399"
   y2="331.52261"
   id="XMLID_630_"
   gradientUnits="userSpaceOnUse"
   gradientTransform="matrix(1,0,0,-1,337.3848,359.0664)">
						<stop
   id="stop109"
   style="stop-color:#ffd22d;stop-opacity:1"
   offset="0" />
						<stop
   id="stop111"
   style="stop-color:#ffff66;stop-opacity:1"
   offset="1" />
						<midPointStop
   offset="0"
   style="stop-color:#FFD22D"
   id="midPointStop113" />
						<midPointStop
   offset="0.5"
   style="stop-color:#FFD22D"
   id="midPointStop115" />
						<midPointStop
   offset="1"
   style="stop-color:#FFFF66"
   id="midPointStop117" />
					</linearGradient>
					<path
   d="M 43.949,30.953 36.593,32.382 4.753,20.47 18.152,3.59 l 25.537,9.81 4.617,5.904 -4.357,11.649 z m -1.916,-5.724 c 0.79,0.295 1.67,-0.104 1.967,-0.896 0.295,-0.791 -0.106,-1.67 -0.896,-1.966 -0.79,-0.297 -1.671,0.104 -1.966,0.896 -0.296,0.79 0.105,1.67 0.895,1.966 z"
   id="path119"
   style="fill:url(#XMLID_630_)" />
				</g>
			</g><path
   d="m 43.019,24.945 c 0.399,-2.405 4.792,-0.599 5.392,2.097 0.599,2.695 2.396,8.388 4.043,8.537"
   id="path121"
   style="fill:none;stroke:#000000;stroke-width:1.05009997" /><g
   id="g123">
				<path
   d="m 20.193,10.655 c 0.585,0.106 1.313,0.29 2.173,0.599 1.055,0.379 1.654,0.853 1.835,1.384 0.178,0.479 0.036,1.061 -0.48,1.651 -0.527,0.6 -3.214145,3.661298 -3.947145,3.853298 -0.986,0.279 -2.123,0.194 -3.167,-0.181 -0.318,-0.113 -0.07014,0.02388 -0.274141,-0.114119 L 16.023762,17.778685 14.452,17.197 z m -3.779145,6.241298 c 0.188,0.133 1.631013,0.515881 1.975013,0.638881 1.132413,0.355609 4.544047,-4.038877 4.966775,-4.566605 C 23.289706,12.445847 22.973,12.364 21.795,11.941 21.328,11.774 20.938,11.686 20.729,11.649 z"
   id="path125"
   style="fill:#88032d" />
				<path
   d="m 26.802,12.911 1.067,0.384 -0.700659,1.033463 0.655153,-1.054719 1.440587,0.45123 L 31.084,14.448 30.356855,15.177881 27.026294,14.0218 l -1.554992,1.970527 3.203562,1.316166 -0.78123,0.80052 -3.123872,-1.217774 -0.681191,0.765464 -1.355539,1.383618 3.280611,1.327423 -0.821681,0.681171 L 20.977,19.542 z"
   id="path127"
   style="fill:#88032d" />
				
			<path
   d="m 33.431894,15.308463 1.067,0.384 -0.700659,1.033463 0.655153,-1.054719 2.002545,0.732209 c 0.21865,0.227123 0.634053,0.363261 1.244059,1.052133 0.368086,0.415674 0.08574,1.187897 -0.220539,1.651003 -0.437822,0.662014 -0.733925,0.809444 -2.048413,1.213903 -1.314491,0.404459 -1.015267,0.180757 -1.015267,0.180757 l 0.54442,-0.780102 c 0,0 1.176083,-0.438727 1.511807,-0.924803 0.207087,-0.29983 0.375166,-0.752774 0.203328,-1.074107 -0.49816,-0.93155 -2.917046,-1.2387 -2.917046,-1.2387 l -0.102095,-0.06424 -1.554992,1.970527 3.203562,1.316166 -0.78123,0.80052 -3.123872,-1.217774 -0.681191,0.765464 -1.355539,1.383618 c 0,0 2.436368,1.073652 2.806973,1.086847 0.370604,0.01319 1.025977,2.84e-4 1.333608,-0.182633 1.983277,-1.179255 0.837052,-0.18412 1.035095,-0.51466 0.225663,-0.376639 0.155727,-0.624676 -0.03924,-1.316619 -0.194973,-0.691943 0.01179,0.02925 0.01179,0.02925 0,0 0.688095,-0.472552 1.04593,-0.232766 0.357835,0.239785 0.418746,1.013011 0.25756,1.490881 -0.164861,0.488765 -0.67734,0.812432 -1.133213,1.053782 -0.762731,0.403808 -1.661862,0.616448 -2.523987,0.576945 -1.59435,-0.07306 -4.550544,-1.489348 -4.550544,-1.489348 z"
   id="path3700"
   style="fill:#88032d" /></g>
	<g
   transform="matrix(1.0651781,0,0,1.2135006,48.979154,18.007424)"
   id="g3349">
				<polygon
   points="23.846,43.155 14.204,51.374 36.97,81.385 59.231,70.082 69.384,61.43 54.129,55.307 54.263,27.438 36.521,20.32 27.989,27.594 27.906,44.784 "
   id="polygon3351" />
				<polygon
   points="24.412,46.614 36.954,51.647 30.849,56.852 18.307,51.818 "
   id="polygon3353"
   style="fill:#009900" />
				<polygon
   points="37.846,77.574 57.555,67.568 45.014,62.536 45.148,34.667 30.982,28.983 30.848,56.852 18.307,51.818 "
   id="polygon3355"
   style="fill:#33cc33" />
				<polygon
   points="57.556,67.569 45.014,62.536 45.148,34.667 30.982,28.983 37.087,23.779 51.253,29.463 51.119,57.332 63.662,62.365 "
   id="polygon3357"
   style="fill:#009900" />
				<polygon
   points="51.253,29.463 51.119,57.332 45.014,62.536 45.148,34.667 "
   id="polygon3359"
   style="fill:#006f00" />
			</g></svg>