<?xml version="1.0" encoding="UTF-8" standalone="no"?>
<!DOCTYPE svg PUBLIC "-//W3C//DTD SVG 20010904//EN"
"http://www.w3.org/TR/2001/REC-SVG-20010904/DTD/svg10.dtd">
<!-- Created with Sodipodi ("http://www.sodipodi.com/") -->
<svg
   width="57.32pt"
   height="48pt"
   viewBox="0 0 59.146 49.697"
   overflow="visible"
   enable-background="new 0 0 59.146 49.697"
   xml:space="preserve"
   xmlns="http://www.w3.org/2000/svg"
   xmlns:xml="http://www.w3.org/XML/1998/namespace"
   xmlns:sodipodi="http://sodipodi.sourceforge.net/DTD/sodipodi-0.dtd"
   xmlns:xlink="http://www.w3.org/1999/xlink"
   id="svg153"
   sodipodi:version="0.32pre"
   sodipodi:docname="/home/cschalle/gnome-themes-extras/Wasp/icons/scalable/apps/gimp.svg"
   sodipodi:docbase="/home/cschalle/gnome-themes-extras/Wasp/icons/scalable/apps">
  <defs
     id="defs291" />
  <sodipodi:namedview
     id="base" />
  <g
     id="Layer_1"
     stroke="#000000">
    <g
       id="Layer_1_1_">
      <g
         id="Layer_1_2_">
        <g
           id="g157">
          <linearGradient
             id="XMLID_1_"
             gradientUnits="userSpaceOnUse"
             x1="-639.4277"
             y1="359.2432"
             x2="-624.7156"
             y2="383.377"
             gradientTransform="matrix(0.4828 0.721 -0.7677 0.514 622.8202 300.4732)">
            <stop
               offset="0"
               style="stop-color:#FDFEED"
               id="stop159" />
            <stop
               offset="1"
               style="stop-color:#FFF24B"
               id="stop160" />
          </linearGradient>
          <path
             fill="url(#XMLID_1_)"
             stroke="none"
             d="M25.507,46.911L12.176,31.009l22.499-10.03l19.771,16.357L25.507,46.911z"
             id="path164" />
        </g>
        <path
           stroke="none"
           d="M9.573,30.41l15.563,18.44l31.912-10.917L35.046,19.039L9.573,30.41z"
           id="path165" />
        <g
           id="g166">
          <linearGradient
             id="XMLID_2_"
             gradientUnits="userSpaceOnUse"
             x1="-639.4277"
             y1="359.2432"
             x2="-624.7156"
             y2="383.377"
             gradientTransform="matrix(0.4828 0.721 -0.7677 0.514 622.8202 300.4732)">
            <stop
               offset="0.0056"
               style="stop-color:#D9D8FF"
               id="stop168" />
            <stop
               offset="0.514"
               style="stop-color:#FDFEED"
               id="stop169" />
            <stop
               offset="1"
               style="stop-color:#9A99CD"
               id="stop170" />
          </linearGradient>
          <path
             fill="url(#XMLID_2_)"
             stroke="none"
             d="M25.507,46.911L12.176,31.009l22.499-10.03l19.771,16.357L25.507,46.911z"
             id="path176" />
        </g>
        <g
           id="g177">
          <linearGradient
             id="XMLID_3_"
             gradientUnits="userSpaceOnUse"
             x1="-576.8604"
             y1="240.7178"
             x2="-560.8719"
             y2="266.9452"
             gradientTransform="matrix(0.702 0.51 -0.543 0.7475 569.4196 130.618)">
            <stop
               offset="0"
               style="stop-color:#FDFEED"
               id="stop179" />
            <stop
               offset="1"
               style="stop-color:#FFF24B"
               id="stop180" />
          </linearGradient>
          <path
             fill="url(#XMLID_3_)"
             stroke="none"
             d="M37.516,44.867l-26.61-14.126l16.195-16.293L53.71,28.575L37.516,44.867z"
             id="path184" />
        </g>
        <path
           stroke="none"
           d="M8.273,31.163l29.504,15.665l18.563-18.676L26.837,12.488L8.273,31.163z"
           id="path185" />
        <g
           id="g186">
          <linearGradient
             id="XMLID_4_"
             gradientUnits="userSpaceOnUse"
             x1="-470.8525"
             y1="45.7754"
             x2="-472.0526"
             y2="73.376"
             gradientTransform="matrix(1 0 0 1 503.9727 -34.7949)">
            <stop
               offset="0.0056"
               style="stop-color:#D9D8FF"
               id="stop188" />
            <stop
               offset="0.514"
               style="stop-color:#FDFEED"
               id="stop189" />
            <stop
               offset="1"
               style="stop-color:#9A99CD"
               id="stop190" />
          </linearGradient>
          <path
             fill="url(#XMLID_4_)"
             stroke="none"
             d="M37.516,44.867l-26.61-14.126l16.195-16.293L53.71,28.575L37.516,44.867z"
             id="path196" />
        </g>
        <path
           opacity="0.2"
           stroke="none"
           d="M9.776,31.673l21.319,13.928l-5.958,3.25l8.951-0.793l4.861,1.64l5.237-6.144l14.96-4.916      l-4.86-5.326l4.112-2.867l-4.248-1.253l-3.606,4.12l4.114,2.868l-13.09,5.325l-4.054,3.362L9.776,31.673z"
           id="path197" />
        <g
           id="g198">
          <linearGradient
             id="XMLID_5_"
             gradientUnits="userSpaceOnUse"
             x1="-463.8242"
             y1="64.3154"
             x2="-464.0234"
             y2="70.396"
             gradientTransform="matrix(1 0 0 1 503.9727 -34.7949)">
            <stop
               offset="0.0056"
               style="stop-color:#CFD2DE"
               id="stop200" />
            <stop
               offset="1"
               style="stop-color:#7C7ED9"
               id="stop201" />
          </linearGradient>
          <path
             fill="url(#XMLID_5_)"
             stroke="none"
             d="M27.227,31.955l7.644-2.538l18.114,0.298l-5.53,4.854L27.227,31.955z"
             id="path205" />
        </g>
        <path
           a:adobe-blending-mode="multiply"
           opacity="0.2"
           stroke="none"
           d="M51.783,34.736l-4.122,4.257l-4.428,1.876l7.21-7.74      L51.783,34.736z"
           id="path206" />
        <g
           id="g207">
          <radialGradient
             id="XMLID_6_"
             cx="-472.4248"
             cy="59.7246"
             r="2.6314"
             fx="-472.4248"
             fy="59.7246"
             gradientTransform="matrix(1 0 0 1 503.9727 -34.7949)"
             gradientUnits="userSpaceOnUse">
            <stop
               offset="0"
               style="stop-color:#FE725D"
               id="stop209" />
            <stop
               offset="1"
               style="stop-color:#AE0000"
               id="stop210" />
          </radialGradient>
          <path
             fill="url(#XMLID_6_)"
             stroke="none"
             d="M32.599,22.799c-1.885-0.228-3.394,0.527-3.469,4.676       c-0.075,4.147-1.282,3.696-1.583,3.696c0.98,0.301,8.975,0.903,8.673-5.055C35.466,25.663,32.523,23.402,32.599,22.799z"
             id="path214" />
        </g>
        <path
           stroke="none"
           d="M30.105,23.017c-0.885,0.771-1.335,2.226-1.375,4.451c-0.042,2.31-0.417,3.028-0.671,3.212      c-0.499,0.357-1.347,0.22-1.384,0.418c-0.036,0.199,0.56,0.396,0.754,0.455c0.728,0.225,4.986,0.599,7.433-1.307      c1.256-0.978,1.848-2.374,1.758-4.149c-0.008-0.133-0.08-0.254-0.193-0.323c-0.887-0.532-3.296-2.48-3.43-2.98l0.001,0.056      c-0.004-0.199-0.151-0.424-0.35-0.447C31.562,22.271,30.73,22.473,30.105,23.017z M32.198,22.799      c0-0.017,0.001-0.033,0.003-0.049C32.199,22.766,32.199,22.782,32.198,22.799z M29.529,27.482      c0.036-1.958,0.406-3.257,1.101-3.862c0.406-0.354,1.214-0.479,1.945-0.43c0.525,1.043,2.571,2.677,3.249,3.144      c0.001,0.033,0.003,0.068,0.003,0.104c0,1.357-0.49,2.426-1.457,3.18c-1.566,1.219-4.036,1.39-5.526,1.317      C29.266,30.294,29.499,29.179,29.529,27.482z"
           id="path215" />
        <path
           stroke="none"
           d="M33.879,25.31c1.011,1.012,2.411,1.28,2.411,1.28c4.242-2.487,8.321-4.642,18.287-20.043      c1.61-2.487,0.748-3.085,0.748-3.085s-0.455-0.72-2.941,0.891c-15.402,9.967-17.557,14.045-20.042,18.288      C32.34,22.64,32.917,24.347,33.879,25.31z"
           id="path216" />
        <g
           id="g217">
          <path
             fill="#222222"
             stroke="none"
             d="M53.876,4.143c-14.646,9.477-17.779,13.954-20.159,18.02       c0.113,0.567,0.352,1.367,0.725,1.74c0.389,0.388,1.089,0.552,1.541,0.609c4.046-2.365,8.682-5.259,17.994-19.581       c0.181-0.376,0.51-0.675,0.271-0.885C54.182,4.086,53.95,4.095,53.876,4.143z"
             id="path218" />
        </g>
        <g
           id="g219">
          <path
             fill="#666666"
             stroke="none"
             d="M34.433,22.096c0.104,0.342,0.209,0.555,0.258,0.612c0.027,0.023,0.178,0.08,0.375,0.138       c3.348-1.969,11.729-8.501,18.729-18.678C43.648,11.142,36.386,18.775,34.433,22.096z"
             id="path220" />
        </g>
        <g
           id="g221">
          <path
             fill="#B3B3B3"
             stroke="none"
             d="M34.433,22.096c0.104,0.342,0.209,0.555,0.258,0.612c0.027,0.023,0.178,0.08,0.375,0.138       c2.508-2.652,9.65-9.003,18.438-18.483C43.452,12.969,36.796,19.028,34.433,22.096z"
             id="path222" />
        </g>
        <g
           id="g223">
          <path
             fill="#888889"
             stroke="none"
             d="M33.873,25.311c1.011,1.012,2.417,1.279,2.417,1.279       c1.213-0.711,2.412-1.396,3.741-2.369c-1.391-0.627-4.79-3.735-5.437-5.167c-0.913,1.267-1.571,2.42-2.255,3.586       C32.34,22.64,32.911,24.348,33.873,25.311z"
             id="path224" />
        </g>
        <g
           id="g225">
          <path
             fill="#E6E6E6"
             stroke="none"
             d="M35.868,22.065c0.432,0.314,2.491,1.312,2.582,1.225       c-0.271-0.193-1.666-1.472-1.98-1.803c-0.301-0.296-0.584-0.594-0.842-0.882c-1.299,1.303-1.95,1.943-2.606,2.795       c0.103,0.342,0.362,0.723,0.5,0.871C34.122,23.639,34.78,23.114,35.868,22.065z"
             id="path226" />
        </g>
        <path
           stroke="none"
           d="M32.34,22.64c2.487-4.243,4.641-8.321,20.043-18.288c2.486-1.609,2.94-0.891,2.94-0.891      s0.862,0.598-0.747,3.085C44.611,21.948,40.532,24.103,36.29,26.59c0,0-1.399-0.269-2.411-1.28      C32.917,24.347,32.34,22.64,32.34,22.64z M52.817,5.023c-14.842,9.604-17.271,13.721-19.593,17.688      c0.201,0.497,0.633,1.445,1.22,2.031c0.58,0.58,1.334,0.867,1.729,0.986c0.002,0,0.015-0.008,0.015-0.008      c3.979-2.327,8.092-4.732,17.719-19.611c0.748-1.154,0.849-1.754,0.849-1.994c0-0.005,0-0.002,0-0.007      C54.514,4.143,53.936,4.301,52.817,5.023z"
           id="path227" />
        <g
           a:adobe-blending-mode="multiply"
           opacity="0.75"
           id="g228">
          <g
             a:adobe-blending-mode="normal"
             id="g229">
            <radialGradient
               id="XMLID_7_"
               cx="-479.8452"
               cy="60.3135"
               r="5.3767"
               fx="-479.8452"
               fy="60.3135"
               gradientTransform="matrix(1 0 0 1 503.9727 -34.7949)"
               gradientUnits="userSpaceOnUse">
              <stop
                 offset="0"
                 style="stop-color:#FE929D"
                 id="stop231" />
              <stop
                 offset="1"
                 style="stop-color:#D91419"
                 id="stop232" />
            </radialGradient>
            <path
               fill="url(#XMLID_7_)"
               stroke="none"
               d="M24.355,24.643c-1.753,0.584-5.845,4.968-5.333,5.845        c0.512,0.876,0.658,2.63,4.164,2.338c3.507-0.292,5.834-1.57,6.418-2.01c0.584-0.438-2.819,0.159-4.236,0.242        c-1.503,0.088-2.912-0.862-2.912-1.447c0-1.68,1.408-3.071,2.338-3.652C25.962,25.227,25.086,24.35,24.355,24.643z"
               id="path236" />
          </g>
        </g>
      </g>
    </g>
    <g
       id="g237">
      <path
         opacity="0.2"
         stroke="none"
         d="M30.618,1.424c-0.941-0.289-2.105,0.485-3.893,2.589c-0.664,0.781-1.271,1.583-1.668,2.125     c-1.496-0.977-5.279-2.843-10.325-0.981c-0.793-0.666-1.811-1.386-3.124-2.198c-0.384-0.237-1.404-0.868-2.094-0.215     C9.309,2.938,9.18,3.183,9.18,3.557c0,0.571,0.308,1.453,1.098,2.905c-1.034,0.326-1.784,1.3-1.784,2.45     c0,0.211,0.028,0.416,0.075,0.611C8.437,9.505,8.313,9.485,8.191,9.465C8.049,9.06,7.858,8.653,7.616,8.255     C6.331,6.136,4.12,5.097,2.678,5.935s-1.569,3.234-0.284,5.353c0.52,0.856,1.19,1.536,1.9,1.987     c1.975,1.866,6.693,5.569,13.227,5.813c2.859,0.107,5.642-1.02,8.047-3.259c3.699-3.444,6.032-9.109,6.071-12.384     C31.652,2.316,31.309,1.637,30.618,1.424z"
         id="path238" />
      <path
         stroke="none"
         d="M25.616,2.385c-0.664,0.782-1.27,1.583-1.667,2.125c-1.496-0.977-5.28-2.843-10.325-0.981     c-0.793-0.666-1.811-1.386-3.124-2.197c-0.384-0.237-1.405-0.868-2.093-0.215C8.2,1.31,8.07,1.555,8.07,1.93     c0,0.671,0.425,1.77,1.562,3.729c-0.115,0.149-0.2,0.326-0.2,0.531c0,0.093,0.017,0.192,0.057,0.297     c0.189,0.496,0.681,0.581,1.086,0.572c0.471,0.292,1.215,0.063,1.96-0.248c-0.527,0.631-1.389,1.232-2.772,1.232     c-3.24,0-4.684-0.772-4.698-0.78L4.505,6.956L4.08,7.429L1.74,10.101l0.425,0.498c0.228,0.268,5.675,6.542,14.247,6.862     c2.859,0.107,5.642-1.02,8.047-3.259c3.699-3.443,6.031-9.109,6.071-12.384c0.014-1.129-0.33-1.809-1.021-2.021     C28.568-0.493,27.404,0.282,25.616,2.385z"
         id="path239" />
      <linearGradient
         id="XMLID_8_"
         gradientUnits="userSpaceOnUse"
         x1="-168.9238"
         y1="318.6494"
         x2="-163.4658"
         y2="313.8212"
         gradientTransform="matrix(0.9808 0.1949 0.1949 -0.9808 114.3889 348.8748)">
        <stop
           offset="0"
           style="stop-color:#BD8C00"
           id="stop241" />
        <stop
           offset="1"
           style="stop-color:#7D5B00"
           id="stop242" />
      </linearGradient>
      <path
         fill="url(#XMLID_8_)"
         stroke="none"
         d="M14.243,5.169c-0.365-0.336-1.042-1.26-4.162-3.188     C6.96,0.052,10.771,6.027,10.97,6.383C11.167,6.739,14.243,5.169,14.243,5.169z"
         id="path246" />
      <linearGradient
         id="XMLID_9_"
         gradientUnits="userSpaceOnUse"
         x1="-162.1069"
         y1="314.5908"
         x2="-153.7553"
         y2="303.6129"
         gradientTransform="matrix(1 0 0 -1 178 320)">
        <stop
           offset="0"
           style="stop-color:#BD8C00"
           id="stop248" />
        <stop
           offset="1"
           style="stop-color:#7D5B00"
           id="stop249" />
      </linearGradient>
      <path
         fill="url(#XMLID_9_)"
         stroke="none"
         d="M2.767,10.107c0,0,5.354,6.275,13.674,6.587     C24.763,17.005,29.692,6.218,29.745,1.81c0.053-4.409-5.618,3.786-5.618,3.786s-4.611-3.993-11.236-0.934     c-6.625,3.06,1.166,0.881,1.166,0.881s-0.742,3.268-4.293,3.268c-3.551,0-5.088-0.881-5.088-0.881L2.767,10.107z"
         id="path253" />
      <linearGradient
         id="XMLID_10_"
         gradientUnits="userSpaceOnUse"
         x1="-151.7964"
         y1="312.2188"
         x2="-161.9578"
         y2="312.3123"
         gradientTransform="matrix(1 0 0 -1 178 320)">
        <stop
           offset="0"
           style="stop-color:#BD8C00"
           id="stop255" />
        <stop
           offset="1"
           style="stop-color:#D9B200"
           id="stop256" />
      </linearGradient>
      <path
         fill="url(#XMLID_10_)"
         stroke="none"
         d="M25.674,6.409c0,0,2.407-3.478,4.07-4.683c-0.021-3.912-4.839,2.767-5.534,3.75     C25.153,5.958,25.674,6.409,25.674,6.409z M14.057,5.543c0,0-0.011,0.047-0.035,0.127c0.132-0.063,0.269-0.127,0.416-0.194     c3.898-1.8,7.098-1.159,9.073-0.326c-1.464-0.947-5.422-2.888-10.62-0.488C6.265,7.722,14.057,5.543,14.057,5.543z M4.314,10.92     l1.908-2.178c0,0,1.537,0.882,5.088,0.882s4.293-3.268,4.293-3.268s-1.128,0.315-2.161,0.538     c-0.591,0.899-1.698,1.916-3.679,1.916c-3.551,0-5.088-0.881-5.088-0.881l-1.908,2.178c0,0,2.429,2.846,6.557,4.8     C6.143,13.064,4.314,10.92,4.314,10.92z"
         id="path260" />
      <path
         fill="#999999"
         stroke="none"
         d="M7.385,7.285c0,1.418,1.139,2.567,2.544,2.567s2.544-1.149,2.544-2.567     c0-1.417-1.139-2.567-2.544-2.567S7.385,5.867,7.385,7.285z"
         id="path261" />
      <path
         fill="#999999"
         stroke="none"
         d="M11.413,7.933c0,1.776,1.471,3.216,3.286,3.216s3.286-1.44,3.286-3.216     s-1.472-3.215-3.286-3.215C12.884,4.718,11.413,6.157,11.413,7.933z"
         id="path262" />
      <radialGradient
         id="XMLID_11_"
         cx="237.3818"
         cy="709.3867"
         r="39.2005"
         fx="237.3818"
         fy="709.3867"
         gradientTransform="matrix(0.1386 0 0 -0.1356 -22.1034 104.3426)"
         gradientUnits="userSpaceOnUse">
        <stop
           offset="0"
           style="stop-color:#FFFFFF"
           id="stop264" />
        <stop
           offset="1"
           style="stop-color:#D4E1EE"
           id="stop265" />
      </radialGradient>
      <path
         fill="url(#XMLID_11_)"
         stroke="none"
         d="M7.855,7.591c0,1.418,1.139,2.568,2.544,2.568s2.544-1.15,2.544-2.568     c0-1.417-1.139-2.567-2.544-2.567S7.855,6.174,7.855,7.591z"
         id="path269" />
      <path
         opacity="0.73"
         fill="#FFFFFF"
         stroke="none"
         d="M8.163,8.031c0-1.517,1.27-2.747,2.835-2.747     c0.12,0,0.236,0.009,0.352,0.023c-0.25-0.083-0.517-0.13-0.794-0.13c-1.405,0-2.544,1.149-2.544,2.567     c0,0.475,0.13,0.918,0.352,1.3C8.236,8.73,8.163,8.389,8.163,8.031z"
         id="path270" />
      <path
         stroke="none"
         d="M1.286,9.662c1.285,2.119,3.497,3.157,4.939,2.32c1.442-0.838,1.569-3.235,0.283-5.354     S3.011,3.47,1.569,4.308C0.126,5.146,0,7.542,1.286,9.662z"
         id="path271" />
      <radialGradient
         id="XMLID_12_"
         cx="275.0488"
         cy="706.5176"
         r="43.5946"
         fx="275.0488"
         fy="706.5176"
         gradientTransform="matrix(0.1386 0 0 -0.1356 -22.1034 104.3426)"
         gradientUnits="userSpaceOnUse">
        <stop
           offset="0"
           style="stop-color:#FFFFFF"
           id="stop273" />
        <stop
           offset="1"
           style="stop-color:#D4E1EE"
           id="stop274" />
      </radialGradient>
      <path
         fill="url(#XMLID_12_)"
         stroke="none"
         d="M11.883,8.24c0,1.776,1.472,3.216,3.286,3.216c1.815,0,3.287-1.44,3.287-3.216     c0-1.775-1.472-3.215-3.287-3.215C13.355,5.025,11.883,6.464,11.883,8.24z"
         id="path278" />
      <path
         fill="#FFFFFF"
         stroke="none"
         d="M12.414,8.396c0-1.502,1.334-2.734,3.021-2.842c-0.186-0.043-0.379-0.068-0.578-0.068     c-1.38,0-2.501,1.098-2.501,2.448c0,0.187,0.023,0.367,0.063,0.542C12.417,8.448,12.414,8.422,12.414,8.396z"
         id="path279" />
      <radialGradient
         id="XMLID_13_"
         cx="170.2656"
         cy="738.0342"
         r="45.8485"
         fx="170.2656"
         fy="738.0342"
         gradientTransform="matrix(0.1386 0 0 -0.1356 -22.1034 104.3426)"
         gradientUnits="userSpaceOnUse">
        <stop
           offset="0"
           style="stop-color:#FFFFFF"
           id="stop281" />
        <stop
           offset="1"
           style="stop-color:#000000"
           id="stop282" />
      </radialGradient>
      <path
         fill="url(#XMLID_13_)"
         stroke="none"
         d="M1.809,4.397c-0.62,0.36-0.934,1.115-0.934,2.019c0,0.839,0.27,1.805,0.815,2.704     c1.131,1.865,3.098,2.854,4.294,2.16c1.196-0.695,1.25-2.858,0.119-4.723C4.972,4.69,3.005,3.702,1.809,4.397z"
         id="path286" />
      <path
         opacity="0.73"
         fill="#FFFFFF"
         stroke="none"
         d="M10.925,15.459c0,0,11.661,2.297,11.448-3.2     C22.162,6.762,23.01,16.197,10.925,15.459z"
         id="path287" />
      <path
         stroke="none"
         d="M14.799,8.525c0,0.645,0.546,1.167,1.219,1.167c0.673,0,1.219-0.522,1.219-1.167s-0.545-1.167-1.219-1.167     C15.345,7.358,14.799,7.881,14.799,8.525z"
         id="path288" />
      <path
         stroke="none"
         d="M9.923,8.136c0,0.458,0.391,0.83,0.874,0.83s0.875-0.372,0.875-0.83s-0.392-0.83-0.875-0.83     S9.923,7.678,9.923,8.136z"
         id="path289" />
    </g>
  </g>
</svg>
