<?xml version="1.0" encoding="UTF-8" standalone="no"?>
<!-- Created with Inkscape (http://www.inkscape.org/) -->

<svg
   xmlns:dc="http://purl.org/dc/elements/1.1/"
   xmlns:cc="http://creativecommons.org/ns#"
   xmlns:rdf="http://www.w3.org/1999/02/22-rdf-syntax-ns#"
   xmlns:svg="http://www.w3.org/2000/svg"
   xmlns="http://www.w3.org/2000/svg"
   xmlns:xlink="http://www.w3.org/1999/xlink"
   xmlns:sodipodi="http://sodipodi.sourceforge.net/DTD/sodipodi-0.dtd"
   xmlns:inkscape="http://www.inkscape.org/namespaces/inkscape"
   version="1.1"
   width="134"
   height="134"
   id="svg2"
   inkscape:version="0.48.2 r9819"
   sodipodi:docname="gnome-mplayer.svg">
  <sodipodi:namedview
     pagecolor="#ffffff"
     bordercolor="#666666"
     borderopacity="1"
     objecttolerance="10"
     gridtolerance="10"
     guidetolerance="10"
     inkscape:pageopacity="0"
     inkscape:pageshadow="2"
     inkscape:window-width="1270"
     inkscape:window-height="772"
     id="namedview37"
     showgrid="false"
     inkscape:zoom="2.1261261"
     inkscape:cx="67.940678"
     inkscape:cy="55.5"
     inkscape:window-x="0"
     inkscape:window-y="0"
     inkscape:window-maximized="1"
     inkscape:current-layer="svg2" />
  <defs
     id="defs4">
    <linearGradient
       inkscape:collect="always"
       xlink:href="#XMLID_1_"
       id="linearGradient3045"
       gradientUnits="userSpaceOnUse"
       x1="73.555702"
       y1="33.873001"
       x2="29.5172"
       y2="29.597601" />
    <linearGradient
       inkscape:collect="always"
       xlink:href="#XMLID_2_"
       id="linearGradient3047"
       gradientUnits="userSpaceOnUse"
       x1="97.865196"
       y1="62.080101"
       x2="64.090401"
       y2="62.080101" />
    <linearGradient
       inkscape:collect="always"
       xlink:href="#XMLID_1_"
       id="linearGradient3079"
       gradientUnits="userSpaceOnUse"
       x1="73.555702"
       y1="33.873001"
       x2="29.5172"
       y2="29.597601" />
    <linearGradient
       inkscape:collect="always"
       xlink:href="#XMLID_2_"
       id="linearGradient3081"
       gradientUnits="userSpaceOnUse"
       x1="97.865196"
       y1="62.080101"
       x2="64.090401"
       y2="62.080101" />
  </defs>
  <metadata
     id="metadata7">
    <rdf:RDF>
      <cc:Work
         rdf:about="">
        <dc:format>image/svg+xml</dc:format>
        <dc:type
           rdf:resource="http://purl.org/dc/dcmitype/StillImage" />
        <dc:title />
      </cc:Work>
    </rdf:RDF>
  </metadata>
  <rect
     width="111.59179"
     height="86.501274"
     x="5.1440105"
     y="0.3049438"
     id="_111175016"
     style="fill:#1f1a17;stroke:#1f1a17;stroke-width:0.02539864"
     transform="matrix(0.98073063,0.19536488,-0.01986965,0.99980258,0,0)" />
  <rect
     width="98.69677"
     height="74.440033"
     x="8.8547087"
     y="6.6150699"
     id="_86229712"
     style="fill:#ffffff"
     transform="matrix(0.97831791,0.20710884,-0.01419661,0.99989922,0,0)" />
  <g
     transform="matrix(0.5310972,-0.80803256,1.0660631,1.149831,-24.009525,51.128521)"
     id="g3356"
     style="overflow:visible">
    <g
       id="Layer_1_2_">
      <g
         id="g3308">
        <path
           d="M 55.871,0 0,27.971 64.535,93.362 120.406,65.391 55.871,0 z m 6.983,12.252 2.795,2.83 -4.254,2.127 -2.793,-2.826 4.252,-2.131 z M 54.686,3.975 57.479,6.803 53.225,8.93 50.43,6.104 54.686,3.975 z M 8.566,31.287 5.775,28.459 10.027,26.33 12.82,29.158 8.566,31.287 z m 8.17,8.279 -2.793,-2.828 4.252,-2.129 2.795,2.828 -4.254,2.129 z m 8.172,8.28 -2.793,-2.828 4.252,-2.129 2.795,2.828 -4.254,2.129 z m 8.17,8.279 -2.791,-2.828 4.252,-2.129 2.795,2.828 -4.256,2.129 z m 8.17,8.279 -2.789,-2.83 4.248,-2.129 2.795,2.828 -4.254,2.131 z m 8.172,8.28 -2.791,-2.83 4.252,-2.129 2.793,2.83 -4.254,2.129 z m 8.168,8.277 -2.789,-2.83 4.25,-2.127 2.795,2.828 -4.256,2.129 z m 8.172,8.279 -2.789,-2.83 4.25,-2.127 2.793,2.826 -4.254,2.131 z m 3.806,-63.752 -2.793,-2.828 4.252,-2.129 2.795,2.83 -4.254,2.127 z m 8.17,8.28 -2.791,-2.828 4.25,-2.129 2.793,2.828 -4.252,2.129 z m 8.17,8.279 -2.793,-2.83 4.252,-2.129 2.795,2.83 -4.254,2.129 z m 8.172,8.279 -2.793,-2.83 4.252,-2.127 2.795,2.828 -4.254,2.129 z m 8.168,8.278 -2.789,-2.83 4.25,-2.127 2.795,2.828 -4.256,2.129 z m 5.385,5.449 4.25,-2.127 2.795,2.828 -4.256,2.131 -2.789,-2.832 z"
           id="path3310"
           style="fill:#000001"
           inkscape:connector-curvature="0" />
        <linearGradient
           x1="73.555702"
           y1="33.873001"
           x2="29.5172"
           y2="29.597601"
           id="XMLID_1_"
           gradientUnits="userSpaceOnUse">
          <stop
             id="stop3313"
             style="stop-color:#d9d8ff;stop-opacity:1"
             offset="0.0056" />
          <stop
             id="stop3315"
             style="stop-color:#fdfeed;stop-opacity:1"
             offset="0.514" />
          <stop
             id="stop3317"
             style="stop-color:#6566cb;stop-opacity:1"
             offset="1" />
          <midPointStop
             id="midPointStop3319"
             style="stop-color:#D9D8FF"
             offset="0.0056" />
          <midPointStop
             id="midPointStop3321"
             style="stop-color:#D9D8FF"
             offset="0.5" />
          <midPointStop
             id="midPointStop3323"
             style="stop-color:#FDFEED"
             offset="0.514" />
          <midPointStop
             id="midPointStop3325"
             style="stop-color:#FDFEED"
             offset="0.5" />
          <midPointStop
             id="midPointStop3327"
             style="stop-color:#6566CB"
             offset="1" />
        </linearGradient>
        <path
           d="M 47.379,8.803 74.918,36.707 41.742,53.312 14.205,25.41 47.379,8.803 z"
           id="path3329"
           style="fill:url(#linearGradient3079)"
           inkscape:connector-curvature="0" />
        <linearGradient
           x1="97.865196"
           y1="62.080101"
           x2="64.090401"
           y2="62.080101"
           id="XMLID_2_"
           gradientUnits="userSpaceOnUse">
          <stop
             id="stop3332"
             style="stop-color:#d9d8ff;stop-opacity:1"
             offset="0.0056" />
          <stop
             id="stop3334"
             style="stop-color:#fdfeed;stop-opacity:1"
             offset="0.514" />
          <stop
             id="stop3336"
             style="stop-color:#6566cb;stop-opacity:1"
             offset="1" />
          <midPointStop
             id="midPointStop3338"
             style="stop-color:#D9D8FF"
             offset="0.0056" />
          <midPointStop
             id="midPointStop3340"
             style="stop-color:#D9D8FF"
             offset="0.5" />
          <midPointStop
             id="midPointStop3342"
             style="stop-color:#FDFEED"
             offset="0.514" />
          <midPointStop
             id="midPointStop3344"
             style="stop-color:#FDFEED"
             offset="0.5" />
          <midPointStop
             id="midPointStop3346"
             style="stop-color:#6566CB"
             offset="1" />
        </linearGradient>
        <path
           d="M 77.996,39.824 105.533,67.728 72.359,84.336 44.82,56.432 77.996,39.824 z"
           id="path3348"
           style="fill:url(#linearGradient3081)"
           inkscape:connector-curvature="0" />
      </g>
    </g>
  </g>
  <circle
     cx="121.469"
     cy="98.391998"
     r="31.764"
     transform="matrix(0.98020251,0.19799757,-0.08947924,1.0021228,-8.5393575,-22.351725)"
     id="_83613008"
     style="fill:#c2c1c1"
     d="m 153.233,98.391998 c 0,17.542772 -14.22123,31.764002 -31.764,31.764002 -17.54277,0 -31.763998,-14.22123 -31.763998,-31.764002 0,-17.542772 14.221228,-31.764 31.763998,-31.764 17.54277,0 31.764,14.221228 31.764,31.764 z"
     sodipodi:cx="121.469"
     sodipodi:cy="98.391998"
     sodipodi:rx="31.764"
     sodipodi:ry="31.764" />
  <circle
     cx="118.324"
     cy="99.019997"
     r="29.877001"
     transform="matrix(0.98020251,0.19799757,-0.08947924,1.0021228,-8.5393575,-22.351725)"
     id="_83842624"
     style="fill:#1f1a17;stroke:#1f1a17;stroke-width:0.0252"
     d="m 148.201,99.019997 c 0,16.500613 -13.37639,29.877003 -29.877,29.877003 -16.50061,0 -29.877003,-13.37639 -29.877003,-29.877003 0,-16.500612 13.376393,-29.877001 29.877003,-29.877001 16.50061,0 29.877,13.376389 29.877,29.877001 z"
     sodipodi:cx="118.324"
     sodipodi:cy="99.019997"
     sodipodi:rx="29.877001"
     sodipodi:ry="29.877001" />
  <circle
     cx="118.324"
     cy="99.021004"
     r="24.983"
     transform="matrix(0.98020251,0.19799757,-0.08947924,1.0021228,-8.5393575,-22.351725)"
     id="_83904592"
     style="fill:#ffffff;stroke:#1f1a17;stroke-width:0.0252"
     d="m 143.307,99.021004 c 0,13.797726 -11.18527,24.982996 -24.983,24.982996 -13.79773,0 -24.983002,-11.18527 -24.983002,-24.982996 0,-13.79773 11.185272,-24.983 24.983002,-24.983 13.79773,0 24.983,11.18527 24.983,24.983 z"
     sodipodi:cx="118.324"
     sodipodi:cy="99.021004"
     sodipodi:rx="24.983"
     sodipodi:ry="24.983" />
  <polygon
     points="107.583,83.222 121.239,91.105 134.894,98.99 121.239,106.874 107.583,114.759 107.583,98.99 "
     transform="matrix(0.98020251,0.19799757,-0.08947924,1.0021228,-8.5393575,-22.351725)"
     id="_84196272"
     style="fill:#da251d" />
</svg>
