<?xml version="1.0" encoding="UTF-8" standalone="no"?>
<!-- Created with Inkscape (http://www.inkscape.org/) -->

<svg
   xmlns:svg="http://www.w3.org/2000/svg"
   xmlns="http://www.w3.org/2000/svg"
   version="1.1"
   width="64"
   height="64"
   id="svg2">
  <defs
     id="defs58" />
  <g
     id="g4">
    <path
       d="m 30,61 c 22,0 25,-4 25,-4 l -4,-2 c 0,0 5,-1 6,-3 l -7,-4 2,-1 h 8 c 0,-2 -1,-3 -1,-3 h 3 c 0,0 -2,-4 -6,-5"
       id="path6"
       style="fill:#000000;fill-opacity:0.4" />
    <path
       d="m 56,26 c -1.34,-2.38 -3.85,-4.43 -8,-6 v 24 h 8 V 26 z"
       id="path8"
       style="fill:none;stroke:#000000;stroke-width:4" />
    <path
       d="m 53,26 h 3 c -1.34,-2.38 -3.85,-4.43 -8,-6 v 2 c 0,0 4,2 5,4 z"
       id="path10"
       style="fill:#ff8080" />
    <path
       d="m 53,26 c -1,-2 -5,-4 -5,-4 v 4 h 5 z"
       id="path12"
       style="fill:#800000" />
    <path
       d="m 48,26 v 18 h 8 V 26 h -8 z"
       id="path14"
       style="fill:#800000" />
    <path
       d="M 42,34 C 38.78,35.19 35,36 30,36 20,36 12,33 12,29 V 20 C 6.36,22.14 2,25.54 2,29 v 19 c 0,2.84 1.81,4.82 5,7 4.99,3.38 13.78,6 23,6 7.18,0 13.09,-1.8 18,-4 V 38 l -6,-4 z"
       id="path16"
       style="fill:none;stroke:#000000;stroke-width:4" />
    <path
       d="M 7,36 C 4.16,34.28 2,32 2,29 v 19 c 0,2.84 1.81,4.82 5,7 V 36 z"
       id="path18"
       style="fill:#00bf00" />
    <linearGradient
       x1="1.99"
       y1="-64"
       x2="48"
       y2="-64"
       id="gradient0"
       gradientUnits="userSpaceOnUse">
      <stop
         id="stop21"
         style="stop-color:#ff0606;stop-opacity:1"
         offset="0" />
      <stop
         id="stop23"
         style="stop-color:#cc0000;stop-opacity:1"
         offset="1" />
    </linearGradient>
    <path
       d="M 48,38 C 43.11,39.88 37.04,41 30,41 20.78,41 11.99,38.99 7,36 v 19 c 4.99,3.38 13.78,6 23,6 7.18,0 13.09,-1.8 18,-4 V 38 z"
       id="path25"
       style="fill:url(#gradient0)" />
    <path
       d="m 7,36 8,-3 C 13.07,31.89 12,31 12,29 H 2 c 0,3 2.16,5.28 5,7 z"
       id="path27"
       style="fill:#73e573" />
    <path
       d="m 42,34 c -2.9,0.98 -12,2 -12,2 -6.01,0 -11.68,-1.08 -15,-3 l -8,3 c 4.97,3.01 13.72,5 23,5 7.04,0 13.11,-1.12 18,-3 l -6,-4 z"
       id="path29"
       style="fill:#ff8080" />
    <path
       d="M 12,20 C 6.36,22.14 2,25.54 2,29 h 10 v -9 z"
       id="path31"
       style="fill:#7397e5" />
    <path
       d="M 30,3 C 19.96,3 12,6.29 12,10 v 19 c 0,4 8,7 18,7 5,0 8.78,-0.81 12,-2 l 6,4 V 10 C 48,6.29 40.04,3 30,3 z"
       id="path33"
       style="fill:none;stroke:#000000;stroke-width:4" />
    <linearGradient
       x1="12"
       y1="-63"
       x2="44"
       y2="-63"
       id="gradient1"
       gradientUnits="userSpaceOnUse">
      <stop
         id="stop36"
         style="stop-color:#fdff75;stop-opacity:1"
         offset="0" />
      <stop
         id="stop38"
         style="stop-color:#ffaa00;stop-opacity:1"
         offset="1" />
    </linearGradient>
    <path
       d="m 45,14 c -3.29,1.8 -8.7,3 -15,3 -10.04,0 -18,-3.31 -18,-7 v 19 c 0,4 8,7 18,7 5,0 9,-1 12,-2 l 3,2 V 14 z"
       id="path40"
       style="fill:url(#gradient1)" />
    <linearGradient
       x1="58"
       y1="-64"
       x2="32"
       y2="-64"
       id="gradient2"
       gradientUnits="userSpaceOnUse">
      <stop
         id="stop43"
         style="stop-color:#ff8000;stop-opacity:1"
         offset="0" />
      <stop
         id="stop45"
         style="stop-color:#802b00;stop-opacity:1"
         offset="1" />
    </linearGradient>
    <path
       d="m 30,10 15,4 v 22 l 3,2 V 10 H 30 z"
       id="path47"
       style="fill:url(#gradient2)" />
    <linearGradient
       x1="112.75"
       y1="-43.029999"
       x2="120.95"
       y2="-26.790001"
       id="gradient3"
       gradientUnits="userSpaceOnUse">
      <stop
         id="stop50"
         style="stop-color:#ffffff;stop-opacity:1"
         offset="0" />
      <stop
         id="stop52"
         style="stop-color:#ffff80;stop-opacity:1"
         offset="1" />
    </linearGradient>
    <path
       d="m 30,3 c -9.95,0 -18,3.13 -18,7 0,3.86 8.05,7 18,7 6.23,0 11.76,-1.13 15,-3 L 30,10 H 48 C 48,6.13 39.94,3 30,3 z"
       id="path54"
       style="fill:url(#gradient3)" />
  </g>
</svg>
