<?xml version="1.0" encoding="UTF-8" standalone="no"?>
<!-- Created with Inkscape (http://www.inkscape.org/) -->

<svg
   xmlns:svg="http://www.w3.org/2000/svg"
   xmlns="http://www.w3.org/2000/svg"
   version="1.1"
   width="118"
   height="122"
   viewBox="0.467 -0.181 118 122"
   id="svg2"
   xml:space="preserve"
   style="overflow:visible"><defs
   id="defs220" />
	<g
   id="Layer_1_2_">
		<path
   d="m 28.15,0.928 c -3.293,1.413 -5.834,4.353 -6.973,8.064 0,0 -0.615,2.006 -1.202,3.922 C 19.783,12.718 19.249,12.173 19.249,12.173 19.216,12.14 13.978,6.849 13.978,6.849 L 13.832,6.759 13.436,6.498 14.065,6.982 C 12.558,5.463 10.268,4.976 7.919,5.634 6.437,5.982 5.066,6.774 3.853,8.021 L 3.954,7.921 3.757,8.11 c -2.974,2.954 -3.688,7.04 -1.696,9.716 l -0.45,-0.829 0.533,1.232 0.343,0.24 5.099,5.154 c 0.005,0.004 4.573,4.669 6.934,7.078 C 13.453,34.176 0.68,75.817 0.68,75.817 0.22,77.318 0,78.863 0,80.397 0,86.294 3.241,92.047 8.482,94.663 L 59.863,120.3 c 3.299,1.645 6.886,1.791 10.101,0.412 3.293,-1.412 5.835,-4.351 6.976,-8.062 0,-0.001 20.497,-66.827 20.497,-66.827 0.462,-1.502 0.681,-3.047 0.681,-4.582 0,-5.898 -3.242,-11.651 -8.487,-14.266 0,0 -15.417,-7.691 -15.751,-7.858 -0.364,-0.271 -0.721,-0.491 -1.08,-0.737 0.516,-0.892 0.912,-1.848 1.128,-2.795 0.146,-0.641 0.227,-1.32 0.227,-2.02 0,-2.961 -1.454,-6.259 -5.601,-8.251 C 63.175,2.732 59.925,5.288 58.777,6.504 57.716,7.631 57.053,9.059 56.673,10.53 53.898,9.146 38.253,1.34 38.253,1.34 34.953,-0.305 31.365,-0.451 28.15,0.928 z m 35.473,12.009 c 0,-0.727 0.59,-1.316 1.314,-1.316 0.727,0 1.317,0.59 1.317,1.316 0,0.726 -0.59,1.316 -1.317,1.316 -0.725,0 -1.314,-0.59 -1.314,-1.316 z"
   id="path5" />
		<path
   d="M 114.04,61.697 C 108.375,58.078 69.634,36.893 69.634,36.893 64.123,34.301 55.904,36.339 51.313,41.438 L 7.059,85.936 c -0.518,0.573 1.106,3.524 0.724,4.121 0,0 55.802,31.501 65.591,28.704 0,0 25.471,-26.07 34.051,-34.096 11.724,-10.969 15.006,-17.608 6.615,-22.968 z"
   id="path7"
   style="opacity:0.2" />
		
			<linearGradient
   x1="167.2334"
   y1="-48.950699"
   x2="116.8066"
   y2="-92.540001"
   id="XMLID_1_"
   gradientUnits="userSpaceOnUse"
   gradientTransform="matrix(0.7914,0.3949,-0.2694,0.8779,-71.6043,89.1349)">
			<stop
   id="stop10"
   style="stop-color:#bd9a12;stop-opacity:1"
   offset="0.0169" />
			<stop
   id="stop12"
   style="stop-color:#926d00;stop-opacity:1"
   offset="1" />
			<midPointStop
   id="midPointStop14"
   style="stop-color:#BD9A12"
   offset="0.0169" />
			<midPointStop
   id="midPointStop16"
   style="stop-color:#BD9A12"
   offset="0.5" />
			<midPointStop
   id="midPointStop18"
   style="stop-color:#926D00"
   offset="1" />
		</linearGradient>
		<path
   d="M 24.35,9.965 C 26.09,4.286 31.652,1.754 36.771,4.308 l 51.38,25.636 c 5.118,2.555 7.858,9.227 6.115,14.906 l -20.498,66.826 c -1.742,5.676 -7.303,8.208 -12.423,5.654 L 9.964,91.695 C 4.846,89.141 2.11,82.469 3.851,76.79 L 24.35,9.965 z"
   id="path20"
   style="fill:url(#XMLID_1_)" />
		<path
   d="m 61.345,117.331 c 5.12,2.554 8.637,-0.222 10.379,-5.897 L 92.222,44.608 c 1.743,-5.68 1.047,-12.108 -4.071,-14.663 5.118,2.555 7.858,9.227 6.115,14.906 l -20.498,66.826 c -1.743,5.675 -7.303,8.207 -12.423,5.654 z"
   id="path22"
   style="opacity:0.2" />
		<path
   d="M 34.837,16.594 14.289,85.211 64.859,112.026 85.471,42.004 34.837,16.594 z"
   id="path24"
   style="opacity:0.4" />
		<path
   d="M 33.73,14.382 13.184,83 63.316,107.994 84.367,39.793 33.73,14.382 z"
   id="path26"
   style="fill:#ffff99" />
		<path
   d="M 43.425,15.982 22.06,87.283"
   id="path28"
   style="fill:none;stroke:#ff0805;stroke-width:0.82920003" />
		<g
   id="g30">
			<path
   d="M 81.844,48.913 31.209,23.502"
   id="path32"
   style="fill:none;stroke:#08c2ff;stroke-width:0.2764" />
			<path
   d="M 80.277,54.057 29.642,28.645"
   id="path34"
   style="fill:none;stroke:#08c2ff;stroke-width:0.2764" />
			<path
   d="M 78.711,59.201 28.076,33.789"
   id="path36"
   style="fill:none;stroke:#08c2ff;stroke-width:0.2764" />
			<path
   d="M 77.146,64.345 26.51,38.933"
   id="path38"
   style="fill:none;stroke:#08c2ff;stroke-width:0.2764" />
			<path
   d="M 75.579,69.489 24.944,44.077"
   id="path40"
   style="fill:none;stroke:#08c2ff;stroke-width:0.2764" />
			<path
   d="M 74.014,74.633 23.378,49.221"
   id="path42"
   style="fill:none;stroke:#08c2ff;stroke-width:0.2764" />
			<path
   d="M 72.446,79.776 21.812,54.365"
   id="path44"
   style="fill:none;stroke:#08c2ff;stroke-width:0.2764" />
			<path
   d="M 70.881,84.92 20.245,59.509"
   id="path46"
   style="fill:none;stroke:#08c2ff;stroke-width:0.2764" />
			<path
   d="M 69.314,90.065 18.68,64.652"
   id="path48"
   style="fill:none;stroke:#08c2ff;stroke-width:0.2764" />
			<path
   d="M 67.749,95.208 17.113,69.798"
   id="path50"
   style="fill:none;stroke:#08c2ff;stroke-width:0.2764" />
			<path
   d="M 66.183,100.352 15.547,74.94"
   id="path52"
   style="fill:none;stroke:#08c2ff;stroke-width:0.2764" />
			<path
   d="M 64.616,105.497 13.98,80.084"
   id="path54"
   style="fill:none;stroke:#08c2ff;stroke-width:0.2764" />
		</g>
		<path
   d="m 70.676,20.937 c 0,0 5.045,3.667 7.45,6.985 1.689,2.33 2.065,9.739 2.065,9.739 L 73.494,34.406 70.676,20.937 z"
   id="path56"
   style="opacity:0.3" />
		<linearGradient
   x1="59.805199"
   y1="24.019501"
   x2="64.468903"
   y2="12.5158"
   id="XMLID_2_"
   gradientUnits="userSpaceOnUse">
			<stop
   id="stop59"
   style="stop-color:#e1e8e8;stop-opacity:1"
   offset="0" />
			<stop
   id="stop61"
   style="stop-color:#a2a7a9;stop-opacity:1"
   offset="1" />
			<midPointStop
   id="midPointStop63"
   style="stop-color:#E1E8E8"
   offset="0" />
			<midPointStop
   id="midPointStop65"
   style="stop-color:#E1E8E8"
   offset="0.5" />
			<midPointStop
   id="midPointStop67"
   style="stop-color:#A2A7A9"
   offset="1" />
		</linearGradient>
		<path
   d="m 76.585,29.421 c -0.208,-0.225 -0.507,-0.485 -0.882,-0.773 -0.241,-0.664 -1.28,-1.093 -1.449,-2.206 -0.76,-5.004 -3.322,-5.876 -7.137,-7.51 2.725,0 6.811,-7.357 0,-10.628 -6.812,-3.271 -8.448,4.633 -7.086,7.086 0,0 -6.915,-4.604 -11.5,-1.479 -0.669,0.456 -1.401,0.16 -1.907,0.421 -0.878,-0.28 -1.547,-0.442 -1.919,-0.442 -3.27,0 -3.814,1.907 -6.345,4.498 l 39.47,19.695 c 0.663,-3.212 2.026,-5.119 -1.245,-8.662 z M 64.937,10.485 c 1.354,0 2.453,1.098 2.453,2.452 0,1.354 -1.099,2.453 -2.453,2.453 -1.354,0 -2.452,-1.099 -2.452,-2.453 0,-1.354 1.098,-2.452 2.452,-2.452 z"
   id="path69"
   style="fill:url(#XMLID_2_)" />
		
			<linearGradient
   x1="-191.6938"
   y1="35.502399"
   x2="-204.14259"
   y2="47.027802"
   id="XMLID_3_"
   gradientUnits="userSpaceOnUse"
   gradientTransform="matrix(-1,0,0,1,-162.0039,0)">
			<stop
   id="stop72"
   style="stop-color:#d8daa1;stop-opacity:1"
   offset="0" />
			<stop
   id="stop74"
   style="stop-color:#5c5c3a;stop-opacity:1"
   offset="1" />
			<midPointStop
   id="midPointStop76"
   style="stop-color:#D8DAA1"
   offset="0" />
			<midPointStop
   id="midPointStop78"
   style="stop-color:#D8DAA1"
   offset="0.5" />
			<midPointStop
   id="midPointStop80"
   style="stop-color:#5C5C3A"
   offset="1" />
		</linearGradient>
		<path
   d="M 28.701,32.79 39.83,44.396 c 0.373,0.378 -1.08,1.327 -1.451,0.95 0,0 -11.319,-12.095 -10.976,-12.5 0.346,-0.408 0.927,-0.433 1.298,-0.056 z"
   id="path82"
   style="fill:url(#XMLID_3_)" />
		<g
   id="g84">
			<path
   d="M 4.979,9.292 5.112,9.167 C 6.097,8.155 7.227,7.603 8.383,7.342 c 1.654,-0.478 3.237,-0.128 4.272,0.812 0.068,0.044 4.904,4.864 4.904,4.864 0.005,0.003 18.381,18.767 18.381,18.767 l 0.176,0.178 4.429,12.107 -0.603,2.347 L 26.918,40.79 8.458,21.942 C 8.462,21.946 8.217,21.699 8.19,21.671 8.057,21.559 7.895,21.423 7.895,21.423 7.895,21.374 3.317,16.464 3.317,16.464 2.037,14.536 2.705,11.55 4.979,9.292 z"
   id="path86" />
		</g>
		
			<linearGradient
   x1="-196.9639"
   y1="37.294399"
   x2="-193.11549"
   y2="41.968201"
   id="XMLID_4_"
   gradientUnits="userSpaceOnUse"
   gradientTransform="matrix(-1,0,0,1,-162.0039,0)">
			<stop
   id="stop89"
   style="stop-color:#fffffa;stop-opacity:1"
   offset="0" />
			<stop
   id="stop91"
   style="stop-color:#f49333;stop-opacity:1"
   offset="1" />
			<midPointStop
   id="midPointStop93"
   style="stop-color:#FFFFFA"
   offset="0" />
			<midPointStop
   id="midPointStop95"
   style="stop-color:#FFFFFA"
   offset="0.5" />
			<midPointStop
   id="midPointStop97"
   style="stop-color:#F49333"
   offset="1" />
		</linearGradient>
		<path
   d="m 34.419,32.402 4.268,10.315 -0.758,1.16 -10.529,-4.764 2.009,-5.268 5.01,-1.443 z"
   id="path99"
   style="fill:url(#XMLID_4_)" />
		<path
   d="m 37.642,39.623 1.467,3.095 -1.074,1.794 -2.604,-1.352 1.647,-1.687 0.564,-1.85 z"
   id="path101" />
		<g
   id="g103">
			<path
   d="m 9.862,21.206 17.537,17.908 3.419,-0.681 3.082,-2.829 0.519,-3.202 -17.539,-17.907 -0.512,3.202 -3.087,2.829 -3.419,0.68 z"
   id="path105"
   style="fill:#f49300" />
		</g>
		<g
   id="g107">
			
				<linearGradient
   x1="-187.60941"
   y1="24.9258"
   x2="-188.91611"
   y2="23.525801"
   id="XMLID_5_"
   gradientUnits="userSpaceOnUse"
   gradientTransform="matrix(-1,0,0,1,-162.0039,0)">
				<stop
   id="stop110"
   style="stop-color:#eceb23;stop-opacity:1"
   offset="0" />
				<stop
   id="stop112"
   style="stop-color:#f49333;stop-opacity:1"
   offset="1" />
				<midPointStop
   id="midPointStop114"
   style="stop-color:#ECEB23"
   offset="0" />
				<midPointStop
   id="midPointStop116"
   style="stop-color:#ECEB23"
   offset="0.5" />
				<midPointStop
   id="midPointStop118"
   style="stop-color:#F49333"
   offset="1" />
			</linearGradient>
			<path
   d="M 34.005,35.708 34.419,32.401 16.88,14.495 16.368,17.697 34.005,35.708 z"
   id="path120"
   style="fill:url(#XMLID_5_)" />
		</g>
		<g
   id="g122">
			
				<linearGradient
   x1="-185.0811"
   y1="28.581499"
   x2="-186.5741"
   y2="27.088499"
   id="XMLID_6_"
   gradientUnits="userSpaceOnUse"
   gradientTransform="matrix(-1,0,0,1,-162.0039,0)">
				<stop
   id="stop125"
   style="stop-color:#eceb23;stop-opacity:1"
   offset="0" />
				<stop
   id="stop127"
   style="stop-color:#fffcf7;stop-opacity:1"
   offset="1" />
				<midPointStop
   id="midPointStop129"
   style="stop-color:#ECEB23"
   offset="0" />
				<midPointStop
   id="midPointStop131"
   style="stop-color:#ECEB23"
   offset="0.5" />
				<midPointStop
   id="midPointStop133"
   style="stop-color:#FFFCF7"
   offset="1" />
			</linearGradient>
			<path
   d="M 30.818,38.433 33.905,35.606 16.368,17.697 13.281,20.526 30.818,38.433 z"
   id="path135"
   style="fill:url(#XMLID_6_)" />
		</g>
		<path
   d="M 16.387,17.015 12.575,20.506 30.369,38.74 34.075,35.208 16.72,17.354 16.387,17.015 z M 33.2,35.586 c -0.504,0.461 -1.888,1.729 -2.364,2.165 C 30.21,37.11 14.656,21.228 13.987,20.545 c 0.504,-0.462 1.888,-1.729 2.363,-2.166 0.627,0.641 16.181,16.524 16.85,17.207 z"
   id="path137" />
		<g
   id="g139">
			
				<linearGradient
   x1="-176.71001"
   y1="10.1611"
   x2="-171.3519"
   y2="16.3074"
   id="XMLID_7_"
   gradientUnits="userSpaceOnUse"
   gradientTransform="matrix(-1,0,0,1,-162.0039,0)">
				<stop
   id="stop142"
   style="stop-color:#ff9999;stop-opacity:1"
   offset="0.0279" />
				<stop
   id="stop144"
   style="stop-color:#ff9f9f;stop-opacity:1"
   offset="0.1116" />
				<stop
   id="stop146"
   style="stop-color:#ffb0b0;stop-opacity:1"
   offset="0.2238" />
				<stop
   id="stop148"
   style="stop-color:#ffcccc;stop-opacity:1"
   offset="0.35229999" />
				<stop
   id="stop150"
   style="stop-color:#fff3f3;stop-opacity:1"
   offset="0.49180001" />
				<stop
   id="stop152"
   style="stop-color:#ffffff;stop-opacity:1"
   offset="0.53070003" />
				<stop
   id="stop154"
   style="stop-color:#ffe6e6;stop-opacity:1"
   offset="0.60159999" />
				<stop
   id="stop156"
   style="stop-color:#ffc5c5;stop-opacity:1"
   offset="0.71289998" />
				<stop
   id="stop158"
   style="stop-color:#ffacac;stop-opacity:1"
   offset="0.81919998" />
				<stop
   id="stop160"
   style="stop-color:#ff9e9e;stop-opacity:1"
   offset="0.91750002" />
				<stop
   id="stop162"
   style="stop-color:#ff9999;stop-opacity:1"
   offset="1" />
				<midPointStop
   id="midPointStop164"
   style="stop-color:#FF9999"
   offset="0.0279" />
				<midPointStop
   id="midPointStop166"
   style="stop-color:#FF9999"
   offset="0.6444" />
				<midPointStop
   id="midPointStop168"
   style="stop-color:#FFFFFF"
   offset="0.5307" />
				<midPointStop
   id="midPointStop170"
   style="stop-color:#FFFFFF"
   offset="0.3294" />
				<midPointStop
   id="midPointStop172"
   style="stop-color:#FF9999"
   offset="1" />
			</linearGradient>
			<path
   d="M 6.095,10.462 C 6.14,10.418 6.188,10.377 6.235,10.334 7.1,9.444 7.958,9.003 8.737,8.833 c 1.172,-0.351 2.281,-0.214 2.976,0.486 0.007,0.007 0.012,0.015 0.02,0.022 0.086,0.052 0.132,0.085 0.132,0.085 l 5.098,5.152 -0.093,2.677 -3.508,3.355 -3.418,0.679 -5.099,-5.153 c 0,0 -0.055,-0.105 -0.123,-0.292 -0.965,-1.295 -0.396,-3.625 1.373,-5.382 z"
   id="path174"
   style="fill:url(#XMLID_7_)" />
		</g>
		<path
   d="m 34.785,31.625 c 0.265,0.06 0.432,0.322 0.373,0.587 l -0.812,3.65 -3.292,3.023 -3.854,0.853 c -0.266,0.059 -0.526,-0.109 -0.585,-0.375 -0.009,-0.035 -0.012,-0.071 -0.012,-0.106 0,-0.225 0.155,-0.428 0.384,-0.479 0,0 3.356,-0.743 3.596,-0.796 0.176,-0.16 2.667,-2.448 2.871,-2.636 0.062,-0.276 0.745,-3.349 0.745,-3.349 0.06,-0.264 0.322,-0.431 0.586,-0.372 z"
   id="path176" />
		<path
   d="m 16.831,13.128 c 1.524,1.534 0.466,4.952 -1.464,6.868 -1.348,1.341 -3.231,2.202 -4.799,2.197 C 9.742,22.189 9.057,21.938 8.587,21.465 8.396,21.273 8.398,20.962 8.59,20.771 c 0.192,-0.19 0.503,-0.189 0.694,0.002 0.356,0.359 0.896,0.436 1.288,0.437 1.299,0.005 2.948,-0.764 4.104,-1.911 1.72,-1.709 2.505,-4.471 1.507,-5.476 -0.191,-0.191 -0.238,-0.506 -0.046,-0.698 0.191,-0.191 0.503,-0.19 0.694,0.003 z"
   id="path178" />
		<g
   id="g180">
			
				<linearGradient
   x1="-173.396"
   y1="12.2686"
   x2="-167.5025"
   y2="12.7597"
   id="XMLID_8_"
   gradientUnits="userSpaceOnUse"
   gradientTransform="matrix(-1,0,0,1,-162.0039,0)">
				<stop
   id="stop183"
   style="stop-color:#ffffff;stop-opacity:1"
   offset="0" />
				<stop
   id="stop185"
   style="stop-color:#ffefef;stop-opacity:1"
   offset="0.2071" />
				<stop
   id="stop187"
   style="stop-color:#ffc7c7;stop-opacity:1"
   offset="0.60769999" />
				<stop
   id="stop189"
   style="stop-color:#ff9999;stop-opacity:1"
   offset="1" />
				<midPointStop
   id="midPointStop191"
   style="stop-color:#FFFFFF"
   offset="0" />
				<midPointStop
   id="midPointStop193"
   style="stop-color:#FFFFFF"
   offset="0.5587" />
				<midPointStop
   id="midPointStop195"
   style="stop-color:#FF9999"
   offset="1" />
			</linearGradient>
			<path
   d="m 10.223,14.603 c 1.852,-1.845 2.429,-4.267 1.291,-5.408 -1.137,-1.14 -3.559,-0.568 -5.41,1.277 -1.851,1.845 -2.43,4.266 -1.292,5.406 1.137,1.142 3.56,0.57 5.411,-1.275 z"
   id="path197"
   style="fill:url(#XMLID_8_)" />
		</g>
		<path
   d="m 12.36,8.66 c 0.474,0.479 0.725,1.161 0.722,1.974 -0.005,1.498 -0.868,3.32 -2.202,4.646 C 9.526,16.626 7.656,17.493 6.119,17.489 5.307,17.486 4.632,17.236 4.165,16.765 3.974,16.573 3.976,16.262 4.167,16.071 4.36,15.88 4.671,15.882 4.862,16.073 c 0.354,0.355 0.881,0.431 1.26,0.434 1.271,0.004 2.904,-0.77 4.066,-1.925 1.139,-1.131 1.907,-2.72 1.911,-3.95 C 12.1,10.251 12.097,9.643 11.734,9.278 11.543,9.085 11.473,8.851 11.666,8.661 11.857,8.466 12.168,8.467 12.36,8.66 z"
   id="path199" />
		<linearGradient
   x1="69.9189"
   y1="35.891102"
   x2="44.149799"
   y2="44.281399"
   id="XMLID_9_"
   gradientUnits="userSpaceOnUse">
			<stop
   id="stop202"
   style="stop-color:#ffffff;stop-opacity:1"
   offset="0" />
			<stop
   id="stop204"
   style="stop-color:#000000;stop-opacity:1"
   offset="1" />
			<midPointStop
   id="midPointStop206"
   style="stop-color:#FFFFFF"
   offset="0" />
			<midPointStop
   id="midPointStop208"
   style="stop-color:#FFFFFF"
   offset="0.5" />
			<midPointStop
   id="midPointStop210"
   style="stop-color:#000000"
   offset="1" />
		</linearGradient>
		<path
   d="M 39.942,46.417 67.679,40.849 63.783,33.658 40.545,44.071 39.942,46.417 z"
   id="path212"
   style="opacity:0.2;fill:url(#XMLID_9_)" />
		<path
   d="m 53.375,22.989 10.959,5.155 2.789,-5.929 -10.958,-5.155 -2.79,5.929 z m 3.377,-4.298 c 0.929,0.437 7.81,3.674 8.74,4.111 -0.356,0.756 -1.39,2.954 -1.746,3.709 -0.929,-0.437 -7.811,-3.674 -8.74,-4.111 0.356,-0.755 1.39,-2.953 1.746,-3.709 z"
   id="path214"
   style="fill:#959aa7" />
		<path
   d="m 78.092,38.172 -0.184,-0.307 0.297,-1.141 1.404,0.578 -1.517,0.87 z"
   id="path216"
   style="opacity:0.3" />
	</g>
</svg>