<?xml version="1.0" encoding="UTF-8" standalone="no"?>
<!-- Created with Inkscape (http://www.inkscape.org/) -->

<svg
   xmlns:svg="http://www.w3.org/2000/svg"
   xmlns="http://www.w3.org/2000/svg"
   version="1.1"
   width="90"
   height="118"
   viewBox="0.414 -0.448 90 118"
   id="svg2"
   xml:space="preserve"
   style="overflow:visible"><defs
   id="defs364" />
	<g
   id="Layer_1_2_">
		<g
   id="g5">
			<path
   d="m 2.603,37.606 c 0,-19.405 15.73,-35.135 35.135,-35.135 19.404,0 35.135,15.73 35.135,35.135 0,19.404 -15.73,35.135 -35.135,35.135 C 18.333,72.741 2.603,57.01 2.603,37.606 z"
   id="path7"
   style="fill:#ffff07" />
			<path
   d="m 37.63,2.6 c 19.236,0 34.831,15.594 34.831,34.831 0,19.236 -15.595,34.831 -34.831,34.831 C 18.393,72.262 2.798,56.667 2.798,37.431 2.799,18.194 18.394,2.6 37.63,2.6 z"
   id="path9"
   style="fill:#ffff0a" />
			<path
   d="m 37.522,2.729 c 19.068,0 34.527,15.458 34.527,34.527 0,19.069 -15.459,34.526 -34.527,34.526 C 18.454,71.782 2.996,56.324 2.996,37.256 2.996,18.188 18.454,2.729 37.522,2.729 z"
   id="path11"
   style="fill:#ffff0e" />
			<path
   d="m 37.414,2.858 c 18.9,0 34.222,15.322 34.222,34.222 0,18.9 -15.322,34.223 -34.222,34.223 -18.9,0 -34.223,-15.323 -34.223,-34.223 0,-18.9 15.323,-34.222 34.223,-34.222 z"
   id="path13"
   style="fill:#ffff11" />
			<path
   d="m 37.306,2.987 c 18.732,0 33.917,15.186 33.917,33.918 0,18.732 -15.185,33.919 -33.917,33.919 C 18.574,70.824 3.388,55.637 3.388,36.905 3.388,18.173 18.574,2.987 37.306,2.987 z"
   id="path15"
   style="fill:#ffff14" />
			<path
   d="m 37.198,3.117 c 18.564,0 33.613,15.049 33.613,33.614 0,18.565 -15.048,33.614 -33.613,33.614 -18.565,0 -33.614,-15.05 -33.614,-33.615 0,-18.565 15.05,-33.613 33.614,-33.613 z"
   id="path17"
   style="fill:#ffff18" />
			<path
   d="m 37.09,3.246 c 18.396,0 33.31,14.913 33.31,33.31 0,18.396 -14.914,33.31 -33.31,33.31 -18.396,0 -33.31,-14.914 -33.31,-33.31 0,-18.397 14.913,-33.31 33.31,-33.31 z"
   id="path19"
   style="fill:#ffff1b" />
			<path
   d="m 36.982,3.375 c 18.228,0 33.005,14.777 33.005,33.005 0,18.228 -14.777,33.005 -33.005,33.005 C 18.753,69.385 3.977,54.607 3.977,36.38 3.977,18.152 18.753,3.375 36.982,3.375 z"
   id="path21"
   style="fill:#ffff1e" />
			<path
   d="m 36.874,3.504 c 18.061,0 32.701,14.641 32.701,32.701 0,18.06 -14.64,32.701 -32.701,32.701 -18.06,0 -32.701,-14.641 -32.701,-32.701 0,-18.06 14.641,-32.701 32.701,-32.701 z"
   id="path23"
   style="fill:#ffff21" />
			<path
   d="m 36.766,3.633 c 17.892,0 32.396,14.504 32.396,32.396 0,17.892 -14.505,32.398 -32.396,32.398 C 18.873,68.427 4.369,53.922 4.369,36.03 4.369,18.138 18.873,3.633 36.766,3.633 z"
   id="path25"
   style="fill:#ffff25" />
			<path
   d="m 36.658,3.762 c 17.724,0 32.092,14.368 32.092,32.093 0,17.724 -14.368,32.092 -32.092,32.092 C 18.933,67.947 4.565,53.578 4.565,35.855 4.565,18.13 18.933,3.762 36.658,3.762 z"
   id="path27"
   style="fill:#ffff28" />
			<path
   d="m 36.55,3.892 c 17.556,0 31.788,14.232 31.788,31.788 0,17.556 -14.233,31.789 -31.788,31.789 C 18.993,67.469 4.762,53.236 4.762,35.68 4.762,18.124 18.993,3.892 36.55,3.892 z"
   id="path29"
   style="fill:#ffff2b" />
			<path
   d="m 36.441,4.021 c 17.388,0 31.484,14.096 31.484,31.484 0,17.388 -14.096,31.484 -31.484,31.484 C 19.053,66.989 4.958,52.892 4.958,35.504 4.958,18.116 19.053,4.021 36.441,4.021 z"
   id="path31"
   style="fill:#ffff2f" />
			<path
   d="m 36.333,4.15 c 17.22,0 31.179,13.959 31.179,31.179 0,17.22 -13.959,31.18 -31.179,31.18 -17.22,0 -31.18,-13.96 -31.18,-31.18 C 5.154,18.109 19.113,4.15 36.333,4.15 z"
   id="path33"
   style="fill:#ffff32" />
			<path
   d="m 36.226,4.279 c 17.052,0 30.875,13.823 30.875,30.875 0,17.052 -13.824,30.876 -30.875,30.876 C 19.173,66.03 5.35,52.207 5.35,35.154 5.35,18.101 19.173,4.279 36.226,4.279 z"
   id="path35"
   style="fill:#ffff35" />
			<path
   d="m 36.118,4.408 c 16.883,0 30.57,13.687 30.57,30.571 0,16.884 -13.687,30.571 -30.57,30.571 C 19.234,65.55 5.547,51.862 5.547,34.979 5.546,18.095 19.233,4.408 36.118,4.408 z"
   id="path37"
   style="fill:#ffff39" />
			<path
   d="m 36.009,4.538 c 16.716,0 30.267,13.551 30.267,30.267 0,16.716 -13.55,30.266 -30.267,30.266 C 19.293,65.071 5.742,51.52 5.742,34.804 5.742,18.088 19.293,4.538 36.009,4.538 z"
   id="path39"
   style="fill:#ffff3c" />
			<path
   d="m 35.901,4.667 c 16.548,0 29.962,13.415 29.962,29.962 0,16.547 -13.414,29.963 -29.962,29.963 C 19.353,64.592 5.939,51.177 5.939,34.629 5.939,18.081 19.353,4.667 35.901,4.667 z"
   id="path41"
   style="fill:#ffff3f" />
			<path
   d="m 35.793,4.795 c 16.38,0 29.658,13.278 29.658,29.658 0,16.38 -13.278,29.659 -29.658,29.659 -16.38,0 -29.658,-13.279 -29.658,-29.658 0,-16.381 13.278,-29.659 29.658,-29.659 z"
   id="path43"
   style="fill:#ffff43" />
			<path
   d="m 35.685,4.925 c 16.211,0 29.354,13.142 29.354,29.354 0,16.211 -13.143,29.354 -29.354,29.354 C 19.473,63.633 6.331,50.49 6.331,34.279 6.331,18.067 19.473,4.925 35.685,4.925 z"
   id="path45"
   style="fill:#ffff46" />
			<path
   d="m 35.577,5.054 c 16.044,0 29.05,13.006 29.05,29.05 0,16.044 -13.006,29.05 -29.05,29.05 -16.044,0 -29.049,-13.006 -29.049,-29.05 0,-16.044 13.005,-29.05 29.049,-29.05 z"
   id="path47"
   style="fill:#ffff49" />
			<path
   d="m 35.469,5.183 c 15.875,0 28.745,12.869 28.745,28.746 0,15.875 -12.869,28.746 -28.745,28.746 C 19.593,62.675 6.723,49.804 6.723,33.929 6.724,18.052 19.593,5.183 35.469,5.183 z"
   id="path49"
   style="fill:#ffff4d" />
			<path
   d="m 35.361,5.312 c 15.708,0 28.441,12.733 28.441,28.441 0,15.707 -12.733,28.442 -28.441,28.442 C 19.653,62.195 6.92,49.46 6.92,33.753 6.919,18.045 19.653,5.312 35.361,5.312 z"
   id="path51"
   style="fill:#ffff50" />
			<path
   d="m 35.253,5.441 c 15.539,0 28.137,12.597 28.137,28.137 0,15.54 -12.598,28.138 -28.137,28.138 -15.54,0 -28.137,-12.598 -28.137,-28.138 0,-15.539 12.597,-28.137 28.137,-28.137 z"
   id="path53"
   style="fill:#ffff53" />
			<path
   d="m 35.145,5.571 c 15.372,0 27.833,12.461 27.833,27.833 0,15.372 -12.461,27.832 -27.833,27.832 C 19.773,61.236 7.312,48.775 7.312,33.403 7.312,18.031 19.773,5.571 35.145,5.571 z"
   id="path55"
   style="fill:#ffff56" />
			<path
   d="m 35.037,5.7 c 15.203,0 27.527,12.324 27.527,27.528 0,15.204 -12.324,27.529 -27.527,27.529 C 19.833,60.757 7.508,48.432 7.508,33.228 7.508,18.024 19.833,5.7 35.037,5.7 z"
   id="path57"
   style="fill:#ffff5a" />
			<path
   d="m 34.928,5.829 c 15.036,0 27.224,12.188 27.224,27.224 0,15.036 -12.188,27.224 -27.224,27.224 C 19.892,60.277 7.705,48.088 7.705,33.053 7.705,18.018 19.893,5.829 34.928,5.829 z"
   id="path59"
   style="fill:#ffff5d" />
			<path
   d="m 34.821,5.958 c 14.867,0 26.919,12.052 26.919,26.919 0,14.867 -12.053,26.921 -26.919,26.921 -14.868,0 -26.92,-12.054 -26.92,-26.921 0,-14.867 12.052,-26.919 26.92,-26.919 z"
   id="path61"
   style="fill:#ffff60" />
			<path
   d="m 34.713,6.087 c 14.699,0 26.615,11.916 26.615,26.616 0,14.699 -11.916,26.616 -26.615,26.616 -14.7,0 -26.616,-11.917 -26.616,-26.616 0,-14.7 11.916,-26.616 26.616,-26.616 z"
   id="path63"
   style="fill:#ffff64" />
			<path
   d="m 34.604,6.216 c 14.531,0 26.311,11.78 26.311,26.311 0,14.532 -11.779,26.312 -26.311,26.312 -14.532,0 -26.311,-11.78 -26.311,-26.312 0,-14.531 11.78,-26.311 26.311,-26.311 z"
   id="path65"
   style="fill:#ffff67" />
			<path
   d="m 34.496,6.345 c 14.363,0 26.007,11.644 26.007,26.007 0,14.364 -11.644,26.008 -26.007,26.008 C 20.133,58.36 8.489,46.716 8.489,32.352 8.489,17.989 20.133,6.345 34.496,6.345 z"
   id="path67"
   style="fill:#ffff6a" />
			<path
   d="m 34.388,6.475 c 14.196,0 25.703,11.507 25.703,25.703 0,14.196 -11.507,25.703 -25.703,25.703 C 20.193,57.881 8.685,46.373 8.685,32.177 8.685,17.981 20.193,6.475 34.388,6.475 z"
   id="path69"
   style="fill:#ffff6e" />
			<path
   d="m 34.28,6.604 c 14.027,0 25.398,11.371 25.398,25.398 0,14.027 -11.371,25.4 -25.398,25.4 -14.027,0 -25.398,-11.373 -25.398,-25.4 0,-14.027 11.371,-25.398 25.398,-25.398 z"
   id="path71"
   style="fill:#ffff71" />
			<path
   d="m 34.172,6.733 c 13.859,0 25.093,11.235 25.093,25.094 0,13.859 -11.234,25.095 -25.093,25.095 C 20.313,56.922 9.078,45.686 9.078,31.827 9.078,17.968 20.313,6.733 34.172,6.733 z"
   id="path73"
   style="fill:#ffff74" />
			<path
   d="m 34.064,6.862 c 13.692,0 24.79,11.098 24.79,24.79 0,13.692 -11.098,24.791 -24.79,24.791 -13.691,0 -24.79,-11.1 -24.79,-24.791 0,-13.691 11.099,-24.79 24.79,-24.79 z"
   id="path75"
   style="fill:#ffff78" />
			<path
   d="m 33.956,6.991 c 13.523,0 24.485,10.962 24.485,24.485 0,13.523 -10.962,24.487 -24.485,24.487 C 20.433,55.963 9.471,45 9.471,31.477 9.471,17.954 20.433,6.991 33.956,6.991 z"
   id="path77"
   style="fill:#ffff7b" />
			<path
   d="m 33.848,7.121 c 13.355,0 24.181,10.826 24.181,24.181 0,13.355 -10.826,24.182 -24.181,24.182 C 20.493,55.484 9.667,44.657 9.667,31.302 9.667,17.946 20.493,7.121 33.848,7.121 z"
   id="path79"
   style="fill:#ffff7e" />
			<path
   d="m 33.74,7.25 c 13.187,0 23.876,10.689 23.876,23.876 0,13.187 -10.689,23.879 -23.876,23.879 C 20.553,55.005 9.863,44.313 9.863,31.126 9.863,17.939 20.553,7.25 33.74,7.25 z"
   id="path81"
   style="fill:#ffff82" />
			<path
   d="m 33.632,7.379 c 13.019,0 23.572,10.554 23.572,23.573 0,13.019 -10.554,23.573 -23.572,23.573 -13.019,0 -23.573,-10.555 -23.573,-23.574 0,-13.019 10.554,-23.572 23.573,-23.572 z"
   id="path83"
   style="fill:#ffff85" />
			<path
   d="m 33.524,7.508 c 12.851,0 23.268,10.417 23.268,23.269 0,12.852 -10.417,23.27 -23.268,23.27 -12.852,0 -23.269,-10.418 -23.269,-23.27 0,-12.852 10.417,-23.269 23.269,-23.269 z"
   id="path85"
   style="fill:#ffff88" />
			<path
   d="m 33.416,7.637 c 12.683,0 22.964,10.281 22.964,22.964 0,12.683 -10.281,22.965 -22.964,22.965 -12.683,0 -22.964,-10.282 -22.964,-22.965 0,-12.683 10.281,-22.964 22.964,-22.964 z"
   id="path87"
   style="fill:#ffff8b" />
			<path
   d="m 33.308,7.766 c 12.515,0 22.66,10.145 22.66,22.66 0,12.515 -10.146,22.661 -22.66,22.661 -12.515,0 -22.66,-10.146 -22.66,-22.661 0,-12.515 10.144,-22.66 22.66,-22.66 z"
   id="path89"
   style="fill:#ffff8f" />
			<path
   d="m 33.2,7.896 c 12.347,0 22.355,10.008 22.355,22.355 0,12.347 -10.008,22.357 -22.355,22.357 -12.347,0 -22.355,-10.01 -22.355,-22.357 0,-12.347 10.008,-22.355 22.355,-22.355 z"
   id="path91"
   style="fill:#ffff92" />
			<path
   d="m 33.092,8.025 c 12.179,0 22.051,9.872 22.051,22.051 0,12.179 -9.872,22.053 -22.051,22.053 -12.179,0 -22.051,-9.874 -22.051,-22.053 0,-12.179 9.872,-22.051 22.051,-22.051 z"
   id="path93"
   style="fill:#ffff95" />
			<path
   d="m 32.983,8.154 c 12.011,0 21.747,9.736 21.747,21.747 0,12.011 -9.736,21.749 -21.747,21.749 C 20.972,51.65 11.236,41.912 11.236,29.901 11.237,17.89 20.973,8.154 32.983,8.154 z"
   id="path95"
   style="fill:#ffff99" />
			<path
   d="m 32.875,8.283 c 11.843,0 21.443,9.6 21.443,21.443 0,11.843 -9.6,21.444 -21.443,21.444 -11.843,0 -21.442,-9.601 -21.442,-21.444 0,-11.843 9.6,-21.443 21.442,-21.443 z"
   id="path97"
   style="fill:#ffff9c" />
			<path
   d="m 32.768,8.412 c 11.675,0 21.138,9.463 21.138,21.139 0,11.674 -9.463,21.14 -21.138,21.14 -11.675,0 -21.139,-9.465 -21.139,-21.14 0,-11.676 9.463,-21.139 21.139,-21.139 z"
   id="path99"
   style="fill:#ffff9f" />
			<path
   d="m 32.659,8.542 c 11.507,0 20.834,9.327 20.834,20.834 0,11.507 -9.327,20.835 -20.834,20.835 -11.507,0 -20.834,-9.329 -20.834,-20.835 0,-11.506 9.327,-20.834 20.834,-20.834 z"
   id="path101"
   style="fill:#ffffa3" />
			<path
   d="m 32.551,8.67 c 11.339,0 20.53,9.191 20.53,20.53 0,11.339 -9.191,20.532 -20.53,20.532 -11.339,0 -20.53,-9.193 -20.53,-20.532 0,-11.339 9.191,-20.53 20.53,-20.53 z"
   id="path103"
   style="fill:#ffffa6" />
			<path
   d="m 32.443,8.8 c 11.17,0 20.226,9.055 20.226,20.226 0,11.17 -9.055,20.227 -20.226,20.227 -11.171,0 -20.226,-9.057 -20.226,-20.227 C 12.218,17.854 21.272,8.8 32.443,8.8 z"
   id="path105"
   style="fill:#ffffa9" />
			<path
   d="m 32.335,8.929 c 11.003,0 19.922,8.918 19.922,19.921 0,11.003 -8.919,19.923 -19.922,19.923 -11.002,0 -19.921,-8.92 -19.921,-19.923 0,-11.003 8.919,-19.921 19.921,-19.921 z"
   id="path107"
   style="fill:#ffffad" />
			<path
   d="m 32.227,9.058 c 10.834,0 19.617,8.782 19.617,19.617 0,10.835 -8.782,19.619 -19.617,19.619 C 21.392,48.294 12.61,39.51 12.61,28.675 12.61,17.84 21.393,9.058 32.227,9.058 z"
   id="path109"
   style="fill:#ffffb0" />
			<path
   d="m 32.119,9.187 c 10.667,0 19.312,8.646 19.312,19.313 0,10.667 -8.646,19.314 -19.312,19.314 -10.667,0 -19.313,-8.648 -19.313,-19.314 0,-10.667 8.646,-19.313 19.313,-19.313 z"
   id="path111"
   style="fill:#ffffb3" />
			<path
   d="m 32.011,9.316 c 10.499,0 19.009,8.51 19.009,19.008 0,10.498 -8.51,19.01 -19.009,19.01 -10.499,0 -19.008,-8.512 -19.008,-19.01 0,-10.498 8.509,-19.008 19.008,-19.008 z"
   id="path113"
   style="fill:#ffffb7" />
			<path
   d="m 31.903,9.445 c 10.331,0 18.705,8.374 18.705,18.704 0,10.33 -8.374,18.706 -18.705,18.706 -10.331,0 -18.704,-8.375 -18.704,-18.706 0,-10.331 8.373,-18.704 18.704,-18.704 z"
   id="path115"
   style="fill:#ffffba" />
			<path
   d="m 31.795,9.575 c 10.163,0 18.399,8.237 18.399,18.4 0,10.163 -8.237,18.401 -18.399,18.401 -10.162,0 -18.4,-8.239 -18.4,-18.401 0,-10.162 8.237,-18.4 18.4,-18.4 z"
   id="path117"
   style="fill:#ffffbd" />
			<path
   d="m 31.687,9.704 c 9.994,0 18.095,8.101 18.095,18.096 0,9.995 -8.101,18.098 -18.095,18.098 -9.995,0 -18.096,-8.103 -18.096,-18.098 0,-9.995 8.101,-18.096 18.096,-18.096 z"
   id="path119"
   style="fill:#ffffc0" />
			<path
   d="m 31.579,9.833 c 9.827,0 17.792,7.965 17.792,17.792 0,9.826 -7.965,17.793 -17.792,17.793 -9.826,0 -17.791,-7.967 -17.791,-17.793 0,-9.827 7.964,-17.792 17.791,-17.792 z"
   id="path121"
   style="fill:#ffffc4" />
			<path
   d="m 31.471,9.962 c 9.658,0 17.487,7.829 17.487,17.487 0,9.658 -7.829,17.489 -17.487,17.489 -9.658,0 -17.487,-7.831 -17.487,-17.489 C 13.983,17.791 21.812,9.962 31.471,9.962 z"
   id="path123"
   style="fill:#ffffc7" />
			<path
   d="m 31.363,10.091 c 9.49,0 17.182,7.692 17.182,17.183 0,9.491 -7.692,17.185 -17.182,17.185 -9.491,0 -17.183,-7.694 -17.183,-17.185 0,-9.49 7.692,-17.183 17.183,-17.183 z"
   id="path125"
   style="fill:#ffffca" />
			<path
   d="m 31.254,10.22 c 9.322,0 16.878,7.557 16.878,16.879 0,9.322 -7.556,16.88 -16.878,16.88 -9.322,0 -16.878,-7.558 -16.878,-16.88 0,-9.322 7.556,-16.879 16.878,-16.879 z"
   id="path127"
   style="fill:#ffffce" />
			<path
   d="m 14.572,26.924 c 0,-9.154 7.42,-16.574 16.574,-16.574 9.154,0 16.574,7.42 16.574,16.574 0,9.154 -7.419,16.576 -16.574,16.576 -9.155,0 -16.574,-7.422 -16.574,-16.576 z"
   id="path129"
   style="fill:#ffffd1" />
		</g>
		<g
   id="g131">
			<path
   d="m 14.572,26.924 c 0,-9.154 7.42,-16.574 16.574,-16.574 9.154,0 16.574,7.42 16.574,16.574 0,9.154 -7.419,16.576 -16.574,16.576 -9.155,0 -16.574,-7.422 -16.574,-16.576 z"
   id="path133"
   style="fill:#ffffa2" />
			<path
   d="m 31.124,10.463 c 9.073,0 16.428,7.354 16.428,16.427 0,9.073 -7.354,16.429 -16.428,16.429 -9.073,0 -16.427,-7.356 -16.427,-16.429 0,-9.073 7.354,-16.427 16.427,-16.427 z"
   id="path135"
   style="fill:#ffffa4" />
			<path
   d="m 31.102,10.578 c 8.992,0 16.28,7.288 16.28,16.28 0,8.992 -7.288,16.282 -16.28,16.282 -8.991,0 -16.28,-7.29 -16.28,-16.282 0,-8.992 7.289,-16.28 16.28,-16.28 z"
   id="path137"
   style="fill:#ffffa5" />
			<path
   d="m 31.08,10.691 c 8.911,0 16.133,7.222 16.133,16.132 0,8.91 -7.223,16.135 -16.133,16.135 -8.91,0 -16.133,-7.224 -16.133,-16.135 0,-8.911 7.222,-16.132 16.133,-16.132 z"
   id="path139"
   style="fill:#ffffa7" />
			<path
   d="m 31.058,10.806 c 8.83,0 15.985,7.156 15.985,15.985 0,8.829 -7.156,15.987 -15.985,15.987 -8.829,0 -15.985,-7.159 -15.985,-15.987 -0.001,-8.83 7.156,-15.985 15.985,-15.985 z"
   id="path141"
   style="fill:#ffffa8" />
			<path
   d="m 31.036,10.919 c 8.748,0 15.838,7.09 15.838,15.838 0,8.748 -7.09,15.84 -15.838,15.84 -8.748,0 -15.838,-7.092 -15.838,-15.84 0,-8.748 7.09,-15.838 15.838,-15.838 z"
   id="path143"
   style="fill:#ffffaa" />
			<path
   d="m 31.013,11.033 c 8.667,0 15.691,7.025 15.691,15.692 0,8.667 -7.024,15.693 -15.691,15.693 -8.667,0 -15.691,-7.026 -15.691,-15.693 0,-8.667 7.025,-15.692 15.691,-15.692 z"
   id="path145"
   style="fill:#ffffab" />
			<path
   d="m 30.991,11.147 c 8.586,0 15.544,6.959 15.544,15.544 0,8.585 -6.958,15.545 -15.544,15.545 -8.585,0 -15.544,-6.96 -15.544,-15.545 0,-8.585 6.959,-15.544 15.544,-15.544 z"
   id="path147"
   style="fill:#ffffad" />
			<path
   d="m 30.969,11.261 c 8.504,0 15.397,6.893 15.397,15.397 0,8.504 -6.893,15.398 -15.397,15.398 -8.504,0 -15.396,-6.895 -15.396,-15.398 0,-8.504 6.892,-15.397 15.396,-15.397 z"
   id="path149"
   style="fill:#ffffae" />
			<path
   d="m 30.947,11.375 c 8.423,0 15.25,6.827 15.25,15.25 0,8.423 -6.827,15.251 -15.25,15.251 -8.423,0 -15.25,-6.829 -15.25,-15.251 0,-8.422 6.827,-15.25 15.25,-15.25 z"
   id="path151"
   style="fill:#ffffb0" />
			<path
   d="m 30.925,11.489 c 8.342,0 15.103,6.761 15.103,15.103 0,8.342 -6.761,15.104 -15.103,15.104 -8.341,0 -15.103,-6.763 -15.103,-15.104 0,-8.342 6.761,-15.103 15.103,-15.103 z"
   id="path153"
   style="fill:#ffffb1" />
			<path
   d="m 30.903,11.603 c 8.26,0 14.956,6.695 14.956,14.956 0,8.26 -6.695,14.957 -14.956,14.957 -8.261,0 -14.956,-6.697 -14.956,-14.957 0,-8.261 6.696,-14.956 14.956,-14.956 z"
   id="path155"
   style="fill:#ffffb3" />
			<path
   d="m 30.88,11.716 c 8.179,0 14.808,6.629 14.808,14.808 0,8.179 -6.629,14.811 -14.808,14.811 -8.179,0 -14.808,-6.631 -14.808,-14.811 0,-8.178 6.629,-14.808 14.808,-14.808 z"
   id="path157"
   style="fill:#ffffb4" />
			<path
   d="m 30.858,11.831 c 8.098,0 14.661,6.563 14.661,14.661 0,8.098 -6.563,14.663 -14.661,14.663 -8.098,0 -14.661,-6.565 -14.661,-14.663 0,-8.098 6.564,-14.661 14.661,-14.661 z"
   id="path159"
   style="fill:#ffffb6" />
			<path
   d="m 30.836,11.945 c 8.017,0 14.515,6.497 14.515,14.514 0,8.016 -6.498,14.516 -14.515,14.516 -8.016,0 -14.514,-6.5 -14.514,-14.516 0,-8.017 6.498,-14.514 14.514,-14.514 z"
   id="path161"
   style="fill:#ffffb7" />
			<path
   d="m 30.814,12.059 c 7.936,0 14.367,6.432 14.367,14.367 0,7.935 -6.432,14.368 -14.367,14.368 -7.935,0 -14.367,-6.434 -14.367,-14.368 0,-7.936 6.432,-14.367 14.367,-14.367 z"
   id="path163"
   style="fill:#ffffb9" />
			<path
   d="m 30.792,12.172 c 7.854,0 14.22,6.366 14.22,14.22 0,7.854 -6.366,14.222 -14.22,14.222 -7.854,0 -14.219,-6.367 -14.219,-14.222 0,-7.853 6.365,-14.22 14.219,-14.22 z"
   id="path165"
   style="fill:#ffffba" />
			<path
   d="m 30.77,12.286 c 7.772,0 14.073,6.3 14.073,14.073 0,7.772 -6.3,14.074 -14.073,14.074 -7.773,0 -14.072,-6.302 -14.072,-14.074 -0.001,-7.773 6.299,-14.073 14.072,-14.073 z"
   id="path167"
   style="fill:#ffffbc" />
			<path
   d="m 30.747,12.4 c 7.691,0 13.926,6.234 13.926,13.925 0,7.691 -6.234,13.927 -13.926,13.927 -7.691,0 -13.925,-6.236 -13.925,-13.927 0,-7.691 6.234,-13.925 13.925,-13.925 z"
   id="path169"
   style="fill:#ffffbd" />
			<path
   d="m 30.726,12.514 c 7.61,0 13.778,6.168 13.778,13.778 0,7.61 -6.168,13.78 -13.778,13.78 -7.61,0 -13.778,-6.169 -13.778,-13.78 -0.001,-7.61 6.168,-13.778 13.778,-13.778 z"
   id="path171"
   style="fill:#ffffbf" />
			<path
   d="m 30.704,12.628 c 7.528,0 13.631,6.103 13.631,13.631 0,7.529 -6.103,13.632 -13.631,13.632 -7.529,0 -13.631,-6.104 -13.631,-13.632 0,-7.528 6.102,-13.631 13.631,-13.631 z"
   id="path173"
   style="fill:#ffffc0" />
			<path
   d="m 30.681,12.742 c 7.447,0 13.484,6.037 13.484,13.483 0,7.448 -6.037,13.485 -13.484,13.485 -7.447,0 -13.484,-6.038 -13.484,-13.485 0,-7.446 6.037,-13.483 13.484,-13.483 z"
   id="path175"
   style="fill:#ffffc2" />
			<path
   d="m 30.659,12.855 c 7.366,0 13.337,5.971 13.337,13.337 0,7.366 -5.971,13.338 -13.337,13.338 -7.366,0 -13.337,-5.972 -13.337,-13.338 0,-7.366 5.97,-13.337 13.337,-13.337 z"
   id="path177"
   style="fill:#ffffc4" />
			<path
   d="m 30.637,12.97 c 7.285,0 13.19,5.905 13.19,13.189 0,7.285 -5.905,13.191 -13.19,13.191 -7.285,0 -13.189,-5.906 -13.189,-13.191 C 17.447,18.875 23.352,12.97 30.637,12.97 z"
   id="path179"
   style="fill:#ffffc5" />
			<path
   d="m 30.615,13.084 c 7.204,0 13.042,5.839 13.042,13.042 0,7.203 -5.839,13.044 -13.042,13.044 -7.203,0 -13.042,-5.84 -13.042,-13.044 0,-7.204 5.839,-13.042 13.042,-13.042 z"
   id="path181"
   style="fill:#ffffc7" />
			<path
   d="m 30.592,13.198 c 7.123,0 12.896,5.773 12.896,12.895 0,7.122 -5.773,12.897 -12.896,12.897 -7.122,0 -12.895,-5.775 -12.895,-12.897 0,-7.122 5.773,-12.895 12.895,-12.895 z"
   id="path183"
   style="fill:#ffffc8" />
			<path
   d="m 30.57,13.311 c 7.041,0 12.748,5.708 12.748,12.749 0,7.041 -5.707,12.75 -12.748,12.75 -7.041,0 -12.748,-5.708 -12.748,-12.75 0,-7.042 5.707,-12.749 12.748,-12.749 z"
   id="path185"
   style="fill:#ffffca" />
			<path
   d="m 30.548,13.425 c 6.96,0 12.602,5.641 12.602,12.601 0,6.96 -5.642,12.603 -12.602,12.603 -6.959,0 -12.601,-5.643 -12.601,-12.603 0,-6.96 5.641,-12.601 12.601,-12.601 z"
   id="path187"
   style="fill:#ffffcb" />
			<path
   d="m 30.526,13.54 c 6.879,0 12.455,5.575 12.455,12.454 0,6.879 -5.576,12.456 -12.455,12.456 -6.878,0 -12.454,-5.577 -12.454,-12.456 0,-6.879 5.576,-12.454 12.454,-12.454 z"
   id="path189"
   style="fill:#ffffcd" />
			<path
   d="m 30.504,13.653 c 6.797,0 12.307,5.51 12.307,12.307 0,6.797 -5.51,12.308 -12.307,12.308 -6.797,0 -12.307,-5.511 -12.307,-12.308 0,-6.797 5.51,-12.307 12.307,-12.307 z"
   id="path191"
   style="fill:#ffffce" />
			<path
   d="m 30.482,13.767 c 6.715,0 12.159,5.444 12.159,12.159 0,6.716 -5.444,12.161 -12.159,12.161 -6.716,0 -12.16,-5.445 -12.16,-12.161 0,-6.715 5.444,-12.159 12.16,-12.159 z"
   id="path193"
   style="fill:#ffffd0" />
			<path
   d="m 30.459,13.881 c 6.635,0 12.013,5.377 12.013,12.012 0,6.635 -5.378,12.014 -12.013,12.014 -6.635,0 -12.012,-5.379 -12.012,-12.014 0,-6.635 5.378,-12.012 12.012,-12.012 z"
   id="path195"
   style="fill:#ffffd1" />
			<path
   d="m 30.438,13.995 c 6.553,0 11.865,5.312 11.865,11.865 0,6.553 -5.312,11.866 -11.865,11.866 -6.553,0 -11.866,-5.312 -11.866,-11.866 0,-6.553 5.312,-11.865 11.866,-11.865 z"
   id="path197"
   style="fill:#ffffd3" />
			<path
   d="m 30.415,14.109 c 6.472,0 11.718,5.246 11.718,11.718 0,6.472 -5.246,11.719 -11.718,11.719 -6.472,0 -11.718,-5.247 -11.718,-11.719 0,-6.472 5.246,-11.718 11.718,-11.718 z"
   id="path199"
   style="fill:#ffffd4" />
			<path
   d="m 30.393,14.223 c 6.391,0 11.571,5.181 11.571,11.571 0,6.39 -5.18,11.572 -11.571,11.572 -6.391,0 -11.571,-5.181 -11.571,-11.572 0,-6.391 5.18,-11.571 11.571,-11.571 z"
   id="path201"
   style="fill:#ffffd6" />
			<path
   d="m 30.371,14.337 c 6.31,0 11.424,5.114 11.424,11.424 0,6.31 -5.114,11.425 -11.424,11.425 -6.31,0 -11.424,-5.116 -11.424,-11.425 0,-6.309 5.115,-11.424 11.424,-11.424 z"
   id="path203"
   style="fill:#ffffd7" />
			<path
   d="m 30.349,14.451 c 6.229,0 11.277,5.048 11.277,11.277 0,6.228 -5.048,11.277 -11.277,11.277 -6.228,0 -11.276,-5.049 -11.276,-11.277 -0.001,-6.229 5.048,-11.277 11.276,-11.277 z"
   id="path205"
   style="fill:#ffffd9" />
			<path
   d="m 30.327,14.565 c 6.147,0 11.129,4.982 11.129,11.129 0,6.146 -4.982,11.13 -11.129,11.13 -6.147,0 -11.129,-4.984 -11.129,-11.13 -0.001,-6.147 4.982,-11.129 11.129,-11.129 z"
   id="path207"
   style="fill:#ffffda" />
			<path
   d="m 30.305,14.679 c 6.065,0 10.982,4.917 10.982,10.982 0,6.065 -4.917,10.983 -10.982,10.983 -6.066,0 -10.982,-4.917 -10.982,-10.983 -0.001,-6.066 4.916,-10.982 10.982,-10.982 z"
   id="path209"
   style="fill:#ffffdc" />
			<path
   d="m 30.282,14.792 c 5.984,0 10.835,4.851 10.835,10.835 0,5.984 -4.851,10.836 -10.835,10.836 -5.984,0 -10.835,-4.852 -10.835,-10.836 0,-5.984 4.851,-10.835 10.835,-10.835 z"
   id="path211"
   style="fill:#ffffdd" />
			<path
   d="m 30.26,14.906 c 5.903,0 10.688,4.785 10.688,10.688 0,5.903 -4.785,10.689 -10.688,10.689 -5.903,0 -10.688,-4.786 -10.688,-10.689 0,-5.903 4.785,-10.688 10.688,-10.688 z"
   id="path213"
   style="fill:#ffffdf" />
			<path
   d="m 30.238,15.021 c 5.822,0 10.541,4.719 10.541,10.541 0,5.822 -4.719,10.541 -10.541,10.541 -5.821,0 -10.541,-4.72 -10.541,-10.542 0,-5.822 4.72,-10.54 10.541,-10.54 z"
   id="path215"
   style="fill:#ffffe1" />
			<path
   d="m 30.216,15.134 c 5.741,0 10.394,4.653 10.394,10.394 0,5.741 -4.653,10.395 -10.394,10.395 -5.741,0 -10.394,-4.654 -10.394,-10.395 0,-5.741 4.653,-10.394 10.394,-10.394 z"
   id="path217"
   style="fill:#ffffe2" />
			<path
   d="m 30.194,15.249 c 5.659,0 10.247,4.587 10.247,10.246 0,5.659 -4.587,10.248 -10.247,10.248 -5.66,0 -10.247,-4.588 -10.247,-10.248 0,-5.66 4.588,-10.246 10.247,-10.246 z"
   id="path219"
   style="fill:#ffffe4" />
			<path
   d="m 30.171,15.362 c 5.578,0 10.1,4.521 10.1,10.099 0,5.578 -4.521,10.1 -10.1,10.1 -5.578,0 -10.099,-4.522 -10.099,-10.1 0,-5.578 4.522,-10.099 10.099,-10.099 z"
   id="path221"
   style="fill:#ffffe5" />
			<path
   d="m 30.149,15.476 c 5.497,0 9.952,4.456 9.952,9.952 0,5.496 -4.456,9.953 -9.952,9.953 -5.497,0 -9.952,-4.457 -9.952,-9.953 0,-5.496 4.455,-9.952 9.952,-9.952 z"
   id="path223"
   style="fill:#ffffe7" />
			<path
   d="m 30.127,15.59 c 5.416,0 9.805,4.39 9.805,9.805 0,5.415 -4.389,9.806 -9.805,9.806 -5.416,0 -9.805,-4.39 -9.805,-9.806 0,-5.416 4.39,-9.805 9.805,-9.805 z"
   id="path225"
   style="fill:#ffffe8" />
			<path
   d="m 30.105,15.704 c 5.334,0 9.658,4.323 9.658,9.658 0,5.334 -4.324,9.659 -9.658,9.659 -5.334,0 -9.658,-4.325 -9.658,-9.659 0,-5.335 4.324,-9.658 9.658,-9.658 z"
   id="path227"
   style="fill:#ffffea" />
			<path
   d="m 30.083,15.818 c 5.253,0 9.511,4.258 9.511,9.511 0,5.253 -4.258,9.511 -9.511,9.511 -5.253,0 -9.511,-4.258 -9.511,-9.511 0,-5.253 4.258,-9.511 9.511,-9.511 z"
   id="path229"
   style="fill:#ffffeb" />
			<path
   d="m 30.061,15.932 c 5.172,0 9.364,4.192 9.364,9.364 0,5.171 -4.192,9.364 -9.364,9.364 -5.171,0 -9.363,-4.193 -9.363,-9.364 -0.001,-5.172 4.191,-9.364 9.363,-9.364 z"
   id="path231"
   style="fill:#ffffed" />
			<path
   d="m 30.039,16.045 c 5.09,0 9.216,4.126 9.216,9.217 0,5.091 -4.126,9.217 -9.216,9.217 -5.09,0 -9.216,-4.126 -9.216,-9.217 0,-5.091 4.125,-9.217 9.216,-9.217 z"
   id="path233"
   style="fill:#ffffee" />
			<path
   d="m 30.017,16.16 c 5.009,0 9.069,4.06 9.069,9.069 0,5.009 -4.061,9.07 -9.069,9.07 -5.009,0 -9.069,-4.061 -9.069,-9.07 -0.001,-5.009 4.059,-9.069 9.069,-9.069 z"
   id="path235"
   style="fill:#fffff0" />
			<path
   d="m 29.994,16.273 c 4.928,0 8.922,3.995 8.922,8.922 0,4.927 -3.994,8.922 -8.922,8.922 -4.928,0 -8.922,-3.995 -8.922,-8.922 0,-4.927 3.994,-8.922 8.922,-8.922 z"
   id="path237"
   style="fill:#fffff1" />
			<path
   d="m 29.972,16.387 c 4.847,0 8.775,3.929 8.775,8.775 0,4.846 -3.928,8.775 -8.775,8.775 -4.847,0 -8.775,-3.929 -8.775,-8.775 0,-4.846 3.928,-8.775 8.775,-8.775 z"
   id="path239"
   style="fill:#fffff3" />
			<path
   d="m 29.95,16.501 c 4.765,0 8.627,3.862 8.627,8.627 0,4.766 -3.862,8.628 -8.627,8.628 -4.766,0 -8.628,-3.863 -8.628,-8.628 0,-4.764 3.863,-8.627 8.628,-8.627 z"
   id="path241"
   style="fill:#fffff4" />
			<path
   d="m 29.928,16.615 c 4.684,0 8.48,3.797 8.48,8.48 0,4.684 -3.796,8.481 -8.48,8.481 -4.684,0 -8.48,-3.797 -8.48,-8.481 -0.001,-4.683 3.796,-8.48 8.48,-8.48 z"
   id="path243"
   style="fill:#fffff6" />
			<path
   d="m 29.906,16.729 c 4.603,0 8.333,3.731 8.333,8.333 0,4.603 -3.731,8.334 -8.333,8.334 -4.602,0 -8.333,-3.731 -8.333,-8.334 -0.001,-4.602 3.73,-8.333 8.333,-8.333 z"
   id="path245"
   style="fill:#fffff7" />
			<path
   d="m 29.883,16.843 c 4.521,0 8.187,3.665 8.187,8.186 0,4.521 -3.665,8.187 -8.187,8.187 -4.521,0 -8.186,-3.666 -8.186,-8.187 0,-4.521 3.665,-8.186 8.186,-8.186 z"
   id="path247"
   style="fill:#fffff9" />
			<path
   d="m 29.861,16.957 c 4.44,0 8.039,3.599 8.039,8.039 0,4.44 -3.599,8.04 -8.039,8.04 -4.44,0 -8.039,-3.599 -8.039,-8.04 0,-4.44 3.599,-8.039 8.039,-8.039 z"
   id="path249"
   style="fill:#fffffa" />
			<path
   d="m 29.839,17.071 c 4.359,0 7.892,3.533 7.892,7.892 0,4.359 -3.533,7.893 -7.892,7.893 -4.359,0 -7.892,-3.534 -7.892,-7.893 0,-4.359 3.533,-7.892 7.892,-7.892 z"
   id="path251"
   style="fill:#fffffc" />
			<path
   d="m 29.817,17.185 c 4.278,0 7.745,3.467 7.745,7.745 0,4.278 -3.467,7.746 -7.745,7.746 -4.277,0 -7.745,-3.468 -7.745,-7.746 0,-4.278 3.468,-7.745 7.745,-7.745 z"
   id="path253"
   style="fill:#fffffd" />
			<path
   d="m 22.197,24.896 c 0,-4.196 3.401,-7.598 7.598,-7.598 4.197,0 7.598,3.401 7.598,7.598 0,4.197 -3.401,7.598 -7.598,7.598 -4.197,0 -7.598,-3.401 -7.598,-7.598 z"
   id="path255"
   style="fill:#ffffff" />
		</g>
		<path
   d="M 90.271,102.633 H 38.208 v 14.528 H 90.27 v -14.528 z"
   id="path257"
   style="opacity:0.2" />
		<path
   d="m 29.512,107.597 v -1.062 h -1.394 v 1.062 c 0,5.363 4.432,9.564 10.09,9.564 5.66,0 10.091,-4.201 10.091,-9.564 v -1.062 h -1.395 v 1.062"
   id="path259" />
		<g
   id="g261">
			<radialGradient
   cx="41.096699"
   cy="63.2188"
   r="42.261902"
   fx="41.096699"
   fy="63.2188"
   id="XMLID_1_"
   gradientUnits="userSpaceOnUse">
				<stop
   id="stop264"
   style="stop-color:#ffff00;stop-opacity:1"
   offset="0.0223" />
				<stop
   id="stop266"
   style="stop-color:#ffde00;stop-opacity:1"
   offset="0.3669" />
				<stop
   id="stop268"
   style="stop-color:#ff9901;stop-opacity:1"
   offset="1" />
				<midPointStop
   id="midPointStop270"
   style="stop-color:#FFFF00"
   offset="0.0223" />
				<midPointStop
   id="midPointStop272"
   style="stop-color:#FFFF00"
   offset="0.5284" />
				<midPointStop
   id="midPointStop274"
   style="stop-color:#FF9901"
   offset="1" />
			</radialGradient>
			<path
   d="m 10.394,61.432 c 3.13,3.692 6.981,6.755 11.344,8.958 v 30.579 c 0,5.35 7.295,9.686 16.297,9.686 9.001,0 16.298,-4.336 16.298,-9.686 V 70.39 C 64.096,65.461 71.312,56.245 73.53,45.217 60.716,63.823 38.331,78.07 10.394,61.432 z"
   id="path276"
   style="fill:url(#XMLID_1_)" />
		</g>
		<g
   id="g278">
			<linearGradient
   x1="21.7393"
   y1="94.1436"
   x2="54.334999"
   y2="94.1436"
   id="XMLID_2_"
   gradientUnits="userSpaceOnUse">
				<stop
   id="stop281"
   style="stop-color:#c2c2c2;stop-opacity:1"
   offset="0.0223" />
				<stop
   id="stop283"
   style="stop-color:#ffffff;stop-opacity:1"
   offset="0.38550001" />
				<stop
   id="stop285"
   style="stop-color:#000000;stop-opacity:1"
   offset="1" />
				<midPointStop
   id="midPointStop287"
   style="stop-color:#C2C2C2"
   offset="0.0223" />
				<midPointStop
   id="midPointStop289"
   style="stop-color:#C2C2C2"
   offset="0.5" />
				<midPointStop
   id="midPointStop291"
   style="stop-color:#FFFFFF"
   offset="0.3855" />
				<midPointStop
   id="midPointStop293"
   style="stop-color:#FFFFFF"
   offset="0.5" />
				<midPointStop
   id="midPointStop295"
   style="stop-color:#000000"
   offset="1" />
			</linearGradient>
			<path
   d="m 21.739,77.902 c 0,5.35 7.298,9.686 16.298,9.686 9,0 16.298,-4.336 16.298,-9.686 v 22.796 c 0,5.35 -7.298,9.687 -16.298,9.687 -9,0 -16.298,-4.337 -16.298,-9.687 V 77.902 z"
   id="path297"
   style="fill:url(#XMLID_2_)" />
		</g>
		<path
   d="M 76.073,38.036 C 76.073,17.062 59.011,0 38.037,0 17.062,0 0,17.062 0,38.036 c 0,12.639 6.255,24.4 16.734,31.499 3.422,2.835 3.208,6.064 3.197,6.201 l -0.006,0.071 -0.003,0.095 v 25.057 c 0,6.45 7.956,11.502 18.114,11.502 10.157,0 18.113,-5.052 18.113,-11.502 V 75.902 L 56.147,75.807 56.141,75.736 C 56.13,75.599 55.916,72.37 59.338,69.535 69.819,62.437 76.073,50.675 76.073,38.036 z m -18.885,28.575 -0.074,0.05 -0.069,0.057 c -4.627,3.818 -4.576,8.408 -4.526,9.239 v 25.002 c 0,4.267 -6.632,7.87 -14.481,7.87 -7.849,0 -14.481,-3.604 -14.481,-7.87 V 75.957 c 0.05,-0.831 0.101,-5.421 -4.526,-9.239 l -0.069,-0.057 -0.075,-0.05 C 9.335,60.196 3.633,49.515 3.633,38.036 3.633,19.065 19.066,3.633 38.037,3.633 c 18.971,0 34.404,15.433 34.404,34.403 0,11.479 -5.702,22.16 -15.253,28.575 z"
   id="path299" />
		<g
   id="g301">
			<radialGradient
   cx="38.233398"
   cy="29.2397"
   r="8.2403002"
   fx="38.233398"
   fy="29.2397"
   id="XMLID_3_"
   gradientUnits="userSpaceOnUse">
				<stop
   id="stop304"
   style="stop-color:#ffff00;stop-opacity:1"
   offset="0.0223" />
				<stop
   id="stop306"
   style="stop-color:#ffde00;stop-opacity:1"
   offset="0.3669" />
				<stop
   id="stop308"
   style="stop-color:#ff9901;stop-opacity:1"
   offset="1" />
				<midPointStop
   id="midPointStop310"
   style="stop-color:#FFFF00"
   offset="0.0223" />
				<midPointStop
   id="midPointStop312"
   style="stop-color:#FFFF00"
   offset="0.5284" />
				<midPointStop
   id="midPointStop314"
   style="stop-color:#FF9901"
   offset="1" />
			</radialGradient>
			<path
   d="m 38.447,31.171 c 1.393,0 2.381,0.33 3.023,1.011 1.338,1.419 1.166,4.365 1.027,6.733 l -0.082,1.992 c 0,2.671 -4.562,3.63 -4.607,3.639 l -0.98,0.19 -0.002,0.999 v 40.767 h 2.422 c 0,0 0,-38.048 0,-39.832 1.83,-0.547 5.59,-2.108 5.59,-5.763 l 0.077,-1.852 c 0.047,-0.812 0.098,-1.681 0.098,-2.558 0,-2.184 -0.314,-4.423 -1.78,-5.979 -1.109,-1.174 -2.719,-1.771 -4.785,-1.771 v 2.424 z"
   id="path316"
   style="fill:url(#XMLID_3_)" />
		</g>
		<g
   id="g318"
   style="opacity:0.5">
			<radialGradient
   cx="47.996101"
   cy="66.861298"
   r="8.7953997"
   fx="47.996101"
   fy="66.861298"
   id="XMLID_4_"
   gradientUnits="userSpaceOnUse">
				<stop
   id="stop321"
   style="stop-color:#ffff00;stop-opacity:1"
   offset="0.0223" />
				<stop
   id="stop323"
   style="stop-color:#ffde00;stop-opacity:1"
   offset="0.3669" />
				<stop
   id="stop325"
   style="stop-color:#ff9901;stop-opacity:1"
   offset="1" />
				<midPointStop
   id="midPointStop327"
   style="stop-color:#FFFF00"
   offset="0.0223" />
				<midPointStop
   id="midPointStop329"
   style="stop-color:#FFFF00"
   offset="0.5284" />
				<midPointStop
   id="midPointStop331"
   style="stop-color:#FF9901"
   offset="1" />
			</radialGradient>
			<path
   d="m 44.133,71.055 v 15.447 h 4.37 c 0,0 -1.357,-13.986 3.027,-18.614 -3.653,3.41 -7.397,3.167 -7.397,3.167 z"
   id="path333"
   style="fill:url(#XMLID_4_)" />
		</g>
		<g
   id="g335">
			<radialGradient
   cx="27.779301"
   cy="48.6553"
   r="17.013901"
   fx="27.779301"
   fy="48.6553"
   id="XMLID_5_"
   gradientUnits="userSpaceOnUse">
				<stop
   id="stop338"
   style="stop-color:#ffff00;stop-opacity:1"
   offset="0.0223" />
				<stop
   id="stop340"
   style="stop-color:#ffde00;stop-opacity:1"
   offset="0.3669" />
				<stop
   id="stop342"
   style="stop-color:#ff9901;stop-opacity:1"
   offset="1" />
				<midPointStop
   id="midPointStop344"
   style="stop-color:#FFFF00"
   offset="0.0223" />
				<midPointStop
   id="midPointStop346"
   style="stop-color:#FFFF00"
   offset="0.5284" />
				<midPointStop
   id="midPointStop348"
   style="stop-color:#FF9901"
   offset="1" />
			</radialGradient>
			<path
   d="m 32.926,30.52 c -2.055,2.18 -1.849,5.705 -1.683,8.536 l 0.077,1.852 c 0,4.716 6.307,5.967 6.575,6.018 l 0.453,-2.379 C 38.302,44.538 33.741,43.579 33.741,40.908 L 33.66,38.916 c -0.139,-2.368 -0.312,-5.313 1.027,-6.733 0.642,-0.681 1.63,-1.011 3.023,-1.011 V 28.75 c -2.066,-0.001 -3.676,0.596 -4.784,1.77 z"
   id="path350"
   style="fill:url(#XMLID_5_)" />
		</g>
		<path
   d="m 24.802,66.519 c 9.451,10.184 4.787,20.285 4.787,20.285 h 4.843 V 63.218 c 0,0 -11.846,0.914 -9.63,3.301 z"
   id="path352"
   style="fill:#ffff99" />
		<g
   id="g354">
			<path
   d="m 53.124,91.931 v 1.21 c 0,4.595 -6.908,8.476 -15.087,8.476 -8.179,0 -15.087,-3.882 -15.087,-8.476 v -1.21 h -2.422 v 1.21 c 0,6.11 7.69,10.897 17.509,10.897 9.819,0 17.509,-4.787 17.509,-10.897 v -1.21 h -2.422 z"
   id="path356" />
			<path
   d="m 53.124,84.374 v 1.211 c 0,4.593 -6.908,8.474 -15.087,8.474 -8.179,0 -15.087,-3.881 -15.087,-8.474 v -1.211 h -2.422 v 1.211 c 0,6.109 7.69,10.896 17.509,10.896 9.819,0 17.509,-4.786 17.509,-10.896 v -1.211 h -2.422 z"
   id="path358" />
			<path
   d="m 53.124,76.816 v 1.21 c 0,4.595 -6.908,8.476 -15.087,8.476 -8.179,0 -15.087,-3.881 -15.087,-8.476 v -1.21 h -2.422 v 1.21 c 0,6.111 7.69,10.897 17.509,10.897 9.819,0 17.509,-4.786 17.509,-10.897 v -1.21 h -2.422 z"
   id="path360" />
		</g>
	</g>
</svg>