<?xml version="1.0" encoding="UTF-8" standalone="no"?>
<!-- Created with Inkscape (http://www.inkscape.org/) -->

<svg
   xmlns:svg="http://www.w3.org/2000/svg"
   xmlns="http://www.w3.org/2000/svg"
   version="1.1"
   width="112"
   height="126"
   viewBox="0.366 0.476 112 126"
   id="svg2"
   xml:space="preserve"
   style="overflow:visible"><defs
   id="defs74" />
	<g
   transform="translate(16.783766,-2.5768896)"
   id="Layer_1_2_-4">
		<path
   d="M 116.656,101.277 93.914,94.076 94.504,103.24 71.9,125.676 91.494,125 116.656,101.277 z"
   id="path2887"
   style="opacity:0.2" />
		<path
   d="M 22.583,3.119 0,23.957 v 67.234 l 71.379,34.508 23.208,-21.418 V 37.045 c 0,0 -4.087,-1.975 -5.138,-2.482 0,-1.285 0,-8.281 0,-8.281 L 42.255,3.469 c 0,0 -4.862,4.52 -5.861,5.447 C 35.032,8.258 23.208,2.541 23.208,2.541 l -0.625,0.578 z"
   id="path2889" />
		<path
   d="M 22.18,5.189 1.248,24.504 v 65.904 l 69.908,33.797 22.182,-20.471 V 37.83 c 0,0 -3.653,-1.768 -5.138,-2.484 0,-2.061 0,-8.279 0,-8.279 L 42.48,4.965 c 0,0 -4.313,4.01 -5.86,5.447 C 34.22,9.252 23.43,4.037 23.43,4.037 l -1.25,1.152 z"
   id="path2891" />
		<linearGradient
   x1="60.9492"
   y1="36.037601"
   x2="59.1008"
   y2="17.554001"
   id="XMLID_1_-7"
   gradientUnits="userSpaceOnUse">
			<stop
   id="stop2894"
   style="stop-color:#ffffff;stop-opacity:1"
   offset="0" />
			<stop
   id="stop2896"
   style="stop-color:#fafafa;stop-opacity:1"
   offset="0.26620001" />
			<stop
   id="stop2898"
   style="stop-color:#ededed;stop-opacity:1"
   offset="0.56739998" />
			<stop
   id="stop2900"
   style="stop-color:#d6d6d6;stop-opacity:1"
   offset="0.88450003" />
			<stop
   id="stop2902"
   style="stop-color:#cccccc;stop-opacity:1"
   offset="1" />
			<midPointStop
   offset="0"
   style="stop-color:#FFFFFF"
   id="midPointStop2904" />
			<midPointStop
   offset="0.6815"
   style="stop-color:#FFFFFF"
   id="midPointStop2906" />
			<midPointStop
   offset="1"
   style="stop-color:#CCCCCC"
   id="midPointStop2908" />
		</linearGradient>
		<path
   d="M 76.291,37.383 33.52,16.707 l 9.411,-8.752 42.772,20.678 -9.412,8.75 z"
   id="path2910"
   style="fill:url(#XMLID_1_-7)" />
		<linearGradient
   x1="89.503899"
   y1="71.2939"
   x2="68.7248"
   y2="55.0172"
   id="XMLID_2_-8"
   gradientUnits="userSpaceOnUse">
			<stop
   id="stop2913"
   style="stop-color:#999999;stop-opacity:1"
   offset="0" />
			<stop
   id="stop2915"
   style="stop-color:#7b7b7b;stop-opacity:1"
   offset="0.6839" />
			<stop
   id="stop2917"
   style="stop-color:#6b6b6b;stop-opacity:1"
   offset="1" />
			<midPointStop
   offset="0"
   style="stop-color:#999999"
   id="midPointStop2919" />
			<midPointStop
   offset="0.5306"
   style="stop-color:#999999"
   id="midPointStop2921" />
			<midPointStop
   offset="1"
   style="stop-color:#6B6B6B"
   id="midPointStop2923" />
		</linearGradient>
		<path
   d="m 85.703,91.875 -9.412,8.752 V 37.383 l 9.412,-8.75 v 63.242 z"
   id="path2925"
   style="fill:url(#XMLID_2_-8)" />
		<path
   d="M 23.874,7.025 3.746,25.6 V 88.842 L 70.713,121.215 90.84,102.641 V 39.396 L 23.874,7.025 z"
   id="path2927" />
		<linearGradient
   x1="65.462898"
   y1="124.1367"
   x2="37.285801"
   y2="73.508499"
   id="XMLID_3_-4"
   gradientUnits="userSpaceOnUse">
			<stop
   id="stop2930"
   style="stop-color:#ffffff;stop-opacity:1"
   offset="0" />
			<stop
   id="stop2932"
   style="stop-color:#e1e1e1;stop-opacity:1"
   offset="0.43040001" />
			<stop
   id="stop2934"
   style="stop-color:#b3b3b3;stop-opacity:1"
   offset="1" />
			<midPointStop
   offset="0"
   style="stop-color:#FFFFFF"
   id="midPointStop2936" />
			<midPointStop
   offset="0.5306"
   style="stop-color:#FFFFFF"
   id="midPointStop2938" />
			<midPointStop
   offset="1"
   style="stop-color:#B3B3B3"
   id="midPointStop2940" />
		</linearGradient>
		<path
   d="M 70.713,121.215 3.746,88.842 V 25.6 l 66.967,32.373 v 63.242 z"
   id="path2942"
   style="fill:url(#XMLID_3_-4)" />
		<path
   d="M 66.08,112.043 8.376,84.125 V 38.15 L 66.08,66.07 v 45.973 z"
   id="path2944"
   style="fill:#f2f2f2" />
		<path
   d="M 11.98,82.498 8.376,84.125 V 38.15 l 3.6,1.74 0.004,42.608 z"
   id="path2946"
   style="fill:#3b3b3b" />
		<linearGradient
   x1="52.5723"
   y1="108.4795"
   x2="36.245201"
   y2="71.1623"
   id="XMLID_4_"
   gradientUnits="userSpaceOnUse">
			<stop
   id="stop2949"
   style="stop-color:#ccccff;stop-opacity:1"
   offset="0" />
			<stop
   id="stop2951"
   style="stop-color:#6666cc;stop-opacity:1"
   offset="1" />
			<midPointStop
   offset="0"
   style="stop-color:#CCCCFF"
   id="midPointStop2953" />
			<midPointStop
   offset="0.5"
   style="stop-color:#CCCCFF"
   id="midPointStop2955" />
			<midPointStop
   offset="1"
   style="stop-color:#6666CC"
   id="midPointStop2957" />
		</linearGradient>
		<path
   d="M 62.475,106.928 11.98,82.498 V 39.885 l 50.494,24.432 v 42.611 z"
   id="path2959"
   style="fill:url(#XMLID_4_)" />
		<linearGradient
   x1="21.7778"
   y1="44.0186"
   x2="48.6488"
   y2="85.653198"
   id="XMLID_5_"
   gradientUnits="userSpaceOnUse">
			<stop
   id="stop2962"
   style="stop-color:#ccccff;stop-opacity:1"
   offset="0" />
			<stop
   id="stop2964"
   style="stop-color:#6666cc;stop-opacity:1"
   offset="1" />
			<midPointStop
   offset="0"
   style="stop-color:#CCCCFF"
   id="midPointStop2966" />
			<midPointStop
   offset="0.5"
   style="stop-color:#CCCCFF"
   id="midPointStop2968" />
			<midPointStop
   offset="1"
   style="stop-color:#6666CC"
   id="midPointStop2970" />
		</linearGradient>
		<path
   d="M 60.601,98.457 19.173,78.414 V 45.699 L 60.601,65.74 v 32.717 z"
   id="path2972"
   style="fill:url(#XMLID_5_)" />
		<linearGradient
   x1="49.563"
   y1="55.1973"
   x2="46.4244"
   y2="23.8123"
   id="XMLID_6_"
   gradientUnits="userSpaceOnUse">
			<stop
   id="stop2975"
   style="stop-color:#ffffff;stop-opacity:1"
   offset="0" />
			<stop
   id="stop2977"
   style="stop-color:#fafafa;stop-opacity:1"
   offset="0.26620001" />
			<stop
   id="stop2979"
   style="stop-color:#ededed;stop-opacity:1"
   offset="0.56739998" />
			<stop
   id="stop2981"
   style="stop-color:#d6d6d6;stop-opacity:1"
   offset="0.88450003" />
			<stop
   id="stop2983"
   style="stop-color:#cccccc;stop-opacity:1"
   offset="1" />
			<midPointStop
   offset="0"
   style="stop-color:#FFFFFF"
   id="midPointStop2985" />
			<midPointStop
   offset="0.6815"
   style="stop-color:#FFFFFF"
   id="midPointStop2987" />
			<midPointStop
   offset="1"
   style="stop-color:#CCCCCC"
   id="midPointStop2989" />
		</linearGradient>
		<path
   d="M 70.713,57.973 3.746,25.6 23.874,7.025 90.84,39.396 70.713,57.973 z"
   id="path2991"
   style="fill:url(#XMLID_6_)" />
		<linearGradient
   x1="89.777298"
   y1="87.3564"
   x2="67.793404"
   y2="70.135902"
   id="XMLID_7_"
   gradientUnits="userSpaceOnUse">
			<stop
   id="stop2994"
   style="stop-color:#999999;stop-opacity:1"
   offset="0" />
			<stop
   id="stop2996"
   style="stop-color:#7b7b7b;stop-opacity:1"
   offset="0.6839" />
			<stop
   id="stop2998"
   style="stop-color:#6b6b6b;stop-opacity:1"
   offset="1" />
			<midPointStop
   offset="0"
   style="stop-color:#999999"
   id="midPointStop3000" />
			<midPointStop
   offset="0.5306"
   style="stop-color:#999999"
   id="midPointStop3002" />
			<midPointStop
   offset="1"
   style="stop-color:#6B6B6B"
   id="midPointStop3004" />
		</linearGradient>
		<path
   d="M 90.84,102.641 70.713,121.215 V 57.973 L 90.84,39.396 v 63.245 z"
   id="path3006"
   style="fill:url(#XMLID_7_)" />
		<path
   d="m 36.933,13.328 49.215,23.781 0.881,-1.795 -49.216,-23.781 -0.88,1.795 z"
   id="path3008" />
		<path
   d="m 67.021,0 v 43.919 h 3 V 0 h -3 z"
   id="path3010" />
		<path
   d="M 67.739,43.294 69.301,44.543 93.625,14.138 92.063,12.889 67.739,43.294 z"
   id="path3012" />
		<path
   d="m 69.09,42.423 0.213,2.992 18.919,-1.352 -0.213,-2.992 -18.919,1.352 z"
   id="path3014"
   style="opacity:0.3" />
	</g><g
   transform="matrix(0.59617943,0,0,0.59617943,0,51.163663)"
   id="Layer_1_2_">
		<path
   d="M 112.38,25.293 104.251,24.514 82.649,44.914 0,126.5 14.38,126.699 107.582,66.707 76.564,63.606 112.38,25.293 z"
   id="path5"
   style="opacity:0.2;fill-rule:evenodd" />
		<path
   d="M 98.632,3.56 18.61,54.266 v 21.958 c 0,0 6.461,0 8.854,0 C 18.918,84.244 0,101.998 0,101.998 V 126.5 L 93.395,67.604 V 45.988 c 0,0 -7.024,-0.703 -10.745,-1.074 7.061,-6.668 21.602,-20.4 21.602,-20.4 V 0 l -5.62,3.56 z"
   id="path7"
   style="fill-rule:evenodd" />
		<linearGradient
   x1="38.167"
   y1="56.883301"
   x2="38.167"
   y2="70.6101"
   id="XMLID_1_"
   gradientUnits="userSpaceOnUse">
			<stop
   id="stop10"
   style="stop-color:#f36c13;stop-opacity:1"
   offset="0" />
			<stop
   id="stop12"
   style="stop-color:#f37c13;stop-opacity:1"
   offset="0.1622" />
			<stop
   id="stop14"
   style="stop-color:#f38e14;stop-opacity:1"
   offset="0.42120001" />
			<stop
   id="stop16"
   style="stop-color:#f39814;stop-opacity:1"
   offset="0.69379997" />
			<stop
   id="stop18"
   style="stop-color:#f39c14;stop-opacity:1"
   offset="1" />
			<midPointStop
   id="midPointStop20"
   style="stop-color:#F36C13"
   offset="0" />
			<midPointStop
   id="midPointStop22"
   style="stop-color:#F36C13"
   offset="0.2697" />
			<midPointStop
   id="midPointStop24"
   style="stop-color:#F39C14"
   offset="1" />
		</linearGradient>
		<path
   d="M 22.271,56.279 V 72.564 H 36.712 L 54.064,56.279 H 22.271 z"
   id="path26"
   style="fill:url(#XMLID_1_);fill-rule:evenodd" />
		<linearGradient
   x1="71.183601"
   y1="24.215799"
   x2="92.229698"
   y2="29.7061"
   id="XMLID_2_"
   gradientUnits="userSpaceOnUse">
			<stop
   id="stop29"
   style="stop-color:#f36c13;stop-opacity:1"
   offset="0" />
			<stop
   id="stop31"
   style="stop-color:#f37013;stop-opacity:1"
   offset="0.0508" />
			<stop
   id="stop33"
   style="stop-color:#f38814;stop-opacity:1"
   offset="0.4034" />
			<stop
   id="stop35"
   style="stop-color:#f39714;stop-opacity:1"
   offset="0.72909999" />
			<stop
   id="stop37"
   style="stop-color:#f39c14;stop-opacity:1"
   offset="1" />
			<midPointStop
   id="midPointStop39"
   style="stop-color:#F36C13"
   offset="0" />
			<midPointStop
   id="midPointStop41"
   style="stop-color:#F36C13"
   offset="0.3315" />
			<midPointStop
   id="midPointStop43"
   style="stop-color:#F39C14"
   offset="1" />
		</linearGradient>
		<path
   d="M 100.591,6.651 V 22.935 L 74.307,47.759 58.717,46.199 100.591,6.651 z"
   id="path45"
   style="fill:url(#XMLID_2_);fill-rule:evenodd" />
		<linearGradient
   x1="43.087399"
   y1="80.626503"
   x2="51.683601"
   y2="90.049103"
   id="XMLID_3_"
   gradientUnits="userSpaceOnUse">
			<stop
   id="stop48"
   style="stop-color:#f36c13;stop-opacity:1"
   offset="0" />
			<stop
   id="stop50"
   style="stop-color:#f37013;stop-opacity:1"
   offset="0.0508" />
			<stop
   id="stop52"
   style="stop-color:#f38814;stop-opacity:1"
   offset="0.4034" />
			<stop
   id="stop54"
   style="stop-color:#f39714;stop-opacity:1"
   offset="0.72909999" />
			<stop
   id="stop56"
   style="stop-color:#f39c14;stop-opacity:1"
   offset="1" />
			<midPointStop
   id="midPointStop58"
   style="stop-color:#F36C13"
   offset="0" />
			<midPointStop
   id="midPointStop60"
   style="stop-color:#F36C13"
   offset="0.3315" />
			<midPointStop
   id="midPointStop62"
   style="stop-color:#F39C14"
   offset="1" />
		</linearGradient>
		<path
   d="M 89.734,49.301 V 65.584 L 3.66,119.865 V 103.582 L 89.734,49.301 z"
   id="path64"
   style="fill:url(#XMLID_3_);fill-rule:evenodd" />
		<path
   d="M 100.591,6.651 22.271,56.279 H 54.064 L 3.66,103.582 89.734,49.301 58.716,46.199 100.591,6.651 z"
   id="path66"
   style="fill:#f8d914;fill-rule:evenodd" />
		<path
   d="m 54.546,47.621 33.77,2.688 1.419,-1.008 -31.018,-3.102 41.874,-39.548 -7.915,5.005 -38.13,35.965 z"
   id="path68"
   style="fill:#f3f432;fill-rule:evenodd" />
		<path
   d="m 25.19,54.449 -2.92,1.83 H 54.063 L 3.66,103.582 11.8,98.463 58.689,54.45 H 25.19 z"
   id="path70"
   style="fill:#f3f432;fill-rule:evenodd" />
	</g>
</svg>