<?xml version="1.0" encoding="UTF-8" standalone="no"?>
<!-- Created with Inkscape (http://www.inkscape.org/) -->

<svg
   xmlns:a="http://ns.adobe.com/AdobeSVGViewerExtensions/3.0/"
   xmlns:svg="http://www.w3.org/2000/svg"
   xmlns="http://www.w3.org/2000/svg"
   xmlns:xlink="http://www.w3.org/1999/xlink"
   version="1.1"
   width="101.255"
   height="101.256"
   viewBox="0 0 101.255 101.256"
   id="svg2"
   xml:space="preserve"
   style="overflow:visible"><defs
   id="defs240"><linearGradient
     x1="105.32"
     y1="82.730003"
     x2="111.05"
     y2="80.059998"
     id="gradient0"
     gradientUnits="userSpaceOnUse"><stop
       id="stop3059"
       style="stop-color:#000000;stop-opacity:1"
       offset="0.0833" /><stop
       id="stop3061"
       style="stop-color:#c3ced8;stop-opacity:1"
       offset="0.4833" /><stop
       id="stop3063"
       style="stop-color:#000000;stop-opacity:1"
       offset="0.84429997" /></linearGradient><linearGradient
     x1="126.18921"
     y1="24.509726"
     x2="129.44319"
     y2="116.34281"
     id="linearGradient5191"
     xlink:href="#linearGradient6742"
     gradientUnits="userSpaceOnUse"
     gradientTransform="matrix(1.567692,0,0,1.567692,-69.82581,15.22741)" /><linearGradient
     x1="126.18921"
     y1="39.617504"
     x2="126.18921"
     y2="112.30453"
     id="linearGradient4271"
     xlink:href="#linearGradient6742"
     gradientUnits="userSpaceOnUse"
     gradientTransform="matrix(1.567692,0,0,1.567692,-69.82581,271.22741)" /><linearGradient
     x1="87.396973"
     y1="141.97266"
     x2="240.94727"
     y2="141.97266"
     id="linearGradient4218"
     gradientUnits="userSpaceOnUse"
     gradientTransform="matrix(1.567692,0,0,1.567692,-129.3706,-94.56783)">
								<stop
   id="stop4220"
   style="stop-color:#ffffff;stop-opacity:0.66666675"
   offset="0" />
								
								<stop
   id="stop4222"
   style="stop-color:#d7d7d7;stop-opacity:0.21875"
   offset="0.24074516" />
								<stop
   id="stop4224"
   style="stop-color:#4d4d4d;stop-opacity:0"
   offset="0.4585622" /><stop
   id="stop4226"
   style="stop-color:#ffffff;stop-opacity:0.51041669"
   offset="0.71891773" /><stop
   id="stop4228"
   style="stop-color:#f2f2f2;stop-opacity:0.40000001"
   offset="0.87351298" /><stop
   id="stop4230"
   style="stop-color:#ffffff;stop-opacity:0.62352943"
   offset="1" />
								
								
								<a:midPointStop
   offset="0"
   style="stop-color:#E9E9EF" />
								<a:midPointStop
   offset="0.5"
   style="stop-color:#E9E9EF" />
								<a:midPointStop
   offset="0.157303"
   style="stop-color:#B1B1C5" />
								<a:midPointStop
   offset="0.5"
   style="stop-color:#B1B1C5" />
								<a:midPointStop
   offset="0.314607"
   style="stop-color:#CECEDB" />
								<a:midPointStop
   offset="0.5"
   style="stop-color:#CECEDB" />
								<a:midPointStop
   offset="0.65"
   style="stop-color:#FFFFFF" />
								<a:midPointStop
   offset="0.5"
   style="stop-color:#FFFFFF" />
								<a:midPointStop
   offset="0.837079"
   style="stop-color:#CECEDB" />
								<a:midPointStop
   offset="0.5"
   style="stop-color:#CECEDB" />
								<a:midPointStop
   offset="1"
   style="stop-color:#FFFF66" />
							</linearGradient><linearGradient
     x1="126.18921"
     y1="39.617504"
     x2="126.18921"
     y2="112.30453"
     id="XMLID_17_"
     gradientUnits="userSpaceOnUse"
     gradientTransform="matrix(1.567692,0,0,1.567692,-69.82581,15.22741)">
								<stop
   id="stop18"
   style="stop-color:#c200be;stop-opacity:1"
   offset="0" />
								<stop
   id="stop20"
   style="stop-color:#c200be;stop-opacity:1"
   offset="0.19460699" />
								<stop
   id="stop22"
   style="stop-color:#1000ae;stop-opacity:1"
   offset="0.31460699" />
								<stop
   id="stop24"
   style="stop-color:#1000ae;stop-opacity:1"
   offset="0.72999996" />
								<stop
   id="stop26"
   style="stop-color:#00dab6;stop-opacity:1"
   offset="0.85707897" />
								<stop
   id="stop28"
   style="stop-color:#00dab6;stop-opacity:1"
   offset="1" />
								<a:midPointStop
   style="stop-color:#CF0000"
   offset="0" />
								<a:midPointStop
   style="stop-color:#CF0000"
   offset="0.5" />
								<a:midPointStop
   style="stop-color:#7C0000"
   offset="0.157303" />
								<a:midPointStop
   style="stop-color:#7C0000"
   offset="0.5" />
								<a:midPointStop
   style="stop-color:#CF0000"
   offset="0.314607" />
								<a:midPointStop
   style="stop-color:#CF0000"
   offset="0.5" />
								<a:midPointStop
   style="stop-color:#B80000"
   offset="0.65" />
								<a:midPointStop
   style="stop-color:#B80000"
   offset="0.5" />
								<a:midPointStop
   style="stop-color:#CF0000"
   offset="0.837079" />
								<a:midPointStop
   style="stop-color:#CF0000"
   offset="0.5" />
								<a:midPointStop
   style="stop-color:#FF0000"
   offset="1" />
							</linearGradient><linearGradient
     x1="133.17909"
     y1="151.1393"
     x2="132.62358"
     y2="123.21392"
     id="linearGradient7085"
     xlink:href="#XMLID_17_"
     gradientUnits="userSpaceOnUse" /><linearGradient
     x1="133.17909"
     y1="151.1393"
     x2="132.62358"
     y2="123.21392"
     id="linearGradient2436"
     xlink:href="#XMLID_17_"
     gradientUnits="userSpaceOnUse"
     gradientTransform="translate(272.28312,-30.895163)" /><linearGradient
     x1="133.17909"
     y1="151.1393"
     x2="132.62358"
     y2="123.21392"
     id="linearGradient3449"
     xlink:href="#XMLID_17_"
     gradientUnits="userSpaceOnUse"
     gradientTransform="translate(272.28312,-30.895163)" /><linearGradient
     x1="133.17909"
     y1="151.1393"
     x2="132.62358"
     y2="123.21392"
     id="linearGradient3457"
     xlink:href="#XMLID_17_"
     gradientUnits="userSpaceOnUse"
     gradientTransform="translate(306.93733,-90.754533)" /><linearGradient
     x1="126.18921"
     y1="38.575397"
     x2="126.18921"
     y2="108.1361"
     id="linearGradient6742"
     gradientUnits="userSpaceOnUse"
     gradientTransform="matrix(1.567692,0,0,1.567692,-69.82581,15.22741)">
								<stop
   id="stop6744"
   style="stop-color:#f00000;stop-opacity:1"
   offset="0" />
								<stop
   id="stop6746"
   style="stop-color:#f00000;stop-opacity:1"
   offset="0.10026827" />
								<stop
   id="stop6748"
   style="stop-color:#ff8000;stop-opacity:1"
   offset="0.15960093" />
								<stop
   id="stop6750"
   style="stop-color:#ff8000;stop-opacity:1"
   offset="0.29677647" />
								<stop
   id="stop6752"
   style="stop-color:#ffff00;stop-opacity:1"
   offset="0.35825124" /><stop
   id="stop5179"
   style="stop-color:#ffff00;stop-opacity:1"
   offset="0.48705581" /><stop
   id="stop5181"
   style="stop-color:#007940;stop-opacity:1"
   offset="0.54412884" /><stop
   id="stop5183"
   style="stop-color:#007940;stop-opacity:1"
   offset="0.67490226" /><stop
   id="stop5185"
   style="stop-color:#4040ff;stop-opacity:1"
   offset="0.74168122" /><stop
   id="stop5187"
   style="stop-color:#4040ff;stop-opacity:1"
   offset="0.87041879" /><stop
   id="stop5189"
   style="stop-color:#a000c0;stop-opacity:1"
   offset="0.93114763" />
								<stop
   id="stop6754"
   style="stop-color:#a000c0;stop-opacity:1"
   offset="1" />
								<a:midPointStop
   offset="0"
   style="stop-color:#CF0000" />
								<a:midPointStop
   offset="0.5"
   style="stop-color:#CF0000" />
								<a:midPointStop
   offset="0.157303"
   style="stop-color:#7C0000" />
								<a:midPointStop
   offset="0.5"
   style="stop-color:#7C0000" />
								<a:midPointStop
   offset="0.314607"
   style="stop-color:#CF0000" />
								<a:midPointStop
   offset="0.5"
   style="stop-color:#CF0000" />
								<a:midPointStop
   offset="0.65"
   style="stop-color:#B80000" />
								<a:midPointStop
   offset="0.5"
   style="stop-color:#B80000" />
								<a:midPointStop
   offset="0.837079"
   style="stop-color:#CF0000" />
								<a:midPointStop
   offset="0.5"
   style="stop-color:#CF0000" />
								<a:midPointStop
   offset="1"
   style="stop-color:#FF0000" />
							</linearGradient><linearGradient
     x1="87.396973"
     y1="141.97266"
     x2="269.33331"
     y2="141.97276"
     id="linearGradient4387"
     xlink:href="#XMLID_22_"
     gradientUnits="userSpaceOnUse"
     gradientTransform="matrix(1.567692,0,0,1.567692,-129.56918,-95.332514)" /><linearGradient
     x1="87.396973"
     y1="141.97266"
     x2="269.33331"
     y2="141.97276"
     id="linearGradient4384"
     xlink:href="#XMLID_22_"
     gradientUnits="userSpaceOnUse"
     gradientTransform="matrix(1.567692,0,0,1.567692,-129.3714,-94.56962)" /><linearGradient
     x1="87.396973"
     y1="141.97266"
     x2="269.33331"
     y2="141.97276"
     id="linearGradient3036"
     xlink:href="#XMLID_22_"
     gradientUnits="userSpaceOnUse"
     gradientTransform="matrix(1.567692,0,0,1.567692,-129.3714,-94.56962)" /><linearGradient
     id="linearGradient25883"><stop
       id="stop25885"
       style="stop-color:#ffffff;stop-opacity:1"
       offset="0" /><stop
       id="stop25887"
       style="stop-color:#df0018;stop-opacity:1"
       offset="1" /></linearGradient><linearGradient
     x1="87.396973"
     y1="141.97266"
     x2="240.94727"
     y2="141.97266"
     id="XMLID_22_"
     gradientUnits="userSpaceOnUse"
     gradientTransform="matrix(1.567692,0,0,1.567692,-129.3706,-94.56783)">
								<stop
   id="stop139"
   style="stop-color:#ffffff;stop-opacity:0.46956521"
   offset="0" />
								
								<stop
   id="stop143"
   style="stop-color:#d7d7d7;stop-opacity:0.21875"
   offset="0.24074516" />
								<stop
   id="stop145"
   style="stop-color:#4d4d4d;stop-opacity:0"
   offset="0.4585622" /><stop
   id="stop3696"
   style="stop-color:#ffffff;stop-opacity:0.47058824"
   offset="0.71891773" /><stop
   id="stop2807"
   style="stop-color:#f2f2f2;stop-opacity:0.40000001"
   offset="0.87351298" /><stop
   id="stop3694"
   style="stop-color:#ffffff;stop-opacity:0.62352943"
   offset="1" />
								
								
								<a:midPointStop
   style="stop-color:#E9E9EF"
   offset="0" />
								<a:midPointStop
   style="stop-color:#E9E9EF"
   offset="0.5" />
								<a:midPointStop
   style="stop-color:#B1B1C5"
   offset="0.157303" />
								<a:midPointStop
   style="stop-color:#B1B1C5"
   offset="0.5" />
								<a:midPointStop
   style="stop-color:#CECEDB"
   offset="0.314607" />
								<a:midPointStop
   style="stop-color:#CECEDB"
   offset="0.5" />
								<a:midPointStop
   style="stop-color:#FFFFFF"
   offset="0.65" />
								<a:midPointStop
   style="stop-color:#FFFFFF"
   offset="0.5" />
								<a:midPointStop
   style="stop-color:#CECEDB"
   offset="0.837079" />
								<a:midPointStop
   style="stop-color:#CECEDB"
   offset="0.5" />
								<a:midPointStop
   style="stop-color:#FFFF66"
   offset="1" />
							</linearGradient><linearGradient
     x1="105.32"
     y1="82.730003"
     x2="111.05"
     y2="80.059998"
     id="gradient0-6"
     gradientUnits="userSpaceOnUse"><stop
       id="stop4552"
       style="stop-color:#000000;stop-opacity:1"
       offset="0.0833" /><stop
       id="stop4554"
       style="stop-color:#c3ced8;stop-opacity:1"
       offset="0.4833" /><stop
       id="stop4556"
       style="stop-color:#000000;stop-opacity:1"
       offset="0.84429997" /></linearGradient><linearGradient
     x1="105.32"
     y1="82.730003"
     x2="111.05"
     y2="80.059998"
     id="linearGradient4722"
     xlink:href="#gradient0-6"
     gradientUnits="userSpaceOnUse"
     gradientTransform="translate(79.184229,-0.22306058)" /><linearGradient
     x1="126.18921"
     y1="24.509726"
     x2="129.44319"
     y2="116.34281"
     id="linearGradient4742"
     xlink:href="#linearGradient6742"
     gradientUnits="userSpaceOnUse"
     gradientTransform="matrix(1.567692,0,0,1.567692,-69.82581,15.22741)" /><linearGradient
     x1="87.396973"
     y1="141.97266"
     x2="269.33331"
     y2="141.97276"
     id="linearGradient4744"
     xlink:href="#XMLID_22_"
     gradientUnits="userSpaceOnUse"
     gradientTransform="matrix(1.567692,0,0,1.567692,-129.56918,-95.332514)" /><linearGradient
     x1="105.32"
     y1="82.730003"
     x2="111.05"
     y2="80.059998"
     id="linearGradient4746"
     xlink:href="#gradient0-6"
     gradientUnits="userSpaceOnUse"
     gradientTransform="translate(79.184229,-0.22306058)" /><linearGradient
     x1="105.32"
     y1="82.730003"
     x2="111.05"
     y2="80.059998"
     id="linearGradient4750"
     xlink:href="#gradient0-6"
     gradientUnits="userSpaceOnUse"
     gradientTransform="translate(-17.385695,1.6239052)" /><linearGradient
     x1="126.18921"
     y1="24.509726"
     x2="129.44319"
     y2="116.34281"
     id="linearGradient4764"
     xlink:href="#linearGradient6742"
     gradientUnits="userSpaceOnUse"
     gradientTransform="matrix(1.567692,0,0,1.567692,-69.82581,15.22741)" /><linearGradient
     x1="87.396973"
     y1="141.97266"
     x2="269.33331"
     y2="141.97276"
     id="linearGradient4766"
     xlink:href="#XMLID_22_"
     gradientUnits="userSpaceOnUse"
     gradientTransform="matrix(1.567692,0,0,1.567692,-129.56918,-95.332514)" /><linearGradient
     x1="87.396973"
     y1="141.97266"
     x2="269.33331"
     y2="141.97276"
     id="linearGradient4769"
     xlink:href="#XMLID_22_"
     gradientUnits="userSpaceOnUse"
     gradientTransform="matrix(0.34490386,-0.12666705,0.12666705,0.34490386,-24.449936,29.792885)" /></defs>
	<g
   id="Ebene_1">
		<g
   id="g5">
			<g
   id="g7">
				<path
   d="M 0,50.628 C 0,22.668 22.668,0 50.627,0 c 27.963,0 50.628,22.668 50.628,50.628 0,27.961 -22.665,50.628 -50.628,50.628 C 22.668,101.256 0,78.589 0,50.628 z"
   id="path9" />
			</g>
			<g
   id="g11">
				
					<radialGradient
   cx="-200.4482"
   cy="474.07761"
   r="50.955299"
   fx="-200.4482"
   fy="474.07761"
   id="XMLID_1_"
   gradientUnits="userSpaceOnUse"
   gradientTransform="matrix(1,0,0,-1,233.7803,512.4775)">
					<stop
   id="stop14"
   style="stop-color:#ffffff;stop-opacity:1"
   offset="0" />
					<stop
   id="stop16"
   style="stop-color:#33cdcd;stop-opacity:1"
   offset="1" />
					<midPointStop
   id="midPointStop18"
   style="stop-color:#FFFFFF"
   offset="0" />
					<midPointStop
   id="midPointStop20"
   style="stop-color:#FFFFFF"
   offset="0.5" />
					<midPointStop
   id="midPointStop22"
   style="stop-color:#33CDCD"
   offset="1" />
				</radialGradient>
				<path
   d="m 4.653,50.628 c 0,-25.391 20.584,-45.976 45.975,-45.976 25.392,0 45.977,20.585 45.977,45.976 0,25.392 -20.585,45.976 -45.977,45.976 C 25.237,96.605 4.653,76.02 4.653,50.628 z"
   id="path24"
   style="fill:url(#XMLID_1_)" />
			</g>
			<g
   id="g26">
				<g
   id="g28">
					<g
   id="g30">
						
							<radialGradient
   cx="-205.93159"
   cy="478.45749"
   r="78.705704"
   fx="-205.93159"
   fy="478.45749"
   id="XMLID_2_"
   gradientUnits="userSpaceOnUse"
   gradientTransform="matrix(1,0,0,-1,233.7803,512.4775)">
							<stop
   id="stop33"
   style="stop-color:#33cc33;stop-opacity:1"
   offset="0" />
							<stop
   id="stop35"
   style="stop-color:#009900;stop-opacity:1"
   offset="0.57539999" />
							<stop
   id="stop37"
   style="stop-color:#005e07;stop-opacity:1"
   offset="1" />
							<midPointStop
   id="midPointStop39"
   style="stop-color:#33CC33"
   offset="0" />
							<midPointStop
   id="midPointStop41"
   style="stop-color:#33CC33"
   offset="0.5" />
							<midPointStop
   id="midPointStop43"
   style="stop-color:#009900"
   offset="0.5754" />
							<midPointStop
   id="midPointStop45"
   style="stop-color:#009900"
   offset="0.5" />
							<midPointStop
   id="midPointStop47"
   style="stop-color:#005E07"
   offset="1" />
						</radialGradient>
						<path
   d="m 65.109,93.792 c 0.563,-2.39 1.827,-7.451 -0.422,-7.872 -2.25,-0.421 -6.468,-0.704 -7.732,-2.109 -1.267,-1.406 -2.532,-1.406 -3.375,-1.971 -0.843,-0.562 -2.109,-2.39 -0.843,-4.075 1.265,-1.688 0.983,-3.375 -0.703,-4.359 -1.688,-0.984 -2.672,0.281 -4.077,0.422 -1.406,0.141 -4.781,-2.108 -7.313,-2.108 -2.53,0 -4.921,0 -5.34,-1.406 -1.548,0.985 -10.826,-0.703 -10.405,-3.517 -0.985,-0.982 -4.639,-5.059 -5.623,-6.466 0.14,1.125 0.984,3.514 1.827,4.218 -2.388,-1.688 -4.357,-4.64 -4.5,-6.89 -1.125,-0.986 -3.937,-6.185 -3.516,-7.732 0.422,-1.548 0.844,-7.03 1.689,-7.171 0.842,-0.141 0.14,-0.844 -0.281,-1.687 -0.422,-0.844 -0.704,-2.251 -0.704,-2.952 0,-0.702 0.704,-2.53 0,-2.671 -0.705,-0.141 -2.251,-1.125 -1.266,-1.125 0.985,0 1.829,0.564 1.829,-0.421 0,-0.983 -0.563,-3.656 -0.984,-4.077 -0.421,-0.421 -0.281,-0.281 -1.125,0.281 -0.845,0.562 -1.687,0.705 -1.828,0.282 -0.141,-0.422 0.141,-0.282 0.843,-1.265 0.703,-0.986 2.39,-3.798 2.953,-4.783 0.564,-0.983 0.422,0.283 2.25,-1.826 1.828,-2.109 2.812,-4.079 2.812,-2.109 0,1.968 0.421,2.812 1.545,2.812 1.125,0 1.266,-0.422 1.407,0.421 0.139,0.844 0.28,1.828 1.407,1.406 1.122,-0.421 2.106,0.141 2.67,-0.421 0.563,-0.564 -0.422,-1.125 0.28,-1.266 0.705,-0.14 0.986,1.125 1.266,0.141 0.279,-0.983 -0.141,-2.53 0.843,-1.547 0.983,0.985 1.265,1.125 1.967,0.704 0.706,-0.423 2.953,-0.562 0.987,0.702 -1.971,1.266 -2.11,1.125 -2.392,2.39 -0.281,1.266 -0.422,0.844 -1.125,2.252 -0.701,1.404 -2.108,2.812 -0.279,3.795 1.828,0.985 4.216,1.266 4.216,1.266 0,0 1.969,-1.547 1.688,0.139 -0.28,1.688 -0.421,2.674 0.564,2.392 0.984,-0.282 2.671,-0.141 1.545,-1.406 -1.123,-1.265 -0.983,-0.422 -0.561,-2.25 0.419,-1.828 0.141,-1.688 -0.423,-2.531 -0.562,-0.844 -1.967,-3.515 -0.562,-3.656 1.403,-0.14 2.53,-0.562 2.952,0.141 0.421,0.703 1.828,1.968 2.39,1.266 0.564,-0.703 -0.139,-2.671 1.967,-1.266 2.11,1.406 -0.14,2.111 2.11,2.111 2.249,0 4.359,-0.143 4.359,0.419 0,0.564 -1.549,3.235 -2.673,3.657 -1.125,0.42 -1.547,-0.562 -1.969,0.704 -0.422,1.265 -1.829,3.935 -0.983,2.952 0.843,-0.983 2.247,-3.095 2.388,-1.828 0.141,1.267 0,2.25 1.407,2.11 1.404,-0.141 3.515,-1.405 1.688,0.422 -1.828,1.827 -1.969,3.093 -1.828,1.827 0.141,-1.265 0.141,-1.968 -0.985,-0.281 -1.123,1.687 -1.405,2.952 -0.843,2.952 0.561,0 0.562,0.423 -0.141,0.844 -0.703,0.42 -1.125,2.39 -1.547,3.514 -0.421,1.125 -1.265,2.39 -0.421,2.532 0.843,0.141 0.563,2.248 0.563,2.248 0,0 -3.797,4.22 -2.391,5.485 1.406,1.264 3.094,3.232 2.391,3.655 -0.704,0.42 -2.391,-2.25 -2.813,-2.672 -0.421,-0.422 -4.639,-0.984 -4.921,-0.281 -0.28,0.704 0.702,1.266 0,1.406 -0.702,0.14 -3.234,0.704 -4.218,1.265 -0.984,0.561 -1.264,2.39 -1.125,3.094 0.141,0.704 0.845,6.75 4.078,6.044 3.234,-0.703 3.516,-0.982 2.952,-2.389 l 2.532,-0.984 c 0,0 -0.563,4.078 0.703,4.215 1.266,0.142 3.093,-0.28 3.516,-0.28 0.422,0 1.405,3.655 2.249,3.937 0.844,0.281 3.232,0 4.641,-0.982 1.404,-0.985 2.109,1.263 2.249,0.14 0.141,-1.125 1.688,-3.516 3.092,-4.079 0,0.985 0,1.97 0.845,1.688 0.844,-0.281 0.281,-2.107 0.281,-2.107 0,0 5.623,0.28 5.623,-1.406 0,0 3.094,-0.846 3.797,0.14 0.421,-0.985 1.125,-0.14 2.25,0.141 1.124,0.278 1.826,-0.704 3.374,-1.405 1.545,-0.703 4.921,-0.141 5.342,0.983 0.42,1.125 1.264,2.248 1.828,0.281 l 3.233,-0.844 c 0,0 1.827,-1.828 3.094,-1.968 1.264,-0.141 2.53,-0.983 2.67,-0.141 0.141,0.844 -0.421,4.219 -1.264,4.92 -0.845,0.704 -0.422,1.266 -0.142,1.969 0.282,0.704 -0.421,4.5 -0.984,5.201 -0.562,0.706 0,0.844 -1.124,1.829 -1.125,0.985 -1.688,2.388 -2.109,3.232 -0.42,0.846 -1.123,3.235 -2.249,4.221 -1.124,0.982 -1.827,2.107 -1.827,2.107 -1.546,1.261 -5.623,6.181 -13.216,7.307 z"
   id="path49"
   style="fill:url(#XMLID_2_)" />
					</g>
					<g
   id="g51">
						
							<radialGradient
   cx="-204.90331"
   cy="478.7485"
   r="76.996201"
   fx="-204.90331"
   fy="478.7485"
   id="XMLID_3_"
   gradientUnits="userSpaceOnUse"
   gradientTransform="matrix(1,0,0,-1,233.7803,512.4775)">
							<stop
   id="stop54"
   style="stop-color:#33cc33;stop-opacity:1"
   offset="0" />
							<stop
   id="stop56"
   style="stop-color:#009900;stop-opacity:1"
   offset="0.57539999" />
							<stop
   id="stop58"
   style="stop-color:#005e07;stop-opacity:1"
   offset="1" />
							<midPointStop
   id="midPointStop60"
   style="stop-color:#33CC33"
   offset="0" />
							<midPointStop
   id="midPointStop62"
   style="stop-color:#33CC33"
   offset="0.5" />
							<midPointStop
   id="midPointStop64"
   style="stop-color:#009900"
   offset="0.5754" />
							<midPointStop
   id="midPointStop66"
   style="stop-color:#009900"
   offset="0.5" />
							<midPointStop
   id="midPointStop68"
   style="stop-color:#005E07"
   offset="1" />
						</radialGradient>
						<path
   d="m 42.333,62.158 c 0.843,-0.421 0.984,-0.563 1.828,-0.563 0.843,0 3.515,0.141 4.357,0.141 0.845,0 1.124,0.842 0.28,0.985 -0.842,0.14 -2.248,-0.424 -3.233,-0.424 -0.985,-10e-4 -2.669,0.565 -3.232,-0.139 z"
   id="path70"
   style="fill:url(#XMLID_3_)" />
					</g>
					<g
   id="g72">
						
							<radialGradient
   cx="-205.9272"
   cy="477.66061"
   r="77.3517"
   fx="-205.9272"
   fy="477.66061"
   id="XMLID_4_"
   gradientUnits="userSpaceOnUse"
   gradientTransform="matrix(1,0,0,-1,233.7803,512.4775)">
							<stop
   id="stop75"
   style="stop-color:#33cc33;stop-opacity:1"
   offset="0" />
							<stop
   id="stop77"
   style="stop-color:#009900;stop-opacity:1"
   offset="0.57539999" />
							<stop
   id="stop79"
   style="stop-color:#005e07;stop-opacity:1"
   offset="1" />
							<midPointStop
   id="midPointStop81"
   style="stop-color:#33CC33"
   offset="0" />
							<midPointStop
   id="midPointStop83"
   style="stop-color:#33CC33"
   offset="0.5" />
							<midPointStop
   id="midPointStop85"
   style="stop-color:#009900"
   offset="0.5754" />
							<midPointStop
   id="midPointStop87"
   style="stop-color:#009900"
   offset="0.5" />
							<midPointStop
   id="midPointStop89"
   style="stop-color:#005E07"
   offset="1" />
						</radialGradient>
						<path
   d="m 51.894,61.737 c 0.421,-0.704 2.249,-1.125 3.093,-0.704 0.843,0.421 -1.829,1.968 -2.532,1.829 -0.703,-0.141 -0.561,-1.125 -0.561,-1.125 z"
   id="path91"
   style="fill:url(#XMLID_4_)" />
					</g>
					<g
   id="g93">
						
							<radialGradient
   cx="-205.936"
   cy="478.8335"
   r="78.729698"
   fx="-205.936"
   fy="478.8335"
   id="XMLID_5_"
   gradientUnits="userSpaceOnUse"
   gradientTransform="matrix(1,0,0,-1,233.7803,512.4775)">
							<stop
   id="stop96"
   style="stop-color:#33cc33;stop-opacity:1"
   offset="0" />
							<stop
   id="stop98"
   style="stop-color:#009900;stop-opacity:1"
   offset="0.57539999" />
							<stop
   id="stop100"
   style="stop-color:#005e07;stop-opacity:1"
   offset="1" />
							<midPointStop
   id="midPointStop102"
   style="stop-color:#33CC33"
   offset="0" />
							<midPointStop
   id="midPointStop104"
   style="stop-color:#33CC33"
   offset="0.5" />
							<midPointStop
   id="midPointStop106"
   style="stop-color:#009900"
   offset="0.5754" />
							<midPointStop
   id="midPointStop108"
   style="stop-color:#009900"
   offset="0.5" />
							<midPointStop
   id="midPointStop110"
   style="stop-color:#005E07"
   offset="1" />
						</radialGradient>
						<path
   d="m 48.799,30.525 c 0,0 0.422,1.264 0.141,1.826 -0.28,0.563 1.267,-0.281 2.392,-0.281 1.123,0 0.42,-0.421 0.139,-1.265 -0.281,-0.845 -1.829,-0.28 -2.672,-0.28 z"
   id="path112"
   style="fill:url(#XMLID_5_)" />
					</g>
					<g
   id="g114">
						
							<radialGradient
   cx="-205.7285"
   cy="479.41751"
   r="77.602798"
   fx="-205.7285"
   fy="479.41751"
   id="XMLID_6_"
   gradientUnits="userSpaceOnUse"
   gradientTransform="matrix(1,0,0,-1,233.7803,512.4775)">
							<stop
   id="stop117"
   style="stop-color:#33cc33;stop-opacity:1"
   offset="0" />
							<stop
   id="stop119"
   style="stop-color:#009900;stop-opacity:1"
   offset="0.57539999" />
							<stop
   id="stop121"
   style="stop-color:#005e07;stop-opacity:1"
   offset="1" />
							<midPointStop
   id="midPointStop123"
   style="stop-color:#33CC33"
   offset="0" />
							<midPointStop
   id="midPointStop125"
   style="stop-color:#33CC33"
   offset="0.5" />
							<midPointStop
   id="midPointStop127"
   style="stop-color:#009900"
   offset="0.5754" />
							<midPointStop
   id="midPointStop129"
   style="stop-color:#009900"
   offset="0.5" />
							<midPointStop
   id="midPointStop131"
   style="stop-color:#005E07"
   offset="1" />
						</radialGradient>
						<path
   d="m 34.038,15.478 c 0.843,-0.279 0.983,-0.983 2.811,0 1.829,0.985 1.968,10e-4 3.516,1.548 1.548,1.547 4.217,4.217 7.595,2.952 -0.705,-1.686 -1.829,-2.108 -1.688,-3.654 0.141,-1.547 0.421,-3.798 0.421,-3.798 l -1.406,0.563 -0.141,-1.125 c 0,0 -4.919,-0.983 -5.905,-0.843 -0.983,0.14 -0.983,-0.563 -1.687,-0.563 -0.705,0 -0.845,1.125 -1.407,1.125 -0.561,0 -2.389,-0.843 -2.108,0.282 0.281,1.125 0.704,1.406 0.141,2.11 -0.566,0.701 -0.142,1.403 -0.142,1.403 z"
   id="path133"
   style="fill:url(#XMLID_6_)" />
					</g>
					<g
   id="g135">
						<path
   d="m 30.945,19.696 c 0.564,-0.844 1.125,-1.404 1.264,-0.844 0.141,0.563 0.282,1.125 1.829,0.704 1.548,-0.421 1.967,-0.141 2.53,0.282 0.565,0.422 1.971,0.563 1.971,1.265 0,0.702 -0.564,1.125 -1.125,0.562 -0.564,-0.562 -1.407,-1.405 -1.407,-0.703 0,0.703 0.422,2.109 1.829,1.968 1.406,-0.141 1.829,0.703 0.705,0.703 -1.125,0 -0.845,0.42 -1.547,0.563 -0.705,0.139 -1.404,-0.845 -2.11,-0.563 0,0 0.283,-1.968 -0.562,-2.11 -0.844,-0.142 -1.125,0.281 -1.125,0.281 0,0 0.141,-0.702 -0.564,-0.984 -0.704,-0.281 -0.981,0.421 -1.828,0.421 -0.845,0.002 -1.548,-2.388 0.14,-1.545 z"
   id="path137"
   style="fill:#159034" />
					</g>
					<g
   id="g139">
						<path
   d="m 22.65,13.933 c 0,0 0.139,0.843 0.563,0.703 0.422,-0.14 2.108,-1.404 3.232,-2.249 1.127,-0.845 2.11,-1.688 1.968,-2.11 -0.141,-0.421 -4.5,2.391 -5.763,3.656 z"
   id="path141"
   style="fill:#159034" />
					</g>
					<g
   id="g143">
						
							<radialGradient
   cx="-205.9292"
   cy="478.72021"
   r="78.874702"
   fx="-205.9292"
   fy="478.72021"
   id="XMLID_7_"
   gradientUnits="userSpaceOnUse"
   gradientTransform="matrix(1,0,0,-1,233.7803,512.4775)">
							<stop
   id="stop146"
   style="stop-color:#33cc33;stop-opacity:1"
   offset="0" />
							<stop
   id="stop148"
   style="stop-color:#009900;stop-opacity:1"
   offset="0.57539999" />
							<stop
   id="stop150"
   style="stop-color:#005e07;stop-opacity:1"
   offset="1" />
							<midPointStop
   id="midPointStop152"
   style="stop-color:#33CC33"
   offset="0" />
							<midPointStop
   id="midPointStop154"
   style="stop-color:#33CC33"
   offset="0.5" />
							<midPointStop
   id="midPointStop156"
   style="stop-color:#009900"
   offset="0.5754" />
							<midPointStop
   id="midPointStop158"
   style="stop-color:#009900"
   offset="0.5" />
							<midPointStop
   id="midPointStop160"
   style="stop-color:#005E07"
   offset="1" />
						</radialGradient>
						<path
   d="m 20.96,15.339 c 0.68,-0.227 -0.419,1.125 -1.265,2.108 -0.843,0.985 -1.405,0.985 -2.249,1.968 -0.844,0.985 -2.25,2.109 -2.812,2.672 -0.563,0.562 -1.689,1.404 -1.689,1.404 0,0 6.751,-7.729 8.015,-8.152 z"
   id="path162"
   style="fill:url(#XMLID_7_)" />
					</g>
					<g
   id="g164">
						<path
   d="m 48.237,5.215 c -0.14,0.844 -0.844,1.266 0.28,1.266 1.124,0 5.625,0.14 6.75,1.266 1.124,1.124 5.06,0.563 6.045,-0.282 C 62.295,6.622 60.891,6.341 59.484,6.482 58.079,6.622 56.812,6.622 55.968,6.201 55.125,5.781 54.141,5.499 54.141,4.935 52.314,4.795 49.08,4.795 48.237,5.215 z"
   id="path166"
   style="fill:#159034" />
					</g>
					<g
   id="g168">
						
							<radialGradient
   cx="-204.6367"
   cy="478.72021"
   r="76.111603"
   fx="-204.6367"
   fy="478.72021"
   id="XMLID_8_"
   gradientUnits="userSpaceOnUse"
   gradientTransform="matrix(1,0,0,-1,233.7803,512.4775)">
							<stop
   id="stop171"
   style="stop-color:#33cc33;stop-opacity:1"
   offset="0" />
							<stop
   id="stop173"
   style="stop-color:#009900;stop-opacity:1"
   offset="0.57539999" />
							<stop
   id="stop175"
   style="stop-color:#005e07;stop-opacity:1"
   offset="1" />
							<midPointStop
   id="midPointStop177"
   style="stop-color:#33CC33"
   offset="0" />
							<midPointStop
   id="midPointStop179"
   style="stop-color:#33CC33"
   offset="0.5" />
							<midPointStop
   id="midPointStop181"
   style="stop-color:#009900"
   offset="0.5754" />
							<midPointStop
   id="midPointStop183"
   style="stop-color:#009900"
   offset="0.5" />
							<midPointStop
   id="midPointStop185"
   style="stop-color:#005E07"
   offset="1" />
						</radialGradient>
						<path
   d="m 62.578,6.06 c 0,0 2.249,1.686 1.689,1.827 -0.563,0.14 -1.971,0.14 -1.971,0.14 0,0 1.407,0.141 2.109,0.703 0.704,0.563 0.421,1.547 1.968,1.968 1.549,0.421 1.97,2.39 2.673,2.953 0.703,0.561 0.142,-0.703 1.265,-0.42 1.125,0.279 4.078,2.108 3.233,2.387 -0.843,0.281 -1.124,1.407 0.422,2.251 1.547,0.842 3.233,1.546 3.654,2.53 0.705,-1.125 0.986,-2.953 -0.281,-3.655 -1.263,-0.703 -2.95,-1.407 -3.23,-2.533 C 73.828,13.087 73.686,12.104 73.828,11.259 71.015,8.871 63.563,6.199 62.578,6.06 z"
   id="path187"
   style="fill:url(#XMLID_8_)" />
					</g>
					<g
   id="g189">
						
							<radialGradient
   cx="-205.9263"
   cy="478.72021"
   r="78.870399"
   fx="-205.9263"
   fy="478.72021"
   id="XMLID_9_"
   gradientUnits="userSpaceOnUse"
   gradientTransform="matrix(1,0,0,-1,233.7803,512.4775)">
							<stop
   id="stop192"
   style="stop-color:#33cc33;stop-opacity:1"
   offset="0" />
							<stop
   id="stop194"
   style="stop-color:#009900;stop-opacity:1"
   offset="0.57539999" />
							<stop
   id="stop196"
   style="stop-color:#005e07;stop-opacity:1"
   offset="1" />
							<midPointStop
   id="midPointStop198"
   style="stop-color:#33CC33"
   offset="0" />
							<midPointStop
   id="midPointStop200"
   style="stop-color:#33CC33"
   offset="0.5" />
							<midPointStop
   id="midPointStop202"
   style="stop-color:#009900"
   offset="0.5754" />
							<midPointStop
   id="midPointStop204"
   style="stop-color:#009900"
   offset="0.5" />
							<midPointStop
   id="midPointStop206"
   style="stop-color:#005E07"
   offset="1" />
						</radialGradient>
						<path
   d="m 79.168,14.635 c 0.281,1.126 1.125,5.061 0.281,5.625 -0.843,0.562 0,0.843 0.563,1.405 0.563,0.562 0.703,0.281 1.545,1.547 0.845,1.266 1.548,2.25 1.548,3.937 0,1.687 1.125,3.234 1.689,4.217 0.563,0.984 4.077,3.655 4.077,5.063 0,1.404 -0.141,2.81 1.405,3.092 1.546,0.281 2.247,0.421 2.671,1.124 0.422,0.704 1.688,0.704 2.389,0.844 C 94.495,35.445 90.839,23.914 79.168,14.635 z"
   id="path208"
   style="fill:url(#XMLID_9_)" />
					</g>
					<g
   id="g210">
						<path
   d="m 50.909,12.386 v 0.562 l 1.828,0.284 v -1.407 l -2.391,-0.421 0.563,0.982 z"
   id="path212"
   style="fill:#159034" />
					</g>
					<g
   id="g214">
						<path
   d="m 60.329,10.558 c -0.704,0 -0.141,0.703 0.703,0.845 0.843,0.139 1.546,0 2.672,0.139 1.124,0.141 1.968,0.282 2.248,0.845 0.28,0.562 0.984,0.563 0.984,0 0,-0.563 0.141,-1.266 -1.124,-1.407 -1.265,-0.14 -2.672,-0.281 -3.375,-0.421 -0.702,-0.141 -2.108,-10e-4 -2.108,-10e-4 z"
   id="path216"
   style="fill:#159034" />
					</g>
					<g
   id="g218">
						<path
   d="m 63,12.809 h 1.688 v 1.404 L 63,12.809 z"
   id="path220"
   style="fill:#159034" />
					</g>
					<g
   id="g222">
						<path
   d="m 26.023,22.227 c 0,0 -0.421,1.126 -0.984,1.126 -0.562,0 -1.545,-1.264 -0.562,-1.687 0.984,-0.423 1.546,0.561 1.546,0.561 z"
   id="path224"
   style="fill:#159034" />
					</g>
					<g
   id="g226">
						<path
   d="m 23.913,20.682 c -0.701,0.562 -1.124,1.124 -1.546,0.983 -0.421,-0.141 0.564,-1.265 1.126,-1.547 0.561,-0.28 0.42,0.564 0.42,0.564 z"
   id="path228"
   style="fill:#159034" />
					</g>
					<g
   id="g230">
						<path
   d="m 24.897,18.994 0.844,-0.281 1.125,1.265 h 0.984 l -0.28,1.547 h -0.564 l -2.109,-2.531 z"
   id="path232"
   style="fill:#159034" />
					</g>
					<g
   id="g234">
						<path
   d="m 29.538,16.182 c 0.704,-0.141 1.547,-0.141 1.97,-1.969 0.418,-1.827 1.122,-1.125 0.842,0.142 -0.282,1.265 -1.405,1.407 -0.842,2.11 0.56,0.703 0.278,0.42 -0.564,0.281 -0.843,-0.142 -1.406,0.138 -1.406,-0.564 z"
   id="path236"
   style="fill:#159034" />
					</g>
				</g>
			</g>
		</g>
	</g>
<polyline
   style="fill:none"
   points="0,256 0,0 256,0 256,256 "
   id="_x3C_Slice_x3E_"
   transform="matrix(0.22000741,-0.08079843,0.08079843,0.22000741,12.420336,40.165483)" /><path
   d="M 69.685186,27.242426 C 48.37877,24.355518 38.317785,52.089499 16.773624,48.555223 c -0.747352,-0.121925 -1.184952,0.237363 -0.957347,0.857112 4.630831,12.609369 9.261724,25.218904 13.892555,37.828273 0.22711,0.618401 1.033393,1.263006 1.780621,1.384593 21.769602,3.571511 31.814383,-24.783216 53.583924,-21.211874 0.747287,0.121755 1.184951,-0.237365 0.957346,-0.857115 C 81.399891,53.946844 76.768999,41.337308 72.138168,28.72794 c -0.22711,-0.618402 -1.033333,-1.262837 -1.780683,-1.384763 -0.225315,-0.0369 -0.449395,-0.07042 -0.672299,-0.100751 z"
   id="path2408"
   style="fill:#333333;fill-opacity:1" /><path
   d="m 70.096854,28.363363 c 0.149798,0.40789 -4.100822,-1.04203 -9.101469,0.582517 -5.121724,1.293835 -10.992922,5.661552 -16.89368,10.055988 -5.902489,4.38972 -11.831576,8.812144 -17.088882,10.160932 -5.137875,1.673989 -9.60374,0.27445 -9.827531,0.51336 0.393979,1.072772 13.498453,36.755165 13.892555,37.828273 0.206827,-0.276257 4.647348,1.159923 9.757333,-0.488532 5.2298,-1.321679 11.12942,-5.727547 17.031279,-10.126782 5.902775,-4.397278 11.805729,-8.794054 17.036974,-10.111289 5.111467,-1.644413 9.551553,-0.209415 9.758276,-0.485441 -0.394104,-1.07311 -13.498577,-36.755502 -13.892556,-37.828274 -0.33862,-0.05606 -0.672299,-0.100752 -0.672299,-0.100752 z"
   id="path2410"
   style="fill:#006233;fill-opacity:1" /><path
   d="m 70.096854,28.363363 c 0.149798,0.40789 -4.100823,-1.042031 -9.101469,0.582516 -5.121724,1.293835 -10.992922,5.661553 -16.89368,10.055988 -5.902489,4.389721 -11.831577,8.812144 -17.088882,10.160932 -5.137875,1.673991 -9.603739,0.274451 -9.827531,0.513362 0.393978,1.072772 13.498452,36.755164 13.892554,37.828272 0.206828,-0.276257 4.64735,1.159922 9.757333,-0.488532 5.229802,-1.32168 11.12942,-5.727547 17.03128,-10.126782 5.902775,-4.397278 11.805729,-8.794054 17.036974,-10.111289 5.111467,-1.644413 9.551553,-0.209415 9.758276,-0.485441 -0.394104,-1.07311 -13.498577,-36.755503 -13.892556,-37.828274 -0.33862,-0.05606 -0.672299,-0.100752 -0.672299,-0.100752 z"
   id="path30"
   style="fill:#ffffff;fill-opacity:1" /><path
   d="m 18.468476,50.193925 c 1.155649,3.215089 2.311299,6.430176 3.466947,9.645265 C 42.95104,62.834122 52.903213,35.04931 73.918971,38.045167 72.763323,34.830082 71.607674,31.614994 70.452025,28.399905 49.43593,25.404173 39.484155,53.189029 18.468476,50.193925 z"
   id="path4275"
   style="fill:#000000;fill-opacity:1" /><path
   d="m 23.579243,60.928206 c 1.111541,2.414991 2.223082,4.829982 3.334621,7.244971 C 47.127369,70.4228 56.699693,49.552433 76.913336,51.802751 75.801795,49.387761 74.690255,46.972771 73.578713,44.55778 53.364749,42.307556 43.792807,63.177956 23.579243,60.928206 z"
   id="path5047"
   style="fill:#c80000;fill-opacity:1" /><path
   d="m 21.092623,58.270594 c 1.174946,3.015063 2.349891,6.030126 3.524836,9.045188 C 45.984,70.124386 56.102357,44.068187 77.469042,46.87766 76.294097,43.862599 75.119151,40.847536 73.944204,37.83247 52.577177,35.023115 42.459225,61.079355 21.092623,58.270594 z"
   id="path5069"
   style="fill:#c80000;fill-opacity:1" /><path
   d="m 24.63995,68.242633 c 1.161162,3.161749 2.322324,6.323495 3.483486,9.485243 C 49.239316,80.673119 59.238972,53.349273 80.354994,56.295427 79.193833,53.133683 78.032671,49.971934 76.871509,46.810186 55.755143,43.864145 45.755892,71.188045 24.63995,68.242633 z"
   id="path75"
   style="fill:#ffffff;fill-opacity:1" /><path
   d="m 26.915235,74.438044 c 1.161162,3.161748 2.322324,6.323495 3.483486,9.485243 21.11588,2.945242 31.115535,-24.378603 52.231558,-21.432449 -1.161161,-3.161744 -2.322323,-6.323493 -3.483486,-9.485241 -21.116365,-2.94604 -31.115616,24.377859 -52.231558,21.432447 z"
   id="path5083"
   style="fill:#ffffff;fill-opacity:1" /><path
   d="m 29.32275,80.76561 c 1.161162,3.161748 1.193179,3.248926 2.354341,6.410675 21.115881,2.945246 31.115534,-24.378606 52.231558,-21.43245 -1.161162,-3.161746 -1.229387,-3.347518 -2.39055,-6.509266 C 60.401735,56.28853 50.438693,83.711024 29.32275,80.76561 z"
   id="path5085"
   style="fill:#f8f900;fill-opacity:1" /><path
   d="m 80.684306,67.993905 15.2,32.659995 c 0.96,1.05 2.92,0.45 3.67,0.02 1.290004,-0.729995 1.780004,-1.939995 1.730004,-2.369995 l -0.03,-0.31 -15.560004,-31.7 -6.11,0.18 1.08,1.51 z"
   id="path4558"
   style="fill:url(#linearGradient4750)" /><path
   d="m 96.054306,100.3239 c -0.42,-0.869995 0.3,-2.079995 1.66,-2.749995 1.36,-0.66 2.760004,-0.5 3.190004,0.36 0.42,0.87 -0.3,2.079995 -1.660004,2.749995 -1.36,0.66 -2.76,0.5 -3.19,-0.36 z"
   id="path4628"
   style="fill:#000000" /><path
   d="m 27.735448,75.87143 c 1.161162,3.161748 1.193179,3.248926 2.354341,6.410675 C 51.20567,85.227351 61.205323,57.903499 82.321347,60.849655 81.160185,57.687909 81.09196,57.502137 79.930797,54.340389 58.814433,51.39435 48.851391,78.816844 27.735448,75.87143 z"
   id="path4783"
   style="fill:#f8f900;fill-opacity:1" /><path
   d="m 24.002676,66.736203 c 1.174946,3.015063 2.349891,6.030126 3.524836,9.045188 C 48.894053,78.589995 59.01241,52.533796 80.379095,55.343269 79.20415,52.328208 78.029204,49.313145 76.854257,46.298079 55.48723,43.488724 45.369278,69.544964 24.002676,66.736203 z"
   id="path4785"
   style="fill:#c80000;fill-opacity:1" /><path
   d="m 19.129852,53.103978 c 1.155649,3.215089 2.311299,6.430176 3.466947,9.645265 21.015617,2.994932 30.96779,-24.78988 51.983548,-21.794023 -1.155648,-3.215085 -2.311297,-6.430173 -3.466946,-9.645262 -21.016095,-2.995732 -30.96787,24.789124 -51.983549,21.79402 z"
   id="path4787"
   style="fill:#000000;fill-opacity:1" /><path
   d="M 83.016837,65.611555 C 61.933386,62.755144 51.861187,89.881453 30.777905,87.02498 26.284318,74.789316 21.790667,62.553479 17.297018,50.317645 38.380238,53.173949 48.452499,26.04781 69.536011,28.904387 74.029599,41.140053 78.52325,53.375891 83.016837,65.611555 z"
   id="path3186"
   style="fill:url(#linearGradient4769)" /></svg>