<?xml version="1.0" encoding="UTF-8" standalone="no"?>
<!-- Created with Inkscape (http://www.inkscape.org/) -->

<svg
   xmlns:svg="http://www.w3.org/2000/svg"
   xmlns="http://www.w3.org/2000/svg"
   version="1.1"
   width="48pt"
   height="48pt"
   viewBox="0.197 -0.344 104 121"
   id="svg153"
   xml:space="preserve"
   style="overflow:visible">
  <defs
   id="defs197" />
  
  <g
   id="Layer_1_2_">
    <path
   d="m 10.357,15.058 c -5,-2.395 -9.064,0.414 -9.064,6.262 v 55.148 c 0,5.85 1.623,11.221 6.625,13.617 l 56.844,27.406 c 5,2.395 9.066,-0.41 9.066,-6.26 V 56.083 c 0,-5.848 -1.076,-11.404 -8.197,-14.621 L 10.357,15.058 z"
   id="path155" />
    <path
   d="m 3.482,1.089 c -2.26,1.424 -3.406,4.178 -3.406,8.184 0,0 0,10.758 0,10.76 C 0.074,20.062 0,21.32 0,21.32 v 55.148 c 0,7.363 2.543,12.477 7.357,14.783 l 56.84,27.404 c 2.746,1.316 5.406,1.318 7.488,0.006 2.184,-1.375 3.436,-4.082 3.436,-7.426 0,-0.004 0,-55.152 0,-55.152 0,-5.812 -1.064,-12.234 -8.961,-15.801 0.004,0 0.004,0 0.004,0 0,0 -22.816,-10.896 -27.049,-12.92 0,-1.033 0,-3.18 0,-3.18 0,-6.592 -2.793,-11.58 -8.078,-14.426 L 30.902,9.688 12.355,1.076 c -3,-1.438 -6.572,-1.436 -8.873,0.013 z"
   id="path156" />
    <path
   d="m 47.542,110.566 16.655,8.09 c 2.914,1.408 6.889,2.129 11.191,2.03 4.51,-0.103 8.834,-1.13 11.861,-2.817 0.002,-0.002 16.93,-9.437 16.93,-9.437 L 74.906,96.029 47.542,110.566 z"
   id="path157"
   style="opacity:0.2" />
    <linearGradient
   x1="72.471703"
   y1="168.7485"
   x2="31.269699"
   y2="133.1333"
   id="XMLID_1_"
   gradientUnits="userSpaceOnUse"
   gradientTransform="matrix(1,0.3987,0,1,0,-87.0809)">
      <stop
   id="stop159"
   style="stop-color:#dedede;stop-opacity:1"
   offset="0" />
      <stop
   id="stop160"
   style="stop-color:#c9c9c9;stop-opacity:1"
   offset="1" />
      
      
      
    </linearGradient>
    <path
   d="m 3.104,22.189 0.112,-9.045 c 0,0 5.139,3.076 7.142,4.035 l 55.273,26.404 c 4.75,2.559 6.385,6.945 6.385,11.631 v 55.148 c 0,4.684 -3.248,6.926 -7.254,5.008 L 7.918,87.964 C 3.91,86.044 3.104,82.023 3.104,77.337 V 22.189 z"
   id="path164"
   style="fill:url(#XMLID_1_)" />
    <path
   d="m 5.527,17.98 c 0,0 58.869,27.881 58.879,27.883 2.109,1.135 5.268,3.586 7.344,6.355 -0.611,-3.508 -2.402,-6.635 -6.119,-8.635 L 10.357,17.179 C 8.062,16.081 6.019,16.351 4.689,17.661 5.01,17.75 5.305,17.873 5.527,17.98 z"
   id="path165"
   style="fill:#e6e6e6" />
    <g
   id="g166">
      <path
   d="m 3.104,8.707 c 0,-4.686 3.248,-6.932 7.254,-5.01 l 19.348,8.984 c 4.746,2.557 6.383,6.943 6.383,11.629 v 8.33 L 3.104,17.035 V 8.707 z"
   id="path167"
   style="fill:#ffcb33" />
    </g>
    <g
   id="g168">
      <path
   d="M 5.691,8.681 C 5.691,7.292 6.084,6.214 6.746,5.798 7.521,5.312 8.641,5.72 9.27,6.021 c 0,0 24.709,11.676 24.939,11.783 0.252,0.137 0.475,0.293 0.705,0.443 -0.975,-2.24 -2.615,-4.193 -5.209,-5.59 L 10.357,3.675 C 6.351,1.753 3.103,3.995 3.103,8.683 v 8.365 l 2.588,1.223 v -9.59 z"
   id="path169"
   style="fill:#fffd01" />
    </g>
    <linearGradient
   x1="62.805698"
   y1="162.05321"
   x2="6.9116001"
   y2="114.3596"
   id="XMLID_2_"
   gradientUnits="userSpaceOnUse"
   gradientTransform="matrix(1,0.3987,0,1,0,-87.0809)">
      <stop
   id="stop171"
   style="stop-color:#999999;stop-opacity:1"
   offset="0" />
      <stop
   id="stop172"
   style="stop-color:#000000;stop-opacity:1"
   offset="1" />
      
      
      
    </linearGradient>
    <path
   d="m 9.797,27.804 53.135,25.178 v 53.031 L 9.797,80.837 V 27.804 z"
   id="path176"
   style="fill:url(#XMLID_2_)" />
    <linearGradient
   x1="12.0435"
   y1="120.103"
   x2="60.9398"
   y2="155.1333"
   id="XMLID_3_"
   gradientUnits="userSpaceOnUse"
   gradientTransform="matrix(1,0.3987,0,1,0,-87.0809)">
      <stop
   id="stop178"
   style="stop-color:#a1a1a1;stop-opacity:1"
   offset="0" />
      <stop
   id="stop179"
   style="stop-color:#000000;stop-opacity:1"
   offset="1" />
      
      
      
    </linearGradient>
    <path
   d="m 12.451,29.408 c 0,5.213 0,44.457 0,49.67 4.568,2.189 45.646,21.875 50.217,24.066 0,-5.213 0,-44.455 0,-49.668 C 58.098,51.287 17.02,31.597 12.451,29.408 z"
   id="path183"
   style="fill:url(#XMLID_3_)" />
    <path
   d="m 12.451,29.408 c 0,5.213 0,44.457 0,49.67 4.568,2.189 45.646,21.875 50.217,24.066 0,-5.213 0,-44.455 0,-49.668 C 58.098,51.287 17.02,31.597 12.451,29.408 z"
   id="path184"
   style="fill:url(#XMLID_3_)" />
    <path
   d="m 33.896,96.126 c 0,-0.428 0.234,-0.676 0.561,-0.654 -0.072,-0.316 -0.092,-0.846 -1.379,-1.268 -1.223,-0.76 -1.672,-0.193 -1.672,0.727 0,0.758 0.559,2.193 1.266,2.93 0.158,0.158 0.336,0.023 0.498,0.104 0.15,0.07 0.414,0.377 0.549,0.371 0.438,-0.025 0.646,-0.443 0.84,-0.932 -0.377,-0.276 -0.663,-0.807 -0.663,-1.278 z"
   id="path185"
   style="fill:#808080" />
    <linearGradient
   x1="25.383301"
   y1="86.643097"
   x2="55.762501"
   y2="80.420898"
   id="XMLID_5_"
   gradientUnits="userSpaceOnUse">
      <stop
   id="stop187"
   style="stop-color:#ffffff;stop-opacity:1"
   offset="0" />
      <stop
   id="stop188"
   style="stop-color:#000000;stop-opacity:1"
   offset="1" />
      
      
      
    </linearGradient>
    <path
   d="m 12.451,66.818 c 0,5.951 0,10.678 0,12.26 4.568,2.189 45.646,21.875 50.217,24.066 0,-4.188 0,-30.336 0,-43.158 -17.637,-2.511 -38.56,1.525 -50.217,6.832 z"
   id="path192"
   style="opacity:0.5;fill:url(#XMLID_5_)" />
    <g
   id="g193">
      <path
   d="M 25.259,46.343 14.8,46.892 V 45.107 L 21.932,44.731 14.8,37.447 V 35.66 l 10.459,10.683 z"
   id="path194"
   style="fill:#ffffff" />
      <path
   d="m 24.35,53.119 v -1.6 l 10.459,5.066 v 1.6 L 24.35,53.119 z"
   id="path195"
   style="fill:#ffffff" />
    </g>
  </g>
<g
   transform="matrix(0.28738975,0,0,0.28738975,40.633898,24.507669)"
   id="g2845"><path
     d="m 237.84,54.89 c 0,0 -6.54,-4.45 -7.92,-5.39 0,-0.18 0,-0.21 0.01,-0.36 0.67,-0.43 1.58,-0.96 2.44,-1.46 2.59,-1.52 3.8,-2.26 4.4,-2.93 0.3,-0.33 0.45,-0.75 0.45,-1.18 0,-0.18 -0.02,-0.36 -0.08,-0.54 -0.97,-2.93 -2.36,-5.86 -4.12,-8.72 -0.28,-0.46 -0.78,-0.79 -1.35,-0.9 0,0 -6.96,-1.35 -7.55,-1.47 -1.04,-1.48 -2.22,-2.92 -3.5,-4.31 1,-1.17 2.39,-2.8 2.39,-2.8 0.29,-0.34 0.43,-0.74 0.43,-1.14 0,-0.49 -0.21,-0.97 -0.62,-1.34 -2.41,-2.14 -5.01,-4.11 -7.73,-5.87 -0.59,-0.38 -1.37,-0.45 -2.04,-0.16 0,0 -3.13,1.33 -4.44,1.89 -1.63,-0.92 -3.33,-1.75 -5.07,-2.49 0.02,-1.39 0.08,-3.91 0.08,-3.92 0,-0.75 -0.5,-1.44 -1.26,-1.73 -3.3,-1.24 -6.72,-2.21 -10.15,-2.89 -1.01,-0.19 -2.02,0.32 -2.36,1.22 0,0 -0.77,2.04 -1.3,3.47 -1.63,-0.14 -3.25,-0.2 -4.83,-0.16 -0.96,-1.1 -4.18,-4.83 -4.18,-4.83 -0.41,-0.48 -1.07,-0.74 -1.75,-0.7 -2.84,0.18 -5.59,0.64 -8.21,1.3 -0.31,-0.08 -0.63,-0.16 -0.97,-0.1 -0.86,0.15 -1.52,0.8 -1.63,1.6 -0.08,0.63 -0.11,2.42 -0.11,4.48 0,0.94 0,1.92 0.01,2.89 -1.94,-0.86 -7.56,-3.36 -7.56,-3.36 -0.72,-0.32 -1.59,-0.22 -2.2,0.23 -2.22,1.67 -4.13,3.61 -5.68,5.76 -0.18,0.25 -0.29,0.53 -0.32,0.83 -0.06,0.54 -0.38,6.59 -0.49,8.44 0,0.02 0,0.06 0,0.09 0,0.62 0.33,1.2 0.9,1.55 0,0 0.93,0.57 1.42,0.87 -2.14,0.11 -4.39,0.23 -4.39,0.23 -0.96,0.05 -1.76,0.71 -1.9,1.59 l -1.63,10.23 c -0.01,0.09 -0.02,0.18 -0.02,0.27 0,0.07 0,0.15 0.01,0.23 l 1.19,8.6 c 0.12,0.87 0.9,1.55 1.86,1.62 0,0 7.64,0.61 7.86,0.63 0.62,1.24 1.34,2.47 2,3.52 -0.03,0.04 -0.08,0.05 -0.11,0.1 l -0.64,0.95 c -0.57,1.4 -1.81,4.13 -3.66,8.09 -0.11,0.23 -0.16,0.48 -0.16,0.73 0,0.4 0.14,0.8 0.41,1.13 1.91,2.29 8.18,8.08 10.92,8.68 0.56,0.12 1.16,0.01 1.64,-0.28 0,0 5.95,-3.76 7.64,-4.83 1.46,0.83 3.64,2.02 5.22,2.73 0.16,1.37 1.18,9.66 1.18,9.66 0.08,0.7 0.59,1.29 1.32,1.54 5.49,1.86 9.06,2.67 11.93,2.71 0.71,0.01 1.39,-0.32 1.77,-0.88 l 4.64,-6.78 c 0.33,-0.48 0.52,-0.76 0.65,-0.98 1.11,-0.05 2.61,-0.16 3.94,-0.38 0.84,0.98 5.02,5.89 5.02,5.89 0.49,0.58 1.31,0.84 2.09,0.66 3.54,-0.77 7.22,-3.19 7.38,-3.29 0.11,-0.07 0.21,-0.15 0.3,-0.24 0.29,-0.29 7.22,-7.13 8.26,-8.26 0.32,-0.34 0.49,-0.77 0.49,-1.21 0,-0.31 -0.08,-0.62 -0.26,-0.91 0,0 -0.35,-0.56 -0.48,-0.77 0.05,-0.03 0.1,-0.04 0.15,-0.08 l 8.18,-6.39 c 0.23,-0.18 0.41,-0.4 0.54,-0.65 1.21,-2.49 2.01,-5.18 2.36,-8.01 0,-0.07 0.01,-0.14 0.01,-0.21 0,-0.58 -0.3,-1.14 -0.82,-1.49 v 0 z m -34.54,1.49 c -6.63,1.28 -14.43,1.01 -21.26,-3.04 -16.7,-9.9 -15.4,-14.53 -15.37,-18.02 1.53,-10.29 18.7,-11 28.95,-5.14 10.25,5.85 16.14,15.45 13.32,22.7 -1.28,2.57 -5.63,3.51 -5.63,3.51 z"
     id="path2847"
     style="fill:#000000;fill-opacity:0.12939998" /><path
     d="m 177.63,4.58 c -2.68,0.17 -5.43,0.61 -8.17,1.28 -0.33,-0.07 -0.69,-0.15 -1.18,-0.06 -1.51,0.27 -2.66,1.43 -2.85,2.88 -0.06,0.42 -0.12,1.34 -0.12,4.68 0,0 0,0.39 0,0.58 -2.19,-0.97 -5.44,-2.42 -5.44,-2.42 -1.21,-0.54 -2.67,-0.38 -3.72,0.4 -2.33,1.76 -4.35,3.8 -5.99,6.07 -0.32,0.45 -0.53,0.98 -0.6,1.53 -0.05,0.45 -0.22,3.51 -0.46,7.95 l -0.03,0.62 0,0.13 c 0,0.39 0.16,0.75 0.29,1.11 -0.31,0.01 -0.94,0.04 -0.94,0.04 -1.66,0.08 -3.05,1.29 -3.3,2.85 0,0 -1.63,10.23 -1.63,10.23 0,0 -0.04,0.5 -0.04,0.5 l 0.02,0.42 c 0,0.02 1.2,8.62 1.2,8.62 0.21,1.56 1.57,2.78 3.23,2.91 0,0 5.12,0.41 7.07,0.57 0.37,0.65 0.7,1.24 1.13,1.98 -0.11,0.17 -0.3,0.45 -0.3,0.45 l -0.05,0.14 c -0.56,1.37 -1.78,4.07 -3.63,8.02 0,0 -0.3,1.37 -0.3,1.37 0,0.75 0.27,1.5 0.76,2.09 1.63,1.95 8.28,8.43 11.75,9.18 0.94,0.2 1.94,0.03 2.75,-0.47 0,0 5,-3.16 6.89,-4.36 1.09,0.6 2.5,1.36 3.79,1.98 0.16,1.36 1.08,8.85 1.08,8.85 0.15,1.28 1.05,2.34 2.32,2.78 5.65,1.91 8.26,-0.31 11.3,-0.26 1.22,0.01 3.21,0.27 3.88,-0.7 0,0 4.88,-4.54 4.88,-4.54 0,0 0.12,-0.18 0.25,-0.38 0.75,-0.04 1.59,-0.12 2.48,-0.24 0.83,0.98 4.5,5.28 4.5,5.28 0.84,0.99 2.24,1.45 3.56,1.16 3.57,-0.78 7.17,-3.04 7.86,-3.48 0.03,-0.02 0.54,-0.43 0.54,-0.43 0.07,-0.07 7.23,-7.14 8.32,-8.32 0.57,-0.61 0.89,-1.41 0.89,-2.22 0,-0.44 -0.12,-0.86 -0.29,-1.27 2.09,-1.63 7.31,-5.7 7.31,-5.7 l 0.96,-1.18 c 1.28,-2.64 2.13,-5.49 2.5,-8.48 0,-0.02 0.02,-0.4 0.02,-0.4 0,-1.08 -0.55,-2.11 -1.48,-2.74 l 0,0 c 0,0 -4.19,-2.85 -6.27,-4.27 0.29,-0.18 0.71,-0.42 0.71,-0.42 2.8,-1.64 4.01,-2.39 4.76,-3.23 0.54,-0.6 0.84,-1.38 0.84,-2.18 l -0.16,-1 c -1.01,-3.05 -2.45,-6.09 -4.27,-9.04 -0.5,-0.82 -1.36,-1.4 -2.34,-1.59 0,0 -6.03,-1.17 -6.99,-1.36 -0.71,-0.97 -1.51,-1.96 -2.37,-2.95 0.7,-0.82 1.55,-1.82 1.55,-1.82 0.51,-0.59 0.79,-1.35 0.79,-2.12 0,-0.93 -0.41,-1.83 -1.12,-2.46 -2.46,-2.19 -5.13,-4.21 -7.91,-6 -1.01,-0.65 -2.33,-0.76 -3.44,-0.28 0,0 -2.88,1.23 -3.81,1.62 -1.16,-0.62 -2.36,-1.21 -3.59,-1.76 0.01,-0.82 0.06,-3 0.06,-3 0,-1.39 -0.87,-2.62 -2.23,-3.13 -3.39,-1.27 -6.88,-2.26 -10.39,-2.95 -1.72,-0.33 -3.47,0.59 -4.06,2.16 0,0 -0.53,1.42 -0.92,2.45 -1.06,-0.06 -2.13,-0.13 -3.13,-0.12 -0.72,-0.83 -3.73,-4.3 -3.73,-4.3 C 179.9,5 178.79,4.54 177.65,4.62 z m -7.76,4.26 c 2.66,-0.67 5.33,-1.09 7.94,-1.26 0.2,-0.01 0.4,0.05 0.51,0.19 l 4.65,5.36 0.7,-0.01 c 1.46,-0.03 3.03,0.02 4.66,0.16 l 1.13,0.09 1.71,-4.53 c 0.06,-0.18 0.35,-0.34 0.67,-0.27 3.34,0.65 6.68,1.6 9.91,2.82 0.17,0.06 0.29,0.19 0.29,0.32 0,0 -0.1,4.9 -0.1,4.9 l 0.93,0.39 c 1.7,0.72 3.36,1.54 4.93,2.42 l 0.64,0.36 5.12,-2.18 c 0.2,-0.08 0.45,-0.06 0.64,0.04 2.65,1.71 5.19,3.64 7.54,5.73 0.07,0.06 0.11,0.14 0.11,0.22 0,0.06 -0.02,0.11 -0.07,0.17 0,0 -3.25,3.81 -3.25,3.81 l 0.9,0.97 c 1.28,1.39 2.42,2.79 3.38,4.15 l 0.34,0.49 8.15,1.59 c 0.16,0.03 0.29,0.11 0.36,0.22 1.7,2.75 3.04,5.58 3.97,8.4 0.01,0.13 -0.01,0.19 -0.06,0.25 -0.47,0.52 -1.84,1.35 -4.04,2.64 l -3.17,1.91 0,0.78 -0.05,1.2 0.69,0.46 7.92,5.4 c 0.1,0.07 0.16,0.16 0.16,0.26 -0.33,2.68 -1.08,5.22 -2.23,7.56 0,0 -0.11,0.13 -0.11,0.13 0,0 -7.64,5.96 -8.1,6.32 -0.06,0.03 -1.54,0.81 -1.54,0.81 l 0.94,1.29 0.49,0.79 c 0.02,0.04 0.03,0.07 0.03,0.11 0,0.05 -0.03,0.12 -0.09,0.19 -0.99,1.07 -7.8,7.81 -8.21,8.2 0,-0.01 -0.09,0.07 -0.09,0.07 -0.35,0.23 -3.73,2.38 -6.86,3.06 -0.23,0.05 -0.49,-0.01 -0.62,-0.17 0,0 -5.57,-6.54 -5.57,-6.54 l -0.83,0.13 c -1.39,0.22 -2.96,0.32 -3.78,0.36 l -0.75,0.03 -1.06,1.59 c 0,0 -4.64,6.78 -4.64,6.78 -0.09,0.13 -0.3,0.23 -0.51,0.22 -2.7,-0.04 -6.14,-0.82 -11.47,-2.63 -0.17,-0.05 -0.3,-0.18 -0.31,-0.31 l -1.29,-10.5 -0.77,-0.34 c -1.61,-0.72 -3.88,-1.98 -5.09,-2.66 l -0.78,-0.44 -8.4,5.31 c -0.14,0.08 -0.34,0.12 -0.52,0.08 -2.12,-0.46 -8.07,-5.77 -10.09,-8.18 -0.04,-0.05 -0.06,-0.11 -0.06,-0.17 1.83,-3.97 3.05,-6.65 3.65,-8.1 0.1,-0.16 0.4,-0.59 0.49,-0.73 0.03,-0.03 0.98,-0.89 0.98,-0.89 l -0.77,-0.95 -2.32,-4.07 -0.81,-0.13 -7.87,-0.63 c -0.28,-0.02 -0.48,-0.19 -0.5,-0.34 l -1.19,-8.6 c 0,-0.06 1.63,-10.29 1.63,-10.29 0.02,-0.15 0.22,-0.32 0.5,-0.33 l 9.19,-0.49 -5.51,-3.39 c -0.11,-0.07 -0.19,-0.17 -0.19,-0.27 l 0.03,-0.59 c 0.09,-1.8 0.39,-7.28 0.45,-7.76 0,-0.03 0.02,-0.08 0.05,-0.12 1.46,-2.02 3.27,-3.85 5.37,-5.44 0.18,-0.13 0.46,-0.16 0.69,-0.06 0,0 9.68,4.3 9.68,4.3 l -0.02,-5.2 c 0,-3.09 0.06,-4.01 0.1,-4.27 0.01,-0.13 0.16,-0.29 0.41,-0.33 0,0 0.3,0.07 0.3,0.07 l 0.34,0.07 0.42,-0.06 z"
     id="path2849"
     style="fill:#000000;fill-opacity:0.12939998" /><path
     d="m 171.52,26.93 c -3.62,1.75 -5.81,4.58 -6.35,8.16 l -0.01,0.09 -0.01,0.76 c -0.14,4.71 0.97,9.69 16.12,18.67 7.93,4.7 16.51,4.35 22.32,3.22 l 0.02,0 c 0.51,-0.11 5.1,-1.17 6.66,-4.31 l 0.02,-0.06 0.02,-0.06 c 3.05,-7.85 -2.82,-18.18 -13.97,-24.55 -7.54,-4.3 -18.21,-5.13 -24.82,-1.92 z m 1.32,2.7 c 5.7,-2.76 15.37,-1.96 22.02,1.83 8.12,4.63 13.26,11.68 13.26,17.59 0,1.1 -0.18,2.17 -0.56,3.18 -0.8,1.53 -3.61,2.46 -4.56,2.67 -5.29,1.02 -13.08,1.35 -20.19,-2.86 -13.66,-8.1 -14.67,-12.26 -14.67,-15.23 0,-0.26 0,-0.52 0.01,-0.76 0,0 0,-0.35 0.01,-0.55 0.39,-2.56 1.97,-4.54 4.68,-5.86 z"
     id="path2851"
     style="fill:#000000;fill-opacity:0.12939998" /><path
     d="m 257.88,133.69 c 0,0 -3.95,-2.95 -6.79,-5.06 3.43,-2.2 4.98,-3.27 5.99,-4.5 0.81,-0.99 1.25,-2.24 1.25,-3.52 v -0.18 l -0.18,-1.26 -0.05,-0.17 c -1.27,-4.21 -3.1,-8.43 -5.4,-12.52 -0.78,-1.39 -2.13,-2.38 -3.69,-2.71 0,0 -5.94,-1.26 -8.26,-1.76 -0.71,-1.05 -1.49,-2.12 -2.33,-3.19 0.75,-0.96 1.53,-1.96 1.53,-1.96 0.76,-0.97 1.18,-2.19 1.18,-3.43 0,-1.51 -0.59,-2.93 -1.68,-3.99 -3.12,-3.04 -6.5,-5.84 -10.02,-8.33 -1.62,-1.15 -3.76,-1.34 -5.58,-0.49 0,0 -2.62,1.22 -4.18,1.95 -0.46,-0.26 -0.94,-0.5 -1.42,-0.76 4.86,-4.81 7.53,-7.48 8.17,-8.18 0.82,-0.88 1.27,-2.02 1.27,-3.21 0,-0.24 -0.06,-0.47 -0.1,-0.71 1.93,-1.51 6.77,-5.28 6.77,-5.28 l 1.03,-1.27 0.12,-0.25 c 1.36,-2.78 2.25,-5.79 2.64,-8.93 l 0,-0.07 0.02,-0.41 v -0.08 c 0,-1.56 -0.79,-3.04 -2.13,-3.95 0,0 -2.29,-1.56 -4.37,-2.97 1.94,-1.15 3.08,-1.9 3.85,-2.77 0.78,-0.88 1.21,-1.99 1.21,-3.14 V 40.4 l -0.17,-1.08 -0.06,-0.19 c -1.04,-3.15 -2.53,-6.29 -4.41,-9.34 -0.71,-1.17 -1.94,-2.01 -3.35,-2.28 0,0 -4.46,-0.87 -6.41,-1.25 -0.4,-0.53 -0.81,-1.07 -1.27,-1.61 0.34,-0.4 0.75,-0.88 0.75,-0.88 0.73,-0.86 1.14,-1.95 1.14,-3.06 0,-1.36 -0.57,-2.62 -1.61,-3.55 -2.53,-2.25 -5.25,-4.31 -8.1,-6.15 -1.43,-0.93 -3.31,-1.08 -4.9,-0.4 0,0 -1.97,0.84 -3.15,1.34 -0.68,-0.35 -1.38,-0.69 -2.1,-1.03 0.02,-1.01 0.04,-2.05 0.04,-2.05 0,-2.06 -1.26,-3.83 -3.21,-4.56 -3.45,-1.29 -7.03,-2.31 -10.63,-3.02 -2.45,-0.48 -4.94,0.84 -5.79,3.1 0,0 -0.26,0.71 -0.54,1.45 -0.65,-0.02 -0.79,-0.02 -1.32,-0.04 -0.96,-1.1 -3.31,-3.82 -3.31,-3.82 -1.03,-1.19 -2.62,-1.84 -4.24,-1.74 -2.45,0.15 -5.66,0.43 -8.8,1.22 0.03,0 -0.51,0.12 -0.51,0.12 0.02,0 -0.56,0.12 -0.56,0.12 -2.05,0.37 -3.46,1.8 -3.73,3.91 -0.05,0.39 -0.1,1.15 -0.12,3.15 -1.64,-0.73 -3.29,-1.46 -3.29,-1.46 -1.72,-0.76 -3.8,-0.53 -5.28,0.58 -2.45,1.85 -4.58,4 -6.31,6.39 -0.47,0.65 -0.77,1.42 -0.87,2.22 -0.02,0.18 -0.07,0.66 -0.5,8.62 0,0.03 0,0.07 0,0.11 -2,0.42 -3.62,1.93 -3.93,3.92 0,0 -1.64,10.33 -1.64,10.33 l -0.04,0.62 0.04,0.56 1.21,8.68 c 0.31,2.24 2.25,4 4.62,4.18 0,0 4.08,0.33 6.25,0.5 0.16,0.27 0.17,0.3 0.32,0.57 -0.03,0.08 -3.74,8.25 -3.74,8.25 l -0.06,0.27 -0.26,1.19 v 0.27 c 0,1.09 0.39,2.17 1.1,3.02 0.67,0.8 5.01,5.37 8.99,7.97 -1.28,0 -2.56,0.42 -3.59,1.26 -2.68,2.22 -4.98,4.79 -6.94,7.57 -0.83,-1.08 -2,-1.85 -3.35,-2.14 0,0 -9.57,-2.04 -11.22,-2.39 -1.19,-1.79 -2.52,-3.59 -3.96,-5.38 1.14,-1.46 2.65,-3.39 2.65,-3.39 0.79,-1.01 1.22,-2.28 1.22,-3.56 0,-1.58 -0.62,-3.05 -1.75,-4.15 -3.99,-3.88 -8.29,-7.45 -12.76,-10.61 -1.69,-1.2 -3.92,-1.39 -5.8,-0.51 0,0 -3.96,1.85 -5.99,2.8 -1.86,-1.1 -3.79,-2.14 -5.77,-3.11 0.02,-0.93 0.11,-5.4 0.11,-5.4 0,-2.36 -1.41,-4.46 -3.59,-5.36 -5.46,-2.25 -11.11,-4.01 -16.79,-5.23 -2.86,-0.61 -5.75,1 -6.7,3.78 0,0 -0.87,2.54 -1.49,4.35 -1.64,-0.11 -3.28,-0.23 -4.84,-0.22 -1.19,-1.51 -5.98,-7.56 -5.98,-7.56 -1.18,-1.5 -3.04,-2.32 -4.95,-2.18 -3.87,0.27 -8.93,0.75 -13.79,2.09 0.05,-0.01 -0.84,0.21 -0.84,0.21 l -0.88,0.21 c -2.42,0.48 -3.92,2.11 -4.23,4.61 -0.05,0.4 -0.2,1.65 -0.2,8.22 0,0 0,0.72 0,1.1 -3.57,-1.74 -8.57,-4.18 -8.57,-4.18 -2.04,-0.99 -4.49,-0.7 -6.24,0.73 -3.77,3.11 -7.02,6.72 -9.66,10.71 -0.5,0.76 -0.83,1.66 -0.93,2.58 -0.11,1.12 -0.68,12.73 -0.79,15.04 0,0.03 0,0.28 0,0.28 0,0.74 0.18,1.45 0.44,2.12 -0.45,0.02 -1.42,0.08 -1.42,0.08 -2.73,0.16 -5,2.24 -5.4,4.95 0,0 -2.63,18.06 -2.63,18.06 0,0 -0.05,0.83 -0.05,0.83 l 0.04,0.74 1.93,15.17 c 0.34,2.69 2.56,4.82 5.28,5.05 0,0 7.96,0.7 11.25,0.99 0.68,1.4 1.35,2.68 1.93,3.73 -0.21,0.35 -0.54,0.87 -0.54,0.87 l -0.08,0.22 c -0.9,2.43 -2.88,7.2 -5.86,14.18 -0.31,0.72 -0.46,1.49 -0.46,2.28 0,1.26 0.42,2.52 1.19,3.52 2.63,3.44 13.36,14.89 19.01,16.24 1.6,0.37 3.29,0.05 4.64,-0.86 0,0 7.81,-5.41 10.99,-7.61 1.89,1.15 4.06,2.42 6,3.44 0.25,2.25 1.76,15.74 1.76,15.74 0.24,2.19 1.68,4.02 3.75,4.79 9.15,3.39 15.16,4.87 20.08,4.95 2.02,0.03 3.94,-1.01 5.01,-2.73 l 7.48,-11.96 c 0,0 0.18,-0.3 0.39,-0.64 1.16,-0.08 2.49,-0.21 3.82,-0.39 1.42,1.82 7.19,9.25 7.19,9.25 1.39,1.79 3.73,2.61 5.93,2.07 5.81,-1.39 11.64,-5.4 12.75,-6.19 0.03,-0.02 0.89,-0.79 0.89,-0.79 0.1,-0.11 11.64,-12.58 13.39,-14.65 0.89,-1.05 1.38,-2.38 1.38,-3.75 0,-0.8 -0.21,-1.59 -0.54,-2.32 3.35,-2.86 11.91,-10.17 11.91,-10.17 0.65,-0.55 1.18,-1.26 1.52,-2.04 0.17,-0.38 0.3,-0.82 0.46,-1.21 0.03,0.06 0.04,0.08 0.08,0.15 0,0 -0.13,0.22 -0.13,0.22 l -0.08,0.22 c -0.75,1.99 -2.29,5.7 -4.57,11.03 l -0.09,0.23 -0.35,1.7 v 0.25 c 0,1.22 0.4,2.42 1.14,3.39 1.77,2.31 10.43,11.8 15.33,12.97 1.54,0.36 3.16,0.06 4.46,-0.83 0,0 5.37,-3.72 7.93,-5.49 1.13,0.68 2.4,1.41 3.59,2.06 0.23,2.11 1.3,11.62 1.3,11.62 0.24,2.11 1.62,3.87 3.6,4.61 7.2,2.67 11.96,3.84 15.91,3.9 1.94,0.02 3.79,-0.97 4.82,-2.63 0,0 5.82,-9.3 5.82,-9.31 0.57,-0.04 1.16,-0.11 1.82,-0.19 1.28,1.64 5.2,6.69 5.2,6.69 1.34,1.72 3.58,2.51 5.71,1.99 4.67,-1.12 9.36,-4.33 10.25,-4.96 0,0 0,0 0,0 0,0 0.68,-0.58 0.68,-0.58 l 0.11,-0.1 0.05,-0.07 0.08,-0.09 c 2.71,-2.93 9.14,-9.9 10.31,-11.28 0.85,-1 1.32,-2.28 1.32,-3.6 0,-0.5 -0.07,-0.99 -0.21,-1.47 2.11,-1.8 8.63,-7.37 8.63,-7.37 0.62,-0.53 1.13,-1.21 1.47,-1.97 1.64,-3.68 2.72,-7.66 3.2,-11.83 l 0,-0.07 0.02,-0.49 v -0.07 c 0,-1.75 -0.83,-3.42 -2.24,-4.47 z m -135.7,-18.1 c -9.04,17.22 -34.53,21.64 -56.93,9.88 C 42.86,113.71 32.04,90.21 41.08,72.99 50.12,55.77 75.61,51.35 98.01,63.11 c 22.39,11.76 33.22,35.26 24.17,52.48 z m 14.81,38.79 -0.25,0.15 c 0,0 0.12,-0.07 0.25,-0.15 l 0,0 z m 27.34,-75.9 c -1.22,-0.59 -1.47,-0.71 -2.52,-1.22 0.89,-0.04 1.77,-0.28 2.53,-0.75 0,0.55 -0.01,1.23 -0.01,1.98 z m -1.35,-56.56 c 5.6,-10.66 22.95,-12.58 38.75,-4.28 15.8,8.29 24.06,23.67 18.46,34.34 -5.6,10.66 -22.95,12.58 -38.75,4.28 -15.8,-8.29 -24.06,-23.67 -18.46,-34.34 z m 54.38,60.56 -0.26,0.15 0.01,-0.01 c 0.01,0 0.12,-0.07 0.12,-0.07 l 0.11,-0.06 z m 17.77,50.71 c -7.26,13.83 -28.07,17.21 -46.48,7.54 -18.4,-9.66 -27.43,-28.72 -20.16,-42.55 7.26,-13.83 28.07,-17.21 46.48,-7.54 18.4,9.66 27.43,28.72 20.16,42.55 z"
     id="path2853"
     style="fill:#000000" /><path
     d="m 172.47,26.85 c -3.85,1.65 -6.18,4.43 -6.72,8.03 l 0,0.04 -0.03,0.97 c -0.18,3.72 -0.49,9.96 15.3,19.33 5.85,3.47 13.45,4.33 22.59,2.56 l 0.1,-0.02 0.09,-0.03 c 0.19,-0.07 4.74,-1.91 6.17,-4.78 l 0.01,-0.03 0.01,-0.03 c 2.94,-7.56 -2.84,-17.58 -13.74,-23.81 -7.19,-4.1 -17.2,-5.03 -23.79,-2.21 z m 0.86,1.7 c 5.91,-2.53 15.3,-1.62 21.83,2.1 8.29,4.73 13.53,11.99 13.53,18.12 0,1.19 -0.2,2.34 -0.61,3.43 -0.91,1.77 -3.83,3.28 -5,3.76 -8.54,1.64 -15.59,0.86 -20.95,-2.31 -13.15,-7.8 -14.41,-13.06 -14.41,-16.47 0,-0.43 0.02,-0.82 0.04,-1.2 0,0 0.02,-0.72 0.03,-0.87 0.56,-3.7 3.32,-5.61 5.55,-6.56 z"
     id="path2855"
     style="fill:#000000" /><path
     d="m 172.47,26.85 c -3.85,1.65 -6.18,4.43 -6.72,8.03 l 0,0.04 -0.03,0.97 c -0.18,3.72 -0.49,9.96 15.3,19.33 5.85,3.47 13.45,4.33 22.59,2.56 l 0.1,-0.02 0.09,-0.03 c 0.19,-0.07 4.74,-1.91 6.17,-4.78 l 0.01,-0.03 0.01,-0.03 c 2.94,-7.56 -2.84,-17.58 -13.74,-23.81 -7.19,-4.1 -17.2,-5.03 -23.79,-2.21 z m 0.86,1.7 c 5.91,-2.53 15.3,-1.62 21.83,2.1 8.29,4.73 13.53,11.99 13.53,18.12 0,1.19 -0.2,2.34 -0.61,3.43 -0.91,1.77 -3.83,3.28 -5,3.76 -8.54,1.64 -15.59,0.86 -20.95,-2.31 -13.15,-7.8 -14.41,-13.06 -14.41,-16.47 0,-0.43 0.02,-0.82 0.04,-1.2 0,0 0.02,-0.72 0.03,-0.87 0.56,-3.7 3.32,-5.61 5.55,-6.56 z"
     id="path2857"
     style="fill:none;stroke:#000000;stroke-width:1" /><path
     d="m 158.89,21.66 -6.12,-4.16 c 0,0 -3.12,-0.68 -3.12,-0.68 -0.06,0.53 -0.47,8.33 -0.47,8.33 l 7.63,4.7 2.09,-8.19 v 0 z"
     id="path2859"
     style="fill:#9ba1aa" /><path
     d="m 183.11,62.75 -9.38,-4.74 -9.27,5.82 -8.73,-7.82 c -0.12,0.1 0.13,-0.03 -3.82,8.41 2.18,2.61 7.99,7.61 9.76,8 8.75,-5.53 8.75,-5.53 8.75,-5.53 0,0 5.69,3.3 7.18,3.69 1.31,10.73 0,0 1.31,10.73 4.62,1.56 8.37,2.55 11.26,2.6 5.32,-7.81 5.3,-7.69 5.32,-7.81 L 183.22,73.49 183.1,62.76 z"
     id="path2861"
     style="fill:#d7dadd" /><path
     d="m 206.09,65.26 -8.88,0.55 -2.11,8.93 c 0,0 0.6,0.58 0.6,0.58 0,0 4.26,-0.08 6.29,-0.65 5.81,6.83 0,0 5.81,6.83 3.19,-0.7 6.66,-2.98 6.66,-2.98 0,0 7.18,-7.09 8.2,-8.19 l -9.51,4.44 -7.07,-9.5 v 0 z"
     id="path2863"
     style="fill:#c5cad3" /><path
     d="m 224.13,45.36 c 0.84,-0.94 6.74,-3.93 7.64,-4.94 l -7.94,-0.04 0.3,4.98 z"
     id="path2865"
     style="fill:#d7dadd" /><path
     d="m 214.01,62.75 8.8,4.37 8.18,-6.38 -9.82,-5.23"
     id="path2867"
     style="fill:#d7dadd" /><path
     d="m 165.52,6 c -0.16,1.26 -0.06,8.92 -0.06,8.92 0,0 0,0 0,0 l 4.02,-2.53 -3.96,-6.38 v 0 z"
     id="path2869"
     style="fill:#9ba1aa" /><path
     d="m 158,40.01 -11.05,-0.96 -1.78,-9.36 -1.63,10.23 1.19,8.6 c 0,0 0,0 9.07,0.72 1.46,3.25 4.04,6.77 4.04,6.77 l 4.56,-6.93 -4.4,-9.06 v 0 z"
     id="path2871"
     style="fill:#c5cad3" /><path
     d="m 145.09,29.88 -0.9,10.17 0.54,8.45 1.51,-9.52"
     id="path2873"
     style="fill:#d7dadd" /><path
     d="m 158,40.01 -4.2,9.23 4.26,6.77 4.97,-7.57 -5.03,-8.43"
     id="path2875"
     style="fill:#c5cad3" /><path
     d="m 224.42,47.29 -0.01,-0.12 c 0.04,-0.56 0.07,-1.12 0.07,-1.7 0,-1.54 -0.18,-3.12 -0.52,-4.74 l 7.8,-0.3 c -0.93,-2.82 -2.27,-5.62 -3.94,-8.34 -1.91,-0.37 -7.2,-1.4 -8.36,-1.63 -1.38,-2.07 -3.03,-4.07 -4.9,-5.95 l 3.4,-3.98 c -2.29,-2.04 -4.79,-3.95 -7.48,-5.68 l -5.42,2.31 c -2.29,-1.35 -4.65,-2.5 -7.04,-3.44 l 0.11,-5.08 c -3.26,-1.22 -6.54,-2.15 -9.8,-2.79 l -1.83,4.87 c -2.46,-0.31 -4.88,-0.4 -7.21,-0.28 l -4.82,-5.56 c -3.05,0.19 -5.99,0.68 -8.76,1.45 l 3.78,6.1 c -2.06,0.79 -3.95,1.8 -5.63,3.05 -1.43,-0.63 -6.96,-3.09 -8.92,-3.97 -2.02,1.52 -3.8,3.31 -5.28,5.35 l 8.55,5.13 c -1.17,2.23 -1.83,4.64 -2.03,7.14 l -10.98,0.58 c -0.15,3.03 0.22,6.16 1.08,9.31 l 11.75,1.02 c 1.17,2.88 2.87,5.72 5.03,8.43 l -7.19,7.52 c 2.48,2.78 5.35,5.43 8.6,7.85 l 9.27,-5.82 0.03,0.01 c 0.53,0.34 1.07,0.68 1.63,1.01 2.47,1.46 5.06,2.7 7.71,3.72 l 0.12,10.73 c 4.07,1.31 8.2,2.19 12.27,2.61 0.42,-2.61 1.62,-9.82 1.69,-10.29 3.06,0.16 6.05,0 8.88,-0.55 l 7.07,9.5 c 1.29,-0.37 2.54,-0.8 3.74,-1.3 0.74,-0.34 1.53,-0.7 2.29,-1.06 1.22,-0.62 2.39,-1.31 3.48,-2.08 -1.03,-1.69 -4.83,-7.7 -5.98,-9.52 1.7,-1.26 3.16,-2.74 4.36,-4.43 0.04,-0.06 0.08,-0.12 0.12,-0.18 l 9.81,4.56 c 1.14,-2.34 1.87,-4.84 2.2,-7.46 l -8.77,-5.97 0,0 z m -11.83,1.98 c -5.76,8.11 -20.26,8.87 -32.38,1.69 -12.11,-7.18 -17.26,-19.59 -11.49,-27.71 5.76,-8.11 20.26,-8.87 32.38,-1.68 12.11,7.18 17.25,19.59 11.49,27.71 z"
     id="path2877"
     style="fill:#ffffff" /><path
     d="m 164.45,63.83 -2.78,8.59 8.75,-5.54 3.3,-8.88 -9.27,5.82"
     id="path2879"
     style="fill:#9ba1aa" /><path
     d="m 177.61,70.58 5.5,-7.82 0.12,10.74 -4.3,7.82 -1.32,-10.74"
     id="path2881"
     style="fill:#ffffff;fill-opacity:0.4" /><path
     d="m 206.04,65.42 -4.04,9.25 5.81,6.82 5.35,-6.74 -7.12,-9.34"
     id="path2883"
     style="fill:#ffffff;fill-opacity:0.4" /><path
     d="m 146.25,38.99 -1.51,9.52 9.07,0.73 4.2,-9.23"
     id="path2885"
     style="fill:#787e87;fill-opacity:0.49800002" /><path
     d="m 234.42,51.77 c 0,0 -6.54,-4.45 -7.92,-5.39 0.01,-0.18 0.01,-0.21 0.01,-0.36 0.67,-0.43 1.59,-0.97 2.44,-1.46 2.59,-1.52 3.8,-2.26 4.4,-2.93 0.3,-0.33 0.46,-0.75 0.46,-1.18 0,-0.18 -0.02,-0.36 -0.08,-0.54 -0.97,-2.93 -2.36,-5.86 -4.12,-8.72 -0.28,-0.46 -0.77,-0.79 -1.35,-0.9 0,0 -6.95,-1.35 -7.56,-1.47 -1.04,-1.48 -2.21,-2.92 -3.5,-4.31 1,-1.17 2.39,-2.8 2.39,-2.8 0.29,-0.34 0.43,-0.74 0.43,-1.14 0,-0.49 -0.21,-0.97 -0.62,-1.34 -2.41,-2.14 -5.01,-4.11 -7.72,-5.87 -0.6,-0.38 -1.38,-0.45 -2.04,-0.16 0,0 -3.13,1.33 -4.44,1.89 -1.63,-0.91 -3.33,-1.75 -5.07,-2.49 0.03,-1.39 0.08,-3.91 0.08,-3.92 0,-0.75 -0.49,-1.44 -1.26,-1.73 -3.3,-1.24 -6.72,-2.21 -10.15,-2.89 -1.01,-0.19 -2.02,0.32 -2.36,1.22 0,0 -0.77,2.04 -1.3,3.47 -1.63,-0.14 -3.24,-0.2 -4.83,-0.16 -0.95,-1.1 -4.18,-4.83 -4.18,-4.83 -0.42,-0.48 -1.07,-0.74 -1.75,-0.7 -2.84,0.18 -5.62,0.48 -8.24,1.14 -0.59,0.13 -0.84,0.2 -1.18,0.27 -0.86,0.15 -1.28,0.59 -1.39,1.39 -0.08,0.63 -0.11,2.42 -0.11,4.48 0,0.94 0,1.92 0.01,2.89 -1.94,-0.86 -7.55,-3.36 -7.55,-3.36 -0.72,-0.32 -1.59,-0.23 -2.21,0.23 -2.22,1.67 -4.13,3.61 -5.68,5.75 -0.18,0.25 -0.29,0.53 -0.32,0.83 -0.06,0.55 -0.38,6.6 -0.48,8.44 0,0.03 0,0.06 0,0.09 0,0.61 0.33,1.2 0.9,1.55 0,0 0.93,0.57 1.42,0.87 -2.14,0.11 -4.39,0.23 -4.39,0.23 -0.97,0.05 -1.76,0.71 -1.9,1.59 l -1.63,10.23 c -0.01,0.09 -0.02,0.18 -0.02,0.27 0,0.07 0,0.15 0.01,0.23 l 1.19,8.6 c 0.12,0.87 0.9,1.55 1.86,1.62 0,0 7.64,0.61 7.86,0.63 0.62,1.24 1.34,2.47 2,3.52 -0.03,0.04 -0.08,0.05 -0.11,0.1 l -0.64,0.95 c -0.57,1.4 -1.8,4.13 -3.66,8.09 -0.11,0.23 -0.16,0.48 -0.16,0.73 0,0.4 0.14,0.8 0.42,1.13 1.91,2.28 8.18,8.08 10.91,8.68 0.56,0.12 1.16,0.01 1.64,-0.28 0,0 5.95,-3.76 7.64,-4.83 1.46,0.83 3.64,2.02 5.22,2.73 0.17,1.37 1.18,9.66 1.18,9.66 0.08,0.7 0.6,1.3 1.32,1.54 5.49,1.86 9.06,2.67 11.93,2.71 0.71,0.01 1.39,-0.32 1.77,-0.88 l 4.64,-6.78 c 0.33,-0.48 0.52,-0.76 0.66,-0.98 1.11,-0.05 2.61,-0.16 3.94,-0.38 0.83,0.98 5.02,5.89 5.02,5.89 0.49,0.58 1.31,0.84 2.09,0.67 3.54,-0.77 7.22,-3.19 7.38,-3.29 0.11,-0.07 0.21,-0.15 0.3,-0.24 0.29,-0.29 7.22,-7.13 8.26,-8.25 0.32,-0.34 0.48,-0.77 0.48,-1.2 0,-0.31 -0.08,-0.62 -0.26,-0.91 0,0 -0.35,-0.56 -0.48,-0.77 0.05,-0.03 0.11,-0.04 0.15,-0.08 l 8.18,-6.38 c 0.23,-0.18 0.41,-0.4 0.54,-0.66 1.21,-2.49 2.01,-5.18 2.36,-8.01 0,-0.07 0.01,-0.14 0.01,-0.21 0,-0.58 -0.3,-1.14 -0.82,-1.5 v 0 z m -3.42,8.97 -8.18,6.38 -3.08,-1.53 c 1.22,1.94 2.44,3.87 2.96,4.72 -1.02,1.1 -8.2,8.19 -8.2,8.19 0,0 -3.47,2.28 -6.66,2.98 -5.81,-6.83 0,0 -5.81,-6.83 -2.02,0.56 -6.29,0.65 -6.29,0.65 0,0 -0.02,-0.02 -0.05,-0.05 -0.05,0.31 -0.09,0.59 -0.13,0.83 -0.01,0.11 0,0 -5.32,7.81 -2.88,-0.04 -6.63,-1.03 -11.26,-2.6 -1.32,-10.73 0,0 -1.32,-10.73 -1.48,-0.38 -7.18,-3.69 -7.18,-3.69 0,0 0,0 -8.75,5.53 -1.76,-0.38 -7.57,-5.38 -9.76,-8 3.99,-8.5 3.81,-8.33 3.94,-8.44 0,0 0.03,0.01 0.01,-0.01 l 1.13,-1.18 c -0.88,-1.31 -2.26,-3.47 -3.18,-5.53 l -1.71,-0.13 c -0.54,-0.04 -1.04,-0.08 -1.5,-0.12 l -0.84,-0.06 c -0.33,-0.02 -0.64,-0.05 -0.93,-0.07 l -0.93,-0.07 c -0.55,-0.04 -1.01,-0.08 -1.38,-0.11 l -0.61,-0.04 c -0.08,0 -0.16,-0.01 -0.23,-0.01 l -0.33,-0.02 c -0.05,0 -0.1,0 -0.14,-0.01 l -0.18,-0.01 c -0.06,0 -0.1,0 -0.14,-0.01 l -0.07,0 c 0,0 -0.01,0 -0.01,0 l -1.19,-8.6 1.63,-10.23 10.45,-0.55 -6.45,-3.97 c 0,0 0.41,-7.79 0.48,-8.33 1.47,-2.04 3.25,-3.82 5.28,-5.35 1.95,0.87 7.48,3.33 8.92,3.97 0.51,-0.37 1.05,-0.72 1.6,-1.06 -0.02,-1.77 -0.07,-7.31 0.06,-8.36 0,0 0.06,0.1 0.17,0.28 2.76,-0.76 5.7,-1.25 8.76,-1.45 l 4.82,5.56 c 2.33,-0.11 4.75,-0.02 7.21,0.28 l 1.83,-4.87 c 3.25,0.64 6.54,1.56 9.8,2.79 l -0.11,5.08 c 2.38,0.94 4.74,2.09 7.04,3.44 l 5.42,-2.31 c 2.68,1.73 5.18,3.64 7.48,5.68 l -3.4,3.98 c 1.86,1.88 3.51,3.88 4.9,5.95 1.15,0.22 6.44,1.25 8.36,1.62 1.67,2.71 3,5.51 3.94,8.34 -0.81,0.91 -5.77,3.48 -7.29,4.64 0,0.13 0.01,0.27 0.01,0.4 0,0.57 -0.03,1.14 -0.07,1.7 l 0.01,0.12 8.77,5.97 c -0.33,2.62 -1.06,5.12 -2.2,7.46 v 0 h 0 z"
     id="path2887"
     style="fill:#000000" /><path
     d="m 174.27,2.48 c -2.35,0.15 -5.42,0.41 -8.35,1.15 l -0.55,0.13 -0.59,0.13 c -1.08,0.19 -1.67,0.78 -1.8,1.8 -0.08,0.57 -0.11,2.1 -0.11,4.54 0,0 0,1.3 0,2.13 -1.22,-0.54 -6.8,-3.03 -6.8,-3.03 -0.9,-0.4 -1.99,-0.28 -2.77,0.29 -2.26,1.7 -4.2,3.68 -5.79,5.86 -0.22,0.31 -0.36,0.67 -0.41,1.04 -0.05,0.48 -0.29,4.87 -0.49,8.46 l 0,0.11 c 0,0.78 0.42,1.5 1.13,1.94 0,0 0.08,0.05 0.14,0.08 -1.29,0.06 -2.85,0.15 -2.85,0.15 -1.21,0.06 -2.21,0.9 -2.39,2 0,0 -1.63,10.23 -1.63,10.23 0,0 -0.02,0.33 -0.02,0.33 l 0.02,0.29 1.19,8.6 c 0.14,1.09 1.13,1.95 2.34,2.04 0,0 7.05,0.56 7.57,0.61 0.22,0.39 1.45,2.55 1.72,3.01 -0.13,0.19 -0.58,0.86 -0.58,0.86 -0.62,1.49 -1.85,4.21 -3.69,8.15 0,0 -0.2,0.92 -0.2,0.92 0,0.51 0.18,1.01 0.52,1.42 1.69,2.01 8.16,8.19 11.21,8.85 0.7,0.15 1.45,0.02 2.05,-0.35 0,0 6.06,-3.83 7.36,-4.66 1.22,0.69 3.17,1.75 4.72,2.46 0.05,0.47 1.15,9.41 1.15,9.41 0.11,0.88 0.74,1.63 1.66,1.93 5.55,1.88 9.17,2.7 12.11,2.74 0.89,0.01 1.74,-0.4 2.22,-1.1 L 197,78.22 c 0,0 0.34,-0.51 0.52,-0.77 0.95,-0.05 2.2,-0.15 3.4,-0.33 0.33,0.4 4.83,5.68 4.83,5.68 0.61,0.72 1.64,1.05 2.62,0.84 3.41,-0.75 6.89,-2.93 7.55,-3.36 0.01,-0.01 0.39,-0.31 0.39,-0.31 0,0 0.17,-0.17 0.17,-0.17 2.66,-2.63 7.26,-7.19 8.1,-8.1 0.39,-0.42 0.61,-0.96 0.61,-1.51 0,-0.4 -0.11,-0.79 -0.33,-1.14 0,0 -0.13,-0.2 -0.25,-0.4 0.96,-0.75 7.99,-6.24 7.99,-6.24 l 0.67,-0.83 c 1.23,-2.53 2.05,-5.27 2.41,-8.15 0,-0.01 0.01,-0.26 0.01,-0.26 0,-0.73 -0.38,-1.44 -1.03,-1.88 0,0 -7.02,-4.78 -7.61,-5.18 0.47,-0.28 2.11,-1.26 2.11,-1.26 2.7,-1.58 3.87,-2.3 4.52,-3.03 0.37,-0.41 0.57,-0.94 0.57,-1.48 l -0.11,-0.68 c -0.98,-2.97 -2.39,-5.93 -4.17,-8.81 -0.35,-0.58 -0.98,-1 -1.7,-1.14 0,0 -6.97,-1.35 -7.35,-1.43 -0.91,-1.28 -1.97,-2.59 -3.15,-3.88 0.4,-0.47 2.14,-2.5 2.14,-2.5 0.35,-0.41 0.54,-0.92 0.54,-1.44 0,-0.64 -0.27,-1.23 -0.77,-1.68 -2.42,-2.15 -5.05,-4.14 -7.79,-5.91 -0.75,-0.48 -1.73,-0.56 -2.56,-0.2 0,0 -3.3,1.41 -4.21,1.79 -1.46,-0.81 -2.99,-1.56 -4.56,-2.24 0.01,-0.47 0.08,-3.64 0.08,-3.64 0,-0.95 -0.62,-1.8 -1.59,-2.17 -3.33,-1.25 -6.77,-2.23 -10.24,-2.91 -1.27,-0.25 -2.54,0.4 -2.97,1.53 0,0 -0.85,2.28 -1.17,3.13 -1.45,-0.11 -2.87,-0.17 -4.21,-0.15 -0.29,-0.34 -4.02,-4.64 -4.02,-4.64 -0.53,-0.6 -1.35,-0.93 -2.19,-0.88 z m -20.39,51.91 v 0 z m 10.03,-41.25 -0.01,-2.89 c 0,-2.98 0.05,-4.05 0.11,-4.42 0.07,-0.6 0.34,-0.87 0.97,-0.98 l 0.65,-0.14 0.55,-0.13 c 2.85,-0.71 5.85,-0.97 8.15,-1.12 0.5,-0.03 0.99,0.16 1.3,0.52 l 4.34,5.01 0.26,0 c 1.5,-0.03 3.1,0.02 4.76,0.16 l 0.41,0.03 1.44,-3.82 c 0.25,-0.66 1.01,-1.05 1.76,-0.9 3.4,0.67 6.79,1.63 10.06,2.86 0.57,0.21 0.94,0.72 0.94,1.28 l -0.09,4.22 0.3,0.13 c 1.73,0.74 3.42,1.57 5.02,2.47 l 0.24,0.13 4.7,-2 c 0.49,-0.21 1.08,-0.16 1.52,0.12 2.69,1.74 5.27,3.7 7.66,5.82 0.29,0.26 0.46,0.62 0.46,1 0,0.3 -0.11,0.61 -0.32,0.85 l -2.65,3.1 0.27,0.29 c 1.31,1.42 2.47,2.85 3.46,4.26 l 0.11,0.16 7.77,1.51 c 0.42,0.08 0.79,0.32 1,0.67 1.74,2.81 3.11,5.72 4.08,8.62 l 0.06,0.4 c 0,0.31 -0.12,0.63 -0.34,0.88 -0.55,0.61 -1.72,1.33 -4.27,2.83 l -2.68,1.61 v 0.24 l -0.02,0.55 0.21,0.21 7.92,5.39 c 0.38,0.26 0.61,0.68 0.61,1.11 l -0.01,0.17 c -0.34,2.76 -1.13,5.41 -2.32,7.86 0,0 -0.4,0.49 -0.4,0.49 l -8.18,6.39 c 0.02,-0.01 -0.11,0.05 -0.11,0.05 l -0.44,0.23 0.29,0.38 0.48,0.77 c 0.12,0.2 0.19,0.43 0.19,0.67 0,0.32 -0.13,0.64 -0.36,0.9 -0.61,0.66 -3.48,3.53 -8.07,8.07 l -0.17,0.17 -0.22,0.18 c -0.39,0.25 -3.9,2.48 -7.19,3.21 -0.58,0.12 -1.18,-0.06 -1.56,-0.5 l -5.21,-6.12 -0.31,0.04 c -1.34,0.21 -2.85,0.32 -3.88,0.37 l -0.27,0.01 -0.8,1.19 c 0,0 -4.64,6.78 -4.64,6.78 -0.28,0.41 -0.78,0.66 -1.32,0.65 -2.8,-0.04 -6.32,-0.84 -11.76,-2.68 -0.54,-0.18 -0.92,-0.62 -0.98,-1.15 l -1.22,-9.92 -0.25,-0.11 c -1.64,-0.73 -3.95,-2.01 -5.18,-2.7 l -0.28,-0.16 -7.93,5.01 c -0.35,0.22 -0.8,0.3 -1.22,0.21 -2.42,-0.53 -8.5,-5.98 -10.62,-8.51 -0.2,-0.24 -0.31,-0.54 -0.31,-0.84 l 0.12,-0.54 c 1.85,-3.95 3.08,-6.68 3.67,-8.11 0,0 0.6,-0.87 0.6,-0.87 l 0.27,-0.24 -0.15,-0.34 -2.11,-3.71 -0.29,-0.04 -7.86,-0.63 c -0.71,-0.05 -1.3,-0.56 -1.39,-1.21 l -1.19,-8.6 c 0,0 -0.01,-0.17 -0.01,-0.17 l 0.01,-0.19 c 0,0 1.63,-10.23 1.63,-10.23 0.1,-0.65 0.7,-1.15 1.42,-1.19 l 5.93,-0.31 -2.7,-1.66 c -0.42,-0.25 -0.67,-0.69 -0.67,-1.15 0.27,-5.06 0.44,-8.12 0.48,-8.48 0.02,-0.22 0.1,-0.43 0.24,-0.61 1.52,-2.1 3.4,-4 5.58,-5.65 0.46,-0.34 1.1,-0.41 1.64,-0.17 l 8.31,3.7 v -0.76 z m 2.01,-9.5 v 0 z"
     id="path2889"
     style="fill:#000000" /><path
     d="m 174.42,4.35 c -2.94,0.18 -5.78,0.66 -8.46,1.38 -0.03,-0.05 -0.75,-1.21 -0.75,-1.21 l -0.19,1.42 c -0.07,0.58 -0.1,2.41 -0.1,4.3 0,1.44 0.01,2.88 0.02,3.87 -0.27,0.18 -0.81,0.54 -1.13,0.75 -0.52,-0.23 -8.94,-3.97 -8.94,-3.97 l -0.25,0.19 c -2.1,1.58 -3.91,3.42 -5.38,5.45 l -0.07,0.09 -0.01,0.11 c -0.06,0.54 -0.46,8.04 -0.48,8.36 l -0.01,0.26 c 0,0 3.77,2.31 5.41,3.33 -2.24,0.11 -9.33,0.5 -9.33,0.5 l -1.7,10.68 1.26,9.04 c 0,0 8.69,0.7 9.19,0.74 0.89,1.93 2.11,3.86 2.89,5.03 -0.3,0.31 -0.88,0.92 -0.88,0.92 0.02,-0.02 -0.46,0.86 -0.46,0.86 l -3.69,7.97 0.18,0.22 c 2.19,2.62 8.11,7.75 10.06,8.17 l 0.22,0.04 c 0,0 8.13,-5.14 8.66,-5.47 1.13,0.65 5.04,2.87 6.68,3.45 0.06,0.5 1.32,10.74 1.32,10.74 l 0.3,0.1 c 5.25,1.77 8.78,2.59 11.43,2.63 l 0.29,0 4.8,-7.01 c 0.72,-1.04 0.72,-1.04 0.74,-1.2 0,0 0.05,-0.31 0.06,-0.38 1.01,-0.03 3.9,-0.16 5.7,-0.57 0.35,0.41 5.81,6.82 5.81,6.82 l 0.32,-0.07 c 3.25,-0.71 6.7,-2.97 6.84,-3.06 0.37,-0.35 7.27,-7.17 8.29,-8.27 l 0.23,-0.25 c 0,0 -1.35,-2.16 -2.23,-3.56 0.73,0.36 1.79,0.88 1.79,0.88 l 8.55,-6.67 0.04,-0.09 c 1.15,-2.36 1.9,-4.92 2.24,-7.6 L 233.71,53 c 0,0 -8.43,-5.74 -8.81,-6 0.01,-0.22 0.07,-1.58 0.07,-1.58 0,0 0,-0.09 0,-0.17 0.69,-0.49 1.91,-1.21 3.12,-1.92 2.13,-1.25 3.56,-2.11 4.04,-2.64 l 0.17,-0.19 -0.07,-0.24 c -0.94,-2.83 -2.28,-5.67 -3.99,-8.44 l -0.11,-0.18 c 0,0 -8.02,-1.56 -8.38,-1.63 -1.3,-1.92 -2.83,-3.77 -4.54,-5.53 0.44,-0.51 3.43,-4.02 3.43,-4.02 l -0.33,-0.29 c -2.36,-2.1 -4.9,-4.02 -7.54,-5.73 l -0.24,-0.15 c 0,0 -4.99,2.13 -5.44,2.32 -2.08,-1.21 -4.28,-2.29 -6.54,-3.2 0.01,-0.53 0.11,-5.1 0.11,-5.1 L 198.33,8.19 C 195.11,6.98 191.78,6.04 188.44,5.38 L 187.99,5.3 c 0,0 -1.63,4.33 -1.85,4.93 -2.24,-0.26 -4.46,-0.36 -6.6,-0.27 -0.3,-0.35 -4.83,-5.57 -4.83,-5.57 l -0.27,0.01 z m -0.2,0.98 c 0.33,0.38 4.81,5.55 4.81,5.55 l 0.27,-0.01 c 2.29,-0.11 4.68,-0.02 7.11,0.28 l 0.42,0.05 c 0,0 1.55,-4.13 1.81,-4.82 3.01,0.61 6.02,1.47 8.94,2.55 -0.01,0.59 -0.11,5.06 -0.11,5.06 l 0.32,0.12 c 2.4,0.95 4.75,2.1 6.96,3.41 l 0.24,0.14 c 0,0 4.88,-2.08 5.39,-2.3 2.38,1.55 4.68,3.3 6.83,5.18 -0.49,0.58 -3.37,3.95 -3.37,3.95 l 0.29,0.29 c 1.84,1.85 3.47,3.83 4.84,5.88 l 0.11,0.17 c 0,0 7.88,1.53 8.33,1.62 1.56,2.55 2.8,5.17 3.69,7.79 -0.59,0.5 -2.15,1.43 -3.59,2.27 -1.4,0.82 -2.72,1.6 -3.42,2.13 l -0.19,0.14 0.01,0.62 -0.07,1.66 c 0,0.07 0.01,0.2 0.01,0.2 l 0.01,0.21 c 0,0 8.21,5.59 8.7,5.92 -0.33,2.45 -1.02,4.8 -2.07,6.97 -0.19,0.15 -7.3,5.7 -7.81,6.09 -0.5,-0.25 -4.38,-2.18 -4.38,-2.18 0,0 3.36,5.37 3.69,5.89 -1.47,1.53 -7.88,7.86 -7.94,7.93 0.04,-0.03 -3.12,2.01 -6.09,2.76 -0.37,-0.43 -5.81,-6.83 -5.81,-6.83 l -0.34,0.09 c -1.92,0.53 -6.1,0.62 -6.14,0.62 l -0.43,0 -0.12,0.34 c 0,0 -0.13,0.82 -0.13,0.82 0,-0.03 -0.59,0.84 -0.59,0.84 0,0 -4.16,6.08 -4.48,6.54 -2.44,-0.08 -5.71,-0.84 -10.5,-2.45 -0.06,-0.53 -1.32,-10.76 -1.32,-10.76 l -0.33,-0.08 c -1.16,-0.3 -5.47,-2.72 -7.04,-3.63 l -0.29,-0.16 c 0,0 -8.35,5.28 -8.8,5.56 -1.68,-0.56 -6.87,-4.96 -9.1,-7.54 0.22,-0.5 3.74,-8.07 3.74,-8.07 0,0.01 1.13,-1.17 1.13,-1.17 l 0.25,-0.26 -0.2,-0.29 c -0.77,-1.13 -2.2,-3.36 -3.14,-5.46 l -0.11,-0.26 -8.5,-0.68 c 0,0 -0.46,-0.03 -0.46,-0.03 -0.09,-0.69 -1.12,-8.03 -1.13,-8.15 0.02,-0.12 1.44,-9.07 1.56,-9.78 0.78,-0.04 11.56,-0.61 11.56,-0.61 0,0 -7.04,-4.33 -7.49,-4.6 0.11,-2.22 0.38,-7.13 0.45,-7.91 1.34,-1.83 2.98,-3.49 4.87,-4.95 0.6,0.26 8.87,3.95 8.87,3.95 l 2.05,-1.37 0.01,-0.25 c -0.01,-0.8 -0.02,-2.49 -0.02,-4.15 0,-1.35 0.01,-2.68 0.04,-3.5 2.6,-0.7 5.36,-1.16 8.23,-1.36 z"
     id="path2891"
     style="fill:#000000" /><linearGradient
     x1="227.21001"
     y1="61.439999"
     x2="150.39999"
     y2="17.620001"
     id="gradient0"
     gradientUnits="userSpaceOnUse"><stop
       id="stop2894"
       style="stop-color:#c5cad3;stop-opacity:1"
       offset="0" /><stop
       id="stop2896"
       style="stop-color:#787e87;stop-opacity:1"
       offset="0.2527" /><stop
       id="stop2898"
       style="stop-color:#9398a1;stop-opacity:1"
       offset="0.42910001" /><stop
       id="stop2900"
       style="stop-color:#aeb4bd;stop-opacity:1"
       offset="0.6534" /><stop
       id="stop2902"
       style="stop-color:#bfc4cd;stop-opacity:1"
       offset="0.85110003" /><stop
       id="stop2904"
       style="stop-color:#c5cad3;stop-opacity:1"
       offset="1" /></linearGradient><path
     d="m 223.69,46.73 c 0.19,-1.37 0.23,-4.72 -0.11,-6.34 l 8.18,0.03 c -0.93,-2.82 -2.27,-5.62 -3.94,-8.34 -1.91,-0.37 -7.21,-1.4 -8.36,-1.63 -1.38,-2.07 -3.03,-4.07 -4.9,-5.95 l 3.4,-3.98 c -2.29,-2.03 -4.79,-3.95 -7.48,-5.68 l -5.42,2.31 c -2.29,-1.35 -4.65,-2.49 -7.04,-3.44 l 0.11,-5.08 c -3.25,-1.22 -6.54,-2.14 -9.8,-2.79 l -1.83,4.87 c -2.46,-0.31 -4.87,-0.4 -7.21,-0.28 l -4.82,-5.56 c -3.06,0.19 -6.11,0.5 -8.87,1.26 l 3.89,6.28 c -2.06,0.79 -3.95,1.8 -5.63,3.05 -1.43,-0.63 -6.96,-3.09 -8.91,-3.97 -2.02,1.53 -3.8,3.31 -5.28,5.35 l 8.85,4.86 c -1.17,2.23 -1.5,4.88 -1.7,7.38 L 145.2,29.7 c -0.15,3.03 0.63,5.79 1.5,8.94 l 11.83,0.62 c 1.17,2.88 3.52,6.44 5.69,9.14 l -6.82,7.48 c 1.98,2.22 3.1,3.89 6.94,6.75 0,0 -0.11,0 9.33,-5.92 1.93,1.76 7.7,4.29 10.35,5.3 l 0.34,10.91 c 4.07,1.31 6.17,1.65 10.24,2.07 0.43,-2.61 1.51,-9.71 1.59,-10.18 3.06,0.16 7.64,-0.07 10.46,-0.62 l 6.94,9.35 c 2.05,-0.52 6.76,-2.77 7.85,-3.53 -1.03,-1.69 -4.53,-7.74 -5.69,-9.56 1.7,-1.26 3.92,-3.4 5.12,-5.09 0.04,-0.05 9.89,4.78 9.89,4.78 1.14,-2.34 2.11,-4.24 2.44,-6.86 l -9.5,-6.54 v 0 z m -11.1,2.54 c -5.76,8.11 -20.26,8.87 -32.38,1.69 -12.11,-7.18 -17.26,-19.59 -11.49,-27.71 5.76,-8.11 20.26,-8.87 32.38,-1.68 12.11,7.18 17.25,19.59 11.49,27.71 z"
     id="path2906"
     style="fill:url(#gradient0)" /><path
     d="m 164.04,63.51 -2.47,8.81 3.49,-8.88"
     id="path2908"
     style="fill:#ffffff" /><path
     d="m 146.12,38.49 -1.36,9.9 1.87,-9.35"
     id="path2910"
     style="fill:#ffffff" /><path
     d="m 200.54,21.2 c -12.07,-6.82 -26.38,-6.06 -32.08,2.43 -0.76,1.13 -1.3,2.46 -1.65,3.72 0.34,-0.99 0.93,-1.91 1.54,-2.83 5.45,-8.14 19.69,-9.27 31.81,-2.5 12.1,6.76 17.5,18.86 12.04,27.01 -0.93,1.39 -2.12,2.57 -3.51,3.55 1.68,-1.01 3.1,-2.32 4.17,-3.91 5.45,-8.15 0.7,-20.12 -12.31,-27.47 z"
     id="path2912"
     style="fill:#ffffff" /><path
     d="m 178.79,102.04 c -4.81,2.25 -7.72,6.05 -8.39,10.98 l 0,0.06 -0.04,1.32 c -0.23,5.09 -0.61,13.61 19.1,26.42 7.31,4.74 16.8,5.92 28.21,3.5 l 0.12,-0.02 0.11,-0.05 c 0.24,-0.1 5.92,-2.61 7.71,-6.54 l 0.02,-0.04 0.01,-0.05 c 3.67,-10.34 -3.54,-24.03 -17.16,-32.54 -8.98,-5.61 -21.47,-6.88 -29.7,-3.02 z m 1.09,2.31 c 7.38,-3.45 19.1,-2.22 27.26,2.88 10.35,6.47 16.89,16.39 16.89,24.77 0,1.63 -0.25,3.21 -0.77,4.69 -1.13,2.42 -4.78,4.48 -6.25,5.15 -10.66,2.24 -19.47,1.18 -26.16,-3.16 -16.42,-10.66 -17.99,-17.85 -17.99,-22.52 0,-0.58 0.02,-1.13 0.04,-1.64 0,0 0.03,-0.98 0.03,-1.19 0.7,-5.05 4.15,-7.67 6.93,-8.97 z"
     id="path2914"
     style="fill:#000000" /><path
     d="m 260.42,140.36 c 0,0 -8.16,-6.09 -9.89,-7.38 0.01,-0.25 0.01,-0.29 0.02,-0.5 0.84,-0.58 1.98,-1.32 3.04,-2 3.24,-2.08 4.74,-3.09 5.49,-4.01 0.37,-0.46 0.57,-1.03 0.57,-1.61 0,-0.24 -0.03,-0.49 -0.1,-0.74 -1.21,-4 -2.94,-8.02 -5.15,-11.92 -0.36,-0.63 -0.97,-1.09 -1.69,-1.24 0,0 -8.68,-1.85 -9.43,-2.01 -1.29,-2.02 -2.77,-3.99 -4.37,-5.89 1.24,-1.59 2.99,-3.83 2.99,-3.83 0.36,-0.46 0.53,-1.02 0.53,-1.57 0,-0.67 -0.26,-1.33 -0.77,-1.83 -3.01,-2.93 -6.26,-5.62 -9.65,-8.02 -0.75,-0.53 -1.72,-0.61 -2.55,-0.22 0,0 -3.91,1.82 -5.55,2.59 -2.04,-1.25 -4.16,-2.39 -6.33,-3.41 0.03,-1.91 0.1,-5.34 0.1,-5.36 0,-1.03 -0.62,-1.96 -1.58,-2.36 -4.12,-1.69 -8.39,-3.02 -12.68,-3.95 -1.26,-0.27 -2.53,0.44 -2.95,1.66 0,0 -0.96,2.79 -1.63,4.74 -2.04,-0.19 -4.05,-0.28 -6.03,-0.22 -1.19,-1.51 -5.22,-6.6 -5.22,-6.6 -0.52,-0.66 -1.34,-1.02 -2.18,-0.96 -3.55,0.25 -6.98,0.88 -10.25,1.78 -0.39,-0.12 -0.79,-0.22 -1.22,-0.14 -1.08,0.21 -1.9,1.09 -2.03,2.19 -0.1,0.86 -0.14,3.31 -0.14,6.13 0,1.28 0,2.63 0.01,3.95 -2.42,-1.18 -9.43,-4.6 -9.43,-4.6 -0.9,-0.44 -1.98,-0.31 -2.75,0.32 -2.77,2.29 -5.16,4.94 -7.1,7.87 -0.22,0.34 -0.36,0.73 -0.4,1.13 -0.07,0.74 -0.48,9.02 -0.61,11.53 0,0.04 0,0.08 0,0.12 0,0.84 0.42,1.64 1.12,2.12 0,0 1.16,0.78 1.77,1.19 -2.67,0.15 -5.48,0.32 -5.48,0.32 -1.21,0.06 -2.2,0.98 -2.38,2.18 l -2.03,13.98 c -0.01,0.12 -0.02,0.24 -0.02,0.37 0,0.1 0,0.21 0.02,0.32 l 1.49,11.75 c 0.14,1.19 1.13,2.12 2.33,2.22 0,0 9.54,0.83 9.81,0.86 0.78,1.7 1.68,3.38 2.5,4.81 -0.04,0.05 -0.09,0.07 -0.14,0.14 l -0.8,1.3 c -0.72,1.92 -2.26,5.64 -4.57,11.06 -0.13,0.32 -0.2,0.66 -0.2,1 0,0.55 0.18,1.1 0.52,1.55 2.39,3.12 10.22,11.05 13.63,11.86 0.7,0.16 1.45,0.02 2.04,-0.38 0,0 7.43,-5.14 9.54,-6.61 1.83,1.13 4.55,2.77 6.52,3.73 0.21,1.87 1.48,13.21 1.48,13.21 0.11,0.95 0.74,1.77 1.65,2.11 6.86,2.54 11.32,3.65 14.9,3.71 0.89,0.01 1.73,-0.44 2.21,-1.2 l 5.79,-9.27 c 0.41,-0.66 0.65,-1.04 0.82,-1.34 1.38,-0.07 3.26,-0.23 4.92,-0.52 1.04,1.34 6.27,8.06 6.27,8.06 0.61,0.79 1.63,1.15 2.61,0.91 4.42,-1.06 9.02,-4.36 9.21,-4.49 0.13,-0.1 0.26,-0.21 0.38,-0.33 0.36,-0.39 9.02,-9.75 10.31,-11.28 0.4,-0.47 0.61,-1.06 0.61,-1.65 0,-0.42 -0.11,-0.85 -0.33,-1.24 0,0 -0.44,-0.77 -0.6,-1.06 0.06,-0.04 0.13,-0.06 0.19,-0.11 l 10.22,-8.73 c 0.29,-0.24 0.52,-0.55 0.67,-0.9 1.51,-3.4 2.51,-7.08 2.95,-10.95 0.01,-0.09 0.01,-0.19 0.01,-0.29 0,-0.8 -0.37,-1.56 -1.02,-2.04 v 0 z m -43.13,2.03 c -8.28,1.75 -18.02,1.38 -26.55,-4.16 -20.86,-13.54 -19.23,-19.86 -19.19,-24.63 1.91,-14.07 23.35,-15.03 36.15,-7.04 12.79,8 20.15,21.11 16.63,31.03 -1.6,3.52 -7.03,4.8 -7.03,4.8 z"
     id="path2916"
     style="fill:#000000;fill-opacity:0.12939998" /><path
     d="m 185.29,72.65 c -3.35,0.23 -6.79,0.83 -10.22,1.76 -0.42,-0.11 -0.86,-0.21 -1.38,-0.1 -1.5,0.3 -2.64,1.52 -2.83,3.05 -0.1,0.8 -0.15,2.85 -0.15,6.25 0,0 0,1.21 0.01,2.35 -2.07,-1.01 -7.99,-3.89 -7.99,-3.89 -1.25,-0.61 -2.75,-0.43 -3.83,0.45 -2.84,2.35 -5.3,5.07 -7.3,8.09 -0.31,0.47 -0.51,1.02 -0.56,1.58 -0.07,0.71 -0.42,7.56 -0.61,11.59 0,0 0,0.17 0,0.17 0,0.96 0.46,1.81 1.14,2.47 -1.39,0.08 -2.78,0.16 -2.78,0.16 -1.67,0.09 -3.06,1.37 -3.31,3.03 0,0 -2.03,13.98 -2.03,13.98 0,0 -0.03,0.51 -0.03,0.51 l 0.02,0.45 1.49,11.75 c 0.2,1.65 1.56,2.95 3.23,3.09 0,0 7.2,0.63 9.24,0.81 0.71,1.49 1.41,2.8 1.97,3.8 -0.23,0.38 -0.66,1.07 -0.66,1.07 l -0.03,0.09 c -0.71,1.9 -2.24,5.61 -4.55,11.02 0,0 -0.28,1.39 -0.28,1.39 0,0.77 0.25,1.54 0.72,2.15 2.4,3.14 10.36,11.31 14.19,12.23 0.97,0.23 2.02,0.03 2.84,-0.53 0,0 7.02,-4.85 9.01,-6.23 1.69,1.04 3.8,2.28 5.55,3.18 0.1,0.97 1.42,12.68 1.42,12.68 0.15,1.34 1.03,2.46 2.29,2.93 6.98,2.58 11.53,3.71 15.23,3.77 1.24,0.02 2.41,-0.62 3.07,-1.67 l 5.79,-9.27 c 0,0 0.31,-0.51 0.56,-0.91 1.12,-0.07 2.5,-0.2 3.89,-0.41 0.62,0.8 5.91,7.61 5.91,7.61 0.85,1.1 2.28,1.6 3.64,1.27 4.44,-1.07 9.05,-4.28 9.56,-4.65 0.02,-0.01 0.53,-0.47 0.53,-0.47 2.17,-2.35 9.16,-9.93 10.35,-11.32 0.54,-0.64 0.85,-1.46 0.85,-2.3 0,-0.6 -0.16,-1.2 -0.46,-1.73 0,0 -0.08,-0.14 -0.17,-0.3 1.98,-1.69 9.76,-8.34 9.76,-8.34 0.4,-0.34 0.72,-0.77 0.93,-1.25 1.55,-3.49 2.58,-7.28 3.03,-11.24 0,0 0.02,-0.4 0.02,-0.4 0,-1.11 -0.53,-2.18 -1.43,-2.85 0,0 -7.75,-5.78 -9.1,-6.78 0.86,-0.56 2.21,-1.45 2.21,-1.45 3.41,-2.19 4.89,-3.19 5.73,-4.22 0.51,-0.62 0.79,-1.42 0.79,-2.24 l -0.15,-1.03 c -1.23,-4.07 -3,-8.15 -5.23,-12.12 -0.5,-0.88 -1.36,-1.52 -2.35,-1.72 0,0 -7.3,-1.55 -9.04,-1.93 -1.07,-1.65 -2.32,-3.33 -3.69,-5 0.68,-0.87 2.5,-3.21 2.5,-3.21 0.48,-0.62 0.75,-1.39 0.75,-2.18 0,-0.97 -0.38,-1.87 -1.07,-2.55 -3.05,-2.96 -6.33,-5.69 -9.77,-8.12 -1.03,-0.73 -2.4,-0.85 -3.55,-0.31 0,0 -3.81,1.77 -5.09,2.38 -1.71,-1.03 -3.51,-1.99 -5.35,-2.88 0.02,-0.95 0.09,-4.77 0.09,-4.77 0,-1.44 -0.86,-2.73 -2.2,-3.29 -4.18,-1.72 -8.51,-3.06 -12.85,-4 -1.76,-0.37 -3.52,0.61 -4.11,2.32 0,0 -1.03,3 -1.38,4.03 -1.67,-0.13 -3.31,-0.22 -4.85,-0.2 -0.54,-0.68 -4.92,-6.22 -4.92,-6.22 -0.73,-0.91 -1.86,-1.42 -3.04,-1.33 z m -9.93,3.75 c 3.37,-0.93 6.76,-1.52 10.06,-1.75 0.51,-0.03 1.01,0.18 1.33,0.58 l 5.54,6.99 0.5,-0.01 c 1.85,-0.04 3.84,0.02 5.91,0.22 l 0.78,0.07 1.89,-5.48 c 0.25,-0.74 1.02,-1.18 1.79,-1.01 4.22,0.91 8.43,2.22 12.51,3.89 0.58,0.24 0.96,0.8 0.96,1.43 l -0.12,5.99 0.58,0.27 c 2.16,1.01 4.26,2.14 6.23,3.35 l 0.45,0.28 6.04,-2.82 c 0.5,-0.23 1.1,-0.18 1.55,0.13 3.34,2.36 6.55,5.03 9.53,7.92 0.3,0.29 0.47,0.69 0.47,1.11 0,0.35 -0.11,0.68 -0.32,0.95 l -3.49,4.47 0.52,0.61 c 1.63,1.93 3.07,3.88 4.29,5.79 l 0.22,0.35 9.84,2.1 c 0.43,0.09 0.81,0.36 1.03,0.75 2.16,3.83 3.86,7.77 5.06,11.72 0,0 0.06,0.45 0.06,0.45 0,0.35 -0.12,0.7 -0.34,0.98 -0.65,0.8 -2.17,1.82 -5.26,3.8 l -3.51,2.31 0,0.49 -0.04,1.02 c 0,0 10.31,7.69 10.31,7.69 0.39,0.29 0.62,0.76 0.62,1.25 l -0.01,0.18 c -0.43,3.75 -1.39,7.33 -2.87,10.65 -0.09,0.21 -0.23,0.39 -0.41,0.54 0,0 -9.48,8.1 -10.15,8.68 -0.07,0.03 -0.92,0.44 -0.92,0.44 l 0.44,0.97 0.6,1.06 c 0.13,0.22 0.19,0.48 0.19,0.74 0,0.36 -0.13,0.72 -0.37,1.01 -0.91,1.07 -5.88,6.48 -10.23,11.18 -0.05,0.06 -0.3,0.27 -0.3,0.27 -0.46,0.33 -4.77,3.34 -8.85,4.32 -0.59,0.14 -1.22,-0.07 -1.59,-0.55 0,0 -6.64,-8.53 -6.64,-8.53 l -0.59,0.1 c -1.67,0.29 -3.53,0.43 -4.8,0.5 l -0.52,0.02 -1.09,1.77 c 0,0 -5.8,9.27 -5.8,9.27 -0.28,0.46 -0.8,0.74 -1.34,0.73 -3.46,-0.05 -7.81,-1.14 -14.57,-3.65 -0.55,-0.2 -0.93,-0.69 -1,-1.28 l -1.54,-13.75 -0.49,-0.24 c -2.03,-0.99 -4.9,-2.73 -6.43,-3.68 l -0.55,-0.34 -10.08,6.98 c -0.36,0.25 -0.81,0.33 -1.24,0.23 -2.85,-0.68 -10.41,-8.03 -13.07,-11.5 -0.2,-0.27 -0.31,-0.6 -0.31,-0.94 l 0.12,-0.61 c 2.28,-5.36 3.81,-9.05 4.55,-11.01 0.07,-0.12 0.64,-1.04 0.71,-1.16 0.06,-0.06 0.67,-0.67 0.67,-0.67 l -0.47,-0.55 c -0.63,-1.08 -1.57,-2.78 -2.46,-4.72 l -0.24,-0.52 -10.39,-0.91 c -0.73,-0.06 -1.33,-0.63 -1.42,-1.35 0,0 -1.49,-11.75 -1.49,-11.75 0,0 -0.01,-0.19 -0.01,-0.19 l 0.01,-0.22 c 0,0 2.03,-13.99 2.03,-13.99 0.1,-0.72 0.71,-1.28 1.44,-1.32 0,0 8.44,-0.49 8.44,-0.49 l -4.23,-2.85 c -0.43,-0.29 -0.68,-0.77 -0.68,-1.29 0.33,-6.78 0.55,-11.07 0.6,-11.55 0.02,-0.24 0.11,-0.48 0.25,-0.69 1.88,-2.85 4.2,-5.42 6.9,-7.65 0.47,-0.38 1.12,-0.46 1.68,-0.19 0,0 10.88,5.3 10.88,5.3 l -0.02,-5.56 c 0,-4.07 0.07,-5.51 0.13,-6 0.08,-0.67 0.58,-1.2 1.23,-1.33 0.19,-0.03 0.44,0.03 0.73,0.12 l 0.27,0.08 0.28,-0.07 z"
     id="path2918"
     style="fill:#000000;fill-opacity:0.12939998" /><path
     d="m 178.78,102.7 c -4.72,2.21 -7.57,5.93 -8.23,10.76 l 0,0.05 -0.02,0.98 c -0.13,4.88 -0.33,11.58 19.67,24.56 9.68,6.29 20.19,5.81 27.3,4.3 l 0.02,0 c 0.24,-0.05 5.93,-1.43 7.72,-5.35 3.66,-10.3 -3.51,-23.85 -17.01,-32.29 -8.76,-5.47 -21.42,-6.77 -29.44,-3.01 z m 0.85,1.81 c 7.45,-3.49 19.29,-2.25 27.53,2.89 10.56,6.6 17.05,16.37 17.05,24.86 0,1.73 -0.27,3.4 -0.83,4.99 -1.33,2.92 -6.19,4.12 -6.31,4.15 -6.74,1.43 -16.68,1.89 -25.79,-4.02 -17.47,-11.34 -18.78,-17.36 -18.78,-21.69 0,-0.39 0.01,-0.77 0.02,-1.13 0,0 0.01,-0.69 0.01,-0.85 0.56,-4.1 3.01,-7.28 7.09,-9.19 z"
     id="path2920"
     style="fill:#000000;fill-opacity:0.12939998" /><path
     d="m 178.78,102.7 c -4.72,2.21 -7.57,5.93 -8.23,10.76 l 0,0.05 -0.02,0.98 c -0.13,4.88 -0.33,11.58 19.67,24.56 9.68,6.29 20.19,5.81 27.3,4.3 l 0.02,0 c 0.24,-0.05 5.93,-1.43 7.72,-5.35 3.66,-10.3 -3.51,-23.85 -17.01,-32.29 -8.76,-5.47 -21.42,-6.77 -29.44,-3.01 z m 0.85,1.81 c 7.45,-3.49 19.29,-2.25 27.53,2.89 10.56,6.6 17.05,16.37 17.05,24.86 0,1.73 -0.27,3.4 -0.83,4.99 -1.33,2.92 -6.19,4.12 -6.31,4.15 -6.74,1.43 -16.68,1.89 -25.79,-4.02 -17.47,-11.34 -18.78,-17.36 -18.78,-21.69 0,-0.39 0.01,-0.77 0.02,-1.13 0,0 0.01,-0.69 0.01,-0.85 0.56,-4.1 3.01,-7.28 7.09,-9.19 z"
     id="path2922"
     style="fill:none;stroke:#000000;stroke-width:1;stroke-opacity:0.12939998" /><path
     d="m 161.84,94.93 -7.64,-5.69 c 0,0.01 -3.89,-0.93 -3.9,-0.92 -0.07,0.73 -0.6,11.38 -0.6,11.38 l 9.54,6.42 2.61,-11.19 v 0 z"
     id="path2924"
     style="fill:#9ba1aa" /><path
     d="m 192.09,151.1 -11.71,-6.49 -11.58,7.96 -10.9,-10.69 c -0.15,0.14 0.16,-0.04 -4.77,11.5 2.73,3.57 9.98,10.4 12.19,10.93 10.93,-7.56 10.93,-7.56 10.93,-7.56 0,0 7.11,4.52 8.97,5.04 1.65,14.67 0,0 1.65,14.67 5.77,2.14 10.46,3.49 14.06,3.55 6.64,-10.67 6.61,-10.51 6.64,-10.67 l -15.32,-3.57 -0.15,-14.68 z"
     id="path2926"
     style="fill:#d7dadd" /><path
     d="m 220.78,154.53 -11.08,0.75 -2.63,12.2 c 0,0 0.75,0.79 0.75,0.79 0,0 5.32,-0.11 7.85,-0.88 7.26,9.33 0,0 7.26,9.33 3.98,-0.95 8.32,-4.08 8.32,-4.08 0,0 8.97,-9.69 10.24,-11.2 l -11.87,6.07 -8.83,-12.98 h 0 z"
     id="path2928"
     style="fill:#c5cad3" /><path
     d="m 243.3,127.33 c 1.04,-1.28 8.41,-5.37 9.54,-6.75 l -9.91,-0.05 0.37,6.81 z"
     id="path2930"
     style="fill:#d7dadd" /><path
     d="m 230.66,151.1 10.99,5.98 10.22,-8.73 -12.27,-7.15"
     id="path2932"
     style="fill:#d7dadd" /><path
     d="m 170.11,73.53 c -0.21,1.72 -0.08,12.19 -0.08,12.19 0,0 0,0 0,0 l 5.02,-3.46 -4.94,-8.72 v 0 z"
     id="path2934"
     style="fill:#9ba1aa" /><path
     d="m 160.74,120.02 -13.81,-1.32 -2.22,-12.8 -2.03,13.98 1.49,11.75 c 0,0 0,0 11.33,0.99 1.82,4.44 5.04,9.25 5.04,9.25 l 5.69,-9.47 -5.5,-12.39 v 0 z"
     id="path2936"
     style="fill:#c5cad3" /><path
     d="m 144.6,106.17 -1.12,13.91 0.67,11.55 1.89,-13.01"
     id="path2938"
     style="fill:#d7dadd" /><path
     d="m 160.74,120.02 -5.24,12.62 5.32,9.25 6.2,-10.34 -6.28,-11.52"
     id="path2940"
     style="fill:#c5cad3" /><linearGradient
     x1="175.7"
     y1="170.64999"
     x2="175.7"
     y2="71.699997"
     id="gradient1"
     gradientUnits="userSpaceOnUse"><stop
       id="stop2943"
       style="stop-color:#ffcd00;stop-opacity:1"
       offset="0" /><stop
       id="stop2945"
       style="stop-color:#fff332;stop-opacity:1"
       offset="1" /></linearGradient><path
     d="m 181.09,71.7 -10.97,1.83 0.21,0.38 c 3.44,-1.04 7.12,-1.71 10.94,-1.98 l -0.18,-0.23 0,0 z"
     id="path2947"
     style="fill:url(#gradient1)" /><linearGradient
     x1="144.71001"
     y1="165.02"
     x2="254.89999"
     y2="165.02"
     id="gradient2"
     gradientUnits="userSpaceOnUse"><stop
       id="stop2950"
       style="stop-color:#ffcd00;stop-opacity:1"
       offset="0" /><stop
       id="stop2952"
       style="stop-color:#fff332;stop-opacity:1"
       offset="1" /></linearGradient><path
     d="m 237.15,164.29 c -0.94,0.47 -1.92,0.97 -2.86,1.44 0.98,-0.44 1.93,-0.93 2.86,-1.44 z"
     id="path2954"
     style="fill:url(#gradient2)" /><path
     d="m 243.67,129.98 -0.01,-0.17 c 0.05,-0.76 0.09,-1.54 0.09,-2.32 0,-2.1 -0.22,-4.27 -0.65,-6.48 l 9.74,-0.41 c -1.17,-3.86 -2.83,-7.69 -4.93,-11.4 -2.38,-0.51 -9,-1.92 -10.43,-2.22 -1.73,-2.83 -3.78,-5.56 -6.12,-8.13 l 4.25,-5.44 c -2.86,-2.78 -5.98,-5.4 -9.34,-7.77 l -6.77,3.16 c -2.86,-1.85 -5.81,-3.41 -8.79,-4.71 l 0.14,-6.94 c -4.07,-1.67 -8.17,-2.93 -12.24,-3.81 L 196.32,80 c -3.07,-0.42 -6.08,-0.55 -9,-0.39 l -6.02,-7.6 c -3.82,0.26 -7.49,0.93 -10.94,1.98 l 4.72,8.34 c -2.57,1.08 -4.93,2.46 -7.03,4.16 -1.79,-0.86 -8.7,-4.22 -11.14,-5.42 -2.52,2.09 -4.75,4.52 -6.59,7.31 l 10.67,7.01 c -1.46,3.05 -2.29,6.34 -2.54,9.76 l -13.72,0.8 c -0.19,4.15 0.27,8.43 1.35,12.72 l 14.68,1.39 c 1.46,3.93 3.58,7.82 6.28,11.52 l -8.97,10.28 c 3.09,3.81 6.68,7.42 10.74,10.73 l 11.58,-7.96 0.04,0.02 c 0.66,0.47 1.34,0.93 2.03,1.38 3.09,2 6.32,3.7 9.63,5.08 l 0.15,14.67 c 5.08,1.79 10.24,3 15.32,3.57 0.53,-3.58 2.02,-13.42 2.12,-14.06 3.82,0.22 7.56,0 11.09,-0.75 l 8.83,12.98 c 1.61,-0.51 3.18,-1.1 4.67,-1.77 0.93,-0.47 1.91,-0.97 2.86,-1.44 1.53,-0.85 2.98,-1.8 4.34,-2.84 -1.29,-2.31 -6.03,-10.52 -7.47,-13.01 2.12,-1.72 3.95,-3.75 5.45,-6.06 0.05,-0.08 0.1,-0.17 0.15,-0.25 l 12.25,6.23 c 1.42,-3.19 2.34,-6.61 2.75,-10.2 l -10.95,-8.17 h 0 z m -14.78,2.7 c -7.19,11.09 -25.3,12.13 -40.43,2.31 -15.13,-9.82 -21.55,-26.78 -14.35,-37.87 7.2,-11.09 25.3,-12.13 40.44,-2.31 15.13,9.82 21.55,26.78 14.34,37.87 z"
     id="path2956"
     style="fill:#ffffff" /><path
     d="m 168.79,152.57 -3.48,11.75 10.93,-7.57 4.13,-12.14 -11.58,7.96"
     id="path2958"
     style="fill:#9ba1aa" /><path
     d="m 185.21,161.8 6.87,-10.69 0.15,14.67 -5.38,10.69 -1.65,-14.67"
     id="path2960"
     style="fill:#ffffff;fill-opacity:0.4" /><path
     d="m 220.71,154.75 -5.04,12.65 7.26,9.33 6.68,-9.22 -8.89,-12.76"
     id="path2962"
     style="fill:#ffffff;fill-opacity:0.4" /><path
     d="m 146.05,118.62 -1.89,13.01 11.33,0.99 5.24,-12.62"
     id="path2964"
     style="fill:#787e87;fill-opacity:0.49800002" /><path
     d="m 256.16,136.1 c 0,0 -8.16,-6.08 -9.89,-7.38 0,-0.25 0.01,-0.29 0.02,-0.5 0.84,-0.59 1.98,-1.32 3.04,-2 3.24,-2.08 4.74,-3.09 5.49,-4.01 0.37,-0.46 0.57,-1.03 0.57,-1.61 0,-0.24 -0.03,-0.49 -0.11,-0.74 -1.21,-4 -2.94,-8.01 -5.15,-11.92 -0.35,-0.63 -0.97,-1.09 -1.69,-1.24 0,0 -8.69,-1.85 -9.43,-2.01 -1.3,-2.02 -2.77,-3.99 -4.37,-5.89 1.24,-1.59 2.98,-3.83 2.98,-3.83 0.36,-0.46 0.54,-1.02 0.54,-1.57 0,-0.66 -0.26,-1.33 -0.77,-1.83 -3.01,-2.93 -6.26,-5.62 -9.65,-8.02 -0.75,-0.53 -1.72,-0.61 -2.55,-0.22 0,0 -3.91,1.82 -5.55,2.59 -2.04,-1.25 -4.16,-2.39 -6.33,-3.41 0.03,-1.91 0.1,-5.34 0.1,-5.36 0,-1.03 -0.62,-1.97 -1.58,-2.36 -4.12,-1.69 -8.39,-3.02 -12.68,-3.95 -1.26,-0.27 -2.53,0.44 -2.95,1.66 0,0 -0.96,2.79 -1.63,4.74 -2.04,-0.19 -4.05,-0.28 -6.03,-0.23 -1.19,-1.51 -5.22,-6.6 -5.22,-6.6 -0.52,-0.66 -1.34,-1.02 -2.18,-0.96 -3.56,0.25 -7.02,0.65 -10.3,1.55 -0.73,0.18 -1.05,0.28 -1.47,0.37 -1.08,0.21 -1.6,0.81 -1.73,1.9 -0.1,0.86 -0.14,3.31 -0.14,6.12 0,1.28 0,2.63 0.02,3.95 -2.42,-1.18 -9.43,-4.6 -9.43,-4.6 -0.9,-0.44 -1.98,-0.31 -2.76,0.32 -2.77,2.29 -5.16,4.94 -7.1,7.87 -0.22,0.34 -0.36,0.73 -0.4,1.13 -0.07,0.75 -0.48,9.02 -0.6,11.53 0,0.04 0,0.08 0,0.12 0,0.84 0.42,1.64 1.12,2.12 0,0 1.16,0.78 1.77,1.19 -2.67,0.15 -5.48,0.32 -5.48,0.32 -1.21,0.06 -2.2,0.98 -2.38,2.18 l -2.03,13.98 c -0.01,0.12 -0.02,0.24 -0.02,0.37 0,0.1 0,0.21 0.02,0.32 l 1.49,11.75 c 0.15,1.19 1.13,2.12 2.33,2.22 0,0 9.55,0.84 9.82,0.86 0.78,1.7 1.67,3.38 2.5,4.81 -0.04,0.05 -0.1,0.07 -0.14,0.14 l -0.8,1.3 c -0.72,1.92 -2.25,5.64 -4.57,11.06 -0.13,0.32 -0.2,0.66 -0.2,1 0,0.55 0.17,1.1 0.52,1.55 2.39,3.12 10.22,11.05 13.63,11.86 0.7,0.16 1.45,0.02 2.04,-0.38 0,0 7.43,-5.14 9.55,-6.61 1.83,1.13 4.54,2.77 6.52,3.73 0.2,1.87 1.48,13.21 1.48,13.21 0.1,0.96 0.74,1.77 1.65,2.11 6.86,2.54 11.32,3.65 14.9,3.71 0.89,0.01 1.73,-0.44 2.21,-1.2 l 5.79,-9.27 c 0.41,-0.66 0.65,-1.04 0.82,-1.34 1.39,-0.07 3.27,-0.23 4.92,-0.52 1.04,1.34 6.27,8.06 6.27,8.06 0.61,0.79 1.64,1.15 2.61,0.91 4.42,-1.06 9.02,-4.36 9.21,-4.49 0.13,-0.1 0.26,-0.21 0.38,-0.33 0.36,-0.39 9.02,-9.75 10.31,-11.28 0.4,-0.47 0.61,-1.06 0.61,-1.65 0,-0.42 -0.1,-0.85 -0.33,-1.24 0,0 -0.44,-0.77 -0.6,-1.05 0.06,-0.04 0.13,-0.06 0.19,-0.11 l 10.22,-8.73 c 0.28,-0.24 0.52,-0.55 0.67,-0.9 1.51,-3.4 2.51,-7.08 2.95,-10.95 0.01,-0.09 0.01,-0.19 0.01,-0.29 0,-0.79 -0.37,-1.56 -1.03,-2.04 v 0 z m -4.28,12.25 -10.22,8.73 -3.85,-2.09 c 1.53,2.66 3.04,5.3 3.69,6.46 -1.27,1.5 -10.24,11.2 -10.24,11.2 0,0 -4.33,3.12 -8.32,4.08 -7.25,-9.33 0,0 -7.25,-9.33 -2.52,0.77 -7.85,0.88 -7.85,0.88 0,0 -0.03,-0.03 -0.07,-0.07 -0.06,0.42 -0.12,0.81 -0.17,1.14 -0.02,0.15 0,0 -6.64,10.67 -3.59,-0.05 -8.28,-1.41 -14.06,-3.55 -1.65,-14.68 0,0 -1.65,-14.68 -1.85,-0.52 -8.97,-5.04 -8.97,-5.04 0,0 0,0 -10.93,7.56 -2.2,-0.52 -9.46,-7.35 -12.19,-10.93 4.98,-11.61 4.76,-11.39 4.92,-11.53 0,0 0.04,0.01 0.01,-0.01 l 1.41,-1.62 c -1.1,-1.79 -2.81,-4.74 -3.97,-7.56 l -2.13,-0.18 c -0.67,-0.05 -1.3,-0.11 -1.88,-0.16 l -1.05,-0.09 c -0.41,-0.03 -0.8,-0.06 -1.17,-0.1 l -1.16,-0.1 c -0.69,-0.06 -1.26,-0.11 -1.73,-0.15 l -0.76,-0.06 c -0.1,0 -0.2,-0.01 -0.29,-0.02 l -0.42,-0.03 c -0.06,0 -0.12,-0.01 -0.18,-0.01 l -0.23,-0.02 c -0.07,0 -0.13,-0.01 -0.17,-0.01 l -0.09,0 c -0.01,0 -0.01,0 -0.01,0 l -1.49,-11.75 2.03,-13.98 13.04,-0.76 -8.06,-5.42 c 0,0 0.52,-10.65 0.59,-11.38 1.84,-2.78 4.07,-5.22 6.59,-7.31 2.43,1.19 9.34,4.55 11.14,5.42 0.64,-0.51 1.31,-0.99 2,-1.45 -0.02,-2.43 -0.09,-9.99 0.08,-11.43 0,0 0.07,0.14 0.21,0.38 3.44,-1.04 7.11,-1.71 10.93,-1.98 l 6.02,7.61 c 2.91,-0.16 5.93,-0.03 9,0.39 l 2.29,-6.66 c 4.06,0.87 8.17,2.14 12.24,3.81 l -0.14,6.95 c 2.97,1.29 5.92,2.85 8.79,4.71 l 6.77,-3.16 c 3.35,2.36 6.47,4.98 9.34,7.77 l -4.25,5.44 c 2.33,2.57 4.38,5.3 6.12,8.13 1.43,0.3 8.05,1.71 10.43,2.22 2.09,3.71 3.75,7.54 4.93,11.4 -1.02,1.25 -7.21,4.75 -9.1,6.34 0,0.18 0.01,0.37 0.01,0.55 0,0.78 -0.03,1.56 -0.09,2.32 l 0.01,0.17 10.95,8.16 c -0.41,3.58 -1.32,7 -2.75,10.2 v 0 h 0 z"
     id="path2966"
     style="fill:#000000" /><path
     d="m 181.06,68.86 c -2.92,0.2 -6.75,0.57 -10.4,1.57 0.01,0 -0.68,0.17 -0.68,0.17 l -0.75,0.18 c -1.28,0.25 -1.99,1.02 -2.15,2.35 -0.09,0.78 -0.14,2.87 -0.14,6.19 0,0 0.01,2.07 0.01,3.12 -1.27,-0.62 -8.68,-4.23 -8.68,-4.23 -1.08,-0.52 -2.38,-0.37 -3.31,0.39 -2.81,2.32 -5.23,5.01 -7.2,7.98 -0.27,0.4 -0.44,0.88 -0.49,1.36 -0.09,0.87 -0.59,11.13 -0.61,11.56 0,0 0,0.15 0,0.15 0,1.02 0.5,1.97 1.35,2.55 0,0 0.22,0.15 0.49,0.33 -1.59,0.09 -3.94,0.23 -3.94,0.23 -1.44,0.08 -2.65,1.18 -2.86,2.62 l -2.03,13.98 c 0,0 -0.03,0.44 -0.03,0.44 l 0.02,0.38 c 0,0 1.49,11.76 1.49,11.76 0.18,1.42 1.36,2.55 2.8,2.67 0,0 8.97,0.79 9.52,0.83 0.8,1.71 1.61,3.2 2.21,4.26 -0.11,0.18 -0.75,1.23 -0.75,1.23 -0.76,2.01 -2.3,5.73 -4.61,11.13 l -0.24,1.21 c 0,0.67 0.22,1.33 0.63,1.87 2.49,3.26 10.34,11.2 13.92,12.05 0.84,0.2 1.74,0.03 2.46,-0.46 0,0 7.74,-5.36 9.27,-6.41 1.53,0.94 4.05,2.46 6.02,3.44 0.05,0.52 1.45,12.93 1.45,12.93 0.13,1.16 0.89,2.13 1.99,2.54 6.92,2.56 11.43,3.68 15.08,3.74 1.07,0.01 2.09,-0.53 2.66,-1.45 l 5.79,-9.27 c 0,0 0.44,-0.72 0.68,-1.11 1.21,-0.07 2.83,-0.21 4.38,-0.46 0.34,0.44 6.08,7.82 6.08,7.82 0.74,0.95 1.97,1.38 3.15,1.1 4.35,-1.04 8.89,-4.21 9.39,-4.57 0.01,0 0.46,-0.41 0.46,-0.41 0.08,-0.09 9,-9.73 10.33,-11.3 0.47,-0.55 0.73,-1.26 0.73,-1.99 0,-0.52 -0.13,-1.04 -0.39,-1.5 0,0 -0.2,-0.34 -0.37,-0.64 1.24,-1.06 10.06,-8.6 10.06,-8.6 0.34,-0.29 0.62,-0.67 0.81,-1.08 1.53,-3.45 2.54,-7.18 3,-11.1 0,0 0.01,-0.35 0.01,-0.35 0,-0.96 -0.46,-1.88 -1.23,-2.46 0,0 -9.17,-6.84 -9.64,-7.19 0.4,-0.27 2.79,-1.83 2.79,-1.83 3.29,-2.11 4.82,-3.14 5.62,-4.12 0.44,-0.54 0.69,-1.23 0.69,-1.94 l -0.13,-0.89 c -1.22,-4.04 -2.97,-8.09 -5.19,-12.02 -0.43,-0.76 -1.17,-1.31 -2.03,-1.49 0,0 -8.2,-1.75 -9.23,-1.97 -1.16,-1.79 -2.51,-3.61 -4.02,-5.43 0.42,-0.54 2.73,-3.5 2.73,-3.5 0.41,-0.53 0.65,-1.21 0.65,-1.89 0,-0.83 -0.33,-1.62 -0.93,-2.2 -3.02,-2.94 -6.3,-5.66 -9.71,-8.07 -0.89,-0.63 -2.07,-0.74 -3.07,-0.27 0,0 -4.88,2.28 -5.31,2.48 -1.85,-1.12 -3.81,-2.17 -5.82,-3.13 0.01,-0.51 0.1,-5.05 0.1,-5.05 0,-1.25 -0.75,-2.37 -1.9,-2.84 -4.15,-1.7 -8.45,-3.04 -12.76,-3.97 -1.52,-0.32 -3.05,0.53 -3.56,2 0,0 -1.28,3.74 -1.5,4.37 -1.87,-0.16 -3.7,-0.25 -5.41,-0.21 -0.3,-0.37 -5.06,-6.4 -5.06,-6.4 -0.63,-0.79 -1.61,-1.23 -2.63,-1.16 z m -13.09,14.44 -0.02,-3.95 c 0,-4.08 0.07,-5.55 0.13,-6.06 0.1,-0.88 0.47,-1.29 1.32,-1.46 0,0 0.81,-0.19 0.81,-0.19 l 0.68,-0.17 c 3.57,-0.98 7.33,-1.34 10.21,-1.54 0.67,-0.04 1.32,0.24 1.74,0.76 l 5.38,6.8 0.26,0 c 1.87,-0.04 3.88,0.02 5.96,0.22 l 0.41,0.04 1.76,-5.13 c 0.33,-0.97 1.34,-1.54 2.35,-1.32 4.25,0.91 8.49,2.23 12.59,3.92 0.76,0.31 1.26,1.05 1.26,1.88 l -0.11,5.69 0.3,0.14 c 2.17,1.02 4.29,2.15 6.28,3.38 l 0.24,0.14 5.8,-2.71 c 0.65,-0.31 1.43,-0.24 2.03,0.18 3.37,2.38 6.59,5.06 9.59,7.97 0.39,0.38 0.61,0.9 0.61,1.46 0,0.45 -0.14,0.88 -0.43,1.25 l -3.25,4.16 0.27,0.32 c 1.64,1.94 3.09,3.91 4.33,5.83 l 0.11,0.18 9.64,2.06 c 0.57,0.12 1.06,0.48 1.34,0.98 2.18,3.86 3.89,7.84 5.1,11.81 0,0 0.08,0.59 0.08,0.59 0,0.46 -0.16,0.92 -0.45,1.28 -0.7,0.85 -2.17,1.84 -5.37,3.9 l -3.29,2.16 v 0.26 l -0.02,0.77 10.11,7.54 c 0.51,0.38 0.81,0.99 0.81,1.63 l -0.01,0.24 c -0.43,3.8 -1.41,7.43 -2.91,10.79 -0.12,0.27 -0.3,0.52 -0.53,0.71 l -10.22,8.73 -0.48,0.24 0.18,0.52 0.6,1.05 c 0.17,0.3 0.26,0.64 0.26,0.98 0,0.47 -0.17,0.94 -0.48,1.31 -1.31,1.55 -10.21,11.17 -10.3,11.27 l -0.3,0.27 c -0.49,0.34 -4.87,3.41 -9.03,4.41 -0.77,0.18 -1.59,-0.09 -2.08,-0.72 l -6.46,-8.31 -0.31,0.05 c -1.68,0.29 -3.57,0.44 -4.86,0.51 l -0.27,0.01 -0.96,1.57 c 0,0 -5.79,9.27 -5.79,9.27 -0.37,0.6 -1.05,0.97 -1.76,0.96 -3.51,-0.05 -7.92,-1.15 -14.73,-3.68 -0.72,-0.26 -1.22,-0.91 -1.31,-1.68 l -1.51,-13.49 -0.25,-0.12 c -2.05,-1 -4.94,-2.75 -6.47,-3.71 l -0.29,-0.17 -9.83,6.8 c -0.47,0.32 -1.06,0.44 -1.63,0.3 -3.24,-0.77 -11.05,-8.68 -13.34,-11.67 -0.27,-0.35 -0.41,-0.79 -0.41,-1.23 l 0.16,-0.79 c 2.31,-5.41 3.85,-9.14 4.58,-11.08 0,0 0.73,-1.16 0.75,-1.2 0,0 0.12,-0.11 0.12,-0.11 l 0.29,-0.28 -0.25,-0.29 c -0.63,-1.09 -1.58,-2.81 -2.48,-4.76 l -0.12,-0.27 -10.12,-0.89 c -0.95,-0.08 -1.74,-0.82 -1.86,-1.77 l -1.49,-11.75 c 0,0 -0.01,-0.25 -0.01,-0.25 l 0.02,-0.29 c 0,0 2.03,-13.98 2.03,-13.98 0.13,-0.95 0.93,-1.68 1.89,-1.73 l 7.02,-0.41 -3.05,-2.06 c -0.56,-0.37 -0.89,-1.01 -0.89,-1.68 0.14,-3.06 0.53,-10.9 0.61,-11.6 0.03,-0.32 0.14,-0.63 0.32,-0.9 1.91,-2.88 4.26,-5.5 6.99,-7.75 0.61,-0.5 1.47,-0.6 2.19,-0.25 l 10.19,4.96 0,-0.84 z"
     id="path2968"
     style="fill:#000000" /><path
     d="m 181.24,71.41 c -3.7,0.26 -7.27,0.91 -10.64,1.9 0,0 -0.8,-1.4 -0.8,-1.4 l -0.19,1.55 c -0.09,0.79 -0.12,3.28 -0.12,5.87 0,1.99 0.01,4.01 0.02,5.36 -0.3,0.22 -1.17,0.85 -1.53,1.11 -0.53,-0.26 -11.15,-5.43 -11.15,-5.43 l -0.26,0.21 c -2.61,2.16 -4.87,4.66 -6.7,7.42 l -0.07,0.1 -0.01,0.12 c -0.08,0.74 -0.58,10.98 -0.6,11.41 l -0.01,0.29 c 0,0 5.21,3.5 7.02,4.72 -2.39,0.14 -11.93,0.69 -11.93,0.69 l -2.1,14.47 1.55,12.24 c 0,0 10.86,0.95 11.44,1 1.08,2.56 2.54,5.15 3.68,7.01 -0.33,0.38 -1.16,1.33 -1.16,1.33 -0.13,0.11 -0.13,0.11 -0.56,1.16 l -4.58,10.8 0.18,0.24 c 2.73,3.57 10.07,10.55 12.49,11.12 l 0.22,0.05 c 0,0 10.3,-7.13 10.84,-7.5 1.21,0.76 6.45,4.03 8.47,4.78 0.06,0.56 1.65,14.68 1.65,14.68 l 0.3,0.11 c 6.54,2.42 10.93,3.53 14.23,3.58 l 0.29,0 5.95,-9.52 c 0.88,-1.4 0.88,-1.4 0.91,-1.6 0,0 0.04,-0.31 0.09,-0.62 1.17,-0.03 5,-0.21 7.28,-0.81 0.36,0.47 7.26,9.33 7.26,9.33 l 0.32,-0.07 c 4.04,-0.97 8.32,-4.04 8.5,-4.17 0.44,-0.46 9.06,-9.79 10.33,-11.29 l 0.23,-0.27 c 0,0 -1.93,-3.37 -2.96,-5.18 1.09,0.59 2.55,1.39 2.55,1.39 l 10.58,-9.04 0.04,-0.1 c 1.43,-3.21 2.37,-6.7 2.79,-10.35 l 0.03,-0.29 c 0,0 -10.62,-7.92 -11,-8.2 0,-0.17 0.09,-2.22 0.09,-2.22 0,0 0,-0.24 0,-0.3 0.86,-0.68 2.42,-1.69 3.96,-2.68 2.26,-1.45 4.39,-2.82 5.01,-3.58 l 0.17,-0.21 -0.07,-0.26 c -1.17,-3.86 -2.84,-7.73 -4.97,-11.51 l -0.11,-0.2 c 0,0 -10.09,-2.15 -10.46,-2.23 -1.64,-2.66 -3.58,-5.24 -5.76,-7.68 0.45,-0.58 4.28,-5.48 4.28,-5.48 l -0.33,-0.32 c -2.94,-2.86 -6.11,-5.49 -9.4,-7.82 l -0.24,-0.17 c 0,0 -6.33,2.95 -6.79,3.17 -2.64,-1.68 -5.43,-3.18 -8.29,-4.44 0.01,-0.6 0.14,-6.97 0.14,-6.97 l -0.32,-0.13 C 207,74.93 202.85,73.64 198.69,72.74 l -0.45,-0.09 c 0,0 -2.08,6.05 -2.31,6.72 -2.85,-0.36 -5.67,-0.5 -8.39,-0.37 -0.3,-0.38 -6.03,-7.62 -6.03,-7.62 l -0.27,0.01 z m -0.19,1.07 c 0.34,0.43 6.01,7.59 6.01,7.59 l 0.27,-0.01 c 2.86,-0.16 5.86,-0.03 8.9,0.38 l 0.42,0.05 c 0,0 2,-5.81 2.27,-6.61 3.84,0.85 7.66,2.04 11.38,3.55 -0.01,0.66 -0.14,6.92 -0.14,6.92 l 0.31,0.13 c 3.01,1.31 5.94,2.88 8.71,4.67 l 0.24,0.15 c 0,0 6.22,-2.9 6.74,-3.15 3.03,2.16 5.96,4.59 8.69,7.22 -0.51,0.66 -4.22,5.41 -4.22,5.41 l 0.29,0.32 c 2.31,2.54 4.35,5.25 6.06,8.05 l 0.11,0.19 c 0,0 9.95,2.12 10.41,2.22 1.98,3.54 3.55,7.17 4.67,10.8 -0.71,0.69 -2.72,2 -4.56,3.18 -1.74,1.12 -3.4,2.18 -4.26,2.9 l -0.19,0.16 0.02,0.79 -0.09,2.28 c 0,0.08 0.01,0.25 0.01,0.25 l 0.01,0.23 c 0,0 10.39,7.74 10.88,8.11 -0.41,3.4 -1.29,6.66 -2.62,9.67 -0.2,0.16 -9.33,7.97 -9.84,8.41 -0.53,-0.29 -5.15,-2.8 -5.15,-2.8 0,0 4.09,7.16 4.42,7.73 -1.83,2.09 -9.9,10.82 -9.99,10.91 0.03,-0.03 -3.99,2.83 -7.74,3.83 -0.38,-0.49 -7.26,-9.33 -7.26,-9.33 l -0.34,0.1 c -2.42,0.74 -7.66,0.86 -7.71,0.86 l -0.43,0 -0.13,0.35 c 0,0 -0.17,1.13 -0.17,1.13 0,-0.02 -0.76,1.19 -0.76,1.19 0,0 -5.31,8.5 -5.63,9.01 -3.08,-0.1 -7.22,-1.15 -13.3,-3.39 -0.06,-0.59 -1.65,-14.7 -1.65,-14.7 l -0.33,-0.09 c -1.46,-0.41 -6.87,-3.73 -8.83,-4.98 l -0.29,-0.18 c 0,0 -10.53,7.29 -10.98,7.6 -2.13,-0.72 -8.68,-6.8 -11.53,-10.43 0.23,-0.55 4.71,-11.11 4.71,-11.11 0.01,0 1.43,-1.63 1.43,-1.63 l 0.25,-0.29 -0.2,-0.32 c -0.96,-1.56 -2.75,-4.61 -3.93,-7.49 l -0.12,-0.29 c 0,0 -11.18,-0.98 -11.22,-0.98 -0.1,-0.77 -1.41,-11.13 -1.43,-11.27 0.01,-0.13 1.85,-12.7 1.96,-13.49 0.79,-0.04 14.16,-0.83 14.16,-0.83 0,0 -8.63,-5.81 -9.09,-6.12 0.17,-3.61 0.49,-9.98 0.57,-10.92 1.7,-2.55 3.78,-4.85 6.18,-6.87 0.61,0.29 11.09,5.4 11.09,5.4 l 2.45,-1.79 0.01,-0.28 c -0.01,-1.09 -0.03,-3.39 -0.03,-5.65 0,-1.92 0.01,-3.79 0.06,-4.91 3.3,-0.99 6.82,-1.63 10.46,-1.9 z"
     id="path2970"
     style="fill:#000000" /><linearGradient
     x1="248.17"
     y1="147.22"
     x2="150.16"
     y2="91.290001"
     id="gradient3"
     gradientUnits="userSpaceOnUse"><stop
       id="stop2973"
       style="stop-color:#c5cad3;stop-opacity:1"
       offset="0" /><stop
       id="stop2975"
       style="stop-color:#787e87;stop-opacity:1"
       offset="0.2527" /><stop
       id="stop2977"
       style="stop-color:#9398a1;stop-opacity:1"
       offset="0.42910001" /><stop
       id="stop2979"
       style="stop-color:#aeb4bd;stop-opacity:1"
       offset="0.6534" /><stop
       id="stop2981"
       style="stop-color:#bfc4cd;stop-opacity:1"
       offset="0.85110003" /><stop
       id="stop2983"
       style="stop-color:#c5cad3;stop-opacity:1"
       offset="1" /></linearGradient><path
     d="m 161.35,94.96 c -1.46,3.05 -1.88,6.67 -2.13,10.08 l -14.51,0.84 c -0.19,4.15 0.79,7.92 1.87,12.22 l 14.77,0.85 c 1.46,3.93 4.4,8.8 7.1,12.5 l -8.52,10.22 c 2.47,3.04 3.88,5.32 8.66,9.23 0,0 -0.14,0 11.65,-8.09 2.41,2.41 9.62,5.86 12.93,7.24 l 0.42,14.91 c 5.08,1.79 7.71,2.26 12.78,2.84 0.54,-3.58 1.89,-13.28 1.99,-13.92 3.82,0.22 9.54,-0.1 13.07,-0.85 l 8.66,12.78 c 2.55,-0.71 8.44,-3.79 9.8,-4.83 -1.29,-2.31 -5.66,-10.58 -7.1,-13.07 2.12,-1.72 4.89,-4.65 6.39,-6.96 0.05,-0.08 12.36,6.53 12.36,6.53 1.42,-3.19 2.64,-5.8 3.05,-9.38 l -11.86,-8.94 c 0.24,-1.88 0.28,-6.45 -0.14,-8.66 l 10.22,0.04 c -1.17,-3.86 -2.83,-7.69 -4.93,-11.4 -2.38,-0.51 -9,-1.92 -10.43,-2.22 -1.72,-2.83 -3.78,-5.56 -6.11,-8.13 l 4.25,-5.44 c -2.86,-2.78 -5.98,-5.4 -9.34,-7.77 l -6.77,3.16 c -2.86,-1.85 -5.81,-3.41 -8.79,-4.71 l 0.14,-6.94 c -4.07,-1.67 -8.17,-2.93 -12.24,-3.81 l -2.29,6.66 c -3.07,-0.42 -6.08,-0.55 -9,-0.39 l -6.02,-7.6 c -3.82,0.26 -7.63,0.68 -11.08,1.73 l 4.86,8.59 c -2.57,1.08 -4.93,2.46 -7.03,4.16 -1.79,-0.86 -8.7,-4.22 -11.13,-5.42 -2.52,2.09 -4.75,4.52 -6.59,7.31 m 78.58,44.36 c -7.19,11.09 -25.3,12.13 -40.43,2.31 -15.13,-9.82 -21.55,-26.78 -14.35,-37.87 7.2,-11.09 25.3,-12.13 40.44,-2.31 15.13,9.82 21.55,26.78 14.34,37.87 z"
     id="path2985"
     style="fill:url(#gradient3)" /><path
     d="m 192.46,164.51 -5.64,11.82 6.81,-10.23"
     id="path2987"
     style="fill:#ffffff" /><path
     d="m 229.23,166.96 -6.18,9.59 7.77,-9.37"
     id="path2989"
     style="fill:#ffffff" /><path
     d="m 168.27,152.15 -3.09,12.04 4.36,-12.14"
     id="path2991"
     style="fill:#ffffff" /><path
     d="m 145.89,117.94 -1.7,13.53 2.34,-12.78"
     id="path2993"
     style="fill:#ffffff" /><path
     d="m 213.84,94.31 c -15.07,-9.32 -32.94,-8.28 -40.06,3.32 -0.95,1.55 -1.62,3.37 -2.06,5.09 0.43,-1.36 1.16,-2.62 1.92,-3.87 6.81,-11.13 24.59,-12.67 39.71,-3.41 15.12,9.25 21.85,25.77 15.04,36.92 -1.16,1.9 -2.65,3.51 -4.39,4.85 2.1,-1.39 3.88,-3.17 5.21,-5.35 6.81,-11.14 0.88,-27.5 -15.37,-37.55 z"
     id="path2995"
     style="fill:#ffffff" /><path
     d="m 52.55,78.58 c -6.22,2.91 -9.97,7.81 -10.83,14.18 l -0.01,0.08 -0.05,1.71 c -0.29,6.57 -0.8,17.58 24.67,34.12 9.44,6.13 21.7,7.65 36.43,4.52 l 0.16,-0.03 0.15,-0.06 c 0.31,-0.13 7.65,-3.38 9.95,-8.44 l 0.02,-0.06 0.02,-0.06 C 117.79,111.18 108.48,93.5 90.9,82.51 79.3,75.26 63.17,73.62 52.54,78.6 z m 1.4,2.99 c 9.53,-4.46 24.66,-2.86 35.21,3.72 13.37,8.36 21.81,21.16 21.81,31.99 0,2.11 -0.32,4.14 -0.99,6.06 -1.47,3.13 -6.18,5.79 -8.07,6.65 -13.77,2.89 -25.14,1.52 -33.79,-4.08 -21.21,-13.77 -23.23,-23.06 -23.23,-29.08 0,-0.75 0.03,-1.46 0.06,-2.12 0,0 0.04,-1.27 0.05,-1.54 0.9,-6.53 5.36,-9.9 8.95,-11.59 z"
     id="path2997"
     style="fill:#000000" /><path
     d="m 52.33,78.13 c -6.38,2.99 -10.22,8.02 -11.12,14.56 l -0.01,0.13 -0.05,1.71 c -0.03,0.76 -0.07,1.59 -0.07,2.49 0,6.84 2.22,17.3 24.97,32.06 9.55,6.2 21.94,7.75 36.81,4.59 0,0 0.16,-0.03 0.16,-0.03 0.08,-0.02 0.24,-0.09 0.24,-0.09 0.32,-0.14 7.83,-3.46 10.21,-8.7 0.04,-0.09 0.06,-0.16 0.06,-0.16 C 118.34,111.11 108.94,93.18 91.16,82.07 79.43,74.74 63.1,73.08 52.32,78.13 z m 14.26,50.14 C 41.36,111.89 41.85,101.06 42.15,94.59 c 0,0 0.05,-1.72 0.05,-1.72 0.85,-6.21 4.5,-10.98 10.56,-13.82 10.48,-4.91 26.41,-3.28 37.88,3.88 17.38,10.86 26.62,28.29 21.96,41.44 -2.26,4.97 -9.43,8.15 -9.73,8.28 0,0 -0.14,0.06 -0.14,0.06 -14.67,3.11 -26.8,1.61 -36.13,-4.44 z M 52.33,78.13 v 0 z"
     id="path2999"
     style="fill:#000000" /><path
     d="m 53.74,81.12 c -3.69,1.73 -8.29,5.21 -9.23,11.97 0,0.05 -0.05,1.59 -0.05,1.59 0,0 -0.06,2.14 -0.06,2.14 0,6.64 2.66,16 23.46,29.5 8.76,5.68 20.25,7.08 34.17,4.15 0.36,-0.15 6.58,-3 8.42,-6.93 0.69,-1.99 1.04,-4.08 1.04,-6.27 0,-11.14 -8.86,-24.17 -22.05,-32.41 C 78.77,78.19 63.42,76.58 53.75,81.11 z m 35.16,4.6 c 12.91,8.06 21.58,20.75 21.58,31.56 0,2.06 -0.32,4.05 -0.96,5.89 -1.32,2.82 -5.69,5.4 -7.81,6.36 -13.54,2.83 -24.78,1.48 -33.31,-4.05 -20.39,-13.23 -23,-22.27 -23,-28.66 l 0.06,-2.09 c 0,-0.01 0.05,-1.56 0.05,-1.56 0.87,-6.26 5.19,-9.52 8.66,-11.15 9.38,-4.4 24.32,-2.81 34.73,3.69 z"
     id="path3001"
     style="fill:#000000" /><path
     d="m 157.97,128.08 c 0,0 -10.55,-7.86 -12.78,-9.53 0.01,-0.31 0.01,-0.38 0.02,-0.64 1.08,-0.76 2.56,-1.71 3.93,-2.59 4.19,-2.69 6.13,-3.99 7.1,-5.18 0.48,-0.59 0.74,-1.33 0.74,-2.08 0,-0.31 -0.04,-0.64 -0.14,-0.95 -1.57,-5.17 -3.8,-10.35 -6.65,-15.39 -0.46,-0.82 -1.26,-1.4 -2.18,-1.6 0,0 -11.22,-2.39 -12.18,-2.6 -1.67,-2.62 -3.58,-5.15 -5.65,-7.61 1.61,-2.06 3.86,-4.94 3.86,-4.94 0.46,-0.6 0.69,-1.31 0.69,-2.03 0,-0.86 -0.33,-1.72 -1,-2.37 -3.89,-3.78 -8.08,-7.26 -12.46,-10.36 -0.96,-0.68 -2.22,-0.79 -3.3,-0.29 0,0 -5.05,2.36 -7.17,3.35 -2.64,-1.62 -5.37,-3.09 -8.18,-4.4 0.05,-2.47 0.14,-6.9 0.14,-6.93 0,-1.33 -0.8,-2.54 -2.04,-3.05 -5.33,-2.19 -10.83,-3.9 -16.37,-5.1 -1.63,-0.35 -3.27,0.57 -3.81,2.15 0,0 -1.24,3.61 -2.1,6.12 C 75.81,51.81 73.2,51.7 70.65,51.77 69.11,49.82 63.9,43.24 63.9,43.24 63.23,42.39 62.17,41.92 61.08,42 c -4.59,0.32 -9.02,1.14 -13.25,2.3 -0.5,-0.15 -1.02,-0.29 -1.57,-0.18 -1.39,0.27 -2.45,1.42 -2.63,2.83 -0.13,1.11 -0.18,4.28 -0.18,7.91 0,1.66 0.01,3.4 0.02,5.11 -3.13,-1.52 -12.19,-5.94 -12.19,-5.94 -1.16,-0.56 -2.56,-0.4 -3.56,0.41 -3.57,2.95 -6.66,6.38 -9.17,10.16 -0.29,0.44 -0.47,0.94 -0.52,1.47 -0.1,0.96 -0.63,11.64 -0.79,14.89 0,0.05 0,0.1 0,0.16 0,1.09 0.54,2.12 1.45,2.73 0,0 1.5,1.01 2.29,1.54 -3.45,0.2 -7.08,0.41 -7.08,0.41 -1.56,0.09 -2.84,1.27 -3.07,2.82 L 8.2,106.68 c -0.02,0.15 -0.03,0.31 -0.03,0.47 0,0.13 0,0.27 0.02,0.41 l 1.93,15.18 c 0.19,1.54 1.46,2.74 3.01,2.87 0,0 12.33,1.08 12.68,1.11 1.01,2.2 2.16,4.37 3.23,6.21 -0.05,0.07 -0.12,0.09 -0.18,0.18 l -1.04,1.68 c -0.93,2.48 -2.91,7.29 -5.9,14.29 -0.17,0.41 -0.26,0.85 -0.26,1.29 0,0.71 0.23,1.41 0.67,2 3.09,4.04 13.2,14.27 17.6,15.32 0.91,0.21 1.87,0.03 2.64,-0.49 0,0 9.6,-6.64 12.33,-8.53 2.36,1.47 5.87,3.58 8.42,4.82 0.27,2.42 1.91,17.06 1.91,17.06 0.13,1.23 0.96,2.29 2.13,2.72 8.86,3.29 14.62,4.72 19.25,4.79 1.15,0.02 2.24,-0.57 2.85,-1.55 l 7.48,-11.97 c 0.54,-0.86 0.84,-1.35 1.06,-1.73 1.79,-0.1 4.22,-0.3 6.36,-0.67 1.35,1.73 8.09,10.41 8.09,10.41 0.79,1.02 2.11,1.48 3.37,1.18 5.71,-1.37 11.65,-5.63 11.9,-5.81 0.17,-0.12 0.34,-0.27 0.49,-0.43 0.47,-0.51 11.64,-12.59 13.32,-14.57 0.52,-0.61 0.79,-1.37 0.79,-2.13 0,-0.55 -0.14,-1.1 -0.43,-1.61 0,0 -0.57,-0.99 -0.78,-1.36 0.08,-0.05 0.17,-0.08 0.25,-0.14 l 13.2,-11.28 c 0.37,-0.31 0.66,-0.71 0.86,-1.16 1.95,-4.39 3.24,-9.15 3.82,-14.14 0.01,-0.12 0.02,-0.25 0.02,-0.37 0,-1.03 -0.48,-2.02 -1.32,-2.64 v 0 z m -55.71,2.62 C 91.57,132.97 78.99,132.48 67.97,125.34 41.03,107.85 43.13,99.69 43.18,93.53 45.65,75.35 73.34,74.12 89.87,84.45 c 16.52,10.33 26.03,27.27 21.48,40.08 -2.06,4.54 -9.08,6.19 -9.08,6.19 z"
     id="path3003"
     style="fill:#000000;fill-opacity:0.12939998" /><linearGradient
     x1="119.33"
     y1="119.34"
     x2="119.33"
     y2="119.34"
     id="gradient4"
     gradientUnits="userSpaceOnUse"><stop
       id="stop3006"
       style="stop-color:#ffa800;stop-opacity:1"
       offset="0" /><stop
       id="stop3008"
       style="stop-color:#ffcc00;stop-opacity:1"
       offset="1" /></linearGradient><path
     d="M 119.33,119.34"
     id="path3010"
     style="fill:url(#gradient4)" /><path
     d="m 30.65,69.41 -9.87,-7.34 c 0,0.01 -5.03,-1.21 -5.03,-1.2 -0.1,0.94 -0.77,14.7 -0.77,14.7 l 12.32,8.29 3.37,-14.45 v 0 z"
     id="path3012"
     style="fill:#9ba1aa" /><path
     d="m 69.72,141.95 -15.13,-8.38 -14.95,10.28 -14.08,-13.8 c -0.2,0.18 0.21,-0.06 -6.16,14.85 3.53,4.61 12.89,13.43 15.75,14.12 14.12,-9.77 14.12,-9.77 14.12,-9.77 0,0 9.18,5.83 11.58,6.51 2.13,18.95 0,0 2.13,18.95 7.46,2.76 13.51,4.51 18.16,4.59 8.57,-13.78 8.54,-13.57 8.57,-13.78 l -19.78,-4.62 -0.2,-18.95 z"
     id="path3014"
     style="fill:#d7dadd" /><path
     d="m 106.77,146.38 -14.32,0.97 -3.4,15.76 c 0,0 0.97,1.03 0.97,1.03 0,0 6.88,-0.15 10.14,-1.14 9.37,12.05 0,0 9.37,12.05 5.15,-1.23 10.75,-5.27 10.75,-5.27 0,0 11.57,-12.52 13.23,-14.47 l -15.34,7.84 -11.4,-16.77 h 0 v 0 z"
     id="path3016"
     style="fill:#c5cad3" /><path
     d="m 135.86,111.25 c 1.35,-1.66 10.87,-6.94 12.32,-8.72 l -12.81,-0.07 0.48,8.8 z"
     id="path3018"
     style="fill:#d7dadd" /><path
     d="m 119.54,141.95 14.19,7.72 13.2,-11.27 -15.85,-9.24"
     id="path3020"
     style="fill:#d7dadd" /><path
     d="m 41.34,41.77 c -0.27,2.22 -0.1,15.75 -0.1,15.75 0,0 0,0 0,0 l 6.49,-4.47 c 0,0 -6.38,-11.27 -6.38,-11.27 v 0 z"
     id="path3022"
     style="fill:#9ba1aa" /><path
     d="M 29.23,101.81 11.4,100.11 8.53,83.58 5.9,101.64 7.83,116.82 c 0,0 0,0 14.63,1.28 2.35,5.74 6.51,11.95 6.51,11.95 l 7.36,-12.24 -7.1,-16 v 0 z"
     id="path3024"
     style="fill:#c5cad3" /><path
     d="M 8.39,83.93 6.94,101.9 7.81,116.81 10.25,100"
     id="path3026"
     style="fill:#d7dadd" /><path
     d="m 29.23,101.81 -6.77,16.29 6.87,11.95 8.01,-13.36 -8.12,-14.88"
     id="path3028"
     style="fill:#c5cad3" /><linearGradient
     x1="48.549999"
     y1="167.16"
     x2="48.549999"
     y2="39.400002"
     id="gradient5"
     gradientUnits="userSpaceOnUse"><stop
       id="stop3031"
       style="stop-color:#ffcd00;stop-opacity:1"
       offset="0" /><stop
       id="stop3033"
       style="stop-color:#fff332;stop-opacity:1"
       offset="1" /></linearGradient><path
     d="m 55.51,39.4 -14.16,2.37 0.27,0.49 c 4.45,-1.35 9.19,-2.21 14.13,-2.56 l -0.24,-0.3 0,0 z"
     id="path3035"
     style="fill:url(#gradient5)" /><linearGradient
     x1="8.5"
     y1="159.92"
     x2="150.84"
     y2="159.92"
     id="gradient6"
     gradientUnits="userSpaceOnUse"><stop
       id="stop3038"
       style="stop-color:#ffcd00;stop-opacity:1"
       offset="0" /><stop
       id="stop3040"
       style="stop-color:#fff332;stop-opacity:1"
       offset="1" /></linearGradient><path
     d="m 127.91,158.98 c -1.21,0.61 -2.49,1.26 -3.69,1.87 1.27,-0.57 2.5,-1.2 3.69,-1.87 z"
     id="path3042"
     style="fill:url(#gradient6)" /><path
     d="m 136.33,114.67 -0.01,-0.22 c 0.07,-0.99 0.12,-1.99 0.12,-3 0,-2.72 -0.29,-5.52 -0.85,-8.37 l 12.59,-0.53 c -1.51,-4.99 -3.66,-9.93 -6.36,-14.73 -3.07,-0.66 -11.62,-2.48 -13.47,-2.87 -2.23,-3.65 -4.89,-7.18 -7.9,-10.5 l 5.49,-7.03 c -3.7,-3.6 -7.73,-6.97 -12.06,-10.03 l -8.74,4.08 c -3.7,-2.39 -7.51,-4.41 -11.35,-6.08 l 0.18,-8.97 C 88.72,44.26 83.42,42.63 78.16,41.5 l -2.95,8.6 C 71.25,49.56 67.35,49.39 63.59,49.6 l -7.77,-9.82 c -4.93,0.34 -9.67,1.2 -14.13,2.56 l 6.1,10.77 c -3.32,1.39 -6.37,3.18 -9.08,5.38 -2.31,-1.12 -11.23,-5.46 -14.38,-7.01 -3.26,2.7 -6.13,5.84 -8.52,9.44 l 13.78,9.06 c -1.89,3.94 -2.96,8.19 -3.28,12.6 L 8.59,83.61 c -0.25,5.36 0.35,10.88 1.74,16.43 l 18.96,1.8 c 1.89,5.08 4.63,10.1 8.12,14.88 L 25.82,130 c 4,4.92 8.63,9.59 13.87,13.86 l 14.95,-10.28 0.05,0.03 c 0.86,0.6 1.73,1.2 2.63,1.78 3.99,2.59 8.17,4.78 12.44,6.56 l 0.2,18.95 c 6.56,2.31 13.23,3.87 19.78,4.62 0.69,-4.62 2.61,-17.34 2.73,-18.16 4.94,0.29 9.77,-0.01 14.32,-0.97 l 11.4,16.76 c 2.09,-0.66 4.1,-1.42 6.03,-2.29 1.2,-0.61 2.47,-1.25 3.69,-1.87 1.97,-1.1 3.85,-2.32 5.61,-3.67 -1.67,-2.99 -7.79,-13.59 -9.65,-16.8 2.74,-2.23 5.11,-4.85 7.04,-7.83 0.06,-0.1 0.12,-0.22 0.19,-0.33 l 15.82,8.05 c 1.84,-4.13 3.02,-8.55 3.55,-13.17 l -14.15,-10.55 v 0 z m -19.08,3.49 c -9.3,14.33 -32.68,15.66 -52.22,2.98 C 45.49,108.46 37.2,86.56 46.5,72.23 55.8,57.9 79.18,56.57 98.72,69.25 c 19.53,12.68 27.83,34.58 18.53,48.91 z"
     id="path3044"
     style="fill:#ffffff" /><path
     d="m 39.63,143.85 -4.5,15.17 14.12,-9.77 5.33,-15.68 -14.95,10.28"
     id="path3046"
     style="fill:#9ba1aa" /><path
     d="m 60.83,155.76 8.88,-13.81 0.2,18.95 -6.95,13.81 -2.13,-18.96"
     id="path3048"
     style="fill:#ffffff;fill-opacity:0.4" /><path
     d="m 106.68,146.67 -6.51,16.33 9.37,12.05 8.63,-11.9 -11.49,-16.48"
     id="path3050"
     style="fill:#ffffff;fill-opacity:0.4" /><path
     d="m 10.26,100.01 -2.44,16.81 14.63,1.28 6.77,-16.29"
     id="path3052"
     style="fill:#787e87;fill-opacity:0.49800002" /><path
     d="m 152.46,122.57 c 0,0 -10.54,-7.86 -12.78,-9.53 0.01,-0.32 0.01,-0.37 0.02,-0.64 1.08,-0.76 2.56,-1.71 3.93,-2.59 4.19,-2.69 6.12,-3.99 7.09,-5.18 0.48,-0.59 0.74,-1.33 0.74,-2.08 0,-0.32 -0.04,-0.64 -0.14,-0.95 -1.56,-5.18 -3.8,-10.36 -6.64,-15.39 -0.46,-0.82 -1.25,-1.4 -2.18,-1.6 0,0 -11.22,-2.39 -12.19,-2.6 -1.68,-2.62 -3.58,-5.15 -5.65,-7.61 1.61,-2.06 3.86,-4.94 3.86,-4.94 0.47,-0.6 0.69,-1.31 0.69,-2.03 0,-0.86 -0.33,-1.72 -1,-2.36 -3.89,-3.78 -8.08,-7.27 -12.46,-10.36 -0.96,-0.68 -2.22,-0.79 -3.3,-0.29 0,0 -5.05,2.36 -7.17,3.35 -2.64,-1.62 -5.37,-3.09 -8.18,-4.4 0.05,-2.47 0.14,-6.9 0.14,-6.92 0,-1.33 -0.8,-2.54 -2.04,-3.05 -5.33,-2.19 -10.84,-3.9 -16.37,-5.1 -1.63,-0.35 -3.27,0.57 -3.81,2.15 0,0 -1.24,3.61 -2.1,6.12 -2.63,-0.25 -5.24,-0.36 -7.79,-0.29 -1.54,-1.95 -6.75,-8.53 -6.75,-8.53 -0.67,-0.85 -1.73,-1.32 -2.82,-1.24 -4.59,0.32 -9.07,0.84 -13.3,2.01 -0.95,0.23 -1.36,0.36 -1.91,0.47 -1.39,0.27 -2.06,1.05 -2.24,2.46 -0.13,1.11 -0.18,4.28 -0.18,7.91 0,1.66 0.01,3.4 0.02,5.11 -3.13,-1.52 -12.19,-5.94 -12.19,-5.94 -1.16,-0.56 -2.56,-0.4 -3.56,0.41 -3.57,2.95 -6.66,6.38 -9.17,10.16 -0.29,0.44 -0.47,0.94 -0.52,1.47 -0.1,0.96 -0.63,11.64 -0.78,14.9 0,0.05 0,0.1 0,0.16 0,1.09 0.54,2.12 1.45,2.73 0,0 1.5,1.01 2.29,1.54 -3.45,0.2 -7.08,0.41 -7.08,0.41 -1.56,0.09 -2.84,1.26 -3.07,2.81 l -2.63,18.06 c -0.02,0.15 -0.03,0.31 -0.03,0.47 0,0.13 0,0.27 0.02,0.41 l 1.93,15.18 c 0.19,1.54 1.46,2.74 3.01,2.87 0,0 12.33,1.08 12.68,1.11 1.01,2.2 2.16,4.36 3.23,6.21 -0.05,0.07 -0.12,0.09 -0.18,0.18 l -1.04,1.68 c -0.93,2.48 -2.91,7.29 -5.9,14.29 -0.17,0.41 -0.26,0.85 -0.26,1.29 0,0.71 0.23,1.42 0.68,2 3.09,4.04 13.2,14.27 17.6,15.33 0.91,0.21 1.87,0.03 2.64,-0.49 0,0 9.6,-6.64 12.33,-8.53 2.36,1.46 5.87,3.57 8.42,4.82 0.27,2.42 1.91,17.06 1.91,17.06 0.14,1.23 0.96,2.29 2.13,2.72 8.86,3.28 14.62,4.72 19.25,4.79 1.15,0.02 2.24,-0.57 2.85,-1.55 l 7.48,-11.97 c 0.54,-0.86 0.84,-1.35 1.06,-1.73 1.79,-0.1 4.22,-0.3 6.35,-0.67 1.35,1.73 8.09,10.41 8.09,10.41 0.79,1.02 2.11,1.48 3.37,1.18 5.72,-1.37 11.65,-5.63 11.9,-5.8 0.17,-0.13 0.34,-0.27 0.49,-0.43 0.47,-0.51 11.65,-12.6 13.32,-14.57 0.51,-0.61 0.79,-1.37 0.79,-2.13 0,-0.55 -0.14,-1.1 -0.43,-1.6 0,0 -0.56,-0.99 -0.78,-1.36 0.08,-0.05 0.17,-0.08 0.25,-0.14 l 13.2,-11.27 c 0.37,-0.31 0.66,-0.71 0.86,-1.16 1.95,-4.39 3.24,-9.15 3.81,-14.14 0.01,-0.12 0.02,-0.25 0.02,-0.37 0,-1.03 -0.48,-2.02 -1.32,-2.65 v 0 z m -5.53,15.82 -13.2,11.27 -4.97,-2.71 c 1.97,3.43 3.93,6.85 4.77,8.34 -1.64,1.94 -13.23,14.47 -13.23,14.47 0,0 -5.59,4.03 -10.74,5.27 -9.37,-12.05 0,0 -9.37,-12.05 -3.25,0.99 -10.14,1.14 -10.14,1.14 0,0 -0.04,-0.04 -0.09,-0.09 -0.08,0.55 -0.15,1.04 -0.22,1.47 -0.03,0.2 0,0 -8.58,13.78 -4.64,-0.07 -10.69,-1.82 -18.15,-4.59 -2.13,-18.95 0,0 -2.13,-18.95 -2.39,-0.67 -11.58,-6.51 -11.58,-6.51 0,0 0,0 -14.12,9.77 -2.85,-0.68 -12.22,-9.5 -15.75,-14.12 6.43,-15 6.15,-14.71 6.35,-14.89 0,0 0.04,0.02 0.02,-0.02 l 1.83,-2.1 c -1.42,-2.31 -3.64,-6.13 -5.13,-9.77 l -2.76,-0.24 c -0.87,-0.07 -1.68,-0.14 -2.43,-0.21 l -1.36,-0.12 c -0.54,-0.04 -1.04,-0.09 -1.51,-0.13 l -1.5,-0.13 c -0.89,-0.07 -1.63,-0.14 -2.23,-0.19 L 9.73,117 C 9.6,116.99 9.48,116.98 9.36,116.97 l -0.54,-0.05 c -0.08,0 -0.16,-0.01 -0.23,-0.01 l -0.3,-0.02 c -0.1,0 -0.17,-0.01 -0.23,-0.01 l -0.11,-0.01 c -0.01,0 -0.01,0 -0.01,0 l -1.93,-15.18 2.63,-18.05 16.85,-0.98 -10.41,-7 c 0,0 0.67,-13.76 0.77,-14.7 2.38,-3.6 5.25,-6.74 8.52,-9.44 3.14,1.54 12.06,5.88 14.38,7 0.82,-0.66 1.69,-1.28 2.58,-1.88 -0.03,-3.14 -0.11,-12.9 0.11,-14.77 0,0 0.1,0.18 0.27,0.49 4.45,-1.35 9.19,-2.21 14.13,-2.56 l 7.77,9.82 c 3.76,-0.21 7.66,-0.04 11.62,0.5 l 2.95,-8.6 c 5.25,1.13 10.55,2.76 15.81,4.92 l -0.18,8.97 c 3.84,1.67 7.65,3.69 11.35,6.08 l 8.74,-4.08 c 4.33,3.06 8.36,6.43 12.06,10.03 l -5.49,7.03 c 3.01,3.32 5.66,6.85 7.9,10.5 1.85,0.39 10.39,2.21 13.47,2.87 2.7,4.79 4.85,9.74 6.36,14.73 -1.32,1.62 -9.31,6.14 -11.75,8.19 0,0.23 0.01,0.48 0.01,0.71 0,1.01 -0.04,2.01 -0.12,3 l 0.01,0.22 14.15,10.55 c -0.53,4.62 -1.71,9.04 -3.55,13.17 v 0 h 0 z"
     id="path3054"
     style="fill:#000000" /><linearGradient
     x1="142.14999"
     y1="136.92999"
     x2="15.57"
     y2="64.699997"
     id="gradient7"
     gradientUnits="userSpaceOnUse"><stop
       id="stop3057"
       style="stop-color:#c5cad3;stop-opacity:1"
       offset="0" /><stop
       id="stop3059"
       style="stop-color:#787e87;stop-opacity:1"
       offset="0.2527" /><stop
       id="stop3061"
       style="stop-color:#9398a1;stop-opacity:1"
       offset="0.42910001" /><stop
       id="stop3063"
       style="stop-color:#aeb4bd;stop-opacity:1"
       offset="0.6534" /><stop
       id="stop3065"
       style="stop-color:#bfc4cd;stop-opacity:1"
       offset="0.85110003" /><stop
       id="stop3067"
       style="stop-color:#c5cad3;stop-opacity:1"
       offset="1" /></linearGradient><path
     d="m 135.16,113.66 c 0.31,-2.43 0.37,-8.33 -0.18,-11.19 l 13.2,0.05 c -1.51,-4.99 -3.66,-9.93 -6.36,-14.73 -3.07,-0.66 -11.62,-2.48 -13.47,-2.87 -2.23,-3.65 -4.89,-7.18 -7.9,-10.5 l 5.49,-7.03 c -3.7,-3.6 -7.73,-6.97 -12.06,-10.03 l -8.74,4.08 c -3.7,-2.39 -7.51,-4.41 -11.35,-6.08 l 0.18,-8.97 C 88.72,44.23 83.42,42.6 78.16,41.47 l -2.95,8.6 c -3.96,-0.54 -7.86,-0.71 -11.62,-0.5 l -7.77,-9.82 c -4.93,0.34 -9.85,0.88 -14.31,2.24 l 6.28,11.09 c -3.32,1.39 -6.37,3.18 -9.08,5.38 C 36.4,57.34 27.48,53 24.33,51.45 c -3.26,2.7 -6.14,5.84 -8.52,9.44 l 14.28,8.57 c -1.88,3.94 -2.42,8.61 -2.75,13.02 L 8.59,83.57 C 8.34,88.93 9.61,93.8 11,99.35 l 19.08,1.1 c 1.89,5.08 5.68,11.37 9.17,16.14 l -11,13.21 c 3.19,3.93 5.01,6.87 11.19,11.92 0,0 -0.18,0 15.04,-10.46 3.11,3.11 12.43,7.57 16.69,9.36 l 0.55,19.26 c 6.56,2.31 9.95,2.92 16.51,3.66 0.69,-4.62 2.44,-17.15 2.56,-17.98 4.94,0.29 12.33,-0.13 16.87,-1.1 l 11.19,16.51 c 3.3,-0.91 10.89,-4.89 12.66,-6.23 -1.67,-2.99 -7.31,-13.66 -9.17,-16.88 2.74,-2.23 6.32,-6.01 8.25,-8.98 0.07,-0.1 15.96,8.43 15.96,8.43 1.84,-4.12 3.41,-7.48 3.94,-12.11 l -15.32,-11.55 v 0 z m -17.91,4.5 c -9.3,14.33 -32.68,15.66 -52.22,2.98 C 45.49,108.46 37.2,86.56 46.5,72.23 55.8,57.9 79.18,56.57 98.72,69.25 c 19.53,12.68 27.83,34.58 18.53,48.91 z"
     id="path3069"
     style="fill:url(#gradient7)" /><path
     d="m 70.2,159.26 -7.29,15.27 8.8,-13.21"
     id="path3071"
     style="fill:#ffffff" /><path
     d="m 117.68,162.43 -7.98,12.38 10.04,-12.11"
     id="path3073"
     style="fill:#ffffff" /><path
     d="m 38.96,143.3 -3.99,15.55 5.64,-15.68"
     id="path3075"
     style="fill:#ffffff" /><path
     d="m 10.06,99.12 -2.2,17.47 3.02,-16.51"
     id="path3077"
     style="fill:#ffffff" /><path
     d="M 97.81,68.61 C 78.34,56.58 55.27,57.92 46.07,72.9 c -1.22,2 -2.1,4.35 -2.66,6.58 0.55,-1.76 1.49,-3.38 2.48,-4.99 8.8,-14.38 31.76,-16.36 51.29,-4.41 19.52,11.94 28.22,33.29 19.42,47.68 -1.5,2.45 -3.43,4.54 -5.67,6.27 2.71,-1.8 5.01,-4.09 6.73,-6.91 8.8,-14.38 1.14,-35.51 -19.86,-48.5 z"
     id="path3079"
     style="fill:#ffffff" /><linearGradient
     x1="248.62"
     y1="147.00999"
     x2="150.60001"
     y2="91.080002"
     id="gradient8"
     gradientUnits="userSpaceOnUse"><stop
       id="stop3082"
       style="stop-color:#c5cad3;stop-opacity:1"
       offset="0" /><stop
       id="stop3084"
       style="stop-color:#787e87;stop-opacity:1"
       offset="0.2527" /><stop
       id="stop3086"
       style="stop-color:#9398a1;stop-opacity:1"
       offset="0.42910001" /><stop
       id="stop3088"
       style="stop-color:#aeb4bd;stop-opacity:1"
       offset="0.6534" /><stop
       id="stop3090"
       style="stop-color:#bfc4cd;stop-opacity:1"
       offset="0.85110003" /><stop
       id="stop3092"
       style="stop-color:#c5cad3;stop-opacity:1"
       offset="1" /></linearGradient><path
     d="m 243.2,128.99 c 0.24,-1.88 0.29,-6.45 -0.14,-8.66 l 10.22,0.04 c -1.17,-3.86 -2.83,-7.69 -4.93,-11.4 -2.38,-0.51 -9,-1.92 -10.43,-2.22 -1.73,-2.83 -3.78,-5.56 -6.12,-8.13 l 4.25,-5.44 c -2.86,-2.78 -5.99,-5.4 -9.34,-7.77 l -6.77,3.16 c -2.86,-1.85 -5.81,-3.41 -8.79,-4.71 l 0.14,-6.94 c -4.07,-1.67 -8.17,-2.93 -12.24,-3.81 l -2.29,6.66 c -3.07,-0.42 -6.08,-0.55 -9,-0.39 l -6.02,-7.6 c -3.82,0.26 -7.63,0.68 -11.08,1.73 l 4.86,8.59 c -2.57,1.08 -4.93,2.46 -7.03,4.16 -1.79,-0.86 -8.7,-4.22 -11.13,-5.42 -2.52,2.09 -4.75,4.52 -6.6,7.31 l 11.06,6.64 c -1.46,3.05 -1.88,6.67 -2.13,10.08 l -14.51,0.84 c -0.19,4.15 0.79,7.92 1.87,12.22 l 14.77,0.85 c 1.46,3.93 4.4,8.8 7.1,12.5 l -8.52,10.22 c 2.47,3.04 3.88,5.32 8.66,9.23 0,0 -0.14,0 11.64,-8.1 2.41,2.41 9.62,5.86 12.92,7.24 l 0.42,14.91 c 5.08,1.79 7.71,2.26 12.78,2.84 0.54,-3.58 1.89,-13.28 1.99,-13.92 3.82,0.22 9.54,-0.1 13.07,-0.85 l 8.66,12.78 c 2.55,-0.7 8.44,-3.79 9.8,-4.83 -1.29,-2.31 -5.66,-10.58 -7.1,-13.07 2.12,-1.72 4.89,-4.65 6.39,-6.96 0.05,-0.08 12.36,6.53 12.36,6.53 1.42,-3.19 2.64,-5.8 3.05,-9.38 l -11.86,-8.94 v 0 z m -13.86,3.48 c -7.2,11.09 -25.31,12.13 -40.43,2.31 -15.13,-9.82 -21.55,-26.77 -14.35,-37.87 7.2,-11.09 25.3,-12.13 40.44,-2.31 15.13,9.82 21.55,26.78 14.35,37.87 z"
     id="path3094"
     style="fill:url(#gradient8)" /></g></svg>