<?xml version="1.0" encoding="UTF-8" standalone="no"?>
<!-- Created with Inkscape (http://www.inkscape.org/) -->

<svg
   xmlns:svg="http://www.w3.org/2000/svg"
   xmlns="http://www.w3.org/2000/svg"
   version="1.1"
   width="48pt"
   height="48pt"
   viewBox="0.237 0.185 123 114"
   id="svg153"
   xml:space="preserve"
   style="overflow:visible">
  <defs
   id="defs269" />
  
  <g
   id="Layer_1_2_">
    <path
   d="M 16.27,22.44 V 57.855 L 40.262,68.154 65.354,45.714 V 10.297 L 41.361,0 16.27,22.44 z"
   id="path155" />
    <path
   d="m 121.068,51.286 c -1.066,-4.019 -4.789,-6.82 -7.918,-8.101 0.018,0.007 -10.301,-4.422 -21.435,-9.202 l 19.229,-17.268 -4.729,-2.397 -19.569,17.49 C 75.268,26.924 64.538,22.318 64.538,22.318 l -0.293,5.184 46.971,20.294 c 2.533,1.038 4.535,2.949 5.018,4.772 0.078,0.292 0.117,0.583 0.117,0.874 0,0.858 -0.35,1.721 -1.03,2.611 -0.311,0.311 -3.557,3.889 -3.557,3.889 v 6.854 l 7.363,-7.478 0.095,-0.12 c 2.434,-3.115 2.347,-6.022 1.846,-7.912 z"
   id="path156" />
    <linearGradient
   x1="113.5518"
   y1="12.3223"
   x2="105.7848"
   y2="18.4902"
   id="XMLID_1_"
   gradientUnits="userSpaceOnUse">
      <stop
   id="stop158"
   style="stop-color:#ffffff;stop-opacity:1"
   offset="0" />
      <stop
   id="stop159"
   style="stop-color:#000000;stop-opacity:1"
   offset="1" />
      
      
      
    </linearGradient>
    <path
   d="M 91.716,33.983 114.6,13.517 109.709,11.053 86.647,31.808 91.716,33.983 z"
   id="path163"
   style="fill:url(#XMLID_1_)" />
    <path
   d="M 16.535,22.599 V 57.625 L 40.215,67.8 65.088,45.554 V 10.526 L 41.408,0.354 16.535,22.599 z"
   id="path164" />
    <path
   d="M 65.088,45.555 40.215,67.8 h 11.35 L 76.438,45.554 V 40.146 L 64.982,35.25 65.088,45.555 z"
   id="path165"
   style="opacity:0.3" />
    <linearGradient
   x1="42.0396"
   y1="29.752001"
   x2="40.3423"
   y2="12.7793"
   id="XMLID_2_"
   gradientUnits="userSpaceOnUse">
      <stop
   id="stop167"
   style="stop-color:#f2f2f2;stop-opacity:1"
   offset="0" />
      <stop
   id="stop168"
   style="stop-color:#eeeeee;stop-opacity:1"
   offset="0.31209999" />
      <stop
   id="stop169"
   style="stop-color:#e0e0e0;stop-opacity:1"
   offset="0.66460001" />
      <stop
   id="stop170"
   style="stop-color:#cccccc;stop-opacity:1"
   offset="1" />
      
      
      
    </linearGradient>
    <path
   d="M 39.879,32.612 18.27,23.334 22.916,19.178 23.591,19.525 23.562,18.601 41.745,2.341 63.354,11.615 39.879,32.612 z"
   id="path174"
   style="fill:url(#XMLID_2_)" />
    <linearGradient
   x1="40.6548"
   y1="65.381302"
   x2="29.0975"
   y2="44.615501"
   id="XMLID_3_"
   gradientUnits="userSpaceOnUse">
      <stop
   id="stop176"
   style="stop-color:#e6e6e6;stop-opacity:1"
   offset="0" />
      <stop
   id="stop177"
   style="stop-color:#c7c7c7;stop-opacity:1"
   offset="0.62099999" />
      <stop
   id="stop178"
   style="stop-color:#b3b3b3;stop-opacity:1"
   offset="1" />
      
      
      
    </linearGradient>
    <path
   d="M 39.879,65.813 27.191,60.379 27.173,59.732 26.122,59.943 18.269,56.537 V 23.334 l 7.844,3.403 1.148,0.026 -0.067,0.443 12.684,5.405 v 33.202 z"
   id="path182"
   style="fill:url(#XMLID_3_)" />
    <path
   d="M 27.173,59.732 26.09,59.81 V 26.77 l 1.171,-0.007 -0.088,0.479 v 32.49 z"
   id="path183"
   style="opacity:0.3" />
    <path
   d="M 28.274,60.85 27.191,60.379 V 27.204 l 1.083,0.47 V 60.85 z"
   id="path184"
   style="opacity:0.8;fill:#ffffff" />
    <linearGradient
   x1="57.0117"
   y1="42.940399"
   x2="43.834999"
   y2="32.618801"
   id="XMLID_4_"
   gradientUnits="userSpaceOnUse">
      <stop
   id="stop186"
   style="stop-color:#999999;stop-opacity:1"
   offset="0" />
      <stop
   id="stop187"
   style="stop-color:#7b7b7b;stop-opacity:1"
   offset="0.6839" />
      <stop
   id="stop188"
   style="stop-color:#6b6b6b;stop-opacity:1"
   offset="1" />
      
      
      
    </linearGradient>
    <path
   d="m 63.354,44.819 -18.284,16.35 -0.833,-0.429 0.025,1.151 -4.383,3.921 v -33.2 L 63.354,11.615 v 33.204 z"
   id="path192"
   style="fill:url(#XMLID_4_)" />
    <path
   d="m 23.632,18.541 21.429,9.455 1.135,-0.971 -21.776,-9.146 -0.788,0.662 z"
   id="path193"
   style="opacity:0.8;fill:#ffffff" />
    <path
   d="m 45.061,27.996 v 33.207 l 1.135,-1.014 V 27.025 l -1.135,0.971 z"
   id="path194"
   style="opacity:0.6;fill:#242424" />
    <path
   d="m 18.27,23.334 0.004,0.967 7.832,3.39 -0.015,-0.92 1.171,-0.007 -0.088,1.391 12.721,5.404 0.048,-0.876 0.741,-0.731 -21.776,-9.145 -0.638,0.527 z"
   id="path195"
   style="opacity:0.83999999;fill:#ffffff" />
    <path
   d="m 23.59,19.525 20.646,9.141 v 32.075 l 0.824,0.421 V 27.996 l -21.5,-9.396 0.03,0.925 z"
   id="path196"
   style="opacity:0.3" />
    <path
   d="m 36.756,38.812 -5.844,-2.793 v -4.375 l 5.844,2.793 v 4.375 z"
   id="path197"
   style="fill:#ffffff" />
    <g
   id="g198">
      <path
   d="m 32.921,34.588 c 0.356,0.172 0.621,0.373 0.793,0.601 0.173,0.228 0.258,0.46 0.258,0.696 0,0.206 -0.059,0.358 -0.176,0.46 -0.118,0.101 -0.268,0.137 -0.452,0.108 -0.183,-0.029 -0.428,-0.106 -0.736,-0.231 L 31.374,35.72 v -0.112 l 0.121,0.049 c 0.135,0.055 0.228,0.076 0.279,0.061 0.052,-0.014 0.085,-0.056 0.099,-0.125 0.014,-0.068 0.021,-0.239 0.021,-0.511 l 0.002,-1.587 c 0,-0.264 -0.007,-0.438 -0.022,-0.521 -0.015,-0.083 -0.045,-0.148 -0.093,-0.197 -0.047,-0.048 -0.151,-0.104 -0.311,-0.17 L 31.409,32.583 V 32.47 l 0.518,0.195 0.589,0.221 c 0.86,0.35 1.29,0.781 1.29,1.293 0,0.211 -0.074,0.352 -0.221,0.42 -0.146,0.068 -0.368,0.065 -0.664,-0.011 z m -0.569,-0.159 0,0.728 c 0,0.311 0.005,0.509 0.016,0.598 0.011,0.088 0.04,0.163 0.087,0.225 0.047,0.063 0.141,0.123 0.28,0.18 0.248,0.101 0.434,0.111 0.558,0.03 0.124,-0.082 0.186,-0.254 0.186,-0.518 0,-0.27 -0.069,-0.498 -0.21,-0.683 -0.14,-0.185 -0.387,-0.349 -0.739,-0.494 -0.058,-0.022 -0.116,-0.044 -0.178,-0.066 z m 0,-0.119 c 0.039,0.018 0.071,0.031 0.098,0.042 0.335,0.136 0.563,0.174 0.686,0.115 0.122,-0.06 0.184,-0.211 0.185,-0.455 0,-0.17 -0.024,-0.312 -0.072,-0.425 -0.048,-0.113 -0.121,-0.214 -0.216,-0.304 -0.096,-0.089 -0.26,-0.181 -0.493,-0.276 -0.061,-0.025 -0.123,-0.047 -0.186,-0.068 l -0.002,1.371 z"
   id="path199"
   style="fill:#302f92" />
      <path
   d="m 36.074,36.32 -1.326,-0.54 c -0.006,0.093 -0.01,0.163 -0.01,0.21 0,0.351 0.053,0.636 0.156,0.854 0.104,0.218 0.262,0.371 0.469,0.455 0.281,0.115 0.481,0.064 0.6,-0.152 l 0.109,0.044 c -0.049,0.143 -0.146,0.229 -0.295,0.261 -0.146,0.031 -0.307,0.012 -0.479,-0.059 -0.161,-0.065 -0.312,-0.169 -0.456,-0.312 -0.143,-0.142 -0.26,-0.309 -0.351,-0.5 -0.091,-0.191 -0.137,-0.396 -0.136,-0.615 0,-0.31 0.088,-0.532 0.265,-0.666 0.177,-0.134 0.397,-0.146 0.661,-0.04 0.249,0.102 0.441,0.257 0.577,0.467 0.136,0.21 0.208,0.41 0.216,0.593 z m -0.399,-0.258 c 0.005,-0.035 0.008,-0.067 0.008,-0.095 0,-0.142 -0.04,-0.268 -0.12,-0.377 -0.08,-0.111 -0.18,-0.19 -0.297,-0.237 -0.283,-0.116 -0.453,-0.003 -0.508,0.336 l 0.917,0.373 z"
   id="path200"
   style="fill:#fb0f0c" />
    </g>
    <path
   d="m 63.484,68.681 v 35.414 l 23.992,10.3 25.092,-22.44 V 56.539 L 88.576,46.241 63.484,68.681 z"
   id="path201" />
    <path
   d="m 63.75,68.84 v 35.026 L 87.43,114.04 112.303,91.796 V 56.767 L 88.623,46.595 63.75,68.84 z"
   id="path202" />
    <path
   d="M 112.303,91.796 87.43,114.041 h 11.35 l 24.873,-22.244 v -5.408 l -11.456,-4.896 0.106,10.303 z"
   id="path203"
   style="opacity:0.3" />
    <linearGradient
   x1="89.254898"
   y1="75.993698"
   x2="87.557602"
   y2="59.021"
   id="XMLID_5_"
   gradientUnits="userSpaceOnUse">
      <stop
   id="stop205"
   style="stop-color:#f2f2f2;stop-opacity:1"
   offset="0" />
      <stop
   id="stop206"
   style="stop-color:#eeeeee;stop-opacity:1"
   offset="0.31209999" />
      <stop
   id="stop207"
   style="stop-color:#e0e0e0;stop-opacity:1"
   offset="0.66460001" />
      <stop
   id="stop208"
   style="stop-color:#cccccc;stop-opacity:1"
   offset="1" />
      
      
      
    </linearGradient>
    <path
   d="M 87.094,78.853 65.485,69.576 70.131,65.42 70.806,65.767 70.778,64.842 88.961,48.583 110.57,57.857 87.094,78.853 z"
   id="path212"
   style="fill:url(#XMLID_5_)" />
    <linearGradient
   x1="87.869102"
   y1="111.6226"
   x2="76.311897"
   y2="90.856697"
   id="XMLID_6_"
   gradientUnits="userSpaceOnUse">
      <stop
   id="stop214"
   style="stop-color:#e6e6e6;stop-opacity:1"
   offset="0" />
      <stop
   id="stop215"
   style="stop-color:#c7c7c7;stop-opacity:1"
   offset="0.62099999" />
      <stop
   id="stop216"
   style="stop-color:#b3b3b3;stop-opacity:1"
   offset="1" />
      
      
      
    </linearGradient>
    <path
   d="m 87.094,112.054 -12.688,-5.434 -0.018,-0.648 -1.052,0.212 -7.853,-3.406 V 69.576 l 7.844,3.403 1.148,0.026 -0.066,0.443 12.684,5.404 v 33.202 z"
   id="path220"
   style="fill:url(#XMLID_6_)" />
    <path
   d="m 74.389,105.972 -1.084,0.079 v -33.04 l 1.172,-0.006 -0.088,0.479 v 32.488 z"
   id="path221"
   style="opacity:0.3" />
    <path
   d="M 75.488,107.091 74.406,106.62 V 73.445 l 1.082,0.471 v 33.175 z"
   id="path222"
   style="opacity:0.8;fill:#ffffff" />
    <linearGradient
   x1="104.2266"
   y1="89.181198"
   x2="91.049896"
   y2="78.859596"
   id="XMLID_7_"
   gradientUnits="userSpaceOnUse">
      <stop
   id="stop224"
   style="stop-color:#999999;stop-opacity:1"
   offset="0" />
      <stop
   id="stop225"
   style="stop-color:#7b7b7b;stop-opacity:1"
   offset="0.6839" />
      <stop
   id="stop226"
   style="stop-color:#6b6b6b;stop-opacity:1"
   offset="1" />
      
      
      
    </linearGradient>
    <path
   d="m 110.568,91.06 -18.284,16.352 -0.833,-0.43 0.025,1.151 -4.383,3.921 V 78.853 L 110.568,57.856 V 91.06 z"
   id="path230"
   style="fill:url(#XMLID_7_)" />
    <path
   d="m 70.847,64.783 21.429,9.454 1.135,-0.971 -21.775,-9.146 -0.789,0.663 z"
   id="path231"
   style="opacity:0.8;fill:#ffffff" />
    <path
   d="m 92.275,74.237 v 33.207 L 93.41,106.43 V 73.266 l -1.135,0.971 z"
   id="path232"
   style="opacity:0.6;fill:#242424" />
    <path
   d="m 65.484,69.576 0.004,0.967 7.832,3.39 -0.016,-0.921 1.172,-0.006 -0.088,1.391 12.721,5.403 0.048,-0.877 0.741,-0.73 -21.775,-9.146 -0.639,0.529 z"
   id="path233"
   style="opacity:0.83999999;fill:#ffffff" />
    <path
   d="m 70.805,65.766 20.646,9.141 v 32.075 l 0.824,0.42 V 74.237 l -21.501,-9.396 0.031,0.925 z"
   id="path234"
   style="opacity:0.3" />
    <path
   d="M 83.971,85.053 78.127,82.26 v -4.376 l 5.844,2.794 v 4.375 z"
   id="path235"
   style="fill:#ffffff" />
    <g
   id="g236">
      <path
   d="m 80.136,80.83 c 0.356,0.172 0.621,0.373 0.794,0.6 0.173,0.229 0.258,0.461 0.258,0.697 0,0.205 -0.059,0.357 -0.176,0.459 -0.118,0.102 -0.269,0.137 -0.452,0.108 -0.183,-0.029 -0.429,-0.106 -0.735,-0.231 L 78.59,81.96 v -0.113 l 0.121,0.049 c 0.135,0.056 0.227,0.076 0.279,0.062 0.052,-0.015 0.084,-0.056 0.099,-0.124 0.014,-0.068 0.021,-0.24 0.021,-0.512 l 0.002,-1.587 c 0,-0.265 -0.007,-0.438 -0.021,-0.521 -0.016,-0.082 -0.046,-0.148 -0.094,-0.197 -0.047,-0.047 -0.15,-0.104 -0.311,-0.17 l -0.061,-0.023 v -0.112 l 0.518,0.194 0.59,0.222 c 0.859,0.351 1.289,0.781 1.289,1.294 0,0.211 -0.073,0.352 -0.221,0.42 -0.147,0.067 -0.369,0.063 -0.665,-0.012 z m -0.57,-0.16 v 0.728 c -0.001,0.311 0.004,0.51 0.016,0.598 0.01,0.088 0.039,0.163 0.086,0.226 0.048,0.063 0.141,0.123 0.28,0.18 0.248,0.101 0.435,0.11 0.558,0.03 0.124,-0.082 0.187,-0.254 0.187,-0.518 0.001,-0.271 -0.069,-0.498 -0.21,-0.684 -0.14,-0.185 -0.387,-0.348 -0.739,-0.493 -0.056,-0.023 -0.115,-0.044 -0.178,-0.067 z m 0,-0.12 c 0.039,0.018 0.071,0.031 0.098,0.043 0.335,0.137 0.563,0.174 0.686,0.115 0.123,-0.06 0.184,-0.211 0.186,-0.455 0,-0.17 -0.025,-0.312 -0.072,-0.425 -0.049,-0.112 -0.121,-0.214 -0.217,-0.304 -0.096,-0.09 -0.26,-0.182 -0.492,-0.276 C 79.694,79.224 79.632,79.2 79.569,79.18 l -0.003,1.37 z"
   id="path237"
   style="fill:#302f92" />
      <path
   d="m 83.289,82.561 -1.326,-0.54 c -0.006,0.094 -0.01,0.164 -0.01,0.211 0,0.351 0.053,0.636 0.156,0.854 0.104,0.219 0.262,0.371 0.469,0.455 0.281,0.115 0.481,0.064 0.6,-0.152 l 0.109,0.045 c -0.049,0.143 -0.146,0.229 -0.295,0.261 -0.146,0.031 -0.307,0.012 -0.479,-0.059 -0.161,-0.065 -0.312,-0.169 -0.456,-0.312 -0.143,-0.143 -0.26,-0.309 -0.351,-0.5 -0.091,-0.19 -0.137,-0.395 -0.136,-0.614 0,-0.31 0.088,-0.532 0.265,-0.665 0.177,-0.135 0.397,-0.146 0.661,-0.04 0.249,0.102 0.441,0.257 0.577,0.468 0.136,0.208 0.208,0.405 0.216,0.588 z M 82.89,82.304 c 0.005,-0.035 0.008,-0.067 0.008,-0.096 0,-0.142 -0.04,-0.268 -0.12,-0.377 -0.08,-0.111 -0.18,-0.19 -0.297,-0.238 -0.283,-0.115 -0.453,-0.003 -0.508,0.337 l 0.917,0.374 z"
   id="path238"
   style="fill:#fb0f0c" />
    </g>
    
  </g>
</svg>