<?xml version="1.0" encoding="UTF-8" standalone="no"?>
<!-- Created with Inkscape (http://www.inkscape.org/) -->

<svg
   xmlns:svg="http://www.w3.org/2000/svg"
   xmlns="http://www.w3.org/2000/svg"
   xmlns:xlink="http://www.w3.org/1999/xlink"
   version="1.1"
   width="128"
   height="94"
   id="svg2">
  <defs
     id="defs56">
    <linearGradient
       x1="75.099998"
       y1="28.620001"
       x2="46.529999"
       y2="86.150002"
       id="gradient0"
       gradientUnits="userSpaceOnUse">
      <stop
         id="stop7"
         style="stop-color:#fdfeed;stop-opacity:1"
         offset="0" />
      <stop
         id="stop9"
         style="stop-color:#fff24b;stop-opacity:1"
         offset="1" />
    </linearGradient>
    <linearGradient
       x1="75.099998"
       y1="28.620001"
       x2="46.529999"
       y2="86.150002"
       id="gradient1"
       gradientUnits="userSpaceOnUse">
      <stop
         id="stop16"
         style="stop-color:#d9d8ff;stop-opacity:1"
         offset="0.0055" />
      <stop
         id="stop18"
         style="stop-color:#fdfeed;stop-opacity:1"
         offset="0.51389998" />
      <stop
         id="stop20"
         style="stop-color:#9a99cd;stop-opacity:1"
         offset="1" />
    </linearGradient>
    <linearGradient
       x1="63.700001"
       y1="9.2700005"
       x2="56.150002"
       y2="78.669998"
       id="gradient2"
       gradientUnits="userSpaceOnUse">
      <stop
         id="stop25"
         style="stop-color:#fdfeed;stop-opacity:1"
         offset="0" />
      <stop
         id="stop27"
         style="stop-color:#fff24b;stop-opacity:1"
         offset="1" />
    </linearGradient>
    <linearGradient
       x1="62.110001"
       y1="-4.1599998"
       x2="59.110001"
       y2="64.839996"
       id="gradient3"
       gradientUnits="userSpaceOnUse">
      <stop
         id="stop34"
         style="stop-color:#d9d8ff;stop-opacity:1"
         offset="0.0055" />
      <stop
         id="stop36"
         style="stop-color:#fdfeed;stop-opacity:1"
         offset="0.51389998" />
      <stop
         id="stop38"
         style="stop-color:#9a99cd;stop-opacity:1"
         offset="1" />
    </linearGradient>
    <linearGradient
       x1="62.110001"
       y1="-4.1599998"
       x2="59.110001"
       y2="64.839996"
       id="linearGradient2862"
       xlink:href="#gradient3"
       gradientUnits="userSpaceOnUse"
       gradientTransform="translate(-127.45763,0.79661017)" />
    <linearGradient
       x1="63.700001"
       y1="9.2700005"
       x2="56.150002"
       y2="78.669998"
       id="linearGradient2866"
       xlink:href="#gradient2"
       gradientUnits="userSpaceOnUse"
       gradientTransform="translate(-127.45763,0.79661017)" />
    <linearGradient
       x1="75.099998"
       y1="28.620001"
       x2="46.529999"
       y2="86.150002"
       id="linearGradient2869"
       xlink:href="#gradient1"
       gradientUnits="userSpaceOnUse"
       gradientTransform="translate(-127.45763,0.79661017)" />
    <linearGradient
       x1="75.099998"
       y1="28.620001"
       x2="46.529999"
       y2="86.150002"
       id="linearGradient2873"
       xlink:href="#gradient0"
       gradientUnits="userSpaceOnUse"
       gradientTransform="translate(-127.45763,0.79661017)" />
  </defs>
  <path
     d="M 66.375386,64.519546 66.647028,9.9421927 c -0.520646,-0.101866 0,-0.03395 -0.554602,-0.03395 -0.554602,0 -1.482711,0 -2.557959,0 -5.591293,0 -7.572014,0.7243783 -10.062063,3.1125613 -2.478731,2.376865 -3.508706,5.817661 -4.323631,11.906963 l -5.489427,-0.02264 V 1.5552542 c 3.746392,0 8.217162,0.06791 12.371017,0.06791 4.153855,0 7.968158,0 13.616043,0 8.013431,0 16.298504,0.056592 22.048255,0 6.304352,-0.06791 9.247139,0 14.430969,0 V 25.120175 h -4.99142 c -0.78097,-5.953481 -1.403481,-9.224501 -4.018033,-11.488182 -2.62587,-2.263681 -2.954104,-3.067288 -8.273755,-3.576616 -0.905472,-0.07923 -3.520024,-0.06791 -5.681839,-0.06791 v 0.181095 l 0.06791,54.373622 c 0.916791,1.663806 0.543283,2.037313 1.788308,3.271019 1.290298,1.27898 2.863557,1.822264 8.171889,1.607214 l -0.05659,7.31169 c -2.761691,0 -4.448133,0 -7.24378,0 -2.773009,0 -5.364924,0 -8.364302,0 -2.739054,0 -6.270397,0 -9.552734,0 -3.27102,0 -6.67786,0.06791 -10.175247,0.06791 l 0.05659,-7.164551 c 4.153855,0 5.172511,-0.543284 6.428854,-1.267662 1.460075,-0.84888 1.618532,-0.464054 2.116542,-3.836939 l 0,0 z"
     id="path46"
     style="fill:#000001;stroke:#000000;stroke-width:2;stroke-miterlimit:4;stroke-opacity:1;stroke-dasharray:none" />
  <path
     d="M 67.63173,62.380368 V 8.8329887 c -0.475374,-0.06791 -0.984702,-0.1018654 -1.505348,-0.1018654 -0.520647,0 -1.27898,0 -2.275,0 -5.161193,0 -8.896267,1.0865664 -11.205222,3.2710197 -2.297636,2.173134 -3.825621,6.055347 -4.572636,11.624003 h -3.33893 V 2.8568709 c 3.463433,0 7.107959,0 10.956217,0 3.83694,0 8.364302,0 13.570769,0 7.402237,0 14.023505,0 19.852484,0 5.817661,0 11.182586,0 16.094776,0 V 23.626146 h -3.07861 C 101.40585,18.170674 99.877868,14.311097 97.546276,12.070053 95.226003,9.8403267 91.62675,8.7198049 86.759836,8.7198049 c -0.837562,0 -2.252363,0 -4.244403,0 H 82.198518 V 62.22191 c 0,3.40684 0.667786,5.704476 2.025995,6.904227 1.34689,1.188433 4.006715,1.77699 7.956839,1.77699 v 4.561318 c -2.546641,0 -5.115919,0 -7.696516,0 -2.569278,0 -5.25174,0 -8.02475,0 -2.524004,0 -5.308332,0 -8.341665,0 -3.022014,0 -6.157213,0 -9.394277,0 v -4.561318 c 3.678482,0 6.100621,-0.56592 7.255098,-1.709079 1.154478,-1.131841 1.720398,-3.418159 1.720398,-6.824999 l -0.01132,0.01132 z"
     id="path48"
     style="fill:#4356e8;stroke:#000000;stroke-width:2;stroke-miterlimit:4;stroke-opacity:1;stroke-dasharray:none" />
  <path
     d="m 41.384346,81.599021 0.271642,-54.577354 c -0.520647,-0.101865 0,-0.03395 -0.554602,-0.03395 -0.554602,0 -1.482711,0 -2.55796,0 -5.591292,0 -7.572013,0.724378 -10.062066,3.112562 -2.478731,2.376865 -3.508706,5.81766 -4.323631,11.906963 l -5.489427,-0.02264 V 18.634729 c 3.746392,0 8.217163,0.06791 12.371021,0.06791 4.153855,0 7.968158,0 13.616042,0 8.013432,0 16.298505,0.05659 22.048255,0 6.304352,-0.06791 9.247138,0 14.430968,0 V 42.19965 h -4.991417 c -0.78097,-5.953482 -1.403483,-9.224501 -4.018034,-11.488182 -2.62587,-2.263682 -2.954104,-3.067288 -8.273755,-3.576617 -0.905473,-0.07923 -3.520024,-0.06791 -5.68184,-0.06791 v 0.181094 l 0.06791,54.373623 c 0.91679,1.663805 0.543283,2.037313 1.788308,3.271019 1.290298,1.27898 2.863556,1.822263 8.171889,1.607214 l -0.05659,7.31169 c -2.761691,0 -4.448134,0 -7.24378,0 -2.773009,0 -5.364924,0 -8.364302,0 -2.739054,0 -6.270397,0 -9.552735,0 -3.271019,0 -6.677859,0.06791 -10.175247,0.06791 l 0.05659,-7.164551 c 4.153855,0 5.172512,-0.543283 6.428855,-1.267661 1.460074,-0.848881 1.618532,-0.464055 2.116542,-3.83694 l 0,0 z"
     id="path50"
     style="fill:#000001;stroke:#000000;stroke-width:2;stroke-miterlimit:4;stroke-opacity:1;stroke-dasharray:none" />
  <path
     d="M 42.629371,79.369295 V 25.821916 c -0.475373,-0.06791 -0.984702,-0.101865 -1.505348,-0.101865 -0.520647,0 -1.27898,0 -2.275,0 -5.161193,0 -8.896267,1.086567 -11.205225,3.271019 -2.297636,2.173134 -3.825621,6.055347 -4.572636,11.624003 h -3.33893 V 19.845798 c 3.463432,0 7.107959,0 10.956221,0 3.836939,0 8.364302,0 13.570768,0 7.402238,0 14.023505,0 19.852484,0 5.817661,0 11.182585,0 16.094774,0 V 40.615073 H 77.127872 C 76.403494,35.159601 74.875509,31.300025 72.543918,29.05898 70.223645,26.829254 66.624391,25.708732 61.757477,25.708732 c -0.837562,0 -2.252363,0 -4.244402,0 h -0.316916 v 53.502105 c 0,3.40684 0.667786,5.704477 2.025995,6.904228 1.34689,1.188432 4.006716,1.77699 7.956839,1.77699 v 4.561317 c -2.546641,0 -5.115919,0 -7.696516,0 -2.569278,0 -5.25174,0 -8.02475,0 -2.524004,0 -5.308332,0 -8.341665,0 -3.022014,0 -6.157213,0 -9.394277,0 v -4.561317 c 3.678482,0 6.100621,-0.565921 7.255099,-1.70908 1.154477,-1.13184 1.720397,-3.418158 1.720397,-6.824999 l -0.01132,0.01132 z"
     id="path52"
     style="fill:#1a2fcc;stroke:#000000;stroke-width:2;stroke-miterlimit:4;stroke-opacity:1;stroke-dasharray:none" />
</svg>
