<?xml version="1.0" encoding="UTF-8" standalone="no"?>
<!-- Created with Inkscape (http://www.inkscape.org/) -->

<svg
   xmlns:svg="http://www.w3.org/2000/svg"
   xmlns="http://www.w3.org/2000/svg"
   xmlns:xlink="http://www.w3.org/1999/xlink"
   version="1.1"
   width="48pt"
   height="48pt"
   viewBox="0.197 -0.344 104 121"
   id="svg153"
   xml:space="preserve"
   style="overflow:visible">
  <defs
   id="defs197"><linearGradient
     x1="72.471703"
     y1="168.7485"
     x2="31.269699"
     y2="133.1333"
     id="linearGradient2903"
     xlink:href="#XMLID_1_"
     gradientUnits="userSpaceOnUse"
     gradientTransform="matrix(1,0.3987,0,1,0,-87.0809)" /><linearGradient
     x1="62.805698"
     y1="162.05321"
     x2="6.9116001"
     y2="114.3596"
     id="linearGradient2905"
     xlink:href="#XMLID_2_"
     gradientUnits="userSpaceOnUse"
     gradientTransform="matrix(1,0.3987,0,1,0,-87.0809)" /><linearGradient
     x1="12.0435"
     y1="120.103"
     x2="60.9398"
     y2="155.1333"
     id="linearGradient2907"
     xlink:href="#XMLID_3_"
     gradientUnits="userSpaceOnUse"
     gradientTransform="matrix(1,0.3987,0,1,0,-87.0809)" /><linearGradient
     x1="12.0435"
     y1="120.103"
     x2="60.9398"
     y2="155.1333"
     id="linearGradient2909"
     xlink:href="#XMLID_3_"
     gradientUnits="userSpaceOnUse"
     gradientTransform="matrix(1,0.3987,0,1,0,-87.0809)" /><linearGradient
     x1="25.383301"
     y1="86.643097"
     x2="55.762501"
     y2="80.420898"
     id="linearGradient2911"
     xlink:href="#XMLID_5_"
     gradientUnits="userSpaceOnUse" /></defs>
  
  <g
   id="Layer_1_2_">
    <path
   d="m 10.357,15.058 c -5,-2.395 -9.064,0.414 -9.064,6.262 v 55.148 c 0,5.85 1.623,11.221 6.625,13.617 l 56.844,27.406 c 5,2.395 9.066,-0.41 9.066,-6.26 V 56.083 c 0,-5.848 -1.076,-11.404 -8.197,-14.621 L 10.357,15.058 z"
   id="path155" />
    <path
   d="m 3.482,1.089 c -2.26,1.424 -3.406,4.178 -3.406,8.184 0,0 0,10.758 0,10.76 C 0.074,20.062 0,21.32 0,21.32 v 55.148 c 0,7.363 2.543,12.477 7.357,14.783 l 56.84,27.404 c 2.746,1.316 5.406,1.318 7.488,0.006 2.184,-1.375 3.436,-4.082 3.436,-7.426 0,-0.004 0,-55.152 0,-55.152 0,-5.812 -1.064,-12.234 -8.961,-15.801 0.004,0 0.004,0 0.004,0 0,0 -22.816,-10.896 -27.049,-12.92 0,-1.033 0,-3.18 0,-3.18 0,-6.592 -2.793,-11.58 -8.078,-14.426 L 30.902,9.688 12.355,1.076 c -3,-1.438 -6.572,-1.436 -8.873,0.013 z"
   id="path156" />
    <path
   d="m 47.542,110.566 16.655,8.09 c 2.914,1.408 6.889,2.129 11.191,2.03 4.51,-0.103 8.834,-1.13 11.861,-2.817 0.002,-0.002 16.93,-9.437 16.93,-9.437 L 74.906,96.029 47.542,110.566 z"
   id="path157"
   style="opacity:0.2" />
    <linearGradient
   x1="72.471703"
   y1="168.7485"
   x2="31.269699"
   y2="133.1333"
   id="XMLID_1_"
   gradientUnits="userSpaceOnUse"
   gradientTransform="matrix(1,0.3987,0,1,0,-87.0809)">
      <stop
   id="stop159"
   style="stop-color:#dedede;stop-opacity:1"
   offset="0" />
      <stop
   id="stop160"
   style="stop-color:#c9c9c9;stop-opacity:1"
   offset="1" />
      
      
      
    </linearGradient>
    <path
   d="m 3.104,22.189 0.112,-9.045 c 0,0 5.139,3.076 7.142,4.035 l 55.273,26.404 c 4.75,2.559 6.385,6.945 6.385,11.631 v 55.148 c 0,4.684 -3.248,6.926 -7.254,5.008 L 7.918,87.964 C 3.91,86.044 3.104,82.023 3.104,77.337 V 22.189 z"
   id="path164"
   style="fill:url(#XMLID_1_)" />
    <path
   d="m 5.527,17.98 c 0,0 58.869,27.881 58.879,27.883 2.109,1.135 5.268,3.586 7.344,6.355 -0.611,-3.508 -2.402,-6.635 -6.119,-8.635 L 10.357,17.179 C 8.062,16.081 6.019,16.351 4.689,17.661 5.01,17.75 5.305,17.873 5.527,17.98 z"
   id="path165"
   style="fill:#e6e6e6" />
    <g
   id="g166">
      <path
   d="m 3.104,8.707 c 0,-4.686 3.248,-6.932 7.254,-5.01 l 19.348,8.984 c 4.746,2.557 6.383,6.943 6.383,11.629 v 8.33 L 3.104,17.035 V 8.707 z"
   id="path167"
   style="fill:#ffcb33" />
    </g>
    <g
   id="g168">
      <path
   d="M 5.691,8.681 C 5.691,7.292 6.084,6.214 6.746,5.798 7.521,5.312 8.641,5.72 9.27,6.021 c 0,0 24.709,11.676 24.939,11.783 0.252,0.137 0.475,0.293 0.705,0.443 -0.975,-2.24 -2.615,-4.193 -5.209,-5.59 L 10.357,3.675 C 6.351,1.753 3.103,3.995 3.103,8.683 v 8.365 l 2.588,1.223 v -9.59 z"
   id="path169"
   style="fill:#fffd01" />
    </g>
    <linearGradient
   x1="62.805698"
   y1="162.05321"
   x2="6.9116001"
   y2="114.3596"
   id="XMLID_2_"
   gradientUnits="userSpaceOnUse"
   gradientTransform="matrix(1,0.3987,0,1,0,-87.0809)">
      <stop
   id="stop171"
   style="stop-color:#999999;stop-opacity:1"
   offset="0" />
      <stop
   id="stop172"
   style="stop-color:#000000;stop-opacity:1"
   offset="1" />
      
      
      
    </linearGradient>
    <path
   d="m 9.797,27.804 53.135,25.178 v 53.031 L 9.797,80.837 V 27.804 z"
   id="path176"
   style="fill:url(#XMLID_2_)" />
    <linearGradient
   x1="12.0435"
   y1="120.103"
   x2="60.9398"
   y2="155.1333"
   id="XMLID_3_"
   gradientUnits="userSpaceOnUse"
   gradientTransform="matrix(1,0.3987,0,1,0,-87.0809)">
      <stop
   id="stop178"
   style="stop-color:#a1a1a1;stop-opacity:1"
   offset="0" />
      <stop
   id="stop179"
   style="stop-color:#000000;stop-opacity:1"
   offset="1" />
      
      
      
    </linearGradient>
    <path
   d="m 12.451,29.408 c 0,5.213 0,44.457 0,49.67 4.568,2.189 45.646,21.875 50.217,24.066 0,-5.213 0,-44.455 0,-49.668 C 58.098,51.287 17.02,31.597 12.451,29.408 z"
   id="path183"
   style="fill:url(#XMLID_3_)" />
    <path
   d="m 12.451,29.408 c 0,5.213 0,44.457 0,49.67 4.568,2.189 45.646,21.875 50.217,24.066 0,-5.213 0,-44.455 0,-49.668 C 58.098,51.287 17.02,31.597 12.451,29.408 z"
   id="path184"
   style="fill:url(#XMLID_3_)" />
    <path
   d="m 33.896,96.126 c 0,-0.428 0.234,-0.676 0.561,-0.654 -0.072,-0.316 -0.092,-0.846 -1.379,-1.268 -1.223,-0.76 -1.672,-0.193 -1.672,0.727 0,0.758 0.559,2.193 1.266,2.93 0.158,0.158 0.336,0.023 0.498,0.104 0.15,0.07 0.414,0.377 0.549,0.371 0.438,-0.025 0.646,-0.443 0.84,-0.932 -0.377,-0.276 -0.663,-0.807 -0.663,-1.278 z"
   id="path185"
   style="fill:#808080" />
    <linearGradient
   x1="25.383301"
   y1="86.643097"
   x2="55.762501"
   y2="80.420898"
   id="XMLID_5_"
   gradientUnits="userSpaceOnUse">
      <stop
   id="stop187"
   style="stop-color:#ffffff;stop-opacity:1"
   offset="0" />
      <stop
   id="stop188"
   style="stop-color:#000000;stop-opacity:1"
   offset="1" />
      
      
      
    </linearGradient>
    <path
   d="m 12.451,66.818 c 0,5.951 0,10.678 0,12.26 4.568,2.189 45.646,21.875 50.217,24.066 0,-4.188 0,-30.336 0,-43.158 -17.637,-2.511 -38.56,1.525 -50.217,6.832 z"
   id="path192"
   style="opacity:0.5;fill:url(#XMLID_5_)" />
    <g
   id="g193">
      <path
   d="M 25.259,46.343 14.8,46.892 V 45.107 L 21.932,44.731 14.8,37.447 V 35.66 l 10.459,10.683 z"
   id="path194"
   style="fill:#ffffff" />
      <path
   d="m 24.35,53.119 v -1.6 l 10.459,5.066 v 1.6 L 24.35,53.119 z"
   id="path195"
   style="fill:#ffffff" />
    </g>
  </g>
<g
   transform="matrix(0.82282776,0,0,0.82282776,16.919492,25.122858)"
   id="g2843">
    <path
   d="m 10.357,15.058 c -5,-2.395 -9.064,0.414 -9.064,6.262 v 55.148 c 0,5.85 1.623,11.221 6.625,13.617 l 56.844,27.406 c 5,2.395 9.066,-0.41 9.066,-6.26 V 56.083 c 0,-5.848 -1.076,-11.404 -8.197,-14.621 L 10.357,15.058 z"
   id="path2845" />
    <path
   d="m 3.482,1.089 c -2.26,1.424 -3.406,4.178 -3.406,8.184 0,0 0,10.758 0,10.76 C 0.074,20.062 0,21.32 0,21.32 v 55.148 c 0,7.363 2.543,12.477 7.357,14.783 l 56.84,27.404 c 2.746,1.316 5.406,1.318 7.488,0.006 2.184,-1.375 3.436,-4.082 3.436,-7.426 0,-0.004 0,-55.152 0,-55.152 0,-5.812 -1.064,-12.234 -8.961,-15.801 0.004,0 0.004,0 0.004,0 0,0 -22.816,-10.896 -27.049,-12.92 0,-1.033 0,-3.18 0,-3.18 0,-6.592 -2.793,-11.58 -8.078,-14.426 L 30.902,9.688 12.355,1.076 c -3,-1.438 -6.572,-1.436 -8.873,0.013 z"
   id="path2847" />
    <path
   d="m 47.542,110.566 16.655,8.09 c 2.914,1.408 6.889,2.129 11.191,2.03 4.51,-0.103 8.834,-1.13 11.861,-2.817 0.002,-0.002 16.93,-9.437 16.93,-9.437 L 74.906,96.029 47.542,110.566 z"
   id="path2849"
   style="opacity:0.2" />
    <linearGradient
   x1="72.471703"
   y1="168.7485"
   x2="31.269699"
   y2="133.1333"
   id="linearGradient2851"
   gradientUnits="userSpaceOnUse"
   gradientTransform="matrix(1,0.3987,0,1,0,-87.0809)">
      <stop
   id="stop2853"
   style="stop-color:#dedede;stop-opacity:1"
   offset="0" />
      <stop
   id="stop2855"
   style="stop-color:#c9c9c9;stop-opacity:1"
   offset="1" />
      
      
      
    </linearGradient>
    <path
   d="m 3.104,22.189 0.112,-9.045 c 0,0 5.139,3.076 7.142,4.035 l 55.273,26.404 c 4.75,2.559 6.385,6.945 6.385,11.631 v 55.148 c 0,4.684 -3.248,6.926 -7.254,5.008 L 7.918,87.964 C 3.91,86.044 3.104,82.023 3.104,77.337 V 22.189 z"
   id="path2857"
   style="fill:url(#linearGradient2903)" />
    <path
   d="m 5.527,17.98 c 0,0 58.869,27.881 58.879,27.883 2.109,1.135 5.268,3.586 7.344,6.355 -0.611,-3.508 -2.402,-6.635 -6.119,-8.635 L 10.357,17.179 C 8.062,16.081 6.019,16.351 4.689,17.661 5.01,17.75 5.305,17.873 5.527,17.98 z"
   id="path2859"
   style="fill:#e6e6e6" />
    <g
   id="g2861">
      <path
   d="m 3.104,8.707 c 0,-4.686 3.248,-6.932 7.254,-5.01 l 19.348,8.984 c 4.746,2.557 6.383,6.943 6.383,11.629 v 8.33 L 3.104,17.035 V 8.707 z"
   id="path2863"
   style="fill:#ffcb33" />
    </g>
    <g
   id="g2865">
      <path
   d="M 5.691,8.681 C 5.691,7.292 6.084,6.214 6.746,5.798 7.521,5.312 8.641,5.72 9.27,6.021 c 0,0 24.709,11.676 24.939,11.783 0.252,0.137 0.475,0.293 0.705,0.443 -0.975,-2.24 -2.615,-4.193 -5.209,-5.59 L 10.357,3.675 C 6.351,1.753 3.103,3.995 3.103,8.683 v 8.365 l 2.588,1.223 v -9.59 z"
   id="path2867"
   style="fill:#fffd01" />
    </g>
    <linearGradient
   x1="62.805698"
   y1="162.05321"
   x2="6.9116001"
   y2="114.3596"
   id="linearGradient2869"
   gradientUnits="userSpaceOnUse"
   gradientTransform="matrix(1,0.3987,0,1,0,-87.0809)">
      <stop
   id="stop2871"
   style="stop-color:#999999;stop-opacity:1"
   offset="0" />
      <stop
   id="stop2873"
   style="stop-color:#000000;stop-opacity:1"
   offset="1" />
      
      
      
    </linearGradient>
    <path
   d="m 9.797,27.804 53.135,25.178 v 53.031 L 9.797,80.837 V 27.804 z"
   id="path2875"
   style="fill:url(#linearGradient2905)" />
    <linearGradient
   x1="12.0435"
   y1="120.103"
   x2="60.9398"
   y2="155.1333"
   id="linearGradient2877"
   gradientUnits="userSpaceOnUse"
   gradientTransform="matrix(1,0.3987,0,1,0,-87.0809)">
      <stop
   id="stop2879"
   style="stop-color:#a1a1a1;stop-opacity:1"
   offset="0" />
      <stop
   id="stop2881"
   style="stop-color:#000000;stop-opacity:1"
   offset="1" />
      
      
      
    </linearGradient>
    <path
   d="m 12.451,29.408 c 0,5.213 0,44.457 0,49.67 4.568,2.189 45.646,21.875 50.217,24.066 0,-5.213 0,-44.455 0,-49.668 C 58.098,51.287 17.02,31.597 12.451,29.408 z"
   id="path2883"
   style="fill:url(#linearGradient2907)" />
    <path
   d="m 12.451,29.408 c 0,5.213 0,44.457 0,49.67 4.568,2.189 45.646,21.875 50.217,24.066 0,-5.213 0,-44.455 0,-49.668 C 58.098,51.287 17.02,31.597 12.451,29.408 z"
   id="path2885"
   style="fill:url(#linearGradient2909)" />
    <path
   d="m 33.896,96.126 c 0,-0.428 0.234,-0.676 0.561,-0.654 -0.072,-0.316 -0.092,-0.846 -1.379,-1.268 -1.223,-0.76 -1.672,-0.193 -1.672,0.727 0,0.758 0.559,2.193 1.266,2.93 0.158,0.158 0.336,0.023 0.498,0.104 0.15,0.07 0.414,0.377 0.549,0.371 0.438,-0.025 0.646,-0.443 0.84,-0.932 -0.377,-0.276 -0.663,-0.807 -0.663,-1.278 z"
   id="path2887"
   style="fill:#808080" />
    <linearGradient
   x1="25.383301"
   y1="86.643097"
   x2="55.762501"
   y2="80.420898"
   id="linearGradient2889"
   gradientUnits="userSpaceOnUse">
      <stop
   id="stop2891"
   style="stop-color:#ffffff;stop-opacity:1"
   offset="0" />
      <stop
   id="stop2893"
   style="stop-color:#000000;stop-opacity:1"
   offset="1" />
      
      
      
    </linearGradient>
    <path
   d="m 12.451,66.818 c 0,5.951 0,10.678 0,12.26 4.568,2.189 45.646,21.875 50.217,24.066 0,-4.188 0,-30.336 0,-43.158 -17.637,-2.511 -38.56,1.525 -50.217,6.832 z"
   id="path2895"
   style="opacity:0.5;fill:url(#linearGradient2911)" />
    <g
   id="g2897">
      <path
   d="M 25.259,46.343 14.8,46.892 V 45.107 L 21.932,44.731 14.8,37.447 V 35.66 l 10.459,10.683 z"
   id="path2899"
   style="fill:#ffffff" />
      <path
   d="m 24.35,53.119 v -1.6 l 10.459,5.066 v 1.6 L 24.35,53.119 z"
   id="path2901"
   style="fill:#ffffff" />
    </g>
  </g></svg>