<?xml version="1.0" encoding="UTF-8" standalone="no"?>
<!-- Created with Inkscape (http://www.inkscape.org/) -->

<svg
   xmlns:svg="http://www.w3.org/2000/svg"
   xmlns="http://www.w3.org/2000/svg"
   version="1.1"
   width="85"
   height="122"
   viewBox="-0.354 0.026 85 122"
   id="svg2"
   xml:space="preserve"
   style="overflow:visible"><defs
   id="defs343" />
	<g
   id="Layer_1_2_">
		<path
   d="m 29.443,121.73 26.896,-6.338 28.334,-15.597 0.04,-3.283 -37.709,-20.69 0.067,33.891 -17.628,12.017 z"
   id="path5"
   style="opacity:0.2" />
		<path
   d="M 19.292,15.972 0,25.963 v 38.972 c 0,0 2.808,1.273 3.058,1.388 0,4.548 0,41.579 0,41.579 L 29.444,121.73 48.09,109.131 c 0,0 -0.092,-36.084 -0.101,-39.59 1.387,-1.105 4.683,-3.729 4.683,-3.729 V 29.825 l -31.628,-14.76 -1.752,0.907 z"
   id="path7" />
		<g
   id="g9">
			<path
   d="M 48.662,32.378 21.137,19.533 4.01,28.403 v 33.948 l 3.058,1.388 v 41.737 l 22.116,11.591 14.891,-10.062 -0.101,-39.393 4.688,-3.731 V 32.378 z"
   id="path11" />
		</g>
		<g
   id="g13">
			<linearGradient
   x1="18.6401"
   y1="85.083504"
   x2="-2.1110001"
   y2="78.788597"
   id="XMLID_1_"
   gradientUnits="userSpaceOnUse">
				<stop
   id="stop16"
   style="stop-color:#ffcc00;stop-opacity:1"
   offset="0" />
				<stop
   id="stop18"
   style="stop-color:#ffbc00;stop-opacity:1"
   offset="0.8114" />
				<stop
   id="stop20"
   style="stop-color:#ffb800;stop-opacity:1"
   offset="1" />
				<midPointStop
   id="midPointStop22"
   style="stop-color:#FFCC00"
   offset="0" />
				<midPointStop
   id="midPointStop24"
   style="stop-color:#FFCC00"
   offset="0.5587" />
				<midPointStop
   id="midPointStop26"
   style="stop-color:#FFB800"
   offset="1" />
			</linearGradient>
			<path
   d="m 7.067,61.434 v 44.042 L 29.183,117.067 44.074,107.005 43.965,63.98 32.098,72.724 7.067,61.434 z"
   id="path28"
   style="fill:url(#XMLID_1_)" />
		</g>
		<g
   id="g30">
			<path
   d="M 29.162,71.097 44.06,61.004 v 46.009 l -14.688,10.021 -0.21,-45.937 z"
   id="path32"
   style="fill:#ff6600" />
		</g>
		<g
   id="g34">
			<linearGradient
   x1="38.688999"
   y1="78.735802"
   x2="36.887901"
   y2="73.031898"
   id="XMLID_2_"
   gradientUnits="userSpaceOnUse">
				<stop
   id="stop37"
   style="stop-color:#ff6600;stop-opacity:1"
   offset="0" />
				<stop
   id="stop39"
   style="stop-color:#ef5700;stop-opacity:1"
   offset="0.37650001" />
				<stop
   id="stop41"
   style="stop-color:#cd3500;stop-opacity:1"
   offset="1" />
				<midPointStop
   id="midPointStop43"
   style="stop-color:#FF6600"
   offset="0" />
				<midPointStop
   id="midPointStop45"
   style="stop-color:#FF6600"
   offset="0.5587" />
				<midPointStop
   id="midPointStop47"
   style="stop-color:#CD3500"
   offset="1" />
			</linearGradient>
			<path
   d="M 29.161,70.849 44.058,60.757 v 15.622 l -14.777,7.547 -0.12,-13.077 z"
   id="path49"
   style="fill:url(#XMLID_2_)" />
		</g>
		<g
   id="g51">
			<linearGradient
   x1="29.771999"
   y1="48.388699"
   x2="9.0223999"
   y2="42.0942"
   id="XMLID_3_"
   gradientUnits="userSpaceOnUse">
				<stop
   id="stop54"
   style="stop-color:#ffcc00;stop-opacity:1"
   offset="0" />
				<stop
   id="stop56"
   style="stop-color:#ffbc00;stop-opacity:1"
   offset="0.8114" />
				<stop
   id="stop58"
   style="stop-color:#ffb800;stop-opacity:1"
   offset="1" />
				<midPointStop
   id="midPointStop60"
   style="stop-color:#FFCC00"
   offset="0" />
				<midPointStop
   id="midPointStop62"
   style="stop-color:#FFCC00"
   offset="0.5587" />
				<midPointStop
   id="midPointStop64"
   style="stop-color:#FFB800"
   offset="1" />
			</linearGradient>
			<path
   d="M 4.01,28.403 V 62.351 L 33.676,75.809 48.662,63.88 V 32.378 L 21.137,19.533 4.01,28.403 z"
   id="path66"
   style="fill:url(#XMLID_3_)" />
		</g>
		<g
   id="g68">
			<path
   d="M 33.556,42.537 48.674,32.348 48.736,63.942 33.676,75.846 33.556,42.537 z"
   id="path70"
   style="fill:#ff6600" />
		</g>
		<path
   d="m 16.901,73.973 c -1.032,-0.537 -2.005,0.208 -2.005,0.208 l 0.073,35.392 3.937,2.182 V 76.263 c 0,0 -1.035,-1.786 -2.005,-2.29 z"
   id="path72"
   style="fill:#ff6600" />
		<path
   d="m 16.751,74.787 c -0.863,-0.169 -1.023,0.321 -1.023,0.321 l -0.189,34.737 2.749,1.327 -0.042,-34.909 c -10e-4,0 -0.688,-1.318 -1.495,-1.476 z"
   id="path74"
   style="fill:#cd3500" />
		<g
   id="g76">
			<linearGradient
   x1="29.6777"
   y1="29.9014"
   x2="9.7792997"
   y2="39.701801"
   id="XMLID_4_"
   gradientUnits="userSpaceOnUse">
				<stop
   id="stop79"
   style="stop-color:#ffcc00;stop-opacity:1"
   offset="0" />
				<stop
   id="stop81"
   style="stop-color:#ffcf10;stop-opacity:1"
   offset="0.0962" />
				<stop
   id="stop83"
   style="stop-color:#ffd739;stop-opacity:1"
   offset="0.2834" />
				<stop
   id="stop85"
   style="stop-color:#ffe57b;stop-opacity:1"
   offset="0.5431" />
				<stop
   id="stop87"
   style="stop-color:#fff7d6;stop-opacity:1"
   offset="0.86210001" />
				<stop
   id="stop89"
   style="stop-color:#ffffff;stop-opacity:1"
   offset="1" />
				<midPointStop
   id="midPointStop91"
   style="stop-color:#FFCC00"
   offset="0" />
				<midPointStop
   id="midPointStop93"
   style="stop-color:#FFCC00"
   offset="0.5587" />
				<midPointStop
   id="midPointStop95"
   style="stop-color:#FFFFFF"
   offset="1" />
			</linearGradient>
			<path
   d="M 3.996,28.429 33.537,42.574 48.674,32.347 21.137,19.533 3.996,28.429 z"
   id="path97"
   style="fill:url(#XMLID_4_)" />
		</g>
		<path
   d="M 3.996,28.429 4.05,30.219 33.549,44.718 33.537,42.573 35.505,41.251 5.7,27.491 3.996,28.429 z"
   id="path99"
   style="fill:#ffffff" />
		<g
   id="g101"
   style="opacity:0.8">
			<path
   d="m 13.892,26.451 c 0,-3.036 2.577,-5.76 7.311,-6.967 0.057,0.005 22.224,10.203 22.231,10.155 -1.8,3.048 -6.884,4.589 -15.646,4.386 -7.672,-0.178 -13.896,-3.392 -13.896,-7.574 z"
   id="path103"
   style="fill:#ff6600" />
		</g>
		<g
   id="g105">
			<path
   d="M 10.726,15.569 C 10.726,7.798 17.025,1.5 24.794,1.5 c 7.771,0 14.069,6.299 14.069,14.069 0,7.77 -6.299,14.068 -14.069,14.068 -7.769,0.001 -14.068,-6.298 -14.068,-14.068 z"
   id="path107"
   style="fill:#808080" />
			<path
   d="m 38.746,15.537 c 0,7.719 -6.259,13.977 -13.979,13.977 -7.72,0 -13.977,-6.259 -13.977,-13.977 0,-7.72 6.258,-13.979 13.978,-13.979 7.72,0 13.978,6.258 13.978,13.979 z"
   id="path109"
   style="fill:#808080" />
			<path
   d="m 38.626,15.504 c 0,7.669 -6.217,13.886 -13.887,13.886 -7.669,0 -13.887,-6.217 -13.887,-13.886 0,-7.67 6.218,-13.887 13.887,-13.887 7.671,0 13.887,6.217 13.887,13.887 z"
   id="path111"
   style="fill:#818181" />
			<path
   d="m 38.508,15.471 c 0,7.619 -6.177,13.795 -13.796,13.795 -7.619,0 -13.795,-6.176 -13.795,-13.795 0,-7.62 6.176,-13.796 13.795,-13.796 7.619,0 13.796,6.177 13.796,13.796 z"
   id="path113"
   style="fill:#828282" />
			<path
   d="m 38.389,15.438 c 0,7.568 -6.135,13.704 -13.705,13.704 -7.567,0 -13.704,-6.136 -13.704,-13.704 0,-7.569 6.137,-13.705 13.704,-13.705 7.57,0 13.705,6.136 13.705,13.705 z"
   id="path115"
   style="fill:#848484" />
			<path
   d="m 38.271,15.405 c 0,7.518 -6.095,13.613 -13.614,13.613 -7.518,0 -13.612,-6.095 -13.612,-13.613 0,-7.519 6.095,-13.614 13.612,-13.614 7.519,0 13.614,6.095 13.614,13.614 z"
   id="path117"
   style="fill:#848484" />
			<path
   d="m 38.152,15.373 c 0,7.467 -6.054,13.521 -13.522,13.521 -7.468,0 -13.521,-6.054 -13.521,-13.521 0,-7.469 6.054,-13.523 13.521,-13.523 7.468,-0.001 13.522,6.053 13.522,13.523 z"
   id="path119"
   style="fill:#858585" />
			<path
   d="m 38.034,15.339 c 0,7.417 -6.014,13.431 -13.432,13.431 -7.418,0 -13.432,-6.013 -13.432,-13.431 0,-7.418 6.014,-13.432 13.432,-13.432 7.418,0 13.432,6.014 13.432,13.432 z"
   id="path121"
   style="fill:#868686" />
			<path
   d="m 37.916,15.307 c 0,7.367 -5.973,13.34 -13.341,13.34 -7.367,0 -13.34,-5.973 -13.34,-13.34 0,-7.368 5.973,-13.341 13.34,-13.341 7.368,0 13.341,5.973 13.341,13.341 z"
   id="path123"
   style="fill:#878787" />
			<path
   d="m 37.797,15.274 c 0,7.317 -5.933,13.249 -13.25,13.249 -7.317,0 -13.249,-5.932 -13.249,-13.249 0,-7.318 5.932,-13.25 13.249,-13.25 7.317,0 13.25,5.932 13.25,13.25 z"
   id="path125"
   style="fill:#888888" />
			<path
   d="m 37.678,15.241 c 0,7.267 -5.891,13.158 -13.158,13.158 -7.267,0 -13.158,-5.891 -13.158,-13.158 0,-7.267 5.891,-13.158 13.158,-13.158 7.268,0 13.158,5.891 13.158,13.158 z"
   id="path127"
   style="fill:#898989" />
			<path
   d="m 37.56,15.208 c 0,7.216 -5.851,13.067 -13.067,13.067 -7.216,0 -13.067,-5.851 -13.067,-13.067 0,-7.217 5.851,-13.067 13.067,-13.067 7.216,0 13.067,5.85 13.067,13.067 z"
   id="path129"
   style="fill:#8a8a8a" />
			<path
   d="m 37.441,15.175 c 0,7.167 -5.81,12.976 -12.977,12.976 -7.166,0 -12.976,-5.81 -12.976,-12.976 0,-7.166 5.81,-12.976 12.976,-12.976 7.167,0 12.977,5.809 12.977,12.976 z"
   id="path131"
   style="fill:#8b8b8b" />
			<path
   d="m 37.323,15.142 c 0,7.116 -5.769,12.885 -12.886,12.885 -7.115,0 -12.885,-5.769 -12.885,-12.885 0,-7.116 5.77,-12.885 12.885,-12.885 7.117,0 12.886,5.769 12.886,12.885 z"
   id="path133"
   style="fill:#8c8c8c" />
			<path
   d="m 37.204,15.109 c 0,7.065 -5.728,12.793 -12.794,12.793 -7.065,0 -12.794,-5.728 -12.794,-12.793 0,-7.066 5.729,-12.794 12.794,-12.794 7.066,0 12.794,5.728 12.794,12.794 z"
   id="path135"
   style="fill:#8d8d8d" />
			<path
   d="m 37.085,15.076 c 0,7.016 -5.688,12.703 -12.703,12.703 -7.015,0 -12.703,-5.687 -12.703,-12.703 0,-7.016 5.688,-12.702 12.703,-12.702 7.015,0 12.703,5.687 12.703,12.702 z"
   id="path137"
   style="fill:#8e8e8e" />
			<path
   d="m 36.967,15.044 c 0,6.965 -5.646,12.611 -12.612,12.611 -6.965,0 -12.611,-5.646 -12.611,-12.611 0,-6.966 5.646,-12.612 12.611,-12.612 6.966,0 12.612,5.646 12.612,12.612 z"
   id="path139"
   style="fill:#8f8f8f" />
			<path
   d="m 36.848,15.011 c 0,6.914 -5.605,12.52 -12.521,12.52 -6.916,0 -12.521,-5.606 -12.521,-12.52 0,-6.916 5.605,-12.521 12.521,-12.521 6.916,0 12.521,5.606 12.521,12.521 z"
   id="path141"
   style="fill:#909090" />
			<path
   d="m 36.73,14.978 c 0,6.864 -5.565,12.429 -12.431,12.429 -6.863,0 -12.429,-5.565 -12.429,-12.429 0,-6.865 5.565,-12.43 12.429,-12.43 6.866,0 12.431,5.565 12.431,12.43 z"
   id="path143"
   style="fill:#919191" />
			<path
   d="m 36.612,14.946 c 0,6.814 -5.524,12.338 -12.34,12.338 -6.813,0 -12.338,-5.524 -12.338,-12.338 0,-6.815 5.524,-12.339 12.338,-12.339 6.815,-0.001 12.34,5.524 12.34,12.339 z"
   id="path145"
   style="fill:#929292" />
			<path
   d="m 36.493,14.913 c 0,6.764 -5.483,12.247 -12.248,12.247 -6.763,0 -12.247,-5.483 -12.247,-12.247 0,-6.765 5.484,-12.248 12.247,-12.248 6.764,0 12.248,5.483 12.248,12.248 z"
   id="path147"
   style="fill:#939393" />
			<path
   d="m 36.375,14.88 c 0,6.713 -5.443,12.156 -12.157,12.156 -6.713,0 -12.155,-5.443 -12.155,-12.156 0,-6.714 5.442,-12.157 12.155,-12.157 6.713,0 12.157,5.443 12.157,12.157 z"
   id="path149"
   style="fill:#949494" />
			<path
   d="m 36.255,14.847 c 0,6.663 -5.401,12.064 -12.065,12.064 -6.663,0 -12.065,-5.402 -12.065,-12.064 0,-6.665 5.402,-12.066 12.065,-12.066 6.664,0 12.065,5.402 12.065,12.066 z"
   id="path151"
   style="fill:#959595" />
			<path
   d="m 36.137,14.813 c 0,6.613 -5.361,11.974 -11.976,11.974 -6.612,0 -11.974,-5.361 -11.974,-11.974 0,-6.613 5.362,-11.974 11.975,-11.974 6.614,0 11.975,5.361 11.975,11.974 z"
   id="path153"
   style="fill:#969696" />
			<path
   d="m 36.018,14.781 c 0,6.562 -5.319,11.883 -11.883,11.883 -6.562,0 -11.883,-5.32 -11.883,-11.883 0,-6.563 5.32,-11.884 11.883,-11.884 6.564,0 11.883,5.321 11.883,11.884 z"
   id="path155"
   style="fill:#979797" />
			<path
   d="m 35.9,14.749 c 0,6.512 -5.279,11.792 -11.792,11.792 -6.513,0 -11.792,-5.28 -11.792,-11.792 0,-6.513 5.279,-11.793 11.792,-11.793 6.513,0 11.792,5.279 11.792,11.793 z"
   id="path157"
   style="fill:#989898" />
			<path
   d="m 35.781,14.715 c 0,6.462 -5.238,11.701 -11.701,11.701 -6.462,0 -11.7,-5.239 -11.7,-11.701 0,-6.462 5.238,-11.701 11.7,-11.701 6.462,0 11.701,5.239 11.701,11.701 z"
   id="path159"
   style="fill:#999999" />
			<path
   d="m 35.664,14.683 c 0,6.412 -5.198,11.609 -11.61,11.609 -6.412,0 -11.61,-5.198 -11.61,-11.609 0,-6.413 5.198,-11.61 11.61,-11.61 6.412,0 11.61,5.198 11.61,11.61 z"
   id="path161"
   style="fill:#9a9a9a" />
			<path
   d="m 35.544,14.65 c 0,6.361 -5.157,11.519 -11.52,11.519 -6.361,0 -11.519,-5.157 -11.519,-11.519 0,-6.362 5.157,-11.519 11.519,-11.519 6.363,0 11.52,5.157 11.52,11.519 z"
   id="path163"
   style="fill:#9b9b9b" />
			<path
   d="m 35.426,14.617 c 0,6.311 -5.117,11.427 -11.429,11.427 -6.312,0 -11.427,-5.116 -11.427,-11.427 0,-6.312 5.116,-11.428 11.428,-11.428 6.312,0 11.428,5.116 11.428,11.428 z"
   id="path165"
   style="fill:#9c9c9c" />
			<path
   d="m 35.307,14.584 c 0,6.26 -5.076,11.336 -11.337,11.336 -6.261,0 -11.337,-5.076 -11.337,-11.336 0,-6.262 5.076,-11.337 11.337,-11.337 6.261,0 11.337,5.076 11.337,11.337 z"
   id="path167"
   style="fill:#9d9d9d" />
			<path
   d="m 35.189,14.551 c 0,6.21 -5.035,11.246 -11.246,11.246 -6.211,0 -11.245,-5.035 -11.245,-11.246 0,-6.211 5.034,-11.246 11.245,-11.246 6.211,0 11.246,5.035 11.246,11.246 z"
   id="path169"
   style="fill:#9e9e9e" />
			<path
   d="m 35.07,14.519 c 0,6.16 -4.993,11.154 -11.154,11.154 -6.16,0 -11.155,-4.995 -11.155,-11.154 0,-6.161 4.995,-11.155 11.155,-11.155 6.161,0 11.154,4.993 11.154,11.155 z"
   id="path171"
   style="fill:#9f9f9f" />
			<path
   d="m 34.952,14.486 c 0,6.11 -4.953,11.063 -11.064,11.063 -6.109,0 -11.062,-4.953 -11.062,-11.063 0,-6.111 4.953,-11.064 11.062,-11.064 6.111,0 11.064,4.953 11.064,11.064 z"
   id="path173"
   style="fill:#a0a0a0" />
			<path
   d="m 34.833,14.453 c 0,6.06 -4.912,10.972 -10.973,10.972 -6.059,0 -10.972,-4.913 -10.972,-10.972 0,-6.06 4.913,-10.973 10.972,-10.973 6.06,0 10.973,4.913 10.973,10.973 z"
   id="path175"
   style="fill:#a1a1a1" />
			<path
   d="m 34.714,14.42 c 0,6.009 -4.871,10.881 -10.882,10.881 -6.009,0 -10.881,-4.872 -10.881,-10.881 0,-6.01 4.872,-10.882 10.881,-10.882 6.011,0 10.882,4.872 10.882,10.882 z"
   id="path177"
   style="fill:#a2a2a2" />
			<path
   d="m 34.595,14.387 c 0,5.959 -4.83,10.791 -10.79,10.791 -5.959,0 -10.79,-4.832 -10.79,-10.791 0,-5.959 4.831,-10.791 10.79,-10.791 5.96,0 10.79,4.831 10.79,10.791 z"
   id="path179"
   style="fill:#a3a3a3" />
			<path
   d="m 34.477,14.354 c 0,5.909 -4.79,10.699 -10.699,10.699 -5.908,0 -10.699,-4.79 -10.699,-10.699 0,-5.91 4.791,-10.7 10.699,-10.7 5.909,10e-4 10.699,4.791 10.699,10.7 z"
   id="path181"
   style="fill:#a4a4a4" />
			<path
   d="m 34.359,14.322 c 0,5.858 -4.749,10.607 -10.608,10.607 -5.858,0 -10.608,-4.75 -10.608,-10.607 0,-5.859 4.75,-10.609 10.608,-10.609 5.859,0 10.608,4.749 10.608,10.609 z"
   id="path183"
   style="fill:#a5a5a5" />
			<path
   d="m 34.241,14.289 c 0,5.808 -4.709,10.517 -10.519,10.517 -5.808,0 -10.517,-4.708 -10.517,-10.517 0,-5.809 4.709,-10.518 10.517,-10.518 5.81,0 10.519,4.709 10.519,10.518 z"
   id="path185"
   style="fill:#a6a6a6" />
			<path
   d="m 34.122,14.256 c 0,5.757 -4.668,10.425 -10.427,10.425 -5.757,0 -10.426,-4.668 -10.426,-10.425 0,-5.759 4.669,-10.426 10.426,-10.426 5.759,0 10.427,4.667 10.427,10.426 z"
   id="path187"
   style="fill:#a7a7a7" />
			<path
   d="m 34.003,14.223 c 0,5.708 -4.627,10.334 -10.335,10.334 -5.708,0 -10.335,-4.627 -10.335,-10.334 0,-5.708 4.627,-10.335 10.335,-10.335 5.708,0 10.335,4.627 10.335,10.335 z"
   id="path189"
   style="fill:#a8a8a8" />
			<path
   d="m 33.884,14.19 c 0,5.657 -4.586,10.244 -10.244,10.244 -5.657,0 -10.243,-4.587 -10.243,-10.244 0,-5.658 4.586,-10.244 10.243,-10.244 5.658,0 10.244,4.586 10.244,10.244 z"
   id="path191"
   style="fill:#a9a9a9" />
			<path
   d="m 33.766,14.157 c 0,5.607 -4.546,10.153 -10.153,10.153 -5.606,0 -10.152,-4.546 -10.152,-10.153 0,-5.607 4.546,-10.153 10.152,-10.153 5.607,0 10.153,4.546 10.153,10.153 z"
   id="path193"
   style="fill:#aaaaaa" />
			<path
   d="m 33.647,14.124 c 0,5.557 -4.504,10.062 -10.062,10.062 -5.557,0 -10.062,-4.505 -10.062,-10.062 0,-5.557 4.505,-10.062 10.062,-10.062 5.558,0 10.062,4.505 10.062,10.062 z"
   id="path195"
   style="fill:#ababab" />
			<path
   d="m 33.529,14.092 c 0,5.506 -4.464,9.97 -9.971,9.97 -5.507,0 -9.971,-4.464 -9.971,-9.97 0,-5.507 4.464,-9.971 9.971,-9.971 5.507,0 9.971,4.463 9.971,9.971 z"
   id="path197"
   style="fill:#acacac" />
			<path
   d="m 33.41,14.059 c 0,5.456 -4.423,9.879 -9.879,9.879 -5.456,0 -9.88,-4.423 -9.88,-9.879 0,-5.457 4.424,-9.88 9.88,-9.88 5.456,0 9.879,4.423 9.879,9.88 z"
   id="path199"
   style="fill:#adadad" />
			<path
   d="m 33.292,14.026 c 0,5.406 -4.382,9.788 -9.788,9.788 -5.406,0 -9.789,-4.382 -9.789,-9.788 0,-5.406 4.383,-9.789 9.789,-9.789 5.406,0 9.788,4.383 9.788,9.789 z"
   id="path201"
   style="fill:#aeaeae" />
			<path
   d="m 33.173,13.993 c 0,5.355 -4.342,9.697 -9.698,9.697 -5.355,0 -9.696,-4.342 -9.696,-9.697 0,-5.356 4.341,-9.698 9.696,-9.698 5.357,0 9.698,4.342 9.698,9.698 z"
   id="path203"
   style="fill:#afafaf" />
			<path
   d="m 33.055,13.96 c 0,5.305 -4.302,9.606 -9.607,9.606 -5.305,0 -9.606,-4.301 -9.606,-9.606 0,-5.306 4.302,-9.607 9.606,-9.607 5.305,0.001 9.607,4.301 9.607,9.607 z"
   id="path205"
   style="fill:#b0b0b0" />
			<path
   d="m 32.936,13.927 c 0,5.255 -4.26,9.515 -9.516,9.515 -5.255,0 -9.515,-4.26 -9.515,-9.515 0,-5.255 4.26,-9.516 9.515,-9.516 5.256,0.001 9.516,4.261 9.516,9.516 z"
   id="path207"
   style="fill:#b1b1b1" />
			<path
   d="m 32.818,13.895 c 0,5.204 -4.22,9.424 -9.425,9.424 -5.204,0 -9.424,-4.22 -9.424,-9.424 0,-5.205 4.22,-9.424 9.424,-9.424 5.205,-0.001 9.425,4.218 9.425,9.424 z"
   id="path209"
   style="fill:#b2b2b2" />
			<path
   d="m 32.699,13.861 c 0,5.155 -4.179,9.333 -9.333,9.333 -5.154,0 -9.333,-4.178 -9.333,-9.333 0,-5.155 4.179,-9.333 9.333,-9.333 5.154,0 9.333,4.179 9.333,9.333 z"
   id="path211"
   style="fill:#b3b3b3" />
			<path
   d="m 32.581,13.829 c 0,5.104 -4.138,9.242 -9.243,9.242 -5.103,0 -9.241,-4.138 -9.241,-9.242 0,-5.105 4.139,-9.242 9.241,-9.242 5.105,0 9.243,4.137 9.243,9.242 z"
   id="path213"
   style="fill:#b4b4b4" />
			<path
   d="m 32.461,13.796 c 0,5.053 -4.097,9.151 -9.151,9.151 -5.053,0 -9.15,-4.098 -9.15,-9.151 0,-5.055 4.098,-9.151 9.15,-9.151 5.055,0 9.151,4.097 9.151,9.151 z"
   id="path215"
   style="fill:#b5b5b5" />
			<path
   d="m 32.343,13.763 c 0,5.003 -4.057,9.06 -9.061,9.06 -5.003,0 -9.06,-4.057 -9.06,-9.06 0,-5.004 4.057,-9.06 9.06,-9.06 5.005,0 9.061,4.056 9.061,9.06 z"
   id="path217"
   style="fill:#b6b6b6" />
			<path
   d="m 32.224,13.73 c 0,4.953 -4.015,8.969 -8.969,8.969 -4.952,0 -8.968,-4.016 -8.968,-8.969 0,-4.954 4.016,-8.969 8.968,-8.969 4.954,0 8.969,4.015 8.969,8.969 z"
   id="path219"
   style="fill:#b7b7b7" />
			<path
   d="m 32.106,13.698 c 0,4.902 -3.975,8.877 -8.878,8.877 -4.902,0 -8.878,-3.975 -8.878,-8.877 0,-4.904 3.976,-8.878 8.878,-8.878 4.903,0 8.878,3.974 8.878,8.878 z"
   id="path221"
   style="fill:#b8b8b8" />
			<path
   d="m 31.988,13.665 c 0,4.853 -3.934,8.787 -8.787,8.787 -4.853,0 -8.786,-3.934 -8.786,-8.787 0,-4.853 3.934,-8.787 8.786,-8.787 4.853,0 8.787,3.934 8.787,8.787 z"
   id="path223"
   style="fill:#b9b9b9" />
			<path
   d="m 31.869,13.632 c 0,4.802 -3.893,8.695 -8.695,8.695 -4.802,0 -8.695,-3.893 -8.695,-8.695 0,-4.803 3.893,-8.696 8.695,-8.696 4.802,0 8.695,3.893 8.695,8.696 z"
   id="path225"
   style="fill:#bababa" />
			<path
   d="m 31.75,13.599 c 0,4.751 -3.853,8.604 -8.604,8.604 -4.751,0 -8.604,-3.853 -8.604,-8.604 0,-4.752 3.853,-8.605 8.604,-8.605 4.751,0 8.604,3.853 8.604,8.605 z"
   id="path227"
   style="fill:#bbbbbb" />
			<path
   d="m 31.632,13.566 c 0,4.702 -3.812,8.514 -8.514,8.514 -4.702,0 -8.514,-3.812 -8.514,-8.514 0,-4.702 3.812,-8.514 8.514,-8.514 4.702,0 8.514,3.812 8.514,8.514 z"
   id="path229"
   style="fill:#bcbcbc" />
			<path
   d="m 31.513,13.534 c 0,4.651 -3.771,8.422 -8.423,8.422 -4.65,0 -8.422,-3.771 -8.422,-8.422 0,-4.652 3.771,-8.423 8.422,-8.423 4.653,-10e-4 8.423,3.77 8.423,8.423 z"
   id="path231"
   style="fill:#bdbdbd" />
			<path
   d="m 31.395,13.5 c 0,4.601 -3.729,8.331 -8.332,8.331 -4.601,0 -8.331,-3.73 -8.331,-8.331 0,-4.602 3.73,-8.332 8.331,-8.332 4.603,10e-4 8.332,3.731 8.332,8.332 z"
   id="path233"
   style="fill:#bebebe" />
			<path
   d="m 31.276,13.468 c 0,4.55 -3.688,8.24 -8.24,8.24 -4.551,0 -8.24,-3.69 -8.24,-8.24 0,-4.551 3.689,-8.241 8.24,-8.241 4.551,0 8.24,3.69 8.24,8.241 z"
   id="path235"
   style="fill:#bfbfbf" />
			<path
   d="m 31.158,13.435 c 0,4.5 -3.648,8.149 -8.149,8.149 -4.5,0 -8.149,-3.649 -8.149,-8.149 0,-4.5 3.649,-8.149 8.149,-8.149 4.5,0 8.149,3.648 8.149,8.149 z"
   id="path237"
   style="fill:#c0c0c0" />
			<path
   d="m 31.04,13.402 c 0,4.45 -3.607,8.058 -8.059,8.058 -4.45,0 -8.059,-3.608 -8.059,-8.058 0,-4.451 3.608,-8.059 8.059,-8.059 4.451,0.001 8.059,3.608 8.059,8.059 z"
   id="path239"
   style="fill:#c1c1c1" />
			<path
   d="m 30.92,13.369 c 0,4.4 -3.566,7.967 -7.967,7.967 -4.401,0 -7.968,-3.567 -7.968,-7.967 0,-4.4 3.567,-7.967 7.968,-7.967 4.401,0 7.967,3.567 7.967,7.967 z"
   id="path241"
   style="fill:#c2c2c2" />
			<path
   d="m 30.802,13.336 c 0,4.349 -3.526,7.876 -7.877,7.876 -4.349,0 -7.875,-3.527 -7.875,-7.876 0,-4.35 3.526,-7.876 7.875,-7.876 4.351,0 7.877,3.526 7.877,7.876 z"
   id="path243"
   style="fill:#c3c3c3" />
			<path
   d="m 30.683,13.303 c 0,4.299 -3.484,7.785 -7.785,7.785 -4.299,0 -7.784,-3.486 -7.784,-7.785 0,-4.299 3.485,-7.785 7.784,-7.785 4.301,0.001 7.785,3.486 7.785,7.785 z"
   id="path245"
   style="fill:#c4c4c4" />
			<path
   d="m 30.565,13.271 c 0,4.249 -3.444,7.693 -7.694,7.693 -4.248,0 -7.693,-3.445 -7.693,-7.693 0,-4.25 3.445,-7.694 7.693,-7.694 4.25,0 7.694,3.444 7.694,7.694 z"
   id="path247"
   style="fill:#c5c5c5" />
			<path
   d="m 30.447,13.238 c 0,4.199 -3.404,7.603 -7.604,7.603 -4.198,0 -7.603,-3.404 -7.603,-7.603 0,-4.199 3.404,-7.603 7.603,-7.603 4.199,0 7.604,3.404 7.604,7.603 z"
   id="path249"
   style="fill:#c6c6c6" />
			<path
   d="m 30.328,13.205 c 0,4.148 -3.362,7.511 -7.512,7.511 -4.148,0 -7.512,-3.363 -7.512,-7.511 0,-4.149 3.363,-7.512 7.512,-7.512 4.149,0 7.512,3.363 7.512,7.512 z"
   id="path251"
   style="fill:#c7c7c7" />
			<path
   d="m 30.209,13.172 c 0,4.098 -3.322,7.421 -7.421,7.421 -4.098,0 -7.421,-3.323 -7.421,-7.421 0,-4.098 3.323,-7.42 7.421,-7.42 4.099,-10e-4 7.421,3.322 7.421,7.42 z"
   id="path253"
   style="fill:#c8c8c8" />
			<path
   d="m 30.09,13.14 c 0,4.047 -3.281,7.329 -7.329,7.329 -4.048,0 -7.33,-3.282 -7.33,-7.329 0,-4.048 3.282,-7.33 7.33,-7.33 4.048,0 7.329,3.281 7.329,7.33 z"
   id="path255"
   style="fill:#c9c9c9" />
			<path
   d="m 29.972,13.106 c 0,3.997 -3.24,7.238 -7.238,7.238 -3.998,0 -7.239,-3.241 -7.239,-7.238 0,-3.998 3.241,-7.239 7.239,-7.239 3.998,0 7.238,3.241 7.238,7.239 z"
   id="path257"
   style="fill:#cacaca" />
			<path
   d="m 29.854,13.074 c 0,3.947 -3.2,7.147 -7.148,7.147 -3.946,0 -7.146,-3.2 -7.146,-7.147 0,-3.948 3.2,-7.147 7.146,-7.147 3.948,-10e-4 7.148,3.199 7.148,7.147 z"
   id="path259"
   style="fill:#cbcbcb" />
			<path
   d="m 29.735,13.041 c 0,3.897 -3.158,7.057 -7.057,7.057 -3.896,0 -7.056,-3.16 -7.056,-7.057 0,-3.897 3.159,-7.056 7.056,-7.056 3.899,-0.001 7.057,3.159 7.057,7.056 z"
   id="path261"
   style="fill:#cccccc" />
			<path
   d="m 29.617,13.008 c 0,3.846 -3.118,6.965 -6.966,6.965 -3.846,0 -6.965,-3.119 -6.965,-6.965 0,-3.847 3.119,-6.966 6.965,-6.966 3.848,0 6.966,3.119 6.966,6.966 z"
   id="path263"
   style="fill:#cdcdcd" />
			<path
   d="m 29.498,12.975 c 0,3.796 -3.077,6.874 -6.874,6.874 -3.796,0 -6.874,-3.078 -6.874,-6.874 0,-3.797 3.078,-6.875 6.874,-6.875 3.796,0.001 6.874,3.078 6.874,6.875 z"
   id="path265"
   style="fill:#cecece" />
			<path
   d="m 29.379,12.942 c 0,3.746 -3.036,6.783 -6.783,6.783 -3.746,0 -6.783,-3.038 -6.783,-6.783 0,-3.747 3.037,-6.783 6.783,-6.783 3.747,0 6.783,3.037 6.783,6.783 z"
   id="path267"
   style="fill:#cfcfcf" />
			<path
   d="m 29.261,12.909 c 0,3.696 -2.996,6.692 -6.692,6.692 -3.695,0 -6.692,-2.997 -6.692,-6.692 0,-3.695 2.997,-6.692 6.692,-6.692 3.696,0 6.692,2.996 6.692,6.692 z"
   id="path269"
   style="fill:#d0d0d0" />
			<path
   d="m 29.142,12.877 c 0,3.645 -2.955,6.601 -6.601,6.601 -3.646,0 -6.602,-2.956 -6.602,-6.601 0,-3.646 2.956,-6.602 6.602,-6.602 3.646,0 6.601,2.956 6.601,6.602 z"
   id="path271"
   style="fill:#d1d1d1" />
			<path
   d="m 29.024,12.844 c 0,3.595 -2.914,6.51 -6.511,6.51 -3.595,0 -6.51,-2.915 -6.51,-6.51 0,-3.596 2.915,-6.51 6.51,-6.51 3.597,-10e-4 6.511,2.914 6.511,6.51 z"
   id="path273"
   style="fill:#d2d2d2" />
			<path
   d="m 28.905,12.811 c 0,3.544 -2.873,6.419 -6.419,6.419 -3.544,0 -6.418,-2.875 -6.418,-6.419 0,-3.545 2.874,-6.419 6.418,-6.419 3.546,0 6.419,2.874 6.419,6.419 z"
   id="path275"
   style="fill:#d3d3d3" />
			<path
   d="m 28.787,12.778 c 0,3.495 -2.833,6.328 -6.328,6.328 -3.494,0 -6.327,-2.833 -6.327,-6.328 0,-3.495 2.833,-6.328 6.327,-6.328 3.495,0 6.328,2.833 6.328,6.328 z"
   id="path277"
   style="fill:#d4d4d4" />
			<path
   d="m 28.668,12.746 c 0,3.444 -2.792,6.236 -6.237,6.236 -3.444,0 -6.236,-2.792 -6.236,-6.236 0,-3.445 2.792,-6.237 6.236,-6.237 3.445,-0.001 6.237,2.792 6.237,6.237 z"
   id="path279"
   style="fill:#d5d5d5" />
			<path
   d="m 28.549,12.712 c 0,3.394 -2.751,6.146 -6.146,6.146 -3.394,0 -6.146,-2.752 -6.146,-6.146 0,-3.394 2.752,-6.146 6.146,-6.146 3.395,0 6.146,2.752 6.146,6.146 z"
   id="path281"
   style="fill:#d6d6d6" />
			<path
   d="m 28.431,12.68 c 0,3.343 -2.711,6.055 -6.055,6.055 -3.344,0 -6.055,-2.711 -6.055,-6.055 0,-3.344 2.711,-6.055 6.055,-6.055 3.344,0 6.055,2.71 6.055,6.055 z"
   id="path283"
   style="fill:#d7d7d7" />
			<path
   d="m 28.312,12.647 c 0,3.293 -2.669,5.963 -5.963,5.963 -3.293,0 -5.964,-2.67 -5.964,-5.963 0,-3.294 2.671,-5.964 5.964,-5.964 3.294,0 5.963,2.67 5.963,5.964 z"
   id="path285"
   style="fill:#d8d8d8" />
			<path
   d="m 28.194,12.614 c 0,3.243 -2.629,5.873 -5.873,5.873 -3.242,0 -5.872,-2.629 -5.872,-5.873 0,-3.244 2.63,-5.873 5.872,-5.873 3.244,0 5.873,2.63 5.873,5.873 z"
   id="path287"
   style="fill:#d9d9d9" />
			<path
   d="m 28.076,12.581 c 0,3.192 -2.589,5.781 -5.782,5.781 -3.192,0 -5.781,-2.589 -5.781,-5.781 0,-3.193 2.589,-5.782 5.781,-5.782 3.193,0 5.782,2.589 5.782,5.782 z"
   id="path289"
   style="fill:#dadada" />
			<path
   d="m 27.957,12.548 c 0,3.142 -2.547,5.69 -5.69,5.69 -3.142,0 -5.69,-2.548 -5.69,-5.69 0,-3.143 2.549,-5.69 5.69,-5.69 3.143,0 5.69,2.547 5.69,5.69 z"
   id="path291"
   style="fill:#dbdbdb" />
			<path
   d="m 27.838,12.516 c 0,3.092 -2.507,5.599 -5.6,5.599 -3.092,0 -5.6,-2.507 -5.6,-5.599 0,-3.093 2.508,-5.6 5.6,-5.6 3.094,0 5.6,2.507 5.6,5.6 z"
   id="path293"
   style="fill:#dcdcdc" />
			<path
   d="m 27.719,12.482 c 0,3.042 -2.465,5.508 -5.508,5.508 -3.042,0 -5.508,-2.467 -5.508,-5.508 0,-3.042 2.466,-5.508 5.508,-5.508 3.043,0 5.508,2.466 5.508,5.508 z"
   id="path295"
   style="fill:#dddddd" />
			<path
   d="m 27.601,12.45 c 0,2.991 -2.425,5.417 -5.417,5.417 -2.991,0 -5.417,-2.426 -5.417,-5.417 0,-2.992 2.426,-5.417 5.417,-5.417 2.992,0 5.417,2.425 5.417,5.417 z"
   id="path297"
   style="fill:#dedede" />
			<path
   d="m 27.483,12.417 c 0,2.941 -2.385,5.326 -5.326,5.326 -2.941,0 -5.326,-2.385 -5.326,-5.326 0,-2.942 2.385,-5.326 5.326,-5.326 2.941,0 5.326,2.384 5.326,5.326 z"
   id="path299"
   style="fill:#dfdfdf" />
			<path
   d="m 27.364,12.384 c 0,2.891 -2.343,5.235 -5.234,5.235 -2.891,0 -5.235,-2.344 -5.235,-5.235 0,-2.892 2.344,-5.235 5.235,-5.235 2.891,0 5.234,2.344 5.234,5.235 z"
   id="path301"
   style="fill:#e0e0e0" />
			<path
   d="m 27.246,12.351 c 0,2.84 -2.303,5.144 -5.145,5.144 -2.84,0 -5.144,-2.304 -5.144,-5.144 0,-2.841 2.304,-5.144 5.144,-5.144 2.842,0 5.145,2.303 5.145,5.144 z"
   id="path303"
   style="fill:#e1e1e1" />
			<path
   d="m 27.126,12.318 c 0,2.79 -2.262,5.053 -5.053,5.053 -2.79,0 -5.053,-2.263 -5.053,-5.053 0,-2.791 2.263,-5.053 5.053,-5.053 2.792,0.001 5.053,2.263 5.053,5.053 z"
   id="path305"
   style="fill:#e2e2e2" />
			<path
   d="m 27.008,12.286 c 0,2.74 -2.221,4.961 -4.962,4.961 -2.74,0 -4.962,-2.222 -4.962,-4.961 0,-2.741 2.222,-4.962 4.962,-4.962 2.742,0 4.962,2.221 4.962,4.962 z"
   id="path307"
   style="fill:#e3e3e3" />
			<path
   d="m 26.89,12.253 c 0,2.689 -2.181,4.871 -4.871,4.871 -2.689,0 -4.871,-2.181 -4.871,-4.871 0,-2.69 2.182,-4.871 4.871,-4.871 2.69,0 4.871,2.18 4.871,4.871 z"
   id="path309"
   style="fill:#e4e4e4" />
			<path
   d="m 26.771,12.22 c 0,2.639 -2.14,4.78 -4.779,4.78 -2.639,0 -4.779,-2.141 -4.779,-4.78 0,-2.64 2.14,-4.779 4.779,-4.779 2.639,0 4.779,2.139 4.779,4.779 z"
   id="path311"
   style="fill:#e5e5e5" />
			<path
   d="m 26.653,12.187 c 0,2.589 -2.099,4.688 -4.688,4.688 -2.589,0 -4.688,-2.1 -4.688,-4.688 0,-2.589 2.1,-4.688 4.688,-4.688 2.589,0 4.688,2.099 4.688,4.688 z"
   id="path313"
   style="fill:#e6e6e6" />
			<path
   d="m 26.534,12.154 c 0,2.539 -2.058,4.597 -4.597,4.597 -2.539,0 -4.598,-2.059 -4.598,-4.597 0,-2.539 2.059,-4.598 4.598,-4.598 2.539,0 4.597,2.059 4.597,4.598 z"
   id="path315"
   style="fill:#e7e7e7" />
			<path
   d="m 26.416,12.122 c 0,2.488 -2.018,4.506 -4.507,4.506 -2.488,0 -4.506,-2.018 -4.506,-4.506 0,-2.489 2.018,-4.507 4.506,-4.507 2.489,0 4.507,2.017 4.507,4.507 z"
   id="path317"
   style="fill:#e8e8e8" />
			<path
   d="m 26.297,12.088 c 0,2.438 -1.977,4.416 -4.416,4.416 -2.438,0 -4.415,-1.978 -4.415,-4.416 0,-2.438 1.978,-4.415 4.415,-4.415 2.44,0 4.416,1.977 4.416,4.415 z"
   id="path319"
   style="fill:#e9e9e9" />
			<path
   d="m 26.178,12.056 c 0,2.388 -1.936,4.324 -4.324,4.324 -2.388,0 -4.324,-1.937 -4.324,-4.324 0,-2.388 1.937,-4.324 4.324,-4.324 2.389,-0.001 4.324,1.935 4.324,4.324 z"
   id="path321"
   style="fill:#eaeaea" />
			<path
   d="m 26.06,12.023 c 0,2.337 -1.895,4.233 -4.233,4.233 -2.338,0 -4.233,-1.896 -4.233,-4.233 0,-2.338 1.896,-4.233 4.233,-4.233 2.339,0 4.233,1.895 4.233,4.233 z"
   id="path323"
   style="fill:#ebebeb" />
			<path
   d="m 25.941,11.99 c 0,2.287 -1.854,4.142 -4.142,4.142 -2.287,0 -4.143,-1.855 -4.143,-4.142 0,-2.288 1.855,-4.143 4.143,-4.143 2.288,10e-4 4.142,1.855 4.142,4.143 z"
   id="path325"
   style="fill:#ececec" />
			<path
   d="m 25.823,11.957 c 0,2.237 -1.813,4.051 -4.051,4.051 -2.238,0 -4.052,-1.814 -4.052,-4.051 0,-2.237 1.814,-4.051 4.052,-4.051 2.238,0 4.051,1.814 4.051,4.051 z"
   id="path327"
   style="fill:#ededed" />
			<path
   d="m 25.705,11.924 c 0,2.187 -1.772,3.96 -3.96,3.96 -2.187,0 -3.96,-1.773 -3.96,-3.96 0,-2.187 1.773,-3.96 3.96,-3.96 2.187,0 3.96,1.773 3.96,3.96 z"
   id="path329"
   style="fill:#eeeeee" />
			<path
   d="m 25.585,11.892 c 0,2.136 -1.731,3.869 -3.869,3.869 -2.136,0 -3.868,-1.732 -3.868,-3.869 0,-2.137 1.732,-3.869 3.868,-3.869 2.138,-10e-4 3.869,1.732 3.869,3.869 z"
   id="path331"
   style="fill:#efefef" />
			<path
   d="m 25.467,11.859 c 0,2.086 -1.691,3.778 -3.778,3.778 -2.086,0 -3.777,-1.692 -3.777,-3.778 0,-2.087 1.691,-3.778 3.777,-3.778 2.087,0 3.778,1.691 3.778,3.778 z"
   id="path333"
   style="fill:#f0f0f0" />
			<path
   d="m 25.348,11.826 c 0,2.036 -1.649,3.687 -3.687,3.687 -2.035,0 -3.687,-1.651 -3.687,-3.687 0,-2.036 1.651,-3.687 3.687,-3.687 2.038,0 3.687,1.651 3.687,3.687 z"
   id="path335"
   style="fill:#f1f1f1" />
			<path
   d="m 18.039,11.793 c 0,-1.986 1.61,-3.596 3.596,-3.596 1.986,0 3.596,1.61 3.596,3.596 0,1.985 -1.609,3.596 -3.596,3.596 -1.986,0 -3.596,-1.611 -3.596,-3.596 z"
   id="path337"
   style="fill:#f2f2f2" />
		</g>
		<path
   d="m 9.226,15.569 c 0,8.584 6.984,15.568 15.568,15.568 8.585,0 15.569,-6.984 15.569,-15.568 C 40.364,6.984 33.379,0 24.794,0 16.21,0 9.226,6.984 9.226,15.569 z m 3,0 C 12.226,8.639 17.864,3 24.794,3 c 6.931,0 12.569,5.639 12.569,12.569 0,6.93 -5.639,12.568 -12.569,12.568 C 17.864,28.138 12.226,22.5 12.226,15.569 z"
   id="path339" />
	</g>
<g
   transform="matrix(0.55043216,0,0,0.55043216,39.937153,58.777509)"
   id="Layer_1_2_-4">
		<path
   d="m 99.316,93.12 -50.238,-26.055 1.189,49.093 30.949,-7.615 18.1,-15.423 z"
   id="path3156"
   style="opacity:0.2" />
		<path
   d="M 23.955,21.731 6.541,36.755 v 8.797 c 0,0 4.966,2.573 6.634,3.438 0,2.298 0,14.198 0,15.965 C 11.728,66.202 0,76.32 0,76.32 v 13.753 l 50.268,26.085 18.631,-16.073 V 86.332 c 0,0 -8.731,-4.531 -10.717,-5.562 0,-2.694 0,-42.985 0,-42.985 l -33.01,-17.104 -1.217,1.05 z"
   id="path3158" />
		<path
   d="M 55.808,82.213 V 39.229 L 25.506,23.529 8.914,37.842 v 6.267 l 6.635,3.438 V 66.042 L 2.373,77.407 V 88.631 L 49.934,113.312 66.526,98.999 V 87.774 L 55.808,82.213 z"
   id="path3160" />
		<g
   id="g3162">
			<linearGradient
   x1="28.7749"
   y1="47.0522"
   x2="33.374298"
   y2="36.128502"
   id="XMLID_1_-7"
   gradientUnits="userSpaceOnUse">
				<stop
   id="stop3165"
   style="stop-color:#3399ff;stop-opacity:1"
   offset="0" />
				<stop
   id="stop3167"
   style="stop-color:#012df1;stop-opacity:1"
   offset="1" />
				<midPointStop
   offset="0"
   style="stop-color:#3399FF"
   id="midPointStop3169" />
				<midPointStop
   offset="0.5"
   style="stop-color:#3399FF"
   id="midPointStop3171" />
				<midPointStop
   offset="1"
   style="stop-color:#012DF1"
   id="midPointStop3173" />
			</linearGradient>
			<path
   d="M 55.808,39.229 25.506,23.529 8.914,37.842 39.217,53.543 55.808,39.229 z"
   id="path3175"
   style="fill:url(#XMLID_1_-7)" />
		</g>
		<g
   id="g3177">
			<linearGradient
   x1="46.664101"
   y1="101.9033"
   x2="50.6894"
   y2="95.577904"
   id="XMLID_2_-8"
   gradientUnits="userSpaceOnUse">
				<stop
   id="stop3180"
   style="stop-color:#3399ff;stop-opacity:1"
   offset="0" />
				<stop
   id="stop3182"
   style="stop-color:#0d53f1;stop-opacity:1"
   offset="1" />
				<midPointStop
   offset="0"
   style="stop-color:#3399FF"
   id="midPointStop3184" />
				<midPointStop
   offset="0.5"
   style="stop-color:#3399FF"
   id="midPointStop3186" />
				<midPointStop
   offset="1"
   style="stop-color:#0D53F1"
   id="midPointStop3188" />
			</linearGradient>
			<path
   d="M 66.525,87.774 55.807,82.212 39.217,96.526 49.934,102.088 66.525,87.774 z"
   id="path3190"
   style="fill:url(#XMLID_2_-8)" />
		</g>
		<g
   id="g3192">
			<path
   d="M 66.525,98.998 V 87.774 l -16.592,14.313 v 11.224 L 66.525,98.998 z"
   id="path3194"
   style="fill:#000088" />
		</g>
		<g
   id="g3196">
			<linearGradient
   x1="59.6572"
   y1="72.2314"
   x2="49.2556"
   y2="68.503197"
   id="XMLID_3_-4"
   gradientUnits="userSpaceOnUse">
				<stop
   id="stop3199"
   style="stop-color:#0100de;stop-opacity:1"
   offset="0" />
				<stop
   id="stop3201"
   style="stop-color:#000088;stop-opacity:1"
   offset="1" />
				<midPointStop
   offset="0"
   style="stop-color:#0100DE"
   id="midPointStop3203" />
				<midPointStop
   offset="0.5"
   style="stop-color:#0100DE"
   id="midPointStop3205" />
				<midPointStop
   offset="1"
   style="stop-color:#000088"
   id="midPointStop3207" />
			</linearGradient>
			<path
   d="M 55.808,82.213 V 39.229 L 39.217,53.543 V 96.526 L 55.808,82.213 z"
   id="path3209"
   style="fill:url(#XMLID_3_-4)" />
		</g>
		<g
   id="g3211">
			<linearGradient
   x1="2.9590001"
   y1="89.756798"
   x2="20.2915"
   y2="70.254402"
   id="XMLID_4_-5"
   gradientUnits="userSpaceOnUse">
				<stop
   id="stop3214"
   style="stop-color:#3399ff;stop-opacity:1"
   offset="0" />
				<stop
   id="stop3216"
   style="stop-color:#012df1;stop-opacity:1"
   offset="1" />
				<midPointStop
   offset="0"
   style="stop-color:#3399FF"
   id="midPointStop3218" />
				<midPointStop
   offset="0.5"
   style="stop-color:#3399FF"
   id="midPointStop3220" />
				<midPointStop
   offset="1"
   style="stop-color:#012DF1"
   id="midPointStop3222" />
			</linearGradient>
			<path
   d="M 32.141,69.93 18.965,63.094 2.373,77.407 15.549,84.244 32.141,69.93 z"
   id="path3224"
   style="fill:url(#XMLID_4_-5)" />
		</g>
		<linearGradient
   x1="5.1610999"
   y1="69.715797"
   x2="47.0755"
   y2="79.839996"
   id="XMLID_5_"
   gradientUnits="userSpaceOnUse">
			<stop
   id="stop3227"
   style="stop-color:#0000df;stop-opacity:1"
   offset="0.0056" />
			<stop
   id="stop3229"
   style="stop-color:#1749ff;stop-opacity:1"
   offset="1" />
			<midPointStop
   offset="0.0056"
   style="stop-color:#0000DF"
   id="midPointStop3231" />
			<midPointStop
   offset="0.5"
   style="stop-color:#0000DF"
   id="midPointStop3233" />
			<midPointStop
   offset="1"
   style="stop-color:#1749FF"
   id="midPointStop3235" />
		</linearGradient>
		<path
   d="M 39.217,96.526 V 59.81 53.543 L 8.914,37.842 v 6.267 l 6.635,3.438 V 84.245 L 2.373,77.407 v 11.224 l 47.561,24.681 V 102.088 L 39.217,96.526 z"
   id="path3237"
   style="fill:url(#XMLID_5_)" />
		<path
   d="m 13.175,47.546 v 35.43 l 2.374,1.269 V 47.546 h -2.374 z"
   id="path3239" />
		<g
   id="g3241"
   style="opacity:0.7">
			<path
   d="m 20.439,35.291 c 0,-4.128 4.414,-7.637 10.566,-8.921 -0.072,0.038 22.174,11.524 22.164,11.44 -1.446,4.32 -9.354,6.925 -16.984,6.925 -8.696,0 -15.746,-4.228 -15.746,-9.444 z"
   id="path3243"
   style="fill:#000088" />
		</g>
		<path
   d="m 11.901,20.429 c 0,11.265 9.165,20.429 20.429,20.429 11.265,0 20.429,-9.164 20.429,-20.429 C 52.759,9.164 43.595,0 32.33,0 21.066,0 11.901,9.164 11.901,20.429 z"
   id="path3245" />
		<g
   id="g3247">
			<path
   d="m 14.275,20.429 c 0,-9.972 8.083,-18.056 18.055,-18.056 9.973,0 18.056,8.084 18.056,18.056 0,9.972 -8.083,18.055 -18.056,18.055 -9.972,0 -18.055,-8.084 -18.055,-18.055 z"
   id="path3249" />
		</g>
		<radialGradient
   cx="27.455601"
   cy="14.7559"
   r="17.763201"
   fx="27.455601"
   fy="14.7559"
   id="XMLID_6_"
   gradientUnits="userSpaceOnUse">
			<stop
   id="stop3252"
   style="stop-color:#ffffff;stop-opacity:1"
   offset="0.0335" />
			<stop
   id="stop3254"
   style="stop-color:#0000df;stop-opacity:1"
   offset="0.43020001" />
			<stop
   id="stop3256"
   style="stop-color:#0000a9;stop-opacity:1"
   offset="1" />
			<midPointStop
   offset="0.0335"
   style="stop-color:#FFFFFF"
   id="midPointStop3258" />
			<midPointStop
   offset="0.5"
   style="stop-color:#FFFFFF"
   id="midPointStop3260" />
			<midPointStop
   offset="0.4302"
   style="stop-color:#0000DF"
   id="midPointStop3262" />
			<midPointStop
   offset="0.5"
   style="stop-color:#0000DF"
   id="midPointStop3264" />
			<midPointStop
   offset="1"
   style="stop-color:#0000A9"
   id="midPointStop3266" />
		</radialGradient>
		<path
   d="m 14.275,20.429 c 0,-9.972 8.083,-18.056 18.055,-18.056 9.973,0 18.056,8.084 18.056,18.056 0,9.972 -8.083,18.055 -18.056,18.055 -9.972,0 -18.055,-8.084 -18.055,-18.055 z"
   id="path3268"
   style="fill:url(#XMLID_6_)" />
	</g></svg>