<?xml version="1.0" encoding="UTF-8" standalone="no"?>
<!-- Created with Inkscape (http://www.inkscape.org/) -->

<svg
   xmlns:svg="http://www.w3.org/2000/svg"
   xmlns="http://www.w3.org/2000/svg"
   version="1.1"
   width="64"
   height="64"
   id="svg2">
  <defs
     id="defs41" />
  <g
     id="g4">
    <path
       d="M 62,50 50,44 30,64 h 20 c 6,0 18,-11 12,-14 z"
       id="path6"
       style="fill:#000000;fill-opacity:0.44309998" />
    <path
       d="M 50,44 50,34 C 50,23.52 43.94,12.97 34.01,8 27.77,4.88 22,6 18.06,7.92 14,10 9.56,14.41 9.56,14.41 v 0.01 C 7.32,16.46 6,19.72 6.01,23.98 L 6,39 c 0,3 2.36,8.98 5,12 7,8 14,11 19,11 15,0 20,-14 20,-18 z"
       id="path8"
       style="fill:none;stroke:#000000;stroke-width:4" />
    <linearGradient
       x1="66"
       y1="-81.760002"
       x2="122.5"
       y2="-25.25"
       id="gradient0"
       gradientUnits="userSpaceOnUse">
      <stop
         id="stop11"
         style="stop-color:#1942e7;stop-opacity:1"
         offset="0.25749999" />
      <stop
         id="stop13"
         style="stop-color:#97c3ff;stop-opacity:1"
         offset="0.52270001" />
      <stop
         id="stop15"
         style="stop-color:#032288;stop-opacity:1"
         offset="0.88249999" />
      <stop
         id="stop17"
         style="stop-color:#203bac;stop-opacity:1"
         offset="1" />
    </linearGradient>
    <path
       d="M 50,44 50,34 C 50,23.52 43.94,12.97 34.01,8 27.77,4.88 22,6 18.06,7.92 14,10 9.56,14.41 9.56,14.41 v 0.01 L 30,62 C 45,62 50,48 50,44 z"
       id="path19"
       style="fill:url(#gradient0)" />
    <linearGradient
       x1="82.629997"
       y1="-50.34"
       x2="118.46"
       y2="-5.8099999"
       id="gradient1"
       gradientUnits="userSpaceOnUse">
      <stop
         id="stop22"
         style="stop-color:#33a2ff;stop-opacity:1"
         offset="0.228" />
      <stop
         id="stop24"
         style="stop-color:#3369ff;stop-opacity:1"
         offset="0.83230001" />
    </linearGradient>
    <path
       d="M 24,14 C 14.06,9.02 6,13.48 6.01,23.98 L 6,39 c 0,3 2.36,8.98 5,12 7,8 14,11 19,11 C 45,62 42.02,42 42.02,42 42,31.52 33.94,18.97 24.01,14 H 24 z"
       id="path26"
       style="fill:url(#gradient1)" />
    <linearGradient
       x1="15.05"
       y1="6.9299998"
       x2="44.02"
       y2="35.900002"
       id="gradient2"
       gradientUnits="userSpaceOnUse">
      <stop
         id="stop29"
         style="stop-color:#97c3ff;stop-opacity:1"
         offset="0" />
      <stop
         id="stop31"
         style="stop-color:#e3ecff;stop-opacity:1"
         offset="0.25" />
      <stop
         id="stop33"
         style="stop-color:#3369ff;stop-opacity:1"
         offset="1" />
    </linearGradient>
    <path
       d="m 24,14 h 0 C 33.31,18.66 40.97,29.97 41.92,40 41.9,29.52 35.93,16.97 26.01,12 H 26 C 19.28,8.63 13.43,9.59 10.34,13.78 13.64,11.38 18.53,11.26 24,14 h 0 z"
       id="path35"
       style="fill:url(#gradient2)" />
    <path
       d="m 31,49 -9,5 V 39 l -5.96,3.47 -2,-3.41 6.78,-3.9 L 14.05,23.58 16.03,22.43 22,32 V 17 L 31.3,33.5 25,37 31,49 z m -7,-9 v 8 L 27.5,46.35 24,40 z M 24,33 27.47,31.41 24,25 v 8 z"
       id="path37"
       style="fill:#ffffff" />
  </g>
</svg>
