<?xml version="1.0" encoding="UTF-8" standalone="no"?>
<!-- Created with Inkscape (http://www.inkscape.org/) -->

<svg
   xmlns:svg="http://www.w3.org/2000/svg"
   xmlns="http://www.w3.org/2000/svg"
   version="1.1"
   width="127"
   height="120"
   viewBox="0.255 0.136 127 120"
   id="svg2"
   xml:space="preserve"
   style="overflow:visible"><defs
   id="defs670" />
	<g
   id="Layer_1_2_">
		<linearGradient
   x1="125.437"
   y1="68.2285"
   x2="113.3032"
   y2="69.931602"
   id="XMLID_1_"
   gradientUnits="userSpaceOnUse">
			<stop
   id="stop6"
   style="stop-color:#ffffff;stop-opacity:1"
   offset="0" />
			<stop
   id="stop8"
   style="stop-color:#000000;stop-opacity:1"
   offset="1" />
			<midPointStop
   id="midPointStop10"
   style="stop-color:#FFFFFF"
   offset="0" />
			<midPointStop
   id="midPointStop12"
   style="stop-color:#FFFFFF"
   offset="0.5" />
			<midPointStop
   id="midPointStop14"
   style="stop-color:#000000"
   offset="1" />
		</linearGradient>
		<path
   d="M 99.039,84.769 127.27,73.165 V 61.278 l -28.607,-2.127 7.508,14.207 -8.083,7.845 0.951,3.566 z"
   id="path16"
   style="opacity:0.2;fill:url(#XMLID_1_)" />
		<path
   d="m 21.159,114.374 28.124,-7.415 7.914,-11.729 -8.48,-11.87 -7.689,1.479 V 98.97 l -19.869,15.404 z"
   id="path18"
   style="opacity:0.2" />
		<path
   d="m 62.672,115.543 c 0.224,3.271 9.62,5.292 20.988,4.515 11.367,-0.777 20.401,-4.059 20.178,-7.329 -0.223,-3.27 -9.62,-5.292 -20.988,-4.515 -11.367,0.777 -20.401,4.058 -20.178,7.329 z"
   id="path20"
   style="opacity:0.2" />
		<path
   d="M 75.664,1.635 61.435,9.312 35.834,69.419 90.921,88.055 107.205,76.311 78.694,0 75.664,1.635 z"
   id="path22" />
		<linearGradient
   x1="77.248497"
   y1="48.0215"
   x2="68.452103"
   y2="51.825199"
   id="XMLID_2_"
   gradientUnits="userSpaceOnUse">
			<stop
   id="stop25"
   style="stop-color:#f8fa97;stop-opacity:1"
   offset="0" />
			<stop
   id="stop27"
   style="stop-color:#f9fb82;stop-opacity:1"
   offset="0.17470001" />
			<stop
   id="stop29"
   style="stop-color:#fbfc4d;stop-opacity:1"
   offset="0.53479999" />
			<stop
   id="stop31"
   style="stop-color:#ffff00;stop-opacity:1"
   offset="1" />
			<midPointStop
   id="midPointStop33"
   style="stop-color:#F8FA97"
   offset="0" />
			<midPointStop
   id="midPointStop35"
   style="stop-color:#F8FA97"
   offset="0.5449" />
			<midPointStop
   id="midPointStop37"
   style="stop-color:#FFFF00"
   offset="1" />
		</linearGradient>
		<path
   d="M 90.419,84.718 39.864,67.615 63.784,11.454 90.419,84.718 z"
   id="path39"
   style="fill:url(#XMLID_2_)" />
		<linearGradient
   x1="63.783699"
   y1="44.496101"
   x2="103.5942"
   y2="44.496101"
   id="XMLID_3_"
   gradientUnits="userSpaceOnUse">
			<stop
   id="stop42"
   style="stop-color:#ffc700;stop-opacity:1"
   offset="0" />
			<stop
   id="stop44"
   style="stop-color:#ffdc00;stop-opacity:1"
   offset="0.4156" />
			<stop
   id="stop46"
   style="stop-color:#ffff00;stop-opacity:1"
   offset="1" />
			<midPointStop
   id="midPointStop48"
   style="stop-color:#FFC700"
   offset="0" />
			<midPointStop
   id="midPointStop50"
   style="stop-color:#FFC700"
   offset="0.5449" />
			<midPointStop
   id="midPointStop52"
   style="stop-color:#FFFF00"
   offset="1" />
		</linearGradient>
		<path
   d="M 103.594,75.216 90.419,84.718 63.784,11.454 77.089,4.275 103.594,75.216 z"
   id="path54"
   style="fill:url(#XMLID_3_)" />
		<path
   d="M 0.019,45.843 0,99.933 21.159,114.374 42.284,99.681 V 45.576 L 21.124,31.166 0.019,45.843 z"
   id="path56" />
		<path
   d="m 69.354,66.866 c -4.619,1.12 -8.845,3.498 -12.222,6.876 -3.518,3.517 -5.94,7.933 -7.004,12.772 -0.4,1.828 -0.604,3.709 -0.604,5.593 0,6.938 2.702,13.461 7.608,18.364 3.377,3.378 7.604,5.756 12.221,6.876 2.001,0.485 4.067,0.732 6.143,0.732 6.938,0 13.462,-2.702 18.366,-7.609 4.906,-4.904 7.607,-11.426 7.607,-18.363 0,-1.882 -0.203,-3.764 -0.604,-5.593 -1.062,-4.838 -3.484,-9.256 -7.005,-12.773 -4.904,-4.904 -11.426,-7.605 -18.364,-7.605 -2.077,0 -4.143,0.245 -6.142,0.73 z"
   id="path58" />
		<g
   id="g60">
			<g
   id="g62">
				<linearGradient
   x1="-0.1069"
   y1="52.982899"
   x2="33.127399"
   y2="44.0853"
   id="XMLID_4_"
   gradientUnits="userSpaceOnUse">
					<stop
   id="stop65"
   style="stop-color:#f8faed;stop-opacity:1"
   offset="0" />
					<stop
   id="stop67"
   style="stop-color:#e3e9f0;stop-opacity:1"
   offset="0.2005" />
					<stop
   id="stop69"
   style="stop-color:#afbef7;stop-opacity:1"
   offset="0.61059999" />
					<stop
   id="stop71"
   style="stop-color:#7790ff;stop-opacity:1"
   offset="1" />
					<midPointStop
   id="midPointStop73"
   style="stop-color:#F8FAED"
   offset="0" />
					<midPointStop
   id="midPointStop75"
   style="stop-color:#F8FAED"
   offset="0.5449" />
					<midPointStop
   id="midPointStop77"
   style="stop-color:#7790FF"
   offset="1" />
				</linearGradient>
				<path
   d="M 21.143,59.78 3,47.424 21.143,34.808 39.285,47.162 21.143,59.78 z"
   id="path79"
   style="fill:url(#XMLID_4_)" />
			</g>
			<g
   id="g81">
				<linearGradient
   x1="14.876"
   y1="70.826202"
   x2="31.9643"
   y2="79.873398"
   id="XMLID_5_"
   gradientUnits="userSpaceOnUse">
					<stop
   id="stop84"
   style="stop-color:#303162;stop-opacity:1"
   offset="0" />
					<stop
   id="stop86"
   style="stop-color:#383a74;stop-opacity:1"
   offset="0.64920002" />
					<stop
   id="stop88"
   style="stop-color:#3e4080;stop-opacity:1"
   offset="1" />
					<midPointStop
   id="midPointStop90"
   style="stop-color:#303162"
   offset="0" />
					<midPointStop
   id="midPointStop92"
   style="stop-color:#303162"
   offset="0.5506" />
					<midPointStop
   id="midPointStop94"
   style="stop-color:#3E4080"
   offset="1" />
				</linearGradient>
				<path
   d="M 21.143,110.73 39.285,98.113 V 47.162 L 21.143,59.78 v 50.95 z"
   id="path96"
   style="fill:url(#XMLID_5_)" />
			</g>
			<g
   id="g98">
				<path
   d="M 21.143,110.73 3,98.348 V 47.398 L 21.143,59.78 v 50.95 z"
   id="path100"
   style="fill:#6666ff" />
			</g>
		</g>
		<g
   id="g102">
			<path
   d="m 52.5,92.132 c 0,-12.637 10.244,-22.88 22.88,-22.88 12.636,0 22.879,10.243 22.879,22.88 0,12.636 -10.243,22.878 -22.879,22.878 -12.636,0 -22.88,-10.243 -22.88,-22.878 z"
   id="path104"
   style="fill:#dd0000" />
			<path
   d="m 75.337,69.332 c 12.569,0 22.759,10.189 22.759,22.759 0,12.57 -10.189,22.759 -22.759,22.759 -12.568,0 -22.759,-10.189 -22.759,-22.759 0,-12.57 10.191,-22.759 22.759,-22.759 z"
   id="path106"
   style="fill:#dd0101" />
			<path
   d="m 75.295,69.413 c 12.503,0 22.639,10.136 22.639,22.639 0,12.503 -10.135,22.638 -22.639,22.638 -12.503,0 -22.639,-10.136 -22.639,-22.639 0,-12.503 10.136,-22.638 22.639,-22.638 z"
   id="path108"
   style="fill:#dd0202" />
			<path
   d="m 75.254,69.493 c 12.437,0 22.519,10.081 22.519,22.519 0,12.437 -10.082,22.518 -22.519,22.518 -12.437,0 -22.519,-10.081 -22.519,-22.518 10e-4,-12.438 10.083,-22.519 22.519,-22.519 z"
   id="path110"
   style="fill:#de0303" />
			<path
   d="m 75.212,69.574 c 12.37,0 22.398,10.028 22.398,22.397 0,12.372 -10.028,22.397 -22.398,22.397 -12.369,0 -22.397,-10.025 -22.397,-22.397 0,-12.368 10.027,-22.397 22.397,-22.397 z"
   id="path112"
   style="fill:#de0404" />
			<path
   d="m 75.171,69.656 c 12.305,0 22.277,9.974 22.277,22.278 0,12.303 -9.974,22.276 -22.277,22.276 -12.303,0 -22.278,-9.974 -22.278,-22.276 0,-12.304 9.975,-22.278 22.278,-22.278 z"
   id="path114"
   style="fill:#de0505" />
			<path
   d="m 75.129,69.737 c 12.237,0 22.157,9.92 22.157,22.156 0,12.237 -9.92,22.158 -22.157,22.158 -12.237,0 -22.157,-9.921 -22.157,-22.158 0,-12.237 9.92,-22.156 22.157,-22.156 z"
   id="path116"
   style="fill:#de0606" />
			<path
   d="m 75.088,69.818 c 12.17,0 22.036,9.866 22.036,22.037 0,12.17 -9.866,22.036 -22.036,22.036 -12.171,0 -22.038,-9.866 -22.038,-22.036 0,-12.171 9.867,-22.037 22.038,-22.037 z"
   id="path118"
   style="fill:#de0707" />
			<path
   d="m 75.045,69.898 c 12.104,0 21.917,9.812 21.917,21.917 0,12.104 -9.812,21.915 -21.917,21.915 -12.104,0 -21.917,-9.812 -21.917,-21.915 0,-12.104 9.815,-21.917 21.917,-21.917 z"
   id="path120"
   style="fill:#df0808" />
			<path
   d="m 75.004,69.979 c 12.037,0 21.796,9.759 21.796,21.797 0,12.037 -9.759,21.795 -21.796,21.795 -12.037,0 -21.797,-9.758 -21.797,-21.795 10e-4,-12.038 9.76,-21.797 21.797,-21.797 z"
   id="path122"
   style="fill:#df0909" />
			<path
   d="m 74.962,70.061 c 11.971,0 21.676,9.705 21.676,21.675 0,11.972 -9.705,21.676 -21.676,21.676 -11.972,0 -21.676,-9.704 -21.676,-21.676 10e-4,-11.97 9.705,-21.675 21.676,-21.675 z"
   id="path124"
   style="fill:#df0a0a" />
			<path
   d="m 74.92,70.142 c 11.905,0 21.555,9.65 21.555,21.556 0,11.903 -9.649,21.554 -21.555,21.554 -11.906,0 -21.555,-9.65 -21.555,-21.554 10e-4,-11.906 9.65,-21.556 21.555,-21.556 z"
   id="path126"
   style="fill:#df0b0b" />
			<path
   d="m 74.878,70.223 c 11.839,0 21.435,9.597 21.435,21.436 0,11.838 -9.596,21.435 -21.435,21.435 -11.838,0 -21.435,-9.597 -21.435,-21.435 0.002,-11.84 9.598,-21.436 21.435,-21.436 z"
   id="path128"
   style="fill:#df0c0c" />
			<path
   d="m 74.837,70.304 c 11.771,0 21.314,9.542 21.314,21.314 0,11.771 -9.544,21.313 -21.314,21.313 -11.771,0 -21.314,-9.543 -21.314,-21.313 0,-11.772 9.543,-21.314 21.314,-21.314 z"
   id="path130"
   style="fill:#e00d0d" />
			<path
   d="m 74.795,70.385 c 11.706,0 21.193,9.488 21.193,21.193 0,11.705 -9.487,21.193 -21.193,21.193 -11.706,0 -21.194,-9.488 -21.194,-21.193 0,-11.705 9.489,-21.193 21.194,-21.193 z"
   id="path132"
   style="fill:#e00e0e" />
			<path
   d="m 74.754,70.466 c 11.639,0 21.073,9.434 21.073,21.073 0,11.638 -9.435,21.074 -21.073,21.074 -11.638,0 -21.074,-9.435 -21.074,-21.074 0,-11.639 9.436,-21.073 21.074,-21.073 z"
   id="path134"
   style="fill:#e00f0f" />
			<path
   d="m 74.712,70.547 c 11.571,0 20.953,9.38 20.953,20.953 0,11.571 -9.382,20.953 -20.953,20.953 -11.572,0 -20.953,-9.382 -20.953,-20.953 0,-11.571 9.381,-20.953 20.953,-20.953 z"
   id="path136"
   style="fill:#e01010" />
			<path
   d="m 74.669,70.627 c 11.507,0 20.834,9.327 20.834,20.833 0,11.506 -9.328,20.833 -20.834,20.833 -11.505,0 -20.832,-9.327 -20.832,-20.833 0,-11.506 9.328,-20.833 20.832,-20.833 z"
   id="path138"
   style="fill:#e11111" />
			<path
   d="m 74.628,70.708 c 11.44,0 20.714,9.272 20.714,20.713 0,11.438 -9.273,20.712 -20.714,20.712 -11.438,0 -20.712,-9.273 -20.712,-20.712 C 53.917,79.98 63.19,70.708 74.628,70.708 z"
   id="path140"
   style="fill:#e11212" />
			<path
   d="m 74.586,70.788 c 11.374,0 20.593,9.22 20.593,20.593 0,11.372 -9.219,20.592 -20.593,20.592 -11.372,0 -20.592,-9.219 -20.592,-20.592 10e-4,-11.371 9.22,-20.593 20.592,-20.593 z"
   id="path142"
   style="fill:#e11313" />
			<path
   d="m 74.544,70.869 c 11.307,0 20.473,9.166 20.473,20.473 0,11.306 -9.166,20.471 -20.473,20.471 -11.305,0 -20.471,-9.164 -20.471,-20.471 10e-4,-11.306 9.167,-20.473 20.471,-20.473 z"
   id="path144"
   style="fill:#e11414" />
			<path
   d="m 74.503,70.95 c 11.239,0 20.351,9.111 20.351,20.351 0,11.24 -9.111,20.353 -20.351,20.353 -11.24,0 -20.352,-9.112 -20.352,-20.353 C 54.152,80.062 63.264,70.95 74.503,70.95 z"
   id="path146"
   style="fill:#e11515" />
			<path
   d="m 74.461,71.031 c 11.174,0 20.23,9.058 20.23,20.231 0,11.173 -9.057,20.229 -20.23,20.229 -11.173,0 -20.23,-9.056 -20.23,-20.229 0,-11.173 9.058,-20.231 20.23,-20.231 z"
   id="path148"
   style="fill:#e21616" />
			<path
   d="m 74.42,71.112 c 11.107,0 20.109,9.004 20.109,20.11 0,11.107 -9.002,20.112 -20.109,20.112 -11.107,0 -20.111,-9.005 -20.111,-20.112 0,-11.106 9.004,-20.11 20.111,-20.11 z"
   id="path150"
   style="fill:#e21717" />
			<path
   d="m 74.378,71.192 c 11.04,0 19.989,8.949 19.989,19.991 0,11.04 -8.949,19.99 -19.989,19.99 -11.04,0 -19.99,-8.949 -19.99,-19.99 0,-11.039 8.95,-19.991 19.99,-19.991 z"
   id="path152"
   style="fill:#e21818" />
			<path
   d="m 74.337,71.273 c 10.974,0 19.868,8.896 19.868,19.87 0,10.974 -8.895,19.871 -19.868,19.871 -10.973,0 -19.87,-8.897 -19.87,-19.871 0,-10.974 8.897,-19.87 19.87,-19.87 z"
   id="path154"
   style="fill:#e21919" />
			<path
   d="m 74.294,71.355 c 10.909,0 19.749,8.842 19.749,19.749 0,10.907 -8.84,19.748 -19.749,19.748 -10.906,0 -19.749,-8.842 -19.749,-19.748 0,-10.908 8.843,-19.749 19.749,-19.749 z"
   id="path156"
   style="fill:#e21a1a" />
			<path
   d="m 74.254,71.437 c 10.84,0 19.628,8.788 19.628,19.628 0,10.841 -8.789,19.63 -19.628,19.63 -10.841,0 -19.63,-8.789 -19.63,-19.63 10e-4,-10.84 8.79,-19.628 19.63,-19.628 z"
   id="path158"
   style="fill:#e31b1b" />
			<path
   d="m 74.212,71.517 c 10.773,0 19.508,8.734 19.508,19.509 0,10.773 -8.734,19.508 -19.508,19.508 -10.774,0 -19.509,-8.734 -19.509,-19.508 10e-4,-10.775 8.735,-19.509 19.509,-19.509 z"
   id="path160"
   style="fill:#e31c1c" />
			<path
   d="m 74.169,71.598 c 10.708,0 19.389,8.681 19.389,19.388 0,10.707 -8.681,19.389 -19.389,19.389 -10.708,0 -19.388,-8.681 -19.388,-19.388 10e-4,-10.709 8.681,-19.389 19.388,-19.389 z"
   id="path162"
   style="fill:#e31d1d" />
			<path
   d="m 74.128,71.679 c 10.643,0 19.268,8.627 19.268,19.268 0,10.643 -8.625,19.268 -19.268,19.268 -10.642,0 -19.269,-8.625 -19.269,-19.268 10e-4,-10.641 8.628,-19.268 19.269,-19.268 z"
   id="path164"
   style="fill:#e31e1e" />
			<path
   d="m 74.086,71.76 c 10.575,0 19.147,8.573 19.147,19.147 0,10.575 -8.572,19.146 -19.147,19.146 -10.574,0 -19.147,-8.571 -19.147,-19.146 0,-10.574 8.573,-19.147 19.147,-19.147 z"
   id="path166"
   style="fill:#e31f1f" />
			<path
   d="m 74.045,71.841 c 10.508,0 19.027,8.519 19.027,19.027 0,10.508 -8.52,19.025 -19.027,19.025 -10.509,0 -19.027,-8.517 -19.027,-19.026 0,-10.508 8.519,-19.026 19.027,-19.026 z"
   id="path168"
   style="fill:#e42020" />
			<path
   d="m 74.003,71.922 c 10.442,0 18.906,8.465 18.906,18.906 0,10.441 -8.465,18.906 -18.906,18.906 -10.442,0 -18.907,-8.465 -18.907,-18.906 0,-10.441 8.465,-18.906 18.907,-18.906 z"
   id="path170"
   style="fill:#e42121" />
			<path
   d="m 73.962,72.003 c 10.373,0 18.785,8.41 18.785,18.785 0,10.376 -8.412,18.786 -18.785,18.786 -10.376,0 -18.787,-8.41 -18.787,-18.786 0,-10.376 8.411,-18.785 18.787,-18.785 z"
   id="path172"
   style="fill:#e42222" />
			<path
   d="m 73.92,72.084 c 10.309,0 18.665,8.356 18.665,18.666 0,10.31 -8.356,18.666 -18.665,18.666 -10.309,0 -18.666,-8.358 -18.666,-18.667 0,-10.309 8.357,-18.665 18.666,-18.665 z"
   id="path174"
   style="fill:#e42323" />
			<path
   d="m 73.878,72.165 c 10.242,0 18.545,8.303 18.545,18.545 0,10.243 -8.303,18.546 -18.545,18.546 -10.243,0 -18.546,-8.303 -18.546,-18.547 10e-4,-10.242 8.303,-18.544 18.546,-18.544 z"
   id="path176"
   style="fill:#e42424" />
			<path
   d="m 73.836,72.246 c 10.176,0 18.425,8.248 18.425,18.424 0,10.176 -8.249,18.425 -18.425,18.425 -10.176,0 -18.425,-8.249 -18.425,-18.425 10e-4,-10.175 8.25,-18.424 18.425,-18.424 z"
   id="path178"
   style="fill:#e52525" />
			<path
   d="m 73.795,72.327 c 10.109,0 18.304,8.194 18.304,18.303 0,10.109 -8.194,18.305 -18.304,18.305 -10.11,0 -18.306,-8.194 -18.306,-18.305 0.001,-10.109 8.196,-18.303 18.306,-18.303 z"
   id="path180"
   style="fill:#e52626" />
			<path
   d="m 73.752,72.408 c 10.044,0 18.184,8.141 18.184,18.185 0,10.042 -8.14,18.184 -18.184,18.184 -10.042,0 -18.185,-8.142 -18.185,-18.184 0.002,-10.044 8.143,-18.185 18.185,-18.185 z"
   id="path182"
   style="fill:#e52727" />
			<path
   d="m 73.711,72.488 c 9.977,0 18.063,8.088 18.063,18.063 0,9.978 -8.087,18.063 -18.063,18.063 -9.976,0 -18.063,-8.086 -18.063,-18.063 0,-9.975 8.087,-18.063 18.063,-18.063 z"
   id="path184"
   style="fill:#e52828" />
			<path
   d="m 73.669,72.569 c 9.909,0 17.944,8.034 17.944,17.942 0,9.911 -8.035,17.945 -17.944,17.945 -9.909,0 -17.943,-8.034 -17.943,-17.945 0,-9.907 8.034,-17.942 17.943,-17.942 z"
   id="path186"
   style="fill:#e52929" />
			<path
   d="m 73.628,72.649 c 9.842,0 17.823,7.98 17.823,17.823 0,9.844 -7.981,17.823 -17.823,17.823 -9.844,0 -17.824,-7.979 -17.824,-17.823 0,-9.842 7.981,-17.823 17.824,-17.823 z"
   id="path188"
   style="fill:#e62a2a" />
			<path
   d="m 73.586,72.731 c 9.776,0 17.701,7.926 17.701,17.703 0,9.776 -7.925,17.701 -17.701,17.701 -9.777,0 -17.703,-7.925 -17.703,-17.701 0,-9.777 7.926,-17.703 17.703,-17.703 z"
   id="path190"
   style="fill:#e62b2b" />
			<path
   d="m 73.545,72.812 c 9.71,0 17.581,7.872 17.581,17.582 0,9.711 -7.871,17.583 -17.581,17.583 -9.711,0 -17.584,-7.872 -17.584,-17.583 0,-9.71 7.873,-17.582 17.584,-17.582 z"
   id="path192"
   style="fill:#e62c2c" />
			<path
   d="m 73.502,72.892 c 9.644,0 17.462,7.819 17.462,17.463 0,9.644 -7.818,17.462 -17.462,17.462 -9.644,0 -17.462,-7.818 -17.462,-17.462 0,-9.644 7.819,-17.463 17.462,-17.463 z"
   id="path194"
   style="fill:#e62d2d" />
			<path
   d="m 73.461,72.973 c 9.577,0 17.341,7.765 17.341,17.343 0,9.576 -7.764,17.34 -17.341,17.34 -9.577,0 -17.341,-7.764 -17.341,-17.341 0,-9.578 7.764,-17.342 17.341,-17.342 z"
   id="path196"
   style="fill:#e62e2e" />
			<path
   d="m 73.419,73.054 c 9.512,0 17.221,7.711 17.221,17.221 0,9.511 -7.709,17.221 -17.221,17.221 -9.511,0 -17.221,-7.71 -17.221,-17.221 10e-4,-9.51 7.711,-17.221 17.221,-17.221 z"
   id="path198"
   style="fill:#e72f2f" />
			<path
   d="m 73.377,73.136 c 9.444,0 17.1,7.656 17.1,17.102 0,9.446 -7.655,17.1 -17.1,17.1 -9.443,0 -17.101,-7.656 -17.101,-17.101 0,-9.445 7.658,-17.101 17.101,-17.101 z"
   id="path200"
   style="fill:#e73030" />
			<path
   d="m 73.335,73.216 c 9.378,0 16.98,7.603 16.98,16.98 0,9.379 -7.603,16.98 -16.98,16.98 -9.377,0 -16.98,-7.602 -16.98,-16.98 0,-9.378 7.603,-16.98 16.98,-16.98 z"
   id="path202"
   style="fill:#e73131" />
			<path
   d="m 73.294,73.297 c 9.312,0 16.859,7.548 16.859,16.86 0,9.312 -7.548,16.859 -16.859,16.859 -9.312,0 -16.86,-7.548 -16.86,-16.859 0,-9.312 7.549,-16.86 16.86,-16.86 z"
   id="path204"
   style="fill:#e73232" />
			<path
   d="m 73.252,73.378 c 9.246,0 16.739,7.495 16.739,16.74 0,9.245 -7.494,16.738 -16.739,16.738 -9.244,0 -16.739,-7.493 -16.739,-16.738 0,-9.245 7.494,-16.74 16.739,-16.74 z"
   id="path206"
   style="fill:#e83333" />
			<path
   d="m 73.211,73.459 c 9.178,0 16.618,7.441 16.618,16.62 0,9.177 -7.44,16.618 -16.618,16.618 -9.18,0 -16.619,-7.441 -16.619,-16.618 0,-9.18 7.44,-16.62 16.619,-16.62 z"
   id="path208"
   style="fill:#e83434" />
			<path
   d="m 73.169,73.54 c 9.111,0 16.498,7.388 16.498,16.499 0,9.111 -7.387,16.5 -16.498,16.5 -9.112,0 -16.498,-7.389 -16.498,-16.501 0,-9.112 7.386,-16.498 16.498,-16.498 z"
   id="path210"
   style="fill:#e83535" />
			<path
   d="m 73.127,73.621 c 9.046,0 16.378,7.333 16.378,16.379 0,9.044 -7.332,16.377 -16.378,16.377 -9.045,0 -16.378,-7.333 -16.378,-16.377 10e-4,-9.046 7.334,-16.379 16.378,-16.379 z"
   id="path212"
   style="fill:#e83636" />
			<path
   d="m 73.085,73.702 c 8.979,0 16.258,7.277 16.258,16.258 0,8.979 -7.278,16.259 -16.258,16.259 -8.979,0 -16.257,-7.279 -16.257,-16.259 10e-4,-8.981 7.279,-16.258 16.257,-16.258 z"
   id="path214"
   style="fill:#e83737" />
			<path
   d="m 73.044,73.783 c 8.911,0 16.137,7.224 16.137,16.138 0,8.911 -7.226,16.137 -16.137,16.137 -8.913,0 -16.138,-7.226 -16.138,-16.137 10e-4,-8.914 7.225,-16.138 16.138,-16.138 z"
   id="path216"
   style="fill:#e93838" />
			<path
   d="m 73.002,73.864 c 8.846,0 16.017,7.171 16.017,16.016 0,8.847 -7.171,16.019 -16.017,16.019 -8.846,0 -16.016,-7.172 -16.016,-16.019 0,-8.845 7.171,-16.016 16.016,-16.016 z"
   id="path218"
   style="fill:#e93939" />
			<path
   d="m 72.96,73.945 c 8.779,0 15.896,7.117 15.896,15.896 0,8.779 -7.116,15.896 -15.896,15.896 -8.779,0 -15.896,-7.117 -15.896,-15.896 0,-8.779 7.117,-15.896 15.896,-15.896 z"
   id="path220"
   style="fill:#e93a3a" />
			<path
   d="m 72.918,74.024 c 8.714,0 15.776,7.064 15.776,15.778 0,8.712 -7.062,15.775 -15.776,15.775 -8.713,0 -15.775,-7.063 -15.775,-15.775 0,-8.712 7.063,-15.778 15.775,-15.778 z"
   id="path222"
   style="fill:#e93b3b" />
			<path
   d="m 72.877,74.107 c 8.646,0 15.655,7.009 15.655,15.655 0,8.646 -7.01,15.654 -15.655,15.654 -8.646,0 -15.656,-7.008 -15.656,-15.654 0,-8.646 7.01,-15.655 15.656,-15.655 z"
   id="path224"
   style="fill:#e93c3c" />
			<path
   d="m 72.835,74.188 c 8.581,0 15.535,6.955 15.535,15.534 0,8.58 -6.954,15.536 -15.535,15.536 -8.579,0 -15.535,-6.956 -15.535,-15.535 0,-8.579 6.956,-15.535 15.535,-15.535 z"
   id="path226"
   style="fill:#ea3d3d" />
			<path
   d="m 72.794,74.27 c 8.514,0 15.414,6.899 15.414,15.414 0,8.514 -6.901,15.415 -15.414,15.415 -8.514,0 -15.415,-6.901 -15.415,-15.415 0,-8.513 6.902,-15.414 15.415,-15.414 z"
   id="path228"
   style="fill:#ea3e3e" />
			<path
   d="m 72.752,74.35 c 8.445,0 15.294,6.848 15.294,15.295 0,8.447 -6.848,15.294 -15.294,15.294 -8.448,0 -15.295,-6.848 -15.295,-15.294 10e-4,-8.448 6.848,-15.295 15.295,-15.295 z"
   id="path230"
   style="fill:#ea3f3f" />
			<path
   d="m 72.71,74.431 c 8.381,0 15.174,6.794 15.174,15.174 0,8.38 -6.793,15.174 -15.174,15.174 -8.381,0 -15.174,-6.794 -15.174,-15.174 0,-8.38 6.794,-15.174 15.174,-15.174 z"
   id="path232"
   style="fill:#ea4040" />
			<path
   d="m 72.668,74.511 c 8.314,0 15.055,6.74 15.055,15.055 0,8.312 -6.74,15.053 -15.055,15.053 -8.312,0 -15.054,-6.74 -15.054,-15.053 0.001,-8.315 6.742,-15.055 15.054,-15.055 z"
   id="path234"
   style="fill:#ea4141" />
			<path
   d="m 72.627,74.591 c 8.246,0 14.934,6.688 14.934,14.935 0,8.246 -6.688,14.934 -14.934,14.934 -8.248,0 -14.934,-6.686 -14.934,-14.934 0.001,-8.248 6.686,-14.935 14.934,-14.935 z"
   id="path236"
   style="fill:#eb4242" />
			<path
   d="m 72.584,74.672 c 8.182,0 14.814,6.633 14.814,14.814 0,8.183 -6.632,14.813 -14.814,14.813 -8.181,0 -14.812,-6.631 -14.812,-14.813 0.001,-8.181 6.633,-14.814 14.812,-14.814 z"
   id="path238"
   style="fill:#eb4343" />
			<path
   d="m 72.543,74.753 c 8.115,0 14.693,6.578 14.693,14.693 0,8.115 -6.578,14.692 -14.693,14.692 -8.114,0 -14.692,-6.577 -14.692,-14.692 0,-8.115 6.578,-14.693 14.692,-14.693 z"
   id="path240"
   style="fill:#eb4444" />
			<path
   d="m 72.501,74.834 c 8.049,0 14.572,6.526 14.572,14.573 0,8.048 -6.523,14.572 -14.572,14.572 -8.048,0 -14.571,-6.524 -14.571,-14.572 0,-8.047 6.524,-14.573 14.571,-14.573 z"
   id="path242"
   style="fill:#eb4545" />
			<path
   d="m 72.46,74.915 c 7.98,0 14.451,6.471 14.451,14.452 0,7.981 -6.47,14.453 -14.451,14.453 -7.982,0 -14.452,-6.472 -14.452,-14.453 0,-7.98 6.47,-14.452 14.452,-14.452 z"
   id="path244"
   style="fill:#eb4646" />
			<path
   d="m 72.418,74.997 c 7.914,0 14.331,6.417 14.331,14.331 0,7.915 -6.417,14.332 -14.331,14.332 -7.916,0 -14.331,-6.417 -14.331,-14.332 0,-7.914 6.417,-14.331 14.331,-14.331 z"
   id="path246"
   style="fill:#ec4747" />
			<path
   d="m 72.377,75.077 c 7.849,0 14.211,6.363 14.211,14.211 0,7.849 -6.362,14.212 -14.211,14.212 -7.85,0 -14.211,-6.363 -14.211,-14.212 0.001,-7.848 6.362,-14.211 14.211,-14.211 z"
   id="path248"
   style="fill:#ec4848" />
			<path
   d="m 72.334,75.158 c 7.782,0 14.09,6.31 14.09,14.091 0,7.783 -6.308,14.093 -14.09,14.093 -7.781,0 -14.091,-6.312 -14.091,-14.093 0,-7.781 6.31,-14.091 14.091,-14.091 z"
   id="path250"
   style="fill:#ec4949" />
			<path
   d="m 72.293,75.239 c 7.716,0 13.97,6.255 13.97,13.971 0,7.716 -6.255,13.97 -13.97,13.97 -7.716,0 -13.971,-6.254 -13.971,-13.97 0,-7.716 6.256,-13.971 13.971,-13.971 z"
   id="path252"
   style="fill:#ec4a4a" />
			<path
   d="m 72.251,75.32 c 7.649,0 13.85,6.2 13.85,13.85 0,7.65 -6.2,13.85 -13.85,13.85 -7.648,0 -13.85,-6.2 -13.85,-13.85 0,-7.65 6.202,-13.85 13.85,-13.85 z"
   id="path254"
   style="fill:#ec4b4b" />
			<path
   d="m 72.209,75.401 c 7.584,0 13.729,6.147 13.729,13.729 0,7.582 -6.146,13.729 -13.729,13.729 -7.582,0 -13.729,-6.146 -13.729,-13.729 0,-7.583 6.147,-13.729 13.729,-13.729 z"
   id="path256"
   style="fill:#ed4c4c" />
			<path
   d="m 72.167,75.482 c 7.517,0 13.61,6.093 13.61,13.608 0,7.517 -6.094,13.61 -13.61,13.61 -7.516,0 -13.608,-6.094 -13.608,-13.61 0,-7.515 6.093,-13.608 13.608,-13.608 z"
   id="path258"
   style="fill:#ed4d4d" />
			<path
   d="m 72.126,75.563 c 7.449,0 13.49,6.038 13.49,13.489 0,7.449 -6.041,13.487 -13.49,13.487 -7.448,0 -13.488,-6.038 -13.488,-13.487 0,-7.45 6.038,-13.489 13.488,-13.489 z"
   id="path260"
   style="fill:#ed4e4e" />
			<path
   d="m 72.084,75.645 c 7.384,0 13.368,5.985 13.368,13.367 0,7.385 -5.984,13.367 -13.368,13.367 -7.383,0 -13.368,-5.982 -13.368,-13.367 0,-7.382 5.986,-13.367 13.368,-13.367 z"
   id="path262"
   style="fill:#ed4f4f" />
			<path
   d="m 72.043,75.726 c 7.315,0 13.248,5.931 13.248,13.247 0,7.316 -5.932,13.248 -13.248,13.248 -7.317,0 -13.248,-5.932 -13.248,-13.248 0,-7.316 5.931,-13.247 13.248,-13.247 z"
   id="path264"
   style="fill:#ed5050" />
			<path
   d="m 72.001,75.806 c 7.25,0 13.128,5.877 13.128,13.128 0,7.25 -5.878,13.128 -13.128,13.128 -7.251,0 -13.128,-5.878 -13.128,-13.128 0.001,-7.251 5.877,-13.128 13.128,-13.128 z"
   id="path266"
   style="fill:#ee5151" />
			<path
   d="m 71.96,75.887 c 7.184,0 13.008,5.824 13.008,13.008 0,7.184 -5.824,13.007 -13.008,13.007 -7.184,0 -13.008,-5.824 -13.008,-13.007 0.001,-7.184 5.824,-13.008 13.008,-13.008 z"
   id="path268"
   style="fill:#ee5252" />
			<path
   d="m 71.917,75.969 c 7.119,0 12.887,5.768 12.887,12.885 0,7.118 -5.77,12.888 -12.887,12.888 -7.116,0 -12.887,-5.77 -12.887,-12.888 10e-4,-7.118 5.771,-12.885 12.887,-12.885 z"
   id="path270"
   style="fill:#ee5353" />
			<path
   d="m 71.877,76.049 c 7.05,0 12.765,5.715 12.765,12.766 0,7.052 -5.716,12.767 -12.765,12.767 -7.052,0 -12.768,-5.717 -12.768,-12.767 10e-4,-7.051 5.717,-12.766 12.768,-12.766 z"
   id="path272"
   style="fill:#ee5454" />
			<path
   d="m 71.834,76.13 c 6.984,0 12.646,5.661 12.646,12.646 0,6.985 -5.661,12.646 -12.646,12.646 -6.982,0 -12.646,-5.662 -12.646,-12.646 0,-6.984 5.664,-12.646 12.646,-12.646 z"
   id="path274"
   style="fill:#ef5555" />
			<path
   d="m 71.792,76.211 c 6.918,0 12.525,5.607 12.525,12.525 0,6.919 -5.607,12.525 -12.525,12.525 -6.917,0 -12.525,-5.606 -12.525,-12.525 0,-6.918 5.608,-12.525 12.525,-12.525 z"
   id="path276"
   style="fill:#ef5656" />
			<path
   d="m 71.75,76.292 c 6.853,0 12.406,5.553 12.406,12.404 0,6.853 -5.554,12.404 -12.406,12.404 -6.85,0 -12.405,-5.552 -12.405,-12.404 0,-6.851 5.556,-12.404 12.405,-12.404 z"
   id="path278"
   style="fill:#ef5757" />
			<path
   d="m 71.709,76.373 c 6.785,0 12.284,5.5 12.284,12.283 0,6.786 -5.499,12.285 -12.284,12.285 -6.784,0 -12.285,-5.5 -12.285,-12.285 0,-6.783 5.501,-12.283 12.285,-12.283 z"
   id="path280"
   style="fill:#ef5858" />
			<path
   d="m 71.667,76.453 c 6.719,0 12.164,5.447 12.164,12.165 0,6.717 -5.445,12.163 -12.164,12.163 -6.719,0 -12.164,-5.446 -12.164,-12.163 0,-6.718 5.446,-12.165 12.164,-12.165 z"
   id="path282"
   style="fill:#ef5959" />
			<path
   d="m 71.626,76.533 c 6.651,0 12.044,5.393 12.044,12.046 0,6.651 -5.392,12.044 -12.044,12.044 -6.652,0 -12.043,-5.393 -12.043,-12.044 0,-6.653 5.391,-12.046 12.043,-12.046 z"
   id="path284"
   style="fill:#f05a5a" />
			<path
   d="m 71.584,76.614 c 6.585,0 11.924,5.34 11.924,11.925 0,6.585 -5.339,11.924 -11.924,11.924 -6.585,0 -11.924,-5.339 -11.924,-11.924 0,-6.585 5.338,-11.925 11.924,-11.925 z"
   id="path286"
   style="fill:#f05b5b" />
			<path
   d="m 71.543,76.695 c 6.519,0 11.804,5.284 11.804,11.803 0,6.521 -5.285,11.805 -11.804,11.805 -6.52,0 -11.804,-5.284 -11.804,-11.805 0.001,-6.519 5.285,-11.803 11.804,-11.803 z"
   id="path288"
   style="fill:#f05c5c" />
			<path
   d="m 71.5,76.776 c 6.453,0 11.684,5.23 11.684,11.684 0,6.452 -5.23,11.683 -11.684,11.683 -6.451,0 -11.683,-5.23 -11.683,-11.683 10e-4,-6.453 5.232,-11.684 11.683,-11.684 z"
   id="path290"
   style="fill:#f05d5d" />
			<path
   d="m 71.46,76.857 c 6.385,0 11.562,5.178 11.562,11.563 0,6.385 -5.177,11.562 -11.562,11.562 -6.388,0 -11.563,-5.176 -11.563,-11.562 0,-6.386 5.176,-11.563 11.563,-11.563 z"
   id="path292"
   style="fill:#f05e5e" />
			<path
   d="m 71.417,76.938 c 6.319,0 11.443,5.122 11.443,11.442 0,6.319 -5.124,11.441 -11.443,11.441 -6.318,0 -11.441,-5.121 -11.441,-11.441 -10e-4,-6.318 5.123,-11.442 11.441,-11.442 z"
   id="path294"
   style="fill:#f15f5f" />
			<path
   d="m 71.375,77.02 c 6.253,0 11.322,5.068 11.322,11.321 0,6.253 -5.068,11.321 -11.322,11.321 -6.253,0 -11.321,-5.068 -11.321,-11.321 0,-6.253 5.069,-11.321 11.321,-11.321 z"
   id="path296"
   style="fill:#f16060" />
			<path
   d="m 71.333,77.101 c 6.188,0 11.202,5.016 11.202,11.202 0,6.186 -5.015,11.199 -11.202,11.199 -6.186,0 -11.201,-5.014 -11.201,-11.199 0,-6.187 5.016,-11.202 11.201,-11.202 z"
   id="path298"
   style="fill:#f16161" />
			<path
   d="m 71.292,77.182 c 6.119,0 11.081,4.962 11.081,11.081 0,6.12 -4.962,11.081 -11.081,11.081 -6.119,0 -11.081,-4.961 -11.081,-11.081 0,-6.119 4.961,-11.081 11.081,-11.081 z"
   id="path300"
   style="fill:#f16262" />
			<path
   d="m 71.25,77.263 c 6.053,0 10.961,4.908 10.961,10.961 0,6.054 -4.908,10.961 -10.961,10.961 -6.053,0 -10.96,-4.907 -10.96,-10.961 10e-4,-6.055 4.908,-10.961 10.96,-10.961 z"
   id="path302"
   style="fill:#f16363" />
			<path
   d="m 71.209,77.343 c 5.987,0 10.84,4.854 10.84,10.84 0,5.987 -4.853,10.842 -10.84,10.842 -5.986,0 -10.84,-4.854 -10.84,-10.842 10e-4,-5.987 4.853,-10.84 10.84,-10.84 z"
   id="path304"
   style="fill:#f26464" />
			<path
   d="m 71.167,77.425 c 5.922,0 10.721,4.8 10.721,10.72 0,5.92 -4.799,10.72 -10.721,10.72 -5.92,0 -10.719,-4.8 -10.719,-10.72 0,-5.92 4.799,-10.72 10.719,-10.72 z"
   id="path306"
   style="fill:#f26565" />
			<path
   d="m 71.125,77.506 c 5.854,0 10.598,4.746 10.598,10.599 0,5.854 -4.744,10.6 -10.598,10.6 -5.854,0 -10.6,-4.746 -10.6,-10.6 0.001,-5.855 4.748,-10.599 10.6,-10.599 z"
   id="path308"
   style="fill:#f26666" />
			<path
   d="m 71.083,77.587 c 5.788,0 10.479,4.69 10.479,10.479 0,5.789 -4.69,10.479 -10.479,10.479 -5.787,0 -10.479,-4.69 -10.479,-10.479 0,-5.789 4.692,-10.479 10.479,-10.479 z"
   id="path310"
   style="fill:#f26767" />
			<path
   d="m 71.043,77.668 c 5.721,0 10.358,4.638 10.358,10.358 0,5.72 -4.638,10.357 -10.358,10.357 -5.722,0 -10.359,-4.638 -10.359,-10.357 0,-5.72 4.638,-10.358 10.359,-10.358 z"
   id="path312"
   style="fill:#f26868" />
			<path
   d="m 71,77.748 c 5.655,0 10.24,4.584 10.24,10.238 0,5.655 -4.585,10.237 -10.24,10.237 -5.652,0 -10.237,-4.582 -10.237,-10.237 C 60.762,82.332 65.347,77.748 71,77.748 z"
   id="path314"
   style="fill:#f36969" />
			<path
   d="m 70.958,77.829 c 5.588,0 10.118,4.529 10.118,10.118 0,5.588 -4.53,10.117 -10.118,10.117 -5.587,0 -10.118,-4.529 -10.118,-10.117 10e-4,-5.589 4.532,-10.118 10.118,-10.118 z"
   id="path316"
   style="fill:#f36a6a" />
			<path
   d="m 70.917,77.91 c 5.521,0 9.998,4.477 9.998,9.997 0,5.52 -4.477,9.996 -9.998,9.996 -5.521,0 -9.997,-4.476 -9.997,-9.996 0,-5.52 4.475,-9.997 9.997,-9.997 z"
   id="path318"
   style="fill:#f36b6b" />
			<path
   d="m 70.875,77.99 c 5.456,0 9.876,4.423 9.876,9.877 0,5.454 -4.421,9.877 -9.876,9.877 -5.455,0 -9.877,-4.423 -9.877,-9.877 0,-5.454 4.422,-9.877 9.877,-9.877 z"
   id="path320"
   style="fill:#f36c6c" />
			<path
   d="m 70.834,78.071 c 5.387,0 9.756,4.368 9.756,9.757 0,5.389 -4.368,9.757 -9.756,9.757 -5.39,0 -9.758,-4.368 -9.758,-9.757 0,-5.389 4.369,-9.757 9.758,-9.757 z"
   id="path322"
   style="fill:#f36d6d" />
			<path
   d="m 70.792,78.152 c 5.322,0 9.637,4.315 9.637,9.637 0,5.322 -4.314,9.637 -9.637,9.637 -5.321,0 -9.637,-4.315 -9.637,-9.637 10e-4,-5.321 4.315,-9.637 9.637,-9.637 z"
   id="path324"
   style="fill:#f46e6e" />
			<path
   d="m 70.75,78.233 c 5.256,0 9.516,4.261 9.516,9.516 0,5.256 -4.26,9.517 -9.516,9.517 -5.256,0 -9.517,-4.261 -9.517,-9.517 0.001,-5.255 4.262,-9.516 9.517,-9.516 z"
   id="path326"
   style="fill:#f46f6f" />
			<path
   d="m 70.708,78.313 c 5.188,0 9.395,4.207 9.395,9.396 0,5.188 -4.207,9.396 -9.395,9.396 -5.188,0 -9.396,-4.207 -9.396,-9.396 0.001,-5.188 4.208,-9.396 9.396,-9.396 z"
   id="path328"
   style="fill:#f47070" />
			<path
   d="m 70.667,78.395 c 5.121,0 9.273,4.154 9.273,9.275 0,5.122 -4.152,9.275 -9.273,9.275 -5.123,0 -9.275,-4.152 -9.275,-9.275 0,-5.121 4.152,-9.275 9.275,-9.275 z"
   id="path330"
   style="fill:#f47171" />
			<path
   d="m 70.625,78.476 c 5.057,0 9.154,4.099 9.154,9.155 0,5.055 -4.098,9.154 -9.154,9.154 -5.056,0 -9.154,-4.098 -9.154,-9.154 0,-5.056 4.098,-9.155 9.154,-9.155 z"
   id="path332"
   style="fill:#f47272" />
			<path
   d="m 70.583,78.557 c 4.99,0 9.034,4.045 9.034,9.034 0,4.99 -4.044,9.034 -9.034,9.034 -4.99,0 -9.034,-4.045 -9.034,-9.034 0,-4.989 4.044,-9.034 9.034,-9.034 z"
   id="path334"
   style="fill:#f57373" />
			<path
   d="m 70.542,78.638 c 4.923,0 8.914,3.991 8.914,8.914 0,4.922 -3.991,8.913 -8.914,8.913 -4.923,0 -8.914,-3.991 -8.914,-8.913 -10e-4,-4.923 3.991,-8.914 8.914,-8.914 z"
   id="path336"
   style="fill:#f57474" />
			<path
   d="m 70.5,78.719 c 4.856,0 8.793,3.937 8.793,8.793 0,4.857 -3.937,8.795 -8.793,8.795 -4.856,0 -8.794,-3.938 -8.794,-8.795 10e-4,-4.857 3.938,-8.793 8.794,-8.793 z"
   id="path338"
   style="fill:#f57575" />
			<path
   d="m 70.458,78.8 c 4.79,0 8.673,3.883 8.673,8.674 0,4.789 -3.882,8.673 -8.673,8.673 -4.79,0 -8.673,-3.882 -8.673,-8.673 0,-4.791 3.883,-8.674 8.673,-8.674 z"
   id="path340"
   style="fill:#f57676" />
			<path
   d="m 70.417,78.881 c 4.723,0 8.552,3.83 8.552,8.552 0,4.725 -3.829,8.555 -8.552,8.555 -4.724,0 -8.554,-3.83 -8.554,-8.555 10e-4,-4.722 3.83,-8.552 8.554,-8.552 z"
   id="path342"
   style="fill:#f67777" />
			<path
   d="m 70.375,78.962 c 4.656,0 8.433,3.776 8.433,8.432 0,4.657 -3.776,8.434 -8.433,8.434 -4.657,0 -8.433,-3.776 -8.433,-8.434 0,-4.657 3.776,-8.432 8.433,-8.432 z"
   id="path344"
   style="fill:#f67878" />
			<path
   d="m 70.333,79.043 c 4.59,0 8.312,3.721 8.312,8.312 0,4.59 -3.722,8.311 -8.312,8.311 -4.59,0 -8.312,-3.721 -8.312,-8.311 0,-4.591 3.722,-8.312 8.312,-8.312 z"
   id="path346"
   style="fill:#f67979" />
			<path
   d="m 70.292,79.124 c 4.524,0 8.19,3.668 8.19,8.19 0,4.524 -3.666,8.192 -8.19,8.192 -4.523,0 -8.191,-3.668 -8.191,-8.192 -10e-4,-4.522 3.667,-8.19 8.191,-8.19 z"
   id="path348"
   style="fill:#f67a7a" />
			<path
   d="m 70.25,79.204 c 4.457,0 8.071,3.615 8.071,8.071 0,4.457 -3.614,8.071 -8.071,8.071 -4.457,0 -8.071,-3.614 -8.071,-8.071 0,-4.458 3.614,-8.071 8.071,-8.071 z"
   id="path350"
   style="fill:#f67b7b" />
			<path
   d="m 70.208,79.286 c 4.391,0 7.951,3.559 7.951,7.949 0,4.392 -3.561,7.951 -7.951,7.951 -4.39,0 -7.95,-3.56 -7.95,-7.951 -0.001,-4.39 3.559,-7.949 7.95,-7.949 z"
   id="path352"
   style="fill:#f77c7c" />
			<path
   d="m 70.167,79.367 c 4.325,0 7.83,3.504 7.83,7.83 0,4.324 -3.505,7.829 -7.83,7.829 -4.324,0 -7.831,-3.505 -7.831,-7.829 -10e-4,-4.326 3.506,-7.83 7.831,-7.83 z"
   id="path354"
   style="fill:#f77d7d" />
			<path
   d="m 70.125,79.447 c 4.259,0 7.71,3.452 7.71,7.709 0,4.259 -3.451,7.711 -7.71,7.711 -4.258,0 -7.71,-3.452 -7.71,-7.711 0,-4.257 3.452,-7.709 7.71,-7.709 z"
   id="path356"
   style="fill:#f77e7e" />
			<path
   d="m 70.083,79.528 c 4.19,0 7.589,3.397 7.589,7.589 0,4.192 -3.397,7.59 -7.589,7.59 -4.192,0 -7.59,-3.398 -7.59,-7.59 0,-4.192 3.399,-7.589 7.59,-7.589 z"
   id="path358"
   style="fill:#f77f7f" />
			<path
   d="m 70.042,79.61 c 4.124,0 7.47,3.343 7.47,7.468 0,4.125 -3.346,7.469 -7.47,7.469 -4.126,0 -7.47,-3.344 -7.47,-7.469 0,-4.125 3.344,-7.468 7.47,-7.468 z"
   id="path360"
   style="fill:#f78080" />
			<path
   d="m 70,79.69 c 4.059,0 7.349,3.29 7.349,7.349 0,4.058 -3.29,7.349 -7.349,7.349 -4.059,0 -7.35,-3.291 -7.35,-7.349 C 62.651,82.98 65.942,79.69 70,79.69 z"
   id="path362"
   style="fill:#f88181" />
			<path
   d="m 69.958,79.771 c 3.992,0 7.229,3.235 7.229,7.228 0,3.993 -3.237,7.229 -7.229,7.229 -3.992,0 -7.229,-3.235 -7.229,-7.229 0,-3.992 3.236,-7.228 7.229,-7.228 z"
   id="path364"
   style="fill:#f88282" />
			<path
   d="m 69.917,79.853 c 3.925,0 7.108,3.182 7.108,7.106 0,3.926 -3.184,7.108 -7.108,7.108 -3.926,0 -7.108,-3.183 -7.108,-7.108 -10e-4,-3.925 3.182,-7.106 7.108,-7.106 z"
   id="path366"
   style="fill:#f88383" />
			<path
   d="m 69.874,79.933 c 3.86,0 6.988,3.128 6.988,6.987 0,3.859 -3.128,6.988 -6.988,6.988 -3.859,0 -6.987,-3.129 -6.987,-6.988 0,-3.859 3.127,-6.987 6.987,-6.987 z"
   id="path368"
   style="fill:#f88484" />
			<path
   d="m 69.833,80.014 c 3.792,0 6.866,3.074 6.866,6.867 0,3.792 -3.074,6.866 -6.866,6.866 -3.792,0 -6.867,-3.074 -6.867,-6.866 -10e-4,-3.793 3.075,-6.867 6.867,-6.867 z"
   id="path370"
   style="fill:#f88585" />
			<path
   d="m 69.791,80.095 c 3.727,0 6.747,3.021 6.747,6.746 0,3.727 -3.021,6.747 -6.747,6.747 -3.726,0 -6.746,-3.021 -6.746,-6.747 -0.001,-3.726 3.02,-6.746 6.746,-6.746 z"
   id="path372"
   style="fill:#f98686" />
			<path
   d="m 69.75,80.176 c 3.659,0 6.627,2.966 6.627,6.625 0,3.659 -2.968,6.627 -6.627,6.627 -3.66,0 -6.626,-2.968 -6.626,-6.627 0,-3.657 2.965,-6.625 6.626,-6.625 z"
   id="path374"
   style="fill:#f98787" />
			<path
   d="m 69.708,80.256 c 3.593,0 6.506,2.913 6.506,6.507 0,3.592 -2.913,6.506 -6.506,6.506 -3.593,0 -6.506,-2.913 -6.506,-6.506 0,-3.593 2.913,-6.507 6.506,-6.507 z"
   id="path376"
   style="fill:#f98888" />
			<path
   d="m 69.667,80.337 c 3.526,0 6.385,2.858 6.385,6.387 0,3.525 -2.858,6.385 -6.385,6.385 -3.527,0 -6.386,-2.859 -6.386,-6.385 0,-3.529 2.858,-6.387 6.386,-6.387 z"
   id="path378"
   style="fill:#f98989" />
			<path
   d="m 69.624,80.418 c 3.461,0 6.265,2.805 6.265,6.266 0,3.461 -2.804,6.265 -6.265,6.265 -3.459,0 -6.264,-2.804 -6.264,-6.265 0,-3.461 2.805,-6.266 6.264,-6.266 z"
   id="path380"
   style="fill:#f98a8a" />
			<path
   d="m 69.583,80.499 c 3.394,0 6.144,2.752 6.144,6.146 0,3.394 -2.75,6.144 -6.144,6.144 -3.395,0 -6.146,-2.75 -6.146,-6.144 0,-3.394 2.752,-6.146 6.146,-6.146 z"
   id="path382"
   style="fill:#fa8b8b" />
			<path
   d="m 69.541,80.58 c 3.327,0 6.024,2.697 6.024,6.025 0,3.326 -2.697,6.024 -6.024,6.024 -3.326,0 -6.023,-2.698 -6.023,-6.024 -10e-4,-3.328 2.696,-6.025 6.023,-6.025 z"
   id="path384"
   style="fill:#fa8c8c" />
			<path
   d="m 69.5,80.661 c 3.26,0 5.902,2.645 5.902,5.904 0,3.261 -2.643,5.904 -5.902,5.904 -3.262,0 -5.905,-2.644 -5.905,-5.904 0,-3.259 2.644,-5.904 5.905,-5.904 z"
   id="path386"
   style="fill:#fa8d8d" />
			<path
   d="m 69.457,80.741 c 3.195,0 5.784,2.59 5.784,5.784 0,3.194 -2.589,5.784 -5.784,5.784 -3.193,0 -5.782,-2.59 -5.782,-5.784 0,-3.194 2.588,-5.784 5.782,-5.784 z"
   id="path388"
   style="fill:#fa8e8e" />
			<path
   d="m 69.416,80.823 c 3.128,0 5.663,2.535 5.663,5.663 0,3.128 -2.535,5.663 -5.663,5.663 -3.127,0 -5.662,-2.535 -5.662,-5.663 0,-3.128 2.535,-5.663 5.662,-5.663 z"
   id="path390"
   style="fill:#fa8f8f" />
			<path
   d="m 69.374,80.904 c 3.062,0 5.543,2.482 5.543,5.543 0,3.061 -2.481,5.542 -5.543,5.542 -3.061,0 -5.542,-2.481 -5.542,-5.542 0,-3.061 2.481,-5.543 5.542,-5.543 z"
   id="path392"
   style="fill:#fb9090" />
			<path
   d="m 69.333,80.985 c 2.994,0 5.422,2.428 5.422,5.422 0,2.995 -2.428,5.423 -5.422,5.423 -2.994,0 -5.422,-2.428 -5.422,-5.423 0,-2.995 2.427,-5.422 5.422,-5.422 z"
   id="path394"
   style="fill:#fb9191" />
			<path
   d="m 69.291,81.066 c 2.929,0 5.302,2.373 5.302,5.302 0,2.928 -2.373,5.302 -5.302,5.302 -2.928,0 -5.302,-2.373 -5.302,-5.302 0,-2.929 2.374,-5.302 5.302,-5.302 z"
   id="path396"
   style="fill:#fb9292" />
			<path
   d="m 69.25,81.146 c 2.861,0 5.181,2.321 5.181,5.182 0,2.861 -2.319,5.182 -5.181,5.182 -2.862,0 -5.182,-2.32 -5.182,-5.182 0,-2.862 2.319,-5.182 5.182,-5.182 z"
   id="path398"
   style="fill:#fb9393" />
			<path
   d="m 69.207,81.228 c 2.795,0 5.062,2.267 5.062,5.062 0,2.794 -2.267,5.061 -5.062,5.061 -2.795,0 -5.061,-2.267 -5.061,-5.061 0,-2.796 2.266,-5.062 5.061,-5.062 z"
   id="path400"
   style="fill:#fb9494" />
			<path
   d="m 69.166,81.309 c 2.729,0 4.94,2.212 4.94,4.94 0,2.729 -2.212,4.94 -4.94,4.94 -2.729,0 -4.94,-2.211 -4.94,-4.94 -0.001,-2.728 2.21,-4.94 4.94,-4.94 z"
   id="path402"
   style="fill:#fc9595" />
			<path
   d="m 69.124,81.389 c 2.663,0 4.82,2.158 4.82,4.821 0,2.662 -2.157,4.82 -4.82,4.82 -2.662,0 -4.82,-2.158 -4.82,-4.82 0,-2.662 2.157,-4.821 4.82,-4.821 z"
   id="path404"
   style="fill:#fc9696" />
			<path
   d="m 69.083,81.47 c 2.595,0 4.698,2.105 4.698,4.701 0,2.595 -2.104,4.698 -4.698,4.698 -2.597,0 -4.701,-2.104 -4.701,-4.698 0,-2.596 2.105,-4.701 4.701,-4.701 z"
   id="path406"
   style="fill:#fc9797" />
			<path
   d="m 69.04,81.551 c 2.529,0 4.581,2.051 4.581,4.58 0,2.528 -2.052,4.579 -4.581,4.579 -2.529,0 -4.579,-2.051 -4.579,-4.579 -0.001,-2.529 2.049,-4.58 4.579,-4.58 z"
   id="path408"
   style="fill:#fc9898" />
			<path
   d="m 68.999,81.632 c 2.462,0 4.46,1.997 4.46,4.46 0,2.462 -1.998,4.458 -4.46,4.458 -2.462,0 -4.459,-1.996 -4.459,-4.458 0,-2.463 1.997,-4.46 4.459,-4.46 z"
   id="path410"
   style="fill:#fd9999" />
			<path
   d="m 68.957,81.713 c 2.396,0 4.34,1.942 4.34,4.339 0,2.395 -1.943,4.34 -4.34,4.34 -2.396,0 -4.338,-1.945 -4.338,-4.34 0,-2.397 1.942,-4.339 4.338,-4.339 z"
   id="path412"
   style="fill:#fd9a9a" />
			<path
   d="m 68.916,81.794 c 2.329,0 4.219,1.889 4.219,4.219 0,2.329 -1.89,4.219 -4.219,4.219 -2.33,0 -4.218,-1.89 -4.218,-4.219 0,-2.33 1.887,-4.219 4.218,-4.219 z"
   id="path414"
   style="fill:#fd9b9b" />
			<path
   d="m 68.874,81.875 c 2.263,0 4.098,1.834 4.098,4.098 0,2.263 -1.835,4.098 -4.098,4.098 -2.264,0 -4.098,-1.835 -4.098,-4.098 0,-2.264 1.834,-4.098 4.098,-4.098 z"
   id="path416"
   style="fill:#fd9c9c" />
			<path
   d="m 68.833,81.956 c 2.196,0 3.978,1.78 3.978,3.978 0,2.198 -1.781,3.978 -3.978,3.978 -2.197,0 -3.978,-1.78 -3.978,-3.978 -0.001,-2.198 1.78,-3.978 3.978,-3.978 z"
   id="path418"
   style="fill:#fd9d9d" />
			<path
   d="m 68.79,82.037 c 2.132,0 3.858,1.727 3.858,3.856 0,2.129 -1.727,3.857 -3.858,3.857 -2.129,0 -3.856,-1.728 -3.856,-3.857 0,-2.129 1.727,-3.856 3.856,-3.856 z"
   id="path420"
   style="fill:#fe9e9e" />
			<path
   d="m 68.749,82.118 c 2.063,0 3.736,1.673 3.736,3.736 0,2.063 -1.673,3.736 -3.736,3.736 -2.064,0 -3.736,-1.673 -3.736,-3.736 0,-2.063 1.671,-3.736 3.736,-3.736 z"
   id="path422"
   style="fill:#fe9f9f" />
			<path
   d="m 68.706,82.198 c 1.998,0 3.618,1.62 3.618,3.616 0,1.998 -1.62,3.616 -3.618,3.616 -1.995,0 -3.614,-1.618 -3.614,-3.616 -0.001,-1.996 1.618,-3.616 3.614,-3.616 z"
   id="path424"
   style="fill:#fea0a0" />
			<path
   d="m 68.666,82.279 c 1.932,0 3.495,1.565 3.495,3.497 0,1.93 -1.565,3.495 -3.495,3.495 -1.931,0 -3.496,-1.565 -3.496,-3.495 -0.002,-1.931 1.565,-3.497 3.496,-3.497 z"
   id="path426"
   style="fill:#fea1a1" />
			<path
   d="m 68.623,82.36 c 1.864,0 3.376,1.512 3.376,3.375 0,1.864 -1.512,3.375 -3.376,3.375 -1.863,0 -3.375,-1.511 -3.375,-3.375 0,-1.863 1.511,-3.375 3.375,-3.375 z"
   id="path428"
   style="fill:#fea2a2" />
			<path
   d="m 68.582,82.441 c 1.798,0 3.254,1.457 3.254,3.255 0,1.797 -1.456,3.255 -3.254,3.255 -1.798,0 -3.256,-1.457 -3.256,-3.255 0,-1.798 1.459,-3.255 3.256,-3.255 z"
   id="path430"
   style="fill:#ffa3a3" />
			<path
   d="m 68.54,82.522 c 1.731,0 3.135,1.403 3.135,3.135 0,1.732 -1.403,3.135 -3.135,3.135 -1.73,0 -3.135,-1.403 -3.135,-3.135 0,-1.732 1.404,-3.135 3.135,-3.135 z"
   id="path432"
   style="fill:#ffa4a4" />
			<path
   d="m 65.484,85.617 c 0,-1.665 1.349,-3.014 3.015,-3.014 1.664,0 3.015,1.349 3.015,3.014 0,1.666 -1.351,3.016 -3.015,3.016 -1.666,0 -3.015,-1.35 -3.015,-3.016 z"
   id="path434"
   style="fill:#ffa5a5" />
		</g>
		<g
   id="g436">
			<path
   d="m 62.969,84.319 c 0.969,-3.021 3.286,-4.978 5.173,-4.372 1.887,0.606 2.632,3.546 1.662,6.566 -0.969,3.02 -3.285,4.978 -5.173,4.371 C 62.745,90.279 62,87.339 62.969,84.319 z"
   id="path438"
   style="fill:#ff8c8c" />
			<path
   d="m 68.137,79.964 c 1.881,0.604 2.624,3.535 1.657,6.547 -0.966,3.011 -3.276,4.963 -5.158,4.358 -1.881,-0.604 -2.623,-3.536 -1.657,-6.546 0.967,-3.011 3.276,-4.964 5.158,-4.359 z"
   id="path440"
   style="fill:#ff8d8d" />
			<path
   d="m 68.131,79.979 c 1.876,0.603 2.616,3.525 1.652,6.527 -0.963,3.002 -3.266,4.948 -5.143,4.346 -1.875,-0.603 -2.615,-3.525 -1.652,-6.527 0.963,-3.002 3.268,-4.947 5.143,-4.346 z"
   id="path442"
   style="fill:#ff8e8e" />
			<path
   d="m 68.126,79.996 c 1.87,0.602 2.608,3.515 1.647,6.508 -0.96,2.993 -3.256,4.934 -5.127,4.332 -1.87,-0.6 -2.608,-3.514 -1.647,-6.507 0.961,-2.994 3.257,-4.933 5.127,-4.333 z"
   id="path444"
   style="fill:#ff8f8f" />
			<path
   d="m 68.122,80.012 c 1.864,0.6 2.601,3.504 1.642,6.488 -0.957,2.984 -3.246,4.919 -5.111,4.319 -1.864,-0.598 -2.6,-3.504 -1.643,-6.487 0.957,-2.984 3.246,-4.918 5.112,-4.32 z"
   id="path446"
   style="fill:#ff9090" />
			<path
   d="m 68.117,80.028 c 1.858,0.598 2.592,3.493 1.638,6.47 -0.955,2.975 -3.237,4.903 -5.097,4.306 -1.859,-0.597 -2.592,-3.493 -1.638,-6.468 0.955,-2.976 3.237,-4.904 5.097,-4.308 z"
   id="path448"
   style="fill:#ff9191" />
			<path
   d="m 68.111,80.044 c 1.854,0.596 2.585,3.483 1.633,6.45 -0.952,2.966 -3.227,4.889 -5.081,4.293 -1.853,-0.595 -2.585,-3.482 -1.632,-6.448 0.951,-2.967 3.226,-4.889 5.08,-4.295 z"
   id="path450"
   style="fill:#ff9292" />
			<path
   d="m 68.106,80.061 c 1.848,0.594 2.577,3.473 1.628,6.431 -0.949,2.957 -3.218,4.874 -5.065,4.28 -1.848,-0.593 -2.577,-3.473 -1.628,-6.429 0.949,-2.959 3.217,-4.875 5.065,-4.282 z"
   id="path452"
   style="fill:#ff9393" />
			<path
   d="m 68.1,80.077 c 1.842,0.592 2.569,3.462 1.623,6.41 -0.945,2.948 -3.207,4.859 -5.05,4.268 -1.842,-0.591 -2.569,-3.462 -1.623,-6.409 0.947,-2.95 3.208,-4.861 5.05,-4.269 z"
   id="path454"
   style="fill:#ff9494" />
			<path
   d="m 68.095,80.093 c 1.837,0.59 2.562,3.451 1.618,6.392 -0.943,2.939 -3.198,4.845 -5.035,4.254 -1.837,-0.589 -2.562,-3.451 -1.618,-6.39 0.943,-2.941 3.198,-4.846 5.035,-4.256 z"
   id="path456"
   style="fill:#ff9595" />
			<path
   d="m 68.09,80.109 c 1.831,0.589 2.554,3.441 1.612,6.372 -0.939,2.93 -3.188,4.83 -5.02,4.241 -1.831,-0.588 -2.553,-3.44 -1.613,-6.371 0.942,-2.93 3.19,-4.83 5.021,-4.242 z"
   id="path458"
   style="fill:#ff9696" />
			<path
   d="m 68.085,80.126 c 1.825,0.587 2.546,3.43 1.607,6.353 -0.937,2.921 -3.178,4.814 -5.004,4.228 -1.825,-0.585 -2.546,-3.43 -1.608,-6.351 0.939,-2.922 3.18,-4.816 5.005,-4.23 z"
   id="path460"
   style="fill:#ff9797" />
			<path
   d="m 68.08,80.142 c 1.819,0.585 2.538,3.42 1.604,6.333 -0.935,2.912 -3.169,4.801 -4.989,4.216 -1.82,-0.584 -2.538,-3.42 -1.604,-6.332 0.934,-2.914 3.169,-4.801 4.989,-4.217 z"
   id="path462"
   style="fill:#ff9898" />
			<path
   d="m 68.074,80.158 c 1.814,0.582 2.531,3.409 1.599,6.312 -0.932,2.903 -3.159,4.786 -4.974,4.203 -1.814,-0.582 -2.53,-3.409 -1.598,-6.312 0.932,-2.904 3.159,-4.786 4.973,-4.203 z"
   id="path464"
   style="fill:#ff9999" />
			<path
   d="m 68.069,80.174 c 1.809,0.581 2.523,3.399 1.594,6.294 -0.929,2.895 -3.148,4.771 -4.959,4.19 -1.808,-0.581 -2.522,-3.399 -1.593,-6.294 0.929,-2.895 3.149,-4.77 4.958,-4.19 z"
   id="path466"
   style="fill:#ff9a9a" />
			<path
   d="m 68.065,80.19 c 1.802,0.579 2.514,3.389 1.588,6.274 -0.926,2.885 -3.14,4.757 -4.943,4.177 -1.803,-0.578 -2.514,-3.388 -1.588,-6.273 0.925,-2.886 3.139,-4.756 4.943,-4.178 z"
   id="path468"
   style="fill:#ff9b9b" />
			<path
   d="m 68.059,80.207 c 1.797,0.577 2.507,3.377 1.583,6.254 -0.923,2.877 -3.13,4.742 -4.928,4.164 -1.797,-0.576 -2.507,-3.377 -1.583,-6.254 0.924,-2.877 3.13,-4.741 4.928,-4.164 z"
   id="path470"
   style="fill:#ff9c9c" />
			<path
   d="m 68.053,80.223 c 1.792,0.576 2.499,3.367 1.578,6.235 -0.92,2.867 -3.119,4.727 -4.912,4.151 -1.792,-0.575 -2.499,-3.367 -1.578,-6.235 0.921,-2.868 3.12,-4.727 4.912,-4.151 z"
   id="path472"
   style="fill:#ff9d9d" />
			<path
   d="m 68.048,80.239 c 1.786,0.573 2.491,3.356 1.574,6.216 -0.918,2.858 -3.11,4.712 -4.897,4.138 -1.786,-0.573 -2.491,-3.356 -1.574,-6.215 0.918,-2.859 3.111,-4.712 4.897,-4.139 z"
   id="path474"
   style="fill:#ff9e9e" />
			<path
   d="m 68.043,80.256 c 1.78,0.571 2.483,3.346 1.568,6.196 -0.914,2.85 -3.101,4.697 -4.881,4.125 -1.781,-0.572 -2.484,-3.347 -1.569,-6.195 0.915,-2.851 3.101,-4.697 4.882,-4.126 z"
   id="path476"
   style="fill:#ff9f9f" />
			<path
   d="m 68.039,80.271 c 1.774,0.57 2.476,3.336 1.562,6.177 -0.911,2.841 -3.09,4.683 -4.865,4.112 -1.775,-0.569 -2.476,-3.336 -1.564,-6.177 0.911,-2.84 3.091,-4.681 4.867,-4.112 z"
   id="path478"
   style="fill:#ffa0a0" />
			<path
   d="m 68.033,80.287 c 1.77,0.568 2.468,3.325 1.559,6.158 -0.908,2.832 -3.081,4.667 -4.852,4.099 -1.769,-0.568 -2.467,-3.325 -1.558,-6.156 0.909,-2.833 3.081,-4.668 4.851,-4.101 z"
   id="path480"
   style="fill:#ffa1a1" />
			<path
   d="m 68.028,80.304 c 1.764,0.567 2.46,3.314 1.554,6.139 -0.905,2.822 -3.071,4.652 -4.836,4.085 -1.764,-0.565 -2.46,-3.313 -1.554,-6.137 0.906,-2.824 3.072,-4.653 4.836,-4.087 z"
   id="path482"
   style="fill:#ffa2a2" />
			<path
   d="m 68.023,80.32 c 1.758,0.565 2.452,3.304 1.549,6.119 -0.902,2.813 -3.062,4.638 -4.82,4.072 -1.759,-0.564 -2.452,-3.304 -1.549,-6.117 0.902,-2.814 3.061,-4.638 4.82,-4.074 z"
   id="path484"
   style="fill:#ffa3a3" />
			<path
   d="m 68.017,80.336 c 1.753,0.563 2.444,3.294 1.544,6.1 -0.899,2.805 -3.052,4.623 -4.805,4.061 -1.753,-0.562 -2.445,-3.294 -1.544,-6.099 0.901,-2.806 3.052,-4.625 4.805,-4.062 z"
   id="path486"
   style="fill:#ffa4a4" />
			<path
   d="m 68.011,80.352 c 1.747,0.562 2.438,3.284 1.54,6.08 -0.898,2.796 -3.043,4.609 -4.79,4.048 -1.747,-0.561 -2.437,-3.283 -1.539,-6.079 0.897,-2.797 3.043,-4.61 4.789,-4.049 z"
   id="path488"
   style="fill:#ffa5a5" />
			<path
   d="m 68.007,80.368 c 1.74,0.56 2.429,3.273 1.533,6.061 -0.894,2.787 -3.031,4.594 -4.774,4.034 -1.741,-0.559 -2.429,-3.272 -1.534,-6.06 0.895,-2.787 3.033,-4.593 4.775,-4.035 z"
   id="path490"
   style="fill:#ffa6a6" />
			<path
   d="m 68.002,80.385 c 1.735,0.558 2.421,3.263 1.529,6.041 -0.893,2.778 -3.023,4.579 -4.76,4.021 -1.736,-0.558 -2.421,-3.262 -1.529,-6.04 0.893,-2.778 3.024,-4.579 4.76,-4.022 z"
   id="path492"
   style="fill:#ffa7a7" />
			<path
   d="m 67.997,80.401 c 1.73,0.556 2.413,3.251 1.524,6.021 -0.889,2.769 -3.013,4.564 -4.744,4.008 -1.73,-0.556 -2.414,-3.252 -1.524,-6.021 0.888,-2.768 3.013,-4.563 4.744,-4.008 z"
   id="path494"
   style="fill:#ffa8a8" />
			<path
   d="m 67.991,80.417 c 1.725,0.555 2.406,3.241 1.52,6.002 -0.886,2.76 -3.003,4.55 -4.729,3.995 -1.725,-0.554 -2.405,-3.24 -1.519,-6.001 0.885,-2.761 3.003,-4.55 4.728,-3.996 z"
   id="path496"
   style="fill:#ffa9a9" />
			<path
   d="m 67.986,80.434 c 1.719,0.552 2.398,3.23 1.515,5.982 -0.883,2.751 -2.993,4.535 -4.713,3.982 -1.72,-0.552 -2.397,-3.23 -1.515,-5.981 0.883,-2.752 2.994,-4.535 4.713,-3.983 z"
   id="path498"
   style="fill:#ffaaaa" />
			<path
   d="m 67.981,80.45 c 1.714,0.55 2.391,3.22 1.51,5.963 -0.88,2.742 -2.983,4.521 -4.697,3.969 -1.714,-0.55 -2.391,-3.22 -1.51,-5.962 0.879,-2.743 2.983,-4.52 4.697,-3.97 z"
   id="path500"
   style="fill:#ffabab" />
			<path
   d="m 67.976,80.466 c 1.707,0.549 2.382,3.21 1.504,5.943 -0.877,2.733 -2.974,4.505 -4.683,3.957 -1.708,-0.549 -2.381,-3.21 -1.504,-5.943 0.877,-2.734 2.974,-4.505 4.683,-3.957 z"
   id="path502"
   style="fill:#ffacac" />
			<path
   d="m 67.97,80.482 c 1.702,0.546 2.375,3.198 1.499,5.924 -0.873,2.725 -2.964,4.49 -4.667,3.943 -1.702,-0.546 -2.374,-3.199 -1.5,-5.923 0.876,-2.725 2.965,-4.49 4.668,-3.944 z"
   id="path504"
   style="fill:#ffadad" />
			<path
   d="m 67.965,80.498 c 1.696,0.545 2.366,3.188 1.495,5.905 -0.872,2.715 -2.955,4.476 -4.652,3.93 -1.697,-0.544 -2.366,-3.188 -1.495,-5.903 0.871,-2.715 2.955,-4.476 4.652,-3.932 z"
   id="path506"
   style="fill:#ffaeae" />
			<path
   d="m 67.96,80.515 c 1.69,0.544 2.358,3.178 1.489,5.886 -0.868,2.706 -2.944,4.46 -4.636,3.917 -1.692,-0.543 -2.359,-3.178 -1.49,-5.884 0.869,-2.708 2.946,-4.462 4.637,-3.919 z"
   id="path508"
   style="fill:#ffafaf" />
			<path
   d="m 67.955,80.53 c 1.686,0.542 2.352,3.168 1.485,5.866 -0.865,2.697 -2.936,4.446 -4.621,3.904 -1.686,-0.541 -2.351,-3.167 -1.485,-5.865 0.866,-2.697 2.935,-4.445 4.621,-3.905 z"
   id="path510"
   style="fill:#ffb0b0" />
			<path
   d="m 67.95,80.547 c 1.68,0.539 2.343,3.157 1.479,5.846 -0.862,2.688 -2.925,4.432 -4.605,3.892 -1.68,-0.539 -2.343,-3.156 -1.48,-5.845 0.863,-2.69 2.925,-4.433 4.606,-3.893 z"
   id="path512"
   style="fill:#ffb1b1" />
			<path
   d="m 67.945,80.563 c 1.674,0.537 2.335,3.146 1.475,5.826 -0.86,2.68 -2.915,4.417 -4.591,3.879 -1.674,-0.537 -2.335,-3.146 -1.475,-5.826 0.86,-2.68 2.916,-4.417 4.591,-3.879 z"
   id="path514"
   style="fill:#ffb2b2" />
			<path
   d="m 67.94,80.579 c 1.668,0.536 2.327,3.137 1.47,5.808 -0.857,2.671 -2.905,4.402 -4.575,3.866 -1.669,-0.536 -2.328,-3.136 -1.47,-5.807 0.857,-2.672 2.905,-4.402 4.575,-3.867 z"
   id="path516"
   style="fill:#ffb3b3" />
			<path
   d="m 67.934,80.596 c 1.663,0.534 2.32,3.125 1.465,5.788 -0.854,2.661 -2.896,4.387 -4.56,3.853 -1.663,-0.534 -2.319,-3.125 -1.465,-5.787 0.855,-2.663 2.897,-4.388 4.56,-3.854 z"
   id="path518"
   style="fill:#ffb4b4" />
			<path
   d="m 67.928,80.611 c 1.658,0.533 2.312,3.115 1.461,5.769 -0.851,2.654 -2.887,4.372 -4.545,3.84 -1.658,-0.532 -2.312,-3.114 -1.46,-5.768 0.852,-2.654 2.887,-4.373 4.544,-3.841 z"
   id="path520"
   style="fill:#ffb5b5" />
			<path
   d="m 67.923,80.628 c 1.652,0.53 2.305,3.104 1.455,5.749 -0.848,2.644 -2.876,4.357 -4.529,3.827 -1.651,-0.53 -2.303,-3.104 -1.455,-5.749 0.849,-2.644 2.877,-4.357 4.529,-3.827 z"
   id="path522"
   style="fill:#ffb6b6" />
			<path
   d="m 67.919,80.645 c 1.646,0.528 2.296,3.094 1.45,5.729 -0.846,2.635 -2.867,4.343 -4.515,3.813 -1.646,-0.528 -2.296,-3.094 -1.45,-5.729 0.846,-2.635 2.868,-4.342 4.515,-3.813 z"
   id="path524"
   style="fill:#ffb7b7" />
			<path
   d="m 67.914,80.66 c 1.641,0.527 2.288,3.084 1.445,5.71 -0.843,2.626 -2.857,4.328 -4.499,3.801 -1.641,-0.526 -2.288,-3.082 -1.445,-5.709 0.842,-2.626 2.857,-4.328 4.499,-3.802 z"
   id="path526"
   style="fill:#ffb8b8" />
			<path
   d="m 67.908,80.676 c 1.636,0.525 2.281,3.073 1.44,5.691 -0.84,2.617 -2.847,4.313 -4.483,3.787 -1.635,-0.524 -2.281,-3.072 -1.44,-5.689 0.839,-2.617 2.847,-4.314 4.483,-3.789 z"
   id="path528"
   style="fill:#ffb9b9" />
			<path
   d="m 67.903,80.692 c 1.63,0.523 2.273,3.062 1.436,5.672 -0.837,2.607 -2.838,4.299 -4.468,3.774 -1.63,-0.523 -2.273,-3.062 -1.436,-5.67 0.837,-2.608 2.838,-4.298 4.468,-3.776 z"
   id="path530"
   style="fill:#ffbaba" />
			<path
   d="m 67.898,80.71 c 1.624,0.521 2.266,3.052 1.431,5.65 -0.834,2.6 -2.828,4.284 -4.452,3.763 -1.625,-0.521 -2.266,-3.052 -1.431,-5.65 0.834,-2.601 2.827,-4.285 4.452,-3.763 z"
   id="path532"
   style="fill:#ffbbbb" />
			<path
   d="m 67.892,80.726 c 1.618,0.52 2.258,3.041 1.426,5.632 -0.83,2.591 -2.817,4.269 -4.437,3.749 -1.62,-0.52 -2.258,-3.041 -1.426,-5.632 0.832,-2.59 2.818,-4.269 4.437,-3.749 z"
   id="path534"
   style="fill:#ffbcbc" />
			<path
   d="m 67.887,80.741 c 1.612,0.518 2.25,3.03 1.42,5.612 -0.827,2.582 -2.808,4.255 -4.421,3.736 -1.613,-0.518 -2.25,-3.03 -1.421,-5.611 0.828,-2.582 2.808,-4.254 4.422,-3.737 z"
   id="path536"
   style="fill:#ffbdbd" />
			<path
   d="m 67.882,80.758 c 1.606,0.516 2.242,3.021 1.416,5.593 -0.825,2.572 -2.799,4.239 -4.407,3.724 -1.607,-0.517 -2.242,-3.021 -1.416,-5.593 0.826,-2.573 2.8,-4.24 4.407,-3.724 z"
   id="path538"
   style="fill:#ffbebe" />
			<path
   d="m 67.877,80.774 c 1.601,0.514 2.234,3.01 1.41,5.573 -0.822,2.563 -2.788,4.225 -4.391,3.711 -1.602,-0.515 -2.234,-3.01 -1.412,-5.573 0.824,-2.564 2.791,-4.225 4.393,-3.711 z"
   id="path540"
   style="fill:#ffbfbf" />
			<path
   d="m 67.872,80.79 c 1.596,0.513 2.227,2.999 1.406,5.555 -0.82,2.555 -2.779,4.21 -4.376,3.696 -1.597,-0.512 -2.226,-2.998 -1.407,-5.553 0.821,-2.555 2.78,-4.211 4.377,-3.698 z"
   id="path542"
   style="fill:#ffc0c0" />
			<path
   d="m 67.866,80.806 c 1.591,0.511 2.219,2.989 1.401,5.535 -0.816,2.546 -2.769,4.195 -4.36,3.685 -1.591,-0.511 -2.219,-2.988 -1.401,-5.534 0.817,-2.547 2.769,-4.197 4.36,-3.686 z"
   id="path544"
   style="fill:#ffc1c1" />
			<path
   d="m 67.861,80.822 c 1.585,0.509 2.211,2.979 1.396,5.516 -0.813,2.537 -2.76,4.181 -4.346,3.671 -1.584,-0.509 -2.21,-2.978 -1.396,-5.514 0.815,-2.537 2.761,-4.182 4.346,-3.673 z"
   id="path546"
   style="fill:#ffc2c2" />
			<path
   d="m 67.857,80.839 c 1.578,0.507 2.202,2.968 1.391,5.496 -0.811,2.527 -2.75,4.166 -4.33,3.658 -1.579,-0.507 -2.203,-2.967 -1.391,-5.495 0.81,-2.527 2.75,-4.166 4.33,-3.659 z"
   id="path548"
   style="fill:#ffc3c3" />
			<path
   d="m 67.851,80.854 c 1.573,0.506 2.195,2.958 1.387,5.477 -0.808,2.519 -2.74,4.151 -4.315,3.646 -1.574,-0.505 -2.195,-2.957 -1.386,-5.476 0.807,-2.52 2.74,-4.151 4.314,-3.647 z"
   id="path550"
   style="fill:#ffc4c4" />
			<path
   d="m 67.845,80.871 c 1.568,0.503 2.188,2.946 1.382,5.457 -0.806,2.51 -2.73,4.136 -4.3,3.632 -1.568,-0.503 -2.187,-2.946 -1.381,-5.456 0.805,-2.51 2.731,-4.137 4.299,-3.633 z"
   id="path552"
   style="fill:#ffc5c5" />
			<path
   d="m 67.84,80.888 c 1.562,0.501 2.18,2.936 1.377,5.438 -0.803,2.501 -2.721,4.121 -4.284,3.619 -1.563,-0.502 -2.18,-2.936 -1.377,-5.437 0.803,-2.501 2.721,-4.122 4.284,-3.62 z"
   id="path554"
   style="fill:#ffc7c7" />
			<path
   d="m 67.835,80.903 c 1.557,0.5 2.172,2.926 1.371,5.418 -0.799,2.492 -2.711,4.107 -4.269,3.606 -1.557,-0.5 -2.171,-2.925 -1.372,-5.417 0.802,-2.491 2.713,-4.107 4.27,-3.607 z"
   id="path556"
   style="fill:#ffc8c8" />
			<path
   d="m 67.831,80.92 c 1.551,0.498 2.163,2.915 1.366,5.398 -0.797,2.482 -2.701,4.092 -4.254,3.594 -1.551,-0.498 -2.164,-2.915 -1.366,-5.398 0.797,-2.483 2.701,-4.092 4.254,-3.594 z"
   id="path558"
   style="fill:#ffc9c9" />
			<path
   d="m 67.825,80.937 c 1.546,0.495 2.156,2.904 1.362,5.379 -0.794,2.474 -2.692,4.077 -4.238,3.58 -1.546,-0.496 -2.156,-2.904 -1.362,-5.378 0.794,-2.475 2.692,-4.079 4.238,-3.581 z"
   id="path560"
   style="fill:#ffcaca" />
			<path
   d="m 67.82,80.952 c 1.54,0.494 2.148,2.895 1.356,5.359 -0.791,2.466 -2.682,4.062 -4.223,3.568 -1.541,-0.495 -2.148,-2.895 -1.357,-5.359 0.792,-2.465 2.683,-4.062 4.224,-3.568 z"
   id="path562"
   style="fill:#ffcbcb" />
			<path
   d="m 67.815,80.969 c 1.534,0.492 2.141,2.883 1.352,5.34 -0.788,2.456 -2.672,4.048 -4.208,3.555 -1.534,-0.493 -2.14,-2.884 -1.352,-5.34 0.788,-2.457 2.672,-4.048 4.208,-3.555 z"
   id="path564"
   style="fill:#ffcccc" />
			<path
   d="m 67.809,80.984 c 1.529,0.491 2.133,2.873 1.347,5.321 -0.785,2.447 -2.662,4.032 -4.191,3.541 -1.529,-0.49 -2.133,-2.872 -1.348,-5.319 0.786,-2.448 2.663,-4.034 4.192,-3.543 z"
   id="path566"
   style="fill:#ffcdcd" />
			<path
   d="m 67.804,81.001 c 1.523,0.489 2.125,2.862 1.342,5.301 -0.782,2.438 -2.652,4.019 -4.177,3.529 -1.523,-0.489 -2.125,-2.862 -1.342,-5.301 0.783,-2.439 2.653,-4.018 4.177,-3.529 z"
   id="path568"
   style="fill:#ffcece" />
			<path
   d="m 67.799,81.017 c 1.518,0.487 2.117,2.853 1.337,5.282 -0.779,2.43 -2.644,4.003 -4.162,3.516 -1.518,-0.487 -2.117,-2.852 -1.337,-5.281 0.78,-2.43 2.643,-4.005 4.162,-3.517 z"
   id="path570"
   style="fill:#ffcfcf" />
			<path
   d="m 67.793,81.033 c 1.513,0.485 2.109,2.842 1.332,5.263 -0.776,2.42 -2.633,3.988 -4.146,3.502 -1.513,-0.485 -2.11,-2.841 -1.333,-5.261 0.778,-2.421 2.635,-3.989 4.147,-3.504 z"
   id="path572"
   style="fill:#ffd0d0" />
			<path
   d="m 67.789,81.049 c 1.506,0.484 2.102,2.832 1.327,5.243 -0.773,2.412 -2.624,3.975 -4.131,3.49 -1.507,-0.483 -2.102,-2.831 -1.328,-5.242 0.774,-2.412 2.624,-3.975 4.132,-3.491 z"
   id="path574"
   style="fill:#ffd1d1" />
			<path
   d="m 67.784,81.065 c 1.5,0.481 2.094,2.821 1.322,5.224 -0.772,2.403 -2.614,3.959 -4.116,3.477 -1.501,-0.481 -2.093,-2.82 -1.322,-5.223 0.771,-2.402 2.614,-3.959 4.116,-3.478 z"
   id="path576"
   style="fill:#ffd2d2" />
			<path
   d="m 67.778,81.082 c 1.495,0.479 2.086,2.81 1.317,5.204 -0.768,2.394 -2.604,3.944 -4.1,3.464 -1.496,-0.48 -2.086,-2.81 -1.318,-5.203 0.769,-2.395 2.605,-3.945 4.101,-3.465 z"
   id="path578"
   style="fill:#ffd3d3" />
			<path
   d="m 67.773,81.098 c 1.489,0.479 2.078,2.8 1.312,5.185 -0.766,2.385 -2.595,3.93 -4.085,3.451 -1.49,-0.479 -2.078,-2.799 -1.312,-5.184 0.766,-2.385 2.594,-3.931 4.085,-3.452 z"
   id="path580"
   style="fill:#ffd4d4" />
			<path
   d="m 67.768,81.114 c 1.483,0.477 2.07,2.789 1.307,5.165 -0.762,2.376 -2.584,3.915 -4.069,3.438 -1.484,-0.477 -2.07,-2.788 -1.308,-5.164 0.762,-2.376 2.585,-3.915 4.07,-3.439 z"
   id="path582"
   style="fill:#ffd5d5" />
			<path
   d="m 67.762,81.131 c 1.479,0.474 2.063,2.778 1.303,5.146 -0.759,2.366 -2.574,3.899 -4.054,3.425 -1.48,-0.474 -2.063,-2.778 -1.303,-5.145 0.76,-2.368 2.575,-3.902 4.054,-3.426 z"
   id="path584"
   style="fill:#ffd6d6" />
			<path
   d="m 67.757,81.146 c 1.473,0.473 2.055,2.769 1.298,5.126 -0.757,2.358 -2.565,3.886 -4.039,3.412 -1.473,-0.473 -2.055,-2.768 -1.298,-5.125 0.757,-2.358 2.565,-3.885 4.039,-3.413 z"
   id="path586"
   style="fill:#ffd7d7" />
			<path
   d="m 67.752,81.163 c 1.467,0.471 2.047,2.758 1.292,5.106 -0.753,2.349 -2.555,3.87 -4.023,3.399 -1.467,-0.472 -2.046,-2.757 -1.292,-5.106 0.753,-2.348 2.555,-3.871 4.023,-3.399 z"
   id="path588"
   style="fill:#ffd8d8" />
			<path
   d="m 67.747,81.179 c 1.462,0.47 2.04,2.747 1.288,5.088 -0.751,2.34 -2.546,3.855 -4.008,3.386 -1.462,-0.47 -2.04,-2.746 -1.289,-5.086 0.752,-2.341 2.546,-3.857 4.009,-3.388 z"
   id="path590"
   style="fill:#ffd9d9" />
			<path
   d="m 67.742,81.195 c 1.456,0.467 2.031,2.736 1.283,5.067 -0.748,2.331 -2.536,3.842 -3.993,3.374 C 63.575,89.169 63,86.9 63.749,84.569 c 0.749,-2.331 2.536,-3.841 3.993,-3.374 z"
   id="path592"
   style="fill:#ffdada" />
			<path
   d="m 67.737,81.211 c 1.45,0.466 2.023,2.727 1.277,5.049 -0.745,2.322 -2.525,3.826 -3.978,3.36 -1.451,-0.466 -2.023,-2.726 -1.278,-5.048 0.745,-2.322 2.527,-3.827 3.979,-3.361 z"
   id="path594"
   style="fill:#ffdbdb" />
			<path
   d="m 67.731,81.228 c 1.445,0.464 2.017,2.716 1.273,5.029 -0.742,2.312 -2.517,3.812 -3.962,3.347 -1.446,-0.464 -2.016,-2.715 -1.273,-5.027 0.742,-2.314 2.516,-3.813 3.962,-3.349 z"
   id="path596"
   style="fill:#ffdcdc" />
			<path
   d="m 67.726,81.244 c 1.439,0.462 2.008,2.705 1.269,5.009 -0.739,2.305 -2.507,3.797 -3.947,3.335 -1.44,-0.463 -2.008,-2.705 -1.269,-5.009 0.74,-2.305 2.507,-3.798 3.947,-3.335 z"
   id="path598"
   style="fill:#ffdddd" />
			<path
   d="m 67.721,81.26 c 1.434,0.46 2,2.695 1.263,4.99 -0.736,2.295 -2.497,3.782 -3.932,3.321 -1.434,-0.461 -2,-2.693 -1.263,-4.989 0.737,-2.295 2.497,-3.782 3.932,-3.322 z"
   id="path600"
   style="fill:#ffdede" />
			<path
   d="m 67.715,81.276 c 1.429,0.458 1.993,2.684 1.259,4.971 -0.733,2.286 -2.487,3.767 -3.916,3.308 -1.429,-0.458 -1.993,-2.683 -1.259,-4.969 0.734,-2.287 2.488,-3.769 3.916,-3.31 z"
   id="path602"
   style="fill:#ffdfdf" />
			<path
   d="m 67.71,81.293 c 1.423,0.456 1.985,2.673 1.253,4.95 -0.73,2.277 -2.478,3.753 -3.9,3.296 -1.423,-0.457 -1.985,-2.673 -1.254,-4.95 0.732,-2.277 2.478,-3.753 3.901,-3.296 z"
   id="path604"
   style="fill:#ffe0e0" />
			<path
   d="m 67.706,81.309 c 1.417,0.455 1.977,2.663 1.248,4.932 -0.728,2.269 -2.468,3.737 -3.886,3.282 -1.417,-0.455 -1.977,-2.662 -1.249,-4.931 0.728,-2.269 2.468,-3.738 3.887,-3.283 z"
   id="path606"
   style="fill:#ffe1e1" />
			<path
   d="m 67.7,81.325 c 1.412,0.452 1.97,2.652 1.244,4.912 -0.726,2.259 -2.458,3.723 -3.87,3.27 -1.412,-0.454 -1.97,-2.652 -1.244,-4.911 0.725,-2.26 2.458,-3.724 3.87,-3.271 z"
   id="path608"
   style="fill:#ffe2e2" />
			<path
   d="m 67.695,81.341 c 1.406,0.451 1.962,2.643 1.238,4.893 -0.722,2.251 -2.448,3.709 -3.854,3.257 -1.407,-0.451 -1.961,-2.642 -1.239,-4.892 0.722,-2.251 2.448,-3.709 3.855,-3.258 z"
   id="path610"
   style="fill:#ffe3e3" />
			<path
   d="m 67.69,81.357 c 1.399,0.449 1.953,2.631 1.233,4.873 -0.719,2.241 -2.438,3.693 -3.84,3.243 -1.4,-0.449 -1.953,-2.63 -1.234,-4.872 0.72,-2.241 2.44,-3.694 3.841,-3.244 z"
   id="path612"
   style="fill:#ffe4e4" />
			<path
   d="m 67.684,81.374 c 1.395,0.447 1.946,2.62 1.229,4.854 -0.717,2.232 -2.43,3.679 -3.824,3.23 -1.396,-0.448 -1.946,-2.62 -1.229,-4.853 0.717,-2.233 2.429,-3.679 3.824,-3.231 z"
   id="path614"
   style="fill:#ffe5e5" />
			<path
   d="m 67.679,81.39 c 1.389,0.445 1.938,2.61 1.224,4.834 -0.713,2.224 -2.419,3.664 -3.809,3.218 -1.39,-0.446 -1.938,-2.609 -1.224,-4.833 0.713,-2.224 2.419,-3.666 3.809,-3.219 z"
   id="path616"
   style="fill:#ffe6e6" />
			<path
   d="m 67.674,81.406 c 1.383,0.443 1.93,2.6 1.219,4.814 -0.711,2.214 -2.409,3.649 -3.794,3.204 -1.384,-0.443 -1.93,-2.599 -1.219,-4.813 0.711,-2.215 2.41,-3.649 3.794,-3.205 z"
   id="path618"
   style="fill:#ffe7e7" />
			<path
   d="m 67.668,81.422 c 1.378,0.442 1.923,2.59 1.214,4.796 -0.707,2.205 -2.399,3.634 -3.778,3.191 -1.378,-0.442 -1.922,-2.589 -1.214,-4.795 0.708,-2.205 2.4,-3.635 3.778,-3.192 z"
   id="path620"
   style="fill:#ffe8e8" />
			<path
   d="m 67.664,81.438 c 1.372,0.44 1.915,2.579 1.209,4.775 -0.705,2.197 -2.39,3.62 -3.763,3.179 -1.373,-0.44 -1.915,-2.578 -1.209,-4.774 0.705,-2.197 2.39,-3.62 3.763,-3.18 z"
   id="path622"
   style="fill:#ffe9e9" />
			<path
   d="m 67.659,81.455 c 1.366,0.438 1.906,2.568 1.204,4.756 -0.702,2.188 -2.381,3.604 -3.748,3.166 -1.367,-0.439 -1.907,-2.568 -1.204,-4.756 0.702,-2.187 2.38,-3.605 3.748,-3.166 z"
   id="path624"
   style="fill:#ffeaea" />
			<path
   d="m 67.653,81.471 c 1.361,0.437 1.899,2.558 1.199,4.737 -0.698,2.179 -2.37,3.59 -3.732,3.152 -1.361,-0.438 -1.898,-2.557 -1.199,-4.736 0.7,-2.179 2.37,-3.591 3.732,-3.153 z"
   id="path626"
   style="fill:#ffebeb" />
			<path
   d="m 67.648,81.487 c 1.355,0.435 1.892,2.547 1.194,4.717 -0.696,2.17 -2.36,3.575 -3.717,3.14 -1.356,-0.435 -1.891,-2.546 -1.195,-4.716 0.697,-2.17 2.362,-3.576 3.718,-3.141 z"
   id="path628"
   style="fill:#ffecec" />
			<path
   d="m 67.643,81.503 c 1.35,0.434 1.884,2.537 1.189,4.698 -0.693,2.161 -2.352,3.561 -3.702,3.127 -1.35,-0.434 -1.883,-2.536 -1.189,-4.697 0.693,-2.161 2.351,-3.562 3.702,-3.128 z"
   id="path630"
   style="fill:#ffeded" />
			<path
   d="m 67.638,81.52 c 1.344,0.431 1.875,2.526 1.184,4.679 -0.69,2.151 -2.341,3.546 -3.687,3.113 -1.345,-0.432 -1.875,-2.525 -1.184,-4.678 0.691,-2.152 2.341,-3.546 3.687,-3.114 z"
   id="path632"
   style="fill:#ffeeee" />
			<path
   d="m 67.632,81.535 c 1.339,0.43 1.868,2.517 1.18,4.659 -0.688,2.144 -2.332,3.531 -3.671,3.102 -1.339,-0.431 -1.868,-2.516 -1.18,-4.658 0.688,-2.144 2.331,-3.533 3.671,-3.103 z"
   id="path634"
   style="fill:#ffefef" />
			<path
   d="m 67.627,81.552 c 1.333,0.428 1.86,2.505 1.175,4.64 -0.686,2.134 -2.322,3.517 -3.656,3.088 -1.333,-0.428 -1.86,-2.505 -1.175,-4.639 0.686,-2.134 2.321,-3.517 3.656,-3.089 z"
   id="path636"
   style="fill:#fff0f0" />
			<path
   d="m 67.623,81.568 c 1.327,0.426 1.852,2.494 1.169,4.62 -0.682,2.125 -2.312,3.501 -3.641,3.074 -1.328,-0.426 -1.852,-2.493 -1.169,-4.619 0.682,-2.124 2.311,-3.501 3.641,-3.075 z"
   id="path638"
   style="fill:#fff1f1" />
			<path
   d="m 67.617,81.584 c 1.322,0.424 1.845,2.484 1.165,4.601 -0.679,2.116 -2.303,3.487 -3.625,3.062 -1.323,-0.425 -1.845,-2.483 -1.165,-4.6 0.678,-2.116 2.301,-3.488 3.625,-3.063 z"
   id="path640"
   style="fill:#fff2f2" />
			<path
   d="m 67.612,81.601 c 1.316,0.422 1.837,2.474 1.159,4.581 -0.676,2.107 -2.292,3.472 -3.609,3.049 -1.317,-0.423 -1.836,-2.473 -1.16,-4.58 0.676,-2.108 2.291,-3.473 3.61,-3.05 z"
   id="path642"
   style="fill:#fff3f3" />
			<path
   d="m 67.607,81.616 c 1.311,0.421 1.828,2.464 1.154,4.562 -0.673,2.098 -2.283,3.457 -3.595,3.036 -1.311,-0.421 -1.829,-2.463 -1.155,-4.562 0.674,-2.096 2.283,-3.457 3.596,-3.036 z"
   id="path644"
   style="fill:#fff4f4" />
			<path
   d="m 67.601,81.633 c 1.306,0.419 1.821,2.453 1.15,4.542 -0.671,2.09 -2.273,3.442 -3.579,3.023 -1.306,-0.419 -1.821,-2.452 -1.15,-4.541 0.671,-2.09 2.272,-3.443 3.579,-3.024 z"
   id="path646"
   style="fill:#fff5f5" />
			<path
   d="m 67.596,81.649 c 1.299,0.416 1.813,2.442 1.145,4.522 -0.667,2.08 -2.263,3.428 -3.563,3.01 -1.3,-0.417 -1.813,-2.441 -1.146,-4.521 0.668,-2.08 2.263,-3.429 3.564,-3.011 z"
   id="path648"
   style="fill:#fff6f6" />
			<path
   d="m 67.591,81.665 c 1.293,0.415 1.805,2.432 1.14,4.504 -0.665,2.071 -2.254,3.413 -3.549,2.997 -1.294,-0.416 -1.805,-2.431 -1.14,-4.503 0.666,-2.071 2.253,-3.413 3.549,-2.998 z"
   id="path650"
   style="fill:#fff7f7" />
			<path
   d="m 67.585,81.682 c 1.288,0.413 1.798,2.421 1.136,4.483 -0.662,2.062 -2.244,3.398 -3.533,2.984 -1.29,-0.414 -1.798,-2.42 -1.136,-4.482 0.662,-2.062 2.243,-3.399 3.533,-2.985 z"
   id="path652"
   style="fill:#fff8f8" />
			<path
   d="m 67.581,81.697 c 1.282,0.412 1.79,2.411 1.13,4.465 -0.658,2.054 -2.234,3.384 -3.518,2.972 -1.284,-0.412 -1.79,-2.41 -1.13,-4.464 0.658,-2.054 2.233,-3.385 3.518,-2.973 z"
   id="path654"
   style="fill:#fff9f9" />
			<path
   d="m 67.576,81.714 c 1.276,0.409 1.782,2.4 1.125,4.445 -0.656,2.044 -2.225,3.368 -3.503,2.958 -1.277,-0.41 -1.782,-2.399 -1.125,-4.444 0.656,-2.044 2.223,-3.369 3.503,-2.959 z"
   id="path656"
   style="fill:#fffafa" />
			<path
   d="m 67.57,81.73 c 1.271,0.407 1.774,2.39 1.12,4.425 -0.652,2.036 -2.214,3.354 -3.486,2.945 -1.272,-0.408 -1.774,-2.389 -1.121,-4.424 0.653,-2.035 2.213,-3.355 3.487,-2.946 z"
   id="path658"
   style="fill:#fffbfb" />
			<path
   d="m 67.565,81.746 c 1.266,0.406 1.767,2.379 1.115,4.406 -0.65,2.026 -2.205,3.339 -3.472,2.933 -1.267,-0.407 -1.767,-2.378 -1.116,-4.405 0.652,-2.027 2.205,-3.34 3.473,-2.934 z"
   id="path660"
   style="fill:#fffcfc" />
			<path
   d="m 67.56,81.763 c 1.26,0.404 1.759,2.368 1.11,4.387 -0.647,2.018 -2.195,3.324 -3.457,2.919 -1.261,-0.404 -1.758,-2.367 -1.11,-4.386 0.647,-2.018 2.194,-3.326 3.457,-2.92 z"
   id="path662"
   style="fill:#fffdfd" />
			<path
   d="m 67.554,81.778 c 1.255,0.402 1.751,2.358 1.105,4.367 -0.645,2.009 -2.186,3.31 -3.44,2.907 -1.256,-0.403 -1.751,-2.357 -1.106,-4.366 0.645,-2.008 2.185,-3.31 3.441,-2.908 z"
   id="path664"
   style="fill:#fffefe" />
			<path
   d="m 64.123,84.689 c 0.642,-2 2.175,-3.296 3.426,-2.895 1.249,0.4 1.743,2.348 1.101,4.348 -0.642,2 -2.176,3.295 -3.426,2.894 -1.25,-0.401 -1.743,-2.347 -1.101,-4.347 z"
   id="path666"
   style="fill:#ffffff" />
		</g>
	</g>
</svg>