<?xml version="1.0" encoding="UTF-8" standalone="no"?>
<svg xmlns:inkscape="http://www.inkscape.org/namespaces/inkscape" xmlns:rdf="http://www.w3.org/1999/02/22-rdf-syntax-ns#" xmlns="http://www.w3.org/2000/svg" xmlns:sodipodi="http://inkscape.sourceforge.net/DTD/sodipodi-0.dtd" xmlns:ns1="http://sozi.baierouge.fr" xmlns:cc="http://web.resource.org/cc/" xmlns:xlink="http://www.w3.org/1999/xlink" xmlns:dc="http://purl.org/dc/elements/1.1/" id="svg1" viewBox="0 0 60 60" sodipodi:version="0.32" _SVGFile__filename="oldscale/apps/realplayer.svg" version="1.0" inkscape:version="0.41" y="0" x="0" sodipodi:docname="realplayer.svgz" sodipodi:docbase="/home/danny/work/icons/primary/scalable/apps">
  <sodipodi:namedview id="base" bordercolor="#666666" inkscape:window-x="0" inkscape:window-y="0" pagecolor="#ffffff" inkscape:zoom="7.9637048" inkscape:pageshadow="2" borderopacity="1.0" inkscape:current-layer="svg1" inkscape:cx="52.760877" inkscape:cy="20.921706" inkscape:window-width="1020" inkscape:pageopacity="0.0" inkscape:window-height="691"/>
  <path id="path1111" style="stroke-linejoin:round;stroke:#ffffff;stroke-width:7.5;fill:none" d="m6.3947 4.3754c-1.119 0-2.0199 0.9073-2.0199 2.0343v47.18c0 1.127 0.9009 2.035 2.0199 2.035h47.21c1.119 0 2.02-0.908 2.02-2.035v-47.18c0-1.1273-0.901-2.0346-2.02-2.0346h-47.21z"/>
  <g id="g1100" transform="matrix(.92406 0 0 .93064 2.1326 1.8772)">
    <rect id="rect945" style="fill-rule:evenodd;stroke:#000000;stroke-width:2.0219;fill:#000000" rx="2.1859" height="55.069" width="55.462" y="2.6844" x="2.4265"/>
    <path id="path1022" style="fill:#476cb3;fill-rule:evenodd" d="m57.583 51.183h-49.126l-3.5985-48.406 52.544 0.0002 0.181 48.406z"/>
    <path id="path1021" d="m34.094 8.1562c-14.103 0-25.563 6.8198-25.563 15.219 0.0002 8.177 10.884 14.808 24.469 15.156l-1.156 11.938s10.809-9.416 16.031-14.313c4.572-1.754 7.983-4.402 9.937-7.468v-10.844c-3.726-5.652-12.911-9.6878-23.718-9.6878z" style="stroke-linejoin:round;fill-rule:evenodd;stroke:#000000;stroke-linecap:round;stroke-width:2.0219;fill:#000000" transform="translate(0 -1.2596)"/>
    <path id="path840" style="fill:#ffffff" transform="matrix(1.9135 0 -.47649 1.9135 -11.936 -8.8574)" d="m35.282 19.498v-7.436c0-0.281 0.088-0.515 0.264-0.703 0.176-0.187 0.398-0.281 0.668-0.281 0.273 0 0.498 0.094 0.674 0.281 0.176 0.188 0.264 0.422 0.264 0.703v7.436c0 0.277-0.088 0.512-0.264 0.703-0.172 0.187-0.397 0.281-0.674 0.281-0.273 0-0.498-0.094-0.674-0.281-0.172-0.191-0.258-0.426-0.258-0.703zm-0.797-4.629v4.629c0 0.281-0.087 0.515-0.263 0.703-0.176 0.187-0.401 0.281-0.674 0.281-0.215 0-0.396-0.058-0.545-0.176-0.144-0.117-0.254-0.257-0.328-0.421-0.211 0.257-0.445 0.441-0.703 0.55-0.254 0.114-0.557 0.17-0.908 0.17-0.536 0-1.024-0.15-1.465-0.451-0.438-0.305-0.785-0.719-1.043-1.242-0.254-0.527-0.381-1.104-0.381-1.729 0-0.617 0.127-1.187 0.381-1.711 0.258-0.527 0.607-0.941 1.049-1.242 0.441-0.304 0.927-0.457 1.459-0.457 0.355 0 0.658 0.055 0.908 0.164 0.254 0.11 0.488 0.295 0.703 0.557 0.07-0.16 0.18-0.299 0.328-0.416 0.149-0.121 0.33-0.182 0.545-0.182 0.273 0 0.498 0.094 0.674 0.282 0.176 0.183 0.263 0.414 0.263 0.691zm-3.158 0.721c-0.398 0-0.713 0.152-0.943 0.457-0.227 0.304-0.34 0.683-0.34 1.136 0 0.289 0.051 0.559 0.152 0.809 0.102 0.246 0.248 0.441 0.44 0.586 0.195 0.144 0.426 0.217 0.691 0.217 0.403 0 0.717-0.153 0.944-0.457 0.226-0.309 0.339-0.694 0.339-1.155 0-0.457-0.113-0.836-0.339-1.136-0.227-0.305-0.541-0.457-0.944-0.457zm-4.429 2.22h-3.381c0 0.254 0.117 0.494 0.351 0.721 0.235 0.223 0.617 0.334 1.149 0.334 0.273 0 0.5-0.035 0.679-0.105 0.18-0.071 0.401-0.17 0.663-0.299 0.265-0.133 0.457-0.199 0.574-0.199 0.219 0 0.404 0.076 0.556 0.228 0.153 0.152 0.229 0.35 0.229 0.592 0 0.289-0.145 0.553-0.434 0.791-0.285 0.234-0.654 0.414-1.107 0.539-0.453 0.129-0.92 0.193-1.401 0.193-0.496 0-0.945-0.086-1.347-0.258-0.399-0.171-0.744-0.414-1.037-0.726-0.289-0.317-0.51-0.684-0.662-1.102-0.153-0.422-0.229-0.867-0.229-1.336 0-0.441 0.08-0.871 0.24-1.289 0.161-0.418 0.387-0.785 0.68-1.101 0.293-0.317 0.643-0.565 1.049-0.744 0.406-0.184 0.842-0.276 1.306-0.276 0.598 0 1.127 0.151 1.588 0.451 0.461 0.301 0.817 0.696 1.067 1.184 0.254 0.488 0.381 1.012 0.381 1.57 0 0.321-0.073 0.539-0.217 0.657-0.145 0.117-0.377 0.175-0.697 0.175zm-3.381-1.3h2.42c0-0.149-0.053-0.313-0.159-0.493-0.105-0.183-0.25-0.336-0.433-0.457-0.18-0.125-0.385-0.187-0.615-0.187-0.231 0-0.44 0.062-0.627 0.187-0.184 0.125-0.328 0.278-0.434 0.457-0.101 0.176-0.152 0.34-0.152 0.493zm-5.989 2.988v-4.629c0-0.277 0.086-0.508 0.258-0.691 0.176-0.188 0.401-0.282 0.674-0.282 0.227 0 0.422 0.061 0.586 0.182 0.168 0.117 0.285 0.256 0.352 0.416 0.402-0.481 0.834-0.721 1.295-0.721 0.253 0 0.476 0.092 0.667 0.276 0.196 0.179 0.293 0.412 0.293 0.697 0 0.293-0.091 0.506-0.275 0.639-0.18 0.132-0.478 0.259-0.896 0.38-0.426 0.122-0.713 0.274-0.862 0.457-0.148 0.18-0.222 0.504-0.222 0.973v2.303c0 0.277-0.088 0.512-0.264 0.703-0.172 0.187-0.397 0.281-0.674 0.281-0.273 0-0.498-0.094-0.674-0.281-0.172-0.191-0.258-0.426-0.258-0.703z"/>
    <path id="rect1026" style="stroke-linejoin:round;stroke:#000000;stroke-width:2.6959;fill:none" d="m4.6124 2.6844c-1.211 0-2.1859 0.975-2.1859 2.186v50.698c0 1.211 0.9749 2.186 2.1859 2.186h51.091c1.211 0 2.186-0.975 2.186-2.186v-50.698c0-1.2106-0.975-2.1856-2.186-2.1856h-51.091z"/>
  </g>
  <metadata>
    <rdf:RDF>
      <cc:Work>
        <dc:format>image/svg+xml</dc:format>
        <dc:type rdf:resource="http://purl.org/dc/dcmitype/StillImage"/>
        <cc:license rdf:resource="http://creativecommons.org/licenses/publicdomain/"/>
        <dc:publisher>
          <cc:Agent rdf:about="http://openclipart.org/">
            <dc:title>Openclipart</dc:title>
          </cc:Agent>
        </dc:publisher>
      </cc:Work>
      <cc:License rdf:about="http://creativecommons.org/licenses/publicdomain/">
        <cc:permits rdf:resource="http://creativecommons.org/ns#Reproduction"/>
        <cc:permits rdf:resource="http://creativecommons.org/ns#Distribution"/>
        <cc:permits rdf:resource="http://creativecommons.org/ns#DerivativeWorks"/>
      </cc:License>
    </rdf:RDF>
  </metadata>
</svg>