<?xml version="1.0" encoding="UTF-8" standalone="no"?>
<!-- Created with Inkscape (http://www.inkscape.org/) -->

<svg
   xmlns:svg="http://www.w3.org/2000/svg"
   xmlns="http://www.w3.org/2000/svg"
   xmlns:xlink="http://www.w3.org/1999/xlink"
   version="1.1"
   width="123"
   height="127"
   id="svg2">
  <defs
     id="defs236">
    <linearGradient
       x1="46.34"
       y1="42.790001"
       x2="107.4"
       y2="42.790001"
       id="gradient0"
       gradientUnits="userSpaceOnUse">
      <stop
         id="stop13"
         style="stop-color:#ffffff;stop-opacity:1"
         offset="0" />
      <stop
         id="stop15"
         style="stop-color:#f1c779;stop-opacity:1"
         offset="1" />
    </linearGradient>
    <linearGradient
       x1="76.18"
       y1="44.380001"
       x2="79.260002"
       y2="30.15"
       id="gradient1"
       gradientUnits="userSpaceOnUse">
      <stop
         id="stop20"
         style="stop-color:#a68b54;stop-opacity:1"
         offset="0" />
      <stop
         id="stop22"
         style="stop-color:#f1c779;stop-opacity:1"
         offset="1" />
    </linearGradient>
    <linearGradient
       x1="72.400002"
       y1="21.23"
       x2="68.379997"
       y2="47.09"
       id="gradient2"
       gradientUnits="userSpaceOnUse">
      <stop
         id="stop27"
         style="stop-color:#ffffff;stop-opacity:1"
         offset="0" />
      <stop
         id="stop29"
         style="stop-color:#eaeb49;stop-opacity:1"
         offset="0.648" />
      <stop
         id="stop31"
         style="stop-color:#e8e847;stop-opacity:1"
         offset="0.80690002" />
      <stop
         id="stop33"
         style="stop-color:#e0de42;stop-opacity:1"
         offset="0.92540002" />
      <stop
         id="stop35"
         style="stop-color:#d7d43d;stop-opacity:1"
         offset="1" />
    </linearGradient>
    <linearGradient
       x1="32.310001"
       y1="24.110001"
       x2="70.730003"
       y2="55.09"
       id="gradient3"
       gradientUnits="userSpaceOnUse">
      <stop
         id="stop42"
         style="stop-color:#ffffff;stop-opacity:1"
         offset="0" />
      <stop
         id="stop44"
         style="stop-color:#f1c779;stop-opacity:1"
         offset="1" />
    </linearGradient>
    <radialGradient
       cx="0"
       cy="0"
       r="200"
       id="gradient4"
       gradientUnits="userSpaceOnUse"
       gradientTransform="matrix(0.2004,0,0,0.2051,49.9412,79.0881)">
      <stop
         id="stop55"
         style="stop-color:#ffffff;stop-opacity:1"
         offset="0.14040001" />
      <stop
         id="stop57"
         style="stop-color:#fbfdfe;stop-opacity:1"
         offset="0.22759999" />
      <stop
         id="stop59"
         style="stop-color:#eef8f9;stop-opacity:1"
         offset="0.32080001" />
      <stop
         id="stop61"
         style="stop-color:#d8f0f2;stop-opacity:1"
         offset="0.41690001" />
      <stop
         id="stop63"
         style="stop-color:#bae4e7;stop-opacity:1"
         offset="0.51490003" />
      <stop
         id="stop65"
         style="stop-color:#94d5da;stop-opacity:1"
         offset="0.6146" />
      <stop
         id="stop67"
         style="stop-color:#65c3ca;stop-opacity:1"
         offset="0.71390003" />
      <stop
         id="stop69"
         style="stop-color:#48b8c0;stop-opacity:1"
         offset="0.76959997" />
      <stop
         id="stop71"
         style="stop-color:#245c60;stop-opacity:1"
         offset="1" />
    </radialGradient>
    <radialGradient
       cx="0"
       cy="0"
       r="200"
       id="gradient5"
       gradientUnits="userSpaceOnUse"
       gradientTransform="matrix(0.2179,0,0,0.2229,34.2361,45.6661)">
      <stop
         id="stop112"
         style="stop-color:#ffffff;stop-opacity:1"
         offset="0.0055" />
      <stop
         id="stop114"
         style="stop-color:#f4f4f4;stop-opacity:1"
         offset="0.0548" />
      <stop
         id="stop116"
         style="stop-color:#d8d8d8;stop-opacity:1"
         offset="0.14030001" />
      <stop
         id="stop118"
         style="stop-color:#b8b8b8;stop-opacity:1"
         offset="0.219" />
      <stop
         id="stop120"
         style="stop-color:#9e9e9e;stop-opacity:1"
         offset="0.4438" />
      <stop
         id="stop122"
         style="stop-color:#616161;stop-opacity:1"
         offset="1" />
    </radialGradient>
    <linearGradient
       x1="18.51"
       y1="87.209999"
       x2="26.200001"
       y2="91.470001"
       id="gradient6"
       gradientUnits="userSpaceOnUse">
      <stop
         id="stop129"
         style="stop-color:#ffffff;stop-opacity:1"
         offset="0.0055" />
      <stop
         id="stop131"
         style="stop-color:#f4f4f4;stop-opacity:1"
         offset="0.093" />
      <stop
         id="stop133"
         style="stop-color:#d7d7d7;stop-opacity:1"
         offset="0.2457" />
      <stop
         id="stop135"
         style="stop-color:#a8a8a8;stop-opacity:1"
         offset="0.4454" />
      <stop
         id="stop137"
         style="stop-color:#686868;stop-opacity:1"
         offset="0.6825" />
      <stop
         id="stop139"
         style="stop-color:#616161;stop-opacity:1"
         offset="0.70779997" />
      <stop
         id="stop141"
         style="stop-color:#000000;stop-opacity:1"
         offset="1" />
    </linearGradient>
    <linearGradient
       x1="45.110001"
       y1="46.27"
       x2="40.549999"
       y2="60.830002"
       id="gradient7"
       gradientUnits="userSpaceOnUse">
      <stop
         id="stop146"
         style="stop-color:#ffffff;stop-opacity:1"
         offset="0.0055" />
      <stop
         id="stop148"
         style="stop-color:#f4f4f4;stop-opacity:1"
         offset="0.093" />
      <stop
         id="stop150"
         style="stop-color:#d7d7d7;stop-opacity:1"
         offset="0.2457" />
      <stop
         id="stop152"
         style="stop-color:#a8a8a8;stop-opacity:1"
         offset="0.4454" />
      <stop
         id="stop154"
         style="stop-color:#686868;stop-opacity:1"
         offset="0.6825" />
      <stop
         id="stop156"
         style="stop-color:#616161;stop-opacity:1"
         offset="0.70779997" />
      <stop
         id="stop158"
         style="stop-color:#000000;stop-opacity:1"
         offset="1" />
    </linearGradient>
    <linearGradient
       x1="49.009998"
       y1="52.73"
       x2="38.709999"
       y2="53.529999"
       id="gradient8"
       gradientUnits="userSpaceOnUse">
      <stop
         id="stop163"
         style="stop-color:#ffffff;stop-opacity:1"
         offset="0" />
      <stop
         id="stop165"
         style="stop-color:#88ccd2;stop-opacity:1"
         offset="0.58420002" />
    </linearGradient>
    <linearGradient
       x1="28.799999"
       y1="89.379997"
       x2="20.780001"
       y2="89.779999"
       id="gradient9"
       gradientUnits="userSpaceOnUse">
      <stop
         id="stop172"
         style="stop-color:#ffffff;stop-opacity:1"
         offset="0" />
      <stop
         id="stop174"
         style="stop-color:#88ccd2;stop-opacity:1"
         offset="0.58420002" />
    </linearGradient>
    <linearGradient
       x1="28.799999"
       y1="89.379997"
       x2="20.780001"
       y2="89.779999"
       id="linearGradient3129"
       xlink:href="#gradient9"
       gradientUnits="userSpaceOnUse" />
    <linearGradient
       x1="49.009998"
       y1="52.73"
       x2="38.709999"
       y2="53.529999"
       id="linearGradient3133"
       xlink:href="#gradient8"
       gradientUnits="userSpaceOnUse" />
    <linearGradient
       x1="45.110001"
       y1="46.27"
       x2="40.549999"
       y2="60.830002"
       id="linearGradient3136"
       xlink:href="#gradient7"
       gradientUnits="userSpaceOnUse" />
    <linearGradient
       x1="18.51"
       y1="87.209999"
       x2="26.200001"
       y2="91.470001"
       id="linearGradient3139"
       xlink:href="#gradient6"
       gradientUnits="userSpaceOnUse" />
    <radialGradient
       cx="0"
       cy="0"
       r="200"
       id="radialGradient3143"
       xlink:href="#gradient5"
       gradientUnits="userSpaceOnUse"
       gradientTransform="matrix(0.2179,0,0,0.2229,34.2361,45.6661)" />
    <radialGradient
       cx="0"
       cy="0"
       r="200"
       id="radialGradient3164"
       xlink:href="#gradient4"
       gradientUnits="userSpaceOnUse"
       gradientTransform="matrix(0.2004,0,0,0.2051,49.9412,79.0881)" />
  </defs>
  <g
     transform="matrix(1.4327844,0,0,1.4327844,-9.7702466,-48.719761)"
     id="g3185">
    <path
       d="m 8.4,112.54 c 0,2.88 18.67,5.22 41.7,5.22 23.03,0 41.71,-2.33 41.71,-5.22 0,-2.88 -18.67,-5.22 -41.71,-5.22 -23.03,0 -41.7,2.33 -41.7,5.22 z"
       id="path50"
       style="fill:#000000;fill-opacity:0.2" />
    <path
       d="m 31.96,86.74 c 0,-17.07 13.52,-30.91 30.21,-30.91 16.68,0 30.21,13.84 30.21,30.91 0,17.07 -13.52,30.91 -30.21,30.91 -16.68,0 -30.21,-13.84 -30.21,-30.91 z"
       id="path52"
       style="fill:#000000" />
    <path
       d="m 34.33,86.74 c 0,-15.73 12.46,-28.48 27.83,-28.48 15.37,0 27.84,12.75 27.84,28.48 0,15.73 -12.46,28.48 -27.84,28.48 -15.37,0 -27.83,-12.75 -27.83,-28.48 z"
       id="path73"
       style="fill:url(#radialGradient3164)" />
    <path
       d="m 71.09,113.9 c 0.34,-1.48 0.95,-5.02 -0.4,-5.28 -1.35,-0.26 -3.91,-0.43 -4.68,-1.3 -0.76,-0.87 -1.53,-0.87 -2.04,-1.22 -0.5,-0.34 -1.27,-1.48 -0.5,-2.52 0.76,-1.04 0.59,-2.08 -0.42,-2.69 -1.02,-0.6 -1.61,0.17 -2.46,0.26 -0.85,0.08 -2.89,-1.3 -4.42,-1.3 -1.53,0 -2.97,0 -3.23,-0.87 -0.93,0.6 -6.55,-0.43 -6.29,-2.17 -0.59,-0.6 -2.8,-3.13 -3.4,-4 0.08,0.69 0.59,2.17 1.1,2.61 -1.44,-1.04 -2.63,-2.87 -2.72,-4.26 -0.68,-0.6 -2.38,-3.82 -2.12,-4.79 0.25,-0.95 0.51,-4.35 1.02,-4.44 0.5,-0.08 0.08,-0.52 -0.17,-1.04 -0.25,-0.52 -0.42,-1.39 -0.42,-1.82 0,-0.43 0.42,-1.57 0,-1.65 -0.42,-0.08 -1.36,-0.69 -0.76,-0.69 0.59,0 1.1,0.34 1.1,-0.26 0,-0.6 -0.33,-2.26 -0.59,-2.52 -0.25,-0.26 -0.17,-0.17 -0.67,0.17 -0.51,0.34 -1.02,0.44 -1.1,0.17 -0.08,-0.26 0.08,-0.17 0.51,-0.78 0.42,-0.6 1.44,-2.34 1.78,-2.96 0.33,-0.6 0.25,0.17 1.36,-1.13 1.1,-1.3 1.7,-2.52 1.7,-1.3 0,1.22 0.25,1.74 0.93,1.74 0.68,0 0.76,-0.25 0.85,0.26 0.08,0.52 0.17,1.13 0.85,0.87 0.67,-0.25 1.27,0.08 1.61,-0.25 0.34,-0.34 -0.25,-0.69 0.17,-0.78 0.42,-0.08 0.59,0.69 0.76,0.08 0.17,-0.6 -0.08,-1.56 0.51,-0.95 0.59,0.6 0.76,0.69 1.18,0.43 0.42,-0.25 1.78,-0.34 0.59,0.43 -1.18,0.78 -1.27,0.69 -1.44,1.48 -0.17,0.78 -0.25,0.52 -0.67,1.39 -0.42,0.87 -1.27,1.74 -0.17,2.35 1.1,0.6 2.55,0.78 2.55,0.78 0,0 1.19,-0.96 1.02,0.08 -0.17,1.04 -0.25,1.65 0.34,1.48 0.59,-0.17 1.61,-0.08 0.93,-0.87 -0.68,-0.78 -0.59,-0.25 -0.34,-1.39 0.25,-1.13 0.08,-1.04 -0.25,-1.57 -0.33,-0.52 -1.18,-2.17 -0.33,-2.26 0.85,-0.08 1.53,-0.34 1.78,0.08 0.25,0.43 1.1,1.21 1.44,0.78 0.33,-0.43 -0.08,-1.65 1.18,-0.78 1.27,0.87 -0.08,1.3 1.27,1.3 1.36,0 2.63,-0.09 2.63,0.25 0,0.34 -0.93,2 -1.61,2.26 -0.67,0.25 -0.93,-0.34 -1.19,0.43 -0.25,0.78 -1.1,2.44 -0.59,1.82 0.5,-0.6 1.35,-1.91 1.44,-1.12 0.08,0.78 0,1.39 0.85,1.3 0.85,-0.09 2.12,-0.87 1.02,0.25 -1.1,1.13 -1.19,1.91 -1.1,1.13 0.08,-0.78 0.08,-1.22 -0.59,-0.17 -0.67,1.04 -0.85,1.82 -0.5,1.82 0.33,0 0.33,0.26 -0.08,0.52 -0.42,0.25 -0.67,1.47 -0.93,2.17 -0.25,0.69 -0.76,1.47 -0.25,1.57 0.5,0.08 0.33,1.39 0.33,1.39 0,0 -2.29,2.61 -1.44,3.39 0.85,0.78 1.87,2 1.44,2.26 -0.42,0.25 -1.44,-1.39 -1.7,-1.65 -0.25,-0.26 -2.8,-0.6 -2.97,-0.17 -0.17,0.43 0.42,0.78 0,0.87 -0.42,0.08 -1.95,0.43 -2.55,0.78 -0.59,0.34 -0.76,1.47 -0.67,1.91 0.08,0.43 0.5,4.18 2.46,3.74 1.95,-0.43 2.12,-0.61 1.78,-1.48 l 1.53,-0.6 c 0,0 -0.34,2.52 0.42,2.61 0.76,0.08 1.87,-0.17 2.12,-0.17 0.25,0 0.85,2.26 1.35,2.44 0.51,0.17 1.95,0 2.81,-0.6 0.85,-0.61 1.27,0.78 1.36,0.08 0.08,-0.69 1.01,-2.17 1.86,-2.52 0,0.6 0,1.22 0.51,1.04 0.5,-0.17 0.17,-1.3 0.17,-1.3 0,0 3.4,0.17 3.4,-0.87 0,0 1.87,-0.52 2.29,0.08 0.25,-0.6 0.68,-0.08 1.36,0.08 0.68,0.17 1.1,-0.43 2.04,-0.87 0.93,-0.43 2.97,-0.08 3.23,0.6 0.25,0.69 0.76,1.39 1.1,0.17 l 1.95,-0.52 c 0,0 1.1,-1.12 1.87,-1.21 0.76,-0.09 1.53,-0.61 1.61,-0.09 0.08,0.52 -0.25,2.61 -0.76,3.04 -0.5,0.43 -0.25,0.78 -0.08,1.22 0.17,0.43 -0.25,2.79 -0.59,3.22 -0.33,0.43 0,0.52 -0.68,1.13 -0.68,0.6 -1.02,1.47 -1.27,2 -0.25,0.52 -0.67,2 -1.35,2.61 -0.67,0.61 -1.1,1.3 -1.1,1.3 -0.93,0.78 -3.4,3.87 -7.85,4.94 z"
       id="path75"
       style="fill:#259931" />
    <path
       d="m 57.15,93.88 c 0.51,-0.25 0.59,-0.34 1.1,-0.34 0.5,0 2.12,0.09 2.63,0.09 0.51,0 0.67,0.52 0.17,0.6 -0.51,0.08 -1.36,-0.26 -1.95,-0.26 -0.59,0 -1.61,0.34 -1.95,-0.08 z"
       id="path77"
       style="fill:#259931" />
    <path
       d="m 62.94,93.63 c 0.25,-0.43 1.36,-0.69 1.87,-0.43 0.5,0.26 -1.1,1.22 -1.53,1.13 -0.42,-0.08 -0.34,-0.69 -0.34,-0.69 z"
       id="path79"
       style="fill:#259931" />
    <path
       d="m 61.06,74.28 c 0,0 0.25,0.78 0.08,1.13 -0.17,0.34 0.76,-0.17 1.44,-0.17 0.67,0 0.25,-0.26 0.08,-0.78 -0.17,-0.52 -1.1,-0.17 -1.61,-0.17 z"
       id="path81"
       style="fill:#259931" />
    <path
       d="m 52.12,64.96 c 0.5,-0.17 0.59,-0.6 1.7,0 1.1,0.61 1.19,0 2.12,0.95 0.93,0.95 2.55,2.61 4.59,1.82 -0.42,-1.04 -1.1,-1.3 -1.02,-2.26 0.08,-0.95 0.25,-2.35 0.25,-2.35 l -0.85,0.34 -0.08,-0.69 c 0,0 -2.98,-0.6 -3.57,-0.52 -0.59,0.08 -0.59,-0.34 -1.01,-0.34 -0.42,0 -0.51,0.69 -0.85,0.69 -0.33,0 -1.44,-0.52 -1.27,0.17 0.17,0.69 0.42,0.87 0.08,1.3 -0.34,0.43 -0.08,0.87 -0.08,0.87 z"
       id="path83"
       style="fill:#259931" />
    <path
       d="m 50.25,67.57 c 0.34,-0.52 0.67,-0.86 0.76,-0.52 0.08,0.34 0.17,0.69 1.1,0.43 0.93,-0.26 1.19,-0.09 1.53,0.17 0.34,0.26 1.19,0.34 1.19,0.78 0,0.43 -0.34,0.69 -0.67,0.34 -0.34,-0.34 -0.85,-0.87 -0.85,-0.43 0,0.43 0.25,1.3 1.1,1.22 0.85,-0.08 1.11,0.43 0.42,0.43 -0.67,0 -0.51,0.26 -0.93,0.34 -0.42,0.08 -0.85,-0.52 -1.27,-0.34 0,0 0.17,-1.22 -0.33,-1.3 -0.51,-0.08 -0.68,0.17 -0.68,0.17 0,0 0.08,-0.43 -0.34,-0.6 -0.42,-0.17 -0.59,0.26 -1.1,0.26 -0.5,0 -0.93,-1.48 0.09,-0.96 z"
       id="path85"
       style="fill:#259931" />
    <path
       d="m 45.23,64 c 0,0 0.08,0.52 0.34,0.43 0.25,-0.08 1.27,-0.87 1.95,-1.39 0.67,-0.52 1.27,-1.04 1.18,-1.3 -0.08,-0.26 -2.72,1.48 -3.48,2.26 z"
       id="path87"
       style="fill:#259931" />
    <path
       d="m 44.21,64.87 c 0.4,-0.14 -0.25,0.69 -0.76,1.3 -0.51,0.6 -0.85,0.6 -1.36,1.22 -0.5,0.6 -1.35,1.3 -1.7,1.65 -0.34,0.34 -1.02,0.87 -1.02,0.87 0,0 4.08,-4.79 4.85,-5.05 z"
       id="path89"
       style="fill:#259931" />
    <path
       d="m 60.72,58.6 c -0.08,0.52 -0.5,0.78 0.17,0.78 0.67,0 3.4,0.08 4.08,0.78 0.68,0.69 3.06,0.34 3.66,-0.17 0.59,-0.52 -0.25,-0.69 -1.1,-0.6 -0.85,0.08 -1.61,0.08 -2.12,-0.17 -0.51,-0.26 -1.1,-0.43 -1.1,-0.78 -1.1,-0.08 -3.06,-0.08 -3.57,0.17 z"
       id="path91"
       style="fill:#259931" />
    <path
       d="m 69.41,59.13 c 0,0 1.36,1.04 1.02,1.13 -0.34,0.08 -1.18,0.08 -1.18,0.08 0,0 0.85,0.08 1.27,0.43 0.42,0.34 0.25,0.96 1.19,1.22 0.93,0.26 1.19,1.47 1.61,1.82 0.42,0.34 0.08,-0.43 0.76,-0.25 0.67,0.17 2.46,1.3 1.95,1.47 -0.5,0.17 -0.67,0.87 0.26,1.39 0.93,0.52 1.95,0.95 2.21,1.56 0.42,-0.69 0.59,-1.82 -0.17,-2.26 -0.76,-0.43 -1.78,-0.87 -1.95,-1.56 -0.17,-0.69 -0.25,-1.3 -0.17,-1.83 C 74.51,60.86 70,59.2 69.4,59.11 z"
       id="path93"
       style="fill:#259931" />
    <path
       d="m 79.45,64.44 c 0.17,0.69 0.67,3.13 0.17,3.48 -0.5,0.34 0,0.52 0.33,0.87 0.34,0.34 0.42,0.17 0.93,0.95 0.5,0.78 0.93,1.39 0.93,2.44 0,1.04 0.68,2 1.02,2.61 0.34,0.61 2.46,2.26 2.46,3.13 0,0.87 -0.08,1.74 0.85,1.91 0.93,0.17 1.35,0.26 1.61,0.69 0.25,0.43 1.2,0.55 1.62,0.64 C 88.86,77.42 86.47,70.15 79.4,64.4 z"
       id="path95"
       style="fill:#259931" />
    <path
       d="m 62.34,63.05 v 0.34 l 1.1,0.17 V 62.69 L 62,62.44 l 0.33,0.6 z"
       id="path97"
       style="fill:#259931" />
    <path
       d="m 68.05,61.91 c -0.42,0 -0.08,0.43 0.42,0.52 0.51,0.08 0.93,0 1.61,0.08 0.67,0.09 1.19,0.17 1.35,0.52 0.17,0.34 0.59,0.34 0.59,0 0,-0.34 0.08,-0.78 -0.67,-0.87 -0.76,-0.08 -1.61,-0.17 -2.04,-0.26 -0.42,-0.08 -1.27,0 -1.27,0 z"
       id="path99"
       style="fill:#259931" />
    <path
       d="m 69.66,63.31 h 1.02 v 0.87 l -1.02,-0.87 z"
       id="path101"
       style="fill:#259931" />
    <path
       d="m 47.27,69.14 c 0,0 -0.25,0.69 -0.59,0.69 -0.34,0 -0.93,-0.78 -0.34,-1.04 0.59,-0.25 0.93,0.34 0.93,0.34 z"
       id="path103"
       style="fill:#259931" />
    <path
       d="m 45.99,68.19 c -0.42,0.34 -0.67,0.69 -0.93,0.6 -0.25,-0.08 0.34,-0.78 0.67,-0.96 0.34,-0.17 0.25,0.35 0.25,0.35 z"
       id="path105"
       style="fill:#259931" />
    <path
       d="m 46.59,67.14 0.5,-0.17 0.68,0.78 h 0.59 l -0.17,0.95 h -0.34 l -1.27,-1.56 z"
       id="path107"
       style="fill:#259931" />
    <path
       d="m 49.4,65.4 c 0.42,-0.08 0.93,-0.08 1.19,-1.22 0.25,-1.13 0.67,-0.69 0.5,0.08 -0.17,0.78 -0.85,0.87 -0.5,1.3 0.33,0.43 0.16,0.25 -0.34,0.17 -0.51,-0.08 -0.85,0.08 -0.85,-0.34 z"
       id="path109"
       style="fill:#259931" />
    <path
       d="M 48.14,45.84 C 47.08,44.77 41.27,40.07 34.45,44.9 29.72,48.24 23.03,53.2 18.08,61.13 5.38,81.49 13.96,94.77 17.02,96.5 c 3.05,1.72 7.46,0.92 10.04,-4.53 2.58,-5.46 1.85,-9.49 -1.11,-10.98 -3.28,-1.65 -7.75,-1.17 -7.75,-1.17 0,0 -0.83,-11.03 7.47,-20.01 8.35,-9.01 8.98,-6.76 8.98,-6.76 0,0 -0.43,4.34 3.34,6.84 2.46,1.62 6.5,2.17 10.24,-4.51 3.15,-5.65 0.98,-8.44 -0.08,-9.51 z"
       id="path124"
       style="fill:url(#radialGradient3143)" />
    <path
       d="M 48.134314,45.84 C 47.066152,44.7675 41.2618,40.071875 34.44303,44.898125 29.713558,48.239375 23.02243,53.19625 18.071264,61.136875 5.367526,81.500625 13.95313,94.783125 17.00982,96.50875 c 3.05669,1.725625 7.45698,0.92125 10.04341,-4.530625 2.58643,-5.45875 1.854168,-9.4875 -1.115188,-10.98625 -3.285102,-1.65 -7.752572,-1.175625 -7.752572,-1.175625 0,0 -0.833032,-11.034375 7.470416,-20.00625 8.350474,-9.013125 8.981966,-6.765 8.981966,-6.765 0,0 -0.429952,4.345 3.345564,6.840625 2.458788,1.6225 6.503024,2.1725 10.238232,-4.51 3.150742,-5.65125 0.97411,-8.4425 -0.08062,-9.515 z"
       id="path126"
       style="fill:none;stroke:#000000;stroke-width:2.1218617" />
    <path
       d="m 26.17,91.52 c -2.11,3.86 -5.53,6.02 -7.64,4.81 -2.1,-1.2 -2.1,-5.31 0.01,-9.18 2.11,-3.86 5.53,-6.02 7.64,-4.81 2.1,1.2 2.1,5.31 -0.01,9.18 z"
       id="path143"
       style="fill:url(#linearGradient3139)" />
    <path
       d="m 46.9,54.91 c -2.11,3.86 -5.53,6.02 -7.64,4.81 -2.1,-1.2 -2.1,-5.31 0.01,-9.18 2.11,-3.86 5.53,-6.02 7.64,-4.81 2.1,1.2 2.1,5.31 -0.01,9.18 z"
       id="path160"
       style="fill:url(#linearGradient3136)" />
    <path
       d="m 47.34,55.13 c -1.95,3.57 -5.09,5.58 -7.01,4.47 -1.92,-1.1 -1.89,-4.88 0.05,-8.46 1.95,-3.57 5.09,-5.57 7.01,-4.47 1.92,1.1 1.89,4.88 -0.05,8.46 z"
       id="path167"
       style="fill:url(#linearGradient3133)" />
    <path
       d="m 17.856288,80.1875 c 0,0 -2.908894,2.303125 -3.338846,4.406875"
       id="path169"
       style="fill:none;stroke:#000000;stroke-width:1.06093085;stroke-linecap:round" />
    <path
       d="m 26.6,91.72 c -1.89,3.46 -5.03,5.36 -7.01,4.23 -1.97,-1.13 -2.04,-4.86 -0.14,-8.32 1.89,-3.46 5.03,-5.36 7.01,-4.23 1.97,1.13 2.04,4.85 0.14,8.32 z"
       id="path176"
       style="fill:url(#linearGradient3129)" />
    <path
       d="m 21.9,89.36 c -0.26,0.44 -0.66,0.67 -0.9,0.52 -0.24,-0.14 -0.22,-0.62 0.03,-1.06 0.25,-0.44 0.66,-0.67 0.9,-0.52 0.24,0.14 0.22,0.62 -0.03,1.06 z"
       id="path178"
       style="fill:#000000" />
    <path
       d="m 21.7,93.7 c -0.25,0.44 -0.66,0.67 -0.9,0.52 -0.24,-0.15 -0.22,-0.62 0.03,-1.06 0.25,-0.44 0.66,-0.67 0.9,-0.52 0.24,0.15 0.22,0.62 -0.03,1.06 z"
       id="path180"
       style="fill:#000000" />
    <path
       d="m 25.28,87.16 c -0.25,0.43 -0.66,0.67 -0.9,0.52 -0.24,-0.14 -0.22,-0.62 0.03,-1.06 0.25,-0.43 0.66,-0.67 0.9,-0.52 0.24,0.14 0.22,0.62 -0.03,1.06 z"
       id="path182"
       style="fill:#000000" />
    <path
       d="m 25.24,90.91 c -0.25,0.44 -0.66,0.67 -0.9,0.52 -0.23,-0.15 -0.22,-0.62 0.03,-1.06 0.26,-0.44 0.66,-0.67 0.9,-0.52 0.24,0.15 0.22,0.62 -0.03,1.06 z"
       id="path184"
       style="fill:#000000" />
    <path
       d="m 45.48,53.79 c -1.06,1.69 -2.64,2.59 -3.53,2.01 -0.88,-0.58 -0.74,-2.43 0.31,-4.12 1.06,-1.69 2.64,-2.59 3.53,-2.01 0.88,0.58 0.74,2.42 -0.31,4.12 z"
       id="path186"
       style="fill:#000000;fill-opacity:0.09800002" />
    <path
       d="m 32.43,92.42 -1.84,5 -1.12,-0.51 0.98,-2.68 c 0.14,-0.38 0.22,-0.62 0.23,-0.71 0.01,-0.08 -0.01,-0.16 -0.07,-0.24 C 30.56,93.21 30.4,93.11 30.14,93 l -0.11,-0.05 0.21,-0.58 c 0.59,0.11 1.1,0.03 1.53,-0.23 l 0.66,0.3 z"
       id="path188"
       style="fill:#ffffff" />
    <path
       d="m 36.95,94.25 -3.79,5.27 -1.18,-1.05 2.03,-2.82 c 0.29,-0.41 0.46,-0.66 0.5,-0.76 0.04,-0.09 0.03,-0.2 -0.01,-0.31 -0.04,-0.11 -0.2,-0.29 -0.48,-0.53 l -0.11,-0.1 0.44,-0.61 c 0.66,0.37 1.3,0.47 1.91,0.31 l 0.69,0.62 z"
       id="path190"
       style="fill:#ffffff" />
    <path
       d="m 40.37,98.33 -0.76,2.08 c -0.17,0.47 -0.32,0.8 -0.45,1 -0.12,0.19 -0.29,0.35 -0.51,0.47 -0.21,0.12 -0.44,0.17 -0.67,0.16 -0.23,-0.01 -0.48,-0.07 -0.73,-0.19 -0.33,-0.15 -0.59,-0.32 -0.78,-0.51 -0.19,-0.18 -0.31,-0.4 -0.38,-0.64 -0.06,-0.24 -0.08,-0.47 -0.06,-0.7 0.02,-0.22 0.1,-0.56 0.27,-1 l 0.8,-2.18 c 0.21,-0.57 0.41,-0.98 0.6,-1.22 0.19,-0.24 0.45,-0.39 0.78,-0.44 0.32,-0.04 0.67,0.01 1.05,0.18 0.31,0.14 0.56,0.32 0.76,0.55 0.2,0.23 0.32,0.45 0.38,0.68 0.05,0.22 0.06,0.46 0.02,0.69 -0.03,0.23 -0.13,0.59 -0.31,1.06 z m -1.21,-1.17 c 0.12,-0.33 0.18,-0.54 0.18,-0.64 0,-0.09 -0.05,-0.16 -0.15,-0.21 -0.1,-0.04 -0.18,-0.03 -0.25,0.03 -0.06,0.07 -0.15,0.27 -0.27,0.59 l -1.12,3.04 c -0.13,0.36 -0.19,0.59 -0.19,0.67 0,0.09 0.05,0.15 0.16,0.2 0.1,0.04 0.18,0.03 0.25,-0.03 0.06,-0.07 0.15,-0.26 0.26,-0.56 l 1.13,-3.09 z"
       id="path192"
       style="fill:#ffffff" />
    <path
       d="m 47.07,99.38 -0.55,2.63 c -0.12,0.59 -0.24,1.02 -0.36,1.28 -0.11,0.25 -0.29,0.48 -0.52,0.67 -0.23,0.18 -0.49,0.3 -0.77,0.33 -0.28,0.03 -0.58,0.01 -0.9,-0.07 -0.42,-0.1 -0.76,-0.25 -1.02,-0.43 -0.25,-0.18 -0.44,-0.41 -0.56,-0.68 -0.11,-0.27 -0.18,-0.54 -0.2,-0.82 -0.01,-0.27 0.03,-0.68 0.15,-1.24 l 0.58,-2.75 c 0.15,-0.72 0.32,-1.25 0.51,-1.58 0.18,-0.32 0.47,-0.55 0.85,-0.69 0.37,-0.12 0.8,-0.13 1.28,-0.01 0.38,0.1 0.72,0.26 0.99,0.5 0.27,0.23 0.46,0.47 0.57,0.73 0.1,0.25 0.15,0.53 0.15,0.81 0,0.28 -0.06,0.73 -0.19,1.32 z m -1.64,-1.13 c 0.08,-0.41 0.12,-0.68 0.1,-0.8 -0.01,-0.11 -0.08,-0.19 -0.22,-0.22 -0.13,-0.03 -0.23,0 -0.29,0.1 -0.06,0.1 -0.13,0.35 -0.22,0.76 l -0.81,3.85 c -0.09,0.45 -0.13,0.74 -0.11,0.84 0.02,0.1 0.09,0.17 0.22,0.2 0.13,0.03 0.22,0 0.29,-0.09 0.06,-0.09 0.13,-0.34 0.21,-0.73 l 0.82,-3.91 z"
       id="path194"
       style="fill:#ffffff" />
    <path
       d="m 52.43,97.22 -0.49,8.09 -1.81,-0.13 0.26,-4.33 c 0.03,-0.62 0.04,-1 0.02,-1.12 -0.02,-0.12 -0.08,-0.23 -0.2,-0.3 -0.11,-0.07 -0.38,-0.12 -0.8,-0.16 l -0.17,-0.01 0.05,-0.94 c 0.89,-0.14 1.58,-0.52 2.08,-1.14 l 1.06,0.07 z"
       id="path196"
       style="fill:#ffffff" />
    <path
       d="m 56.85,96.72 1.13,8.01 -1.8,0.31 -0.6,-4.3 c -0.08,-0.61 -0.15,-0.98 -0.19,-1.11 -0.04,-0.11 -0.12,-0.2 -0.26,-0.24 -0.12,-0.04 -0.4,-0.02 -0.81,0.04 l -0.17,0.03 -0.13,-0.93 c 0.84,-0.35 1.44,-0.89 1.8,-1.62 l 1.05,-0.18 z"
       id="path198"
       style="fill:#ffffff" />
    <path
       d="m 60.55,94.88 3.05,7.37 -1.65,0.84 -1.64,-3.95 c -0.23,-0.56 -0.38,-0.9 -0.46,-1.01 -0.07,-0.1 -0.17,-0.15 -0.31,-0.15 -0.13,0 -0.39,0.09 -0.77,0.29 l -0.16,0.08 -0.35,-0.86 c 0.72,-0.6 1.16,-1.3 1.33,-2.11 l 0.97,-0.49 z"
       id="path200"
       style="fill:#ffffff" />
    <path
       d="m 64.89,90.5 4.42,8.09 -1.81,1.22 -2.37,-4.33 c -0.34,-0.62 -0.56,-0.99 -0.65,-1.1 -0.09,-0.1 -0.22,-0.15 -0.37,-0.13 -0.15,0.01 -0.44,0.16 -0.86,0.45 l -0.18,0.12 -0.51,-0.94 c 0.76,-0.8 1.19,-1.68 1.29,-2.64 l 1.06,-0.72 z"
       id="path202"
       style="fill:#ffffff" />
    <path
       d="m 75.02,89.45 0.58,3.54 c 0.12,0.8 0.18,1.4 0.17,1.78 -0.02,0.38 -0.12,0.76 -0.32,1.13 -0.19,0.36 -0.45,0.65 -0.78,0.87 -0.32,0.2 -0.7,0.36 -1.14,0.44 -0.57,0.11 -1.05,0.13 -1.46,0.06 -0.4,-0.07 -0.74,-0.23 -1.01,-0.5 -0.27,-0.26 -0.48,-0.56 -0.63,-0.88 -0.15,-0.32 -0.28,-0.86 -0.4,-1.61 l -0.6,-3.71 c -0.16,-0.97 -0.2,-1.72 -0.13,-2.24 0.07,-0.51 0.31,-0.96 0.71,-1.35 0.4,-0.38 0.92,-0.64 1.57,-0.76 0.52,-0.1 1,-0.09 1.45,0.02 0.44,0.11 0.79,0.3 1.04,0.55 0.25,0.25 0.44,0.55 0.58,0.9 0.13,0.35 0.26,0.93 0.39,1.74 z M 72.49,89.04 C 72.4,88.48 72.32,88.13 72.25,88 c -0.07,-0.13 -0.19,-0.18 -0.38,-0.14 -0.17,0.03 -0.28,0.13 -0.31,0.29 -0.03,0.16 0,0.51 0.08,1.06 l 0.84,5.19 c 0.1,0.61 0.19,0.98 0.26,1.1 0.07,0.11 0.2,0.15 0.37,0.11 0.17,-0.03 0.28,-0.13 0.31,-0.29 0.03,-0.16 0,-0.49 -0.08,-1.02 l -0.86,-5.27 z"
       id="path204"
       style="fill:#ffffff" />
    <path
       d="m 82.12,84.62 1.97,10.58 -2.37,0.54 -1.05,-5.67 C 80.52,89.26 80.41,88.77 80.35,88.61 80.29,88.46 80.17,88.36 80,88.31 79.83,88.27 79.47,88.3 78.92,88.42 l -0.23,0.05 -0.23,-1.23 c 1.09,-0.53 1.86,-1.3 2.29,-2.29 l 1.39,-0.32 z"
       id="path206"
       style="fill:#ffffff" />
    <path
       d="m 89.35,87.35 1.03,2.44 c 0.23,0.55 0.38,0.97 0.43,1.25 0.05,0.27 0.04,0.57 -0.03,0.88 -0.07,0.3 -0.21,0.57 -0.41,0.8 -0.19,0.22 -0.44,0.41 -0.74,0.56 -0.39,0.2 -0.74,0.32 -1.04,0.36 -0.3,0.03 -0.57,-0.01 -0.82,-0.14 C 87.53,93.37 87.32,93.2 87.16,93 87,92.8 86.81,92.44 86.59,91.92 L 85.5,89.37 c -0.28,-0.67 -0.44,-1.2 -0.48,-1.59 -0.03,-0.39 0.05,-0.76 0.28,-1.13 0.22,-0.36 0.55,-0.66 1,-0.89 0.36,-0.18 0.71,-0.29 1.05,-0.3 0.34,0 0.62,0.05 0.85,0.17 0.22,0.12 0.41,0.3 0.57,0.53 0.15,0.22 0.35,0.61 0.59,1.17 z m -1.91,0.25 c -0.16,-0.38 -0.28,-0.62 -0.36,-0.7 -0.07,-0.08 -0.17,-0.08 -0.3,-0.02 -0.12,0.06 -0.18,0.15 -0.17,0.28 0,0.12 0.08,0.37 0.24,0.75 l 1.52,3.57 c 0.18,0.42 0.3,0.67 0.38,0.74 0.07,0.06 0.17,0.07 0.29,0 0.12,-0.06 0.18,-0.16 0.17,-0.28 0,-0.11 -0.08,-0.36 -0.23,-0.72 l -1.54,-3.63 z"
       id="path208"
       style="fill:#ffffff" />
    <path
       d="m 31.46,90.79 -1.83,5 -1.12,-0.51 0.98,-2.68 c 0.14,-0.38 0.21,-0.62 0.23,-0.71 0.01,-0.08 -0.01,-0.16 -0.07,-0.24 -0.05,-0.07 -0.21,-0.16 -0.47,-0.28 l -0.1,-0.05 0.21,-0.58 c 0.59,0.11 1.1,0.03 1.53,-0.23 l 0.65,0.3 z"
       id="path210"
       style="fill:#000000" />
    <path
       d="m 35.98,92.61 -3.79,5.28 -1.18,-1.05 2.03,-2.83 c 0.29,-0.4 0.46,-0.66 0.5,-0.76 0.04,-0.09 0.04,-0.2 -0.01,-0.31 -0.04,-0.11 -0.2,-0.29 -0.48,-0.53 l -0.11,-0.1 0.44,-0.61 c 0.67,0.37 1.3,0.47 1.91,0.31 l 0.69,0.61 z"
       id="path212"
       style="fill:#000000" />
    <path
       d="m 39.4,96.69 -0.76,2.08 c -0.17,0.47 -0.32,0.81 -0.45,1 -0.12,0.19 -0.29,0.35 -0.51,0.47 -0.21,0.12 -0.44,0.17 -0.67,0.16 -0.23,-0.01 -0.48,-0.07 -0.73,-0.18 -0.33,-0.15 -0.59,-0.32 -0.78,-0.51 -0.18,-0.18 -0.31,-0.4 -0.38,-0.64 -0.06,-0.24 -0.08,-0.47 -0.06,-0.7 0.02,-0.22 0.1,-0.55 0.27,-1 l 0.8,-2.18 c 0.21,-0.57 0.41,-0.98 0.6,-1.23 0.19,-0.24 0.45,-0.39 0.78,-0.44 0.32,-0.05 0.67,0 1.05,0.18 0.3,0.14 0.56,0.32 0.76,0.55 0.19,0.23 0.32,0.46 0.38,0.68 0.05,0.22 0.06,0.45 0.03,0.69 -0.03,0.23 -0.14,0.58 -0.31,1.06 z m -1.21,-1.16 c 0.12,-0.33 0.18,-0.54 0.18,-0.64 0,-0.09 -0.04,-0.17 -0.15,-0.22 -0.1,-0.04 -0.18,-0.03 -0.25,0.03 -0.06,0.07 -0.16,0.27 -0.28,0.59 l -1.12,3.05 c -0.13,0.36 -0.2,0.58 -0.19,0.67 0,0.08 0.05,0.15 0.16,0.2 0.1,0.04 0.18,0.03 0.25,-0.03 0.06,-0.07 0.15,-0.26 0.26,-0.56 l 1.14,-3.09 z"
       id="path214"
       style="fill:#000000" />
    <path
       d="m 46.1,97.74 -0.55,2.63 c -0.12,0.59 -0.24,1.02 -0.36,1.28 -0.11,0.25 -0.29,0.47 -0.52,0.67 -0.23,0.18 -0.49,0.3 -0.77,0.33 -0.28,0.03 -0.58,0.01 -0.9,-0.07 -0.42,-0.11 -0.76,-0.25 -1.02,-0.44 -0.26,-0.18 -0.44,-0.4 -0.56,-0.68 -0.11,-0.27 -0.18,-0.54 -0.2,-0.82 -0.01,-0.27 0.03,-0.68 0.15,-1.24 l 0.58,-2.75 c 0.15,-0.72 0.32,-1.25 0.51,-1.58 0.18,-0.33 0.47,-0.56 0.85,-0.69 0.38,-0.13 0.8,-0.13 1.28,-0.01 0.38,0.1 0.72,0.26 0.99,0.49 0.27,0.23 0.46,0.47 0.57,0.73 0.1,0.25 0.15,0.52 0.15,0.81 0,0.28 -0.06,0.72 -0.19,1.32 z m -1.63,-1.12 c 0.08,-0.41 0.12,-0.68 0.11,-0.8 -0.01,-0.11 -0.08,-0.18 -0.22,-0.22 -0.12,-0.03 -0.22,0 -0.29,0.09 -0.06,0.1 -0.14,0.35 -0.22,0.76 l -0.81,3.85 c -0.09,0.45 -0.13,0.73 -0.11,0.84 0.02,0.1 0.09,0.17 0.22,0.2 0.12,0.03 0.22,0 0.29,-0.09 0.06,-0.1 0.13,-0.34 0.22,-0.73 l 0.82,-3.91 z"
       id="path216"
       style="fill:#000000" />
    <path
       d="m 51.46,95.59 -0.49,8.09 -1.81,-0.13 0.26,-4.33 c 0.03,-0.62 0.04,-1 0.02,-1.13 -0.02,-0.12 -0.08,-0.22 -0.2,-0.3 -0.11,-0.07 -0.38,-0.12 -0.8,-0.15 l -0.17,-0.01 0.05,-0.94 c 0.88,-0.14 1.58,-0.52 2.07,-1.14 l 1.06,0.07 z"
       id="path218"
       style="fill:#000000" />
    <path
       d="m 55.89,95.09 1.12,8.01 -1.8,0.31 -0.6,-4.29 c -0.08,-0.61 -0.15,-0.99 -0.19,-1.11 -0.04,-0.12 -0.12,-0.2 -0.25,-0.24 -0.12,-0.04 -0.39,-0.02 -0.81,0.04 l -0.17,0.03 -0.13,-0.93 c 0.84,-0.36 1.44,-0.9 1.8,-1.62 l 1.06,-0.18 z"
       id="path220"
       style="fill:#000000" />
    <path
       d="m 59.58,93.24 3.05,7.37 -1.65,0.84 -1.63,-3.95 c -0.23,-0.56 -0.39,-0.9 -0.46,-1.01 -0.07,-0.1 -0.17,-0.15 -0.31,-0.15 -0.13,0 -0.39,0.09 -0.77,0.29 l -0.16,0.08 -0.35,-0.86 c 0.72,-0.59 1.16,-1.3 1.33,-2.11 l 0.97,-0.49 z"
       id="path222"
       style="fill:#000000" />
    <path
       d="m 63.93,88.87 4.42,8.09 -1.81,1.22 -2.37,-4.33 c -0.33,-0.62 -0.56,-0.99 -0.65,-1.1 -0.09,-0.1 -0.22,-0.15 -0.37,-0.13 -0.15,0.01 -0.44,0.16 -0.86,0.44 l -0.18,0.12 -0.51,-0.94 c 0.76,-0.8 1.19,-1.68 1.29,-2.64 l 1.06,-0.71 z"
       id="path224"
       style="fill:#000000" />
    <path
       d="m 74.06,87.82 0.58,3.55 c 0.13,0.8 0.18,1.4 0.16,1.78 -0.01,0.38 -0.12,0.76 -0.32,1.13 -0.19,0.37 -0.45,0.66 -0.78,0.87 -0.32,0.21 -0.7,0.36 -1.14,0.45 -0.57,0.11 -1.05,0.13 -1.45,0.06 -0.4,-0.07 -0.74,-0.24 -1.01,-0.5 -0.27,-0.26 -0.48,-0.56 -0.64,-0.88 -0.15,-0.32 -0.28,-0.86 -0.4,-1.61 l -0.6,-3.71 c -0.16,-0.97 -0.2,-1.72 -0.12,-2.24 0.07,-0.51 0.31,-0.96 0.71,-1.35 0.4,-0.38 0.92,-0.64 1.56,-0.77 0.52,-0.1 1.01,-0.09 1.45,0.02 0.44,0.12 0.79,0.3 1.05,0.55 0.25,0.25 0.44,0.55 0.57,0.9 0.13,0.35 0.26,0.93 0.39,1.74 z M 71.52,87.4 c -0.09,-0.56 -0.17,-0.91 -0.24,-1.04 -0.07,-0.13 -0.19,-0.18 -0.37,-0.14 -0.17,0.03 -0.28,0.13 -0.31,0.3 -0.03,0.16 0,0.51 0.08,1.06 l 0.84,5.19 c 0.09,0.61 0.18,0.98 0.26,1.1 0.07,0.11 0.2,0.15 0.37,0.12 0.17,-0.03 0.28,-0.13 0.31,-0.29 0.02,-0.16 0,-0.5 -0.08,-1.02 l -0.86,-5.27 z"
       id="path226"
       style="fill:#000000" />
    <path
       d="m 81.15,82.99 1.97,10.58 -2.37,0.54 -1.05,-5.67 c -0.15,-0.81 -0.26,-1.3 -0.32,-1.46 -0.06,-0.15 -0.18,-0.25 -0.36,-0.3 -0.17,-0.04 -0.53,0 -1.08,0.11 l -0.23,0.05 -0.23,-1.23 c 1.09,-0.54 1.86,-1.3 2.3,-2.29 L 81.17,83 z"
       id="path228"
       style="fill:#000000" />
    <path
       d="m 88.38,85.71 1.03,2.44 c 0.23,0.55 0.38,0.97 0.43,1.25 0.05,0.28 0.04,0.57 -0.03,0.88 -0.07,0.31 -0.21,0.57 -0.41,0.8 -0.2,0.22 -0.45,0.41 -0.74,0.56 -0.39,0.2 -0.74,0.32 -1.04,0.36 -0.3,0.03 -0.57,-0.01 -0.82,-0.14 -0.24,-0.13 -0.45,-0.3 -0.61,-0.5 -0.16,-0.2 -0.35,-0.56 -0.57,-1.07 l -1.08,-2.55 c -0.28,-0.67 -0.45,-1.2 -0.48,-1.59 -0.03,-0.38 0.05,-0.76 0.28,-1.13 0.22,-0.36 0.56,-0.66 1,-0.89 0.36,-0.18 0.71,-0.28 1.05,-0.29 0.34,-0.01 0.62,0.04 0.86,0.17 0.22,0.12 0.41,0.3 0.57,0.53 0.15,0.22 0.35,0.61 0.59,1.17 z m -1.9,0.25 c -0.16,-0.39 -0.28,-0.62 -0.36,-0.7 -0.07,-0.08 -0.17,-0.08 -0.3,-0.02 -0.11,0.06 -0.17,0.16 -0.17,0.28 0,0.12 0.08,0.37 0.24,0.75 l 1.52,3.58 c 0.18,0.42 0.31,0.67 0.38,0.74 0.07,0.06 0.17,0.06 0.29,0 0.12,-0.06 0.18,-0.15 0.17,-0.27 0,-0.12 -0.08,-0.36 -0.23,-0.72 l -1.54,-3.62 z"
       id="path230"
       style="fill:#000000" />
    <path
       d="m 20.355384,98.29625 c 0,0 -2.290838,4.3175 0.859904,7.89937 3.150742,3.58188 8.827452,2.2825 8.827452,4.29688 0,5.08063 -28.68586,1.67063 -19.462046,-1.36812 9.217096,-3.03188 21.316214,-2.04875 29.740586,1.36812 8.417654,3.41687 17.480236,5.5275 17.480236,5.5275"
       id="path232"
       style="fill:none;stroke:#000000;stroke-width:2.19729781;stroke-linecap:round" />
  </g>
</svg>
