<?xml version="1.0" encoding="UTF-8" standalone="no"?>
<!DOCTYPE svg PUBLIC "-//W3C//DTD SVG 20010904//EN"
"http://www.w3.org/TR/2001/REC-SVG-20010904/DTD/svg10.dtd">
<!-- Created with Sodipodi ("http://www.sodipodi.com/") -->
<svg
   width="48pt"
   height="48pt"
   viewBox="0.073 0.235 112 127"
   overflow="visible"
   enable-background="new 0.073 0.235 112 127"
   xml:space="preserve"
   xmlns="http://www.w3.org/2000/svg"
   xmlns:xml="http://www.w3.org/XML/1998/namespace"
   xmlns:xlink="http://www.w3.org/1999/xlink"
   xmlns:sodipodi="http://sodipodi.sourceforge.net/DTD/sodipodi-0.dtd"
   id="svg153"
   sodipodi:version="0.32pre"
   sodipodi:docname="/home/cschalle/gnome-themes-extras/Wasp/icons/scalable/apps/redhat-config-users.svg"
   sodipodi:docbase="/home/cschalle/gnome-themes-extras/Wasp/icons/scalable/apps">
  <defs
     id="defs570" />
  <sodipodi:namedview
     id="base" />
  <g
     id="Layer_1_2_">
    <path
       opacity="0.2"
       d="M56.747,127.007l26.896-6.338l28.334-15.597l0.04-3.283l-37.709-20.69l0.067,33.891L56.747,127.007z"
       id="path155" />
    <g
       id="single_8_">
      <path
         d="M17.774,14.833L0,24.038v35.904c0,0,2.587,1.173,2.816,1.278c0,4.189,0,38.307,0,38.307l24.31,12.74l17.18-11.607     c0,0-0.086-33.244-0.093-36.475c1.276-1.018,4.313-3.435,4.313-3.435V27.595L19.388,13.997L17.774,14.833z"
         id="path157" />
      <g
         id="g158">
        <path
           d="M44.831,29.948L19.474,18.113L3.694,26.285v31.276l2.816,1.278v38.453l20.376,10.679l13.72-9.271l-0.094-36.293      l4.318-3.438V29.948z"
           id="path159" />
      </g>
      <g
         id="g160">
        <path
           fill="#9999CC"
           d="M6.511,56.716v40.576l20.376,10.679l13.72-9.271l-0.102-39.639l-10.933,8.056L6.511,56.716z"
           id="path161" />
      </g>
      <g
         id="g162">
        <path
           fill="#343367"
           d="M26.867,65.619l13.726-9.299v42.389l-13.533,9.232L26.867,65.619z"
           id="path163" />
      </g>
      <g
         id="g164">
        <linearGradient
           id="XMLID_1_"
           gradientUnits="userSpaceOnUse"
           x1="35.644"
           y1="72.6567"
           x2="33.9848"
           y2="67.4017">
          <stop
             offset="0"
             style="stop-color:#343367"
             id="stop166" />
          <stop
             offset="0.4541"
             style="stop-color:#2D2D57"
             id="stop167" />
          <stop
             offset="1"
             style="stop-color:#21233F"
             id="stop168" />
        </linearGradient>
        <path
           fill="url(#XMLID_1_)"
           d="M26.866,65.39l13.725-9.297v14.393l-13.613,6.953L26.866,65.39z"
           id="path172" />
      </g>
      <g
         id="g173">
        <path
           fill="#9999CC"
           d="M3.694,26.285v31.276L31.026,69.96l13.805-10.99V29.948L19.474,18.113L3.694,26.285z"
           id="path174" />
      </g>
      <g
         id="g175">
        <path
           fill="#343367"
           d="M30.915,39.306l13.928-9.388l0.059,29.108L31.026,69.994L30.915,39.306z"
           id="path176" />
      </g>
      <g
         id="g177">
        <path
           fill="#666699"
           d="M15.571,68.269c-0.951-0.495-1.848,0.191-1.848,0.191l0.068,32.605l3.626,2.011V70.378      C17.418,70.378,16.465,68.733,15.571,68.269z"
           id="path178" />
      </g>
      <g
         id="g179">
        <path
           fill="#343366"
           d="M15.433,69.019c-0.796-0.156-0.943,0.295-0.943,0.295l-0.174,32.004l2.532,1.223l-0.039-32.162      C16.809,70.378,16.176,69.164,15.433,69.019z"
           id="path180" />
      </g>
      <g
         id="g181">
        <linearGradient
           id="XMLID_2_"
           gradientUnits="userSpaceOnUse"
           x1="18.2529"
           y1="35.7256"
           x2="22.1682"
           y2="30.7661">
          <stop
             offset="0"
             style="stop-color:#FFFFFF"
             id="stop183" />
          <stop
             offset="0.2071"
             style="stop-color:#EFEFF7"
             id="stop184" />
          <stop
             offset="0.6077"
             style="stop-color:#C7C7E3"
             id="stop185" />
          <stop
             offset="1"
             style="stop-color:#9999CC"
             id="stop186" />
        </linearGradient>
        <path
           fill="url(#XMLID_2_)"
           d="M3.682,26.309L30.897,39.34l13.945-9.422L19.474,18.113L3.682,26.309z"
           id="path190" />
      </g>
      <path
         fill="#FFFFFF"
         d="M3.682,26.309l0.05,1.649l27.178,13.357l-0.012-1.976l1.814-1.218L5.251,25.445L3.682,26.309z"
         id="path191" />
      <g
         opacity="0.8"
         a:adobe-blending-mode="multiply"
         id="g192">
        <path
           fill="#333366"
           a:adobe-blending-mode="normal"
           d="M12.799,24.486c0-2.797,2.373-5.307,6.735-6.418      c0.052,0.004,20.475,9.4,20.48,9.355c-1.656,2.809-6.342,4.229-14.413,4.041C18.532,31.3,12.799,28.339,12.799,24.486z"
           id="path193" />
      </g>
      <g
         a:adobe-knockout="true"
         id="g194">
        <path
           fill="#585858"
           a:adobe-knockout="false"
           d="M9.882,14.461C9.882,7.302,15.686,1.5,22.844,1.5      c7.159,0,12.962,5.803,12.962,12.962c0,7.158-5.803,12.962-12.962,12.962C15.686,27.423,9.882,21.62,9.882,14.461z"
           id="path195" />
        <path
           fill="#5A5A5A"
           a:adobe-knockout="false"
           d="M22.792,1.611c7.061,0,12.783,5.722,12.783,12.783      c0,7.06-5.723,12.783-12.783,12.783c-7.059,0-12.783-5.724-12.783-12.783C10.009,7.333,15.733,1.611,22.792,1.611z"
           id="path196" />
        <path
           fill="#5C5C5C"
           a:adobe-knockout="false"
           d="M22.741,1.722c6.962,0,12.604,5.643,12.604,12.604      c0,6.96-5.643,12.604-12.604,12.604c-6.961,0-12.604-5.644-12.604-12.604C10.136,7.365,15.78,1.722,22.741,1.722z"
           id="path197" />
        <path
           fill="#5F5F5F"
           a:adobe-knockout="false"
           d="M22.689,1.833c6.863,0,12.426,5.562,12.426,12.426      c0,6.862-5.562,12.426-12.426,12.426c-6.862,0-12.426-5.563-12.426-12.426C10.263,7.396,15.827,1.833,22.689,1.833z"
           id="path198" />
        <path
           fill="#616161"
           a:adobe-knockout="false"
           d="M22.638,1.945c6.764,0,12.247,5.482,12.247,12.247      c0,6.763-5.483,12.247-12.247,12.247c-6.764,0-12.247-5.484-12.247-12.247C10.391,7.427,15.874,1.945,22.638,1.945z"
           id="path199" />
        <path
           fill="#636363"
           a:adobe-knockout="false"
           d="M22.586,2.056c6.666,0,12.068,5.403,12.068,12.068      c0,6.664-5.403,12.068-12.068,12.068c-6.665,0-12.068-5.404-12.068-12.068C10.518,7.459,15.921,2.056,22.586,2.056z"
           id="path200" />
        <path
           fill="#666666"
           a:adobe-knockout="false"
           d="M22.534,2.167c6.567,0,11.89,5.323,11.89,11.89      c0,6.566-5.323,11.89-11.89,11.89c-6.566,0-11.89-5.324-11.89-11.89C10.645,7.49,15.968,2.167,22.534,2.167z"
           id="path201" />
        <path
           fill="#686868"
           a:adobe-knockout="false"
           d="M22.483,2.278c6.468,0,11.71,5.243,11.71,11.711      c0,6.467-5.243,11.71-11.71,11.71s-11.711-5.244-11.711-11.71C10.772,7.521,16.016,2.278,22.483,2.278z"
           id="path202" />
        <path
           fill="#6A6A6A"
           a:adobe-knockout="false"
           d="M22.432,2.39c6.37,0,11.532,5.163,11.532,11.532      c0,6.369-5.163,11.532-11.532,11.532c-6.369,0-11.532-5.164-11.532-11.532C10.899,7.552,16.063,2.39,22.432,2.39z"
           id="path203" />
        <path
           fill="#6D6D6D"
           a:adobe-knockout="false"
           d="M22.38,2.5c6.271,0,11.353,5.083,11.353,11.353      c0,6.27-5.083,11.354-11.353,11.354c-6.27,0-11.354-5.084-11.354-11.354C11.026,7.583,16.11,2.5,22.38,2.5z"
           id="path204" />
        <path
           fill="#6F6F6F"
           a:adobe-knockout="false"
           d="M22.328,2.612c6.172,0,11.175,5.002,11.175,11.174      c0,6.171-5.002,11.175-11.175,11.175c-6.171,0-11.175-5.004-11.175-11.175C11.153,7.614,16.157,2.612,22.328,2.612z"
           id="path205" />
        <path
           fill="#717171"
           a:adobe-knockout="false"
           d="M22.277,2.723c6.073,0,10.996,4.923,10.996,10.996      S28.35,24.715,22.277,24.715c-6.073,0-10.996-4.923-10.996-10.996S16.204,2.723,22.277,2.723z"
           id="path206" />
        <path
           fill="#747474"
           a:adobe-knockout="false"
           d="M22.225,2.833c5.974,0,10.817,4.843,10.817,10.817      s-4.843,10.818-10.817,10.818c-5.974,0-10.817-4.844-10.817-10.818S16.251,2.833,22.225,2.833z"
           id="path207" />
        <path
           fill="#767676"
           a:adobe-knockout="false"
           d="M22.173,2.945c5.876,0,10.639,4.763,10.639,10.639      c0,5.875-4.763,10.639-10.639,10.639c-5.875,0-10.639-4.764-10.639-10.639C11.535,7.708,16.298,2.945,22.173,2.945z"
           id="path208" />
        <path
           fill="#787878"
           a:adobe-knockout="false"
           d="M22.122,3.057c5.777,0,10.459,4.683,10.459,10.46      c0,5.776-4.682,10.46-10.459,10.46c-5.776,0-10.46-4.684-10.46-10.46C11.662,7.739,16.346,3.057,22.122,3.057z"
           id="path209" />
        <path
           fill="#7B7B7B"
           a:adobe-knockout="false"
           d="M22.07,3.168c5.679,0,10.282,4.603,10.282,10.281      c0,5.678-4.603,10.281-10.282,10.281c-5.678,0-10.281-4.603-10.281-10.281C11.79,7.771,16.393,3.168,22.07,3.168z"
           id="path210" />
        <path
           fill="#7D7D7D"
           a:adobe-knockout="false"
           d="M22.019,3.279c5.58,0,10.103,4.523,10.103,10.103      c0,5.579-4.523,10.103-10.103,10.103c-5.579,0-10.103-4.523-10.103-10.103C11.917,7.802,16.44,3.279,22.019,3.279z"
           id="path211" />
        <path
           fill="#808080"
           a:adobe-knockout="false"
           d="M21.968,3.39c5.481,0,9.924,4.443,9.924,9.924      c0,5.48-4.443,9.924-9.924,9.924s-9.924-4.443-9.924-9.924C12.044,7.833,16.487,3.39,21.968,3.39z"
           id="path212" />
        <path
           fill="#828282"
           a:adobe-knockout="false"
           d="M21.916,3.501c5.382,0,9.746,4.363,9.746,9.746      c0,5.381-4.363,9.745-9.746,9.745c-5.381,0-9.745-4.364-9.745-9.745C12.17,7.864,16.534,3.501,21.916,3.501z"
           id="path213" />
        <path
           fill="#848484"
           a:adobe-knockout="false"
           d="M21.864,3.612c5.284,0,9.566,4.283,9.566,9.567      c0,5.283-4.283,9.566-9.566,9.566c-5.283,0-9.566-4.283-9.566-9.566C12.298,7.896,16.581,3.612,21.864,3.612z"
           id="path214" />
        <path
           fill="#878787"
           a:adobe-knockout="false"
           d="M21.813,3.724c5.185,0,9.388,4.203,9.388,9.388      c0,5.184-4.203,9.388-9.388,9.388c-5.184,0-9.388-4.204-9.388-9.388C12.425,7.927,16.629,3.724,21.813,3.724z"
           id="path215" />
        <path
           fill="#898989"
           a:adobe-knockout="false"
           d="M21.761,3.835c5.086,0,9.209,4.123,9.209,9.209      c0,5.085-4.123,9.208-9.209,9.208c-5.086,0-9.209-4.123-9.209-9.208C12.552,7.958,16.675,3.835,21.761,3.835z"
           id="path216" />
        <path
           fill="#8B8B8B"
           a:adobe-knockout="false"
           d="M21.709,3.946c4.987,0,9.03,4.043,9.03,9.03c0,4.986-4.043,9.03-9.03,9.03      c-4.987,0-9.03-4.044-9.03-9.03C12.679,7.989,16.723,3.946,21.709,3.946z"
           id="path217" />
        <path
           fill="#8E8E8E"
           a:adobe-knockout="false"
           d="M21.658,4.058c4.889,0,8.852,3.963,8.852,8.852      c0,4.888-3.963,8.851-8.852,8.851s-8.852-3.963-8.852-8.851C12.807,8.021,16.77,4.058,21.658,4.058z"
           id="path218" />
        <path
           fill="#909090"
           a:adobe-knockout="false"
           d="M21.607,4.169c4.79,0,8.673,3.883,8.673,8.673      c0,4.79-3.883,8.673-8.673,8.673s-8.673-3.883-8.673-8.673C12.934,8.052,16.817,4.169,21.607,4.169z"
           id="path219" />
        <path
           fill="#929292"
           a:adobe-knockout="false"
           d="M21.555,4.28c4.691,0,8.495,3.803,8.495,8.494      c0,4.691-3.803,8.494-8.495,8.494c-4.69,0-8.494-3.803-8.494-8.494C13.061,8.083,16.864,4.28,21.555,4.28z"
           id="path220" />
        <path
           fill="#959595"
           a:adobe-knockout="false"
           d="M21.503,4.391c4.592,0,8.315,3.723,8.315,8.315s-3.723,8.316-8.315,8.316      s-8.316-3.724-8.316-8.316S16.911,4.391,21.503,4.391z"
           id="path221" />
        <path
           fill="#979797"
           a:adobe-knockout="false"
           d="M21.452,4.502c4.494,0,8.137,3.643,8.137,8.137      c0,4.493-3.643,8.136-8.137,8.136s-8.137-3.643-8.137-8.136C13.315,8.145,16.958,4.502,21.452,4.502z"
           id="path222" />
        <path
           fill="#999999"
           a:adobe-knockout="false"
           d="M21.4,4.614c4.396,0,7.958,3.562,7.958,7.958      c0,4.395-3.562,7.958-7.958,7.958c-4.395,0-7.958-3.563-7.958-7.958C13.442,8.176,17.006,4.614,21.4,4.614z"
           id="path223" />
        <path
           fill="#9C9C9C"
           a:adobe-knockout="false"
           d="M21.349,4.725c4.297,0,7.779,3.483,7.779,7.779s-3.482,7.779-7.779,7.779      c-4.296,0-7.779-3.483-7.779-7.779S17.053,4.725,21.349,4.725z"
           id="path224" />
        <path
           fill="#9E9E9E"
           a:adobe-knockout="false"
           d="M21.297,4.836c4.198,0,7.601,3.403,7.601,7.601      c0,4.197-3.402,7.601-7.601,7.601c-4.197,0-7.601-3.404-7.601-7.601C13.696,8.239,17.1,4.836,21.297,4.836z"
           id="path225" />
        <path
           fill="#A0A0A0"
           a:adobe-knockout="false"
           d="M21.246,4.947c4.099,0,7.422,3.323,7.422,7.422      c0,4.099-3.323,7.422-7.422,7.422c-4.099,0-7.422-3.323-7.422-7.422C13.824,8.27,17.147,4.947,21.246,4.947z"
           id="path226" />
        <path
           fill="#A3A3A3"
           a:adobe-knockout="false"
           d="M21.194,5.058c4,0,7.243,3.243,7.243,7.244c0,4-3.243,7.243-7.243,7.243      c-4,0-7.243-3.243-7.243-7.243C13.951,8.301,17.194,5.058,21.194,5.058z"
           id="path227" />
        <path
           fill="#A5A5A5"
           a:adobe-knockout="false"
           d="M21.143,5.17c3.901,0,7.064,3.163,7.064,7.064      c0,3.901-3.163,7.064-7.064,7.064s-7.064-3.163-7.064-7.064C14.078,8.333,17.241,5.17,21.143,5.17z"
           id="path228" />
        <path
           fill="#A7A7A7"
           a:adobe-knockout="false"
           d="M21.091,5.281c3.803,0,6.885,3.083,6.885,6.886s-3.083,6.886-6.885,6.886      s-6.886-3.083-6.886-6.886S17.289,5.281,21.091,5.281z"
           id="path229" />
        <path
           fill="#AAAAAA"
           a:adobe-knockout="false"
           d="M21.04,5.392c3.704,0,6.707,3.003,6.707,6.707s-3.003,6.707-6.707,6.707      c-3.704,0-6.707-3.003-6.707-6.707S17.336,5.392,21.04,5.392z"
           id="path230" />
        <path
           fill="#ACACAC"
           a:adobe-knockout="false"
           d="M20.988,5.503c3.605,0,6.528,2.922,6.528,6.528      c0,3.605-2.923,6.528-6.528,6.528c-3.605,0-6.528-2.923-6.528-6.528C14.459,8.426,17.383,5.503,20.988,5.503z"
           id="path231" />
        <path
           fill="#AEAEAE"
           a:adobe-knockout="false"
           d="M20.937,5.615c3.507,0,6.35,2.843,6.35,6.349c0,3.507-2.843,6.35-6.35,6.35      c-3.506,0-6.35-2.843-6.35-6.35C14.587,8.458,17.43,5.615,20.937,5.615z"
           id="path232" />
        <path
           fill="#B1B1B1"
           a:adobe-knockout="false"
           d="M20.885,5.726c3.408,0,6.171,2.763,6.171,6.171s-2.763,6.171-6.171,6.171      c-3.408,0-6.171-2.763-6.171-6.171S17.477,5.726,20.885,5.726z"
           id="path233" />
        <path
           fill="#B3B3B3"
           a:adobe-knockout="false"
           d="M20.833,5.837c3.309,0,5.992,2.683,5.992,5.992      c0,3.309-2.683,5.992-5.992,5.992s-5.992-2.683-5.992-5.992C14.841,8.52,17.524,5.837,20.833,5.837z"
           id="path234" />
        <path
           fill="#B5B5B5"
           a:adobe-knockout="false"
           d="M20.782,5.948c3.21,0,5.813,2.603,5.813,5.813s-2.603,5.813-5.813,5.813      s-5.813-2.603-5.813-5.813S17.571,5.948,20.782,5.948z"
           id="path235" />
        <path
           fill="#B8B8B8"
           a:adobe-knockout="false"
           d="M20.73,6.06c3.112,0,5.635,2.522,5.635,5.635      c0,3.111-2.523,5.635-5.635,5.635s-5.635-2.523-5.635-5.635C15.095,8.582,17.619,6.06,20.73,6.06z"
           id="path236" />
        <path
           fill="#BABABA"
           a:adobe-knockout="false"
           d="M20.679,6.17c3.013,0,5.456,2.443,5.456,5.457      c0,3.013-2.443,5.456-5.456,5.456c-3.013,0-5.456-2.443-5.456-5.456C15.223,8.613,17.666,6.17,20.679,6.17z"
           id="path237" />
        <path
           fill="#BCBCBC"
           a:adobe-knockout="false"
           d="M20.627,6.282c2.915,0,5.277,2.363,5.277,5.277      c0,2.914-2.363,5.277-5.277,5.277c-2.914,0-5.277-2.363-5.277-5.277C15.35,8.645,17.713,6.282,20.627,6.282z"
           id="path238" />
        <path
           fill="#BFBFBF"
           a:adobe-knockout="false"
           d="M20.576,6.393c2.816,0,5.099,2.283,5.099,5.099      c0,2.815-2.283,5.099-5.099,5.099c-2.815,0-5.099-2.283-5.099-5.099C15.477,8.676,17.76,6.393,20.576,6.393z"
           id="path239" />
        <path
           fill="#C1C1C1"
           a:adobe-knockout="false"
           d="M20.524,6.504c2.717,0,4.92,2.203,4.92,4.92c0,2.717-2.203,4.92-4.92,4.92      c-2.717,0-4.92-2.203-4.92-4.92C15.604,8.707,17.807,6.504,20.524,6.504z"
           id="path240" />
        <path
           fill="#C3C3C3"
           a:adobe-knockout="false"
           d="M20.473,6.615c2.618,0,4.741,2.123,4.741,4.741s-2.123,4.741-4.741,4.741      s-4.741-2.123-4.741-4.741S17.854,6.615,20.473,6.615z"
           id="path241" />
        <path
           fill="#C6C6C6"
           a:adobe-knockout="false"
           d="M20.421,6.727c2.52,0,4.562,2.043,4.562,4.562s-2.043,4.562-4.562,4.562      s-4.562-2.043-4.562-4.562S17.901,6.727,20.421,6.727z"
           id="path242" />
        <path
           fill="#C8C8C8"
           a:adobe-knockout="false"
           d="M20.369,6.838c2.421,0,4.384,1.963,4.384,4.384s-1.962,4.384-4.384,4.384      c-2.42,0-4.383-1.963-4.383-4.384S17.949,6.838,20.369,6.838z"
           id="path243" />
        <path
           fill="#CACACA"
           a:adobe-knockout="false"
           d="M20.318,6.949c2.322,0,4.205,1.883,4.205,4.205      c0,2.322-1.883,4.205-4.205,4.205s-4.205-1.883-4.205-4.205C16.113,8.832,17.996,6.949,20.318,6.949z"
           id="path244" />
        <path
           fill="#CDCDCD"
           a:adobe-knockout="false"
           d="M20.266,7.061c2.224,0,4.026,1.803,4.026,4.026      c0,2.223-1.803,4.026-4.026,4.026c-2.223,0-4.026-1.803-4.026-4.026C16.24,8.863,18.043,7.061,20.266,7.061z"
           id="path245" />
        <path
           fill="#CFCFCF"
           a:adobe-knockout="false"
           d="M20.215,7.171c2.125,0,3.848,1.723,3.848,3.848      c0,2.125-1.723,3.848-3.848,3.848c-2.125,0-3.848-1.723-3.848-3.848C16.367,8.895,18.09,7.171,20.215,7.171z"
           id="path246" />
        <path
           fill="#D1D1D1"
           a:adobe-knockout="false"
           d="M20.163,7.283c2.026,0,3.669,1.643,3.669,3.669      c0,2.026-1.643,3.669-3.669,3.669c-2.026,0-3.669-1.643-3.669-3.669C16.494,8.925,18.137,7.283,20.163,7.283z"
           id="path247" />
        <path
           fill="#D4D4D4"
           a:adobe-knockout="false"
           d="M20.112,7.394c1.927,0,3.49,1.563,3.49,3.49s-1.563,3.49-3.49,3.49      s-3.491-1.563-3.491-3.49S18.185,7.394,20.112,7.394z"
           id="path248" />
        <path
           fill="#D6D6D6"
           a:adobe-knockout="false"
           d="M20.06,7.505c1.829,0,3.312,1.483,3.312,3.312s-1.483,3.312-3.312,3.312      s-3.312-1.483-3.312-3.312S18.231,7.505,20.06,7.505z"
           id="path249" />
        <path
           fill="#D8D8D8"
           a:adobe-knockout="false"
           d="M20.008,7.616c1.73,0,3.133,1.403,3.133,3.133s-1.403,3.133-3.133,3.133      c-1.729,0-3.133-1.403-3.133-3.133S18.279,7.616,20.008,7.616z"
           id="path250" />
        <path
           fill="#DBDBDB"
           a:adobe-knockout="false"
           d="M19.957,7.728c1.631,0,2.954,1.323,2.954,2.954s-1.323,2.954-2.954,2.954      s-2.954-1.323-2.954-2.954S18.326,7.728,19.957,7.728z"
           id="path251" />
        <path
           fill="#DDDDDD"
           a:adobe-knockout="false"
           d="M19.905,7.839c1.533,0,2.775,1.243,2.775,2.775      c0,1.532-1.243,2.775-2.775,2.775c-1.532,0-2.775-1.243-2.775-2.775C17.13,9.082,18.373,7.839,19.905,7.839z"
           id="path252" />
        <path
           fill="#E0E0E0"
           a:adobe-knockout="false"
           d="M19.854,7.95c1.434,0,2.597,1.163,2.597,2.597      c0,1.434-1.163,2.597-2.597,2.597c-1.434,0-2.597-1.163-2.597-2.597C17.257,9.113,18.42,7.95,19.854,7.95z"
           id="path253" />
        <path
           fill="#E2E2E2"
           a:adobe-knockout="false"
           d="M19.802,8.061c1.335,0,2.418,1.083,2.418,2.418      c0,1.335-1.083,2.418-2.418,2.418s-2.418-1.083-2.418-2.418C17.384,9.144,18.467,8.061,19.802,8.061z"
           id="path254" />
        <path
           fill="#E4E4E4"
           a:adobe-knockout="false"
           d="M19.751,8.172c1.236,0,2.239,1.003,2.239,2.239s-1.003,2.239-2.239,2.239      c-1.237,0-2.239-1.003-2.239-2.239S18.514,8.172,19.751,8.172z"
           id="path255" />
        <path
           fill="#E7E7E7"
           a:adobe-knockout="false"
           d="M17.639,10.344c0-1.138,0.923-2.061,2.061-2.061s2.061,0.923,2.061,2.061      s-0.923,2.061-2.061,2.061S17.639,11.482,17.639,10.344z"
           id="path256" />
      </g>
      <path
         fill="none"
         stroke="#000000"
         stroke-width="3"
         d="M9.882,14.461C9.882,7.302,15.686,1.5,22.844,1.5     c7.159,0,12.962,5.803,12.962,12.962c0,7.158-5.803,12.962-12.962,12.962C15.686,27.423,9.882,21.62,9.882,14.461z"
         id="path257" />
    </g>
    <g
       id="single_7_">
      <path
         d="M70.097,17.344l-17.773,9.205v35.905c0,0,2.586,1.172,2.816,1.277c0,4.19,0,38.307,0,38.307l24.31,12.74l17.179-11.607     c0,0-0.085-33.244-0.092-36.474c1.276-1.019,4.312-3.435,4.312-3.435V30.107L71.71,16.508L70.097,17.344z"
         id="path259" />
      <g
         id="g260">
        <path
           d="M97.154,32.459L71.796,20.625l-15.778,8.172v31.276l2.816,1.278v38.453l20.376,10.679l13.719-9.271l-0.094-36.293      l4.319-3.438V32.459z"
           id="path261" />
      </g>
      <g
         id="g262">
        <path
           fill="#F386B8"
           d="M58.834,59.228v40.576l20.376,10.679l13.719-9.271l-0.102-39.639L81.896,69.63L58.834,59.228z"
           id="path263" />
      </g>
      <g
         id="g264">
        <path
           fill="#9A0033"
           d="M79.19,68.13l13.725-9.298v42.388l-13.532,9.232L79.19,68.13z"
           id="path265" />
      </g>
      <g
         id="g266">
        <g
           id="g267">
          <defs
             id="defs268">
            <path
               id="XMLID_4_"
               d="M79.188,67.903l13.725-9.298v18.688L79.3,84.246L79.188,67.903z" />
          </defs>
          <clipPath
             id="XMLID_5_">
            <use
               xlink:href="#XMLID_4_"
               id="use271" />
          </clipPath>
          <path
             clip-path="url(#XMLID_5_)"
             fill="#650A0A"
             d="M93.913,66.266L78.19,68.364V57.606h15.723V66.266z"
             id="path272" />
          <path
             clip-path="url(#XMLID_5_)"
             fill="#650A0A"
             d="M93.913,66.543L78.19,68.637v-0.273l15.723-2.098V66.543z"
             id="path273" />
          <path
             clip-path="url(#XMLID_5_)"
             fill="#650A0A"
             d="M93.913,66.817L78.19,68.915v-0.277l15.723-2.094V66.817z"
             id="path274" />
          <path
             clip-path="url(#XMLID_5_)"
             fill="#66090A"
             d="M93.913,67.09L78.19,69.188v-0.273l15.723-2.098V67.09z"
             id="path275" />
          <path
             clip-path="url(#XMLID_5_)"
             fill="#67090A"
             d="M93.913,67.368L78.19,69.461v-0.273l15.723-2.098V67.368z"
             id="path276" />
          <path
             clip-path="url(#XMLID_5_)"
             fill="#67090A"
             d="M93.913,67.641L78.19,69.739v-0.277l15.723-2.094V67.641z"
             id="path277" />
          <path
             clip-path="url(#XMLID_5_)"
             fill="#67090B"
             d="M93.913,67.915L78.19,70.012v-0.273l15.723-2.098V67.915z"
             id="path278" />
          <path
             clip-path="url(#XMLID_5_)"
             fill="#680A0B"
             d="M93.913,68.192L78.19,70.29v-0.277l15.723-2.098V68.192z"
             id="path279" />
          <path
             clip-path="url(#XMLID_5_)"
             fill="#6A0A0B"
             d="M93.913,68.465L78.19,70.563V70.29l15.723-2.098V68.465z"
             id="path280" />
          <path
             clip-path="url(#XMLID_5_)"
             fill="#6B0A0C"
             d="M93.913,68.743L78.19,70.836v-0.273l15.723-2.098V68.743z"
             id="path281" />
          <path
             clip-path="url(#XMLID_5_)"
             fill="#6C090C"
             d="M93.913,69.016L78.19,71.114v-0.277l15.723-2.094V69.016z"
             id="path282" />
          <path
             clip-path="url(#XMLID_5_)"
             fill="#6C090C"
             d="M93.913,69.29L78.19,71.387v-0.273l15.723-2.098V69.29z"
             id="path283" />
          <path
             clip-path="url(#XMLID_5_)"
             fill="#6D090D"
             d="M93.913,69.567L78.19,71.665v-0.277l15.723-2.098V69.567z"
             id="path284" />
          <path
             clip-path="url(#XMLID_5_)"
             fill="#6E0A0E"
             d="M93.913,69.84L78.19,71.938v-0.273l15.723-2.098V69.84z"
             id="path285" />
          <path
             clip-path="url(#XMLID_5_)"
             fill="#6F0A0E"
             d="M93.913,70.118L78.19,72.211v-0.273l15.723-2.098V70.118z"
             id="path286" />
          <path
             clip-path="url(#XMLID_5_)"
             fill="#6F0A0F"
             d="M93.913,70.391L78.19,72.489v-0.277l15.723-2.094V70.391z"
             id="path287" />
          <path
             clip-path="url(#XMLID_5_)"
             fill="#710A0F"
             d="M93.913,70.665L78.19,72.762v-0.273l15.723-2.098V70.665z"
             id="path288" />
          <path
             clip-path="url(#XMLID_5_)"
             fill="#720A10"
             d="M93.913,70.942L78.19,73.04v-0.277l15.723-2.098V70.942z"
             id="path289" />
          <path
             clip-path="url(#XMLID_5_)"
             fill="#730A11"
             d="M93.913,71.215L78.19,73.313V73.04l15.723-2.098V71.215z"
             id="path290" />
          <path
             clip-path="url(#XMLID_5_)"
             fill="#740A12"
             d="M93.913,71.493L78.19,73.586v-0.273l15.723-2.098V71.493z"
             id="path291" />
          <path
             clip-path="url(#XMLID_5_)"
             fill="#750B13"
             d="M93.913,71.766L78.19,73.864v-0.277l15.723-2.094V71.766z"
             id="path292" />
          <path
             clip-path="url(#XMLID_5_)"
             fill="#760B14"
             d="M93.913,72.04L78.19,74.137v-0.273l15.723-2.098V72.04z"
             id="path293" />
          <path
             clip-path="url(#XMLID_5_)"
             fill="#770B15"
             d="M93.913,72.317L78.19,74.415v-0.277l15.723-2.098V72.317z"
             id="path294" />
          <path
             clip-path="url(#XMLID_5_)"
             fill="#770B16"
             d="M93.913,72.59L78.19,74.688v-0.273l15.723-2.098V72.59z"
             id="path295" />
          <path
             clip-path="url(#XMLID_5_)"
             fill="#790B16"
             d="M93.913,72.868L78.19,74.961v-0.273l15.723-2.098V72.868z"
             id="path296" />
          <path
             clip-path="url(#XMLID_5_)"
             fill="#790C17"
             d="M93.913,73.141L78.19,75.235v-0.273l15.723-2.094V73.141z"
             id="path297" />
          <path
             clip-path="url(#XMLID_5_)"
             fill="#7B0C18"
             d="M93.913,73.415L78.19,75.512v-0.277l15.723-2.094V73.415z"
             id="path298" />
          <path
             clip-path="url(#XMLID_5_)"
             fill="#7B0D19"
             d="M93.913,73.688L78.19,75.786v-0.273l15.723-2.098V73.688z"
             id="path299" />
          <path
             clip-path="url(#XMLID_5_)"
             fill="#7D0D1A"
             d="M93.913,73.965L78.19,76.063v-0.277l15.723-2.098V73.965z"
             id="path300" />
          <path
             clip-path="url(#XMLID_5_)"
             fill="#7D0D1B"
             d="M93.913,74.239L78.19,76.336v-0.273l15.723-2.098V74.239z"
             id="path301" />
          <path
             clip-path="url(#XMLID_5_)"
             fill="#7F0D1C"
             d="M93.913,74.516L78.19,76.61v-0.273l15.723-2.098V74.516z"
             id="path302" />
          <path
             clip-path="url(#XMLID_5_)"
             fill="#810D1D"
             d="M93.913,74.79L78.19,76.887V76.61l15.723-2.094V74.79z"
             id="path303" />
          <path
             clip-path="url(#XMLID_5_)"
             fill="#810E1E"
             d="M93.913,75.063L78.19,77.161v-0.273l15.723-2.098V75.063z"
             id="path304" />
          <path
             clip-path="url(#XMLID_5_)"
             fill="#830E1F"
             d="M93.913,75.34L78.19,77.438v-0.277l15.723-2.098V75.34z"
             id="path305" />
          <path
             clip-path="url(#XMLID_5_)"
             fill="#830E20"
             d="M93.913,75.614L78.19,77.711v-0.273l15.723-2.098V75.614z"
             id="path306" />
          <path
             clip-path="url(#XMLID_5_)"
             fill="#850E21"
             d="M93.913,75.891L78.19,77.985v-0.273l15.723-2.098V75.891z"
             id="path307" />
          <path
             clip-path="url(#XMLID_5_)"
             fill="#850E22"
             d="M93.913,76.165L78.19,78.262v-0.277l15.723-2.094V76.165z"
             id="path308" />
          <path
             clip-path="url(#XMLID_5_)"
             fill="#870F23"
             d="M93.913,76.438L78.19,78.536v-0.273l15.723-2.098V76.438z"
             id="path309" />
          <path
             clip-path="url(#XMLID_5_)"
             fill="#870F24"
             d="M93.913,76.715L78.19,78.813v-0.277l15.723-2.098V76.715z"
             id="path310" />
          <path
             clip-path="url(#XMLID_5_)"
             fill="#890F25"
             d="M93.913,76.989L78.19,79.086v-0.273l15.723-2.098V76.989z"
             id="path311" />
          <path
             clip-path="url(#XMLID_5_)"
             fill="#8B0F26"
             d="M93.913,77.266L78.19,79.36v-0.273l15.723-2.098V77.266z"
             id="path312" />
          <path
             clip-path="url(#XMLID_5_)"
             fill="#8B0F27"
             d="M93.913,77.54L78.19,79.637V79.36l15.723-2.094V77.54z"
             id="path313" />
          <path
             clip-path="url(#XMLID_5_)"
             fill="#8C0F28"
             d="M93.913,77.813L78.19,79.911v-0.273l15.723-2.098V77.813z"
             id="path314" />
          <path
             clip-path="url(#XMLID_5_)"
             fill="#8D0F29"
             d="M93.913,78.09L78.19,80.188v-0.277l15.723-2.098V78.09z"
             id="path315" />
          <path
             clip-path="url(#XMLID_5_)"
             fill="#8F0F2A"
             d="M93.913,78.364L78.19,80.461v-0.273l15.723-2.098V78.364z"
             id="path316" />
          <path
             clip-path="url(#XMLID_5_)"
             fill="#8F0F2B"
             d="M93.913,78.641L78.19,80.735v-0.273l15.723-2.098V78.641z"
             id="path317" />
          <path
             clip-path="url(#XMLID_5_)"
             fill="#910F2D"
             d="M93.913,78.915L78.19,81.012v-0.277l15.723-2.094V78.915z"
             id="path318" />
          <path
             clip-path="url(#XMLID_5_)"
             fill="#930F2E"
             d="M93.913,79.188L78.19,81.286v-0.273l15.723-2.098V79.188z"
             id="path319" />
          <path
             clip-path="url(#XMLID_5_)"
             fill="#940F2F"
             d="M93.913,79.465L78.19,81.559v-0.273l15.723-2.098V79.465z"
             id="path320" />
          <path
             clip-path="url(#XMLID_5_)"
             fill="#950F30"
             d="M93.913,79.739L78.19,81.836v-0.277l15.723-2.094V79.739z"
             id="path321" />
          <path
             clip-path="url(#XMLID_5_)"
             fill="#960F31"
             d="M93.913,80.012L78.19,82.11v-0.273l15.723-2.098V80.012z"
             id="path322" />
          <path
             clip-path="url(#XMLID_5_)"
             fill="#980F31"
             d="M93.913,80.29L78.19,82.383V82.11l15.723-2.098V80.29z"
             id="path323" />
          <path
             clip-path="url(#XMLID_5_)"
             fill="#980F32"
             d="M93.913,80.563L78.19,82.661v-0.277l15.723-2.094V80.563z"
             id="path324" />
          <path
             clip-path="url(#XMLID_5_)"
             fill="#9A0F33"
             d="M93.913,80.836L78.19,82.934v-0.273l15.723-2.098V80.836z"
             id="path325" />
          <path
             clip-path="url(#XMLID_5_)"
             fill="#9A0F33"
             d="M78.19,82.934l15.723-2.098v4.41H78.19V82.934z"
             id="path326" />
        </g>
      </g>
      <g
         id="g327">
        <path
           fill="#F386B8"
           d="M56.018,28.796v31.276l27.331,12.399l13.806-10.99V32.459L71.796,20.625L56.018,28.796z"
           id="path328" />
      </g>
      <g
         id="g329">
        <path
           fill="#9A0033"
           d="M83.237,41.818l13.928-9.387l0.059,29.107L83.349,72.506L83.237,41.818z"
           id="path330" />
      </g>
      <g
         id="g331">
        <path
           fill="#666699"
           d="M67.894,70.781c-0.951-0.494-1.848,0.191-1.848,0.191l0.068,32.606l3.627,2.01V72.89      C69.741,72.89,68.788,71.246,67.894,70.781z"
           id="path332" />
      </g>
      <g
         id="g333">
        <path
           fill="#343366"
           d="M67.756,71.531c-0.796-0.156-0.943,0.295-0.943,0.295l-0.175,32.004l2.533,1.223L69.132,72.89      C69.132,72.89,68.499,71.675,67.756,71.531z"
           id="path334" />
      </g>
      <g
         id="g335">
        <path
           fill="#F386B8"
           d="M56.005,28.821L83.22,41.852l13.945-9.421L71.796,20.625L56.005,28.821z"
           id="path336" />
      </g>
      <path
         fill="#FFFFFF"
         d="M56.005,28.821l0.049,1.649l27.178,13.357l-0.012-1.976l1.814-1.218L57.573,27.957L56.005,28.821z"
         id="path337" />
      <g
         opacity="0.8"
         a:adobe-blending-mode="multiply"
         id="g338">
        <path
           fill="#990033"
           a:adobe-blending-mode="normal"
           d="M65.122,26.998c0-2.797,2.373-5.307,6.734-6.418      c0.053,0.004,20.475,9.4,20.48,9.355c-1.656,2.809-6.341,4.229-14.412,4.041C70.855,33.812,65.122,30.851,65.122,26.998z"
           id="path339" />
      </g>
    </g>
    <g
       id="single_6_">
      <path
         d="M47.059,26.07l-18.413,9.535V72.8c0,0,2.68,1.216,2.918,1.324c0,4.342,0,39.685,0,39.685l25.184,13.198l17.797-12.025     c0,0-0.088-34.439-0.096-37.785c1.323-1.055,4.469-3.559,4.469-3.559V39.291L48.73,25.204L47.059,26.07z"
         id="path341" />
      <g
         id="g342">
        <path
           d="M75.09,41.728l-26.271-12.26l-16.347,8.465v32.401l2.919,1.324v39.835l21.107,11.062l14.212-9.604l-0.096-37.598      l4.475-3.561V41.728z"
           id="path343" />
      </g>
      <g
         id="g344">
        <linearGradient
           id="XMLID_7_"
           gradientUnits="userSpaceOnUse"
           x1="46.4365"
           y1="92.0308"
           x2="26.632"
           y2="86.023">
          <stop
             offset="0"
             style="stop-color:#FFCC00"
             id="stop346" />
          <stop
             offset="0.8114"
             style="stop-color:#FFBC00"
             id="stop347" />
          <stop
             offset="1"
             style="stop-color:#FFB800"
             id="stop348" />
        </linearGradient>
        <path
           fill="url(#XMLID_7_)"
           d="M35.392,69.458v42.035l21.107,11.062l14.212-9.604l-0.104-41.063L59.28,80.235L35.392,69.458z"
           id="path352" />
      </g>
      <g
         id="g353">
        <path
           fill="#FF6600"
           d="M56.479,78.682l14.22-9.633v43.911l-14.02,9.565L56.479,78.682z"
           id="path354" />
      </g>
      <g
         id="g355">
        <g
           id="g356">
          <defs
             id="defs357">
            <path
               id="XMLID_8_"
               d="M56.478,78.445l14.219-9.631v14.909l-14.104,7.203L56.478,78.445z" />
          </defs>
          <clipPath
             id="XMLID_9_">
            <use
               xlink:href="#XMLID_8_"
               id="use360" />
          </clipPath>
          <path
             clip-path="url(#XMLID_9_)"
             fill="#F96611"
             d="M55.479,89.161l16.219-5.121v7.887H55.479V89.161z"
             id="path361" />
          <path
             clip-path="url(#XMLID_9_)"
             fill="#F96611"
             d="M55.479,89.04l16.219-5.121v0.121l-16.219,5.121V89.04z"
             id="path362" />
          <path
             clip-path="url(#XMLID_9_)"
             fill="#F96611"
             d="M55.479,88.922l16.219-5.125v0.121L55.479,89.04V88.922z"
             id="path363" />
          <path
             clip-path="url(#XMLID_9_)"
             fill="#F76511"
             d="M55.479,88.801l16.219-5.121v0.117l-16.219,5.125V88.801z"
             id="path364" />
          <path
             clip-path="url(#XMLID_9_)"
             fill="#F76411"
             d="M55.479,88.68l16.219-5.121v0.121l-16.219,5.121V88.68z"
             id="path365" />
          <path
             clip-path="url(#XMLID_9_)"
             fill="#F66411"
             d="M55.479,88.563l16.219-5.121v0.117L55.479,88.68V88.563z"
             id="path366" />
          <path
             clip-path="url(#XMLID_9_)"
             fill="#F66311"
             d="M55.479,88.442l16.219-5.121v0.121l-16.219,5.121V88.442z"
             id="path367" />
          <path
             clip-path="url(#XMLID_9_)"
             fill="#F56210"
             d="M55.479,88.321L71.698,83.2v0.121l-16.219,5.121V88.321z"
             id="path368" />
          <path
             clip-path="url(#XMLID_9_)"
             fill="#F56110"
             d="M55.479,88.204l16.219-5.125V83.2l-16.219,5.121V88.204z"
             id="path369" />
          <path
             clip-path="url(#XMLID_9_)"
             fill="#F45F10"
             d="M55.479,88.083l16.219-5.121v0.117l-16.219,5.125V88.083z"
             id="path370" />
          <path
             clip-path="url(#XMLID_9_)"
             fill="#F45F10"
             d="M55.479,87.961l16.219-5.121v0.121l-16.219,5.121V87.961z"
             id="path371" />
          <path
             clip-path="url(#XMLID_9_)"
             fill="#F35F10"
             d="M55.479,87.844l16.219-5.121v0.117l-16.219,5.121V87.844z"
             id="path372" />
          <path
             clip-path="url(#XMLID_9_)"
             fill="#F35E10"
             d="M55.479,87.723l16.219-5.121v0.121l-16.219,5.121V87.723z"
             id="path373" />
          <path
             clip-path="url(#XMLID_9_)"
             fill="#F25D10"
             d="M55.479,87.602l16.219-5.117v0.117l-16.219,5.121V87.602z"
             id="path374" />
          <path
             clip-path="url(#XMLID_9_)"
             fill="#F25C10"
             d="M55.479,87.485l16.219-5.121v0.121l-16.219,5.117V87.485z"
             id="path375" />
          <path
             clip-path="url(#XMLID_9_)"
             fill="#F15B10"
             d="M71.698,82.243l-16.219,5.121v0.121l16.219-5.121V82.243z"
             id="path376" />
          <path
             clip-path="url(#XMLID_9_)"
             fill="#F05A10"
             d="M55.479,87.243l16.219-5.117v0.117l-16.219,5.121V87.243z"
             id="path377" />
          <path
             clip-path="url(#XMLID_9_)"
             fill="#F05910"
             d="M55.479,87.125l16.219-5.121v0.121l-16.219,5.117V87.125z"
             id="path378" />
          <path
             clip-path="url(#XMLID_9_)"
             fill="#EF5810"
             d="M55.479,87.004l16.219-5.121v0.121l-16.219,5.121V87.004z"
             id="path379" />
          <path
             clip-path="url(#XMLID_9_)"
             fill="#EE5710"
             d="M55.479,86.883l16.219-5.117v0.117l-16.219,5.121V86.883z"
             id="path380" />
          <path
             clip-path="url(#XMLID_9_)"
             fill="#EE560F"
             d="M55.479,86.766l16.219-5.121v0.121l-16.219,5.117V86.766z"
             id="path381" />
          <path
             clip-path="url(#XMLID_9_)"
             fill="#ED560F"
             d="M55.479,86.645l16.219-5.121v0.121l-16.219,5.121V86.645z"
             id="path382" />
          <path
             clip-path="url(#XMLID_9_)"
             fill="#EC550F"
             d="M55.479,86.524l16.219-5.117v0.117l-16.219,5.121V86.524z"
             id="path383" />
          <path
             clip-path="url(#XMLID_9_)"
             fill="#EC530F"
             d="M55.479,86.407l16.219-5.121v0.121l-16.219,5.117V86.407z"
             id="path384" />
          <path
             clip-path="url(#XMLID_9_)"
             fill="#EB520E"
             d="M55.479,86.286l16.219-5.121v0.121l-16.219,5.121V86.286z"
             id="path385" />
          <path
             clip-path="url(#XMLID_9_)"
             fill="#EA510E"
             d="M55.479,86.168l16.219-5.121v0.117l-16.219,5.121V86.168z"
             id="path386" />
          <path
             clip-path="url(#XMLID_9_)"
             fill="#E84F0E"
             d="M71.698,80.926l-16.219,5.121v0.121l16.219-5.121V80.926z"
             id="path387" />
          <path
             clip-path="url(#XMLID_9_)"
             fill="#E74F0D"
             d="M55.479,85.926l16.219-5.121v0.121l-16.219,5.121V85.926z"
             id="path388" />
          <path
             clip-path="url(#XMLID_9_)"
             fill="#E64E0D"
             d="M55.479,85.805l16.219-5.117v0.117l-16.219,5.121V85.805z"
             id="path389" />
          <path
             clip-path="url(#XMLID_9_)"
             fill="#E54D0D"
             d="M55.479,85.688l16.219-5.121v0.121l-16.219,5.117V85.688z"
             id="path390" />
          <path
             clip-path="url(#XMLID_9_)"
             fill="#E34C0C"
             d="M55.479,85.567l16.219-5.121v0.121l-16.219,5.121V85.567z"
             id="path391" />
          <path
             clip-path="url(#XMLID_9_)"
             fill="#E24A0C"
             d="M71.698,80.329L55.479,85.45v0.117l16.219-5.121V80.329z"
             id="path392" />
          <path
             clip-path="url(#XMLID_9_)"
             fill="#E1490B"
             d="M55.479,85.329l16.219-5.121v0.121L55.479,85.45V85.329z"
             id="path393" />
          <path
             clip-path="url(#XMLID_9_)"
             fill="#E1470A"
             d="M55.479,85.211l16.219-5.125v0.121l-16.219,5.121V85.211z"
             id="path394" />
          <path
             clip-path="url(#XMLID_9_)"
             fill="#DF460A"
             d="M71.698,79.969L55.479,85.09v0.121l16.219-5.125V79.969z"
             id="path395" />
          <path
             clip-path="url(#XMLID_9_)"
             fill="#DE450A"
             d="M55.479,84.969l16.219-5.121v0.121L55.479,85.09V84.969z"
             id="path396" />
          <path
             clip-path="url(#XMLID_9_)"
             fill="#DD4509"
             d="M55.479,84.848l16.219-5.121v0.121l-16.219,5.121V84.848z"
             id="path397" />
          <path
             clip-path="url(#XMLID_9_)"
             fill="#DC4408"
             d="M71.698,79.61l-16.219,5.121v0.117l16.219-5.121V79.61z"
             id="path398" />
          <path
             clip-path="url(#XMLID_9_)"
             fill="#DA4308"
             d="M55.479,84.61l16.219-5.121v0.121l-16.219,5.121V84.61z"
             id="path399" />
          <path
             clip-path="url(#XMLID_9_)"
             fill="#D94206"
             d="M55.479,84.493l16.219-5.125v0.121L55.479,84.61V84.493z"
             id="path400" />
          <path
             clip-path="url(#XMLID_9_)"
             fill="#D84108"
             d="M55.479,84.372l16.219-5.121v0.117l-16.219,5.125V84.372z"
             id="path401" />
          <path
             clip-path="url(#XMLID_9_)"
             fill="#D84008"
             d="M55.479,84.25l16.219-5.121v0.121l-16.219,5.121V84.25z"
             id="path402" />
          <path
             clip-path="url(#XMLID_9_)"
             fill="#D73E08"
             d="M55.479,84.133l16.219-5.125v0.121L55.479,84.25V84.133z"
             id="path403" />
          <path
             clip-path="url(#XMLID_9_)"
             fill="#D53C09"
             d="M71.698,78.891l-16.219,5.121v0.121l16.219-5.125V78.891z"
             id="path404" />
          <path
             clip-path="url(#XMLID_9_)"
             fill="#D43B09"
             d="M55.479,83.891l16.219-5.121v0.121l-16.219,5.121V83.891z"
             id="path405" />
          <path
             clip-path="url(#XMLID_9_)"
             fill="#D33A09"
             d="M55.479,83.774l16.219-5.125v0.121l-16.219,5.121V83.774z"
             id="path406" />
          <path
             clip-path="url(#XMLID_9_)"
             fill="#D2390A"
             d="M55.479,83.653l16.219-5.121v0.117l-16.219,5.125V83.653z"
             id="path407" />
          <path
             clip-path="url(#XMLID_9_)"
             fill="#D1380A"
             d="M71.698,78.411l-16.219,5.121v0.121l16.219-5.121V78.411z"
             id="path408" />
          <path
             clip-path="url(#XMLID_9_)"
             fill="#CE360A"
             d="M55.479,83.415l16.219-5.121v0.117l-16.219,5.121V83.415z"
             id="path409" />
          <path
             clip-path="url(#XMLID_9_)"
             fill="#CE350B"
             d="M55.479,83.293l16.219-5.121v0.121l-16.219,5.121V83.293z"
             id="path410" />
          <path
             clip-path="url(#XMLID_9_)"
             fill="#CC340B"
             d="M55.479,83.172l16.219-5.117v0.117l-16.219,5.121V83.172z"
             id="path411" />
          <path
             clip-path="url(#XMLID_9_)"
             fill="#CC340B"
             d="M71.698,78.055l-16.219,5.117V67.813h16.219V78.055z"
             id="path412" />
        </g>
      </g>
      <g
         id="g413">
        <linearGradient
           id="XMLID_10_"
           gradientUnits="userSpaceOnUse"
           x1="57.0615"
           y1="57.0093"
           x2="37.2577"
           y2="51.0017">
          <stop
             offset="0"
             style="stop-color:#FFCC00"
             id="stop415" />
          <stop
             offset="0.8114"
             style="stop-color:#FFBC00"
             id="stop416" />
          <stop
             offset="1"
             style="stop-color:#FFB800"
             id="stop417" />
        </linearGradient>
        <path
           fill="url(#XMLID_10_)"
           d="M32.473,37.933v32.401l28.313,12.845L75.09,71.794V41.728l-26.271-12.26L32.473,37.933z"
           id="path421" />
      </g>
      <g
         id="g422">
        <path
           fill="#FF6600"
           d="M60.672,51.423l14.429-9.726l0.061,30.153L60.786,83.214L60.672,51.423z"
           id="path423" />
      </g>
      <path
         fill="#FF6600"
         d="M44.776,81.427c-0.984-0.514-1.913,0.198-1.913,0.198l0.069,33.778l3.758,2.082V83.613     C46.69,83.613,45.702,81.908,44.776,81.427z"
         id="path424" />
      <path
         fill="#CD3500"
         d="M44.634,82.203c-0.824-0.16-0.978,0.307-0.978,0.307l-0.181,33.154l2.623,1.268L46.06,83.613     C46.06,83.613,45.403,82.354,44.634,82.203z"
         id="path425" />
      <g
         id="g426">
        <linearGradient
           id="XMLID_11_"
           gradientUnits="userSpaceOnUse"
           x1="56.9702"
           y1="39.3638"
           x2="37.9791"
           y2="48.7173">
          <stop
             offset="0"
             style="stop-color:#FFCC00"
             id="stop428" />
          <stop
             offset="0.0962"
             style="stop-color:#FFCF10"
             id="stop429" />
          <stop
             offset="0.2834"
             style="stop-color:#FFD739"
             id="stop430" />
          <stop
             offset="0.5431"
             style="stop-color:#FFE57B"
             id="stop431" />
          <stop
             offset="0.8621"
             style="stop-color:#FFF7D6"
             id="stop432" />
          <stop
             offset="1"
             style="stop-color:#FFFFFF"
             id="stop433" />
        </linearGradient>
        <path
           fill="url(#XMLID_11_)"
           d="M32.46,37.958l28.194,13.5l14.446-9.761L48.819,29.468L32.46,37.958z"
           id="path437" />
      </g>
      <path
         fill="#FFFFFF"
         d="M32.46,37.958l0.051,1.709l28.154,13.838l-0.011-2.047l1.878-1.262L34.086,37.063L32.46,37.958z"
         id="path438" />
      <g
         opacity="0.8"
         a:adobe-blending-mode="multiply"
         id="g439">
        <path
           fill="#FF6600"
           a:adobe-blending-mode="normal"
           d="M41.904,36.07c0-2.897,2.46-5.496,6.978-6.648      c0.054,0.004,21.211,9.738,21.218,9.691c-1.718,2.91-6.569,4.381-14.933,4.187C47.845,43.129,41.904,40.062,41.904,36.07z"
           id="path440" />
      </g>
    </g>
    <g
       a:adobe-knockout="true"
       id="g441">
      <path
         fill="#585858"
         a:adobe-knockout="false"
         d="M62.288,16.967c0-7.159,5.804-12.962,12.962-12.962     c7.159,0,12.962,5.803,12.962,12.962c0,7.158-5.803,12.962-12.962,12.962C68.092,29.929,62.288,24.125,62.288,16.967z"
         id="path442" />
      <path
         fill="#5A5A5A"
         a:adobe-knockout="false"
         d="M75.198,4.117c7.061,0,12.783,5.723,12.783,12.783     c0,7.06-5.723,12.783-12.783,12.783c-7.06,0-12.783-5.724-12.783-12.783C62.415,9.839,68.139,4.117,75.198,4.117z"
         id="path443" />
      <path
         fill="#5C5C5C"
         a:adobe-knockout="false"
         d="M75.147,4.228c6.961,0,12.604,5.643,12.604,12.604     c0,6.961-5.644,12.604-12.604,12.604s-12.605-5.644-12.605-12.604C62.542,9.871,68.187,4.228,75.147,4.228z"
         id="path444" />
      <path
         fill="#5F5F5F"
         a:adobe-knockout="false"
         d="M75.095,4.339c6.863,0,12.426,5.563,12.426,12.425     s-5.562,12.427-12.426,12.427c-6.861,0-12.425-5.564-12.425-12.427S68.233,4.339,75.095,4.339z"
         id="path445" />
      <path
         fill="#616161"
         a:adobe-knockout="false"
         d="M75.044,4.45c6.765,0,12.247,5.483,12.247,12.248     c0,6.763-5.482,12.247-12.247,12.247c-6.764,0-12.247-5.484-12.247-12.247C62.797,9.933,68.28,4.45,75.044,4.45z"
         id="path446" />
      <path
         fill="#636363"
         a:adobe-knockout="false"
         d="M74.992,4.562c6.666,0,12.068,5.403,12.068,12.068     s-5.402,12.069-12.068,12.069c-6.664,0-12.068-5.404-12.068-12.069S68.328,4.562,74.992,4.562z"
         id="path447" />
      <path
         fill="#666666"
         a:adobe-knockout="false"
         d="M74.94,4.672c6.567,0,11.89,5.323,11.89,11.89s-5.322,11.89-11.89,11.89     c-6.565,0-11.89-5.323-11.89-11.89S68.375,4.672,74.94,4.672z"
         id="path448" />
      <path
         fill="#686868"
         a:adobe-knockout="false"
         d="M74.89,4.784c6.468,0,11.711,5.243,11.711,11.711S81.357,28.206,74.89,28.206     s-11.712-5.243-11.712-11.711S68.422,4.784,74.89,4.784z"
         id="path449" />
      <path
         fill="#6A6A6A"
         a:adobe-knockout="false"
         d="M74.838,4.896c6.369,0,11.532,5.163,11.532,11.532     s-5.163,11.532-11.532,11.532c-6.368,0-11.532-5.163-11.532-11.532S68.47,4.896,74.838,4.896z"
         id="path450" />
      <path
         fill="#6D6D6D"
         a:adobe-knockout="false"
         d="M74.786,5.006c6.271,0,11.354,5.082,11.354,11.354     c0,6.27-5.083,11.354-11.354,11.354S63.433,22.629,63.433,16.36C63.433,10.088,68.516,5.006,74.786,5.006z"
         id="path451" />
      <path
         fill="#6F6F6F"
         a:adobe-knockout="false"
         d="M74.734,5.118c6.173,0,11.175,5.002,11.175,11.175     c0,6.171-5.002,11.175-11.175,11.175c-6.171,0-11.175-5.004-11.175-11.175C63.56,10.12,68.563,5.118,74.734,5.118z"
         id="path452" />
      <path
         fill="#717171"
         a:adobe-knockout="false"
         d="M74.683,5.229c6.073,0,10.996,4.923,10.996,10.996     c0,6.072-4.923,10.996-10.996,10.996c-6.072,0-10.996-4.924-10.996-10.996C63.687,10.152,68.61,5.229,74.683,5.229z"
         id="path453" />
      <path
         fill="#747474"
         a:adobe-knockout="false"
         d="M74.631,5.339c5.975,0,10.817,4.844,10.817,10.817     s-4.843,10.817-10.817,10.817c-5.974,0-10.817-4.844-10.817-10.817S68.657,5.339,74.631,5.339z"
         id="path454" />
      <path
         fill="#767676"
         a:adobe-knockout="false"
         d="M74.58,5.451c5.875,0,10.639,4.764,10.639,10.639     c0,5.876-4.764,10.64-10.639,10.64c-5.876,0-10.639-4.764-10.639-10.64C63.941,10.214,68.704,5.451,74.58,5.451z"
         id="path455" />
      <path
         fill="#787878"
         a:adobe-knockout="false"
         d="M74.528,5.562c5.777,0,10.46,4.683,10.46,10.46     c0,5.775-4.683,10.459-10.46,10.459c-5.776,0-10.46-4.684-10.46-10.459C64.068,10.246,68.752,5.562,74.528,5.562z"
         id="path456" />
      <path
         fill="#7B7B7B"
         a:adobe-knockout="false"
         d="M74.477,5.674c5.679,0,10.282,4.603,10.282,10.281     s-4.604,10.282-10.282,10.282c-5.678,0-10.281-4.604-10.281-10.282S68.799,5.674,74.477,5.674z"
         id="path457" />
      <path
         fill="#7D7D7D"
         a:adobe-knockout="false"
         d="M74.426,5.785c5.579,0,10.102,4.523,10.102,10.102S80.005,25.99,74.426,25.99     c-5.58,0-10.103-4.523-10.103-10.103S68.846,5.785,74.426,5.785z"
         id="path458" />
      <path
         fill="#808080"
         a:adobe-knockout="false"
         d="M74.373,5.896c5.481,0,9.925,4.443,9.925,9.924s-4.443,9.924-9.925,9.924     c-5.479,0-9.924-4.443-9.924-9.924S68.894,5.896,74.373,5.896z"
         id="path459" />
      <path
         fill="#828282"
         a:adobe-knockout="false"
         d="M74.321,6.007c5.383,0,9.746,4.362,9.746,9.744s-4.363,9.746-9.746,9.746     c-5.381,0-9.744-4.364-9.744-9.746S68.94,6.007,74.321,6.007z"
         id="path460" />
      <path
         fill="#848484"
         a:adobe-knockout="false"
         d="M74.271,6.119c5.283,0,9.566,4.282,9.566,9.566     c0,5.283-4.283,9.566-9.566,9.566c-5.282,0-9.566-4.283-9.566-9.566C64.704,10.401,68.988,6.119,74.271,6.119z"
         id="path461" />
      <path
         fill="#878787"
         a:adobe-knockout="false"
         d="M74.219,6.23c5.186,0,9.389,4.203,9.389,9.388s-4.203,9.388-9.389,9.388     c-5.184,0-9.387-4.203-9.387-9.388S69.035,6.23,74.219,6.23z"
         id="path462" />
      <path
         fill="#898989"
         a:adobe-knockout="false"
         d="M74.167,6.34c5.087,0,9.21,4.123,9.21,9.209s-4.123,9.21-9.21,9.21     c-5.085,0-9.209-4.124-9.209-9.21S69.082,6.34,74.167,6.34z"
         id="path463" />
      <path
         fill="#8B8B8B"
         a:adobe-knockout="false"
         d="M74.115,6.452c4.987,0,9.03,4.043,9.03,9.03s-4.043,9.03-9.03,9.03     c-4.986,0-9.03-4.043-9.03-9.03S69.129,6.452,74.115,6.452z"
         id="path464" />
      <path
         fill="#8E8E8E"
         a:adobe-knockout="false"
         d="M74.064,6.563c4.889,0,8.852,3.963,8.852,8.852s-3.963,8.853-8.852,8.853     s-8.852-3.964-8.852-8.853S69.176,6.563,74.064,6.563z"
         id="path465" />
      <path
         fill="#909090"
         a:adobe-knockout="false"
         d="M74.013,6.675c4.791,0,8.673,3.882,8.673,8.673     c0,4.789-3.882,8.672-8.673,8.672c-4.789,0-8.672-3.883-8.672-8.672C65.341,10.557,69.224,6.675,74.013,6.675z"
         id="path466" />
      <path
         fill="#929292"
         a:adobe-knockout="false"
         d="M73.961,6.786c4.691,0,8.494,3.803,8.494,8.494     c0,4.69-3.803,8.494-8.494,8.494c-4.69,0-8.494-3.804-8.494-8.494C65.467,10.588,69.271,6.786,73.961,6.786z"
         id="path467" />
      <path
         fill="#959595"
         a:adobe-knockout="false"
         d="M73.909,6.897c4.593,0,8.315,3.723,8.315,8.315     c0,4.592-3.723,8.315-8.315,8.315c-4.592,0-8.315-3.724-8.315-8.315C65.594,10.62,69.317,6.897,73.909,6.897z"
         id="path468" />
      <path
         fill="#979797"
         a:adobe-knockout="false"
         d="M73.858,7.008c4.494,0,8.137,3.643,8.137,8.137     c0,4.493-3.643,8.137-8.137,8.137s-8.137-3.644-8.137-8.137C65.722,10.651,69.364,7.008,73.858,7.008z"
         id="path469" />
      <path
         fill="#999999"
         a:adobe-knockout="false"
         d="M73.807,7.12c4.396,0,7.958,3.562,7.958,7.958     c0,4.395-3.562,7.958-7.958,7.958c-4.395,0-7.958-3.563-7.958-7.958C65.849,10.682,69.412,7.12,73.807,7.12z"
         id="path470" />
      <path
         fill="#9C9C9C"
         a:adobe-knockout="false"
         d="M73.755,7.231c4.297,0,7.779,3.482,7.779,7.779     c0,4.296-3.482,7.779-7.779,7.779c-4.296,0-7.779-3.483-7.779-7.779C65.976,10.713,69.459,7.231,73.755,7.231z"
         id="path471" />
      <path
         fill="#9E9E9E"
         a:adobe-knockout="false"
         d="M73.703,7.341c4.198,0,7.601,3.403,7.601,7.601s-3.402,7.601-7.601,7.601     c-4.197,0-7.601-3.403-7.601-7.601S69.506,7.341,73.703,7.341z"
         id="path472" />
      <path
         fill="#A0A0A0"
         a:adobe-knockout="false"
         d="M73.652,7.453c4.099,0,7.422,3.323,7.422,7.423     c0,4.098-3.323,7.421-7.422,7.421s-7.422-3.323-7.422-7.421C66.23,10.776,69.554,7.453,73.652,7.453z"
         id="path473" />
      <path
         fill="#A3A3A3"
         a:adobe-knockout="false"
         d="M73.601,7.564c4,0,7.243,3.243,7.243,7.243s-3.243,7.243-7.243,7.243     s-7.243-3.243-7.243-7.243S69.601,7.564,73.601,7.564z"
         id="path474" />
      <path
         fill="#A5A5A5"
         a:adobe-knockout="false"
         d="M73.549,7.675c3.901,0,7.064,3.163,7.064,7.064s-3.163,7.064-7.064,7.064     s-7.064-3.163-7.064-7.064S69.647,7.675,73.549,7.675z"
         id="path475" />
      <path
         fill="#A7A7A7"
         a:adobe-knockout="false"
         d="M73.497,7.787c3.804,0,6.886,3.083,6.886,6.886s-3.082,6.886-6.886,6.886     c-3.803,0-6.886-3.083-6.886-6.886S69.694,7.787,73.497,7.787z"
         id="path476" />
      <path
         fill="#AAAAAA"
         a:adobe-knockout="false"
         d="M73.445,7.898c3.705,0,6.707,3.003,6.707,6.707s-3.002,6.707-6.707,6.707     c-3.703,0-6.706-3.003-6.706-6.707S69.742,7.898,73.445,7.898z"
         id="path477" />
      <path
         fill="#ACACAC"
         a:adobe-knockout="false"
         d="M73.395,8.009c3.605,0,6.528,2.923,6.528,6.528S77,21.066,73.395,21.066     s-6.528-2.923-6.528-6.528S69.789,8.009,73.395,8.009z"
         id="path478" />
      <path
         fill="#AEAEAE"
         a:adobe-knockout="false"
         d="M73.343,8.121c3.507,0,6.35,2.843,6.35,6.35c0,3.506-2.843,6.35-6.35,6.35     s-6.35-2.844-6.35-6.35C66.993,10.963,69.836,8.121,73.343,8.121z"
         id="path479" />
      <path
         fill="#B1B1B1"
         a:adobe-knockout="false"
         d="M73.291,8.232c3.408,0,6.171,2.763,6.171,6.171     c0,3.407-2.763,6.171-6.171,6.171c-3.407,0-6.171-2.764-6.171-6.171C67.12,10.995,69.884,8.232,73.291,8.232z"
         id="path480" />
      <path
         fill="#B3B3B3"
         a:adobe-knockout="false"
         d="M73.239,8.343c3.31,0,5.992,2.683,5.992,5.992     c0,3.309-2.683,5.992-5.992,5.992c-3.309,0-5.992-2.684-5.992-5.992C67.247,11.026,69.931,8.343,73.239,8.343z"
         id="path481" />
      <path
         fill="#B5B5B5"
         a:adobe-knockout="false"
         d="M73.188,8.455c3.211,0,5.814,2.603,5.814,5.812     c0,3.211-2.604,5.813-5.814,5.813c-3.21,0-5.812-2.603-5.812-5.813C67.375,11.057,69.978,8.455,73.188,8.455z"
         id="path482" />
      <path
         fill="#B8B8B8"
         a:adobe-knockout="false"
         d="M73.137,8.565c3.111,0,5.635,2.523,5.635,5.635     c0,3.112-2.523,5.635-5.635,5.635c-3.112,0-5.635-2.522-5.635-5.635C67.502,11.088,70.024,8.565,73.137,8.565z"
         id="path483" />
      <path
         fill="#BABABA"
         a:adobe-knockout="false"
         d="M73.085,8.676c3.013,0,5.456,2.443,5.456,5.456s-2.443,5.456-5.456,5.456     s-5.456-2.443-5.456-5.456S70.072,8.676,73.085,8.676z"
         id="path484" />
      <path
         fill="#BCBCBC"
         a:adobe-knockout="false"
         d="M73.033,8.788c2.915,0,5.277,2.363,5.277,5.277s-2.362,5.277-5.277,5.277     c-2.914,0-5.277-2.363-5.277-5.277S70.119,8.788,73.033,8.788z"
         id="path485" />
      <path
         fill="#BFBFBF"
         a:adobe-knockout="false"
         d="M72.981,8.899c2.816,0,5.099,2.282,5.099,5.099     c0,2.815-2.282,5.099-5.099,5.099c-2.815,0-5.099-2.283-5.099-5.099C67.883,11.181,70.166,8.899,72.981,8.899z"
         id="path486" />
      <path
         fill="#C1C1C1"
         a:adobe-knockout="false"
         d="M72.93,9.01c2.718,0,4.921,2.202,4.921,4.92c0,2.717-2.203,4.92-4.921,4.92     c-2.716,0-4.919-2.203-4.919-4.92C68.011,11.212,70.214,9.01,72.93,9.01z"
         id="path487" />
      <path
         fill="#C3C3C3"
         a:adobe-knockout="false"
         d="M72.879,9.122c2.618,0,4.741,2.122,4.741,4.741     c0,2.618-2.123,4.741-4.741,4.741s-4.741-2.123-4.741-4.741C68.138,11.244,70.261,9.122,72.879,9.122z"
         id="path488" />
      <path
         fill="#C6C6C6"
         a:adobe-knockout="false"
         d="M72.827,9.233c2.52,0,4.562,2.042,4.562,4.562c0,2.52-2.043,4.562-4.562,4.562     s-4.562-2.043-4.562-4.562C68.265,11.275,70.308,9.233,72.827,9.233z"
         id="path489" />
      <path
         fill="#C8C8C8"
         a:adobe-knockout="false"
         d="M72.775,9.344c2.421,0,4.384,1.962,4.384,4.383s-1.963,4.385-4.384,4.385     s-4.384-1.964-4.384-4.385S70.354,9.344,72.775,9.344z"
         id="path490" />
      <path
         fill="#CACACA"
         a:adobe-knockout="false"
         d="M72.724,9.455c2.322,0,4.205,1.883,4.205,4.205s-1.883,4.205-4.205,4.205     c-2.321,0-4.204-1.883-4.204-4.205S70.402,9.455,72.724,9.455z"
         id="path491" />
      <path
         fill="#CDCDCD"
         a:adobe-knockout="false"
         d="M72.673,9.566c2.224,0,4.026,1.803,4.026,4.026s-1.803,4.026-4.026,4.026     s-4.026-1.803-4.026-4.026S70.449,9.566,72.673,9.566z"
         id="path492" />
      <path
         fill="#CFCFCF"
         a:adobe-knockout="false"
         d="M72.621,9.677c2.125,0,3.848,1.723,3.848,3.848s-1.723,3.848-3.848,3.848     s-3.848-1.723-3.848-3.848S70.496,9.677,72.621,9.677z"
         id="path493" />
      <path
         fill="#D1D1D1"
         a:adobe-knockout="false"
         d="M72.569,9.789c2.026,0,3.669,1.643,3.669,3.669s-1.643,3.669-3.669,3.669     c-2.025,0-3.669-1.643-3.669-3.669S70.544,9.789,72.569,9.789z"
         id="path494" />
      <path
         fill="#D4D4D4"
         a:adobe-knockout="false"
         d="M72.518,9.9c1.928,0,3.49,1.562,3.49,3.49c0,1.927-1.562,3.49-3.49,3.49     c-1.927,0-3.49-1.563-3.49-3.49C69.027,11.462,70.591,9.9,72.518,9.9z"
         id="path495" />
      <path
         fill="#D6D6D6"
         a:adobe-knockout="false"
         d="M72.467,10.011c1.828,0,3.312,1.482,3.312,3.312     c0,1.828-1.483,3.312-3.312,3.312c-1.829,0-3.312-1.483-3.312-3.312C69.155,11.494,70.638,10.011,72.467,10.011z"
         id="path496" />
      <path
         fill="#D8D8D8"
         a:adobe-knockout="false"
         d="M72.415,10.123c1.729,0,3.133,1.402,3.133,3.133     c0,1.729-1.403,3.133-3.133,3.133c-1.73,0-3.133-1.403-3.133-3.133C69.282,11.525,70.685,10.123,72.415,10.123z"
         id="path497" />
      <path
         fill="#DBDBDB"
         a:adobe-knockout="false"
         d="M72.363,10.234c1.631,0,2.954,1.322,2.954,2.954     c0,1.631-1.323,2.954-2.954,2.954s-2.954-1.323-2.954-2.954C69.409,11.556,70.732,10.234,72.363,10.234z"
         id="path498" />
      <path
         fill="#DDDDDD"
         a:adobe-knockout="false"
         d="M72.312,10.344c1.532,0,2.775,1.243,2.775,2.775     c0,1.533-1.243,2.775-2.775,2.775s-2.775-1.242-2.775-2.775C69.536,11.587,70.779,10.344,72.312,10.344z"
         id="path499" />
      <path
         fill="#E0E0E0"
         a:adobe-knockout="false"
         d="M72.26,10.456c1.435,0,2.597,1.163,2.597,2.597     c0,1.435-1.162,2.597-2.597,2.597c-1.434,0-2.597-1.162-2.597-2.597C69.663,11.619,70.826,10.456,72.26,10.456z"
         id="path500" />
      <path
         fill="#E2E2E2"
         a:adobe-knockout="false"
         d="M72.209,10.567c1.335,0,2.418,1.083,2.418,2.418s-1.083,2.418-2.418,2.418     c-1.336,0-2.418-1.083-2.418-2.418S70.873,10.567,72.209,10.567z"
         id="path501" />
      <path
         fill="#E4E4E4"
         a:adobe-knockout="false"
         d="M72.157,10.678c1.236,0,2.239,1.003,2.239,2.239s-1.003,2.239-2.239,2.239     s-2.239-1.003-2.239-2.239S70.921,10.678,72.157,10.678z"
         id="path502" />
      <path
         fill="#E7E7E7"
         a:adobe-knockout="false"
         d="M70.045,12.85c0-1.138,0.923-2.061,2.061-2.061s2.061,0.923,2.061,2.061     s-0.923,2.061-2.061,2.061S70.045,13.988,70.045,12.85z"
         id="path503" />
    </g>
    <path
       fill="none"
       stroke="#000000"
       stroke-width="3"
       d="M62.205,16.974c0-7.159,5.804-12.963,12.962-12.963    s12.961,5.804,12.961,12.963c0,7.157-5.803,12.961-12.961,12.961S62.205,24.131,62.205,16.974z"
       id="path504" />
    <g
       a:adobe-knockout="true"
       id="g505">
      <path
         fill="#585858"
         a:adobe-knockout="false"
         d="M39.144,25.709c0-7.159,5.804-12.962,12.962-12.962     c7.159,0,12.962,5.803,12.962,12.962c0,7.158-5.803,12.962-12.962,12.962C44.947,38.671,39.144,32.868,39.144,25.709z"
         id="path506" />
      <path
         fill="#5A5A5A"
         a:adobe-knockout="false"
         d="M52.054,12.859c7.061,0,12.783,5.723,12.783,12.783     c0,7.06-5.723,12.783-12.783,12.783c-7.06,0-12.783-5.724-12.783-12.783C39.271,18.582,44.994,12.859,52.054,12.859z"
         id="path507" />
      <path
         fill="#5C5C5C"
         a:adobe-knockout="false"
         d="M52.002,12.97c6.962,0,12.605,5.643,12.605,12.604     c0,6.961-5.644,12.604-12.605,12.604c-6.96,0-12.604-5.644-12.604-12.604C39.398,18.613,45.042,12.97,52.002,12.97z"
         id="path508" />
      <path
         fill="#5F5F5F"
         a:adobe-knockout="false"
         d="M51.951,13.081c6.862,0,12.425,5.563,12.425,12.425     s-5.562,12.427-12.425,12.427s-12.427-5.564-12.427-12.427S45.089,13.081,51.951,13.081z"
         id="path509" />
      <path
         fill="#616161"
         a:adobe-knockout="false"
         d="M51.899,13.192c6.765,0,12.247,5.483,12.247,12.247     s-5.482,12.248-12.247,12.248c-6.764,0-12.247-5.484-12.247-12.248S45.136,13.192,51.899,13.192z"
         id="path510" />
      <path
         fill="#636363"
         a:adobe-knockout="false"
         d="M51.848,13.304c6.666,0,12.068,5.403,12.068,12.069     c0,6.664-5.402,12.068-12.068,12.068c-6.664,0-12.068-5.404-12.068-12.068C39.779,18.707,45.184,13.304,51.848,13.304z"
         id="path511" />
      <path
         fill="#666666"
         a:adobe-knockout="false"
         d="M51.796,13.415c6.566,0,11.89,5.322,11.89,11.89     c0,6.566-5.323,11.89-11.89,11.89s-11.89-5.323-11.89-11.89C39.906,18.737,45.229,13.415,51.796,13.415z"
         id="path512" />
      <path
         fill="#686868"
         a:adobe-knockout="false"
         d="M51.745,13.526c6.468,0,11.711,5.243,11.711,11.71     s-5.243,11.711-11.711,11.711s-11.712-5.243-11.712-11.711S45.277,13.526,51.745,13.526z"
         id="path513" />
      <path
         fill="#6A6A6A"
         a:adobe-knockout="false"
         d="M51.693,13.637c6.369,0,11.532,5.163,11.532,11.532     s-5.163,11.533-11.532,11.533s-11.532-5.164-11.532-11.533S45.324,13.637,51.693,13.637z"
         id="path514" />
      <path
         fill="#6D6D6D"
         a:adobe-knockout="false"
         d="M51.642,13.749c6.271,0,11.354,5.083,11.354,11.354     c0,6.27-5.083,11.354-11.354,11.354s-11.354-5.084-11.354-11.354C40.288,18.832,45.371,13.749,51.642,13.749z"
         id="path515" />
      <path
         fill="#6F6F6F"
         a:adobe-knockout="false"
         d="M51.59,13.86c6.172,0,11.175,5.002,11.175,11.175     c0,6.171-5.003,11.175-11.175,11.175c-6.171,0-11.175-5.004-11.175-11.175C40.415,18.862,45.419,13.86,51.59,13.86z"
         id="path516" />
      <path
         fill="#717171"
         a:adobe-knockout="false"
         d="M51.538,13.971c6.073,0,10.996,4.923,10.996,10.996     c0,6.072-4.923,10.996-10.996,10.996c-6.072,0-10.996-4.924-10.996-10.996C40.542,18.894,45.466,13.971,51.538,13.971z"
         id="path517" />
      <path
         fill="#747474"
         a:adobe-knockout="false"
         d="M51.486,14.082c5.975,0,10.817,4.842,10.817,10.818     c0,5.974-4.843,10.816-10.817,10.816c-5.974,0-10.817-4.843-10.817-10.816C40.669,18.924,45.513,14.082,51.486,14.082z"
         id="path518" />
      <path
         fill="#767676"
         a:adobe-knockout="false"
         d="M51.436,14.193c5.876,0,10.638,4.763,10.638,10.638     c0,5.876-4.762,10.64-10.638,10.64c-5.875,0-10.639-4.764-10.639-10.64C40.797,18.957,45.561,14.193,51.436,14.193z"
         id="path519" />
      <path
         fill="#787878"
         a:adobe-knockout="false"
         d="M51.384,14.304c5.777,0,10.46,4.683,10.46,10.46s-4.683,10.461-10.46,10.461     c-5.776,0-10.46-4.684-10.46-10.461S45.607,14.304,51.384,14.304z"
         id="path520" />
      <path
         fill="#7B7B7B"
         a:adobe-knockout="false"
         d="M51.332,14.416c5.679,0,10.281,4.604,10.281,10.282     c0,5.678-4.603,10.28-10.281,10.28c-5.678,0-10.28-4.603-10.28-10.28C41.052,19.019,45.654,14.416,51.332,14.416z"
         id="path521" />
      <path
         fill="#7D7D7D"
         a:adobe-knockout="false"
         d="M51.28,14.527c5.581,0,10.104,4.523,10.104,10.103S56.861,34.732,51.28,34.732     c-5.578,0-10.102-4.523-10.102-10.103S45.702,14.527,51.28,14.527z"
         id="path522" />
      <path
         fill="#808080"
         a:adobe-knockout="false"
         d="M51.229,14.638c5.48,0,9.924,4.443,9.924,9.924s-4.443,9.924-9.924,9.924     s-9.924-4.443-9.924-9.924S45.749,14.638,51.229,14.638z"
         id="path523" />
      <path
         fill="#828282"
         a:adobe-knockout="false"
         d="M51.178,14.75c5.382,0,9.744,4.362,9.744,9.745     c0,5.382-4.362,9.745-9.744,9.745s-9.745-4.363-9.745-9.745C41.433,19.112,45.796,14.75,51.178,14.75z"
         id="path524" />
      <path
         fill="#848484"
         a:adobe-knockout="false"
         d="M51.126,14.861c5.283,0,9.566,4.282,9.566,9.566     c0,5.283-4.283,9.566-9.566,9.566s-9.566-4.283-9.566-9.566C41.56,19.143,45.843,14.861,51.126,14.861z"
         id="path525" />
      <path
         fill="#878787"
         a:adobe-knockout="false"
         d="M51.075,14.972c5.185,0,9.387,4.203,9.387,9.388s-4.202,9.388-9.387,9.388     s-9.389-4.203-9.389-9.388S45.891,14.972,51.075,14.972z"
         id="path526" />
      <path
         fill="#898989"
         a:adobe-knockout="false"
         d="M51.022,15.083c5.087,0,9.21,4.122,9.21,9.209c0,5.085-4.123,9.209-9.21,9.209     c-5.085,0-9.209-4.124-9.209-9.209C41.813,19.206,45.938,15.083,51.022,15.083z"
         id="path527" />
      <path
         fill="#8B8B8B"
         a:adobe-knockout="false"
         d="M50.971,15.194c4.988,0,9.03,4.043,9.03,9.03s-4.042,9.03-9.03,9.03     c-4.986,0-9.03-4.043-9.03-9.03S45.984,15.194,50.971,15.194z"
         id="path528" />
      <path
         fill="#8E8E8E"
         a:adobe-knockout="false"
         d="M50.92,15.305c4.889,0,8.852,3.963,8.852,8.853     c0,4.888-3.963,8.851-8.852,8.851s-8.852-3.963-8.852-8.851C42.068,19.268,46.031,15.305,50.92,15.305z"
         id="path529" />
      <path
         fill="#909090"
         a:adobe-knockout="false"
         d="M50.868,15.417c4.79,0,8.673,3.884,8.673,8.673     c0,4.79-3.883,8.674-8.673,8.674c-4.789,0-8.673-3.884-8.673-8.674C42.195,19.3,46.079,15.417,50.868,15.417z"
         id="path530" />
      <path
         fill="#929292"
         a:adobe-knockout="false"
         d="M50.816,15.528c4.691,0,8.494,3.803,8.494,8.494     c0,4.69-3.803,8.494-8.494,8.494c-4.69,0-8.494-3.804-8.494-8.494C42.322,19.331,46.126,15.528,50.816,15.528z"
         id="path531" />
      <path
         fill="#959595"
         a:adobe-knockout="false"
         d="M50.765,15.639c4.593,0,8.315,3.723,8.315,8.315     c0,4.592-3.723,8.315-8.315,8.315c-4.592,0-8.315-3.724-8.315-8.315C42.449,19.362,46.173,15.639,50.765,15.639z"
         id="path532" />
      <path
         fill="#979797"
         a:adobe-knockout="false"
         d="M50.714,15.75c4.493,0,8.137,3.643,8.137,8.137     c0,4.493-3.644,8.137-8.137,8.137s-8.137-3.644-8.137-8.137C42.577,19.393,46.221,15.75,50.714,15.75z"
         id="path533" />
      <path
         fill="#999999"
         a:adobe-knockout="false"
         d="M50.662,15.862c4.396,0,7.958,3.563,7.958,7.958s-3.562,7.958-7.958,7.958     c-4.395,0-7.958-3.563-7.958-7.958S46.268,15.862,50.662,15.862z"
         id="path534" />
      <path
         fill="#9C9C9C"
         a:adobe-knockout="false"
         d="M50.61,15.973c4.297,0,7.779,3.482,7.779,7.779     c0,4.296-3.482,7.779-7.779,7.779c-4.296,0-7.779-3.483-7.779-7.779C42.831,19.456,46.314,15.973,50.61,15.973z"
         id="path535" />
      <path
         fill="#9E9E9E"
         a:adobe-knockout="false"
         d="M50.559,16.083c4.198,0,7.601,3.403,7.601,7.601s-3.402,7.601-7.601,7.601     c-4.197,0-7.601-3.403-7.601-7.601S46.361,16.083,50.559,16.083z"
         id="path536" />
      <path
         fill="#A0A0A0"
         a:adobe-knockout="false"
         d="M50.508,16.196c4.099,0,7.422,3.322,7.422,7.421s-3.323,7.422-7.422,7.422     s-7.422-3.323-7.422-7.422S46.409,16.196,50.508,16.196z"
         id="path537" />
      <path
         fill="#A3A3A3"
         a:adobe-knockout="false"
         d="M50.456,16.306c4,0,7.243,3.243,7.243,7.243s-3.243,7.243-7.243,7.243     s-7.243-3.243-7.243-7.243S46.456,16.306,50.456,16.306z"
         id="path538" />
      <path
         fill="#A5A5A5"
         a:adobe-knockout="false"
         d="M50.404,16.417c3.901,0,7.064,3.163,7.064,7.064s-3.163,7.064-7.064,7.064     s-7.064-3.163-7.064-7.064S46.503,16.417,50.404,16.417z"
         id="path539" />
      <path
         fill="#A7A7A7"
         a:adobe-knockout="false"
         d="M50.353,16.529c3.804,0,6.886,3.083,6.886,6.886S54.156,30.3,50.353,30.3     c-3.803,0-6.886-3.083-6.886-6.886S46.55,16.529,50.353,16.529z"
         id="path540" />
      <path
         fill="#AAAAAA"
         a:adobe-knockout="false"
         d="M50.301,16.64c3.705,0,6.708,3.003,6.708,6.707s-3.003,6.707-6.708,6.707     c-3.703,0-6.707-3.003-6.707-6.707S46.598,16.64,50.301,16.64z"
         id="path541" />
      <path
         fill="#ACACAC"
         a:adobe-knockout="false"
         d="M50.25,16.751c3.605,0,6.528,2.923,6.528,6.528s-2.923,6.528-6.528,6.528     s-6.528-2.923-6.528-6.528S46.645,16.751,50.25,16.751z"
         id="path542" />
      <path
         fill="#AEAEAE"
         a:adobe-knockout="false"
         d="M50.198,16.863c3.507,0,6.35,2.843,6.35,6.35c0,3.506-2.843,6.35-6.35,6.35     s-6.35-2.844-6.35-6.35C43.849,19.706,46.691,16.863,50.198,16.863z"
         id="path543" />
      <path
         fill="#B1B1B1"
         a:adobe-knockout="false"
         d="M50.146,16.974c3.408,0,6.171,2.763,6.171,6.171     c0,3.407-2.763,6.171-6.171,6.171c-3.407,0-6.171-2.764-6.171-6.171C43.976,19.737,46.739,16.974,50.146,16.974z"
         id="path544" />
      <path
         fill="#B3B3B3"
         a:adobe-knockout="false"
         d="M50.095,17.084c3.31,0,5.992,2.684,5.992,5.992     c0,3.31-2.683,5.992-5.992,5.992c-3.309,0-5.992-2.683-5.992-5.992C44.103,19.768,46.786,17.084,50.095,17.084z"
         id="path545" />
      <path
         fill="#B5B5B5"
         a:adobe-knockout="false"
         d="M50.043,17.197c3.211,0,5.814,2.603,5.814,5.812     c0,3.211-2.604,5.813-5.814,5.813c-3.21,0-5.812-2.603-5.812-5.813C44.23,19.799,46.833,17.197,50.043,17.197z"
         id="path546" />
      <path
         fill="#B8B8B8"
         a:adobe-knockout="false"
         d="M49.992,17.307c3.111,0,5.635,2.523,5.635,5.635     c0,3.112-2.523,5.635-5.635,5.635c-3.112,0-5.635-2.522-5.635-5.635C44.357,19.831,46.88,17.307,49.992,17.307z"
         id="path547" />
      <path
         fill="#BABABA"
         a:adobe-knockout="false"
         d="M49.94,17.418c3.013,0,5.456,2.443,5.456,5.456s-2.443,5.456-5.456,5.456     s-5.456-2.443-5.456-5.456S46.928,17.418,49.94,17.418z"
         id="path548" />
      <path
         fill="#BCBCBC"
         a:adobe-knockout="false"
         d="M49.889,17.53c2.915,0,5.277,2.362,5.277,5.277     c0,2.914-2.362,5.277-5.277,5.277c-2.914,0-5.277-2.363-5.277-5.277C44.611,19.892,46.975,17.53,49.889,17.53z"
         id="path549" />
      <path
         fill="#BFBFBF"
         a:adobe-knockout="false"
         d="M49.837,17.641c2.816,0,5.099,2.283,5.099,5.099s-2.282,5.099-5.099,5.099     c-2.815,0-5.099-2.283-5.099-5.099S47.021,17.641,49.837,17.641z"
         id="path550" />
      <path
         fill="#C1C1C1"
         a:adobe-knockout="false"
         d="M49.786,17.752c2.717,0,4.92,2.202,4.92,4.92c0,2.717-2.203,4.92-4.92,4.92     s-4.92-2.203-4.92-4.92C44.866,19.955,47.069,17.752,49.786,17.752z"
         id="path551" />
      <path
         fill="#C3C3C3"
         a:adobe-knockout="false"
         d="M49.734,17.864c2.618,0,4.741,2.123,4.741,4.741s-2.123,4.741-4.741,4.741     s-4.741-2.123-4.741-4.741S47.116,17.864,49.734,17.864z"
         id="path552" />
      <path
         fill="#C6C6C6"
         a:adobe-knockout="false"
         d="M49.683,17.975c2.52,0,4.562,2.042,4.562,4.562     c0,2.519-2.043,4.562-4.562,4.562s-4.562-2.044-4.562-4.562C45.12,20.017,47.163,17.975,49.683,17.975z"
         id="path553" />
      <path
         fill="#C8C8C8"
         a:adobe-knockout="false"
         d="M49.631,18.085c2.421,0,4.384,1.963,4.384,4.384s-1.963,4.385-4.384,4.385     s-4.384-1.964-4.384-4.385S47.21,18.085,49.631,18.085z"
         id="path554" />
      <path
         fill="#CACACA"
         a:adobe-knockout="false"
         d="M49.579,18.197c2.322,0,4.205,1.883,4.205,4.205s-1.883,4.205-4.205,4.205     c-2.321,0-4.205-1.883-4.205-4.205S47.258,18.197,49.579,18.197z"
         id="path555" />
      <path
         fill="#CDCDCD"
         a:adobe-knockout="false"
         d="M49.528,18.308c2.224,0,4.026,1.803,4.026,4.026s-1.803,4.026-4.026,4.026     s-4.026-1.803-4.026-4.026S47.305,18.308,49.528,18.308z"
         id="path556" />
      <path
         fill="#CFCFCF"
         a:adobe-knockout="false"
         d="M49.477,18.419c2.125,0,3.848,1.723,3.848,3.848s-1.723,3.848-3.848,3.848     s-3.848-1.723-3.848-3.848S47.352,18.419,49.477,18.419z"
         id="path557" />
      <path
         fill="#D1D1D1"
         a:adobe-knockout="false"
         d="M49.425,18.531c2.026,0,3.669,1.643,3.669,3.669s-1.643,3.669-3.669,3.669     c-2.025,0-3.669-1.643-3.669-3.669S47.399,18.531,49.425,18.531z"
         id="path558" />
      <path
         fill="#D4D4D4"
         a:adobe-knockout="false"
         d="M49.373,18.642c1.928,0,3.49,1.562,3.49,3.49c0,1.927-1.562,3.49-3.49,3.49     c-1.927,0-3.49-1.563-3.49-3.49C45.883,20.205,47.446,18.642,49.373,18.642z"
         id="path559" />
      <path
         fill="#D6D6D6"
         a:adobe-knockout="false"
         d="M49.322,18.753c1.828,0,3.312,1.482,3.312,3.312     c0,1.828-1.483,3.312-3.312,3.312c-1.829,0-3.312-1.483-3.312-3.312C46.011,20.236,47.493,18.753,49.322,18.753z"
         id="path560" />
      <path
         fill="#D8D8D8"
         a:adobe-knockout="false"
         d="M49.271,18.865c1.729,0,3.133,1.402,3.133,3.133     c0,1.729-1.403,3.133-3.133,3.133c-1.73,0-3.133-1.403-3.133-3.133C46.138,20.267,47.54,18.865,49.271,18.865z"
         id="path561" />
      <path
         fill="#DBDBDB"
         a:adobe-knockout="false"
         d="M49.219,18.976c1.631,0,2.954,1.322,2.954,2.954     c0,1.631-1.323,2.954-2.954,2.954s-2.954-1.323-2.954-2.954C46.265,20.298,47.588,18.976,49.219,18.976z"
         id="path562" />
      <path
         fill="#DDDDDD"
         a:adobe-knockout="false"
         d="M49.167,19.086c1.532,0,2.775,1.243,2.775,2.775     c0,1.533-1.243,2.775-2.775,2.775s-2.775-1.242-2.775-2.775C46.392,20.33,47.635,19.086,49.167,19.086z"
         id="path563" />
      <path
         fill="#E0E0E0"
         a:adobe-knockout="false"
         d="M49.115,19.198c1.435,0,2.597,1.163,2.597,2.597     c0,1.435-1.162,2.597-2.597,2.597c-1.434,0-2.597-1.162-2.597-2.597C46.519,20.361,47.682,19.198,49.115,19.198z"
         id="path564" />
      <path
         fill="#E2E2E2"
         a:adobe-knockout="false"
         d="M49.064,19.309c1.335,0,2.418,1.083,2.418,2.418s-1.083,2.418-2.418,2.418     c-1.336,0-2.418-1.083-2.418-2.418S47.729,19.309,49.064,19.309z"
         id="path565" />
      <path
         fill="#E4E4E4"
         a:adobe-knockout="false"
         d="M49.013,19.42c1.236,0,2.239,1.003,2.239,2.239s-1.003,2.239-2.239,2.239     s-2.239-1.003-2.239-2.239S47.776,19.42,49.013,19.42z"
         id="path566" />
      <path
         fill="#E7E7E7"
         a:adobe-knockout="false"
         d="M46.9,21.592c0-1.138,0.923-2.061,2.061-2.061s2.061,0.923,2.061,2.061     s-0.923,2.061-2.061,2.061S46.9,22.73,46.9,21.592z"
         id="path567" />
    </g>
    <path
       fill="none"
       stroke="#000000"
       stroke-width="3"
       d="M38.744,25.499c0-7.416,6.012-13.428,13.427-13.428    c7.417,0,13.429,6.012,13.429,13.428s-6.012,13.428-13.429,13.428C44.756,38.926,38.744,32.915,38.744,25.499z"
       id="path568" />
  </g>
</svg>
