/* XPM */
static char *gif[]={
"32 32 7 1",
"c c #000000",
"b c #008080",
"e c #808000",
"# c #808080",
"a c #c0c0c0",
"d c #ff0000",
". c #ffffff",
".#####################..........",
".#...................##.........",
".#...................#a#........",
".#..aaaaaaaaaaaaaaaaa#.a#.......",
".#..aaaaaaaaaaaaaaaaa#..a#......",
".#..aaaaaaaabbbbbaaaa#...a#.....",
".#..aaaaaaabbbbbbbaaa#....a#....",
".#..aaaaaabbb.b.bbbaa#.....a#...",
".#..aaaaaabb.b.b.bbaacccccccc...",
".#..aaaaaabbb.b.bbbaaa######c#..",
".#..aaaaaabb.b.b.bbaaaaaaa..c#..",
".#..aaaaaabbb.b.bbbaaaaaaa..c#..",
".#..aaaaaaabbbbbbbaaaaaaaa..c#..",
".#..aaaaaaaabbbbbaaaaaaaaa..c#..",
".#..aaaaaaaaaaaaaaaaaaaaaa..c#..",
".#..aaddaaaaaaaaaaaaaaaaaa..c#..",
".#..aadddaaaaaaaaaaaaaaaaa..c#..",
".#..aaddddaaaaaaeeeeeeeeaa..c#..",
".#..aadd.ddaaaaaeeeeeeeeaa..c#..",
".#..aaddd.ddaaaaeee.e.eeaa..c#..",
".#..aadd.d.ddaaaee.e.eeeaa..c#..",
".#..aaddd.dddaaaeee.e.eeaa..c#..",
".#..aadd.dddaaaaee.e.eeeaa..c#..",
".#..aadddddaaaaaeeeeeeeeaa..c#..",
".#..aaddddaaaaaaeeeeeeeeaa..c#..",
".#..aadddaaaaaaaaaaaaaaaaa..c#..",
".#..aaddaaaaaaaaaaaaaaaaaa..c#..",
".#..aaaaaaaaaaaaaaaaaaaaaa..c#..",
".#..........................c#..",
".#..........................c#..",
".cccccccccccccccccccccccccccc#..",
".#############################.."};
