/* XPM */
static char *help[]={
"32 32 4 1",
"# c #000000",
"b c #0000ff",
"a c #c0c0c0",
". c #ffffff",
"..############################..",
"..#aaaaaaaaaaaaaaaaaaaaaaaaaa#..",
"..#a.........................#..",
"..#a.........................#..",
"..#a.........................#..",
"..#a.........................#..",
"..#a........bbbbbbbb.........#..",
"..#a.......bbbbbbbbbb........#..",
"..#a......bbbbb..bbbbb.......#..",
"..#a......bbbb....bbbb.......#..",
"..#a......bbbb....bbbb.......#..",
"..#a......bbbb....bbbb.......#..",
"..#a..............bbbb.......#..",
"..#a.............bbbbb.......#..",
"..#a............bbbbb........#..",
"..#a...........bbbbb.........#..",
"..#a..........bbbbb..........#..",
"..#a..........bbbb...........#..",
"..#a..........bbbb...........#..",
"..#a..........bbbb...........#..",
"..#a.........................#..",
"..#a.........................#..",
"..#a..........bbbb...........#..",
"..#a..........bbbb...........#..",
"..########....bbbb...........#..",
"..##aaaaa#a...bbbb...........#..",
"...##....#a..................#..",
"....##...#a..................#..",
".....##..#a..................#..",
"......##.#a..................#..",
".......###a..................#..",
"........######################.."};
