/* XPM */
static char *jpeg[]={
"32 32 11 1",
"d c #000000",
"e c #0000ff",
"c c #008000",
"b c #00ff00",
"g c #800000",
"i c #808000",
"# c #808080",
"a c #c0c0c0",
"h c #ff0000",
"f c #ffff00",
". c #ffffff",
".#####################..........",
".#...................##.........",
".#...................#a#........",
".#..##################.a#.......",
".#..a#a#a#a#a#a#a#a#a#..a#......",
".#..#a#a#a#abbbcc##a##...a#.....",
".#..a#a#a#ab.bcbcc##a#....a#....",
".#..#a#a#ab..bbcbcc###.....a#...",
".#..a#a#aab.bbcbccc#adddddddd...",
".#..#aaaaabbbcbccceaaa######d#..",
".#..#aa#aacbcbccceeaa#aaa#a.d#..",
".#..aaaaaabcbccceceaaaaaaaa.d#..",
".#..aafaaaacccceceaaaafaaaa.d#..",
".#..aaaaaaaacceceaaaaaaaaaa.d#..",
".#..aaaafafafafafafafafafaa.d#..",
".#..afagafafafafafafafafafa.d#..",
".#..aaaggfafafafafafafafafa.d#..",
".#..afhgggfffffffaaiiiiidfa.d#..",
".#..aahhgggfafafa.fffffddaa.d#..",
".#..a#hhggggffffa.iiiiiddfa.d#..",
".#..ahhhgggggfffafiiiiiddff.d#..",
".#..hhhhggggg...afiiiiidd.a.d#..",
".#..hhhhhgggf.f.afiiiiidd.f.d#..",
".#..a#hhhgg.....afiiiiidd.a.d#..",
".#..affhhg..f.f.aaiiiiidfff.d#..",
".#....fff...................d#..",
".#..f.fff.f.f.f.f.f.f.f.fff.d#..",
".#..fffffffffffffffffffffff.d#..",
".#..........................d#..",
".#..........................d#..",
".dddddddddddddddddddddddddddd#..",
"..############################.."};
