/* XPM */
static char *js[]={
"32 32 7 1",
"a c #000000",
"c c #000080",
"e c #008080",
"# c #808080",
"b c #c0c0c0",
"d c #ffff00",
". c #ffffff",
"..######################aa......",
".##b#b#b#b#b#b#b#b#b#b#acca.....",
"#b.b.b.b.b.b.b.b.b.b.bacc#ca....",
"#.....................aaa##a....",
"#bbbbbbbbbbbbbbbbbbbbba##a#a....",
"#######################aaa#a....",
".#ccccccccccccccccccccccca#a....",
"..#########################a....",
"..#bbbbbbbbbbbbbbbbbbbbbb##a....",
"..#dbeeeeeeeeeeebdbdbdbdbb#a....",
"..#b.eeeeeeeeeee.b.b.b.b.#a.....",
"..#..ee...e...ee.........#a.....",
"..#.deee..ee.eeed.d.d.d..#a.....",
"..#..eee.e.e.eee........b#a.....",
"..#..eee.ee..eeed.d.d.d.b##.....",
"..#..eee.eee.eee........#a......",
"..#..ea...aaaceed.d.d.d.#a......",
"..#..eaaaaaaaaac........#a......",
".b#..eaaaaaaaaaad.d.d.d.#a......",
".bb.....................#a......",
".#....d.d.d.d.d.d.d.d.d.#a......",
".#...################...a#......",
"b#..d.d.d.d.d.d.d.d.d.d.a#......",
"#b..#############.......aaaaac..",
"#...d.d.d.d.d.d.d.d.d.d.ac#a#ca.",
"#d..#############......da#a#b#ca",
"#bdbdbdbdbdbdbdbdbdbdbbba#aaa##a",
"#dbdb################dbba#ac#a#a",
"#bbbbbbbbbbbbbbbbbbbbbbba#aaab#a",
".#b#b#b#b#b#b#b#b#b#b#b#ba##b##a",
"..########################a##ba.",
"...#aaaaaaaaaaaaaaaaaaaaaaaaaa.."};
