/* XPM */
static char *xul[]={
"32 32 6 1",
"a c #000000",
"d c #000080",
"b c #008080",
"# c #808080",
"c c #c0c0c0",
". c #ffffff",
"...###################..........",
"...#.................#a.........",
"...#.................##a........",
"...#..bbbbbbbbbbb....#c#a.......",
"...#..bbbbbbbbbbb.##.#cc#a......",
"...#..bb...b...bb....#.cc#a.....",
"...#..bbb..bb.bbb.##.#...c#a....",
"...#..bbb.b.b.bbb....#aaaaaa#...",
"...#..bbb.bb..bbb.##.......a#...",
"...#..bbb.bbb.bbb..........a#...",
"...#..ba...aaadbb.######...a#...",
"...#..baaaaaaaaad..........a#...",
"...#..baaaaaaaaaa.######...a#...",
"...#.......................a#...",
"...#..##################...a#...",
"...#.......................a#...",
"...#..#########..#######...a#...",
"...#.............#######...a#...",
"...#..#########..#######...a#...",
"...#.............#######...a#...",
"...#..#########..#######...a#...",
"...#.......................a#...",
"...#..##################...a#...",
"...#.......................a#...",
"...#..##################...a#...",
"...#.......................a#...",
"...#..#########............a#...",
"...#.......................a#...",
"...#.......................a#...",
"...#.......................a#...",
"...aaaaaaaaaaaaaaaaaaaaaaaaa#...",
"....#########################..."};
