<?xml version="1.0" encoding="UTF-8" standalone="no"?>
<!DOCTYPE svg PUBLIC "-//W3C//DTD SVG 20010904//EN"
"http://www.w3.org/TR/2001/REC-SVG-20010904/DTD/svg10.dtd">
<!-- Created with Sodipodi ("http://www.sodipodi.com/") -->
<svg
   width="48pt"
   height="48pt"
   viewBox="0 0 47.994 48.333"
   overflow="visible"
   enable-background="new 0 0 47.994 48.333"
   xml:space="preserve"
   xmlns="http://www.w3.org/2000/svg"
   xmlns:xml="http://www.w3.org/XML/1998/namespace"
   xmlns:sodipodi="http://sodipodi.sourceforge.net/DTD/sodipodi-0.dtd"
   xmlns:xlink="http://www.w3.org/1999/xlink"
   id="svg153"
   sodipodi:version="0.32pre"
   sodipodi:docname="/home/cschalle/gnome-themes-extras/Wasp/icons/scalable/devices/gnome-dev-camera.svg"
   sodipodi:docbase="/home/cschalle/gnome-themes-extras/Wasp/icons/scalable/devices">
  <defs
     id="defs208" />
  <sodipodi:namedview
     id="base" />
  <metadata
     id="metadata154">
    <sfw>
      <slices />
      <sliceSourceBounds
         y="395.333"
         x="272.503"
         width="47.994"
         height="48.333"
         bottomLeftOrigin="true" />
    </sfw>
  </metadata>
  <g
     id="Layer_1"
     stroke="#000000">
    <g
       id="Layer_1_2_">
      <path
         stroke="none"
         d="M5.209,17.576c0,0.488,0.061,0.995,0.104,1.496c-2.298,1.125-3.667,3.491-3.667,6.097     c0,0.661,0.088,1.337,0.27,2.012c0.33,1.224,0.962,2.317,1.806,3.203C2.727,31.29,0,33.769,0,33.769l30.002,14.564l17.992-17.395     c0,0-8.133-3.593-10.066-4.447c1.594-2.698,2.434-5.75,2.434-8.916C40.361,7.884,32.477,0,22.785,0S5.209,7.884,5.209,17.576z"
         id="path157" />
      <path
         fill="#E3E3E3"
         stroke="none"
         d="M27.086,29.168L10.979,25.41L2.12,33.464l27.652,13.423L27.086,29.168z"
         id="path158" />
      <path
         fill="#A1A1A1"
         stroke="none"
         d="M45.878,31.315L29.771,46.887l-2.685-17.719l7.248-2.953L45.878,31.315z"
         id="path159" />
      <path
         stroke="none"
         d="M13.71,6.675c-1.097,0.568-2.029,1.782-2.494,3.247c-0.8,2.521-0.021,4.942,1.772,5.511     c0.681,0.216,1.417,0.135,2.131-0.234c1.097-0.568,2.03-1.782,2.495-3.246c0.8-2.521,0.021-4.942-1.771-5.512     C15.161,6.224,14.424,6.305,13.71,6.675z"
         id="path160" />
      <path
         stroke="none"
         d="M5.609,17.576c0,9.471,7.705,17.176,17.176,17.176s17.176-7.705,17.176-17.176     c0-9.471-7.704-17.176-17.176-17.176C13.314,0.4,5.609,8.105,5.609,17.576z"
         id="path161" />
      <g
         id="g162">
        <path
           fill="#CCCCCC"
           stroke="none"
           d="M6.409,17.576C6.409,8.532,13.741,1.2,22.785,1.2s16.376,7.332,16.376,16.376      c0,9.044-7.332,16.376-16.376,16.376S6.409,26.62,6.409,17.576z"
           id="path163" />
        <path
           fill="#CECECE"
           stroke="none"
           d="M22.473,1.46c8.708,0.019,15.747,7.12,15.718,15.86      c-0.028,8.741-7.112,15.812-15.822,15.793c-8.709-0.019-15.747-7.12-15.718-15.86C6.68,8.513,13.764,1.442,22.473,1.46z"
           id="path164" />
        <path
           fill="#D0D0D0"
           stroke="none"
           d="M22.161,1.722c8.375,0.037,15.118,6.907,15.061,15.344      c-0.058,8.437-6.893,15.247-15.267,15.208C13.58,32.237,6.836,25.368,6.894,16.931C6.95,8.494,13.786,1.685,22.161,1.722z"
           id="path165" />
        <path
           fill="#D3D3D3"
           stroke="none"
           d="M21.848,1.983c8.041,0.056,14.489,6.694,14.404,14.828      c-0.086,8.133-6.673,14.682-14.712,14.626C13.499,31.381,7.05,24.743,7.136,16.609C7.222,8.476,13.809,1.927,21.848,1.983z"
           id="path166" />
        <path
           fill="#D5D5D5"
           stroke="none"
           d="M21.536,2.243c7.706,0.075,13.86,6.482,13.746,14.313      c-0.114,7.829-6.453,14.117-14.158,14.042c-7.706-0.074-13.86-6.482-13.746-14.312C7.492,8.457,13.831,2.169,21.536,2.243z"
           id="path167" />
        <path
           fill="#D7D7D7"
           stroke="none"
           d="M21.224,2.505c7.37,0.093,13.229,6.269,13.088,13.796      c-0.143,7.526-6.233,13.552-13.604,13.459c-7.371-0.093-13.23-6.27-13.088-13.795C7.762,8.438,13.853,2.412,21.224,2.505z"
           id="path168" />
        <path
           fill="#D9D9D9"
           stroke="none"
           d="M20.911,2.766c7.035,0.111,12.601,6.057,12.431,13.28      c-0.172,7.223-6.014,12.988-13.049,12.876c-7.036-0.112-12.601-6.057-12.431-13.28C8.033,8.419,13.875,2.654,20.911,2.766z"
           id="path169" />
        <path
           fill="#DCDCDC"
           stroke="none"
           d="M20.599,3.026c6.7,0.13,11.972,5.845,11.773,12.764      c-0.2,6.919-5.794,12.423-12.495,12.292c-6.701-0.13-11.972-5.844-11.773-12.763C8.303,8.4,13.897,2.896,20.599,3.026z"
           id="path170" />
        <path
           fill="#DEDEDE"
           stroke="none"
           d="M20.286,3.288c6.366,0.148,11.343,5.632,11.115,12.248      c-0.228,6.616-5.573,11.858-11.939,11.71c-6.367-0.148-11.344-5.632-11.116-12.248C8.574,8.382,13.919,3.14,20.286,3.288z"
           id="path171" />
        <path
           fill="#E0E0E0"
           stroke="none"
           d="M19.974,3.549c6.032,0.167,10.714,5.419,10.458,11.732      c-0.256,6.312-5.354,11.293-11.385,11.126c-6.032-0.168-10.714-5.42-10.458-11.732C8.845,8.363,13.942,3.381,19.974,3.549z"
           id="path172" />
        <path
           fill="#E2E2E2"
           stroke="none"
           d="M19.661,3.81c5.696,0.186,10.085,5.208,9.8,11.216      c-0.284,6.008-5.133,10.729-10.831,10.542c-5.697-0.186-10.084-5.207-9.8-11.215C9.115,8.345,13.964,3.624,19.661,3.81z"
           id="path173" />
        <path
           fill="#E4E4E4"
           stroke="none"
           d="M19.349,4.07c5.362,0.205,9.456,4.995,9.143,10.7c-0.313,5.705-4.914,10.164-10.276,9.96      c-5.363-0.204-9.456-4.995-9.143-10.7C9.386,8.326,13.986,3.867,19.349,4.07z"
           id="path174" />
        <path
           fill="#E7E7E7"
           stroke="none"
           d="M19.036,4.332c5.027,0.223,8.827,4.782,8.485,10.184      c-0.342,5.401-4.694,9.599-9.722,9.376s-8.826-4.782-8.485-10.184C9.656,8.307,14.009,4.108,19.036,4.332z"
           id="path175" />
        <path
           fill="#E9E9E9"
           stroke="none"
           d="M18.724,4.593c4.692,0.241,8.198,4.569,7.827,9.667c-0.369,5.098-4.474,9.034-9.167,8.792      c-4.692-0.241-8.198-4.569-7.827-9.667C9.927,8.288,14.031,4.352,18.724,4.593z"
           id="path176" />
        <path
           fill="#EBEBEB"
           stroke="none"
           d="M18.412,4.854c4.357,0.26,7.568,4.357,7.169,9.152c-0.398,4.793-4.254,8.47-8.612,8.209      c-4.358-0.26-7.568-4.357-7.17-9.151C10.197,8.27,14.053,4.593,18.412,4.854z"
           id="path177" />
        <path
           fill="#EDEDED"
           stroke="none"
           d="M18.099,5.115c4.023,0.278,6.939,4.144,6.512,8.635c-0.427,4.491-4.034,7.905-8.058,7.626      c-4.023-0.278-6.939-4.145-6.512-8.635C10.468,8.251,14.076,4.836,18.099,5.115z"
           id="path178" />
        <path
           fill="#EFEFEF"
           stroke="none"
           d="M17.786,5.376c3.689,0.297,6.31,3.932,5.855,8.12c-0.456,4.186-3.815,7.34-7.503,7.042      c-3.689-0.297-6.31-3.932-5.855-8.119C10.739,8.232,14.098,5.079,17.786,5.376z"
           id="path179" />
        <path
           fill="#F2F2F2"
           stroke="none"
           d="M17.475,5.637c3.354,0.315,5.681,3.72,5.197,7.604c-0.483,3.883-3.595,6.775-6.949,6.459      c-3.354-0.315-5.681-3.719-5.197-7.603C11.009,8.213,14.12,5.321,17.475,5.637z"
           id="path180" />
        <path
           fill="#F4F4F4"
           stroke="none"
           d="M17.162,5.898c3.019,0.334,5.051,3.507,4.539,7.087c-0.512,3.579-3.375,6.211-6.394,5.876      c-3.019-0.334-5.052-3.508-4.54-7.087C11.28,8.194,14.143,5.563,17.162,5.898z"
           id="path181" />
        <path
           fill="#F6F6F6"
           stroke="none"
           d="M16.849,6.159c2.684,0.353,4.423,3.294,3.882,6.572c-0.541,3.275-3.155,5.646-5.839,5.292      c-2.684-0.353-4.423-3.295-3.882-6.571C11.55,8.176,14.165,5.806,16.849,6.159z"
           id="path182" />
        <path
           fill="#F8F8F8"
           stroke="none"
           d="M16.537,6.42c2.349,0.371,3.793,3.082,3.224,6.056c-0.568,2.972-2.935,5.082-5.285,4.709      c-2.35-0.371-3.793-3.083-3.225-6.055C11.821,8.157,14.187,6.048,16.537,6.42z"
           id="path183" />
        <path
           fill="#FBFBFB"
           stroke="none"
           d="M16.225,6.681c2.015,0.39,3.164,2.87,2.566,5.54c-0.598,2.668-2.715,4.516-4.73,4.126      c-2.015-0.39-3.165-2.87-2.567-5.539S14.209,6.291,16.225,6.681z"
           id="path184" />
        <path
           fill="#FDFDFD"
           stroke="none"
           d="M15.912,6.942c1.68,0.408,2.535,2.657,1.909,5.023c-0.626,2.365-2.496,3.952-4.175,3.543      c-1.681-0.409-2.535-2.658-1.91-5.023C12.362,8.12,14.231,6.533,15.912,6.942z"
           id="path185" />
        <path
           fill="#FFFFFF"
           stroke="none"
           d="M11.978,10.164c0.654-2.062,2.275-3.388,3.622-2.96c1.345,0.427,1.906,2.444,1.251,4.507      c-0.654,2.062-2.275,3.387-3.621,2.959C11.884,14.243,11.324,12.225,11.978,10.164z"
           id="path186" />
      </g>
      <path
         a:adobe-blending-mode="multiply"
         opacity="0.1"
         stroke="none"
         d="M18.127,19.329c2.286,1.714,5.286,4.286,5,7     c-0.261,2.48-1.857,4-4.429,4.856c2.572,0.143,14.143-1.571,17.286-11.285c1.684-5.203,2-7.572,2-9.572     c0.715,1.428,3.572,9.428-0.857,16.428c-4.557,7.203-11.857,7.715-15.143,7.572c-3.286-0.144-9.857-3.857-9.857-3.857     l3.143-5.714L18.127,19.329z"
         id="path187" />
      <path
         stroke="none"
         d="M11.056,17.122l0.029-0.013L5.62,19.357c-2.752,1.255-4.167,4.566-3.316,7.719     c0.957,3.546,4.375,5.717,7.621,4.841c1.031-0.278,1.965-0.849,2.702-1.648c-0.02,0.021,4.802-4.842,4.802-4.842l0.03-0.03     l0.015-0.047c0.761-0.946,1.179-2.137,1.179-3.352c0-2.958-2.406-5.364-5.363-5.364C12.513,16.633,11.761,16.798,11.056,17.122z"
         id="path188" />
      <linearGradient
         id="XMLID_1_"
         gradientUnits="userSpaceOnUse"
         x1="-227.9814"
         y1="385.2842"
         x2="-222.9475"
         y2="380.3598"
         gradientTransform="matrix(1 0 0 -1 236.5068 407.416)">
        <stop
           offset="0"
           style="stop-color:#FF8CFF"
           id="stop190" />
        <stop
           offset="1"
           style="stop-color:#C000C0"
           id="stop191" />
      </linearGradient>
      <path
         fill="url(#XMLID_1_)"
         stroke="none"
         d="M16.851,24.849c0.627-0.78,1.003-1.771,1.003-2.851     c0-2.521-2.043-4.564-4.564-4.564c-0.679,0-1.322,0.15-1.9,0.416l-5.465,2.248l0.002,0.004c-2.357,1.07-3.618,3.925-2.851,6.765     c0.843,3.125,3.816,5.04,6.641,4.277c0.917-0.248,1.706-0.749,2.323-1.418l4.823-4.863L16.851,24.849z"
         id="path195" />
      <path
         stroke="none"
         d="M6.454,19.058c-1.476,0.398-2.726,1.378-3.519,2.759C2.353,22.828,2.054,24,2.054,25.196     c0,0.627,0.082,1.261,0.25,1.88c0.957,3.546,4.375,5.718,7.621,4.841c3.245-0.876,5.107-4.474,4.15-8.018     c-0.486-1.8-1.65-3.341-3.193-4.229C9.502,18.876,7.929,18.659,6.454,19.058z"
         id="path196" />
      <linearGradient
         id="XMLID_2_"
         gradientUnits="userSpaceOnUse"
         x1="-224.3477"
         y1="378.5947"
         x2="-227.8193"
         y2="381.5109"
         gradientTransform="matrix(1 0 0 -1 236.5068 407.416)">
        <stop
           offset="0"
           style="stop-color:#FF8CFF"
           id="stop198" />
        <stop
           offset="1"
           style="stop-color:#C000C0"
           id="stop199" />
      </linearGradient>
      <path
         fill="url(#XMLID_2_)"
         stroke="none"
         d="M3.076,26.867c-0.844-3.124,0.762-6.275,3.586-7.037     c2.824-0.763,5.797,1.152,6.64,4.276c0.844,3.125-0.762,6.275-3.586,7.038S3.919,29.992,3.076,26.867z"
         id="path203" />
      <path
         fill="#BDBDBD"
         stroke="none"
         d="M4.105,26.59c-0.674-2.496,0.609-5.013,2.865-5.621c2.256-0.609,4.63,0.92,5.304,3.416     c0.673,2.496-0.609,5.013-2.865,5.622C7.153,30.615,4.778,29.085,4.105,26.59z"
         id="path204" />
      <g
         opacity="0.8"
         id="g205">
        <path
           fill="#FFFFFF"
           stroke="none"
           d="M8.67,23.052c0.919-0.248,1.857-0.093,2.665,0.357c-0.889-1.555-2.612-2.404-4.265-1.958      c-2.004,0.541-3.143,2.776-2.544,4.993c0.324,1.2,1.093,2.146,2.047,2.678c-0.188-0.33-0.342-0.689-0.446-1.077      C5.527,25.828,6.667,23.593,8.67,23.052z"
           id="path206" />
      </g>
    </g>
  </g>
</svg>
