<?xml version="1.0" encoding="UTF-8" standalone="no"?>
<!-- Created with Inkscape (http://www.inkscape.org/) -->
<svg
   xmlns:svg="http://www.w3.org/2000/svg"
   xmlns="http://www.w3.org/2000/svg"
   version="1.0"
   width="123"
   height="90"
   viewBox="-0.396 -0.228 123 90"
   id="svg2"
   xml:space="preserve"
   style="overflow:visible"><defs
   id="defs75" />
	<g
   id="Layer_1_2_">
		<path
   d="M 11.971,40.275 C 11.971,18.031 36.65,0 67.095,0 C 97.54,0 122.219,18.031 122.219,40.275 C 122.219,62.517 97.539,80.549 67.095,80.549 C 36.651,80.549 11.971,62.518 11.971,40.275 z M 67.095,49.502 C 74.07,49.502 79.724,45.371 79.724,40.275 C 79.724,35.178 74.07,31.047 67.095,31.047 C 60.12,31.047 54.465,35.178 54.465,40.275 C 54.465,45.371 60.12,49.502 67.095,49.502 z"
   id="path5"
   style="opacity:0.2" />
		<path
   d="M 0,43.933 C 0,65.063 25.177,82.253 56.123,82.253 C 87.068,82.253 112.246,65.063 112.246,43.933 C 112.246,22.804 87.068,5.614 56.123,5.614 C 25.177,5.613 0,22.804 0,43.933 z M 6.168,43.933 C 6.168,26.157 28.577,11.697 56.123,11.697 C 83.668,11.697 106.078,26.157 106.078,43.933 C 106.078,61.709 83.668,76.171 56.123,76.171 C 28.577,76.171 6.168,61.709 6.168,43.933 z"
   id="path7" />
		<path
   d="M 3.701,43.933 C 3.701,24.408 27.171,8.579 56.123,8.579 C 85.074,8.579 108.544,24.407 108.544,43.933 C 108.544,63.459 85.074,79.287 56.123,79.287 C 27.171,79.287 3.701,63.458 3.701,43.933 z M 56.123,51.923 C 62.28,51.923 67.272,48.346 67.272,43.933 C 67.272,39.52 62.28,35.944 56.123,35.944 C 49.965,35.944 44.974,39.52 44.974,43.933 C 44.974,48.346 49.965,51.923 56.123,51.923 z"
   id="path9"
   style="fill:#d9d9d9" />
		<linearGradient
   x1="15.8613"
   y1="20.6875"
   x2="101.193"
   y2="69.953697"
   id="XMLID_1_"
   gradientUnits="userSpaceOnUse">
			<stop
   id="stop12"
   style="stop-color:#e6e6fa;stop-opacity:1"
   offset="0" />
			<stop
   id="stop14"
   style="stop-color:#ffffff;stop-opacity:1"
   offset="0.42460001" />
			<stop
   id="stop16"
   style="stop-color:#adadd2;stop-opacity:1"
   offset="0.49720001" />
			<stop
   id="stop18"
   style="stop-color:#ebebff;stop-opacity:1"
   offset="0.84920001" />
			<midPointStop
   id="midPointStop20"
   style="stop-color:#E6E6FA"
   offset="0" />
			<midPointStop
   id="midPointStop22"
   style="stop-color:#E6E6FA"
   offset="0.5" />
			<midPointStop
   id="midPointStop24"
   style="stop-color:#FFFFFF"
   offset="0.4246" />
			<midPointStop
   id="midPointStop26"
   style="stop-color:#FFFFFF"
   offset="0.5" />
			<midPointStop
   id="midPointStop28"
   style="stop-color:#ADADD2"
   offset="0.4972" />
			<midPointStop
   id="midPointStop30"
   style="stop-color:#ADADD2"
   offset="0.5" />
			<midPointStop
   id="midPointStop32"
   style="stop-color:#EBEBFF"
   offset="0.8492" />
		</linearGradient>
		<path
   d="M 3.701,43.933 C 3.701,24.408 27.171,8.579 56.123,8.579 C 85.074,8.579 108.544,24.407 108.544,43.933 C 108.544,63.459 85.074,79.287 56.123,79.287 C 27.171,79.287 3.701,63.458 3.701,43.933 z M 56.123,51.923 C 62.28,51.923 67.272,48.346 67.272,43.933 C 67.272,39.52 62.28,35.944 56.123,35.944 C 49.965,35.944 44.974,39.52 44.974,43.933 C 44.974,48.346 49.965,51.923 56.123,51.923 z"
   id="path34"
   style="fill:url(#XMLID_1_)" />
		<linearGradient
   x1="47.472198"
   y1="47.639599"
   x2="76.685997"
   y2="35.1194"
   id="XMLID_2_"
   gradientUnits="userSpaceOnUse">
			<stop
   id="stop37"
   style="stop-color:#ffffff;stop-opacity:1"
   offset="0" />
			<stop
   id="stop39"
   style="stop-color:#ccccf5;stop-opacity:1"
   offset="1" />
			<midPointStop
   id="midPointStop41"
   style="stop-color:#FFFFFF"
   offset="0" />
			<midPointStop
   id="midPointStop43"
   style="stop-color:#FFFFFF"
   offset="0.5" />
			<midPointStop
   id="midPointStop45"
   style="stop-color:#CCCCF5"
   offset="1" />
		</linearGradient>
		<path
   d="M 34.067,43.933 C 34.067,35.717 43.941,29.059 56.123,29.059 C 68.303,29.059 78.179,35.717 78.179,43.933 C 78.179,52.148 68.303,58.807 56.123,58.807 C 43.941,58.807 34.067,52.147 34.067,43.933 z M 56.123,52.01 C 62.519,52.01 67.704,48.325 67.704,43.781 C 67.704,39.235 62.518,35.552 56.123,35.552 C 49.727,35.552 44.541,39.236 44.541,43.781 C 44.541,48.325 49.727,52.01 56.123,52.01 z"
   id="path47"
   style="fill:url(#XMLID_2_)" />
		<path
   d="M 44.998,43.933 C 44.998,39.473 49.978,35.857 56.123,35.857 C 62.267,35.857 67.247,39.473 67.247,43.933 C 67.247,48.394 62.267,52.01 56.123,52.01 C 49.979,52.01 44.998,48.394 44.998,43.933 z"
   id="path49"
   style="fill:none;stroke:#000000;stroke-width:2" />
		<linearGradient
   x1="86.705597"
   y1="41.109901"
   x2="18.8867"
   y2="47.370098"
   id="XMLID_3_"
   gradientUnits="userSpaceOnUse">
			<stop
   id="stop52"
   style="stop-color:#ffffff;stop-opacity:1"
   offset="0" />
			<stop
   id="stop54"
   style="stop-color:#6a77b8;stop-opacity:1"
   offset="1" />
			<midPointStop
   id="midPointStop56"
   style="stop-color:#FFFFFF"
   offset="0" />
			<midPointStop
   id="midPointStop58"
   style="stop-color:#FFFFFF"
   offset="0.5" />
			<midPointStop
   id="midPointStop60"
   style="stop-color:#6A77B8"
   offset="1" />
		</linearGradient>
		<path
   d="M 33.059,43.933 C 33.059,52.684 43.406,59.804 56.123,59.804 C 68.84,59.804 79.188,52.684 79.188,43.933 C 79.188,35.183 68.84,28.063 56.123,28.063 C 43.406,28.063 33.059,35.183 33.059,43.933 z M 35.145,43.933 C 35.145,36.333 44.556,30.15 56.124,30.15 C 67.692,30.15 77.103,36.334 77.103,43.933 C 77.103,51.534 67.692,57.717 56.124,57.717 C 44.556,57.717 35.145,51.533 35.145,43.933 z"
   id="path62"
   style="fill:url(#XMLID_3_)" />
		<path
   d="M 113.604,88.772 L 64.535,88.772 L 64.535,62.807 L 113.603,62.807 L 113.603,88.772 L 113.604,88.772 z"
   id="path64"
   style="fill:#ffffff;stroke:#000000;stroke-width:2" />
		<g
   id="g66">
			<path
   d="M 71.216,69.054 L 74.907,69.054 C 75.388,69.062 75.857,69.216 76.313,69.518 C 76.769,69.819 77.104,70.184 77.319,70.612 L 79.165,74.335 C 79.514,75.007 79.688,75.709 79.688,76.44 C 79.688,77.12 79.502,77.818 79.132,78.535 L 77.276,82.215 C 77.039,82.689 76.698,83.066 76.255,83.349 C 75.812,83.632 75.317,83.774 74.77,83.774 L 71.213,83.774 C 70.954,83.774 70.734,83.682 70.554,83.499 C 70.373,83.315 70.283,83.098 70.283,82.848 C 70.283,82.591 70.373,82.369 70.554,82.181 C 70.735,81.993 70.955,81.9 71.214,81.9 L 72.189,81.9 L 72.189,70.929 L 71.225,70.929 C 70.963,70.929 70.741,70.835 70.558,70.648 C 70.375,70.461 70.284,70.239 70.284,69.981 C 70.284,69.731 70.375,69.514 70.556,69.331 C 70.737,69.148 70.956,69.054 71.216,69.054 z M 74.063,70.929 L 74.063,81.898 L 74.708,81.915 C 75.116,81.915 75.424,81.712 75.633,81.307 L 77.492,77.66 C 77.723,77.181 77.83,76.777 77.813,76.446 C 77.82,76.033 77.73,75.646 77.546,75.284 L 75.637,71.498 C 75.437,71.121 75.114,70.933 74.667,70.931 L 74.063,70.931 L 74.063,70.929 z"
   id="path68" />
			<path
   d="M 93.446,70.006 L 93.446,73.428 L 89.649,83.074 C 89.457,83.54 89.154,83.772 88.741,83.772 C 88.305,83.772 87.996,83.541 87.811,83.076 L 84.04,73.428 L 84.04,70.006 C 84.04,69.74 84.131,69.516 84.314,69.33 C 84.497,69.146 84.719,69.054 84.98,69.054 C 85.241,69.054 85.463,69.147 85.646,69.33 C 85.829,69.516 85.92,69.74 85.92,70.006 L 85.92,73.039 L 88.743,80.261 L 91.576,73.065 L 91.576,70.007 C 91.576,69.741 91.667,69.516 91.848,69.331 C 92.029,69.146 92.251,69.054 92.511,69.054 C 92.771,69.054 92.991,69.147 93.173,69.33 C 93.355,69.516 93.446,69.74 93.446,70.006 z"
   id="path70" />
			<path
   d="M 98.607,69.054 L 102.298,69.054 C 102.779,69.062 103.248,69.216 103.704,69.518 C 104.16,69.819 104.495,70.184 104.711,70.612 L 106.557,74.335 C 106.905,75.007 107.079,75.709 107.079,76.44 C 107.079,77.12 106.893,77.818 106.523,78.535 L 104.666,82.215 C 104.43,82.689 104.089,83.066 103.645,83.349 C 103.201,83.632 102.707,83.774 102.16,83.774 L 98.603,83.774 C 98.344,83.774 98.124,83.682 97.944,83.499 C 97.763,83.315 97.673,83.098 97.673,82.848 C 97.673,82.591 97.763,82.369 97.944,82.181 C 98.125,81.993 98.345,81.9 98.604,81.9 L 99.579,81.9 L 99.579,70.929 L 98.615,70.929 C 98.353,70.929 98.131,70.835 97.948,70.648 C 97.765,70.461 97.674,70.239 97.674,69.981 C 97.674,69.731 97.765,69.514 97.946,69.331 C 98.127,69.148 98.347,69.054 98.607,69.054 z M 101.454,70.929 L 101.454,81.898 L 102.1,81.915 C 102.507,81.915 102.816,81.712 103.025,81.307 L 104.883,77.66 C 105.115,77.181 105.222,76.777 105.204,76.446 C 105.211,76.033 105.121,75.646 104.937,75.284 L 103.027,71.498 C 102.828,71.121 102.504,70.933 102.058,70.931 L 101.454,70.931 L 101.454,70.929 z"
   id="path72" />
		</g>
	</g>
</svg>