<?xml version="1.0" encoding="UTF-8" standalone="no"?>
<!-- Created with Inkscape (http://www.inkscape.org/) -->
<svg
   xmlns:svg="http://www.w3.org/2000/svg"
   xmlns="http://www.w3.org/2000/svg"
   version="1.0"
   width="132.30499"
   height="104.734"
   viewBox="0 0 132.305 104.734"
   id="svg2"
   xml:space="preserve"
   style="overflow:visible"><defs
   id="defs403" />
		<g
   id="Layer_1">
			<g
   id="g5">
				<path
   d="M 84.006,8.306 L 86.934,8.262 L 122.02,25.746 L 131.645,31.327 L 132.305,33.796 L 65.533,102.052 L 63.745,103.394 L 56.366,104.735 L 54.353,104.288 C 54.353,104.288 42.517,99.157 30.817,92.807 C 19.119,86.454 7.34,77.376 7.34,77.376 L 7.428,75.048 L 31.955,55.701 L 84.006,8.306 z"
   id="path7"
   style="opacity:0.15" />
				
					<linearGradient
   x1="-348.40869"
   y1="301.0723"
   x2="-230.66499"
   y2="301.0723"
   id="XMLID_40_"
   gradientUnits="userSpaceOnUse"
   gradientTransform="matrix(1,0,0,-1,350.4136,349.6621)">
					<stop
   id="stop10"
   style="stop-color:#dce2ef;stop-opacity:1"
   offset="0.0167" />
					<stop
   id="stop12"
   style="stop-color:#b8c5dc;stop-opacity:1"
   offset="0.30790001" />
					<stop
   id="stop14"
   style="stop-color:#97abcb;stop-opacity:1"
   offset="0.62230003" />
					<stop
   id="stop16"
   style="stop-color:#8aa1c4;stop-opacity:1"
   offset="0.79439998" />
					<midPointStop
   id="midPointStop18"
   style="stop-color:#DCE2EF"
   offset="0.0167" />
					<midPointStop
   id="midPointStop20"
   style="stop-color:#DCE2EF"
   offset="0.5" />
					<midPointStop
   id="midPointStop22"
   style="stop-color:#B8C5DC"
   offset="0.3079" />
					<midPointStop
   id="midPointStop24"
   style="stop-color:#B8C5DC"
   offset="0.5" />
					<midPointStop
   id="midPointStop26"
   style="stop-color:#97ABCB"
   offset="0.6223" />
					<midPointStop
   id="midPointStop28"
   style="stop-color:#97ABCB"
   offset="0.5" />
					<midPointStop
   id="midPointStop30"
   style="stop-color:#8AA1C4"
   offset="0.7944" />
				</linearGradient>
				<path
   d="M 54.113,94.733 L 52.558,95.176 C 52.558,95.176 51.776,94.843 50.11,94.4 C 48.444,93.956 27.565,85.182 19.68,79.962 C 11.795,74.742 2.245,65.638 2.245,65.638 C 2.245,65.638 1.578,64.861 2.467,63.639 C 3.356,62.416 6.576,57.531 11.352,52.867 C 16.128,48.203 36.787,29.543 36.787,29.543 C 36.787,29.543 21.236,20.772 17.683,17.884 L 12.463,15.219 L 12.574,13.664 C 12.574,13.664 40.233,2.226 75.771,2.004 C 75.771,2.004 83.656,3.67 94.206,7.557 C 104.561,11.371 117.751,22.327 117.751,22.327 L 117.307,23.771 L 119.639,25.214 L 119.749,32.878 L 54.113,94.733 z"
   id="path32"
   style="fill:url(#XMLID_40_)" />
				<g
   id="g34">
					
						<linearGradient
   x1="-331.51419"
   y1="290.0361"
   x2="-268.85889"
   y2="303.01849"
   id="XMLID_41_"
   gradientUnits="userSpaceOnUse"
   gradientTransform="matrix(1,0,0,-1,350.4136,349.6621)">
						<stop
   id="stop37"
   style="stop-color:#ebf0fc;stop-opacity:1"
   offset="0" />
						<stop
   id="stop39"
   style="stop-color:#b7c6e2;stop-opacity:1"
   offset="0.1778" />
						<stop
   id="stop41"
   style="stop-color:#b0c0dd;stop-opacity:1"
   offset="0.21950001" />
						<stop
   id="stop43"
   style="stop-color:#6282a1;stop-opacity:1"
   offset="0.71619999" />
						<stop
   id="stop45"
   style="stop-color:#436989;stop-opacity:1"
   offset="0.94440001" />
						<midPointStop
   id="midPointStop47"
   style="stop-color:#EBF0FC"
   offset="0" />
						<midPointStop
   id="midPointStop49"
   style="stop-color:#EBF0FC"
   offset="0.5" />
						<midPointStop
   id="midPointStop51"
   style="stop-color:#B7C6E2"
   offset="0.1778" />
						<midPointStop
   id="midPointStop53"
   style="stop-color:#B7C6E2"
   offset="0.5" />
						<midPointStop
   id="midPointStop55"
   style="stop-color:#B0C0DD"
   offset="0.2195" />
						<midPointStop
   id="midPointStop57"
   style="stop-color:#B0C0DD"
   offset="0.5" />
						<midPointStop
   id="midPointStop59"
   style="stop-color:#6282A1"
   offset="0.7162" />
						<midPointStop
   id="midPointStop61"
   style="stop-color:#6282A1"
   offset="0.5" />
						<midPointStop
   id="midPointStop63"
   style="stop-color:#436989"
   offset="0.9444" />
					</linearGradient>
					<path
   d="M 66.053,42.64 C 66.053,42.64 65.275,42.973 64.053,42.307 L 56.831,38.419 C 56.831,38.419 50.02,35.352 44.048,32.631 L 20.334,54.8 L 56.205,73.68 L 95.963,36.918 L 90.024,33.857 L 66.053,42.64 z"
   id="path65"
   style="fill:url(#XMLID_41_)" />
					<path
   d="M 43.535,32.083 L 19.052,54.974 L 56.325,74.59 L 97.26,36.742 L 90.074,33.04 L 65.782,41.939 C 65.761,41.946 65.258,42.108 64.411,41.647 C 64.407,41.646 57.185,37.757 57.185,37.757 C 57.137,37.735 44.357,31.947 44.357,31.947 L 43.901,31.74 L 43.535,32.083 z M 44.194,33.521 C 45.045,33.906 56.522,39.103 56.522,39.103 C 56.523,39.105 63.697,42.966 63.697,42.966 C 65.191,43.781 66.233,43.378 66.347,43.329 L 66.31,43.343 C 66.31,43.343 89.37,34.897 89.972,34.675 C 90.41,34.903 93.404,36.444 94.666,37.094 C 93.172,38.478 56.832,72.076 56.083,72.769 C 55.193,72.3 23.361,55.546 21.614,54.627 C 23.036,53.3 43.509,34.161 44.194,33.521 z"
   id="path67"
   style="fill:#2b4966" />
				</g>
				<path
   d="M 65.633,46.436 L 67.89,45.952 L 92.125,35.264 L 89.98,34.159 L 66.01,42.939 C 66.01,42.939 65.232,43.272 64.01,42.606 L 56.788,38.718 C 56.788,38.718 49.977,35.651 44.005,32.931 L 20.292,55.101 L 27.897,59.104 L 47.42,38.537 L 54.673,40.632 L 64.022,46.274 L 65.633,46.436 z"
   id="path69"
   style="opacity:0.62999998;fill:#436989" />
				
					<linearGradient
   x1="-325.64059"
   y1="301.61719"
   x2="-254.9482"
   y2="301.61719"
   id="XMLID_42_"
   gradientUnits="userSpaceOnUse"
   gradientTransform="matrix(1,0,0,-1,350.4136,349.6621)">
					<stop
   id="stop72"
   style="stop-color:#ebf0fc;stop-opacity:1"
   offset="0.1389" />
					<stop
   id="stop74"
   style="stop-color:#b8c6df;stop-opacity:1"
   offset="0.49540001" />
					<stop
   id="stop76"
   style="stop-color:#97abcb;stop-opacity:1"
   offset="0.77530003" />
					<stop
   id="stop78"
   style="stop-color:#8aa1c4;stop-opacity:1"
   offset="0.9278" />
					<midPointStop
   id="midPointStop80"
   style="stop-color:#EBF0FC"
   offset="0.1389" />
					<midPointStop
   id="midPointStop82"
   style="stop-color:#EBF0FC"
   offset="0.5" />
					<midPointStop
   id="midPointStop84"
   style="stop-color:#B8C6DF"
   offset="0.4954" />
					<midPointStop
   id="midPointStop86"
   style="stop-color:#B8C6DF"
   offset="0.5" />
					<midPointStop
   id="midPointStop88"
   style="stop-color:#97ABCB"
   offset="0.7753" />
					<midPointStop
   id="midPointStop90"
   style="stop-color:#97ABCB"
   offset="0.5" />
					<midPointStop
   id="midPointStop92"
   style="stop-color:#8AA1C4"
   offset="0.9278" />
				</linearGradient>
				<path
   d="M 37.652,62.084 C 47.101,58.365 78.309,46.417 90.195,41.84 L 95.466,36.997 L 89.626,34.006 L 66.123,42.531 C 66.123,42.531 65.345,42.864 64.123,42.198 L 58.422,39.129 L 24.773,55.308 L 37.652,62.084 z"
   id="path94"
   style="opacity:0.37999998;fill:url(#XMLID_42_)" />
				
					<linearGradient
   x1="-309.09619"
   y1="332.61041"
   x2="-268.99371"
   y2="325.14001"
   id="XMLID_43_"
   gradientUnits="userSpaceOnUse"
   gradientTransform="matrix(1,0,0,-1,350.4136,349.6621)">
					<stop
   id="stop97"
   style="stop-color:#ebf0fc;stop-opacity:1"
   offset="0" />
					<stop
   id="stop99"
   style="stop-color:#9fb3d3;stop-opacity:1"
   offset="1" />
					<midPointStop
   id="midPointStop101"
   style="stop-color:#EBF0FC"
   offset="0" />
					<midPointStop
   id="midPointStop103"
   style="stop-color:#EBF0FC"
   offset="0.5" />
					<midPointStop
   id="midPointStop105"
   style="stop-color:#9FB3D3"
   offset="1" />
				</linearGradient>
				<path
   d="M 63.772,42.423 C 64.994,43.089 65.772,42.756 65.772,42.756 L 117.251,23.899 L 117.147,23.835 L 117.59,22.392 C 117.59,22.392 104.402,11.437 94.047,7.621 C 83.497,3.734 75.612,2.068 75.612,2.068 C 40.074,2.29 12.415,13.728 12.415,13.728 L 12.304,15.283 L 17.524,17.948 C 20.378,20.267 30.964,26.378 35.025,28.696 C 35.7,29.025 36.295,29.311 36.786,29.541 C 42.008,31.985 56.551,38.536 56.551,38.536 L 63.772,42.423 z"
   id="path107"
   style="fill:url(#XMLID_43_)" />
				<polygon
   points="56.321,35.656 64.715,40.141 65.979,40.141 117.719,22.088 117.604,23.813 65.626,42.703 64.484,42.555 56.404,38.482 56.321,35.656 "
   id="polygon109"
   style="fill:#8aa1c4" />
				<path
   d="M 57.126,36.69 L 64.255,40.484 C 64.255,40.484 64.829,40.829 66.209,40.599 L 115.304,23.352 L 115.304,22.433 L 66.324,39.334 C 66.324,39.334 65.404,39.564 64.484,39.105 C 63.564,38.646 57.701,35.656 57.701,35.656 L 57.073,36.193 L 57.126,36.69 z"
   id="path111"
   style="opacity:0.43000004;fill:#ebf0fc" />
				<g
   id="g113">
					
						<linearGradient
   x1="-254.15919"
   y1="318.70511"
   x2="-243.64259"
   y2="318.70511"
   id="XMLID_44_"
   gradientUnits="userSpaceOnUse"
   gradientTransform="matrix(1,0,0,-1,350.4136,349.6621)">
						<stop
   id="stop116"
   style="stop-color:#ebf0fc;stop-opacity:1"
   offset="0" />
						<stop
   id="stop118"
   style="stop-color:#b7c6e2;stop-opacity:1"
   offset="0.1778" />
						<stop
   id="stop120"
   style="stop-color:#b0c0dd;stop-opacity:1"
   offset="0.21950001" />
						<stop
   id="stop122"
   style="stop-color:#6282a1;stop-opacity:1"
   offset="0.71619999" />
						<stop
   id="stop124"
   style="stop-color:#436989;stop-opacity:1"
   offset="0.94440001" />
						<midPointStop
   id="midPointStop126"
   style="stop-color:#EBF0FC"
   offset="0" />
						<midPointStop
   id="midPointStop128"
   style="stop-color:#EBF0FC"
   offset="0.5" />
						<midPointStop
   id="midPointStop130"
   style="stop-color:#B7C6E2"
   offset="0.1778" />
						<midPointStop
   id="midPointStop132"
   style="stop-color:#B7C6E2"
   offset="0.5" />
						<midPointStop
   id="midPointStop134"
   style="stop-color:#B0C0DD"
   offset="0.2195" />
						<midPointStop
   id="midPointStop136"
   style="stop-color:#B0C0DD"
   offset="0.5" />
						<midPointStop
   id="midPointStop138"
   style="stop-color:#6282A1"
   offset="0.7162" />
						<midPointStop
   id="midPointStop140"
   style="stop-color:#6282A1"
   offset="0.5" />
						<midPointStop
   id="midPointStop142"
   style="stop-color:#436989"
   offset="0.9444" />
					</linearGradient>
					<polygon
   points="99.609,33.768 96.254,31.863 106.771,28.146 99.609,33.768 "
   id="polygon144"
   style="fill:url(#XMLID_44_)" />
					<path
   d="M 96.004,31.156 L 94.455,31.704 L 99.677,34.667 L 107.234,28.736 L 106.521,27.439 L 96.004,31.156 z M 102.717,30.375 C 101.129,31.621 99.873,32.606 99.541,32.867 C 99.205,32.676 98.781,32.436 98.055,32.023 C 99.227,31.608 100.463,31.171 102.717,30.375 z"
   id="path146"
   style="fill:#2b4966" />
				</g>
				<path
   d="M 75.608,1.318 C 40.332,1.539 12.407,12.92 12.129,13.036 L 11.701,13.213 L 11.521,15.727 C 11.521,15.727 17.036,18.542 17.133,18.592 C 20.1,20.967 30.352,26.895 34.653,29.349 C 34.696,29.371 36.468,30.222 36.468,30.222 C 36.468,30.222 56.239,39.219 56.241,39.22 C 56.242,39.223 63.416,43.084 63.416,43.084 L 63.412,43.082 C 64.91,43.898 65.952,43.495 66.066,43.446 C 66.032,43.46 117.506,24.602 117.506,24.602 L 118.955,24.071 C 118.955,24.071 118.418,23.738 118.033,23.5 C 118.162,23.079 118.453,22.132 118.453,22.132 L 118.068,21.813 C 117.525,21.363 104.662,10.732 94.303,6.917 C 83.825,3.057 75.845,1.352 75.766,1.333 L 75.687,1.316 L 75.608,1.318 z M 75.54,2.82 C 76.019,2.923 83.694,4.606 93.79,8.324 C 102.973,11.707 114.565,20.903 116.728,22.653 C 116.628,22.973 116.568,23.173 116.505,23.373 C 115.548,23.725 65.516,42.053 65.516,42.053 C 65.483,42.066 64.98,42.228 64.133,41.766 L 56.907,37.876 C 56.859,37.854 37.105,28.862 37.105,28.862 C 37.104,28.862 35.355,28.022 35.355,28.022 C 32.042,26.13 20.87,19.7 17.997,17.367 L 17.935,17.317 C 17.935,17.317 13.83,15.219 13.087,14.841 C 13.106,14.585 13.111,14.5 13.13,14.251 C 16.695,12.856 42.926,3.04 75.54,2.82 z"
   id="path148"
   style="fill:#2b4966" />
				
					<linearGradient
   x1="-330.1333"
   y1="269.42581"
   x2="-248.3149"
   y2="294.31839"
   id="XMLID_45_"
   gradientUnits="userSpaceOnUse"
   gradientTransform="matrix(1,0,0,-1,350.4136,349.6621)">
					<stop
   id="stop151"
   style="stop-color:#9fb3d3;stop-opacity:1"
   offset="0.1222" />
					<stop
   id="stop153"
   style="stop-color:#9eb2d2;stop-opacity:1"
   offset="0.13950001" />
					<stop
   id="stop155"
   style="stop-color:#7d91b2;stop-opacity:1"
   offset="0.67070001" />
					<stop
   id="stop157"
   style="stop-color:#7085a6;stop-opacity:1"
   offset="0.96109998" />
					<midPointStop
   id="midPointStop159"
   style="stop-color:#9FB3D3"
   offset="0.1222" />
					<midPointStop
   id="midPointStop161"
   style="stop-color:#9FB3D3"
   offset="0.5" />
					<midPointStop
   id="midPointStop163"
   style="stop-color:#9EB2D2"
   offset="0.1395" />
					<midPointStop
   id="midPointStop165"
   style="stop-color:#9EB2D2"
   offset="0.5" />
					<midPointStop
   id="midPointStop167"
   style="stop-color:#7D91B2"
   offset="0.6707" />
					<midPointStop
   id="midPointStop169"
   style="stop-color:#7D91B2"
   offset="0.5" />
					<midPointStop
   id="midPointStop171"
   style="stop-color:#7085A6"
   offset="0.9611" />
				</linearGradient>
				<path
   d="M 119.48,25.278 L 119.444,25.256 L 52.386,88.955 L 51.386,89.288 C 51.386,89.288 29.619,82.182 22.512,77.96 C 15.609,73.861 4.937,64.631 3.615,62.68 C 3.042,63.718 2.089,65.703 2.089,65.703 C 2.089,65.703 11.64,74.809 19.525,80.029 C 27.41,85.249 48.289,94.022 49.955,94.467 C 51.621,94.912 52.403,95.244 52.403,95.244 L 53.958,94.8 L 119.592,32.944 L 119.48,25.278 z"
   id="path173"
   style="fill:url(#XMLID_45_)" />
				<path
   d="M 119.013,24.479 L 52.085,87.896 L 51.085,88.229 C 51.085,88.229 29.318,81.122 22.211,76.901 C 15.309,72.802 4.636,63.573 3.314,61.621 C 2.741,62.66 3.09,62.573 3.09,62.573 C 3.09,62.573 12.641,71.679 20.526,76.899 C 28.411,82.119 51.213,90.456 51.213,90.456 L 52.768,90.013 L 118.834,25.664 L 119.013,24.479 z"
   id="path175"
   style="opacity:0.51000001;fill:#ebf0fc" />
				<g
   id="g177"
   style="opacity:0.62999998">
					<path
   d="M 11.013,51.873 L 10.67,52.205 C 6.44,56.338 3.423,60.631 2.135,62.464 L 1.703,63.072 C 0.726,64.415 1.127,65.545 1.518,66.001 C 1.665,66.147 11.259,75.269 19.109,80.464 C 27.021,85.702 48.143,94.569 49.759,95.001 L 52.323,95.813 L 52.606,95.775 L 54.336,95.28 L 63.893,86.273 L 63.922,85.996 C 64.166,83.642 63.615,81.596 63.352,80.613 L 63.279,80.336 C 62.974,79.123 61.963,78.657 61.848,78.608 C 61.63,78.52 41.422,70.339 32,65.849 C 23.925,61.998 14.669,54.161 12.024,51.849 L 11.504,51.395 L 11.013,51.873 z M 2.611,64.97 C 2.611,64.956 2.588,64.893 2.588,64.782 C 2.588,64.612 2.643,64.331 2.916,63.955 L 3.361,63.326 C 4.609,61.55 7.516,57.42 11.567,53.431 C 14.736,56.169 23.525,63.466 31.357,67.201 C 40.818,71.712 61.069,79.909 61.272,79.991 L 61.272,79.991 C 61.272,79.992 61.7,80.202 61.825,80.7 L 61.825,80.7 L 61.904,81.002 C 62.104,81.746 62.484,83.157 62.484,84.805 C 62.484,85.056 62.464,85.318 62.445,85.579 C 62.035,85.965 53.826,93.702 53.574,93.939 C 53.341,94.005 52.682,94.194 52.407,94.272 C 51.955,94.127 50.146,93.551 50.146,93.551 C 48.555,93.127 27.749,84.384 19.937,79.213 C 12.2,74.091 2.7,65.062 2.605,64.97 C 2.609,64.975 2.611,64.975 2.611,64.97 z M 61.826,80.704 L 61.825,80.7 C 61.825,80.701 61.826,80.704 61.826,80.704 z"
   id="path179"
   style="fill:#436989" />
				</g>
				<path
   d="M 75.758,0.001 C 40.24,0.225 12.089,11.698 11.809,11.813 L 10.667,12.285 L 10.372,16.395 C 10.372,16.395 16.074,19.557 16.364,19.705 C 18.515,22.613 27.487,28.74 31.941,31.291 C 26.594,36.13 13.868,47.611 9.954,51.435 C 5.641,55.649 2.577,60.007 1.268,61.87 L 0.85,62.461 C 0.223,63.322 0,64.146 0,64.859 C 0,65.782 0.372,66.525 0.727,66.939 L 0.792,67.015 L 0.865,67.083 C 1.26,67.46 10.636,76.373 18.576,81.629 C 26.601,86.941 47.608,95.802 49.595,96.332 L 52.357,97.2 L 53.109,97.099 L 55.131,96.521 L 121.76,33.726 L 121.621,24.085 C 121.621,24.085 120.172,23.189 119.67,22.877 C 119.69,22.816 120.053,21.634 120.053,21.634 L 119.028,20.782 C 118.478,20.326 105.454,9.563 94.897,5.674 C 84.333,1.785 76.512,0.114 76.184,0.045 L 75.974,0 L 75.758,0.001 z M 75.575,4.007 C 76.651,4.245 83.977,5.918 93.513,9.432 C 101.816,12.491 112.203,20.458 115.438,23.032 C 115.43,23.059 114.939,24.657 114.939,24.657 C 114.939,24.657 116.98,25.921 117.652,26.337 C 117.673,27.731 117.717,30.869 117.734,32.025 C 116.484,33.203 53.789,92.291 53.095,92.945 C 52.876,93.007 52.817,93.025 52.575,93.092 C 51.786,92.84 50.625,92.468 50.625,92.468 C 49.1,92.036 28.516,83.414 20.784,78.296 C 14.18,73.925 6.263,66.656 4.166,64.698 C 4.276,64.542 4.541,64.169 4.541,64.169 C 5.785,62.398 8.699,58.251 12.748,54.296 C 17.441,49.712 37.919,31.212 38.126,31.025 L 40.187,29.163 L 37.768,27.798 C 32.44,24.793 21.649,18.527 18.942,16.329 L 18.779,16.196 C 18.779,16.196 17.124,15.351 15.692,14.62 C 22.972,11.977 46.727,4.225 75.575,4.007 z"
   id="path181" />
				<g
   id="g183">
					<path
   d="M 20.27,15.029 L 17.925,15.787 L 17.65,16.201 L 17.65,17.791 L 17.784,17.859 C 20.638,20.177 31.224,26.289 35.285,28.607 C 35.96,28.936 36.555,29.222 37.046,29.452 C 41.704,31.632 53.773,37.078 56.324,38.228 L 56.324,36.193 C 56.255,35.711 56.876,35.504 56.876,35.504 L 58.904,34.383 L 59.082,33.851 C 33.644,14.753 20.27,15.029 20.27,15.029 z"
   id="path185"
   style="fill:#ffbf00" />
					<path
   d="M 20.254,14.279 L 20.144,14.281 L 17.446,15.154 L 16.9,15.974 L 16.9,18.249 C 16.9,18.249 17.353,18.481 17.393,18.501 C 20.36,20.876 30.612,26.804 34.913,29.257 C 34.956,29.28 36.728,30.13 36.728,30.13 L 57.077,39.394 L 57.074,38.227 L 57.074,36.192 L 57.239,36.159 L 59.523,34.896 L 59.964,33.573 L 59.531,33.249 C 34.179,14.217 20.811,14.269 20.254,14.279 z M 20.38,15.782 C 21.377,15.802 34.418,16.446 58.026,34.011 C 57.453,34.327 56.511,34.849 56.511,34.849 L 56.637,34.793 C 56.1,34.973 55.567,35.454 55.567,36.118 C 55.567,36.178 55.572,36.239 55.581,36.301 C 55.581,36.301 55.579,36.699 55.578,37.067 C 53.695,36.21 37.363,28.775 37.363,28.775 C 37.362,28.775 35.613,27.935 35.613,27.935 C 32.342,26.066 21.438,19.789 18.399,17.384 C 18.399,17.254 18.399,17.125 18.399,17.003 C 18.399,16.781 18.399,16.58 18.399,16.431 C 18.401,16.426 18.401,16.426 18.404,16.423 C 18.779,16.3 20.188,15.844 20.38,15.782 z"
   id="path187"
   style="fill:#2b4966" />
				</g>
				<path
   d="M 18.293,16.938 C 18.293,16.938 31.329,24.377 35.696,26.626 C 40.063,28.874 55.609,35.95 55.609,35.95 C 55.609,35.95 55.738,35.372 55.995,35.115 C 56.252,34.858 38.948,25.613 37.214,24.778 C 35.48,23.942 18.87,16.23 18.87,16.23 L 18.465,16.427 L 18.293,16.938 z"
   id="path189"
   style="opacity:0.87999998;fill:#fcee86" />
				
					<linearGradient
   x1="-310.3374"
   y1="294.14841"
   x2="-265.77341"
   y2="294.14841"
   id="XMLID_46_"
   gradientUnits="userSpaceOnUse"
   gradientTransform="matrix(1,0,0,-1,350.4136,349.6621)">
					<stop
   id="stop192"
   style="stop-color:#ebf0fc;stop-opacity:1"
   offset="0.1222" />
					<stop
   id="stop194"
   style="stop-color:#b8c6df;stop-opacity:1"
   offset="0.4862" />
					<stop
   id="stop196"
   style="stop-color:#97abcb;stop-opacity:1"
   offset="0.77209997" />
					<stop
   id="stop198"
   style="stop-color:#8aa1c4;stop-opacity:1"
   offset="0.9278" />
					<midPointStop
   id="midPointStop200"
   style="stop-color:#EBF0FC"
   offset="0.1222" />
					<midPointStop
   id="midPointStop202"
   style="stop-color:#EBF0FC"
   offset="0.5" />
					<midPointStop
   id="midPointStop204"
   style="stop-color:#B8C6DF"
   offset="0.4862" />
					<midPointStop
   id="midPointStop206"
   style="stop-color:#B8C6DF"
   offset="0.5" />
					<midPointStop
   id="midPointStop208"
   style="stop-color:#97ABCB"
   offset="0.7721" />
					<midPointStop
   id="midPointStop210"
   style="stop-color:#97ABCB"
   offset="0.5" />
					<midPointStop
   id="midPointStop212"
   style="stop-color:#8AA1C4"
   offset="0.9278" />
				</linearGradient>
				<path
   d="M 42.481,64.344 C 52.167,61.211 79.085,51.527 79.085,51.527 L 84.641,46.684 L 40.076,63.191 L 42.481,64.344 z"
   id="path214"
   style="opacity:0.26000001;fill:url(#XMLID_46_)" />
				<g
   id="g216">
					
						<linearGradient
   x1="-666.8999"
   y1="49.065399"
   x2="-666.8999"
   y2="39.130402"
   id="XMLID_47_"
   gradientUnits="userSpaceOnUse"
   gradientTransform="matrix(0.8747,0.4847,-0.4847,0.8747,631.6152,357.0175)">
						<stop
   id="stop219"
   style="stop-color:#b3b3b3;stop-opacity:1"
   offset="0.0278" />
						<stop
   id="stop221"
   style="stop-color:#949494;stop-opacity:1"
   offset="0.58469999" />
						<stop
   id="stop223"
   style="stop-color:#7f7f7f;stop-opacity:1"
   offset="0.9278" />
						<stop
   id="stop225"
   style="stop-color:#666666;stop-opacity:1"
   offset="1" />
						<midPointStop
   id="midPointStop227"
   style="stop-color:#B3B3B3"
   offset="0.0278" />
						<midPointStop
   id="midPointStop229"
   style="stop-color:#B3B3B3"
   offset="0.5" />
						<midPointStop
   id="midPointStop231"
   style="stop-color:#949494"
   offset="0.5847" />
						<midPointStop
   id="midPointStop233"
   style="stop-color:#949494"
   offset="0.5" />
						<midPointStop
   id="midPointStop235"
   style="stop-color:#7F7F7F"
   offset="0.9278" />
						<midPointStop
   id="midPointStop237"
   style="stop-color:#7F7F7F"
   offset="0.5" />
						<midPointStop
   id="midPointStop239"
   style="stop-color:#666666"
   offset="1" />
					</linearGradient>
					<path
   d="M 25.479,66.765 C 25.479,66.765 25.544,66.734 25.582,66.743 C 25.894,66.821 27.48,67.238 29.21,68.197 C 30.908,69.138 32.161,70.28 32.43,70.531 C 32.463,70.564 32.461,70.638 32.461,70.638 C 32.461,70.638 31.77,72.78 30.867,74.407 C 30.066,75.854 28.555,77.747 28.555,77.747 C 28.555,77.747 28.468,77.809 28.407,77.791 C 27.999,77.678 26.336,77.189 24.732,76.277 C 23.161,75.382 21.868,74.257 21.565,73.987 C 21.521,73.947 21.521,73.877 21.521,73.877 C 21.521,73.877 21.753,72.42 23.053,70.076 C 23.979,68.402 25.479,66.765 25.479,66.765 z"
   id="path241"
   style="fill:url(#XMLID_47_)" />
					
						<linearGradient
   x1="-666.95801"
   y1="48.881302"
   x2="-666.88428"
   y2="42.022099"
   id="XMLID_48_"
   gradientUnits="userSpaceOnUse"
   gradientTransform="matrix(0.8747,0.4847,-0.4847,0.8747,631.6152,357.0175)">
						<stop
   id="stop244"
   style="stop-color:#999999;stop-opacity:1"
   offset="0.0222" />
						<stop
   id="stop246"
   style="stop-color:#999999;stop-opacity:1"
   offset="0.41670001" />
						<stop
   id="stop248"
   style="stop-color:#666666;stop-opacity:1"
   offset="0.94440001" />
						<midPointStop
   id="midPointStop250"
   style="stop-color:#999999"
   offset="0.0222" />
						<midPointStop
   id="midPointStop252"
   style="stop-color:#999999"
   offset="0.5" />
						<midPointStop
   id="midPointStop254"
   style="stop-color:#999999"
   offset="0.4167" />
						<midPointStop
   id="midPointStop256"
   style="stop-color:#999999"
   offset="0.5" />
						<midPointStop
   id="midPointStop258"
   style="stop-color:#666666"
   offset="0.9444" />
					</linearGradient>
					<path
   d="M 25.586,67.223 C 25.586,67.223 25.646,67.194 25.68,67.202 C 25.967,67.273 27.424,67.658 29.014,68.538 C 30.575,69.403 31.726,70.453 31.972,70.684 C 32.005,70.714 32.001,70.782 32.001,70.782 C 32.001,70.782 31.365,72.751 30.538,74.246 C 29.802,75.576 28.412,77.314 28.412,77.314 C 28.412,77.314 28.331,77.371 28.274,77.356 C 27.899,77.252 26.371,76.801 24.899,75.964 C 23.454,75.143 22.264,74.108 21.988,73.86 C 21.946,73.824 21.947,73.758 21.947,73.758 C 21.947,73.758 22.16,72.418 23.353,70.264 C 24.205,68.729 25.586,67.223 25.586,67.223 z"
   id="path260"
   style="fill:url(#XMLID_48_)" />
					<path
   d="M 25.531,66.307 C 25.46,66.288 25.383,66.32 25.343,66.337 L 25.321,66.349 L 25.304,66.366 C 25.288,66.384 23.696,68.131 22.719,69.891 C 21.35,72.361 21.096,73.889 21.086,73.953 L 21.084,73.962 L 21.084,73.971 C 21.085,73.993 21.088,74.106 21.171,74.179 C 21.547,74.515 22.9,75.682 24.544,76.617 C 26.235,77.578 27.966,78.094 28.458,78.228 C 28.569,78.257 28.684,78.186 28.717,78.163 L 28.732,78.153 L 28.742,78.139 C 28.759,78.118 30.357,76.112 31.2,74.589 C 32.148,72.879 32.888,70.605 32.897,70.582 L 32.902,70.565 L 32.9,70.549 C 32.902,70.518 32.899,70.41 32.829,70.343 C 32.575,70.105 31.22,68.864 29.397,67.857 C 27.621,66.87 25.988,66.42 25.531,66.307 z M 29.153,68.296 C 30.848,69.234 32.107,70.388 32.347,70.612 C 32.346,70.612 32.346,70.612 32.346,70.613 C 32.345,70.614 32.344,70.616 32.345,70.619 C 32.288,70.793 31.616,72.814 30.766,74.35 C 30.011,75.711 28.607,77.495 28.478,77.657 C 28.458,77.668 28.439,77.678 28.429,77.678 C 28.111,77.591 26.408,77.098 24.788,76.177 C 23.255,75.306 21.991,74.215 21.641,73.903 C 21.64,73.901 21.637,73.89 21.636,73.882 C 21.661,73.746 21.938,72.324 23.152,70.132 C 24.006,68.591 25.371,67.059 25.546,66.863 C 25.556,66.86 25.563,66.858 25.565,66.857 C 26.003,66.966 27.51,67.384 29.153,68.296 z"
   id="path262"
   style="fill:#2b4966" />
					
						<linearGradient
   x1="-666.89258"
   y1="45.306599"
   x2="-666.89258"
   y2="39.3951"
   id="XMLID_49_"
   gradientUnits="userSpaceOnUse"
   gradientTransform="matrix(0.8747,0.4847,-0.4847,0.8747,631.6152,357.0175)">
						<stop
   id="stop265"
   style="stop-color:#999999;stop-opacity:1"
   offset="0.05" />
						<stop
   id="stop267"
   style="stop-color:#7f7f7f;stop-opacity:1"
   offset="0.57779998" />
						<stop
   id="stop269"
   style="stop-color:#666666;stop-opacity:1"
   offset="0.8944" />
						<midPointStop
   id="midPointStop271"
   style="stop-color:#999999"
   offset="0.05" />
						<midPointStop
   id="midPointStop273"
   style="stop-color:#999999"
   offset="0.5" />
						<midPointStop
   id="midPointStop275"
   style="stop-color:#7F7F7F"
   offset="0.5778" />
						<midPointStop
   id="midPointStop277"
   style="stop-color:#7F7F7F"
   offset="0.5" />
						<midPointStop
   id="midPointStop279"
   style="stop-color:#666666"
   offset="0.8944" />
					</linearGradient>
					<path
   d="M 32.012,70.667 C 31.765,70.436 30.61,69.379 29.044,68.513 C 27.448,67.628 25.982,67.244 25.694,67.173 C 25.662,67.165 25.6,67.194 25.6,67.194 C 25.6,67.194 24.21,68.713 23.353,70.26 C 23.302,70.353 23.254,70.443 23.207,70.531 C 23.35,71.198 23.846,72.014 25.344,72.397 C 28.196,73.125 29.736,74.039 30.028,75.137 C 30.223,74.838 30.409,74.538 30.565,74.256 C 31.399,72.75 32.043,70.766 32.043,70.766 C 32.043,70.766 32.044,70.698 32.012,70.667 z"
   id="path281"
   style="fill:url(#XMLID_49_)" />
					
						<linearGradient
   x1="-666.88672"
   y1="39.568401"
   x2="-666.88672"
   y2="42.246498"
   id="XMLID_50_"
   gradientUnits="userSpaceOnUse"
   gradientTransform="matrix(0.8747,0.4847,-0.4847,0.8747,631.6152,357.0175)">
						<stop
   id="stop284"
   style="stop-color:#ffffff;stop-opacity:1"
   offset="0.0778" />
						<stop
   id="stop286"
   style="stop-color:#ebebeb;stop-opacity:1"
   offset="0.25409999" />
						<stop
   id="stop288"
   style="stop-color:#b9b9b9;stop-opacity:1"
   offset="0.61159998" />
						<stop
   id="stop290"
   style="stop-color:#8c8c8c;stop-opacity:1"
   offset="0.89999998" />
						<midPointStop
   id="midPointStop292"
   style="stop-color:#FFFFFF"
   offset="0.0778" />
						<midPointStop
   id="midPointStop294"
   style="stop-color:#FFFFFF"
   offset="0.5" />
						<midPointStop
   id="midPointStop296"
   style="stop-color:#EBEBEB"
   offset="0.2541" />
						<midPointStop
   id="midPointStop298"
   style="stop-color:#EBEBEB"
   offset="0.5" />
						<midPointStop
   id="midPointStop300"
   style="stop-color:#B9B9B9"
   offset="0.6116" />
						<midPointStop
   id="midPointStop302"
   style="stop-color:#B9B9B9"
   offset="0.5" />
						<midPointStop
   id="midPointStop304"
   style="stop-color:#8C8C8C"
   offset="0.9" />
					</linearGradient>
					<path
   d="M 25.622,67.305 C 25.622,67.305 25.682,67.278 25.714,67.284 C 25.995,67.356 27.432,67.739 28.999,68.607 C 30.538,69.46 31.675,70.49 31.917,70.716 C 31.949,70.746 31.949,70.813 31.949,70.813 C 31.949,70.813 31.493,71.96 31.112,72.741 C 31.091,72.586 30.757,72.095 27.923,70.525 C 25.497,69.18 24.739,68.813 24.448,68.837 C 24.943,68.208 25.622,67.305 25.622,67.305 z"
   id="path306"
   style="opacity:0.62000002;fill:url(#XMLID_50_)" />
					<path
   d="M 23.729,74.772 C 23.729,74.772 23.679,74.794 23.674,74.825 C 23.67,74.855 23.676,74.959 23.695,74.982 C 23.714,75.004 23.765,75.017 23.796,75.021 C 23.824,75.025 25.958,75.161 26.37,74.269 C 26.697,73.564 25.3,72.941 25.565,72.35 C 25.852,71.706 26.897,70.933 29.488,70.789 C 30.306,71.34 31.207,71.404 31.224,70.893 C 31.235,70.555 29.729,70.476 29.625,70.456 C 29.522,70.437 29.352,70.355 29.325,70.164 C 29.286,69.872 29.691,69.852 29.799,69.811 C 29.521,69.681 29.027,69.577 28.806,69.741 C 28.702,69.818 28.495,70.081 29.001,70.421 C 26.607,70.357 25.321,71.101 24.705,71.709 C 24.174,72.235 24.271,72.61 24.677,73.216 C 25.035,73.751 25.214,74.045 24.841,74.278 C 24.474,74.516 23.729,74.772 23.729,74.772 z"
   id="path308"
   style="opacity:0.46000001;fill:#666666" />
					<path
   d="M 23.692,74.87 C 23.692,74.87 23.695,74.87 23.697,74.87 L 23.594,74.831 C 23.615,74.854 23.663,74.865 23.692,74.87 z"
   id="path310"
   style="fill:none" />
					<path
   d="M 31.122,70.742 C 31.133,70.405 29.628,70.325 29.524,70.305 C 29.42,70.285 29.252,70.204 29.225,70.014 C 29.185,69.722 29.589,69.701 29.698,69.66 C 29.42,69.531 28.927,69.426 28.704,69.589 C 28.6,69.666 28.393,69.931 28.899,70.271 C 26.506,70.206 25.218,70.949 24.603,71.558 C 24.455,71.705 24.356,71.839 24.299,71.973 C 24.339,72.135 24.419,72.314 24.587,72.414 C 24.941,72.626 25.24,72.56 25.719,72.917 C 25.513,72.669 25.357,72.432 25.461,72.196 C 25.75,71.553 26.793,70.778 29.384,70.636 C 30.205,71.19 31.106,71.254 31.122,70.742 z"
   id="path312"
   style="fill:none" />
					
						<linearGradient
   x1="-666.96338"
   y1="45.7075"
   x2="-666.47351"
   y2="41.1898"
   id="XMLID_51_"
   gradientUnits="userSpaceOnUse"
   gradientTransform="matrix(0.8747,0.4847,-0.4847,0.8747,631.6152,357.0175)">
						<stop
   id="stop315"
   style="stop-color:#ffffff;stop-opacity:1"
   offset="0.0222" />
						<stop
   id="stop317"
   style="stop-color:#fffacd;stop-opacity:1"
   offset="0.0887" />
						<stop
   id="stop319"
   style="stop-color:#fff490;stop-opacity:1"
   offset="0.1796" />
						<stop
   id="stop321"
   style="stop-color:#ffef5c;stop-opacity:1"
   offset="0.2669" />
						<stop
   id="stop323"
   style="stop-color:#ffeb34;stop-opacity:1"
   offset="0.34819999" />
						<stop
   id="stop325"
   style="stop-color:#ffe818;stop-opacity:1"
   offset="0.42210001" />
						<stop
   id="stop327"
   style="stop-color:#ffe706;stop-opacity:1"
   offset="0.48629999" />
						<stop
   id="stop329"
   style="stop-color:#ffe600;stop-opacity:1"
   offset="0.53329998" />
						<stop
   id="stop331"
   style="stop-color:#ffed00;stop-opacity:1"
   offset="0.97780001" />
						<midPointStop
   id="midPointStop333"
   style="stop-color:#FFFFFF"
   offset="0.0222" />
						<midPointStop
   id="midPointStop335"
   style="stop-color:#FFFFFF"
   offset="0.5" />
						<midPointStop
   id="midPointStop337"
   style="stop-color:#FFFACD"
   offset="0.0887" />
						<midPointStop
   id="midPointStop339"
   style="stop-color:#FFFACD"
   offset="0.5" />
						<midPointStop
   id="midPointStop341"
   style="stop-color:#FFF490"
   offset="0.1796" />
						<midPointStop
   id="midPointStop343"
   style="stop-color:#FFF490"
   offset="0.5" />
						<midPointStop
   id="midPointStop345"
   style="stop-color:#FFEF5C"
   offset="0.2669" />
						<midPointStop
   id="midPointStop347"
   style="stop-color:#FFEF5C"
   offset="0.5" />
						<midPointStop
   id="midPointStop349"
   style="stop-color:#FFEB34"
   offset="0.3482" />
						<midPointStop
   id="midPointStop351"
   style="stop-color:#FFEB34"
   offset="0.5" />
						<midPointStop
   id="midPointStop353"
   style="stop-color:#FFE818"
   offset="0.4221" />
						<midPointStop
   id="midPointStop355"
   style="stop-color:#FFE818"
   offset="0.5" />
						<midPointStop
   id="midPointStop357"
   style="stop-color:#FFE706"
   offset="0.4863" />
						<midPointStop
   id="midPointStop359"
   style="stop-color:#FFE706"
   offset="0.5" />
						<midPointStop
   id="midPointStop361"
   style="stop-color:#FFE600"
   offset="0.5333" />
						<midPointStop
   id="midPointStop363"
   style="stop-color:#FFE600"
   offset="0.5" />
						<midPointStop
   id="midPointStop365"
   style="stop-color:#FFED00"
   offset="0.9778" />
					</linearGradient>
					<path
   d="M 23.626,74.619 C 23.626,74.619 23.575,74.644 23.572,74.674 C 23.566,74.704 23.574,74.809 23.593,74.831 C 23.612,74.854 23.661,74.866 23.692,74.871 C 23.723,74.876 25.854,75.011 26.267,74.119 C 26.594,73.414 25.197,72.791 25.461,72.2 C 25.75,71.557 26.793,70.782 29.384,70.64 C 30.204,71.191 31.106,71.254 31.121,70.744 C 31.132,70.407 29.627,70.327 29.523,70.307 C 29.419,70.287 29.251,70.206 29.224,70.016 C 29.184,69.724 29.588,69.703 29.696,69.662 C 29.419,69.533 28.925,69.43 28.703,69.591 C 28.599,69.668 28.392,69.933 28.898,70.273 C 26.505,70.208 25.217,70.951 24.602,71.56 C 24.071,72.085 24.168,72.46 24.575,73.068 C 24.932,73.602 25.111,73.897 24.74,74.13 C 24.369,74.361 23.626,74.619 23.626,74.619 z"
   id="path367"
   style="fill:url(#XMLID_51_)" />
					
						<linearGradient
   x1="-667.97607"
   y1="45.119598"
   x2="-667.84912"
   y2="48.331501"
   id="XMLID_52_"
   gradientUnits="userSpaceOnUse"
   gradientTransform="matrix(0.8747,0.4847,-0.4847,0.8747,631.6152,357.0175)">
						<stop
   id="stop370"
   style="stop-color:#ffed00;stop-opacity:1"
   offset="0.0333" />
						<stop
   id="stop372"
   style="stop-color:#feec00;stop-opacity:1"
   offset="0.0497" />
						<stop
   id="stop374"
   style="stop-color:#f2cb00;stop-opacity:1"
   offset="0.50950003" />
						<stop
   id="stop376"
   style="stop-color:#edbe00;stop-opacity:1"
   offset="0.76109999" />
						<midPointStop
   id="midPointStop378"
   style="stop-color:#FFED00"
   offset="0.0333" />
						<midPointStop
   id="midPointStop380"
   style="stop-color:#FFED00"
   offset="0.5" />
						<midPointStop
   id="midPointStop382"
   style="stop-color:#FEEC00"
   offset="0.0497" />
						<midPointStop
   id="midPointStop384"
   style="stop-color:#FEEC00"
   offset="0.5" />
						<midPointStop
   id="midPointStop386"
   style="stop-color:#F2CB00"
   offset="0.5095" />
						<midPointStop
   id="midPointStop388"
   style="stop-color:#F2CB00"
   offset="0.5" />
						<midPointStop
   id="midPointStop390"
   style="stop-color:#EDBE00"
   offset="0.7611" />
					</linearGradient>
					<path
   d="M 24.591,72.446 C 24.424,72.345 24.342,72.167 24.303,72.004 C 24.157,72.344 24.287,72.661 24.579,73.098 C 24.936,73.632 25.115,73.926 24.743,74.16 C 24.373,74.393 23.63,74.65 23.63,74.65 C 23.63,74.65 23.58,74.674 23.574,74.705 C 23.57,74.734 23.577,74.839 23.596,74.862 C 23.595,74.862 23.596,74.863 23.596,74.863 L 23.7,74.9 C 23.798,74.908 25.864,75.025 26.27,74.147 C 26.467,73.722 26.037,73.327 25.722,72.949 C 25.245,72.592 24.944,72.66 24.591,72.446 z"
   id="path392"
   style="fill:url(#XMLID_52_)" />
					<path
   d="M 30.892,70.55 C 30.892,70.55 31.166,70.734 30.944,70.847 C 30.694,70.974 30.008,70.834 29.414,70.544 C 28.929,70.492 26.76,70.49 25.609,71.576 C 25.109,72.046 25.213,72.511 25.648,72.909 C 25.176,72.152 25.793,71.753 25.793,71.753 L 26.492,71.262 L 27.75,70.84 L 28.61,70.684 L 29.383,70.622 L 29.775,70.868 L 30.271,71.049 L 30.744,71.103 L 31.032,70.994 L 31.156,70.764 L 31.084,70.633 L 30.892,70.55 z"
   id="path394"
   style="fill:#edbe00" />
					<path
   d="M 24.938,73.841 C 24.93,73.508 24.406,73.024 24.293,72.57 C 24.161,72.025 24.378,71.727 24.354,71.805 C 24.232,72.203 24.457,72.534 24.693,72.754 C 24.979,73.023 25.529,73.466 25.359,73.926 C 25.145,74.512 23.559,74.695 23.559,74.695 C 23.559,74.695 24.945,74.145 24.938,73.841 z"
   id="path396"
   style="fill:#edbe00" />
					<path
   d="M 29.417,70.332 C 29.417,70.332 29.175,70.229 29.077,70.093 C 28.979,69.957 28.974,69.76 29.121,69.688 C 29.352,69.573 29.571,69.673 29.574,69.697 C 29.579,69.718 29.348,69.78 29.348,69.78 L 29.245,69.94 L 29.266,70.125 L 29.365,70.248 L 29.417,70.332 z"
   id="path398"
   style="fill:#edbe00" />
					<path
   d="M 29.724,69.607 C 29.433,69.471 28.914,69.362 28.668,69.542 C 28.647,69.56 28.595,69.603 28.557,69.67 C 28.532,69.716 28.51,69.774 28.513,69.843 C 28.516,69.967 28.586,70.089 28.72,70.21 C 26.284,70.186 25.071,71.011 24.561,71.517 C 24.438,71.639 24.347,71.753 24.285,71.866 C 24.067,72.262 24.204,72.621 24.525,73.103 C 24.771,73.468 24.918,73.704 24.881,73.874 C 24.876,73.896 24.867,73.918 24.857,73.938 C 24.829,73.988 24.781,74.034 24.71,74.079 C 24.349,74.306 23.614,74.559 23.606,74.562 L 23.603,74.564 L 23.599,74.565 C 23.585,74.572 23.545,74.594 23.524,74.631 C 23.518,74.642 23.514,74.652 23.512,74.664 C 23.508,74.688 23.505,74.821 23.546,74.87 C 23.579,74.908 23.639,74.923 23.684,74.931 C 23.705,74.934 25.813,75.072 26.298,74.195 C 26.308,74.178 26.317,74.162 26.323,74.145 C 26.51,73.74 26.18,73.365 25.891,73.033 C 25.64,72.744 25.397,72.469 25.507,72.222 C 25.518,72.196 25.679,71.782 26.407,71.367 C 26.976,71.041 27.839,70.789 29.368,70.703 C 29.963,71.096 30.632,71.257 30.968,71.085 C 31.104,71.017 31.177,70.899 31.183,70.746 C 31.191,70.503 30.735,70.357 29.655,70.26 L 29.536,70.247 C 29.514,70.243 29.311,70.2 29.286,70.008 C 29.263,69.839 29.433,69.787 29.625,69.745 L 29.885,69.679 L 29.724,69.607 z M 24.773,74.182 C 24.862,74.126 24.924,74.066 24.963,73.995 C 24.979,73.965 24.991,73.933 24.998,73.898 C 25.045,73.68 24.89,73.425 24.626,73.033 C 24.323,72.58 24.198,72.27 24.391,71.923 C 24.449,71.82 24.532,71.715 24.646,71.605 C 25.154,71.101 26.384,70.266 28.897,70.334 L 29.108,70.34 L 28.933,70.223 C 28.741,70.092 28.636,69.961 28.634,69.842 C 28.633,69.798 28.644,69.76 28.662,69.731 C 28.688,69.682 28.728,69.65 28.739,69.643 C 28.895,69.528 29.229,69.568 29.493,69.652 C 29.382,69.683 29.253,69.735 29.193,69.842 C 29.167,69.892 29.154,69.95 29.163,70.024 C 29.192,70.235 29.368,70.339 29.513,70.367 L 29.644,70.381 C 30.93,70.498 31.063,70.672 31.061,70.741 C 31.058,70.849 31.007,70.927 30.913,70.975 C 30.617,71.127 29.975,70.96 29.419,70.587 L 29.401,70.576 L 29.38,70.576 C 26.365,70.741 25.597,71.747 25.406,72.172 C 25.263,72.489 25.538,72.806 25.802,73.11 C 26.079,73.428 26.365,73.756 26.211,74.09 C 25.818,74.939 23.719,74.81 23.697,74.807 C 23.665,74.803 23.643,74.792 23.636,74.787 C 23.632,74.774 23.625,74.7 23.628,74.681 C 23.626,74.689 23.647,74.675 23.649,74.673 C 23.706,74.656 24.407,74.411 24.773,74.182 z"
   id="path400"
   style="fill:#666666" />
				</g>
			</g>
		</g>
	</svg>