<?xml version="1.0" encoding="UTF-8" standalone="no"?>
<!-- Created with Inkscape (http://www.inkscape.org/) -->
<svg xmlns:dc="http://purl.org/dc/elements/1.1/" xmlns:cc="http://web.resource.org/cc/" xmlns:rdf="http://www.w3.org/1999/02/22-rdf-syntax-ns#" xmlns:svg="http://www.w3.org/2000/svg" xmlns="http://www.w3.org/2000/svg" xmlns:xlink="http://www.w3.org/1999/xlink" xmlns:sodipodi="http://sodipodi.sourceforge.net/DTD/sodipodi-0.dtd" xmlns:inkscape="http://www.inkscape.org/namespaces/inkscape" width="360" height="140" id="svg2" sodipodi:version="0.32" inkscape:version="0.45" sodipodi:docbase="/home/adam/Desktop/juggernaut" sodipodi:docname="be.svg" inkscape:output_extension="org.inkscape.output.svg.inkscape" version="1.0" sodipodi:modified="true">
  <defs id="defs4">
    <linearGradient id="linearGradient4112">
      <stop style="stop-color:#ce1919;stop-opacity:1;" offset="0" id="stop4114"/>
      <stop style="stop-color:#ff1919;stop-opacity:1;" offset="1" id="stop4116"/>
    </linearGradient>
    <linearGradient inkscape:collect="always" xlink:href="#linearGradient4112" id="linearGradient4118" x1="407.12625" y1="798.49701" x2="407.12625" y2="298.49701" gradientUnits="userSpaceOnUse"/>
  </defs>
  <sodipodi:namedview id="base" pagecolor="#ffffff" bordercolor="#666666" borderopacity="1.0" gridtolerance="10000" guidetolerance="10" objecttolerance="10" inkscape:pageopacity="0.0" inkscape:pageshadow="2" inkscape:zoom="0.7" inkscape:cx="192.64903" inkscape:cy="100.76522" inkscape:document-units="px" inkscape:current-layer="layer1" inkscape:window-width="872" inkscape:window-height="622" inkscape:window-x="208" inkscape:window-y="231" width="360px" height="140px"/>
  <metadata id="metadata7">
    <rdf:RDF>
      <cc:Work rdf:about="">
        <dc:format>image/svg+xml</dc:format>
        <dc:type rdf:resource="http://purl.org/dc/dcmitype/StillImage"/>
      </cc:Work>
    </rdf:RDF>
  </metadata>
  <g inkscape:label="Layer 1" inkscape:groupmode="layer" id="layer1" transform="translate(-159.06624,-298.49701)">
    <g id="g2240" transform="matrix(0.2571428,0,0,0.2571428,123.92443,227.45496)">
      <path id="text2181" d="M 739.8504,305.40043 L 739.8504,319.08805 C 800.36405,322.69005 809.00892,330.61453 809.00892,383.92417 L 809.00892,703.78235 C 809.00892,757.09199 799.64365,766.45726 739.8504,768.61847 L 739.8504,782.30609 L 980.46444,782.30609 C 1036.6557,782.30609 1087.8043,767.17764 1114.4591,742.68402 C 1140.3935,719.6312 1154.8016,687.21308 1154.8016,652.63386 C 1154.8016,620.93623 1141.8343,592.12013 1119.5019,571.22851 C 1097.8899,551.77769 1078.439,543.13285 1031.6129,531.60644 C 1069.0738,522.24123 1084.2022,515.03719 1101.4919,499.90878 C 1119.5019,484.05997 1130.3079,457.40507 1130.3079,427.86865 C 1130.3079,347.18378 1066.1921,305.40043 941.56276,305.40043 L 739.8504,305.40043 M 882.48986,547.45527 C 952.36871,547.45527 985.50727,551.05728 1011.4417,561.86329 C 1052.5045,579.15291 1071.9554,607.96902 1071.9554,653.35426 C 1071.9554,692.25589 1056.8269,720.3516 1028.0109,736.92081 C 1004.9581,749.88802 975.42158,755.65124 927.87514,755.65124 C 892.57551,755.65124 882.48986,749.16761 882.48986,726.11479 L 882.48986,547.45527 M 882.48986,518.63921 L 882.48986,353.66731 C 882.48986,338.5389 887.53268,332.05527 898.33869,332.05527 L 930.03634,332.05527 C 1012.8824,332.05527 1056.827,366.6346 1056.827,430.75025 C 1056.827,486.9415 1018.6456,518.63921 950.92798,518.63921 L 882.48986,518.63921 M 1502.7329,664.16028 C 1468.1536,718.91072 1437.1763,739.80241 1391.0707,739.80241 C 1350.0078,739.80241 1319.0305,718.91074 1298.1389,677.8479 C 1285.1717,650.47268 1280.1289,626.69937 1278.6881,582.75493 L 1500.5717,582.75493 C 1494.8085,535.92889 1487.6044,515.03718 1469.5944,491.98436 C 1447.9824,466.04994 1414.8439,450.92149 1377.383,450.92149 C 1341.363,450.92149 1307.5041,463.88874 1280.1289,488.38236 C 1246.27,517.91878 1226.8192,569.06736 1226.8192,628.14021 C 1226.8192,727.55549 1278.6882,789.5101 1361.5342,789.5101 C 1429.9723,789.5101 1484.0025,747.00635 1514.2593,669.20309 L 1502.7329,664.16028 M 1280.1289,559.70209 C 1288.0533,503.51084 1312.547,476.85594 1356.4914,476.85594 C 1400.4358,476.85594 1417.7255,497.02724 1427.0907,559.70209 L 1280.1289,559.70209" style="font-size:720.40130615px;font-style:normal;font-weight:normal;fill:#2258ac;fill-opacity:1;stroke:none;stroke-width:1px;stroke-linecap:butt;stroke-linejoin:miter;stroke-opacity:1;font-family:Nimbus Roman No9 L"/>
      <g id="g8965">
        <path style="fill:url(#linearGradient4118);fill-opacity:1;stroke:none;stroke-width:35;stroke-linecap:butt;stroke-linejoin:miter;stroke-miterlimit:4;stroke-dashoffset:0;stroke-opacity:1" d="M 188.33265,309.48602 C 188.33265,309.48602 302.07245,298.49701 411.82115,298.49701 C 521.57004,298.49701 627.32792,309.48602 627.32792,309.48602 C 634.69772,309.48602 640.6308,315.61239 640.6308,323.22228 C 640.6308,323.22228 655.18624,446.16185 655.18624,559.48603 C 655.18624,672.8102 640.6308,776.51899 640.6308,776.51899 C 640.6308,784.12889 634.69772,790.25529 627.32792,790.25529 C 627.32792,790.25529 521.57004,798.49699 411.82115,798.49699 C 302.07245,798.49699 188.33265,790.25529 188.33265,790.25529 C 180.96295,790.25529 175.02975,784.12889 175.02975,776.51899 C 175.02975,776.51899 159.06625,672.8102 159.06625,559.48603 C 159.06625,446.16185 175.02975,323.22228 175.02975,323.22228 C 175.02975,315.61239 180.96295,309.48602 188.33265,309.48602 z " id="rect5162" sodipodi:nodetypes="csccsccsccscc"/>
        <path sodipodi:nodetypes="cscccccc" id="path2170" d="M 191.48752,313.61532 C 191.48752,313.61532 303.60846,302.78272 411.7951,302.78272 C 519.98193,302.78272 624.23455,313.61532 624.23455,313.61532 C 631.49946,313.61532 637.34809,319.6545 637.34809,327.15607 C 637.34809,327.15607 651.69636,448.34584 651.69636,560.05707 C 517.16108,552.75726 286.14363,652.58821 162.63767,560.05707 C 162.63767,448.34584 178.37396,327.15607 178.37396,327.15607 C 178.37396,319.6545 184.22271,313.61532 191.48752,313.61532 z " style="opacity:0.2;fill:#ffffff;fill-opacity:0.47058824;stroke:none;stroke-width:35;stroke-linecap:butt;stroke-linejoin:miter;stroke-miterlimit:4;stroke-dashoffset:0;stroke-opacity:1"/>
        <path style="fill:none;fill-rule:evenodd;stroke:#ffffff;stroke-width:35;stroke-linecap:butt;stroke-linejoin:miter;stroke-miterlimit:4;stroke-dasharray:none;stroke-opacity:1" d="M 253.49915,414.15053 C 253.49915,414.15053 302.15785,358.79837 409.50225,358.79837 C 508.07259,358.79837 541.98465,389.89381 556.03387,414.22777 C 585.79925,465.78294 471.14755,506.51854 418.02535,506.51854 C 364.90315,506.51854 306.61117,492.63302 306.48875,468.26534 C 306.36437,443.50736 363.39885,425.65704 415.26975,425.65704 C 467.14065,425.65704 494.24831,441.25192 518.16086,468.26534 C 538.27432,490.98702 542.94008,511.79194 542.56935,528.07494 C 541.47001,576.35954 532.63436,586.74184 501.50378,616.95714 C 470.48005,647.06874 472.15455,658.67754 467.23105,677.05214 C 459.81805,704.71794 457.79765,727.62694 419.54355,731.46314 C 357.24805,737.71034 339.04985,669.01063 339.04985,669.01063" id="path3154" sodipodi:nodetypes="csszszsssssc"/>
      </g>
    </g>
  </g>
</svg>